<svg width="98" height="127" viewBox="0 0 98 127" fill="none" xmlns="http://www.w3.org/2000/svg">
<path d="M62 95C60.7108 96.4285 59.8192 98.6863 58 99C56.2446 99.3031 54.6739 97.8882 53 97C51.7133 96.3168 50.1281 96 49 96C47.8719 96 46.2867 96.318 45 97C43.5472 97.7708 42.516 99 41 99C40.7658 99.0008 40.2307 99.0397 40 99C38.1808 98.6895 37.2905 96.4273 36 95C35.2661 94.0717 34.0169 93.6186 33 93V123L49 113L65 123V93C63.9829 93.6194 62.7346 94.0716 62 95Z" fill="url(#paint0_linear_207_1384)"/>
<path d="M28 92.9999V127L32 124V92.9999C31.0221 92.9866 29.9632 92.8345 29 92.9999C28.6402 93.0512 28.3615 92.9543 28 92.9999Z" fill="#AB7935"/>
<path d="M66 93V124L70 127V93C69.6389 92.9562 69.3598 93.0514 69 93C68.0372 92.8352 66.9775 92.9873 66 93Z" fill="#AB7935"/>
<path d="M96 53.0001C97.0052 51.7369 98 50.2129 98 49.0001C98 47.7872 97.0064 46.2639 96 45.0001C94.9936 43.7363 94.2588 42.467 94 41.0001C93.7331 39.4821 93.4768 37.564 94 36.0001C94.5232 34.4362 95.3976 33.083 95 32.0001C94.5912 30.8817 93.4359 30.8786 92 30.0001C90.6073 29.1476 88.7595 27.3036 88 26.0001C87.2318 24.6785 87.0488 23.6379 87 22.0001C86.9475 20.3392 87.7551 18.8948 87 18.0001C86.2449 17.1053 84.6403 16.3381 83 16.0001C81.3879 15.6701 79.1721 14.9774 78 14.0001C76.8279 13.0227 76.6039 11.5174 76 10.0001C75.3793 8.44672 75.0302 7.59219 74 7.00006C73.356 6.69079 71.7111 5.92388 71 6.00006C70.7806 6.00875 71.2307 6.97707 71 7.00006C70.7693 7.02305 70.2294 6.96961 70 7.00006C69.737 7.03444 69.2688 6.96071 69 7.00006C67.978 7.17265 67.0366 7.01391 66 7.00006C65.774 6.99514 66.2242 7.02825 66 7.00006C65.7715 6.9628 65.2215 7.06707 65 7.00006C64.8925 6.97085 65.105 7.03858 65 7.00006C63.5841 6.48746 62.0833 5.21104 61 4.00006C59.8748 2.74434 59.1877 1.2082 58 1.00006C56.8636 0.804957 55.4571 1.21904 54 2.00006C52.5329 2.78542 50.5659 4.00006 49 4.00006C47.4341 4.00006 45.4671 2.7848 44 2.00006C42.5435 1.22028 41.1389 0.807443 40 1.00006C38.8123 1.20758 38.1252 2.74434 37 4.00006C35.9154 5.21104 34.4202 6.48746 33 7.00006C32.895 7.03858 33.1075 6.96961 33 7.00006C32.7785 7.06708 32.2285 6.96281 32 7.00006C31.7758 7.02821 32.226 6.99509 32 7.00006C30.9634 7.01455 30.0219 7.17328 29 7.00006C28.7295 6.95863 28.2613 7.03237 28 7.00006C27.7706 6.96961 27.2219 7.02305 27 7.00006C26.7781 6.97707 27.2194 6.00875 27 6.00006C26.2889 5.92388 24.644 6.69079 24 7.00006C22.9705 7.59281 22.6189 8.4492 22 10.0001C21.3949 11.518 21.1696 13.0258 20 14.0001C18.8304 14.9743 16.6103 15.6695 15 16.0001C13.3585 16.3368 11.7601 17.1016 11 18.0001C10.2399 18.8985 11.05 20.3392 11 22.0001C10.95 23.6391 10.7695 24.6797 10 26.0001C9.24112 27.3049 7.39398 29.1476 6 30.0001C4.56226 30.878 3.40882 30.881 3 32.0001C2.60368 33.0837 3.47679 34.4312 4 36.0001C4.52321 37.5689 4.26879 39.4809 4 41.0001C3.74121 42.4658 3.00767 43.7332 2 45.0001C0.992333 46.267 0 47.7872 0 49.0001C0 50.2129 0.994833 51.7375 2 53.0001C3.00517 54.2626 3.74121 55.5331 4 57.0001C4.26817 58.5192 4.52196 60.4362 4 62.0001C3.47804 63.564 2.60368 64.9171 3 66.0001C3.40882 67.1185 4.56539 67.1215 6 68.0001C7.39398 68.8525 9.2405 70.6953 10 72.0001C10.7695 73.3216 10.95 74.3628 11 76.0001C11.05 77.6609 10.2436 79.1053 11 80.0001C11.7564 80.8948 13.3597 81.6664 15 82.0001C16.6103 82.3312 18.8292 83.0208 20 84.0001C21.1708 84.9793 21.3949 86.4815 22 88.0001C22.6195 89.5534 22.9705 90.4079 24 91.0001C24.6442 91.3087 26.2889 92.0756 27 92.0001C27.2194 91.9901 26.7693 91.023 27 91.0001C27.2307 90.9771 27.7706 91.0305 28 91.0001C28.2617 90.9657 28.73 91.0394 29 91.0001C29.9109 90.8461 30.0763 91.0244 31 91.0001C31.1156 91.0001 31.8856 90.9963 32 91.0001C32.2269 91.01 31.7793 90.9696 32 91.0001C32.2287 91.0395 32.7787 90.9306 33 91.0001C33.1088 91.0293 32.895 90.9622 33 91.0001C34.4171 91.5127 35.9123 92.7891 37 94.0001C38.1252 95.2558 38.8123 96.7932 40 97.0001C41.1377 97.1952 42.5429 96.7798 44 96.0001C45.4671 95.2134 47.4341 94.0001 49 94.0001C50.5659 94.0001 52.5335 95.2153 54 96.0001C55.4665 96.7848 56.8661 97.1964 58 97.0001C59.1877 96.7938 59.8748 95.2558 61 94.0001C62.0833 92.7891 63.5841 91.5127 65 91.0001C65.105 90.9615 64.8925 91.0305 65 91.0001C65.2213 90.9327 65.7714 91.0361 66 91.0001C66.2207 90.9684 65.7731 91.01 66 91.0001C67.0366 90.9862 67.978 90.8275 69 91.0001C69.2692 91.0415 69.7375 90.9677 70 91.0001C70.2294 91.0305 70.7781 90.9783 71 91.0001C71.2219 91.0218 70.7806 91.9914 71 92.0001C71.7111 92.0768 73.3562 91.3099 74 91.0001C75.0295 90.4073 75.3799 89.5521 76 88.0001C76.6039 86.4834 76.8317 84.9755 78 84.0001C79.1683 83.0246 81.3885 82.3306 83 82.0001C84.6415 81.662 86.2386 80.8973 87 80.0001C87.7614 79.1028 86.9487 77.6609 87 76.0001C87.05 74.3622 87.2305 73.3223 88 72.0001C88.7589 70.6953 90.6073 68.8525 92 68.0001C93.4377 67.1221 94.5912 67.1191 95 66.0001C95.3976 64.9164 94.522 63.5695 94 62.0001C93.478 60.4306 93.7312 58.5192 94 57.0001C94.2588 55.5356 94.9917 54.267 96 53.0001ZM71 85.0001C70.7756 85.1392 71.2269 84.8658 71 85.0001C70.7731 85.1343 70.2257 85.8708 70 86.0001C68.7371 86.7181 67.33 87.4138 66 88.0001C65.7743 88.0995 66.2282 87.9044 66 88.0001C65.7718 88.0957 65.2244 87.9106 65 88.0001C54.839 92.0611 43.161 92.0611 33 88.0001C32.7756 87.9093 32.2232 88.0945 32 88.0001C31.7768 87.9056 32.2257 88.0995 32 88.0001C30.6696 87.4145 29.2625 86.7189 28 86.0001C27.7743 85.8714 27.2244 85.133 27 85.0001C26.7756 84.8671 27.2244 85.1392 27 85.0001C20.8346 81.2082 15.5289 76.2952 12 70.0001C8.47107 63.7049 6 56.2065 6 49.0001C6 41.7936 8.47107 34.2952 12 28.0001C15.5289 21.7049 20.8346 16.7919 27 13.0001C27.2244 12.8621 26.7731 13.1355 27 13.0001C27.2269 12.8646 27.7743 12.1281 28 12.0001C29.2625 11.2808 30.6696 10.586 32 10.0001C32.2257 9.90064 31.7718 10.0957 32 10.0001C32.2282 9.90437 32.7756 10.0895 33 10.0001C43.1609 5.93845 54.8391 5.93845 65 10.0001C65.2244 10.0895 65.7768 9.90686 66 10.0001C66.2232 10.0933 65.7743 9.90064 66 10.0001C67.3302 10.5858 68.7374 11.2815 70 12.0001C70.2257 12.1274 70.7768 12.8671 71 13.0001C71.2232 13.133 70.7756 12.8621 71 13.0001C77.1655 16.7918 82.471 21.7049 86 28.0001C89.529 34.2953 92 41.7935 92 49.0001C92 56.2066 89.529 63.7048 86 70.0001C82.471 76.2953 77.1655 81.2083 71 85.0001Z" fill="url(#paint1_linear_207_1384)"/>
<path d="M72 15.0001C71.7731 14.8572 71.2295 14.1386 71 14.0001C70.7705 13.8616 70.2257 14.1312 70 14.0001C68.7318 13.2646 67.3394 12.5999 66 12.0001C65.7743 11.8995 66.2282 11.097 66 11.0001C65.7718 10.9032 65.2269 11.0951 65 11.0001C54.7974 6.85804 43.2026 6.85804 33 11.0001C32.7728 11.092 32.2259 10.9053 32 11.0001C31.7718 11.0982 32.2257 11.8982 32 12.0001C30.6604 12.5994 29.2679 13.264 28 14.0001C27.7731 14.1312 27.2244 13.8634 27 14.0001C26.7756 14.1368 26.2269 14.8579 26 15.0001C20.0422 18.7428 15.3986 23.8858 12 30.0001C8.60139 36.1144 7 42.0244 7 49.0001C7 55.9758 8.60139 62.8858 12 69.0001C15.3986 75.1144 20.0422 80.2574 26 84.0001C26.2269 84.1442 26.7705 84.8585 27 85.0001C27.2295 85.1417 27.7731 84.869 28 85.0001C29.2682 85.7357 30.6606 86.4003 32 87.0001C32.2257 87.1007 31.7718 87.9032 32 88.0001C32.2282 88.097 32.7731 87.9051 33 88.0001C43.2025 92.143 54.7975 92.143 65 88.0001C65.2272 87.9082 65.7741 88.0949 66 88.0001C66.2282 87.902 65.7743 87.102 66 87.0001C67.3396 86.4012 68.7321 85.7357 70 85.0001C70.2257 84.869 70.7756 85.1368 71 85.0001C71.2244 84.8634 71.7731 84.1436 72 84.0001C77.9578 80.2574 82.6014 75.1144 86 69.0001C89.3986 62.8858 91 56.9758 91 50.0001C91 43.0244 89.3986 36.1144 86 30.0001C82.6014 23.8858 77.9578 18.7428 72 15.0001ZM72 82.0001C71.7768 82.1517 71.2269 82.8535 71 83.0001C70.7731 83.1467 70.2282 82.856 70 83.0001C68.7365 83.7844 67.3439 84.3594 66 85.0001C65.7768 85.1057 66.2257 85.8982 66 86.0001C65.7743 86.102 65.2282 85.902 65 86.0001C59.975 88.1581 54.4791 89.0001 49 89.0001C43.5209 89.0001 38.025 88.1581 33 86.0001C32.7718 85.902 32.2257 86.102 32 86.0001C31.7743 85.8982 32.2232 85.1069 32 85.0001C30.656 84.3596 29.2633 83.7847 28 83.0001C27.7716 82.8585 27.2255 83.1483 27 83.0001C26.7731 82.8535 26.2244 82.1517 26 82.0001C20.6089 78.3736 17.0494 73.6964 14 68.0001C10.9506 62.3038 9 55.4441 9 49.0001C9 42.5561 10.9506 36.6964 14 31.0001C17.0494 25.3038 20.6089 20.6266 26 17.0001C26.2244 16.8498 26.7731 16.1479 27 16.0001C27.2269 15.8523 27.7718 16.1411 28 16.0001C29.263 15.2146 30.6557 14.6405 32 14.0001C32.2232 13.8945 31.7743 13.102 32 13.0001C32.2257 12.8982 32.7718 13.0982 33 13.0001C38.0251 10.8426 43.521 10.0001 49 10.0001C54.479 10.0001 59.9749 10.8426 65 13.0001C65.2282 13.0982 65.7731 12.8982 66 13.0001C66.2269 13.102 65.7768 13.8933 66 14.0001C67.3441 14.6403 68.7368 15.2153 70 16.0001C70.2282 16.1417 70.7743 15.8547 71 16.0001C71.2257 16.1454 71.7768 16.8498 72 17.0001C77.3914 20.6264 80.9504 25.3038 84 31.0001C87.0496 36.6964 89 42.556 89 49.0001C89 55.4442 87.0496 62.3038 84 68.0001C80.9504 73.6964 77.3914 78.3738 72 82.0001Z" fill="url(#paint2_linear_207_1384)"/>
<path d="M71 17C70.7746 16.8427 71.2291 17.1536 71 17C70.7709 16.8464 70.2241 16.1473 70 16C68.7474 15.192 67.3366 14.6599 66 14C65.7771 13.8901 65.2254 14.1061 65 14C64.7746 13.8939 65.2254 13.0999 65 13C60.0225 10.7824 54.4492 10 49 10C43.5508 10 37.9775 10.7824 33 13C32.7746 13.1011 33.2241 13.8951 33 14C32.7759 14.1049 32.2229 13.8901 32 14C30.6631 14.6594 29.2524 15.1915 28 16C27.7746 16.1448 27.2229 16.847 27 17C26.7771 17.153 27.2254 16.8414 27 17C21.874 20.5913 16.8892 25.4481 14 31C11.1108 36.5519 10 42.7414 10 49C10 55.2586 11.1108 61.4481 14 67C16.8892 72.5519 21.874 77.4087 27 81C27.2254 81.1586 26.7721 80.8464 27 81C27.2279 81.1536 27.7746 81.8558 28 82C29.2523 82.8089 30.6631 83.3401 32 84C32.2229 84.1099 32.7746 83.8951 33 84C33.2254 84.1049 32.7746 84.9001 33 85C37.9776 87.2172 43.5509 88 49 88C54.4491 88 60.0224 87.2172 65 85C65.2254 84.8989 64.7759 84.1049 65 84C65.2241 83.8951 65.7771 84.1105 66 84C67.3369 83.3401 68.7477 82.8089 70 82C70.2241 81.8552 70.7784 81.1498 71 81C71.2216 80.8502 70.7746 81.1586 71 81C76.126 77.4087 81.1108 72.5519 84 67C86.8892 61.4481 88 55.2586 88 49C88 42.7414 86.8892 36.5519 84 31C81.1108 25.4481 76.126 20.5913 71 17ZM36 26C35.9757 25.9644 34.632 26.5343 33 27C32.7759 27.0624 33.2241 26.9407 33 27C32.7759 27.0593 32.2204 26.9419 32 27C31.6067 27.1036 31.334 26.9245 31 27C29.157 27.3534 27.892 27.6412 28 27C29.1017 26.6659 30.8637 26.1852 32 26C32.2241 25.9632 32.7746 26.0306 33 26C33.2254 25.9694 32.7759 26.0256 33 26C33.2129 25.9769 33.7871 26.0194 34 26C33.789 26 33.2116 25.995 33 26C32.7759 26.005 33.2254 25.99 33 26C32.7746 26.01 32.2254 25.9838 32 26C30.9435 26.0718 30.0402 25.8016 29 26C29.3883 25.3432 30.1632 25.2435 32 25C32.0768 24.99 31.9195 25.0087 32 25C32.1523 24.9844 32.8502 25.0025 33 25C33.2253 24.9945 32.7757 24.9783 33 25C34.1319 25.1347 35.0278 25.405 36 26ZM40 77C39.0985 77.0243 37.3504 76.5314 36 75C35.065 73.83 34.9835 72.4976 35 71C34.9476 71.0425 37.2319 73.521 39 75C40.4984 76.3522 40.688 76.7515 40 77C38.4362 75.8907 37.2286 74.4719 36 73C37.0194 74.4738 38.6514 75.8199 40 77ZM32 72C32.2085 72.4408 32.7565 72.5642 33 73C33.206 73.3702 32.7684 73.6354 33 74C32.7723 73.9534 33.2064 74.107 33 74C32.757 73.8725 32.2052 74.1822 32 74C31.4175 73.4587 30.3269 72.7249 30 72C29.432 70.6354 29.6256 68.4299 30 67C29.9682 67.0181 31.096 68.7608 32 70C32.2229 70.3072 32.7746 70.6847 33 71C33.2368 71.333 32.7869 71.6908 33 72C33.0974 72.1398 32.9113 71.8689 33 72C34.0039 73.6188 34.6774 73.8964 34 74C33.794 73.7403 33.1904 74.2641 33 74C32.7632 73.6733 33.2131 73.3317 33 73C32.7619 72.6312 32.2119 71.3742 32 71C31.6722 70.4213 31.2647 70.5862 31 70C31.2599 70.7474 31.6598 71.2856 32 72ZM27 24C27.0768 23.804 27.8876 23.236 28 23C28.1103 22.7489 27.8486 23.2287 28 23C29.088 21.5168 30.5121 20.0817 32 19C32.2165 18.8322 32.7669 18.1437 33 18C33.0387 17.9781 32.9919 17.995 33 18C33.0081 18.005 33.0425 18.8308 33 19C32.8177 19.7094 32.2672 20.3181 32 21C31.7236 21.7259 31.4003 22.3344 31 23C29.9112 24.7724 28.776 25.6835 28 26C28.6457 24.2537 29.9835 22.56 31 21C29.9425 22.3736 28.7562 23.4401 28 25C27.8833 25.2397 28.1074 25.7603 28 26C27.888 26.0126 27.1036 26.0445 27 26C26.6816 25.8545 26.5748 25.0863 27 24ZM27 29C27.2109 28.9326 27.7819 28.0382 28 28C29.2265 27.8052 30.8352 28.5694 32 29C31.9694 28.9632 29.7119 30.0823 28 31C27.7684 31.1249 27.2191 30.8889 27 31C26.7965 31.1049 27.1848 31.9126 27 32C26.9694 32.0144 27.0293 31.9875 27 32C25.4017 32.6867 24.04 31.6362 24 31C24.7174 30.5873 26.2633 30.3315 27 30C27.2241 29.8989 26.7746 30.0918 27 30C27.2254 29.9082 27.7746 30.0855 28 30C28.4227 29.8389 28.5736 29.1355 29 29C28.5761 29.0924 28.4227 29.8833 28 30C27.7746 30.0624 27.2254 29.9282 27 30C26.7746 30.0718 27.2254 29.9226 27 30C26.2945 30.2397 24.6968 30.6879 24 31C24.196 30.3545 25.6877 29.5918 27 29C26.7559 29.0862 27.2092 28.9014 27 29ZM27 68C27.1707 68.9303 27.7203 69.0965 28 70C28.0087 70.0306 27.99 70.97 28 71C27.7473 70.8768 27.1945 70.203 27 70C26.7244 69.7119 27.1714 69.36 27 69C26.5754 68.1372 26 66.9616 26 66C26 65.0384 26.5754 64.8628 27 64C27.0949 63.7846 27.0019 62.9975 27 63C26.9794 63.0075 26.6872 63.244 27 64C27.1998 64.4801 27.7609 65.4069 28 66C28.3122 66.7847 28.7677 67.3214 29 68C29.5457 69.7811 29.6518 71.04 29 71C28.7846 70.5006 28.1767 69.4994 28 69C27.7349 68.2546 27.1856 67.7454 27 67C26.8876 66.5418 27.0843 66.4576 27 66C27.0662 66.7005 26.8695 67.2914 27 68ZM23 28C23.3996 25.5977 25.927 21.9463 26 22C26.0527 23.5896 26.4178 25.4654 26 27C25.4006 28.9516 24.6643 29.5293 24 30C24.2127 28.1748 24.424 26.7449 25 25C24.2327 26.8123 23.3632 29.0658 23 31C22.4163 31.1954 22.568 30.0727 23 28ZM24 33C24.8848 32.4953 25.9813 33.0014 27 33C27.2597 32.9938 26.8102 32.9888 27 33C27.3446 33.0231 28.0069 33 28 33C27.802 33.1541 27.1762 32.8215 27 33C26.8127 33.1767 27.256 33.764 27 34C26.1403 34.7954 24.8834 35.3108 24 36C22.5397 37.0613 22.1736 37.6262 22 37C23.2813 35.8331 24.5064 34.879 26 34C24.5154 34.6937 22.3192 35.028 21 36C21.0612 35.2165 22.3911 33.9864 24 33ZM24 66C23.3838 65.5349 22.9732 63.9353 23 62C23.1007 60.5308 23.0731 59.1445 24 58C23.9526 58.0087 24.8002 61.9111 25 64C25.1217 65.8529 24.6106 66.1742 24 66C23.6954 64.2485 23.9425 62.7769 24 61C23.7954 62.6737 23.8789 64.3182 24 66ZM21 60C20.5005 59.4163 20.5854 58.8872 21 57C21.1772 56.2606 21.5622 55.6217 22 55C22.3944 54.4247 22.4624 53.4444 23 53C23 53 23.0243 53.2702 23 54C22.9463 55.2074 23.1867 57.7052 23 59C22.7347 60.8367 22.5544 61.2972 22 61C22.0709 59.2252 21.5913 56.7285 22 55C21.4682 56.5974 21.2321 58.3325 21 60ZM20 52C19.6541 52.7608 19.2884 53.1813 19 54C18.8402 53.6978 19.0225 53.3411 19 53C18.9766 52.7 18.9529 53.2972 19 53C19.0262 52.8229 18.9563 52.1736 19 52C19.1056 51.5845 19.826 51.3918 20 51C20.5059 49.9423 21.0225 48.6475 22 48C22.2235 47.8408 22.7547 48.123 23 48C22.9612 48.1054 23.0173 47.8891 23 48C22.9039 48.4289 22.206 49.0973 22 50C21.9376 50.2641 22.0662 50.7253 22 51C21.8539 51.6043 21.1605 52.4662 21 53C20.9588 53.1342 21.0412 52.8758 21 53C20.923 53.2177 21.0724 53.8256 21 54C20.8873 54.2836 21.1659 54.7439 21 55C20.8002 55.2934 20.1829 54.9975 20 55C19.9374 55.0003 20.0571 55.0258 20 55C19.9343 54.9697 20.0548 55.0472 20 55C20.4166 53.281 21.2699 51.6111 22 50C21.6008 50.6996 20.3467 51.2375 20 52ZM20 42C19.9051 41.2215 19.6365 40.3042 21 39C22.0866 38.0722 23.5734 37.0806 25 37C24.9588 36.9707 23.3242 40.4349 22 42C20.7844 43.3472 20.2934 43.5769 20 43C21.0186 41.5923 21.7243 40.1797 23 39C21.6952 39.9942 21.0921 40.7759 20 42ZM20 45C20.8783 43.8643 21.6166 42.3842 23 42C22.9563 41.9806 22.0039 45.1895 21 47C20.0635 48.5776 19.3946 49.5019 19 49C19.7309 47.4065 20.9805 45.4262 22 44C20.9156 45.2529 19.837 46.5699 19 48C18.7609 47.2552 18.9168 46.5651 20 45ZM21 28C21.4178 29.5345 22.0603 30.4108 22 32C21.8552 34.0296 21.5444 35.4025 21 36C20.8228 34.175 20.8373 31.8263 21 30C20.67 31.9351 19.9478 34.0376 20 36C19.4724 36.3121 19.0231 36.1157 19 34C18.8889 31.5652 20.9319 27.9625 21 28ZM18 34C18.7307 35.4117 18.7328 36.433 19 38C19.2741 40.0159 19.4121 41.2983 19 42C18.4664 40.2485 18.2179 38.8179 18 37C18.0781 38.9598 18.5635 40.0878 19 42C18.5442 42.4164 17.4408 43.0658 17 41C16.4131 38.6345 17.9332 33.9769 18 34ZM15 40C15.9947 41.2272 17.437 42.5241 18 44C18.658 45.916 18.2703 47.2265 18 48C17.1438 46.3936 16.5645 44.7306 16 43C16.4553 44.8988 17.2092 47.2147 18 49C17.631 49.5044 16.8247 48.9303 16 47C14.9848 44.8087 14.9338 39.9925 15 40ZM14 48C13.9732 47.8127 14.0025 48.0693 14 48C14 47.9657 14 47 14 47C14.9864 47.8159 16.2473 48.9645 17 50C17.1617 50.2291 17.8564 50.7553 18 51C18.3133 51.5331 17.773 52.4248 18 53C18.1732 53.4081 18.9361 53.5613 19 54C19.0242 54.2208 19.0316 54.7801 19 55C17.8578 53.605 16.8783 51.5746 16 50C16.8019 51.762 17.8877 53.4155 19 55C18.9703 55.0674 18.0469 54.9432 18 55C17.9591 55.0513 18.0593 54.9721 18 55C17.9407 55.0279 18.0656 56.0012 18 56C17.8429 55.9829 18.126 55.0953 18 55C17.9657 54.9769 18.0381 55.0293 18 55C17.8273 54.8584 17.1434 55.1712 17 55C16.7901 54.7591 16.1789 54.2647 16 54C15.8122 53.7367 16.1404 53.2913 16 53C15.8417 52.6745 16.1241 52.34 16 52C15.8845 51.6879 15.0974 51.3215 15 51C14.9319 50.7746 15.0593 51.2229 15 51C14.8564 50.4606 15.0912 49.4564 15 49C14.9088 48.5436 14.04 48.2766 14 48ZM15 55C15.6597 55.3498 16.3986 55.5575 17 56C17.6497 56.4641 18.4657 56.4067 19 57C20.318 58.4908 19.9569 60.1753 20 61C18.6088 59.8779 18.1614 58.3585 17 57C18.1217 58.5581 18.5995 59.6868 20 61C19.8539 61.6174 19.4847 62.4334 18 61C16.834 59.6827 15.6134 57.6488 15 56C14.6554 55.1329 15 55 15 55ZM21 63C22.5945 64.1805 22.7852 65.2034 23 66C21.4011 65.2022 20.4166 64.0891 19 63C20.4186 64.2935 21.3503 66.0181 23 67C22.9888 67.6324 22.7612 68.0857 21 67C18.9341 65.8138 16.9376 62.0331 17 62C18.4847 62.4127 19.7306 62.1265 21 63ZM20 68C21.5502 68.0909 22.5606 68.4174 24 69C24.8001 69.3296 26.3077 69.481 27 70C27.2547 70.1976 26.8068 70.7419 27 71C27.063 71.0856 26.9495 70.9065 27 71C26.9438 70.9856 27.0574 71.0144 27 71C26.7746 70.9426 27.2254 71.0624 27 71C25.5324 70.5995 23.3828 69.6341 22 69C23.3694 69.7814 25.5192 70.4585 27 71C27.2241 71.0818 26.7746 71.9232 27 72C27.1292 72.0437 27.8701 71.9594 28 72C28.0252 72.0681 28.0066 71.9276 28 72C27.9934 72.0724 28.0371 71.9375 28 72C27.9629 72.0625 27.0604 71.9596 27 72C26.9396 72.0404 27.0719 71.9895 27 72C26.7772 72.0418 27.2236 72.0376 27 72C26.5512 71.9325 25.4269 72.1538 25 72C22.6644 71.2827 19.9388 68.0456 20 68ZM27 75C26.7696 74.8889 27.2166 75.113 27 75C26.204 74.6115 24.7059 73.535 24 73C24.7476 72.8877 26.244 73.0061 27 73C27.2166 73 26.7696 72.99 27 73C27.2304 73.01 27.7709 72.9794 28 73C28.3834 73.0296 28.6223 72.9281 29 73C29.9492 73.1556 31.1262 73.5979 32 74C32.2393 74.1195 32.7906 74.8335 33 75C33.0917 75.0751 32.9179 74.9146 33 75C32.9126 75 33.0868 75.0025 33 75C32.7759 74.9938 32.2241 75.0119 32 75C30.6954 74.9319 29.2839 74.2408 28 74C27.7746 73.9575 27.2254 74.0487 27 74C26.96 73.9913 27.04 74.0094 27 74C27.04 74.0112 26.96 73.9875 27 74C27.2254 74.0668 27.7746 74.9376 28 75C29.2766 75.3492 30.6882 74.8245 32 75C32.2241 75.0293 32.7746 74.9744 33 75C33.2073 75.0219 32.7908 74.9806 33 75C33.0221 75.0465 32.9873 75.9501 33 76C33.0334 76.095 33.0334 75.905 33 76C32.9332 76.1779 33.4008 75.927 33 76C32.7768 76.0356 32.226 76.0015 32 76C31.6525 76.0029 31.3453 76.0387 31 76C30.0133 75.8775 28.8993 75.4239 28 75C27.769 74.8984 27.2218 75.1049 27 75ZM33 79C32.7671 78.9438 33.2179 79.0587 33 79C32.7634 78.9376 32.2098 78.0624 32 78C31.4376 77.8584 30.5257 78.245 30 78C30.536 77.8014 31.4462 77.1416 32 77C32.211 76.9451 32.7621 77.0524 33 77C33.2164 76.9526 32.7665 77.0404 33 77C33.621 76.8891 34.3695 77.018 35 77C37.2089 76.9488 38.2059 77.5187 39 78C37.0187 78.3723 35.0159 77.9873 33 78C35.1763 78.1506 37.8353 78.2706 40 78C40.4814 78.4907 40.3756 78.7503 38 79C36.5137 79.1036 34.4365 79.3954 33 79ZM46 81C43.0969 81.9783 36.9438 81.083 37 81C38.5066 80.0781 40.2861 79.427 42 79C44.3437 78.4637 45.9923 78.7122 47 79C44.9566 79.7998 43.146 80.5416 41 81C43.3689 80.6644 45.7253 79.7415 48 79C48.6805 79.3671 48.5098 80.229 46 81ZM48 78C45.9987 77.2954 43.7634 76.1799 42 75C43.5332 76.2281 45.2158 77.178 47 78C46.0254 78.2241 44.8786 78.1874 43 77C41.7015 76.1247 40.422 74.508 40 73C39.9463 73.0524 43.6319 74.9568 46 76C48.0341 76.9801 48.6824 77.6073 48 78ZM39 22C35.834 23.032 34.5638 23.487 34 23C36.8192 21.4574 39.8308 20.5329 43 20C39.7746 20.3783 35.935 20.6101 33 22C32.9245 21.3582 34.4938 20.1462 38 19C42.0019 17.5897 48.035 18.9188 48 19C44.7976 19.7243 42.0922 20.8963 39 22ZM78 55C77.9454 55.0469 78.0651 54.9694 78 55C77.9429 55.0256 78.0626 55.0001 78 55C77.8171 55 77.1998 55.2934 77 55C76.8346 54.7438 77.1123 54.2835 77 54C76.9272 53.826 77.0774 53.2181 77 53C76.96 52.8751 77.04 53.1348 77 53C76.8402 52.4637 76.1461 51.6018 76 51C75.9376 50.7272 76.0581 50.2659 76 50C75.7927 49.0973 75.0968 48.4289 75 48C74.9812 47.8894 75.0373 48.1058 75 48C75.2449 48.1236 75.7761 47.8414 76 48C76.9775 48.6472 77.4949 49.9421 78 51C78.1738 51.392 78.8934 51.5847 79 52C79.1241 52.4643 79.0307 52.5204 79 53C78.9816 53.2056 79.0646 53.804 79 54C78.9598 54.1283 79.0628 53.8812 79 54C78.7132 53.183 78.3475 52.7625 78 52C77.6525 51.2375 76.3979 50.6992 76 50C76.7288 51.6094 77.5838 53.283 78 55ZM76 61C75.4456 61.2972 75.2653 60.8367 75 59C74.8127 57.7052 75.0537 55.208 75 54C74.9769 53.2702 74.9987 53 75 53C75.5366 53.4451 75.6054 54.4253 76 55C76.4382 55.6216 76.8224 56.2605 77 57C77.4152 58.8879 77.502 59.4163 77 60C76.7683 58.3324 76.5325 56.5972 76 55C76.4082 56.728 75.9294 59.2259 76 61ZM74 61C74.0571 62.777 74.3062 64.2486 74 66C73.3888 66.1729 72.8776 65.8523 73 64C73.1985 61.9111 74.0487 58.0094 74 58C74.928 59.1439 74.8998 60.5304 75 62C75.0268 63.9353 74.6156 65.5349 74 66C74.121 64.3174 74.2049 62.6745 74 61ZM79 49C78.6042 49.4994 77.934 48.5776 77 47C75.9948 45.1895 75.0437 41.9806 75 42C76.3834 42.3842 77.1217 43.8643 78 45C79.0832 46.5651 79.2397 47.2571 79 48C78.1626 46.5699 77.0848 45.2528 76 44C77.0184 45.4256 78.2688 47.4079 79 49ZM78 42C76.9077 40.7745 76.305 39.9961 75 39C76.2753 40.1797 76.9818 41.5924 78 43C77.7078 43.5762 77.2143 43.3472 76 42C74.6746 40.4393 73.0425 36.9732 73 37C74.427 37.0805 75.913 38.0721 77 39C78.3617 40.3042 78.0937 41.2215 78 42ZM76 37C75.8258 37.6243 75.4572 37.0613 74 36C73.1166 35.3133 71.8591 34.7954 71 34V33C70.8236 32.8217 70.1978 33.1543 70 33C69.995 33 70.6585 33.025 71 33C71.191 32.9888 70.7403 32.9931 71 33C72.0187 33.0014 73.1152 32.4953 74 33C75.6101 33.9864 76.9388 35.2178 77 36C75.6806 35.0282 73.4845 34.6939 72 34C73.4923 34.8783 74.7202 35.8336 76 37ZM71 67C70.8127 67.7442 70.2635 68.2533 70 69C69.8221 69.4994 69.2148 70.5056 69 71C68.3482 71.04 68.4543 69.7811 69 68C69.2316 67.3214 69.6835 66.7835 70 66C70.2385 65.4057 70.8002 64.4813 71 64C71.3122 63.2446 71.02 63.0081 71 63C71 63 70.907 63.7865 71 64C71.5648 65.226 72.2123 65.667 72 67C71.8898 67.5619 71.2488 68.4842 71 69C70.8285 69.3599 71.2756 69.7119 71 70C70.8059 70.2029 70.2523 70.8767 70 71C70.0087 70.9694 69.99 70.0287 70 70C70.2787 69.0959 70.8292 68.9306 71 68C71.1305 67.292 70.9344 66.6948 71 66C70.912 66.4532 71.1143 66.5418 71 67ZM72 22C72.0718 21.9463 74.5992 25.5977 75 28C75.4314 30.072 75.5856 31.1935 75 31C74.6366 29.0659 73.7663 26.8126 73 25C73.576 26.7449 73.7873 28.1748 74 30C73.3351 29.5287 72.5981 28.9516 72 27C71.5812 25.4649 71.945 23.5902 72 22ZM74 31C73.302 30.6916 71.7061 30.2416 71 30C70.7759 29.9232 71.2254 30.0693 71 30C70.7746 29.9307 70.2241 30.0656 70 30C69.5761 29.8833 69.4239 29.0924 69 29C69.4264 29.1355 69.5761 29.8389 70 30C70.2241 30.0855 70.7759 29.907 71 30C71.2241 30.093 70.7759 29.8989 71 30C71.738 30.3315 73.2826 30.588 74 31C73.9588 31.6368 72.5983 32.6842 71 32C70.9707 31.9869 71.0293 32.0137 71 32C70.8127 31.9132 71.2042 31.1049 71 31C70.7809 30.8889 70.2304 31.1242 70 31C68.2887 30.0817 66.0262 28.9625 66 29C67.1648 28.5692 68.7735 27.805 70 28C70.2177 28.0383 70.7895 28.9327 71 29C71.2447 29.0855 70.7927 28.9064 71 29C72.3142 29.5981 73.804 30.3551 74 31ZM66 71C65.7886 71.3746 65.2385 72.6308 65 73C64.7848 73.333 65.2347 73.6754 65 74C64.809 74.2641 64.2048 73.7397 64 74C63.3226 73.8964 63.9948 73.6188 65 72C65.0868 71.8695 64.9007 72.1411 65 72C65.2127 71.6899 64.7628 71.3313 65 71C65.2241 70.6879 65.7771 70.3078 66 70C66.9028 68.7601 68.0306 67.0206 68 67C68.3744 68.4299 68.568 70.6354 68 72C67.6727 72.7243 66.5822 73.4589 66 74C65.7951 74.183 65.2433 73.8724 65 74C64.7932 74.107 65.2281 73.9534 65 74C65.2318 73.635 64.7948 73.37 65 73C65.2435 72.563 65.7915 72.4439 66 72C66.3397 71.2865 66.7399 70.7462 67 70C66.7347 70.5843 66.3278 70.4194 66 71ZM65 18C65.2332 18.1441 65.7836 18.8318 66 19C67.4876 20.082 68.9118 21.517 70 23C70.1514 23.2287 69.8897 22.7489 70 23C70.1124 23.2354 70.9232 23.804 71 24C71.4252 25.0863 71.3215 25.8564 71 26C70.8969 26.0446 70.1116 26.0126 70 26C69.8926 25.759 70.1167 25.2397 70 25C69.243 23.4409 68.0568 22.3737 67 21C68.0165 22.56 69.3543 24.2536 70 26C69.224 25.6822 68.0888 24.7724 67 23C66.6006 22.3349 66.2765 21.7248 66 21C65.7328 20.3168 65.1823 19.7106 65 19C64.9563 18.8321 65 18.0019 65 18C64.96 17.9781 65 17.9981 65 18ZM65 25C65.1498 25 65.8477 24.985 66 25C66.0805 25.0087 65.9232 24.99 66 25C67.8349 25.2435 68.611 25.3432 69 26C67.9598 25.8016 67.0565 26.0719 66 26C65.7746 25.9831 65.2254 26.0112 65 26C64.7746 25.9888 65.2241 26.005 65 26C64.789 25.995 64.211 26 64 26C64.211 26.0194 64.7877 25.9769 65 26C65.2241 26.0256 64.7746 25.9694 65 26C65.2254 26.0306 65.7746 25.9619 66 26C67.1359 26.1847 68.8987 26.6663 70 27C70.1074 27.6418 68.8424 27.354 67 27C66.6672 26.9245 66.3933 27.1036 66 27C65.7796 26.9413 65.2291 27.0637 65 27C64.7709 26.9363 65.2241 27.0624 65 27C63.3686 26.5349 62.0243 25.9638 62 26C62.9721 25.4057 63.8685 25.1337 65 25C64.7749 24.9951 65.224 24.9777 65 25ZM58 77C57.3132 76.7503 57.5004 76.3522 59 75C60.765 73.521 63.0524 71.0418 63 71C63.016 72.4975 62.9346 73.8298 62 75C60.6502 76.5314 58.9003 77.0243 58 77C59.3477 75.8199 60.9813 74.4734 62 73C60.7708 74.4719 59.5644 75.8907 58 77ZM60 19C63.5069 20.1462 65.0768 21.3582 65 22C62.0651 20.6098 58.2255 20.378 55 20C58.1688 20.5329 61.1813 21.4574 64 23C63.4381 23.4863 62.1641 23.032 59 22C55.907 20.8954 53.2033 19.725 50 19C49.9694 18.9201 55.9968 17.5897 60 19ZM52 76C54.3681 74.9587 58.0549 73.0524 58 73C57.5794 74.5083 56.2989 76.1253 55 77C53.1214 78.1862 51.9765 78.2241 51 78C52.7845 77.1786 54.4672 76.2286 56 75C54.2367 76.1802 52.0015 77.2956 50 78C49.3226 77.6048 49.9716 76.9776 52 76ZM52 81C49.4896 80.229 49.3207 79.3665 50 79C52.2744 79.7414 54.6315 80.6642 57 81C54.8544 80.5418 53.0429 79.7999 51 79C52.0077 78.7116 53.6575 78.4631 56 79C57.7141 79.4264 59.4937 80.0775 61 81C61.0562 81.083 54.9031 81.9783 52 81ZM66 78C65.7902 78.0624 65.2379 78.9376 65 79C64.7821 79.0587 65.2316 78.9438 65 79C63.564 79.3956 61.4859 79.103 60 79C57.6232 78.7503 57.5174 78.4876 58 78C60.1642 78.2706 62.8241 78.1506 65 78C62.9841 77.9872 60.9813 78.3722 59 78C59.7941 77.5212 60.7905 76.9488 63 77C63.631 77.0179 64.3786 76.889 65 77C65.2331 77.0416 64.7831 76.9538 65 77C65.2397 77.0524 65.7884 76.9451 66 77C66.5537 77.1418 67.464 77.8016 68 78C67.4737 78.2447 66.563 77.8589 66 78ZM71 75C70.7834 75.1142 71.2316 74.8883 71 75C70.7784 75.1061 70.2279 74.8976 70 75C69.1003 75.424 67.9871 75.8777 67 76C66.6551 76.0387 66.3471 76.0029 66 76C65.774 76.0016 65.2232 76.0357 65 76C64.6004 75.927 65.0668 76.1767 65 76C64.966 75.9034 64.966 76.0966 65 76C65.0128 75.951 64.9779 75.0456 65 75C65.2073 74.9806 64.7909 75.0219 65 75C65.2254 74.9744 65.7759 75.0306 66 75C67.3119 74.8256 68.7235 75.3494 70 75C70.2241 74.9376 70.7759 74.0693 71 74C71.04 73.9869 70.9588 74.0112 71 74C70.9588 74.0087 71.04 73.9906 71 74C70.7746 74.0474 70.2241 73.9582 70 74C68.7161 74.2408 67.3046 74.9319 66 75C65.7759 75.0112 65.2241 74.9938 65 75C64.9126 75 65.0874 74.9987 65 75C65.0817 74.9143 64.9075 75.0739 65 75C65.2087 74.8322 65.7601 74.1189 66 74C66.8725 73.5979 68.052 73.1555 69 73C69.3781 72.928 69.6162 73.0295 70 73C70.2279 72.9794 70.7796 73.0081 71 73C71.2304 72.9925 70.7846 72.9969 71 73C71.756 73.0061 73.2524 72.8877 74 73C73.293 73.5358 71.7977 74.612 71 75ZM73 72C72.5731 72.1538 71.4488 71.9325 71 72C70.7764 72.0376 71.2229 72.0417 71 72C70.9282 71.9894 71.0602 72.0405 71 72C70.9398 71.9595 70.0369 72.0625 70 72C69.9631 71.9375 70.0064 72.0723 70 72C69.9936 71.9277 69.9747 72.068 70 72C70.1292 71.9588 70.8708 72.0431 71 72C71.2254 71.9232 70.7759 71.0818 71 71C72.4808 70.4585 74.6306 69.7814 76 69C74.6172 69.6341 72.4676 70.5995 71 71C70.7746 71.0624 71.2254 70.9426 71 71C70.9438 71.0144 71.0574 70.9856 71 71C71.0515 70.907 70.9379 71.0863 71 71C71.1932 70.7419 70.7453 70.1976 71 70C71.6921 69.4803 73.1997 69.3297 74 69C75.4398 68.4173 76.4494 68.0907 78 68C78.0581 68.0443 75.3362 71.2827 73 72ZM77 67C75.24 68.0863 75.0131 67.6324 75 67C76.65 66.0185 77.5816 64.2938 79 63C77.5837 64.0896 76.5993 65.2028 75 66C75.2166 65.2034 75.4067 64.1805 77 63C78.2688 62.1269 79.5163 62.4132 81 62C81.0606 62.03 79.0665 65.8163 77 67ZM83 56C82.3866 57.6488 81.166 59.6827 80 61C78.516 62.4359 78.1461 61.6174 78 61C79.3999 59.6862 79.8776 58.5575 81 57C79.8383 58.3582 79.3909 59.8776 78 61C78.0437 60.1753 77.6827 58.4908 79 57C79.5345 56.407 80.3505 56.4643 81 56C81.6013 55.5578 82.3394 55.3474 83 55C83 55 83.3471 55.1335 83 56ZM84 48C83.9463 48.369 83.1461 49.3395 83 50C82.9282 50.329 83.0937 50.6398 83 51C82.9063 51.3602 83.1192 51.6385 83 52C82.7518 52.8409 82.4828 53.2681 82 54C81.8206 54.2647 81.2103 54.7591 81 55C80.8569 55.1715 80.173 54.8588 80 55C79.9526 55.036 80.0516 54.9703 80 55C79.884 55.0808 80.1405 55.9841 80 56C79.9344 56.0013 80.0593 55.0279 80 55C79.9407 54.9721 80.0408 55.0514 80 55C79.9527 54.9432 79.0301 55.0675 79 55C80.1122 53.4152 81.1971 51.7618 82 50C81.1213 51.5746 80.1426 53.605 79 55C78.9694 54.78 78.9761 54.2208 79 54C79.0769 53.4641 79.7693 52.4897 80 52C80.2071 51.522 79.738 51.4502 80 51C80.1423 50.7553 80.8389 50.2297 81 50C81.7524 48.9647 83.0141 47.8161 84 47C84.002 47.1471 84.0319 47.8564 84 48ZM82 47C81.1753 48.9297 80.3671 49.5044 80 49C80.7909 47.2147 81.5448 44.8988 82 43C81.435 44.7304 80.8558 46.3934 80 48C79.7297 47.2265 79.3432 45.9153 80 44C80.5641 42.5246 82.0064 41.2279 83 40C83.0656 39.9906 83.0145 44.8143 82 47ZM80 34C80.0693 33.9769 81.5844 38.6408 81 41C80.558 43.0658 79.4558 42.4158 79 42C79.4365 40.0878 79.9219 38.9598 80 37C79.7816 38.8176 79.5339 40.249 79 42C78.5879 41.2983 78.7259 40.0159 79 38C79.2671 36.4335 79.2696 35.4114 80 34ZM79 34C78.9781 36.1157 78.5276 36.3109 78 36C78.0536 34.0376 77.3313 31.935 77 30C77.1633 31.8263 77.1778 34.175 77 36C76.4568 35.4007 76.1436 34.0302 76 32C75.9389 30.4108 76.5822 29.5345 77 28C77.0687 27.9607 79.1124 31.5684 79 34Z" fill="url(#paint3_linear_207_1384)"/>
<path d="M42 38C41.442 39.0391 40.496 39.9798 40 41C39.504 42.0139 39.403 42.9735 39 44C38.597 45.0265 38.2976 46.9546 38 48C37.7024 49.0391 37.1612 49.9105 37 51H35C35.1488 50.0301 35.7272 48.9636 36 48C36.279 47.0301 36.628 45.9636 37 45C37.372 44.0301 37.5412 42.9762 38 42C38.465 41.0238 38.4792 39.9951 39 39H33V37H42V38Z" fill="white"/>
<path d="M48 51C46.6113 51 44.7812 50.1525 44 49C43.225 47.8475 43 46.179 43 44C43 41.6068 44.1878 40.2281 45 39C45.8122 37.7719 46.4687 37 48 37C50.9324 37 52 39.3711 52 44C52 46.2924 51.8307 47.7908 51 49C50.1754 50.2029 49.4879 51 48 51ZM48 39C46.3819 39 45 40.3788 45 44C45 47.3882 46.4129 49 48 49C49.5623 49 50 47.4449 50 44C50 40.4354 49.5313 39 48 39Z" fill="white"/>
<path d="M58 51C56.6113 51 55.7812 50.1525 55 49C54.225 47.8475 54 46.179 54 44C54 41.6068 54.1878 40.2281 55 39C55.8122 37.7719 57.4687 37 59 37C61.9324 37 63 39.3711 63 44C63 46.2924 62.8307 47.7908 62 49C61.1754 50.2029 59.4879 51 58 51ZM58 39C56.3819 39 56 40.3788 56 44C56 47.3882 56.4129 49 58 49C59.5623 49 61 47.4449 61 44C61 40.4354 59.5313 39 58 39Z" fill="white"/>
<path d="M30 57.9999H27L29 53.9999H27H29L28 57.9999H30Z" fill="white"/>
<path d="M33 57.9999L32 56.9999H31L30 57.9999L31 53.9999H32L33 57.9999ZM32 55.9999V54.9999C31.9441 54.8476 31.0593 55.2214 31 54.9999C30.9627 55.17 31.0695 54.7962 31 54.9999V55.9999H32Z" fill="white"/>
<path d="M37 55.9999C37 56.6414 36.3337 56.6597 36 56.9999C35.6679 57.3384 35.6251 57.9999 35 57.9999H34V53.9999H35C35.5777 53.9999 35.6798 54.6651 36 54.9999C36.3202 55.3348 37 55.3993 37 55.9999ZM36 55.9999C36 55.4932 36.244 55.2569 36 54.9999C35.7577 54.743 35.4794 53.9999 35 53.9999H34V57.9999H35C35.515 57.9999 35.7408 57.2639 36 56.9999C36.2592 56.7342 36 56.5191 36 55.9999Z" fill="white"/>
<path d="M41 55.9999C41 56.6219 40.3016 56.6438 40 56.9999C39.7001 57.3561 39.5354 57.9999 39 57.9999C38.4528 57.9999 38.2982 57.349 38 56.9999C37.7035 56.6491 37 56.6378 37 55.9999C37 55.3674 37.7018 55.3472 38 54.9999C38.2982 54.6509 38.4511 53.9999 39 53.9999C39.5337 53.9999 39.7001 54.6456 40 54.9999C40.2999 55.3543 41 55.3762 41 55.9999ZM38 55.9999C38 56.5262 37.7865 56.7271 38 56.9999C38.2152 57.271 38.5917 57.9999 39 57.9999C39.4117 57.9999 39.7899 57.271 40 56.9999C40.2101 56.7288 40 56.528 40 55.9999C40 55.4772 40.2101 55.2693 40 54.9999C39.7916 54.7288 39.41 53.9999 39 53.9999C38.5883 53.9999 38.2152 54.7271 38 54.9999C37.7865 55.271 38 55.4808 38 55.9999Z" fill="white"/>
<path d="M45 57.9999H44L43 54.9999C42.9644 54.8848 43.044 55.1754 43 54.9999C42.956 54.8245 43.0017 55.0354 43 54.9999C42.9627 55.2338 43.0813 54.7218 43 54.9999L42 57.9999L41 53.9999L42 55.9999C42.0813 56.3366 41.9627 56.7271 42 56.9999C42.0457 56.6757 41.9102 56.31 42 55.9999L43 53.9999H44V55.9999C44.0813 56.2746 43.9441 56.6544 44 56.9999C44.0322 56.7483 44.9102 56.3614 45 55.9999V53.9999H46L45 57.9999Z" fill="white"/>
<path d="M49 55.9999C49 56.6219 49.3016 56.6438 49 56.9999C48.7001 57.3561 48.5354 57.9999 48 57.9999C47.4528 57.9999 46.2982 57.349 46 56.9999C45.7035 56.6491 46 56.6378 46 55.9999C46 55.3674 45.7018 55.3472 46 54.9999C46.2982 54.6509 47.4511 53.9999 48 53.9999C48.5337 53.9999 48.7001 54.6456 49 54.9999C49.2999 55.3543 49 55.3762 49 55.9999ZM47 55.9999C47 56.5262 46.7865 56.7271 47 56.9999C47.2152 57.271 47.5917 57.9999 48 57.9999C48.4117 57.9999 48.7899 57.271 49 56.9999C49.2101 56.7288 49 56.528 49 55.9999C49 55.4772 49.2101 55.2693 49 54.9999C48.7916 54.7288 48.41 53.9999 48 53.9999C47.5883 53.9999 47.2152 54.7271 47 54.9999C46.7865 55.271 47 55.4808 47 55.9999Z" fill="white"/>
<path d="M50 57.9999V53.9999H51V57.9999H52H50Z" fill="white"/>
<path d="M56 55.9999C56 56.6219 56.3016 56.6438 56 56.9999C55.7001 57.3561 55.5354 57.9999 55 57.9999C54.4528 57.9999 53.2982 57.349 53 56.9999C52.7035 56.6491 53 56.6378 53 55.9999C53 55.3674 52.7018 55.3472 53 54.9999C53.2982 54.6509 54.4511 53.9999 55 53.9999C55.5337 53.9999 55.7001 54.6456 56 54.9999C56.2999 55.3543 56 55.3762 56 55.9999ZM53 55.9999C53 56.5262 53.7865 56.7271 54 56.9999C54.2152 57.271 54.5917 57.9999 55 57.9999C55.4117 57.9999 54.7899 57.271 55 56.9999C55.2101 56.7288 56 56.528 56 55.9999C56 55.4772 55.2101 55.2693 55 54.9999C54.7916 54.7288 55.41 53.9999 55 53.9999C54.5883 53.9999 54.2152 54.7271 54 54.9999C53.7865 55.271 53 55.4808 53 55.9999Z" fill="white"/>
<path d="M60 57.9999H59L57 54.9999C57.0271 55.3827 57 55.681 57 55.9999V57.9999V53.9999H58L60 56.9999C59.9966 56.9521 60.0119 57.2586 60 56.9999C59.9881 56.7395 59.9966 56.1116 60 55.9999V53.9999V57.9999Z" fill="white"/>
<path d="M62 55.9999L63 53.9999L62 55.9999V57.9999V55.9999L60 53.9999H61L62 55.9999Z" fill="white"/>
<path d="M65 53.9999C64.5917 53.9999 65.2372 54.7147 65 54.9999C64.7645 55.2834 64 55.5056 64 55.9999C64 56.5085 64.773 56.7218 65 56.9999C65.2287 57.2764 64.5782 57.9999 65 57.9999C65.2592 57.9999 65.6679 57.0974 66 56.9999V57.9999C65.7425 58.1009 65.3778 57.9999 65 57.9999C64.4528 57.9999 64.2982 57.3472 64 56.9999C63.7035 56.6527 64 56.6396 64 55.9999C64 55.5995 63.8577 55.3012 64 54.9999C64.144 54.6987 64.7306 54.163 65 53.9999C64.6341 53.9999 65.2711 53.8369 65 53.9999C65.3897 53.9999 66.7086 53.8511 67 53.9999L66 54.9999C65.7188 54.8617 65.2812 53.9999 65 53.9999Z" fill="white"/>
<path d="M70 57.9999V55.9999H68V57.9999H67V53.9999H68V55.9999H70V53.9999V57.9999Z" fill="white"/>
<path d="M40 64.9999H39L38 62.9999H37V64.9999V60.9999V62.9999L39 60.9999H40L38 62.9999L40 64.9999Z" fill="white"/>
<path d="M40 64.9999V60.9999H41V64.9999H42H40Z" fill="white"/>
<path d="M43 64.9999V60.9999V64.9999Z" fill="white"/>
<path d="M46 64.9999H44V60.9999H46V61.9999H45V62.9999H46H45V64.9999H46Z" fill="white"/>
<path d="M50 64.9999H49L47 61.9999C47.0267 62.3735 48 62.6885 48 62.9999V64.9999H47V60.9999H48L50 63.9999C49.9967 63.9532 50.0117 64.2524 50 63.9999C49.9883 63.7456 49.9967 63.1088 50 62.9999V60.9999V64.9999Z" fill="white"/>
<path d="M52 64.9999V61.9999H51V60.9999H53V61.9999H52V64.9999Z" fill="white"/>
<path d="M57 62.9999C57 63.607 57.2974 63.6522 57 63.9999C56.7043 64.3476 55.528 64.9999 55 64.9999C54.4603 64.9999 54.2941 64.3406 54 63.9999C53.7076 63.6574 54 63.6226 54 62.9999C54 62.3823 53.7059 62.3389 54 61.9999C54.2941 61.6591 54.4586 60.9999 55 60.9999C55.5263 60.9999 56.7043 61.6539 57 61.9999C57.2957 62.3458 57 62.391 57 62.9999ZM54 62.9999C54 63.5136 53.7895 63.7335 54 63.9999C54.2122 64.2645 54.5973 64.9999 55 64.9999C55.406 64.9999 55.7928 64.2645 56 63.9999C56.2072 63.7352 57 63.5153 57 62.9999C57 62.4896 56.2072 62.2628 56 61.9999C55.7945 61.7352 55.4043 60.9999 55 60.9999C54.594 60.9999 54.2122 61.7335 54 61.9999C53.7895 62.2645 54 62.493 54 62.9999ZM55 60.9999C55.0802 60.8926 54.9081 60.1521 55 59.9999C55.0936 59.8476 54.9465 60.1123 55 59.9999H56C55.9265 60.1123 56.1454 59.8355 56 59.9999C55.8546 60.1642 55.1069 60.9099 55 60.9999Z" fill="white"/>
<path d="M61 64.9999L60 61.9999C59.9649 61.8874 60.0434 62.1711 60 61.9999C59.9566 61.8286 60.0017 62.0345 60 61.9999C59.9632 62.2282 59.0802 61.7283 59 61.9999V64.9999H58L57 60.9999H58V62.9999C58.0802 63.3285 58.9632 63.7335 59 63.9999C59.0451 63.6833 58.9114 63.3026 59 62.9999V60.9999H60L61 62.9999C61.0802 63.268 60.9449 63.6626 61 63.9999C61.0317 63.7542 60.9114 63.3527 61 62.9999L62 60.9999L61 64.9999Z" fill="white"/>
<defs>
<linearGradient id="paint0_linear_207_1384" x1="49" y1="93" x2="49" y2="123" gradientUnits="userSpaceOnUse">
<stop stop-color="#8B3B3B"/>
<stop offset="1" stop-color="#782828"/>
</linearGradient>
<linearGradient id="paint1_linear_207_1384" x1="49" y1="0.952148" x2="49" y2="97.0487" gradientUnits="userSpaceOnUse">
<stop stop-color="#CF903A"/>
<stop offset="1" stop-color="#975904"/>
</linearGradient>
<linearGradient id="paint2_linear_207_1384" x1="49" y1="7.89355" x2="49" y2="91.1072" gradientUnits="userSpaceOnUse">
<stop stop-color="#D49540"/>
<stop offset="1" stop-color="#A47534"/>
</linearGradient>
<linearGradient id="paint3_linear_207_1384" x1="49" y1="10" x2="49" y2="88" gradientUnits="userSpaceOnUse">
<stop stop-color="#D68F2D"/>
<stop offset="1" stop-color="#87530B"/>
</linearGradient>
</defs>
</svg>
