<svg xmlns="http://www.w3.org/2000/svg" xmlns:xlink="http://www.w3.org/1999/xlink" width="768" height="440" viewBox="0 0 768 440">
  <defs>
    <clipPath id="clip-path">
      <rect id="maska" width="768" height="440" stroke-width="1" fill="#fff" stroke="#707070" transform="translate(-31 -12.35)"/>
    </clipPath>
  </defs>
  <g id="strefa3" transform="translate(31 12.35)" clip-path="url(#clip-path)">
    <g id="Group_2076" data-name="Group 2076" transform="translate(-483.392 213.197)">
      <path id="Path_2620" data-name="Path 2620" d="M1568.224,108.707l16.526-6.061-52.1-13.182L1516.1,94.892Z" transform="translate(-766.906 14.642)" fill="#be4c84" opacity="0"/>
      <path id="Path_2624" data-name="Path 2624" d="M1607.575,95.277l13.22-4.85-1.79-1.969-47.343-11.6-16.07,5.268Z" transform="translate(-787.985 21.37)" fill="#be4c84" opacity="0"/>
      <path id="Path_2636" data-name="Path 2636" d="M1520,290.76l73.8,25.676,22.928-12.587L1544.1,279.806Z" transform="translate(-768.989 -86.942)" fill="#be4c84" opacity="0"/>
      <path id="Path_2638" data-name="Path 2638" d="M1574.713,266.75l72.472,23.993,21.36-11.726-71.377-22.473Z" transform="translate(-798.19 -74.527)" fill="#be4c84" opacity="0"/>
      <path id="Path_2642" data-name="Path 2642" d="M1583.911,166.321l61.114,17.548,18.047-8.2L1602.626,159.1Z" transform="translate(-803.099 -22.523)" fill="#be4c84" opacity="0"/>
      <path id="Path_2643" data-name="Path 2643" d="M1447.285,319.428l75.584,27.905,30.882-16.954L1479.8,304.652Z" transform="translate(-730.182 -100.203)" fill="#be4c84" opacity="0"/>
      <path id="Path_2644" data-name="Path 2644" d="M1487.807,202.042l62.916,19.808,20.97-9.529-62.112-18.677Z" transform="translate(-751.809 -40.958)" fill="#be4c84" opacity="0"/>
      <path id="Path_2646" data-name="Path 2646" d="M1537.93,183.574l61.967,18.633,19.114-8.686-61.264-17.591Z" transform="translate(-778.558 -31.505)" fill="#be4c84" opacity="0"/>
      <path id="Path_2681" data-name="Path 2681" d="M1568.223,108.71,1516.093,94.9l16.555-5.427,52.1,13.18Zm-.052-1.1,13.018-4.774-48.5-12.271L1519.8,94.79Z" transform="translate(-766.905 14.639)" fill="#be4c84" opacity="0"/>
      <path id="Path_2685" data-name="Path 2685" d="M1607.581,95.278,1555.6,82.127l16.07-5.268,47.344,11.6,1.79,1.969Zm-.058-1.1,11.45-4.2-.523-.575-46.74-11.452L1559.373,82Z" transform="translate(-787.989 21.369)" fill="#be4c84" opacity="0"/>
      <path id="Path_2697" data-name="Path 2697" d="M1544.1,279.807l72.625,24.043L1593.8,316.437,1520,290.761Zm.061,1.127-21.337,9.7L1593.7,315.29l20.4-11.2Z" transform="translate(-768.988 -86.943)" fill="#be4c84" opacity="0"/>
      <path id="Path_2699" data-name="Path 2699" d="M1597.172,256.544l71.374,22.472-21.36,11.727-72.473-23.992Zm.069,1.124-19.646,8.928,69.488,23,18.8-10.321Z" transform="translate(-798.19 -74.528)" fill="#be4c84" opacity="0"/>
      <path id="Path_2703" data-name="Path 2703" d="M1602.626,159.1l60.446,16.565-18.047,8.2-61.113-17.548Zm.057,1.106-15.469,5.966,57.729,16.576,15.046-6.838Z" transform="translate(-803.098 -22.525)" fill="#be4c84" opacity="0"/>
      <path id="Path_2704" data-name="Path 2704" d="M1479.8,304.65l73.948,25.727-30.882,16.954-75.583-27.9Zm.053,1.131-29.806,13.545,72.735,26.853,28.388-15.586Z" transform="translate(-730.183 -100.202)" fill="#be4c84" opacity="0"/>
      <path id="Path_2705" data-name="Path 2705" d="M1509.582,193.644l62.112,18.677-20.969,9.529-62.914-19.808Zm.043,1.111-18.632,7.187,59.664,18.785,18.053-8.2Z" transform="translate(-751.81 -40.958)" fill="#be4c84" opacity="0"/>
      <path id="Path_2707" data-name="Path 2707" d="M1557.745,175.93l61.264,17.59-19.114,8.686-61.966-18.634Zm.049,1.108-16.622,6.412,58.648,17.636,16.156-7.342Z" transform="translate(-778.558 -31.505)" fill="#be4c84" opacity="0"/>
      <path id="Path_2631" data-name="Path 2631" d="M1718.311,203.774l68.7,19.728,17.091-9.382-67.72-18.559Z" transform="translate(-874.828 -41.981)" fill="#be4c84" opacity="0"/>
      <path id="Path_2632" data-name="Path 2632" d="M1760.28,185.35l67.551,18.51,15.618-8.575L1777.1,177.7Z" transform="translate(-897.227 -32.451)" fill="#be4c84" opacity="0"/>
      <path id="Path_2634" data-name="Path 2634" d="M1674.1,223.311l69.9,21.02,18.107-9.942-68.874-19.776Z" transform="translate(-851.234 -52.15)" fill="#be4c84" opacity="0"/>
      <path id="Path_2635" data-name="Path 2635" d="M1780.887,129.6l-52.423-12.9-8.772.164-11.673,4.5,58.442,14.784Z" transform="translate(-869.335 0.103)" fill="#be4c84" opacity="0"/>
      <path id="Path_2637" data-name="Path 2637" d="M1625.952,244.226l71.215,22.422,19.843-10.9-70.065-21.068Z" transform="translate(-825.536 -62.862)" fill="#be4c84" opacity="0"/>
      <path id="Path_2648" data-name="Path 2648" d="M1627.59,149.908l60.289,16.522,16.8-7.636-59.354-15.728Z" transform="translate(-826.41 -13.966)" fill="#be4c84" opacity="0"/>
      <path id="Path_2649" data-name="Path 2649" d="M1728.41,150.131l15.808-7.184-58.607-14.827-16.4,6.324Z" transform="translate(-848.626 -5.989)" fill="#be4c84" opacity="0"/>
      <path id="Path_2692" data-name="Path 2692" d="M1736.384,195.561l67.721,18.559-17.09,9.382-68.706-19.728Zm.09,1.114-15.131,6.876,65.546,18.82,14.434-7.924Z" transform="translate(-874.825 -41.981)" fill="#be4c84" opacity="0"/>
      <path id="Path_2693" data-name="Path 2693" d="M1777.1,177.708l66.346,17.58-15.62,8.577-67.55-18.512Zm.093,1.113-13.833,6.287,64.334,17.631,12.942-7.106Z" transform="translate(-897.224 -32.454)" fill="#be4c84" opacity="0"/>
      <path id="Path_2696" data-name="Path 2696" d="M1766.459,136.159l-58.441-14.785,11.673-4.5,8.773-.165,52.422,12.9Zm-.1-1.11,11.331-5.149-49.345-12.138-8.45.159-8.414,3.245Z" transform="translate(-869.335 0.102)" fill="#be4c84" opacity="0"/>
      <path id="Path_2698" data-name="Path 2698" d="M1646.948,234.685l70.065,21.069-19.845,10.9-71.217-22.423Zm.075,1.121-18.137,8.242,68.169,21.463,17.253-9.473Z" transform="translate(-825.535 -62.863)" fill="#be4c84" opacity="0"/>
      <path id="Path_2709" data-name="Path 2709" d="M1645.328,143.066l59.354,15.728-16.8,7.636-60.289-16.522Zm.06,1.1-14.436,5.568,56.838,15.577,13.773-6.259Z" transform="translate(-826.41 -13.965)" fill="#be4c84" opacity="0"/>
      <path id="Path_2710" data-name="Path 2710" d="M1728.408,150.13l-59.193-15.686,16.4-6.324,58.606,14.826Zm-.093-1.113,12.734-5.787-55.373-14.008-13.057,5.037Z" transform="translate(-848.628 -5.989)" fill="#be4c84" opacity="0"/>
      <path id="Plac_zabaw_i_basen" data-name="Plac zabaw i basen" d="M1238.03,280.249,1213.7,289.1l-5.849-.749-25.315,12.008,1.609,6.837,14.676,7.237,16.285,1.408,115.807,52.877,18.7,1.005,53.663-28.528-163.4-60.319Z" transform="translate(-515.777 -133.481)" fill="#be4c84" opacity="0"/>
      <path id="Path_2694" data-name="Path 2694" d="M1238.031,280.248l1.854.619,163.4,60.322-53.665,28.528-18.7-1.005-115.807-52.877-16.286-1.408-14.677-7.237-1.608-6.836,25.316-12.007,5.847.749Zm.016,1.251-23.941,8.705-.268.1-.285-.037-5.5-.706-24.141,11.451,1.264,5.364,13.978,6.894,16.064,1.388.2.018.185.084,115.6,52.785,18.146.976,51.045-27.136-160.9-59.4Z" transform="translate(-515.777 -133.48)" fill="#be4c84" opacity="0"/>
      <path id="Path_2641" data-name="Path 2641" d="M1799.6,166.763l54.821,14.527,12.393-6.8L1812.721,160.8Z" transform="translate(-1052.604 75.819)" fill="#be4c84" opacity="0"/>
      <path id="Path_2645" data-name="Path 2645" d="M1890.792,164.316l9.178-5.04-3.709-2.373-47.451-11.672-11.965,5.438Z" transform="translate(-1075.462 85.373)" fill="#be4c84" opacity="0"/>
      <path id="Path_2702" data-name="Path 2702" d="M1812.721,160.8l54.095,13.685-12.393,6.8L1799.6,166.763Zm.083.919-10.619,4.826,52.124,13.812,10.147-5.57Z" transform="translate(-1052.604 75.819)" fill="#be4c84" opacity="0"/>
      <path id="Path_2706" data-name="Path 2706" d="M1890.793,164.315l-53.945-13.647,11.965-5.438,47.452,11.672,3.708,2.373Zm-.119-.929,7.593-4.169-2.35-1.5L1848.9,146.149l-9.428,4.284Z" transform="translate(-1075.462 85.374)" fill="#be4c84" opacity="0"/>
      <path id="Path_2585" data-name="Path 2585" d="M1288.005,500.1,1246.5,521.886l41.509-21.786,106.119,49.021h0Z" transform="translate(-546.238 -238.192)" fill="#19b24b"/>
      <path id="Path_2587" data-name="Path 2587" d="M1331.495,497.229l105.743,49.584,31.366-21.036h0l-31.365,21.035Z" transform="translate(-586.721 -236.825)" fill="#19b24b"/>
      <g id="_36" data-name="36" transform="translate(744.773 240.679)" opacity="0.5">
        <path id="Path_2527" data-name="Path 2527" d="M1369.433,459.567l-37.939,19.724,37.939-19.721,93.722,40.193,5.446,8.075h0l-5.447-8.076Zm.064,1.745-34.449,17.906,102.05,47.855,29.317-19.661-4.307-6.383Z" transform="translate(-1331.494 -459.567)" fill="rgba(0,117,60,0.75)" opacity="0.4"/>
        <path id="Path_2588" data-name="Path 2588" d="M1369.433,459.572l-37.939,19.721,105.742,49.582L1468.6,507.84l-5.446-8.075Zm67.665,67.5-102.05-47.854,34.449-17.906,92.611,39.717,4.307,6.382Z" transform="translate(-1331.494 -459.569)" fill="#19b24b"/>
      </g>
      <g id="_37" data-name="37" transform="translate(700.257 261.908)" opacity="0.5">
        <path id="Path_2526" data-name="Path 2526" d="M1288.049,503.449l-38.128,20.014,102.6,52.481,38.358-24.993ZM1246.5,523.481h0l106.119,54.281,41.508-27.045-41.508,27.045Z" transform="translate(-1246.497 -501.695)" fill="rgba(0,117,60,0.75)" opacity="0.4"/>
        <path id="Path_2586" data-name="Path 2586" d="M1288.006,500.1,1246.5,521.887l106.118,54.28,41.509-27.047Zm64.516,74.249-102.6-52.48,38.13-20.014,102.828,47.5Z" transform="translate(-1246.497 -500.1)" fill="#19b24b"/>
      </g>
      <path id="Path_2567" data-name="Path 2567" d="M882.5,247.29,842.81,259.236,882.5,247.291,943.681,274.5h0Z" transform="translate(-353.97 -117.783)" fill="#19b24b"/>
      <path id="Path_2571" data-name="Path 2571" d="M735.539,392.1l-50.611,17.44L735.539,392.1l74.119,41.291Z" transform="translate(-278.773 -186.755)" fill="#19b24b"/>
      <path id="Path_2573" data-name="Path 2573" d="M859.894,534.246l0,0,91.689,56.234,52.9-27.117h0l-52.9,27.115Z" transform="translate(-362.105 -254.455)" fill="#19b24b"/>
      <path id="Path_2580" data-name="Path 2580" d="M881.478,358.2h0l74.738,37.37,42.248-17.355-42.248,17.354-74.738-37.37" transform="translate(-372.386 -170.605)" fill="#19b24b"/>
      <g id="_20" data-name="20" transform="translate(444.197 142.209)" opacity="0.5">
        <path id="Path_2483" data-name="Path 2483" d="M802,274.756l-36.389,11,57.339,29.1,38.063-12.687Z" transform="translate(-761.397 -273.073)" fill="rgba(111,6,1,0.8)"/>
        <path id="Path_3135" data-name="Path 3135" d="M798.287,271.545l-40.722,12.306,61.426,31.175,42.446-14.149Zm20.83,41.779-57.34-29.1,36.39-11,59.012,27.41Z" transform="translate(-757.566 -271.545)" fill="#c8220b"/>
      </g>
      <g id="_21" data-name="21" transform="translate(488.841 129.508)" opacity="0.5">
        <path id="Path_2516" data-name="Path 2516" d="M882.389,250.492l-35.154,10.582,57.9,26.792,34.275-12.015ZM842.81,260.761h0l62.248,28.8,38.622-13.537-38.622,13.537Z" transform="translate(-842.81 -248.816)" fill="rgba(111,6,1,0.8)"/>
        <path id="Path_2568" data-name="Path 2568" d="M882.5,247.292,842.81,259.236l62.248,28.8L943.68,274.5Zm22.643,39.049-57.9-26.792,35.154-10.581,57.026,25.359Z" transform="translate(-842.81 -247.292)" fill="#c8220b"/>
      </g>
      <g id="_46" data-name="46" transform="translate(535.659 37.537)" opacity="0.5">
        <path id="Path_2606" data-name="Path 2606" d="M1002.062,84.741,962.55,71.68l-30.343,7.977,37.844,13.721Z" transform="translate(-932.207 -71.679)" fill="rgba(111,6,1,0.8)"/>
        <path id="Path_2667" data-name="Path 2667" d="M970.05,93.377l-37.844-13.72,30.343-7.978,39.513,13.063Zm.052-1.237,27.849-7.513L962.51,72.911l-26.343,6.926Z" transform="translate(-932.206 -71.679)" fill="#c8220b"/>
      </g>
      <g id="_45" data-name="45" transform="translate(500.778 46.044)" opacity="0.5">
        <path id="Path_2593" data-name="Path 2593" d="M936.341,101.649,898.475,87.921,865.6,96.562,901.69,111Z" transform="translate(-865.605 -87.921)" fill="rgba(111,6,1,0.8)"/>
        <path id="Path_2654" data-name="Path 2654" d="M901.689,111,865.605,96.562l32.871-8.641,37.866,13.728Zm.073-1.244,30.658-8.271-34-12.327-29.053,7.638Z" transform="translate(-865.605 -87.921)" fill="#c8220b"/>
      </g>
      <g id="_44" data-name="44" transform="translate(459.373 55.189)" opacity="0.5">
        <path id="Path_2603" data-name="Path 2603" d="M862.134,119.827l-36.1-14.442-39.487,10.382,35.778,14.8Z" transform="translate(-786.542 -105.384)" fill="rgba(111,6,1,0.8)"/>
        <path id="Path_2664" data-name="Path 2664" d="M822.321,130.567l-35.778-14.8,39.487-10.382,36.1,14.443Zm.081-1.245,36.007-9.713-32.455-12.983-35.715,9.39Z" transform="translate(-786.543 -105.384)" fill="#c8220b"/>
      </g>
      <g id="_48" data-name="48" transform="translate(538.689 60.472)" opacity="0.5">
        <path id="Path_2595" data-name="Path 2595" d="M937.993,124.85l39.6,15.843,12.461-3.37,24.607-6.654-41.912-15.2Z" transform="translate(-937.993 -115.471)" fill="rgba(111,6,1,0.8)"/>
        <path id="Path_2656" data-name="Path 2656" d="M972.753,115.473l41.912,15.2L977.6,140.694l-39.6-15.843Zm-.052,1.238-30.983,8.358L977.67,139.45l33.078-8.945Z" transform="translate(-937.993 -115.472)" fill="#c8220b"/>
      </g>
      <g id="_49" data-name="49" transform="translate(496.941 70.363)" opacity="0.5">
        <path id="Path_2597" data-name="Path 2597" d="M858.278,145.109l38.852,16.074,40.6-10.98-39.61-15.843Z" transform="translate(-858.277 -134.358)" fill="rgba(111,6,1,0.8)"/>
        <path id="Path_2658" data-name="Path 2658" d="M898.127,134.357,937.733,150.2l-40.6,10.981-38.853-16.074Zm-.073,1.243-36.116,9.743,35.272,14.593,36.8-9.952Z" transform="translate(-858.277 -134.357)" fill="#c8220b"/>
      </g>
      <g id="_50" data-name="50" transform="translate(449.508 81.618)" opacity="0.5">
        <path id="Path_2605" data-name="Path 2605" d="M767.707,168.14l37.512,16.468,46.906-12.684L813.27,155.848Z" transform="translate(-767.707 -155.848)" fill="rgba(111,6,1,0.8)"/>
        <path id="Path_2666" data-name="Path 2666" d="M813.271,155.849l38.854,16.074-46.906,12.685L767.708,168.14Zm-.081,1.245-41.936,11.313,34.06,14.952,43.155-11.67Z" transform="translate(-767.708 -155.848)" fill="#c8220b"/>
      </g>
      <g id="_51" data-name="51" transform="translate(520.596 102.69)" opacity="0.5">
        <path id="Path_2628" data-name="Path 2628" d="M940.762,196.316l.091-.232-37.4,10.5,59.235,24.279,35.839-11.749Z" transform="translate(-903.447 -196.084)" fill="rgba(111,6,1,0.8)"/>
        <path id="Path_2689" data-name="Path 2689" d="M940.852,196.084l-.092.232,57.759,22.8-35.84,11.749-59.234-24.279Zm-.462,1.356L907.07,206.8l55.655,22.812,32.317-10.594Z" transform="translate(-903.445 -196.084)" fill="#c8220b"/>
      </g>
      <g id="_23" data-name="23" transform="translate(509.091 172.913)" opacity="0.5">
        <path id="Path_2523" data-name="Path 2523" d="M923.255,330.171l-41.778,14.676Zm-.08,1.7L885.507,345.1l70.771,35.388,38.243-15.709Z" transform="translate(-881.477 -330.171)" fill="rgba(111,6,1,0.8)"/>
        <path id="Path_2581" data-name="Path 2581" d="M923.255,330.171h0l-41.776,14.677,74.736,37.369,42.249-17.353Zm33.024,50.319L885.508,345.1l37.668-13.232,71.346,32.911Z" transform="translate(-881.478 -330.171)" fill="#c8220b"/>
      </g>
      <g id="_24" data-name="24" transform="translate(460.055 188.168)" opacity="0.5">
        <path id="Path_2489" data-name="Path 2489" d="M837.127,362.56l-41.963,14.611,70.345,39.218,43.013-17.633Z" transform="translate(-791.332 -360.853)" fill="rgba(111,6,1,0.8)"/>
        <path id="Path_2490" data-name="Path 2490" d="M833.755,359.3l-45.909,15.986,74.073,41.3,46.9-19.226Zm28.268,55.537-70.345-39.218,41.963-14.611,71.394,36.2Z" transform="translate(-787.846 -359.299)" fill="#c8220b"/>
      </g>
      <g id="_25" data-name="25" transform="translate(406.156 205.349)" opacity="0.5">
        <path id="Path_2518" data-name="Path 2518" d="M738.721,395.384l-46.792,16.125,69.277,42.547,48.136-19.33Z" transform="translate(-688.263 -393.667)" fill="rgba(0,117,60,0.75)" opacity="0.4"/>
        <path id="Path_2572" data-name="Path 2572" d="M735.54,392.1l-50.611,17.439,72.794,44.707L809.659,433.4Zm22.332,60.39-69.277-42.548,46.792-16.125,70.622,39.342Z" transform="translate(-684.929 -392.105)" fill="#19b24b"/>
      </g>
      <g id="_32" data-name="32" transform="translate(497.786 256.33)" opacity="0.5">
        <path id="Path_2519" data-name="Path 2519" d="M912.235,490.952l-52.345,22.672,0,0,52.341-22.67,92.242,51.788,0,0Zm-.089,1.759L863.3,513.868l88.352,54.189,49.5-25.375Z" transform="translate(-859.891 -490.952)" fill="rgba(0,117,60,0.75)" opacity="0.4"/>
        <path id="Path_2574" data-name="Path 2574" d="M912.239,490.959,859.9,513.629l91.685,56.232,52.9-27.115Zm39.413,77.1L863.3,513.871l48.851-21.157,89,49.97Z" transform="translate(-859.894 -490.169)" fill="#19b24b"/>
      </g>
      <g id="_31" data-name="31" transform="translate(365.414 275.457)" opacity="0.5">
        <path id="Path_2485" data-name="Path 2485" d="M730.714,529.353l-117.7,50.088L706.8,652.53,828.13,590.024Z" transform="translate(-609.933 -527.582)" fill="rgba(0,117,60,0.75)" opacity="0.4"/>
        <path id="Path_2486" data-name="Path 2486" d="M728.051,525.972,607.134,577.429l96.689,75.351,124.7-64.237ZM704,650.919,610.212,577.83l117.7-50.088,97.417,60.67Z" transform="translate(-607.134 -525.972)" fill="#19b24b"/>
        <g id="Group_1931" data-name="Group 1931" transform="translate(103.665 51.218)">
          <path id="Path_2790" data-name="Path 2790" d="M811.085,626.052a2.166,2.166,0,0,1-.518,1.48,2.6,2.6,0,0,1-1.458.8v.052a2.828,2.828,0,0,1,1.688.7,2,2,0,0,1,.563,1.486,2.472,2.472,0,0,1-.953,2.082,4.373,4.373,0,0,1-2.71.732,6.118,6.118,0,0,1-2.621-.5v-1.337a5.937,5.937,0,0,0,1.26.454,5.467,5.467,0,0,0,1.278.16,2.7,2.7,0,0,0,1.624-.4,1.457,1.457,0,0,0,.537-1.247,1.185,1.185,0,0,0-.595-1.1,3.794,3.794,0,0,0-1.867-.351H806.5V627.83h.825q2.237,0,2.238-1.547a1.143,1.143,0,0,0-.39-.927,1.759,1.759,0,0,0-1.151-.326,3.475,3.475,0,0,0-1.023.15,4.871,4.871,0,0,0-1.164.585l-.735-1.049a4.9,4.9,0,0,1,2.986-.946,3.553,3.553,0,0,1,2.205.607A1.994,1.994,0,0,1,811.085,626.052Z" transform="translate(-805.075 -623.77)" fill="#fff"/>
          <path id="Path_2791" data-name="Path 2791" d="M824.177,633.372h-1.5v-6.035q0-1.08.051-1.714c-.1.1-.218.216-.361.339s-.621.516-1.435,1.177l-.755-.953,2.749-2.16h1.253Z" transform="translate(-812.267 -623.892)" fill="#fff"/>
        </g>
      </g>
      <g id="_40" data-name="40" transform="translate(530.709 340.165)">
        <path id="Path_2521" data-name="Path 2521" d="M984.946,652.989l-56.406,29.58,106.087,73.8,56.727-37.416Z" transform="translate(-925.511 -651.176)" fill="rgba(111,6,1,0.8)"/>
        <path id="Path_2577" data-name="Path 2577" d="M982.256,649.529l-59.5,31.2,109.092,75.894,59.675-39.36ZM925.785,680.92h0l56.406-29.58L1088.6,717.307l-56.728,37.417Z" transform="translate(-922.756 -649.529)" fill="#c8220b"/>
      </g>
      <g id="_41" data-name="41" transform="translate(466.103 373.591)" opacity="0.5">
        <path id="Path_2487" data-name="Path 2487" d="M862.122,716.858l-57.257,29.9,104.369,83.8,60.641-39.332Z" transform="translate(-801.999 -715.022)" fill="rgba(0,117,60,0.75)" opacity="0.4"/>
        <path id="Path_2488" data-name="Path 2488" d="M859.63,713.353,799.393,744.8,906.53,830.825,970.1,789.592Zm47,115.53-104.369-83.8,57.257-29.9,107.751,74.363Z" transform="translate(-799.393 -713.353)" fill="#19b24b"/>
      </g>
      <rect id="Rectangle_2513" data-name="Rectangle 2513" width="939" height="532" transform="translate(0.392 9.453)" fill="none"/>
      <path id="Path_2508" data-name="Path 2508" d="M122.292,343.164l-70.918,19.6,70.918-19.592.553.455h0Z" transform="translate(22.979 -163.446)" fill="#19b24b"/>
      <path id="Path_2511" data-name="Path 2511" d="M370.061,278.548l-49.369,13.308-.379.105,49.752-13.411Z" transform="translate(-105.113 -132.67)" fill="#19b24b"/>
      <path id="Path_2513" data-name="Path 2513" d="M500.322,251.263l-12.274,3.308-.146.041,12.419-3.348h0" transform="translate(-184.933 -119.675)" fill="#19b24b"/>
      <path id="Path_2528" data-name="Path 2528" d="M402.833,549.352,297.549,588.427l105.284-39.074,49.75,38.574h0Z" transform="translate(-94.271 -261.65)" fill="#19b24b"/>
      <path id="Path_2532" data-name="Path 2532" d="M189.066,260.122l-59.058,15.067.195.763,0,0,0,0,58.707-14.978,34.491,23.578-61.06,16.99-32.138-25.59H130.2l-.488.613,31.962,25.45,63.071-17.5Z" transform="translate(-14.332 -123.895)" fill="rgba(111,6,1,0.8)"/>
      <path id="Path_2535" data-name="Path 2535" d="M129.713,291.518h0Z" transform="translate(-14.332 -138.848)" fill="#19b24b"/>
      <path id="Path_2536" data-name="Path 2536" d="M656.058,148.364h0l37.05,16.814-38.3,11.058,38.3-11.058Zm-38.143,9.787h0l36.9,18.085Z" transform="translate(-246.853 -70.666)" fill="#19b24b"/>
      <path id="Path_2538" data-name="Path 2538" d="M364.874,545.778,261.431,584.842l-38.437-39.062,0,0,38.439,39.063,103.442-39.063,0,0" transform="translate(-58.76 -259.949)" fill="#19b24b"/>
      <path id="Path_2540" data-name="Path 2540" d="M252.372,420.768h0l38.28,30.154-99.379,33.6-30.625-31.406h0l30.626,31.409,99.382-33.6Z" transform="translate(-29.066 -200.408)" fill="#19b24b"/>
      <path id="Path_2542" data-name="Path 2542" d="M472.043,254.263l-19.533,5.35,19.533-5.349L523.463,282.8h0Zm-46.435,12.719h0l47.6,30-47.6-30" transform="translate(-155.262 -121.104)" fill="#19b24b"/>
      <path id="Path_2544" data-name="Path 2544" d="M663.953,281.038l-45.391,13.778,45.394-13.777Z" transform="translate(-247.162 -133.856)" fill="#19b24b"/>
      <path id="Path_2546" data-name="Path 2546" d="M730.3,183.767h0l61.475,25.724Zm-38.632,10.72h0l54.484,26.2,45.623-11.192L746.15,220.683Z" transform="translate(-281.982 -87.528)" fill="#19b24b"/>
      <path id="Path_2547" data-name="Path 2547" d="M729.146,182.854l-18.753,5.6,18.753-5.594,1.139.477h0Zm-37.5,11.191h0l.014.007h0l-.015-.007" transform="translate(-281.97 -87.092)" fill="#19b24b"/>
      <path id="Path_2549" data-name="Path 2549" d="M729.147,182.857l-18.753,5.594-18.752,5.6.014.006,38.631-10.719Z" transform="translate(-281.971 -87.094)" fill="#19b24b"/>
      <path id="Path_2550" data-name="Path 2550" d="M210.007,408.64,148,426.279l62.012-17.636Z" transform="translate(-23.041 -194.631)" fill="#19b24b"/>
      <path id="Path_2552" data-name="Path 2552" d="M122.292,343.17,51.374,362.762l.568.537,70.9-19.674Z" transform="translate(22.979 -163.449)" fill="#19b24b"/>
      <path id="Path_2553" data-name="Path 2553" d="M0,330.629l25.426,24.964,71.566-19.325h0L25.426,355.591Z" transform="translate(47.448 -157.476)" fill="#19b24b"/>
      <path id="Path_2555" data-name="Path 2555" d="M300.524,235.362l-51.912,13.184,0,0,51.91-13.182,34.96,22.341h0Z" transform="translate(-70.962 -112.102)" fill="#19b24b"/>
      <path id="Path_2556" data-name="Path 2556" d="M414.493,278.026h0l.427.272h0Z" transform="translate(-149.967 -132.421)" fill="#19b24b"/>
      <path id="Path_2559" data-name="Path 2559" d="M400.858,211.693l-45.894,11.923h0l45.9-11.922Zm15.132,8.675,20.9,11.983h0Z" transform="translate(-121.615 -100.828)" fill="#19b24b"/>
      <path id="Path_2560" data-name="Path 2560" d="M511.4,251.137h0l.115.067h0Z" transform="translate(-196.122 -119.615)" fill="#19b24b"/>
      <path id="Path_2562" data-name="Path 2562" d="M500.339,251.138l-12.158,3.374,12.275-3.308Z" transform="translate(-185.064 -119.615)" fill="#19b24b"/>
      <path id="Path_2563" data-name="Path 2563" d="M491.237,189.285l-42.489,10.882,42.489-10.882L528.9,208.494h0Zm-42.489,10.882,35.77,20.534,22.191-6.1-22.191,6.1Z" transform="translate(-166.285 -90.156)" fill="#19b24b"/>
      <path id="Path_2565" data-name="Path 2565" d="M575.858,168.66,536.477,179h0l39.379-10.336,37.414,18.2Z" transform="translate(-208.067 -80.332)" fill="#19b24b"/>
      <path id="Path_2569" data-name="Path 2569" d="M571.4,427.767,452.848,467.941,571.4,427.768l79.331,49.287h0Z" transform="translate(-168.235 -203.741)" fill="#19b24b"/>
      <g id="_1" data-name="1" transform="translate(47.448 153.016)" opacity="0.5">
        <g id="Group_1951" data-name="Group 1951" transform="translate(0 0)">
          <path id="Path_2554" data-name="Path 2554" d="M64.9,292.182,6.288,306.77,0,312.318,25.426,337.28l71.566-19.325ZM25.886,335.526,2.311,312.379l4.73-4.175L64.518,293.9l29.07,23.346Z" transform="translate(0 -292.179)" fill="#19b24b"/>
          <path id="Path_2509" data-name="Path 2509" d="M64.9,292.177,6.284,306.766,0,312.315l6.288-5.547L64.9,292.18,96.99,317.953h0Zm-.378,1.719L7.041,308.2l-4.73,4.175,23.575,23.147,67.7-18.282Z" transform="translate(0 -292.177)" fill="rgba(0,117,60,0.75)" opacity="0.4"/>
        </g>
      </g>
      <g id="_2" data-name="2" transform="translate(115.869 137.079)" opacity="0.5">
        <path id="Path_2500" data-name="Path 2500" d="M190.786,263.372l-56.827,14.5,30.584,24.352,59.042-16.428Z" transform="translate(-132.224 -262.521)" fill="rgba(111,6,1,0.8)"/>
        <path id="Path_2534" data-name="Path 2534" d="M189.359,261.748l-58.708,14.977,32.139,25.591,61.059-16.991ZM132.381,277.1l56.827-14.5,32.8,22.422-59.042,16.428Zm-1.733-.373,0,0h0Z" transform="translate(-130.646 -261.748)" fill="#c8220b"/>
      </g>
      <g id="_3" data-name="3" transform="translate(177.652 123.264)" opacity="0.5">
        <path id="Path_2510" data-name="Path 2510" d="M300.253,238.6l-47.919,12.169,30.585,21.407,49.145-13.247Zm-51.635,11.491h0l34,23.8,3.546-.955.379-.105-3.927,1.058-34-23.8" transform="translate(-248.617 -236.907)" fill="rgba(111,6,1,0.8)"/>
        <path id="Path_2557" data-name="Path 2557" d="M300.527,235.369l-51.91,13.182,34,23.8,3.928-1.058,48.943-13.581Zm-17.609,35.268L252.334,249.23l47.919-12.17,31.812,20.329Z" transform="translate(-248.617 -235.369)" fill="#c8220b"/>
      </g>
      <g id="_4" data-name="4" transform="translate(233.347 110.866)" opacity="0.5">
        <path id="Path_2512" data-name="Path 2512" d="M400.862,211.7h0l15.129,8.674Zm-.23,1.685-41.817,10.863,30.01,19.529,44.093-11.884Zm-45.668,10.238h0l33.592,21.859,36.03-9.711.145-.04-36.175,9.75-33.591-21.858" transform="translate(-354.964 -211.695)" fill="rgba(111,6,1,0.8)"/>
        <path id="Path_2561" data-name="Path 2561" d="M400.862,211.7l-45.9,11.923,33.592,21.858,36.176-9.75,12.158-3.374-20.9-11.983L400.861,211.7m-12.036,32.077-30.01-19.529,41.817-10.863,32.285,18.509Z" transform="translate(-354.964 -211.695)" fill="#c8220b"/>
      </g>
      <g id="_5" data-name="5" transform="translate(282.465 99.13)" opacity="0.5">
        <path id="Path_2514" data-name="Path 2514" d="M494.823,192.48l-38.158,9.773L488.5,220.53l39.833-10.956Zm37.846,17.536-22.189,6.1,22.191-6.1Z" transform="translate(-452.52 -190.807)" fill="rgba(111,6,1,0.8)"/>
        <path id="Path_2564" data-name="Path 2564" d="M491.239,189.285,448.75,200.166,484.519,220.7l22.191-6.1,22.188-6.1Zm-6.5,29.723L452.9,200.73l38.157-9.772,33.514,17.094Z" transform="translate(-448.75 -189.285)" fill="#c8220b"/>
      </g>
      <g id="_6" data-name="6" transform="translate(328.409 88.327)" opacity="0.5">
        <path id="Path_2515" data-name="Path 2515" d="M575.694,171.851l-34.805,9.135,32.665,16.558,35.256-9.587Zm-39.215,8.665h0l36.905,18.708,39.89-10.846-39.89,10.846Z" transform="translate(-536.477 -170.179)" fill="rgba(111,6,1,0.8)"/>
        <path id="Path_2566" data-name="Path 2566" d="M575.859,168.659,536.48,178.995l36.9,18.708,39.89-10.846Zm-2.3,27.364L540.89,179.465l34.8-9.135,33.116,16.107Z" transform="translate(-536.478 -168.659)" fill="#c8220b"/>
      </g>
      <g id="_7" data-name="7" transform="translate(371.059 77.698)" opacity="0.5">
        <path id="Path_2501" data-name="Path 2501" d="M656.055,148.364l-38.143,9.786h0l38.142-9.786Zm-.143,1.663-33.473,8.588,32.519,15.939,33.614-9.705Z" transform="translate(-617.913 -148.364)" fill="rgba(111,6,1,0.8)"/>
        <path id="Path_2537" data-name="Path 2537" d="M656.057,148.365l-38.141,9.786,36.9,18.086,38.3-11.058-37.051-16.814m-1.1,26.19-32.519-15.939,33.473-8.588,32.661,14.822Z" transform="translate(-617.914 -148.364)" fill="#c8220b"/>
      </g>
      <g id="_8" data-name="8" transform="translate(409.687 96.24)" opacity="0.5">
        <path id="Path_2506" data-name="Path 2506" d="M733.015,186.045,699.95,195.91,750.269,220.1l40.434-9.919Z" transform="translate(-695.613 -184.852)" fill="rgba(111,6,1,0.8)"/>
        <path id="Path_2548" data-name="Path 2548" d="M730.3,183.767l-38.631,10.72,54.482,26.2,45.623-11.19Zm16.024,35.252-50.318-24.194,33.065-9.865,57.687,24.14Z" transform="translate(-691.669 -183.767)" fill="#c8220b"/>
      </g>
      <g id="_9" data-name="9" transform="translate(367.755 107.931)" opacity="0.5">
        <path id="Path_2471" data-name="Path 2471" d="M654.307,209.3l-34.587,9.822,48.063,24.948,36.565-10.27Z" transform="translate(-615.471 -207.621)" fill="rgba(111,6,1,0.8)"/>
        <path id="Path_2472" data-name="Path 2472" d="M650.594,206.092l-38.987,11.072,52.139,27.062,41.137-11.554Zm13.325,36.451-48.063-24.948,34.587-9.822,50.041,24.5Z" transform="translate(-611.607 -206.092)" fill="#c8220b"/>
      </g>
      <g id="_10" data-name="10" transform="translate(320.102 120.115)" opacity="0.5">
        <path id="Path_2505" data-name="Path 2505" d="M564.654,229.357l-44.04,11.936,44.039-11.933L617.3,256.423h0Zm-.178,1.683-39.741,10.769L572.1,268.5l41.027-12.452Z" transform="translate(-520.614 -229.357)" fill="rgba(111,6,1,0.8)"/>
        <path id="Path_2545" data-name="Path 2545" d="M564.653,229.365,520.614,241.3l51.3,28.908L617.3,256.427ZM572.1,268.5l-47.362-26.691,39.741-10.769,48.649,25.008Z" transform="translate(-520.614 -229.361)" fill="#c8220b"/>
      </g>
      <g id="_11" data-name="11" transform="translate(270.345 133.16)" opacity="0.5">
        <path id="Path_2504" data-name="Path 2504" d="M471.84,257.486l-42.367,11.6,43.977,27.717,45.906-12.947Zm-19.331,3.662-26.9,7.367Zm70.954,23.189L473.2,298.513l50.26-14.175" transform="translate(-425.608 -255.8)" fill="rgba(111,6,1,0.8)"/>
        <path id="Path_2543" data-name="Path 2543" d="M472.043,254.266l-19.533,5.349-26.9,7.368,47.6,30L523.463,282.8Zm1.408,41.007-43.977-27.716,42.367-11.6,47.516,26.373Z" transform="translate(-425.608 -254.266)" fill="#c8220b"/>
      </g>
      <g id="_12" data-name="12" transform="translate(213.577 147.287)" opacity="0.5">
        <path id="Path_2473" data-name="Path 2473" d="M373.154,284.483l-48.93,13.277,42.608,29.6L418.146,312.2Z" transform="translate(-320.55 -282.784)" fill="rgba(111,6,1,0.8)"/>
        <path id="Path_2474" data-name="Path 2474" d="M370.059,281.239l-52.85,14.342,46,31.954,55.424-16.373Zm-6.568,44.572-42.608-29.6,48.93-13.278L414.8,310.652Z" transform="translate(-317.209 -281.239)" fill="#c8220b"/>
      </g>
      <g id="_13" data-name="13" transform="translate(150.818 162.433)" opacity="0.5">
        <path id="Path_2469" data-name="Path 2469" d="M259.983,313.438,203.67,329.215l36.813,30.911L301.57,342.57Z" transform="translate(-200.374 -311.721)" fill="rgba(111,6,1,0.8)"/>
        <path id="Path_2470" data-name="Path 2470" d="M257.278,310.159l-59.9,16.782,39.738,33.37,65.063-18.7Zm-19.793,48.4-36.812-30.911,56.312-15.776,41.587,29.132Z" transform="translate(-197.376 -310.159)" fill="#c8220b"/>
      </g>
      <g id="_14" data-name="14" transform="translate(74.921 180.175)" opacity="0.5">
        <path id="Path_2507" data-name="Path 2507" d="M125.676,344.037h0l41.141,33.833h0Zm-.926,1.282L57.311,363.951l31.655,29.983h15.62L163.5,377.18Z" transform="translate(-54.77 -344.037)" fill="rgba(0,117,60,0.75)" opacity="0.4"/>
        <path id="Path_2551" data-name="Path 2551" d="M123.362,344.039l-70.9,19.674,33.569,31.8h16.467L164.5,377.872Zm-36.706,49.9L55,363.952l67.438-18.631,38.746,31.861-58.908,16.754Z" transform="translate(-52.459 -344.038)" fill="#19b24b"/>
      </g>
      <g id="_15" data-name="15" transform="translate(131.582 220.361)" opacity="0.5">
        <path id="Path_2503" data-name="Path 2503" d="M252.37,420.768,170.8,444.514l-10.158,8.6h0l10.156-8.593Zm-.337,1.738-80.467,23.431-8.611,7.286,28.755,29.488L287.4,450.364Z" transform="translate(-160.646 -420.768)" fill="rgba(0,117,60,0.75)" opacity="0.4"/>
        <path id="Path_2541" data-name="Path 2541" d="M252.373,420.768h0l-81.566,23.75-10.156,8.593,30.625,31.406,99.378-33.6Zm-60.661,61.944-28.755-29.488,8.612-7.286,80.467-23.432L287.4,450.364Z" transform="translate(-160.648 -420.768)" fill="#19b24b"/>
      </g>
      <g id="_16" data-name="16" transform="translate(228.043 203.117)" opacity="0.5">
        <g id="Group_1950" data-name="Group 1950">
          <path id="Path_2475" data-name="Path 2475" d="M399.777,391.155,351.12,405.992l50.119,40.662,50.994-17.838Z" transform="translate(-347.827 -389.421)" fill="rgba(254,144,0,0.6)"/>
          <path id="Path_2476" data-name="Path 2476" d="M397.07,387.844l-52.237,15.927,53.1,43.084,54.682-19.13Zm1.175,57.233-50.119-40.662,48.658-14.837,52.455,37.66Z" transform="translate(-344.833 -387.844)" fill="#fe9000"/>
        </g>
      </g>
      <g id="_17" data-name="17" transform="translate(284.166 185.415)" opacity="0.5">
        <path id="Path_2477" data-name="Path 2477" d="M512.477,357.3l-53.688,15.545,52.07,37.289L567.71,391.6Z" transform="translate(-455.232 -355.596)" fill="rgba(111,6,1,0.8)"/>
        <path id="Path_2478" data-name="Path 2478" d="M509.478,354.044,452,370.685l55.356,39.643,60.829-19.835Zm-1.853,54.54L455.555,371.3l53.688-15.544,55.234,34.293Z" transform="translate(-451.998 -354.044)" fill="#c8220b"/>
      </g>
      <g id="_18" data-name="18" transform="translate(345.133 169.698)" opacity="0.5">
        <path id="Path_2479" data-name="Path 2479" d="M618.758,327.281l-43.152,13.151,54.975,34.333,45.513-15.444Z" transform="translate(-571.836 -325.579)" fill="rgba(111,6,1,0.8)"/>
        <path id="Path_2480" data-name="Path 2480" d="M615.512,324.031l-47.1,14.356,58.545,36.562,49.574-16.823Zm11.64,49.186-54.975-34.333,43.152-13.151,57.336,32.04Z" transform="translate(-568.408 -324.031)" fill="#c8220b"/>
      </g>
      <g id="_19" data-name="19" transform="translate(396.4 155.543)" opacity="0.5">
        <path id="Path_2481" data-name="Path 2481" d="M714.757,300.219l-40.724,11.844,56.843,31.812,42-14.388Z" transform="translate(-669.982 -298.534)" fill="rgba(111,6,1,0.8)"/>
        <path id="Path_2482" data-name="Path 2482" d="M711.229,297,666.3,310.069l60.737,33.991,46.207-15.83Zm15.963,45.341-56.843-31.812,40.724-11.844,58.119,29.267Z" transform="translate(-666.299 -297.002)" fill="#c8220b"/>
      </g>
      <g id="_43" data-name="43" transform="translate(412.831 66.067)" opacity="0.5">
        <path id="Path_2604" data-name="Path 2604" d="M742.326,126.155,697.674,137.9l34.952,15.344,45.5-12.274Z" transform="translate(-697.674 -126.155)" fill="rgba(111,6,1,0.8)"/>
        <path id="Path_2665" data-name="Path 2665" d="M742.327,126.155l35.8,14.811-45.5,12.274L697.674,137.9Zm-.084,1.244-40.991,10.777,31.468,13.815,41.744-11.261Z" transform="translate(-697.674 -126.155)" fill="#c8220b"/>
      </g>
      <g id="_26" data-name="26" transform="translate(284.612 224.027)" opacity="0.5">
        <path id="Path_2517" data-name="Path 2517" d="M571.2,431.071l-115.1,39,73.253,57.676,117.952-49.4ZM452.848,469.517h0l76.265,60.045,121.622-50.933L529.113,529.561l-76.265-60.046" transform="translate(-452.848 -429.343)" fill="rgba(0,117,60,0.75)" opacity="0.4"/>
        <path id="Path_2570" data-name="Path 2570" d="M571.4,427.77,452.848,467.945l76.265,60.044,121.622-50.933Zm-42.044,98.408L456.105,468.5l115.1-39,76.108,47.283Z" transform="translate(-452.848 -427.77)" fill="#19b24b"/>
      </g>
      <g id="_27" data-name="27" transform="translate(164.232 253.015)" opacity="0.5">
        <path id="Path_2502" data-name="Path 2502" d="M322.84,483.12l-99.849,32.815,0,0,99.846-32.813,42.031,32.811,0,0Zm-.307,1.763-96.639,31.76,35.939,36.524,99.861-37.712Z" transform="translate(-222.991 -483.12)" fill="rgba(111,6,1,0.8)"/>
        <path id="Path_2539" data-name="Path 2539" d="M322.84,483.129l-99.848,32.814L261.431,555,364.874,515.94Zm-61.007,70.042-35.939-36.525,96.639-31.759L361.7,515.459Z" transform="translate(-222.992 -483.124)" fill="#c8220b"/>
      </g>
      <g id="_28" data-name="28" transform="translate(203.28 287.703)" opacity="0.5">
        <path id="Path_2497" data-name="Path 2497" d="M402.559,552.753,300.42,590.661l42.961,42.223,106.09-43.758Zm50.024,36.793L343.019,634.737l-45.47-44.691h0l45.47,44.69,109.564-45.191" transform="translate(-297.549 -550.973)" fill="rgba(0,117,60,0.75)" opacity="0.4"/>
        <path id="Path_2529" data-name="Path 2529" d="M402.833,549.354,297.549,588.429l45.47,44.689,109.564-45.191Zm-59.453,81.911-42.96-42.223,102.139-37.907,46.911,36.372Z" transform="translate(-297.549 -549.354)" fill="#19b24b"/>
        <g id="Group_1940" data-name="Group 1940" transform="translate(62.704 32.621)">
          <path id="Path_2808" data-name="Path 2808" d="M423.614,621.122h-6.335v-1.137l2.41-2.423a20.4,20.4,0,0,0,1.416-1.55,3.688,3.688,0,0,0,.508-.86,2.328,2.328,0,0,0,.16-.863,1.317,1.317,0,0,0-.38-1,1.457,1.457,0,0,0-1.052-.364,2.808,2.808,0,0,0-1.039.2,4.886,4.886,0,0,0-1.16.716l-.813-.991a5.266,5.266,0,0,1,1.516-.933,4.44,4.44,0,0,1,1.566-.275,3.08,3.08,0,0,1,2.091.681,2.3,2.3,0,0,1,.786,1.831,3.215,3.215,0,0,1-.227,1.2,4.909,4.909,0,0,1-.7,1.173,16.023,16.023,0,0,1-1.563,1.632l-1.624,1.573v.064h4.437Z" transform="translate(-417.278 -611.642)" fill="#fff"/>
          <path id="Path_2809" data-name="Path 2809" d="M434.694,611.666a3.307,3.307,0,0,1,2.1.611,1.974,1.974,0,0,1,.774,1.633,2.57,2.57,0,0,1-1.726,2.29,4.43,4.43,0,0,1,1.563,1.156,2.178,2.178,0,0,1,.463,1.355,2.273,2.273,0,0,1-.85,1.854,3.521,3.521,0,0,1-2.3.7,3.758,3.758,0,0,1-2.359-.653,2.2,2.2,0,0,1-.838-1.848,2.385,2.385,0,0,1,.438-1.4,3.668,3.668,0,0,1,1.435-1.109,3.61,3.61,0,0,1-1.221-1.081,2.32,2.32,0,0,1-.364-1.279,1.923,1.923,0,0,1,.8-1.619A3.357,3.357,0,0,1,434.694,611.666Zm-1.733,7.045a1.241,1.241,0,0,0,.467,1.033,1.993,1.993,0,0,0,1.266.367,1.949,1.949,0,0,0,1.281-.38,1.274,1.274,0,0,0,.457-1.033,1.324,1.324,0,0,0-.422-.947,3.99,3.99,0,0,0-1.279-.792l-.185-.083a3.28,3.28,0,0,0-1.214.815A1.545,1.545,0,0,0,432.962,618.711Zm1.72-5.888a1.579,1.579,0,0,0-1.03.317,1.048,1.048,0,0,0-.39.859,1.234,1.234,0,0,0,.14.595,1.548,1.548,0,0,0,.41.477,4.9,4.9,0,0,0,.908.515,3.007,3.007,0,0,0,1.084-.713,1.308,1.308,0,0,0,.316-.873,1.045,1.045,0,0,0-.393-.859A1.614,1.614,0,0,0,434.681,612.823Z" transform="translate(-424.063 -611.653)" fill="#fff"/>
        </g>
      </g>
      <g id="_30" data-name="30" transform="translate(306.878 374.842)" opacity="0.5">
        <path id="Path_2499" data-name="Path 2499" d="M610.425,719.263l-109.9,52.81,58.859,57.921L673.2,768.453Z" transform="translate(-497.82 -717.419)" fill="rgba(0,117,60,0.75)" opacity="0.4"/>
        <path id="Path_2531" data-name="Path 2531" d="M608.168,715.741l-112.8,54.205,61.285,60.309,116.957-63.24ZM556.923,828.317l-58.859-57.922,109.9-52.81,62.775,49.189Z" transform="translate(-495.363 -715.741)" fill="#19b24b"/>
        <g id="Group_1942" data-name="Group 1942" transform="translate(83.18 51.258)">
          <path id="Path_2812" data-name="Path 2812" d="M660.2,815.922a2.165,2.165,0,0,1-.518,1.48,2.6,2.6,0,0,1-1.458.8v.052a2.822,2.822,0,0,1,1.688.7,2,2,0,0,1,.563,1.486,2.471,2.471,0,0,1-.953,2.081,4.368,4.368,0,0,1-2.711.732,6.113,6.113,0,0,1-2.621-.5v-1.337a5.949,5.949,0,0,0,1.26.454,5.459,5.459,0,0,0,1.279.159,2.694,2.694,0,0,0,1.624-.4,1.456,1.456,0,0,0,.537-1.248,1.184,1.184,0,0,0-.594-1.1,3.8,3.8,0,0,0-1.867-.352h-.812V817.7h.824q2.237,0,2.238-1.548a1.141,1.141,0,0,0-.39-.926,1.754,1.754,0,0,0-1.151-.326,3.5,3.5,0,0,0-1.023.15,4.87,4.87,0,0,0-1.164.585l-.735-1.048a4.9,4.9,0,0,1,2.985-.947,3.552,3.552,0,0,1,2.205.607A2,2,0,0,1,660.2,815.922Z" transform="translate(-654.19 -813.627)" fill="#fff"/>
          <path id="Path_2813" data-name="Path 2813" d="M674.833,818.436a6.654,6.654,0,0,1-.782,3.619,2.958,2.958,0,0,1-4.76-.039,6.53,6.53,0,0,1-.805-3.58,6.686,6.686,0,0,1,.783-3.647,2.959,2.959,0,0,1,4.76.054A6.574,6.574,0,0,1,674.833,818.436Zm-4.827,0a6.8,6.8,0,0,0,.393,2.729,1.374,1.374,0,0,0,2.519-.013,9.466,9.466,0,0,0,0-5.437,1.369,1.369,0,0,0-2.519-.016A6.853,6.853,0,0,0,670.006,818.436Z" transform="translate(-660.999 -813.615)" fill="#fff"/>
        </g>
      </g>
      <g id="_29" data-name="29" transform="translate(252.917 328.451)" opacity="0.5">
        <path id="Path_2498" data-name="Path 2498" d="M503.456,630.612,397.567,673.673l48.156,50.162L555.7,672.727Z" transform="translate(-394.823 -628.804)" fill="rgba(0,117,60,0.75)" opacity="0.4"/>
        <path id="Path_2530" data-name="Path 2530" d="M501.227,627.16l-108.9,44.285,50.543,52.65,113.294-52.65Zm-58,95.032-48.156-50.163L500.96,628.968l52.246,42.115Z" transform="translate(-392.328 -627.16)" fill="#19b24b"/>
        <g id="Group_1941" data-name="Group 1941" transform="translate(74.361 42.337)">
          <path id="Path_2810" data-name="Path 2810" d="M540.652,717.48h-6.336v-1.137l2.41-2.423a20.471,20.471,0,0,0,1.416-1.55,3.7,3.7,0,0,0,.508-.86,2.319,2.319,0,0,0,.16-.862,1.315,1.315,0,0,0-.381-1,1.457,1.457,0,0,0-1.052-.365,2.8,2.8,0,0,0-1.039.2,4.83,4.83,0,0,0-1.161.716l-.811-.991a5.22,5.22,0,0,1,1.515-.933,4.433,4.433,0,0,1,1.566-.275,3.083,3.083,0,0,1,2.091.68,2.3,2.3,0,0,1,.786,1.832,3.2,3.2,0,0,1-.227,1.2,4.868,4.868,0,0,1-.7,1.173,15.9,15.9,0,0,1-1.563,1.633l-1.623,1.573v.064h4.437Z" transform="translate(-534.316 -708)" fill="#fff"/>
          <path id="Path_2811" data-name="Path 2811" d="M554.886,712.135a6.425,6.425,0,0,1-1.112,4.123,4.071,4.071,0,0,1-3.35,1.362,5.157,5.157,0,0,1-1.221-.1v-1.26a4.222,4.222,0,0,0,1.144.16,2.928,2.928,0,0,0,2.27-.818,3.976,3.976,0,0,0,.818-2.57h-.076a2.262,2.262,0,0,1-.911.831,2.857,2.857,0,0,1-1.249.256,2.518,2.518,0,0,1-1.951-.773,3.021,3.021,0,0,1-.709-2.123,3.25,3.25,0,0,1,.821-2.331,2.939,2.939,0,0,1,2.241-.865,2.981,2.981,0,0,1,2.883,1.895A5.526,5.526,0,0,1,554.886,712.135Zm-3.26-2.864a1.452,1.452,0,0,0-1.2.508,2.2,2.2,0,0,0-.416,1.429,1.884,1.884,0,0,0,.387,1.256,1.449,1.449,0,0,0,1.173.457,1.87,1.87,0,0,0,1.278-.454,1.372,1.372,0,0,0,.518-1.061,2.6,2.6,0,0,0-.221-1.065,1.9,1.9,0,0,0-.617-.783A1.509,1.509,0,0,0,551.626,709.271Z" transform="translate(-541.09 -708.012)" fill="#fff"/>
        </g>
      </g>
      <g id="_52" data-name="52" transform="translate(559.487 93.314)" opacity="0.5">
        <path id="Path_2612" data-name="Path 2612" d="M1067.908,199.438l-58.3-21.255L977.7,187.142l57.942,22.873Z" transform="translate(-977.703 -178.183)" fill="rgba(111,6,1,0.8)"/>
        <path id="Path_2673" data-name="Path 2673" d="M1035.645,210.015,977.7,187.142l31.907-8.959,58.3,21.256Zm.036-1.255,28.615-9.381-54.734-19.956L981.4,187.331Z" transform="translate(-977.702 -178.183)" fill="#c8220b"/>
      </g>
      <g id="_22" data-name="22" transform="translate(555.669 158.573)" opacity="0.5">
        <path id="Path_2493" data-name="Path 2493" d="M1011.576,306.007l-33.219,11.544,69.812,32.962,27.319-11.351-.807-6.666Z" transform="translate(-974.199 -304.322)" fill="rgba(111,6,1,0.8)"/>
        <path id="Path_2494" data-name="Path 2494" d="M1007.847,302.789,970.417,315.8l73.931,34.908,29.067-12.079-1.061-8.759Zm36.541,46.192-69.813-32.962,33.219-11.544,63.106,26.489.807,6.665Z" transform="translate(-970.417 -302.789)" fill="#c8220b"/>
      </g>
      <g id="_33" data-name="33" transform="translate(552.678 235.56)" opacity="0.5">
        <path id="Path_2491" data-name="Path 2491" d="M1015.921,453.111,971.566,472l89.569,49.38,43.65-22.34Z" transform="translate(-967.974 -451.372)" fill="rgba(0,117,60,0.75)" opacity="0.4"/>
        <path id="Path_2492" data-name="Path 2492" d="M1012.719,449.79l-48.012,20.448,93.132,51.346,47.122-24.117Zm45.148,70.011L968.3,470.42l44.354-18.891,88.864,45.931Z" transform="translate(-964.707 -449.79)" fill="#19b24b"/>
      </g>
      <g id="_53" data-name="53" transform="translate(593.34 83.965)" opacity="0.5">
        <path id="Path_2617" data-name="Path 2617" d="M1131.117,180.308,1073.7,160.33l-31.351,8.8,58.166,21.207Z" transform="translate(-1042.347 -160.33)" fill="rgba(111,6,1,0.8)"/>
        <path id="Path_2678" data-name="Path 2678" d="M1100.512,190.339l-58.166-21.207,31.351-8.8,57.419,19.977Zm.021-1.25,26.894-8.816-53.766-18.706-27.464,7.711Z" transform="translate(-1042.347 -160.329)" fill="#c8220b"/>
      </g>
      <g id="_47" data-name="47" transform="translate(575.437 51.274)" opacity="0.5">
        <path id="Path_2594" data-name="Path 2594" d="M1008.16,106.573l41.909,15.2,34.31-9.279-44.105-14.581Z" transform="translate(-1008.16 -97.909)" fill="rgba(111,6,1,0.8)"/>
        <path id="Path_2655" data-name="Path 2655" d="M1040.274,97.907l44.106,14.58-34.311,9.279-41.909-15.2Zm-.033,1.232-28.16,7.6,38.04,13.792,30.152-8.154Z" transform="translate(-1008.159 -97.907)" fill="#c8220b"/>
      </g>
      <g id="_56" data-name="56" transform="translate(581.513 126.401)" opacity="0.5">
        <path id="Path_2626" data-name="Path 2626" d="M1019.766,253.122l52.877,21.674,14.275.8,28.747-10.543-60.024-23.7Z" transform="translate(-1019.766 -241.361)" fill="rgba(111,6,1,0.8)"/>
        <path id="Path_2687" data-name="Path 2687" d="M1055.642,241.362l60.023,23.7L1086.919,275.6l-14.275-.8-52.877-21.673Zm-.037,1.255-32.423,10.629,49.726,20.381,13.833.78,25.6-9.391Z" transform="translate(-1019.766 -241.361)" fill="#c8220b"/>
      </g>
      <path id="Path_2578" data-name="Path 2578" d="M1239.145,544.264h0l107.779,54.611-46.666,30.341h0l46.666-30.341Z" transform="translate(-542.737 -259.227)" fill="#19b24b"/>
      <g id="_35" data-name="35" transform="translate(648.044 199.995)" opacity="0.5">
        <path id="Path_2525" data-name="Path 2525" d="M1194.029,384.889h-8.44l-31.558,14.226,88.745,41.123L1277.652,422Z" transform="translate(-1150.243 -383.314)" fill="rgba(0,117,60,0.75)" opacity="0.5"/>
        <path id="Path_2584" data-name="Path 2584" d="M1190.919,381.882h-9.112L1146.8,397.663l92.577,42.9,38.452-20.115Zm48.414,56.925-88.746-41.123,31.557-14.227h8.442l83.623,37.107Z" transform="translate(-1146.798 -381.882)" fill="#19b24b"/>
      </g>
      <g id="_54" data-name="54" transform="translate(626.681 75.325)" opacity="0.5">
        <path id="Path_2619" data-name="Path 2619" d="M1191.483,162.6l-56.689-18.767-28.783,8.08,57.28,19.929Z" transform="translate(-1106.009 -143.833)" fill="rgba(111,6,1,0.8)"/>
        <path id="Path_2680" data-name="Path 2680" d="M1163.288,171.843l-57.279-19.929,28.781-8.081,56.69,18.767Zm.011-1.247,24.406-8-52.944-17.527-24.812,6.967Z" transform="translate(-1106.009 -143.833)" fill="#c8220b"/>
      </g>
      <g id="_57" data-name="57" transform="translate(619.151 115.223)" opacity="0.5">
        <path id="Path_2622" data-name="Path 2622" d="M1091.624,230.619l59.933,23.662,33.091-12.137-60.687-22.128Z" transform="translate(-1091.624 -220.016)" fill="rgba(111,6,1,0.8)"/>
        <path id="Path_2683" data-name="Path 2683" d="M1123.962,220.018l60.685,22.126-33.091,12.137-59.933-23.661Zm-.02,1.25-28.841,9.455,56.471,22.294,29.636-10.87Z" transform="translate(-1091.623 -220.017)" fill="#c8220b"/>
      </g>
      <path id="Path_2575" data-name="Path 2575" d="M1142.313,594.2l0,0,109.223,60.68-51.864,33.807h0l51.869-33.809Z" transform="translate(-496.617 -283.01)" fill="#19b24b"/>
      <path id="Path_2582" data-name="Path 2582" d="M1103.025,414.136l-43.235,17.783,43.235-17.782,91.909,43.121h0Z" transform="translate(-457.313 -197.25)" fill="#19b24b"/>
      <g id="_55" data-name="55" transform="translate(657.495 67.243)" opacity="0.5">
        <path id="Path_2618" data-name="Path 2618" d="M1247.6,146.041,1191.585,128.4l-26.739,7.514,56.545,18.719Z" transform="translate(-1164.846 -128.402)" fill="rgba(111,6,1,0.8)"/>
        <path id="Path_2679" data-name="Path 2679" d="M1221.393,154.635l-56.546-18.72,26.737-7.507,56.013,17.636Zm0-1.244,22.343-7.325-52.171-16.426-22.681,6.368Z" transform="translate(-1164.846 -128.405)" fill="#c8220b"/>
      </g>
      <g id="_34" data-name="34" transform="translate(602.476 216.888)" opacity="0.5">
        <path id="Path_2524" data-name="Path 2524" d="M1102.982,417.422l-39.409,16.209,89.234,45.1,38.558-19.84Zm-43.193,16.062h0l93.022,47.011,42.121-21.671L1152.812,480.5Z" transform="translate(-1059.79 -415.702)" fill="rgba(0,117,60,0.75)" opacity="0.4"/>
        <path id="Path_2583" data-name="Path 2583" d="M1103.024,414.139,1059.79,431.92l93.022,47.011,42.121-21.672Zm49.782,63.024-89.234-45.1,39.409-16.209,88.382,41.466Z" transform="translate(-1059.79 -414.139)" fill="#19b24b"/>
      </g>
      <g id="_39" data-name="39" transform="translate(594.691 311.189)" opacity="0.5">
        <path id="Path_2520" data-name="Path 2520" d="M1095.93,594.2l-51,27.161,51-27.16Zm-.012,1.792-47.833,25.474,105.187,65.354,48.839-31.833Zm-50.984,25.369h0l108.355,67.328h0Z" transform="translate(-1044.933 -594.199)" fill="rgba(254,144,0,0.6)"/>
        <path id="Path_2576" data-name="Path 2576" d="M1095.929,594.2l-51,27.16,108.358,67.327,51.864-33.807L1095.927,594.2m57.343,92.62-105.187-65.354,47.833-25.474,106.193,59Z" transform="translate(-1044.932 -594.199)" fill="#fe9000"/>
      </g>
      <g id="_38" data-name="38" transform="translate(650.287 284.336)" opacity="0.5">
        <path id="Path_2522" data-name="Path 2522" d="M1197.169,544.264l-46.577,24.524,46.579-24.523Zm.018,1.781-43.289,22.79,104.6,58.907,43.766-28.455Zm-46.6,22.743h0l107.962,60.8Z" transform="translate(-1150.592 -544.264)" fill="rgba(0,117,60,0.75)" opacity="0.4"/>
        <path id="Path_2579" data-name="Path 2579" d="M1197.171,544.265l-46.579,24.523,107.964,60.8,46.87-30.474-108.257-54.852m61.329,83.478-104.6-58.907,43.288-22.79,105.076,53.242Z" transform="translate(-1150.592 -544.264)" fill="#19b24b"/>
      </g>
      <g id="_58" data-name="58" transform="translate(653.303 104.583)">
        <path id="Path_2630" data-name="Path 2630" d="M1156.84,209.744l60.589,22.09,30.4-11.146L1187.491,199.7Z" transform="translate(-1156.838 -199.697)" fill="rgba(0,117,60,0.75)"/>
        <path id="Path_2691" data-name="Path 2691" d="M1187.486,199.7l60.334,20.991-30.394,11.147-60.589-22.09Zm-.011,1.246-27.025,8.86,56.976,20.774,26.884-9.859Z" transform="translate(-1156.838 -199.697)" fill="#19b24b"/>
        <text id="_58-2" data-name="58" transform="translate(37.089 19.871)" fill="#fff" font-size="12" font-family="OpenSans-Semibold, Open Sans" font-weight="600"><tspan x="0" y="0">58</tspan></text>
      </g>
      <g id="_85" data-name="85" transform="translate(726.053 133.651)">
        <path id="Path_2647" data-name="Path 2647" d="M1413.385,280.536,1340.571,255.2l-37.748,14.561,74.083,27.35Z" transform="translate(-1302.82 -255.203)" fill="rgba(0,117,60,0.75)"/>
        <path id="Path_2708" data-name="Path 2708" d="M1376.9,297.114l-74.083-27.35,37.75-14.561,72.814,25.333Zm-.045-1.276,33.351-15.156-69.618-24.221-34.426,13.278Z" transform="translate(-1302.821 -255.203)" fill="#19b24b"/>
        <text id="_85-2" data-name="85" transform="translate(46.339 22.802)" fill="#fff" font-size="12" font-family="OpenSans-Semibold, Open Sans" font-weight="600"><tspan x="0" y="0">85</tspan></text>
      </g>
      <g id="_59" data-name="59" transform="translate(685.799 94.717)">
        <path id="Path_2610" data-name="Path 2610" d="M1247.132,180.862l-28.239,9.254,60.233,20.956,28.118-10.316Z" transform="translate(-1218.893 -180.862)" fill="rgba(0,117,60,0.75)"/>
        <path id="Path_2671" data-name="Path 2671" d="M1247.131,180.862l60.112,19.9-28.119,10.312-60.233-20.955Zm0,1.244-24.547,8.047,56.532,19.668,24.543-9Z" transform="translate(-1218.89 -180.861)" fill="#19b24b"/>
        <text id="_59-2" data-name="59" transform="translate(34.593 17.737)" fill="#fff" font-size="12" font-family="OpenSans-Semibold, Open Sans" font-weight="600"><tspan x="0" y="0">59</tspan></text>
      </g>
      <g id="_86" data-name="86" transform="translate(765.504 122.224)">
        <path id="Path_2639" data-name="Path 2639" d="M1406.076,233.385l-27.92,10.769,72.669,25.282,27.037-12.284Z" transform="translate(-1378.155 -233.383)" fill="rgba(0,117,60,0.75)"/>
        <path id="Path_2700" data-name="Path 2700" d="M1406.075,233.384l71.785,23.765-27.038,12.287-72.667-25.283Zm.03,1.255-24.519,9.458,69.179,24.068,23.86-10.843Z" transform="translate(-1378.155 -233.384)" fill="#19b24b"/>
        <text id="_86-2" data-name="86" transform="translate(36.888 19.23)" fill="#fff" font-size="12" font-family="OpenSans-Semibold, Open Sans" font-weight="600"><tspan x="0" y="0">86</tspan></text>
      </g>
      <g id="_60" data-name="60" transform="translate(715.928 85.492)">
        <path id="Path_2611" data-name="Path 2611" d="M1362.608,182.123l-59.936-18.87-26.252,8.607,60,19.866Z" transform="translate(-1276.42 -163.249)" fill="rgba(0,117,60,0.75)"/>
        <path id="Path_2672" data-name="Path 2672" d="M1336.424,191.717l-60.006-19.866,26.254-8.608,59.934,18.871Zm-.02-1.251,22.539-8.266-56.264-17.715-22.486,7.372Z" transform="translate(-1276.417 -163.244)" fill="#19b24b"/>
        <text id="_60-2" data-name="60" transform="translate(29.464 15.961)" fill="#fff" font-size="12" font-family="OpenSans-Semibold, Open Sans" font-weight="600"><tspan x="0" y="0">60</tspan></text>
      </g>
      <g id="_87" data-name="87" transform="translate(795.161 111.526)">
        <path id="Path_2640" data-name="Path 2640" d="M1434.78,222.985l71.632,23.715,25.191-11.448-70.819-22.3Z" transform="translate(-1434.78 -212.956)" fill="rgba(0,117,60,0.75)"/>
        <path id="Path_2701" data-name="Path 2701" d="M1460.783,212.955l70.82,22.3L1506.414,246.7l-71.634-23.714Zm.041,1.251-22.54,8.694,68.062,22.533,21.96-9.98Z" transform="translate(-1434.78 -212.955)" fill="#19b24b"/>
        <text id="_87-2" data-name="87" transform="translate(38.231 18.927)" fill="#fff" font-size="12" font-family="OpenSans-Semibold, Open Sans" font-weight="600"><tspan x="0" y="0">87</tspan></text>
      </g>
      <g id="_61" data-name="61" transform="translate(744.11 76.715)">
        <path id="Path_2615" data-name="Path 2615" d="M1414.718,164.421l-59.643-17.935-24.847,8.146,59.824,18.836Z" transform="translate(-1330.228 -146.486)" fill="rgba(0,117,60,0.75)"/>
        <path id="Path_2676" data-name="Path 2676" d="M1390.053,173.468l-59.823-18.836,24.846-8.146,59.643,17.935Zm-.029-1.248,20.962-7.688-55.9-16.807-21,6.884Z" transform="translate(-1330.23 -146.486)" fill="#19b24b"/>
        <text id="_61-2" data-name="61" transform="translate(31.282 15.738)" fill="#fff" font-size="12" font-family="OpenSans-Semibold, Open Sans" font-weight="600"><tspan x="0" y="0">61</tspan></text>
      </g>
      <g id="_88" data-name="88" transform="translate(824.897 101.386)">
        <path id="Path_3239" data-name="Path 3239" d="M1147.886,149.368l70.618,23.107,23.314-10.854-70.474-21.144Z" transform="translate(-1147.886 -140.477)" fill="rgba(0,117,60,0.75)"/>
        <g id="Path_3245" data-name="Path 3245" transform="translate(-1147.886 -140.477)" fill="none">
          <path d="M1147.886,149.368l70.62,23.193,24.25-10.818-71.412-21.266Z" stroke="none"/>
          <path d="M 1171.401977539063 142.0596160888672 L 1152.385131835938 149.2671661376953 L 1218.424072265625 170.9556579589844 L 1238.4443359375 162.0244140625 L 1171.401977539063 142.0596160888672 M 1171.344360351563 140.4773406982422 L 1242.756225585938 161.7433624267578 L 1218.506225585938 172.5614776611328 L 1147.885864257813 149.3683166503906 L 1171.344360351563 140.4773406982422 Z" stroke="none" fill="#19b24b"/>
        </g>
        <text id="_88-2" data-name="88" transform="translate(37.495 19.067)" fill="#fff" font-size="12" font-family="OpenSans-Semibold, Open Sans" font-weight="600"><tspan x="0" y="0">88</tspan></text>
      </g>
      <g id="_62" data-name="62" transform="translate(770.918 68.682)">
        <path id="Path_2614" data-name="Path 2614" d="M1463.382,148.209l-59.421-17.062-22.54,7.39,59.528,17.9Z" transform="translate(-1381.421 -131.147)" fill="rgba(0,117,60,0.75)"/>
        <path id="Path_2675" data-name="Path 2675" d="M1440.949,156.437l-59.528-17.9,22.542-7.389,59.421,17.062Zm-.038-1.244,18.668-6.847-55.594-15.963-18.624,6.1Z" transform="translate(-1381.421 -131.148)" fill="#19b24b"/>
        <text id="_62-2" data-name="62" transform="translate(31.474 16.772)" fill="#fff" font-size="12" font-family="OpenSans-Semibold, Open Sans" font-weight="600"><tspan x="0" y="0">62</tspan></text>
      </g>
      <g id="_89" data-name="89" transform="translate(850.96 92.078)">
        <path id="Path_3240" data-name="Path 3240" d="M1184,135.983l69.568,21.011,21.9-9.533-69.758-19.88Z" transform="translate(-1183.998 -127.581)" fill="rgba(0,117,60,0.75)"/>
        <g id="Path_3246" data-name="Path 3246" transform="translate(-1183.998 -127.581)" fill="none">
          <path d="M1184,135.983l70.622,21.3,20.838-9.874-69.752-19.828Z" stroke="none"/>
          <path d="M 1205.778686523438 129.1607666015625 L 1188.608276367188 135.8066711425781 L 1254.499877929688 155.6803741455078 L 1271.211669921875 147.7612762451172 L 1205.778686523438 129.1607666015625 M 1205.705688476563 127.5805816650391 L 1275.4580078125 147.4089508056641 L 1254.619995117188 157.2833557128906 L 1183.997680664063 135.9828033447266 L 1205.705688476563 127.5805816650391 Z" stroke="none" fill="#19b24b"/>
        </g>
        <text id="_89-2" data-name="89" transform="translate(35.432 17.375)" fill="#fff" font-size="12" font-family="OpenSans-Semibold, Open Sans" font-weight="600"><tspan x="0" y="0">89</tspan></text>
      </g>
      <g id="_63" data-name="63" transform="translate(795.455 61.053)">
        <path id="Path_2629" data-name="Path 2629" d="M1508.765,132.813l-59.221-16.23-21.269,6.973,59.3,17.028Z" transform="translate(-1428.275 -116.583)" fill="rgba(0,117,60,0.75)"/>
        <path id="Path_2690" data-name="Path 2690" d="M1487.578,140.583l-59.3-17.029,21.268-6.973,59.222,16.23Zm-.044-1.242,17.357-6.366-55.318-15.16L1432.3,123.48Z" transform="translate(-1428.273 -116.582)" fill="#19b24b"/>
        <text id="_63-2" data-name="63" transform="translate(29.937 15.4)" fill="#fff" font-size="12" font-family="OpenSans-Semibold, Open Sans" font-weight="600"><tspan x="0" y="0">63</tspan></text>
      </g>
      <g id="_90" data-name="90" transform="translate(875.318 83.151)">
        <path id="Path_3235" data-name="Path 3235" d="M5527.748-2537.229l68.523,20.022,18.759-9.156-66.808-18.424Z" transform="translate(-5527.748 2544.788)" fill="rgba(0,117,60,0.75)"/>
        <g id="Path_3241" data-name="Path 3241" transform="translate(-5527.748 2544.788)" fill="none">
          <path d="M5527.748-2537.229l68.9,20.211,18.876-9.25-67.3-18.519Z" stroke="none"/>
          <path d="M 5548.2890625 -2543.21337890625 L 5532.52099609375 -2537.392578125 L 5596.5107421875 -2518.6220703125 L 5611.3076171875 -2525.873291015625 L 5548.2890625 -2543.21337890625 M 5548.22216796875 -2544.78759765625 L 5615.52392578125 -2526.268798828125 L 5596.6474609375 -2517.018798828125 L 5527.748046875 -2537.2294921875 L 5548.22216796875 -2544.78759765625 Z" stroke="none" fill="#19b24b"/>
        </g>
        <text id="_90-2" data-name="90" transform="translate(33.074 16.302)" fill="#fff" font-size="12" font-family="OpenSans-Semibold, Open Sans" font-weight="600"><tspan x="0" y="0">90</tspan></text>
      </g>
      <g id="_64" data-name="64" transform="translate(818.753 53.625)">
        <path id="Path_2616" data-name="Path 2616" d="M1552.069,117.945,1493.394,102.4l-20.633,6.763,59.1,16.2Z" transform="translate(-1472.761 -102.397)" fill="rgba(0,117,60,0.75)"/>
        <path id="Path_2677" data-name="Path 2677" d="M1531.868,125.356l-59.1-16.2L1493.4,102.4l58.674,15.548Zm-.052-1.239,16.33-5.99-54.712-14.5-16.563,5.43Z" transform="translate(-1472.763 -102.397)" fill="#19b24b"/>
        <text id="_64-2" data-name="64" transform="translate(28.639 14.828)" fill="#fff" font-size="12" font-family="OpenSans-Semibold, Open Sans" font-weight="600"><tspan x="0" y="0">64</tspan></text>
      </g>
      <g id="_91" data-name="91" transform="translate(898.35 74.661)">
        <path id="Path_3236" data-name="Path 3236" d="M5559.66-2549.187l67.2,18.7,18.028-8.495-66.571-17.571Z" transform="translate(-5559.66 2556.553)" fill="rgba(0,117,60,0.75)"/>
        <g id="Path_3242" data-name="Path 3242" transform="translate(-5559.66 2556.553)" fill="none">
          <path d="M5559.66-2549.187l67.481,18.794,18.217-8.684-67.042-17.477Z" stroke="none"/>
          <path d="M 5578.41162109375 -2554.978271484375 L 5564.3671875 -2549.4326171875 L 5627.0029296875 -2531.98828125 L 5641.00244140625 -2538.661865234375 L 5578.41162109375 -2554.978271484375 M 5578.31591796875 -2556.55322265625 L 5645.3583984375 -2539.07666015625 L 5627.1416015625 -2530.392578125 L 5559.66015625 -2549.1865234375 L 5578.31591796875 -2556.55322265625 Z" stroke="none" fill="#19b24b"/>
        </g>
        <text id="_91-2" data-name="91" transform="translate(32.042 15.793)" fill="#fff" font-size="12" font-family="OpenSans-Semibold, Open Sans" font-weight="600"><tspan x="0" y="0">91</tspan></text>
      </g>
      <g id="_65" data-name="65" transform="translate(841.039 46.574)">
        <path id="Path_3231" data-name="Path 3231" d="M1552.05,117.964,1489.872,103.8l-18.529,5.773,60.5,15.8Z" transform="translate(-1471.343 -103.259)" fill="rgba(0,117,60,0.75)"/>
        <path id="Path_3232" data-name="Path 3232" d="M1531.868,125.367l-59.1-16.2,18.1-5.919,61.2,14.705Zm-.052-1.239,16.33-5.99L1490.868,104.5l-14,4.571Z" transform="translate(-1471.364 -103.252)" fill="#19b24b"/>
        <text id="_65-2" data-name="65" transform="translate(28.353 13.879)" fill="#fff" font-size="12" font-family="OpenSans-Semibold, Open Sans" font-weight="600"><tspan x="0" y="0">65</tspan></text>
      </g>
      <g id="_92" data-name="92" transform="translate(920.347 66.863)">
        <path id="Path_3237" data-name="Path 3237" d="M5590.139-2560.654l64.457,17.438,17.368-7.551-64.643-16.591Z" transform="translate(-5590.139 2567.358)" fill="rgba(0,117,60,0.75)"/>
        <g id="Path_3243" data-name="Path 3243" transform="translate(-5590.139 2567.358)" fill="none">
          <path d="M5590.139-2560.654l65.023,17.628,16.707-7.646-64.548-16.686Z" stroke="none"/>
          <path d="M 5607.41455078125 -2565.7841796875 L 5594.92431640625 -2560.9111328125 L 5655.03125 -2544.6162109375 L 5667.40185546875 -2550.277587890625 L 5607.41455078125 -2565.7841796875 M 5607.32080078125 -2567.357666015625 L 5671.86865234375 -2550.672119140625 L 5655.162109375 -2543.026611328125 L 5590.13916015625 -2560.654296875 L 5607.32080078125 -2567.357666015625 Z" stroke="none" fill="#19b24b"/>
        </g>
        <text id="_92-2" data-name="92" transform="translate(30.045 15.591)" fill="#fff" font-size="12" font-family="OpenSans-Semibold, Open Sans" font-weight="600"><tspan x="0" y="0">92</tspan></text>
      </g>
      <g id="_66" data-name="66" transform="translate(863.628 39.176)">
        <path id="Path_3233" data-name="Path 3233" d="M1540.87,118.489l-57.1-13.2-16.32,5.488,61.184,13.719Z" transform="translate(-1467.237 -103.776)" fill="rgba(0,117,60,0.75)"/>
        <path id="Path_3234" data-name="Path 3234" d="M1527.2,125.407l-59.961-14.794,19.005-5.772,58.889,13.381Zm0-1.394,13.4-5.347L1486.24,105.8l-15.676,4.6Z" transform="translate(-1467.235 -103.77)" fill="#19b24b"/>
        <text id="_66-2" data-name="66" transform="translate(25.763 13.277)" fill="#fff" font-size="12" font-family="OpenSans-Semibold, Open Sans" font-weight="600"><tspan x="0" y="0">66</tspan></text>
      </g>
      <g id="_93" data-name="93" transform="translate(939.91 60.279)">
        <path id="Path_3238" data-name="Path 3238" d="M5617.245-2570.885l63.867,16.26,18.027-8.683-57.976-12.728-9.788-.442Z" transform="translate(-5617.245 2576.479)" fill="rgba(0,117,60,0.75)"/>
        <g id="Path_3244" data-name="Path 3244" transform="translate(-5617.245 2576.479)" fill="none">
          <path d="M5617.245-2570.885l63.96,16.166,17.556-8.684-57.6-12.634-9.788-.442Z" stroke="none"/>
          <path d="M 5631.6279296875 -2574.9658203125 L 5622.11767578125 -2571.201171875 L 5681.03662109375 -2556.309814453125 L 5694.2666015625 -2562.853759765625 L 5640.966796875 -2574.54443359375 L 5631.6279296875 -2574.9658203125 M 5631.37451171875 -2576.478759765625 L 5641.16259765625 -2576.037109375 L 5698.76123046875 -2563.403564453125 L 5681.20556640625 -2554.719970703125 L 5617.2451171875 -2570.885498046875 L 5631.37451171875 -2576.478759765625 Z" stroke="none" fill="#19b24b"/>
        </g>
        <text id="_93-2" data-name="93" transform="translate(31.482 13.174)" fill="#fff" font-size="12" font-family="OpenSans-Semibold, Open Sans" font-weight="600"><tspan x="0" y="0">93</tspan></text>
      </g>
    </g>
    <g id="_78" data-name="78" transform="translate(256.838 222.989)">
      <path id="Path_2601" data-name="Path 2601" d="M1373.791,37.569l15.676-4.239-2.21-2.811-45.2-10.738-18.669,5.033Z" transform="translate(-1323.384 -19.78)" fill="rgba(0,117,60,0.75)" opacity="0.5"/>
      <path id="Path_2662" data-name="Path 2662" d="M1373.79,37.57l-50.406-12.752,18.669-5.037,45.2,10.738,2.209,2.811Zm-.009-1.22,13.657-3.693-.853-1.086L1342.071,21l-14.023,3.783Z" transform="translate(-1323.384 -19.781)" fill="#19b24b"/>
    </g>
    <g id="_69" data-name="69" transform="translate(279.331 251.682)">
      <path id="Path_2609" data-name="Path 2609" d="M1440.536,88.6l-52.689-13.962-21.452,6.023,53.576,14.682Z" transform="translate(-1366.393 -74.639)" fill="rgba(0,117,60,0.75)" opacity="0.5"/>
      <path id="Path_2670" data-name="Path 2670" d="M1419.963,95.345l-53.576-14.682,21.453-6.024L1440.532,88.6Zm-.029-1.232,16.446-5.391-48.53-12.86L1370.8,80.649Z" transform="translate(-1366.388 -74.639)" fill="#19b24b"/>
    </g>
    <g id="_68" data-name="68" transform="translate(303.021 245.725)">
      <path id="Path_2621" data-name="Path 2621" d="M1430.657,63.252,1411.68,68.58,1464.2,82.5l18.523-6.072Z" transform="translate(-1411.68 -63.251)" fill="rgba(0,117,60,0.75)" opacity="0.5"/>
      <path id="Path_2682" data-name="Path 2682" d="M1430.657,63.252l52.062,13.171L1464.2,82.5,1411.68,68.58Zm.016,1.221-14.511,4.074,48,12.719,14.327-4.7Z" transform="translate(-1411.68 -63.252)" fill="#19b24b"/>
    </g>
    <g id="_67" data-name="67" transform="translate(324.273 240.954)">
      <path id="Path_2623" data-name="Path 2623" d="M1522.193,65.483l-45.524-11.154-9.638-.2-14.709,4.129L1504.2,71.381Z" transform="translate(-1452.32 -54.128)" fill="rgba(0,117,60,0.75)" opacity="0.5"/>
      <path id="Path_2684" data-name="Path 2684" d="M1504.2,71.386l-51.878-13.124,14.709-4.13,9.637.2,45.524,11.154Zm-.042-1.227,13.749-4.507L1476.514,55.51l-9.332-.194L1456.9,58.2Z" transform="translate(-1452.323 -54.13)" fill="#19b24b"/>
    </g>
    <g id="_70" data-name="70" transform="translate(255.41 258.323)">
      <path id="Path_2625" data-name="Path 2625" d="M1396.118,102.069,1342.37,87.339l-21.715,6.1,54.267,15.582Z" transform="translate(-1320.656 -87.339)" fill="rgba(0,117,60,0.75)" opacity="0.5"/>
      <path id="Path_2686" data-name="Path 2686" d="M1374.923,109.017l-54.266-15.581,21.715-6.1,53.748,14.73Zm-.023-1.233,17.124-5.614-49.648-13.607-17.4,4.885Z" transform="translate(-1320.654 -87.339)" fill="#19b24b"/>
    </g>
    <g id="_84" data-name="84" transform="translate(84.642 242.113)">
      <path id="Path_2602" data-name="Path 2602" d="M1063.264,68.845l-40.711-12.5-28.409,7.471,39.436,13.037Z" transform="translate(-994.144 -56.347)" fill="rgba(0,117,60,0.75)" opacity="0.5"/>
      <path id="Path_2663" data-name="Path 2663" d="M1033.581,76.852,994.144,63.816l28.409-7.47,40.71,12.5Zm.034-1.231,25.391-6.85-36.478-11.2-24.235,6.372Z" transform="translate(-994.144 -56.346)" fill="#19b24b"/>
    </g>
    <g id="_79" data-name="79" transform="translate(210.867 212.646)">
      <path id="Path_2589" data-name="Path 2589" d="M1297.716,9.773,1256.963.092,1249.757,0l-14.27,3.753,43.631,11.038Z" transform="translate(-1235.488 0)" fill="rgba(0,117,60,0.75)" opacity="0.5"/>
      <path id="Path_2650" data-name="Path 2650" d="M1279.123,14.792,1235.491,3.754,1249.761,0l7.205.092,40.754,9.68Zm-.008-1.22,13.808-3.725-36.1-8.575-6.917-.088-9.691,2.548Z" transform="translate(-1235.491 -0.001)" fill="#19b24b"/>
    </g>
    <g id="_80" data-name="80" transform="translate(191.476 217.017)">
      <path id="Path_2592" data-name="Path 2592" d="M1259.116,19.406,1215.452,8.36l-17.037,4.482,42.9,11.368Z" transform="translate(-1198.412 -8.36)" fill="rgba(0,117,60,0.75)" opacity="0.5"/>
      <path id="Path_2653" data-name="Path 2653" d="M1241.309,24.207l-42.9-11.368,17.035-4.48,43.662,11.045Zm0-1.221,13.136-3.544-38.992-9.864-12.42,3.266Z" transform="translate(-1198.41 -8.36)" fill="#19b24b"/>
    </g>
    <g id="_75" data-name="75" transform="translate(186.574 240.557)">
      <path id="Path_2598" data-name="Path 2598" d="M1189.046,59.792l47.427,13.6,25.032-6.769-48.641-13.26Z" transform="translate(-1189.041 -53.367)" fill="rgba(0,117,60,0.75)" opacity="0.5"/>
      <path id="Path_2659" data-name="Path 2659" d="M1212.864,53.366l48.641,13.26L1236.474,73.4l-47.429-13.6Zm0,1.222-19.418,5.238,43.039,12.344L1257,66.622Z" transform="translate(-1189.045 -53.366)" fill="#19b24b"/>
    </g>
    <g id="_76" data-name="76" transform="translate(212.648 234.085)">
      <path id="Path_2608" data-name="Path 2608" d="M1238.9,46.857l48.638,13.259,22.393-6.055L1260.619,41Z" transform="translate(-1238.895 -40.995)" fill="rgba(0,117,60,0.75)" opacity="0.5"/>
      <path id="Path_2669" data-name="Path 2669" d="M1260.623,41l49.305,13.065-22.395,6.056L1238.9,46.858Zm0,1.221L1243.4,46.864l44.132,12.03,17.832-4.822Z" transform="translate(-1238.896 -40.995)" fill="#19b24b"/>
    </g>
    <g id="_72" data-name="72" transform="translate(202.7 272.084)">
      <path id="Path_2627" data-name="Path 2627" d="M1300.427,130.228l-55.137-16.581-25.417,7.136,55.784,17.564Z" transform="translate(-1219.873 -113.648)" fill="rgba(0,117,60,0.75)" opacity="0.5"/>
      <path id="Path_2688" data-name="Path 2688" d="M1275.658,138.349l-55.785-17.564,25.418-7.136,55.137,16.58Zm-.006-1.239,20.842-6.833-51.214-15.4-21.274,5.973Z" transform="translate(-1219.873 -113.648)" fill="#19b24b"/>
    </g>
    <g id="_77" data-name="77" transform="translate(236.663 228.654)">
      <path id="Path_2607" data-name="Path 2607" d="M1302.654,30.61,1284.8,35.426l49.3,13.065,18.958-5.128Z" transform="translate(-1284.802 -30.61)" fill="rgba(0,117,60,0.75)" opacity="0.5"/>
      <path id="Path_2668" data-name="Path 2668" d="M1302.655,30.61l50.409,12.753-18.958,5.127-49.3-13.064Zm.01,1.22-13.293,3.586L1334.1,47.269l14.3-3.868Z" transform="translate(-1284.802 -30.61)" fill="#19b24b"/>
    </g>
    <g id="_71" data-name="71" transform="translate(230.236 265.027)">
      <path id="Path_2613" data-name="Path 2613" d="M1349.969,115.785l-54.431-15.629-23.016,6.462,54.979,16.533Z" transform="translate(-1272.523 -100.156)" fill="rgba(0,117,60,0.75)" opacity="0.5"/>
      <path id="Path_2674" data-name="Path 2674" d="M1327.5,123.151l-54.977-16.533,23.014-6.462,54.431,15.629Zm-.014-1.236,18.467-6.055-50.421-14.477-18.786,5.274Z" transform="translate(-1272.522 -100.155)" fill="#19b24b"/>
    </g>
    <g id="_82" data-name="82" transform="translate(142.562 228.32)">
      <path id="Path_2590" data-name="Path 2590" d="M1170.464,41.6,1127.84,29.979l-22.954,6.035,41.821,11.995Z" transform="translate(-1104.887 -29.974)" fill="rgba(0,117,60,0.75)" opacity="0.5"/>
      <path id="Path_2651" data-name="Path 2651" d="M1146.707,48l-41.821-11.995,22.955-6.036,42.627,11.621Zm.01-1.224,19.244-5.191-38.125-10.393-18.5,4.863Z" transform="translate(-1104.885 -29.973)" fill="#19b24b"/>
    </g>
    <g id="_81" data-name="81" transform="translate(167.798 222.104)">
      <path id="Path_2591" data-name="Path 2591" d="M1217.437,29.462l-42.93-11.376L1153.144,23.7l42.6,11.613Z" transform="translate(-1153.141 -18.086)" fill="rgba(0,117,60,0.75)" opacity="0.5"/>
      <path id="Path_2652" data-name="Path 2652" d="M1195.74,35.316l-42.6-11.612,21.364-5.617,42.93,11.376Zm0-1.222,17.129-4.62L1174.5,19.307l-16.8,4.417Z" transform="translate(-1153.142 -18.087)" fill="#19b24b"/>
    </g>
    <g id="_73" data-name="73" transform="translate(126.112 255.262)">
      <path id="Path_2596" data-name="Path 2596" d="M1073.437,89.515l44.044,14.56,31.535-8.528-45.809-14.062Z" transform="translate(-1073.437 -81.485)" fill="rgba(0,117,60,0.75)" opacity="0.5"/>
      <path id="Path_2657" data-name="Path 2657" d="M1103.2,81.486l45.808,14.062-31.532,8.528-44.042-14.56Zm-.021,1.227-25.641,6.917,39.972,13.214,27.245-7.368Z" transform="translate(-1073.437 -81.486)" fill="#19b24b"/>
    </g>
    <g id="_74" data-name="74" transform="translate(158.018 247.575)">
      <path id="Path_2599" data-name="Path 2599" d="M1134.441,73.9l45.806,14.062,27.98-7.567-47.432-13.6Z" transform="translate(-1134.441 -66.788)" fill="rgba(0,117,60,0.75)" opacity="0.5"/>
      <path id="Path_2660" data-name="Path 2660" d="M1160.8,66.79l47.431,13.6-27.98,7.567L1134.441,73.9Zm-.01,1.224L1138.7,73.972l41.569,12.761,23.563-6.373Z" transform="translate(-1134.44 -66.788)" fill="#19b24b"/>
    </g>
    <g id="_83" data-name="83" transform="translate(115.213 234.943)">
      <path id="Path_2600" data-name="Path 2600" d="M1119.562,54.638l-41.847-12L1052.6,49.24l40.686,12.489Z" transform="translate(-1052.599 -42.634)" fill="rgba(0,117,60,0.75)" opacity="0.5"/>
      <path id="Path_2661" data-name="Path 2661" d="M1093.286,61.726,1052.6,49.236l25.115-6.6,41.848,12Zm.02-1.228,21.858-5.9L1077.7,43.858l-20.8,5.466Z" transform="translate(-1052.599 -42.634)" fill="#19b24b"/>
    </g>
  </g>
</svg>
