<svg xmlns="http://www.w3.org/2000/svg" xmlns:xlink="http://www.w3.org/1999/xlink" width="768" height="440" viewBox="0 0 768 440">
  <defs>
    <clipPath id="clip-path">
      <path id="Path_3283" data-name="Path 3283" d="M0,0H768V440H0Z" transform="translate(-7 -58.89)" fill="#fff" stroke="#707070" stroke-width="1"/>
    </clipPath>
  </defs>
  <g id="Mask_Group_1100" data-name="Mask Group 1100" transform="translate(7 58.89)" clip-path="url(#clip-path)">
    <g id="Group_2076" data-name="Group 2076" transform="translate(-491.356 219.483)">
      <g id="Group_2073" data-name="Group 2073" transform="translate(0 0)">
        <path id="Path_2620" data-name="Path 2620" d="M1578.68,112.567l19.84-7.276-62.55-15.826L1516.1,95.981Z" transform="translate(-616.741 35.525)" fill="#be4c84" opacity="0"/>
        <path id="Path_2624" data-name="Path 2624" d="M1618,98.972l15.873-5.822-2.149-2.364-56.84-13.927-19.293,6.325Z" transform="translate(-634.126 41.074)" fill="#be4c84" opacity="0"/>
        <path id="Path_2636" data-name="Path 2636" d="M1520,292.957l88.6,30.826,27.527-15.112-87.193-28.866Z" transform="translate(-618.459 -48.256)" fill="#be4c84" opacity="0"/>
        <path id="Path_2638" data-name="Path 2638" d="M1574.714,268.8l87.009,28.805,25.645-14.079-85.695-26.981Z" transform="translate(-642.542 -38.016)" fill="#be4c84" opacity="0"/>
        <path id="Path_2642" data-name="Path 2642" d="M1583.911,167.769l73.373,21.067,21.667-9.849L1606.38,159.1Z" transform="translate(-646.591 4.874)" fill="#be4c84" opacity="0"/>
        <path id="Path_2643" data-name="Path 2643" d="M1447.285,322.392l90.746,33.5,37.077-20.355-88.781-30.888Z" transform="translate(-586.453 -59.192)" fill="#be4c84" opacity="0"/>
        <path id="Path_2644" data-name="Path 2644" d="M1487.807,203.726l75.536,23.781,25.177-11.441-74.571-22.424Z" transform="translate(-604.29 -10.33)" fill="#be4c84" opacity="0"/>
        <path id="Path_2646" data-name="Path 2646" d="M1537.93,185.107l74.4,22.371,22.948-10.428-73.553-21.119Z" transform="translate(-626.351 -2.534)" fill="#be4c84" opacity="0"/>
        <path id="Path_2681" data-name="Path 2681" d="M1578.68,112.57l-62.588-16.584,19.876-6.515,62.55,15.823Zm-.062-1.322,15.629-5.732-58.232-14.732-15.475,5.073Z" transform="translate(-616.74 35.522)" fill="#be4c84" opacity="0"/>
        <path id="Path_2685" data-name="Path 2685" d="M1618.009,98.972,1555.6,83.184l19.294-6.325,56.84,13.927,2.149,2.364Zm-.069-1.32,13.746-5.041-.628-.69-56.116-13.749-14.812,4.856Z" transform="translate(-634.128 41.073)" fill="#be4c84" opacity="0"/>
        <path id="Path_2697" data-name="Path 2697" d="M1548.937,279.807l87.193,28.866L1608.6,323.784,1520,292.958Zm.074,1.354L1523.393,292.8l85.094,29.605,24.5-13.447Z" transform="translate(-618.458 -48.256)" fill="#be4c84" opacity="0"/>
        <path id="Path_2699" data-name="Path 2699" d="M1601.677,256.544l85.692,26.98L1661.724,297.6l-87.01-28.8Zm.082,1.35-23.588,10.719,83.427,27.619,22.571-12.391Z" transform="translate(-642.542 -38.017)" fill="#be4c84" opacity="0"/>
        <path id="Path_2703" data-name="Path 2703" d="M1606.38,159.1l72.571,19.887-21.667,9.847-73.372-21.067Zm.068,1.328-18.572,7.163,69.309,19.9,18.064-8.209Z" transform="translate(-646.59 4.872)" fill="#be4c84" opacity="0"/>
        <path id="Path_2704" data-name="Path 2704" d="M1486.327,304.65l88.781,30.888-37.077,20.355-90.745-33.5Zm.063,1.358L1450.6,322.27l87.324,32.239,34.082-18.713Z" transform="translate(-586.454 -59.191)" fill="#be4c84" opacity="0"/>
        <path id="Path_2705" data-name="Path 2705" d="M1513.949,193.644l74.572,22.424-25.176,11.44-75.535-23.781Zm.051,1.334-22.369,8.628,71.632,22.553,21.674-9.85Z" transform="translate(-604.291 -10.331)" fill="#be4c84" opacity="0"/>
        <path id="Path_2707" data-name="Path 2707" d="M1561.72,175.93l73.553,21.119-22.948,10.429-74.4-22.371Zm.059,1.33-19.957,7.7,70.412,21.174,19.4-8.815Z" transform="translate(-626.351 -2.534)" fill="#be4c84" opacity="0"/>
        <path id="Path_2631" data-name="Path 2631" d="M1718.311,205.422l82.487,23.685,20.519-11.265-81.3-22.282Z" transform="translate(-705.748 -11.174)" fill="#be4c84" opacity="0"/>
        <path id="Path_2632" data-name="Path 2632" d="M1760.28,186.884l81.1,22.223,18.751-10.3L1780.478,177.7Z" transform="translate(-724.222 -3.315)" fill="#be4c84" opacity="0"/>
        <path id="Path_2634" data-name="Path 2634" d="M1674.1,225.056l83.927,25.237,21.739-11.936-82.689-23.743Z" transform="translate(-686.29 -19.56)" fill="#be4c84" opacity="0"/>
        <path id="Path_2635" data-name="Path 2635" d="M1795.5,132.188l-62.938-15.482-10.532.2-14.015,5.405,70.165,17.75Z" transform="translate(-701.218 23.534)" fill="#be4c84" opacity="0"/>
        <path id="Path_2637" data-name="Path 2637" d="M1625.951,246.14l85.5,26.92,23.823-13.081-84.119-25.295Z" transform="translate(-665.095 -28.396)" fill="#be4c84" opacity="0"/>
        <path id="Path_2648" data-name="Path 2648" d="M1627.59,151.281l72.383,19.836,20.173-9.168-71.26-18.882Z" transform="translate(-665.816 11.93)" fill="#be4c84" opacity="0"/>
        <path id="Path_2649" data-name="Path 2649" d="M1740.283,154.546l18.979-8.625-70.363-17.8-19.684,7.593Z" transform="translate(-684.138 18.51)" fill="#be4c84" opacity="0"/>
        <path id="Path_2692" data-name="Path 2692" d="M1740.009,195.561l81.306,22.282L1800.8,229.107l-82.488-23.685Zm.109,1.338-18.166,8.255,78.694,22.6,17.33-9.513Z" transform="translate(-705.746 -11.174)" fill="#be4c84" opacity="0"/>
        <path id="Path_2693" data-name="Path 2693" d="M1780.479,177.708l79.656,21.107-18.753,10.3-81.1-22.225Zm.112,1.336-16.608,7.548,77.239,21.167,15.538-8.531Z" transform="translate(-724.218 -3.317)" fill="#be4c84" opacity="0"/>
        <path id="Path_2696" data-name="Path 2696" d="M1778.182,140.061l-70.164-17.75,14.015-5.4,10.533-.2L1795.5,132.19Zm-.119-1.332,13.6-6.182-59.243-14.573-10.144.19-10.1,3.9Z" transform="translate(-701.218 23.533)" fill="#be4c84" opacity="0"/>
        <path id="Path_2698" data-name="Path 2698" d="M1651.16,234.685l84.12,25.295-23.826,13.081-85.5-26.921Zm.09,1.346-21.776,9.9,81.843,25.769,20.714-11.373Z" transform="translate(-665.095 -28.396)" fill="#be4c84" opacity="0"/>
        <path id="Path_2709" data-name="Path 2709" d="M1648.886,143.066l71.26,18.882-20.173,9.168L1627.59,151.28Zm.072,1.325-17.332,6.685,68.24,18.7,16.536-7.515Z" transform="translate(-665.816 11.932)" fill="#be4c84" opacity="0"/>
        <path id="Path_2710" data-name="Path 2710" d="M1740.282,154.544l-71.067-18.832,19.684-7.592,70.363,17.8Zm-.111-1.336,15.289-6.948-66.48-16.818L1673.3,135.49Z" transform="translate(-684.141 18.51)" fill="#be4c84" opacity="0"/>
        <path id="Plac_zabaw_i_basen" data-name="Plac zabaw i basen" d="M1249.161,280.249l-29.208,10.621-7.021-.9-30.393,14.417,1.932,8.208,17.62,8.688,19.552,1.69,139.037,63.484,22.451,1.207,64.428-34.251L1251.382,281Z" transform="translate(-382.146 -104.04)" fill="#be4c84" opacity="0"/>
        <path id="Path_2694" data-name="Path 2694" d="M1249.161,280.248l2.226.743,196.171,72.423-64.429,34.25-22.449-1.207-139.037-63.484-19.552-1.69-17.621-8.689-1.93-8.207,30.394-14.416,7.02.9Zm.019,1.5L1220.438,292.2l-.322.119-.342-.044-6.609-.847-28.983,13.748,1.517,6.441,16.781,8.276,19.286,1.666.244.022.222.1,138.794,63.373,21.786,1.171,61.285-32.579-193.18-71.32Z" transform="translate(-382.147 -104.039)" fill="#be4c84" opacity="0"/>
        <path id="Path_2641" data-name="Path 2641" d="M1799.6,167.959,1865.42,185.4l14.879-8.169-64.946-16.43Z" transform="translate(-902.879 123.283)" fill="#be4c84" opacity="0"/>
        <path id="Path_2645" data-name="Path 2645" d="M1901.613,168.145l11.019-6.05-4.452-2.849-56.969-14.014-14.365,6.528Z" transform="translate(-922.851 131.631)" fill="#be4c84" opacity="0"/>
        <path id="Path_2702" data-name="Path 2702" d="M1815.352,160.8l64.946,16.43L1865.42,185.4l-65.818-17.44Zm.1,1.1L1802.7,167.7l62.579,16.582,12.182-6.688Z" transform="translate(-902.879 123.283)" fill="#be4c84" opacity="0"/>
        <path id="Path_2706" data-name="Path 2706" d="M1901.614,168.144l-64.766-16.385,14.365-6.529,56.97,14.014,4.452,2.849Zm-.143-1.115,9.116-5.005-2.821-1.805-56.449-13.885L1840,151.477Z" transform="translate(-922.851 131.631)" fill="#be4c84" opacity="0"/>
        <path id="Path_2585" data-name="Path 2585" d="M1296.332,500.1,1246.5,526.256l49.835-26.157,127.405,58.855h0Z" transform="translate(-405.889 -185.656)" fill="#19b24b"/>
        <path id="Path_2587" data-name="Path 2587" d="M1331.495,497.229l126.954,59.531,37.658-25.255,0,0-37.656,25.254Z" transform="translate(-437.442 -184.59)" fill="#19b24b"/>
        <g id="_36" data-name="36" transform="translate(894.052 288.958)" opacity="0.5">
          <path id="Path_2527" data-name="Path 2527" d="M1377.044,459.567l-45.55,23.681,45.55-23.677,112.522,48.256,6.539,9.7h0l-6.54-9.7Zm.077,2.095-41.359,21.5,122.521,57.454,35.2-23.605-5.171-7.663Z" transform="translate(-1331.494 -459.567)" fill="rgba(0,117,60,0.75)" opacity="0.4"/>
          <path id="Path_2588" data-name="Path 2588" d="M1377.044,459.572l-45.55,23.677,126.954,59.527,37.657-25.254-6.539-9.695Zm81.238,81.043-122.521-57.453,41.359-21.5,111.188,47.684,5.171,7.663Z" transform="translate(-1331.494 -459.569)" fill="#19b24b"/>
        </g>
        <g id="_37" data-name="37" transform="translate(840.607 314.444)" opacity="0.5">
          <path id="Path_2526" data-name="Path 2526" d="M1296.384,503.449l-45.777,24.028,123.18,63.008,46.052-30.006ZM1246.5,527.5h0L1373.9,592.669l49.835-32.471L1373.9,592.669Z" transform="translate(-1246.497 -501.343)" fill="rgba(0,117,60,0.75)" opacity="0.4"/>
          <path id="Path_2586" data-name="Path 2586" d="M1296.332,500.1,1246.5,526.257,1373.9,591.425l49.835-32.472Zm77.457,89.142-123.181-63.008,45.779-24.028,123.455,57.03Z" transform="translate(-1246.497 -500.1)" fill="#19b24b"/>
        </g>
        <path id="Path_2567" data-name="Path 2567" d="M890.456,247.29,842.81,261.632l47.647-14.34,73.458,32.667h0Z" transform="translate(-256.029 -91.805)" fill="#19b24b"/>
        <path id="Path_2571" data-name="Path 2571" d="M745.691,392.1l-60.763,20.938L745.691,392.1l88.987,49.573Z" transform="translate(-197.418 -145.564)" fill="#19b24b"/>
        <path id="Path_2573" data-name="Path 2573" d="M859.894,534.246l0,0,110.081,67.515,63.511-32.556,0,0-63.508,32.554Z" transform="translate(-262.369 -198.332)" fill="#19b24b"/>
        <path id="Path_2580" data-name="Path 2580" d="M881.478,358.2h0l89.73,44.866,50.723-20.836L971.206,403.06l-89.73-44.866" transform="translate(-270.383 -132.976)" fill="#19b24b"/>
        <g id="_20" data-name="20" transform="translate(533.183 170.735)" opacity="0.5">
          <path id="Path_2483" data-name="Path 2483" d="M809.3,274.756l-43.689,13.2L834.45,322.9l45.7-15.232Z" transform="translate(-760.552 -272.736)" fill="rgba(111,6,1,0.8)"/>
          <path id="Path_3135" data-name="Path 3135" d="M806.456,271.545l-48.89,14.774,73.747,37.429,50.96-16.987Zm25.008,50.16-68.842-34.938,43.69-13.2,70.849,32.908Z" transform="translate(-757.566 -271.545)" fill="#c8220b"/>
        </g>
        <g id="_21" data-name="21" transform="translate(586.781 155.487)" opacity="0.5">
          <path id="Path_2516" data-name="Path 2516" d="M890.329,250.492l-42.206,12.7,69.519,32.166,41.151-14.425ZM842.81,262.82h0l74.735,34.58,46.37-16.253L917.545,297.4Z" transform="translate(-842.81 -248.48)" fill="rgba(111,6,1,0.8)"/>
          <path id="Path_2568" data-name="Path 2568" d="M890.457,247.292l-47.647,14.34,74.735,34.58,46.369-16.254Zm27.185,46.882-69.52-32.166,42.205-12.7,68.465,30.445Z" transform="translate(-842.81 -247.292)" fill="#c8220b"/>
        </g>
        <g id="_46" data-name="46" transform="translate(642.991 45.067)" opacity="0.5">
          <path id="Path_2606" data-name="Path 2606" d="M1016.075,87.361,968.637,71.68l-36.429,9.577L977.643,97.73Z" transform="translate(-932.206 -71.679)" fill="rgba(111,6,1,0.8)"/>
          <path id="Path_2667" data-name="Path 2667" d="M977.641,97.729,932.206,81.257l36.43-9.578,47.439,15.683Zm.063-1.485,33.436-9.02-42.55-14.066-31.627,8.315Z" transform="translate(-932.206 -71.679)" fill="#c8220b"/>
        </g>
        <g id="_45" data-name="45" transform="translate(601.114 55.279)" opacity="0.5">
          <path id="Path_2593" data-name="Path 2593" d="M950.53,104.4,905.069,87.921,865.6,98.3l43.324,17.331Z" transform="translate(-865.604 -87.921)" fill="rgba(111,6,1,0.8)"/>
          <path id="Path_2654" data-name="Path 2654" d="M908.927,115.627,865.605,98.3l39.464-10.375L950.531,104.4Zm.088-1.493,36.808-9.93L905,89.4l-34.881,9.171Z" transform="translate(-865.605 -87.921)" fill="#c8220b"/>
        </g>
        <g id="_44" data-name="44" transform="translate(551.403 66.26)" opacity="0.5">
          <path id="Path_2603" data-name="Path 2603" d="M877.3,122.724,833.95,105.385l-47.407,12.465L829.5,135.623Z" transform="translate(-786.543 -105.384)" fill="rgba(111,6,1,0.8)"/>
          <path id="Path_2664" data-name="Path 2664" d="M829.5,135.619l-42.955-17.771,47.408-12.464L877.3,122.725Zm.1-1.495,43.23-11.662-38.966-15.587-42.88,11.273Z" transform="translate(-786.543 -105.384)" fill="#c8220b"/>
        </g>
        <g id="_48" data-name="48" transform="translate(646.629 72.602)" opacity="0.5">
          <path id="Path_2595" data-name="Path 2595" d="M937.993,126.731l47.549,19.021,14.961-4.046,29.543-7.989-50.32-18.247Z" transform="translate(-937.993 -115.471)" fill="rgba(111,6,1,0.8)"/>
          <path id="Path_2656" data-name="Path 2656" d="M979.726,115.473l50.32,18.244-44.5,12.036-47.549-19.021Zm-.063,1.486-37.2,10.035,43.163,17.266,39.713-10.739Z" transform="translate(-937.993 -115.472)" fill="#c8220b"/>
        </g>
        <g id="_49" data-name="49" transform="translate(596.507 84.477)" opacity="0.5">
          <path id="Path_2597" data-name="Path 2597" d="M858.278,147.265l46.646,19.3,48.748-13.183L906.117,134.36Z" transform="translate(-858.277 -134.358)" fill="rgba(111,6,1,0.8)"/>
          <path id="Path_2658" data-name="Path 2658" d="M906.12,134.357l47.551,19.022-48.747,13.183-46.647-19.3Zm-.088,1.492-43.361,11.7,42.347,17.52L949.2,153.119Z" transform="translate(-858.277 -134.357)" fill="#c8220b"/>
        </g>
        <g id="_50" data-name="50" transform="translate(539.559 97.99)" opacity="0.5">
          <path id="Path_2605" data-name="Path 2605" d="M767.707,170.605l45.036,19.772,56.315-15.229-46.648-19.3Z" transform="translate(-767.707 -155.848)" fill="rgba(111,6,1,0.8)"/>
          <path id="Path_2666" data-name="Path 2666" d="M822.41,155.849l46.648,19.3-56.314,15.229-45.036-19.772Zm-.1,1.495-50.348,13.582,40.892,17.952,51.811-14.011Z" transform="translate(-767.708 -155.848)" fill="#c8220b"/>
        </g>
        <g id="_51" data-name="51" transform="translate(624.907 123.289)" opacity="0.5">
          <path id="Path_2628" data-name="Path 2628" d="M948.247,196.362l.109-.279-44.908,12.61,71.117,29.15,43.029-14.105Z" transform="translate(-903.446 -196.084)" fill="rgba(111,6,1,0.8)"/>
          <path id="Path_2689" data-name="Path 2689" d="M948.356,196.084l-.111.278,69.345,27.375-43.029,14.106-71.116-29.15Zm-.554,1.628-40,11.233,66.819,27.388,38.8-12.719Z" transform="translate(-903.445 -196.084)" fill="#c8220b"/>
        </g>
        <g id="_23" data-name="23" transform="translate(611.094 207.598)" opacity="0.5">
          <path id="Path_2523" data-name="Path 2523" d="M931.635,330.171l-50.158,17.62Zm-.1,2.038L886.315,348.1l84.967,42.486,45.914-18.86Z" transform="translate(-881.477 -330.171)" fill="rgba(111,6,1,0.8)"/>
          <path id="Path_2581" data-name="Path 2581" d="M931.635,330.171h0l-50.156,17.621,89.728,44.864,50.724-20.834Zm39.648,60.412L886.316,348.1,931.54,332.21l85.657,39.512Z" transform="translate(-881.477 -330.171)" fill="#c8220b"/>
        </g>
        <g id="_24" data-name="24" transform="translate(552.222 225.913)" opacity="0.5">
          <path id="Path_2489" data-name="Path 2489" d="M845.545,362.56,795.164,380.1l84.455,47.085,51.641-21.17Z" transform="translate(-790.563 -360.51)" fill="rgba(111,6,1,0.8)"/>
          <path id="Path_2490" data-name="Path 2490" d="M842.964,359.3l-55.118,19.193,88.932,49.581,56.307-23.083ZM876.9,425.976l-84.455-47.085,50.381-17.542,85.715,43.458Z" transform="translate(-787.846 -359.299)" fill="#c8220b"/>
        </g>
        <g id="_25" data-name="25" transform="translate(487.511 246.54)" opacity="0.5">
          <path id="Path_2518" data-name="Path 2518" d="M748.107,395.384l-56.178,19.359L775.1,465.825l57.792-23.207Z" transform="translate(-687.527 -393.322)" fill="rgba(0,117,60,0.75)" opacity="0.4"/>
          <path id="Path_2572" data-name="Path 2572" d="M745.692,392.1l-60.763,20.937,87.4,53.675,62.354-25.039Zm26.811,72.5-83.174-51.082,56.178-19.359L830.3,441.4Z" transform="translate(-684.929 -392.105)" fill="#19b24b"/>
        </g>
        <g id="_32" data-name="32" transform="translate(597.521 307.748)" opacity="0.5">
          <path id="Path_2519" data-name="Path 2519" d="M922.735,490.952l-62.845,27.219,0,0,62.841-27.217,110.745,62.176,0,0Zm-.106,2.112-58.649,25.4,106.075,65.059,59.432-30.465Z" transform="translate(-859.891 -490.952)" fill="rgba(0,117,60,0.75)" opacity="0.4"/>
          <path id="Path_2574" data-name="Path 2574" d="M922.738,490.959,859.9,518.176l110.077,67.512,63.509-32.554Zm47.319,92.567L863.981,518.467l58.65-25.4,106.858,59.994Z" transform="translate(-859.893 -490.01)" fill="#19b24b"/>
        </g>
        <g id="_31" data-name="31" transform="translate(438.596 330.711)" opacity="0.5">
          <path id="Path_2485" data-name="Path 2485" d="M754.324,529.353,613.01,589.488l112.6,87.75,145.673-75.044Z" transform="translate(-609.315 -527.227)" fill="rgba(0,117,60,0.75)" opacity="0.4"/>
          <path id="Path_2486" data-name="Path 2486" d="M752.307,525.972,607.134,587.751l116.085,90.466,149.709-77.123Zm-28.879,150.01-112.6-87.749L752.142,528.1,869.1,600.938Z" transform="translate(-607.134 -525.972)" fill="#19b24b"/>
          <g id="Group_1931" data-name="Group 1931" transform="translate(124.459 61.492)">
            <path id="Path_2790" data-name="Path 2790" d="M812.29,626.51a2.6,2.6,0,0,1-.622,1.777,3.127,3.127,0,0,1-1.75.955v.062a3.4,3.4,0,0,1,2.026.84,2.406,2.406,0,0,1,.676,1.784,2.967,2.967,0,0,1-1.144,2.5,5.249,5.249,0,0,1-3.254.878,7.343,7.343,0,0,1-3.147-.605v-1.6a7.128,7.128,0,0,0,1.513.545,6.57,6.57,0,0,0,1.534.192,3.236,3.236,0,0,0,1.949-.483,1.749,1.749,0,0,0,.645-1.5,1.423,1.423,0,0,0-.714-1.319,4.558,4.558,0,0,0-2.241-.422h-.975v-1.466h.991q2.686,0,2.687-1.858a1.373,1.373,0,0,0-.468-1.113,2.112,2.112,0,0,0-1.381-.391,4.176,4.176,0,0,0-1.228.18,5.844,5.844,0,0,0-1.4.7l-.883-1.259a5.884,5.884,0,0,1,3.585-1.135,4.265,4.265,0,0,1,2.648.729A2.394,2.394,0,0,1,812.29,626.51Z" transform="translate(-805.075 -623.77)" fill="#fff"/>
            <path id="Path_2791" data-name="Path 2791" d="M824.98,635.247h-1.8V628q0-1.3.061-2.058c-.118.124-.262.259-.434.407s-.746.619-1.722,1.413l-.906-1.144,3.3-2.594h1.5Z" transform="translate(-810.681 -623.865)" fill="#fff"/>
          </g>
        </g>
        <g id="_40" data-name="40" transform="translate(637.049 408.4)">
          <path id="Path_2521" data-name="Path 2521" d="M996.26,652.989,928.54,688.5l127.368,88.608,68.106-44.921Z" transform="translate(-924.903 -650.813)" fill="rgba(111,6,1,0.8)"/>
          <path id="Path_2577" data-name="Path 2577" d="M994.192,649.529,922.756,686.99l130.976,91.118,71.645-47.255Zm-67.8,37.689h0L994.114,651.7l127.754,79.2-68.107,44.922Z" transform="translate(-922.756 -649.529)" fill="#c8220b"/>
        </g>
        <g id="_41" data-name="41" transform="translate(559.482 448.531)" opacity="0.5">
          <path id="Path_2487" data-name="Path 2487" d="M873.607,716.858,804.865,752.75,930.17,853.359l72.8-47.221Z" transform="translate(-801.424 -714.654)" fill="rgba(0,117,60,0.75)" opacity="0.4"/>
          <path id="Path_2488" data-name="Path 2488" d="M871.713,713.353l-72.32,37.76L928.021,854.389l76.321-49.5Zm56.425,138.7L802.834,751.45l68.742-35.893,129.365,89.279Z" transform="translate(-799.393 -713.353)" fill="#19b24b"/>
        </g>
        <rect id="Rectangle_2513" data-name="Rectangle 2513" width="1127" height="640" transform="translate(0.356 9.627)" fill="none"/>
        <path id="Path_2508" data-name="Path 2508" d="M136.518,343.164,51.374,366.69l85.143-23.522.664.546h0Z" transform="translate(37.778 -127.396)" fill="#19b24b"/>
        <path id="Path_2511" data-name="Path 2511" d="M380.041,278.548l-59.272,15.978-.455.127,59.732-16.1Z" transform="translate(-62.062 -103.408)" fill="#19b24b"/>
        <path id="Path_2513" data-name="Path 2513" d="M502.813,251.263l-14.736,3.972-.175.049,14.911-4.019h0" transform="translate(-124.277 -93.279)" fill="#19b24b"/>
        <path id="Path_2528" data-name="Path 2528" d="M423.953,549.352l-126.4,46.913,126.4-46.912,59.73,46.311h0Z" transform="translate(-53.611 -203.939)" fill="#19b24b"/>
        <path id="Path_2532" data-name="Path 2532" d="M200.971,260.122l-70.9,18.09.234.916,0,0,0,0,70.484-17.982L242.2,289.451l-73.308,20.4-38.585-30.723H130.3l-.585.736,38.374,30.555,75.722-21.012Z" transform="translate(8.697 -96.569)" fill="rgba(111,6,1,0.8)"/>
        <path id="Path_2535" data-name="Path 2535" d="M129.713,291.518h0Z" transform="translate(8.696 -108.223)" fill="#19b24b"/>
        <path id="Path_2536" data-name="Path 2536" d="M663.709,148.364h0l44.482,20.187-45.977,13.276,45.98-13.276Zm-45.795,11.75h0l44.3,21.713Z" transform="translate(-172.538 -55.081)" fill="#19b24b"/>
        <path id="Path_2538" data-name="Path 2538" d="M393.334,545.778l-124.192,46.9L223,545.781l0,0,46.15,46.9,124.192-46.9,0,0" transform="translate(-25.933 -202.614)" fill="#19b24b"/>
        <path id="Path_2540" data-name="Path 2540" d="M270.771,420.768h0l45.959,36.2L197.417,497.3,160.649,459.6h0l36.77,37.71,119.317-40.335Z" transform="translate(-2.789 -156.206)" fill="#19b24b"/>
        <path id="Path_2542" data-name="Path 2542" d="M481.358,254.263l-23.452,6.424,23.451-6.422,61.735,34.264h0Zm-55.749,15.27h0l57.143,36.013-57.143-36.015" transform="translate(-101.149 -94.393)" fill="#19b24b"/>
        <path id="Path_2544" data-name="Path 2544" d="M673.058,281.037l-54.5,16.542,54.5-16.541Z" transform="translate(-172.779 -104.332)" fill="#19b24b"/>
        <path id="Path_2546" data-name="Path 2546" d="M738.049,183.767h0l73.807,30.884Zm-46.382,12.87h0l65.413,31.451,54.775-13.437-54.775,13.436Z" transform="translate(-199.919 -68.223)" fill="#19b24b"/>
        <path id="Path_2547" data-name="Path 2547" d="M736.669,182.854l-22.515,6.718,22.515-6.716,1.368.572h0ZM691.642,196.29h0l.017.008h0l-.018-.008" transform="translate(-199.91 -67.883)" fill="#19b24b"/>
        <path id="Path_2549" data-name="Path 2549" d="M736.67,182.857l-22.514,6.716-22.513,6.718.016.007,46.38-12.87Z" transform="translate(-199.911 -67.885)" fill="#19b24b"/>
        <path id="Path_2550" data-name="Path 2550" d="M222.446,408.64,148,429.817l74.451-21.174Z" transform="translate(1.908 -151.703)" fill="#19b24b"/>
        <path id="Path_2552" data-name="Path 2552" d="M136.518,343.17,51.374,366.692l.682.645,85.126-23.621Z" transform="translate(37.778 -127.399)" fill="#19b24b"/>
        <path id="Path_2553" data-name="Path 2553" d="M0,330.629,30.526,360.6l85.922-23.2,0,0L30.526,360.6Z" transform="translate(56.849 -122.742)" fill="#19b24b"/>
        <path id="Path_2555" data-name="Path 2555" d="M310.937,235.362l-62.325,15.829,0,0,62.322-15.827,41.973,26.822h0Z" transform="translate(-35.443 -87.377)" fill="#19b24b"/>
        <path id="Path_2556" data-name="Path 2556" d="M414.493,278.026h0l.513.327h0Z" transform="translate(-97.023 -103.214)" fill="#19b24b"/>
        <path id="Path_2559" data-name="Path 2559" d="M410.065,211.693l-55.1,14.315h0l55.1-14.314Zm18.168,10.415,25.091,14.386h0Z" transform="translate(-74.924 -78.59)" fill="#19b24b"/>
        <path id="Path_2560" data-name="Path 2560" d="M511.4,251.137h0l.138.08h0Z" transform="translate(-132.998 -93.233)" fill="#19b24b"/>
        <path id="Path_2562" data-name="Path 2562" d="M502.778,251.138l-14.6,4.05,14.737-3.972Z" transform="translate(-124.378 -93.233)" fill="#19b24b"/>
        <path id="Path_2563" data-name="Path 2563" d="M499.76,189.285,448.749,202.35l51.011-13.065,45.215,23.062h0ZM448.749,202.35,491.694,227l26.642-7.328L491.694,227Z" transform="translate(-109.742 -70.271)" fill="#19b24b"/>
        <path id="Path_2565" data-name="Path 2565" d="M583.757,168.66l-47.281,12.409h0l47.279-12.409,44.919,21.848Z" transform="translate(-142.307 -62.614)" fill="#19b24b"/>
        <path id="Path_2569" data-name="Path 2569" d="M595.184,427.767,452.848,476l142.337-48.231,95.245,59.174h0Z" transform="translate(-111.261 -158.803)" fill="#19b24b"/>
        <g id="_1" data-name="1" transform="translate(56.849 183.709)" opacity="0.5">
          <g id="Group_1951" data-name="Group 1951" transform="translate(0 0)">
            <path id="Path_2554" data-name="Path 2554" d="M77.913,292.182,7.549,309.7,0,316.357l30.526,29.969,85.922-23.2ZM31.079,344.221l-28.3-27.79,5.679-5.012L77.46,294.242l34.9,28.029Z" transform="translate(0 -292.179)" fill="#19b24b"/>
            <path id="Path_2509" data-name="Path 2509" d="M77.914,292.177,7.545,309.693,0,316.355l7.549-6.66L77.914,292.18l38.532,30.943h0Zm-.454,2.064L8.454,311.417l-5.679,5.012,28.3,27.79,81.283-21.95Z" transform="translate(0 -292.177)" fill="rgba(0,117,60,0.75)" opacity="0.4"/>
          </g>
        </g>
        <g id="_2" data-name="2" transform="translate(138.994 164.576)" opacity="0.5">
          <path id="Path_2500" data-name="Path 2500" d="M202.185,263.372l-68.226,17.406,36.719,29.236,70.885-19.723Z" transform="translate(-131.876 -262.351)" fill="rgba(111,6,1,0.8)"/>
          <path id="Path_2534" data-name="Path 2534" d="M201.136,261.748,130.652,279.73l38.586,30.724,73.307-20.4Zm-68.407,18.427,68.226-17.406,39.379,26.92-70.885,19.723Zm-2.081-.448,0,0h.006Z" transform="translate(-130.646 -261.748)" fill="#c8220b"/>
        </g>
        <g id="_3" data-name="3" transform="translate(213.171 147.99)" opacity="0.5">
          <path id="Path_2510" data-name="Path 2510" d="M310.61,238.6l-57.531,14.611,36.72,25.7,59-15.9Zm-61.993,13.8h0l40.822,28.574,4.257-1.147.454-.126-4.714,1.271-40.819-28.571" transform="translate(-248.617 -236.568)" fill="rgba(111,6,1,0.8)"/>
          <path id="Path_2557" data-name="Path 2557" d="M310.94,235.369,248.617,251.2l40.82,28.571,4.715-1.271,58.76-16.305ZM289.8,277.711l-36.72-25.7L310.61,237.4,348.8,261.806Z" transform="translate(-248.617 -235.369)" fill="#c8220b"/>
        </g>
        <g id="_4" data-name="4" transform="translate(280.038 133.105)" opacity="0.5">
          <path id="Path_2512" data-name="Path 2512" d="M410.069,211.695h0l18.164,10.414Zm-.276,2.023L359.587,226.76l36.03,23.446,52.937-14.267ZM354.964,226.01h0l40.331,26.243,43.257-11.659.175-.049-43.432,11.706L354.966,226.01" transform="translate(-354.964 -211.695)" fill="rgba(111,6,1,0.8)"/>
          <path id="Path_2561" data-name="Path 2561" d="M410.069,211.695l-55.1,14.315,40.33,26.242,43.433-11.706,14.6-4.051-25.092-14.386-18.164-10.414m-14.451,38.511-36.03-23.446,50.205-13.043,38.761,22.221Z" transform="translate(-354.964 -211.695)" fill="#c8220b"/>
        </g>
        <g id="_5" data-name="5" transform="translate(339.009 119.014)" opacity="0.5">
          <path id="Path_2514" data-name="Path 2514" d="M502.477,192.48l-45.812,11.733,38.226,21.944L542.713,213Zm45.438,21.054-26.64,7.328,26.642-7.327Z" transform="translate(-451.688 -190.471)" fill="rgba(111,6,1,0.8)"/>
          <path id="Path_2564" data-name="Path 2564" d="M499.762,189.285,448.75,202.349,491.694,227l26.642-7.326,26.639-7.328Zm-7.81,35.685-38.225-21.944,45.811-11.733,40.237,20.523Z" transform="translate(-448.75 -189.285)" fill="#c8220b"/>
        </g>
        <g id="_6" data-name="6" transform="translate(394.169 106.045)" opacity="0.5">
          <path id="Path_2515" data-name="Path 2515" d="M583.56,171.851l-41.787,10.968,39.217,19.88,42.328-11.51Zm-47.081,10.4h0l44.308,22.46,47.891-13.022-47.891,13.022Z" transform="translate(-536.477 -169.844)" fill="rgba(111,6,1,0.8)"/>
          <path id="Path_2566" data-name="Path 2566" d="M583.758,168.659,536.48,181.068l44.306,22.46,47.892-13.021Zm-2.766,32.854-39.218-19.88,41.786-10.968L623.32,190Z" transform="translate(-536.478 -168.659)" fill="#c8220b"/>
        </g>
        <g id="_7" data-name="7" transform="translate(445.374 93.284)" opacity="0.5">
          <path id="Path_2501" data-name="Path 2501" d="M663.706,148.364l-45.794,11.749h0l45.793-11.749Zm-.172,2-40.187,10.311,39.042,19.137,40.357-11.652Z" transform="translate(-617.913 -148.364)" fill="rgba(111,6,1,0.8)"/>
          <path id="Path_2537" data-name="Path 2537" d="M663.708,148.365l-45.792,11.749,44.3,21.714,45.977-13.276-44.483-20.187m-1.318,31.443-39.042-19.137,40.187-10.311,39.213,17.8Z" transform="translate(-617.914 -148.364)" fill="#c8220b"/>
        </g>
        <g id="_8" data-name="8" transform="translate(491.75 115.545)" opacity="0.5">
          <path id="Path_2506" data-name="Path 2506" d="M739.647,186.045l-39.7,11.844,60.411,29.047,48.545-11.909Z" transform="translate(-694.743 -184.613)" fill="rgba(111,6,1,0.8)"/>
          <path id="Path_2548" data-name="Path 2548" d="M738.049,183.767l-46.38,12.87,65.411,31.45,54.775-13.435Zm19.239,42.324-60.412-29.047,39.7-11.844,69.259,28.982Z" transform="translate(-691.669 -183.767)" fill="#c8220b"/>
        </g>
        <g id="_9" data-name="9" transform="translate(441.407 129.581)" opacity="0.5">
          <path id="Path_2471" data-name="Path 2471" d="M661.245,209.3,619.72,221.093l57.7,29.953,43.9-12.33Z" transform="translate(-614.618 -207.283)" fill="rgba(111,6,1,0.8)"/>
          <path id="Path_2472" data-name="Path 2472" d="M658.414,206.092l-46.807,13.293,62.6,32.49L723.594,238Zm16,43.762-57.7-29.953,41.525-11.792,60.079,29.415Z" transform="translate(-611.607 -206.092)" fill="#c8220b"/>
        </g>
        <g id="_10" data-name="10" transform="translate(384.195 144.209)" opacity="0.5">
          <path id="Path_2505" data-name="Path 2505" d="M573.488,229.357l-52.875,14.331,52.873-14.326,63.209,32.49h0Zm-.213,2.02-47.713,12.929,56.863,32.044L631.682,261.4Z" transform="translate(-520.614 -229.357)" fill="rgba(111,6,1,0.8)"/>
          <path id="Path_2545" data-name="Path 2545" d="M573.487,229.365,520.614,243.69,582.2,278.4l54.5-16.541Zm8.938,46.988-56.863-32.044,47.713-12.929L631.682,261.4Z" transform="translate(-520.614 -229.36)" fill="#c8220b"/>
        </g>
        <g id="_11" data-name="11" transform="translate(324.457 159.871)" opacity="0.5">
          <path id="Path_2504" data-name="Path 2504" d="M481.114,257.486l-50.866,13.932,52.8,33.276,55.115-15.544Zm-23.208,4.4-32.3,8.845Zm85.186,27.841L482.75,306.743l60.341-17.018" transform="translate(-425.608 -255.461)" fill="rgba(111,6,1,0.8)"/>
          <path id="Path_2543" data-name="Path 2543" d="M481.357,254.266l-23.451,6.422-32.3,8.846,57.143,36.013,60.341-17.019Zm1.691,49.233-52.8-33.276,50.866-13.932,57.048,31.664Z" transform="translate(-425.608 -254.266)" fill="#c8220b"/>
        </g>
        <g id="_12" data-name="12" transform="translate(256.302 176.832)" opacity="0.5">
          <path id="Path_2473" data-name="Path 2473" d="M382.969,284.483l-58.746,15.941,51.155,35.532,61.608-18.2Z" transform="translate(-319.813 -282.443)" fill="rgba(111,6,1,0.8)"/>
          <path id="Path_2474" data-name="Path 2474" d="M380.66,281.239l-63.451,17.219,55.231,38.364,66.542-19.658Zm-7.885,53.513L321.62,299.22l58.745-15.941,54.017,33.273Z" transform="translate(-317.209 -281.239)" fill="#c8220b"/>
        </g>
        <g id="_13" data-name="13" transform="translate(180.954 195.015)" opacity="0.5">
          <path id="Path_2469" data-name="Path 2469" d="M271.278,313.438,203.67,332.379l44.2,37.111,73.341-21.077Z" transform="translate(-199.713 -311.376)" fill="rgba(111,6,1,0.8)"/>
          <path id="Path_2470" data-name="Path 2470" d="M269.294,310.159l-71.918,20.148,47.709,40.063L323.2,347.919ZM245.53,368.274l-44.2-37.111,67.608-18.941,49.93,34.975Z" transform="translate(-197.376 -310.159)" fill="#c8220b"/>
        </g>
        <g id="_14" data-name="14" transform="translate(89.833 216.316)" opacity="0.5">
          <path id="Path_2507" data-name="Path 2507" d="M139.39,344.037h0l49.394,40.619h0Zm-1.112,1.539L57.311,367.945l38.005,36h18.753l70.726-20.115Z" transform="translate(-54.26 -344.037)" fill="rgba(0,117,60,0.75)" opacity="0.4"/>
          <path id="Path_2551" data-name="Path 2551" d="M137.584,344.039,52.459,367.66l40.3,38.174h19.77l74.447-21.176Zm-44.069,59.9-38.005-36,80.966-22.369,46.518,38.252-70.725,20.115Z" transform="translate(-52.459 -344.038)" fill="#19b24b"/>
        </g>
        <g id="_15" data-name="15" transform="translate(157.86 264.563)" opacity="0.5">
          <path id="Path_2503" data-name="Path 2503" d="M270.77,420.768l-97.928,28.51-12.2,10.32h0l12.194-10.317Zm-.4,2.087-96.608,28.131-10.339,8.748,34.523,35.4L312.823,456.3Z" transform="translate(-160.646 -420.768)" fill="rgba(0,117,60,0.75)" opacity="0.4"/>
          <path id="Path_2541" data-name="Path 2541" d="M270.771,420.768h0l-97.928,28.514L160.65,459.6,197.418,497.3,316.731,456.97Zm-72.829,74.369-34.523-35.4,10.339-8.748,96.608-28.132L312.824,456.3Z" transform="translate(-160.648 -420.768)" fill="#19b24b"/>
        </g>
        <g id="_16" data-name="16" transform="translate(273.67 243.861)" opacity="0.5">
          <g id="Group_1950" data-name="Group 1950">
            <path id="Path_2475" data-name="Path 2475" d="M409.538,391.155,351.12,408.969l60.172,48.818,61.223-21.416Z" transform="translate(-347.167 -389.073)" fill="rgba(254,144,0,0.6)"/>
            <path id="Path_2476" data-name="Path 2476" d="M407.548,387.844l-62.715,19.122,63.754,51.726,65.651-22.968Zm1.411,68.714-60.173-48.819L407.2,389.926l62.977,45.215Z" transform="translate(-344.833 -387.844)" fill="#fe9000"/>
          </g>
        </g>
        <g id="_17" data-name="17" transform="translate(341.051 222.608)" opacity="0.5">
          <path id="Path_2477" data-name="Path 2477" d="M523.246,357.3l-64.458,18.663L521.3,420.735l68.256-22.259Z" transform="translate(-454.519 -355.254)" fill="rgba(111,6,1,0.8)"/>
          <path id="Path_2478" data-name="Path 2478" d="M521.008,354.044,452,374.023l66.46,47.6L591.489,397.8Zm-2.225,65.481-62.515-44.769,64.457-18.662,66.313,41.172Z" transform="translate(-451.998 -354.044)" fill="#c8220b"/>
        </g>
        <g id="_18" data-name="18" transform="translate(414.247 203.738)" opacity="0.5">
          <path id="Path_2479" data-name="Path 2479" d="M627.414,327.281,575.606,343.07l66,41.22,54.643-18.542Z" transform="translate(-571.08 -325.237)" fill="rgba(111,6,1,0.8)"/>
          <path id="Path_2480" data-name="Path 2480" d="M624.961,324.031l-56.553,17.236,70.288,43.9,59.518-20.2Zm13.976,59.053-66-41.22,51.808-15.789,68.837,38.467Z" transform="translate(-568.408 -324.031)" fill="#c8220b"/>
        </g>
        <g id="_19" data-name="19" transform="translate(475.798 186.743)" opacity="0.5">
          <path id="Path_2481" data-name="Path 2481" d="M722.926,300.219l-48.893,14.22,68.245,38.193L792.7,335.358Z" transform="translate(-669.17 -298.196)" fill="rgba(111,6,1,0.8)"/>
          <path id="Path_2482" data-name="Path 2482" d="M720.241,297,666.3,312.69,739.22,353.5,794.7,334.495Zm19.165,54.436-68.245-38.193,48.892-14.22,69.777,35.138Z" transform="translate(-666.299 -297.002)" fill="#c8220b"/>
        </g>
        <g id="_43" data-name="43" transform="translate(495.525 79.32)" opacity="0.5">
          <path id="Path_2604" data-name="Path 2604" d="M751.284,126.155l-53.61,14.1,41.963,18.421,54.626-14.736Z" transform="translate(-697.674 -126.155)" fill="rgba(111,6,1,0.8)"/>
          <path id="Path_2665" data-name="Path 2665" d="M751.284,126.155l42.978,17.781-54.626,14.736L697.674,140.25Zm-.1,1.493L701.97,140.587l37.78,16.586,50.117-13.52Z" transform="translate(-697.674 -126.155)" fill="#c8220b"/>
        </g>
        <g id="_26" data-name="26" transform="translate(341.587 268.965)" opacity="0.5">
          <path id="Path_2517" data-name="Path 2517" d="M594.944,431.071,456.759,477.9l87.947,69.245,141.613-59.3Zm-142.1,46.158h0l91.563,72.089,146.018-61.149L544.411,549.317l-91.563-72.09" transform="translate(-452.848 -428.996)" fill="rgba(0,117,60,0.75)" opacity="0.4"/>
          <path id="Path_2570" data-name="Path 2570" d="M595.184,427.77,452.848,476l91.563,72.088,146.018-61.149ZM544.706,545.918l-87.947-69.245,138.185-46.828,91.374,56.768Z" transform="translate(-452.848 -427.77)" fill="#19b24b"/>
        </g>
        <g id="_27" data-name="27" transform="translate(197.059 303.768)" opacity="0.5">
          <path id="Path_2502" data-name="Path 2502" d="M342.869,483.12l-119.878,39.4,0,0,119.874-39.395,50.462,39.393,0,0Zm-.369,2.116-116.024,38.13,43.148,43.851L389.517,521.94Z" transform="translate(-222.991 -483.12)" fill="rgba(111,6,1,0.8)"/>
          <path id="Path_2539" data-name="Path 2539" d="M342.869,483.129l-119.877,39.4,46.15,46.9,124.192-46.9Zm-73.244,84.092L226.477,523.37,342.5,485.24l47.017,36.7Z" transform="translate(-222.991 -483.123)" fill="#c8220b"/>
        </g>
        <g id="_28" data-name="28" transform="translate(243.94 345.414)" opacity="0.5">
          <path id="Path_2497" data-name="Path 2497" d="M423.624,552.753,301,598.266l51.578,50.692,127.371-52.536Zm60.058,44.173L352.14,651.183l-54.591-53.655h0l54.591,53.655,131.542-54.255" transform="translate(-297.549 -550.616)" fill="rgba(0,117,60,0.75)" opacity="0.4"/>
          <path id="Path_2529" data-name="Path 2529" d="M423.953,549.354l-126.4,46.913,54.591,53.653,131.542-54.256ZM352.574,647.7,301,597l122.627-45.511,56.321,43.668Z" transform="translate(-297.549 -549.354)" fill="#19b24b"/>
          <g id="Group_1940" data-name="Group 1940" transform="translate(75.282 39.165)">
            <path id="Path_2808" data-name="Path 2808" d="M424.884,623.024h-7.606v-1.365l2.894-2.909a24.488,24.488,0,0,0,1.7-1.861,4.422,4.422,0,0,0,.611-1.033,2.8,2.8,0,0,0,.192-1.036,1.581,1.581,0,0,0-.457-1.2,1.75,1.75,0,0,0-1.263-.437,3.369,3.369,0,0,0-1.247.238,5.869,5.869,0,0,0-1.393.859l-.976-1.189a6.328,6.328,0,0,1,1.82-1.12,5.331,5.331,0,0,1,1.88-.33,3.7,3.7,0,0,1,2.51.818,2.76,2.76,0,0,1,.944,2.2,3.861,3.861,0,0,1-.272,1.443,5.9,5.9,0,0,1-.836,1.409,19.218,19.218,0,0,1-1.877,1.96l-1.95,1.889v.077h5.327Z" transform="translate(-417.278 -611.642)" fill="#fff"/>
            <path id="Path_2809" data-name="Path 2809" d="M435.33,611.666a3.97,3.97,0,0,1,2.525.733,2.371,2.371,0,0,1,.929,1.961,3.085,3.085,0,0,1-2.073,2.749,5.322,5.322,0,0,1,1.877,1.388,2.615,2.615,0,0,1,.556,1.627,2.728,2.728,0,0,1-1.021,2.225,4.226,4.226,0,0,1-2.763.838,4.512,4.512,0,0,1-2.832-.784,2.645,2.645,0,0,1-1.006-2.218,2.864,2.864,0,0,1,.526-1.684,4.4,4.4,0,0,1,1.723-1.331,4.334,4.334,0,0,1-1.466-1.3,2.786,2.786,0,0,1-.437-1.535,2.309,2.309,0,0,1,.959-1.944A4.031,4.031,0,0,1,435.33,611.666Zm-2.08,8.459a1.49,1.49,0,0,0,.561,1.24,2.393,2.393,0,0,0,1.52.441,2.339,2.339,0,0,0,1.539-.457,1.529,1.529,0,0,0,.549-1.24,1.589,1.589,0,0,0-.506-1.137,4.793,4.793,0,0,0-1.535-.951l-.223-.1a3.941,3.941,0,0,0-1.458.979A1.854,1.854,0,0,0,433.25,620.125Zm2.065-7.069a1.9,1.9,0,0,0-1.236.381,1.258,1.258,0,0,0-.468,1.032,1.482,1.482,0,0,0,.169.714,1.858,1.858,0,0,0,.492.572,5.885,5.885,0,0,0,1.09.618,3.615,3.615,0,0,0,1.3-.856,1.57,1.57,0,0,0,.38-1.048,1.255,1.255,0,0,0-.472-1.032A1.938,1.938,0,0,0,435.315,613.055Z" transform="translate(-422.566 -611.651)" fill="#fff"/>
          </g>
        </g>
        <g id="_30" data-name="30" transform="translate(368.318 450.032)" opacity="0.5">
          <path id="Path_2499" data-name="Path 2499" d="M632.471,719.263l-131.949,63.4,70.666,69.54,136.65-73.886Z" transform="translate(-497.278 -717.049)" fill="rgba(0,117,60,0.75)" opacity="0.4"/>
          <path id="Path_2531" data-name="Path 2531" d="M630.8,715.741,495.363,780.82l73.579,72.407L709.359,777.3ZM569.272,850.9l-70.665-69.541,131.948-63.4,75.367,59.056Z" transform="translate(-495.363 -715.741)" fill="#19b24b"/>
          <g id="Group_1942" data-name="Group 1942" transform="translate(99.865 61.54)">
            <path id="Path_2812" data-name="Path 2812" d="M661.4,816.38a2.6,2.6,0,0,1-.622,1.776,3.124,3.124,0,0,1-1.75.956v.062a3.389,3.389,0,0,1,2.027.841,2.4,2.4,0,0,1,.675,1.784,2.966,2.966,0,0,1-1.144,2.5,5.244,5.244,0,0,1-3.255.879,7.342,7.342,0,0,1-3.147-.606v-1.605a7.139,7.139,0,0,0,1.512.546,6.555,6.555,0,0,0,1.536.191,3.234,3.234,0,0,0,1.949-.483,1.748,1.748,0,0,0,.645-1.5,1.422,1.422,0,0,0-.714-1.319,4.558,4.558,0,0,0-2.242-.422H655.9v-1.466h.99q2.686,0,2.687-1.858a1.37,1.37,0,0,0-.468-1.112,2.107,2.107,0,0,0-1.381-.391,4.2,4.2,0,0,0-1.228.18,5.856,5.856,0,0,0-1.4.7l-.882-1.258a5.879,5.879,0,0,1,3.584-1.136,4.265,4.265,0,0,1,2.648.729A2.4,2.4,0,0,1,661.4,816.38Z" transform="translate(-654.19 -813.624)" fill="#fff"/>
            <path id="Path_2813" data-name="Path 2813" d="M676.106,819.4a7.989,7.989,0,0,1-.939,4.344,3.551,3.551,0,0,1-5.715-.047,7.839,7.839,0,0,1-.967-4.3,8.027,8.027,0,0,1,.94-4.379,3.553,3.553,0,0,1,5.714.065A7.892,7.892,0,0,1,676.106,819.4Zm-5.795,0a8.16,8.16,0,0,0,.473,3.277,1.65,1.65,0,0,0,3.024-.015,11.364,11.364,0,0,0,0-6.528,1.643,1.643,0,0,0-3.024-.019A8.224,8.224,0,0,0,670.311,819.4Z" transform="translate(-659.497 -813.615)" fill="#fff"/>
          </g>
        </g>
        <g id="_29" data-name="29" transform="translate(303.534 394.336)" opacity="0.5">
          <path id="Path_2498" data-name="Path 2498" d="M524.7,630.612l-127.129,51.7,57.815,60.224,132.04-61.361Z" transform="translate(-394.273 -628.441)" fill="rgba(0,117,60,0.75)" opacity="0.4"/>
          <path id="Path_2530" data-name="Path 2530" d="M523.071,627.16,392.328,680.328l60.682,63.211,136.019-63.211ZM453.438,741.254,395.622,681.03l127.129-51.7,62.726,50.563Z" transform="translate(-392.328 -627.16)" fill="#19b24b"/>
          <g id="Group_1941" data-name="Group 1941" transform="translate(89.277 50.829)">
            <path id="Path_2810" data-name="Path 2810" d="M541.923,719.381h-7.606v-1.365l2.894-2.909a24.579,24.579,0,0,0,1.7-1.861,4.437,4.437,0,0,0,.61-1.033,2.786,2.786,0,0,0,.192-1.035,1.579,1.579,0,0,0-.457-1.2,1.749,1.749,0,0,0-1.262-.438,3.364,3.364,0,0,0-1.247.239,5.8,5.8,0,0,0-1.393.859l-.974-1.19a6.27,6.27,0,0,1,1.819-1.12,5.322,5.322,0,0,1,1.88-.33,3.7,3.7,0,0,1,2.51.816,2.76,2.76,0,0,1,.944,2.2,3.847,3.847,0,0,1-.273,1.443,5.843,5.843,0,0,1-.836,1.409,19.106,19.106,0,0,1-1.877,1.961l-1.949,1.888v.077h5.326Z" transform="translate(-534.316 -708)" fill="#fff"/>
            <path id="Path_2811" data-name="Path 2811" d="M556.159,712.96a7.713,7.713,0,0,1-1.336,4.951,4.887,4.887,0,0,1-4.021,1.635,6.184,6.184,0,0,1-1.466-.122V717.91a5.066,5.066,0,0,0,1.373.192,3.515,3.515,0,0,0,2.726-.983,4.772,4.772,0,0,0,.982-3.086h-.091a2.716,2.716,0,0,1-1.094,1,3.432,3.432,0,0,1-1.5.307,3.023,3.023,0,0,1-2.342-.928,3.627,3.627,0,0,1-.852-2.548,3.9,3.9,0,0,1,.986-2.8,3.528,3.528,0,0,1,2.69-1.039,3.58,3.58,0,0,1,3.461,2.275A6.635,6.635,0,0,1,556.159,712.96Zm-3.913-3.438a1.743,1.743,0,0,0-1.435.61,2.639,2.639,0,0,0-.5,1.716,2.263,2.263,0,0,0,.465,1.508,1.741,1.741,0,0,0,1.408.549,2.245,2.245,0,0,0,1.535-.545,1.648,1.648,0,0,0,.622-1.274,3.121,3.121,0,0,0-.265-1.279,2.285,2.285,0,0,0-.741-.94A1.811,1.811,0,0,0,552.246,709.521Z" transform="translate(-539.596 -708.009)" fill="#fff"/>
          </g>
        </g>
        <g id="_52" data-name="52" transform="translate(671.6 112.032)" opacity="0.5">
          <path id="Path_2612" data-name="Path 2612" d="M1086,203.7l-69.993-25.518L977.7,188.939l69.564,27.461Z" transform="translate(-977.703 -178.183)" fill="rgba(111,6,1,0.8)"/>
          <path id="Path_2673" data-name="Path 2673" d="M1047.268,216.4,977.7,188.939l38.307-10.756L1086,203.7Zm.044-1.507,34.356-11.263-65.714-23.959-33.813,9.5Z" transform="translate(-977.702 -178.183)" fill="#c8220b"/>
        </g>
        <g id="_22" data-name="22" transform="translate(667.016 190.381)" opacity="0.5">
          <path id="Path_2493" data-name="Path 2493" d="M1018.239,306.007l-39.882,13.859,83.816,39.574,32.8-13.628-.969-8Z" transform="translate(-973.365 -303.984)" fill="rgba(111,6,1,0.8)"/>
          <path id="Path_2494" data-name="Path 2494" d="M1015.356,302.789l-44.939,15.616,88.761,41.91,34.9-14.5L1092.8,335.3Zm43.871,55.458-83.818-39.574,39.882-13.859,75.764,31.8.969,8Z" transform="translate(-970.417 -302.789)" fill="#c8220b"/>
        </g>
        <g id="_33" data-name="33" transform="translate(663.424 282.811)" opacity="0.5">
          <path id="Path_2491" data-name="Path 2491" d="M1024.818,453.111l-53.252,22.681L1079.1,535.077l52.406-26.821Z" transform="translate(-967.253 -451.023)" fill="rgba(0,117,60,0.75)" opacity="0.4"/>
          <path id="Path_2492" data-name="Path 2492" d="M1022.35,449.79l-57.643,24.55,111.814,61.646,56.574-28.955Zm54.2,84.055L969.021,474.559l53.251-22.68,106.69,55.145Z" transform="translate(-964.707 -449.79)" fill="#19b24b"/>
        </g>
        <g id="_53" data-name="53" transform="translate(712.242 100.807)" opacity="0.5">
          <path id="Path_2617" data-name="Path 2617" d="M1148.923,184.315l-68.937-23.984-37.64,10.568,69.833,25.461Z" transform="translate(-1042.347 -160.329)" fill="rgba(111,6,1,0.8)"/>
          <path id="Path_2678" data-name="Path 2678" d="M1112.18,196.358,1042.347,170.9l37.64-10.569,68.937,23.985Zm.025-1.5,32.288-10.585-64.552-22.458-32.972,9.258Z" transform="translate(-1042.347 -160.329)" fill="#c8220b"/>
        </g>
        <g id="_47" data-name="47" transform="translate(690.748 61.559)" opacity="0.5">
          <path id="Path_2594" data-name="Path 2594" d="M1008.16,108.31l50.316,18.247,41.192-11.14-52.953-17.506Z" transform="translate(-1008.16 -97.909)" fill="rgba(111,6,1,0.8)"/>
          <path id="Path_2655" data-name="Path 2655" d="M1046.716,97.907l52.953,17.5-41.193,11.14-50.316-18.244Zm-.04,1.479-33.808,9.121,45.671,16.559,36.2-9.79Z" transform="translate(-1008.16 -97.907)" fill="#c8220b"/>
        </g>
        <g id="_56" data-name="56" transform="translate(698.043 151.757)" opacity="0.5">
          <path id="Path_2626" data-name="Path 2626" d="M1019.766,255.481,1083.25,281.5l17.138.965,34.513-12.658-72.063-28.448Z" transform="translate(-1019.766 -241.361)" fill="rgba(111,6,1,0.8)"/>
          <path id="Path_2687" data-name="Path 2687" d="M1062.838,241.362,1134.9,269.81l-34.513,12.658-17.138-.966-63.484-26.021Zm-.044,1.507-38.927,12.761,59.7,24.47,16.608.937,30.741-11.275Z" transform="translate(-1019.766 -241.361)" fill="#c8220b"/>
        </g>
        <path id="Path_2578" data-name="Path 2578" d="M1239.145,544.264h0l129.4,65.565-56.027,36.427h0l56.027-36.427Z" transform="translate(-403.16 -202.051)" fill="#19b24b"/>
        <g id="_35" data-name="35" transform="translate(777.92 240.112)" opacity="0.5">
          <path id="Path_2525" data-name="Path 2525" d="M1202.053,384.889H1191.92l-37.888,17.08,106.547,49.372,41.871-21.9Z" transform="translate(-1149.483 -382.998)" fill="rgba(0,117,60,0.75)" opacity="0.5"/>
          <path id="Path_2584" data-name="Path 2584" d="M1199.769,381.882h-10.939L1146.8,400.829l111.147,51.5,46.166-24.15Zm58.125,68.343-106.548-49.372,37.887-17.08h10.136l100.4,44.55Z" transform="translate(-1146.798 -381.882)" fill="#19b24b"/>
        </g>
        <g id="_54" data-name="54" transform="translate(752.271 90.434)" opacity="0.5">
          <path id="Path_2619" data-name="Path 2619" d="M1208.628,166.365l-68.061-22.532-34.557,9.7,68.771,23.927Z" transform="translate(-1106.009 -143.833)" fill="rgba(111,6,1,0.8)"/>
          <path id="Path_2680" data-name="Path 2680" d="M1174.778,177.462l-68.769-23.926,34.555-9.7,68.061,22.532Zm.013-1.5,29.3-9.606-63.564-21.043-29.789,8.364Z" transform="translate(-1106.009 -143.833)" fill="#c8220b"/>
        </g>
        <g id="_57" data-name="57" transform="translate(743.232 138.335)" opacity="0.5">
          <path id="Path_2622" data-name="Path 2622" d="M1091.624,232.745l71.955,28.408,39.729-14.571-72.86-26.566Z" transform="translate(-1091.624 -220.016)" fill="rgba(111,6,1,0.8)"/>
          <path id="Path_2683" data-name="Path 2683" d="M1130.449,220.018l72.859,26.564-39.729,14.571-71.955-28.407Zm-.024,1.5L1095.8,232.87l67.8,26.766,35.581-13.05Z" transform="translate(-1091.623 -220.017)" fill="#c8220b"/>
        </g>
        <path id="Path_2575" data-name="Path 2575" d="M1142.314,594.2l0,0,131.133,72.851-62.268,40.588h0l62.273-40.591Z" transform="translate(-367.212 -220.588)" fill="#19b24b"/>
        <path id="Path_2582" data-name="Path 2582" d="M1111.7,414.136l-51.907,21.35,51.907-21.349,110.346,51.771h0Z" transform="translate(-336.577 -153.744)" fill="#19b24b"/>
        <g id="_55" data-name="55" transform="translate(789.267 80.732)" opacity="0.5">
          <path id="Path_2618" data-name="Path 2618" d="M1264.2,149.579l-67.25-21.178-32.1,9.022,67.887,22.474Z" transform="translate(-1164.846 -128.402)" fill="rgba(111,6,1,0.8)"/>
          <path id="Path_2679" data-name="Path 2679" d="M1232.735,159.9l-67.888-22.475,32.1-9.013,67.249,21.173Zm0-1.493,26.824-8.794-62.636-19.721-27.23,7.645Z" transform="translate(-1164.846 -128.404)" fill="#c8220b"/>
        </g>
        <g id="_34" data-name="34" transform="translate(723.211 260.395)" opacity="0.5">
          <path id="Path_2524" data-name="Path 2524" d="M1111.646,417.422l-47.314,19.461,107.133,54.142,46.292-23.819Zm-51.857,19.284h0l111.682,56.441,50.57-26.018-50.57,26.018Z" transform="translate(-1059.79 -415.357)" fill="rgba(0,117,60,0.75)" opacity="0.4"/>
          <path id="Path_2583" data-name="Path 2583" d="M1111.7,414.139l-51.907,21.348,111.682,56.442,50.57-26.019Zm59.768,75.667-107.133-54.142,47.314-19.461,106.111,49.784Z" transform="translate(-1059.79 -414.139)" fill="#19b24b"/>
        </g>
        <g id="_39" data-name="39" transform="translate(713.865 373.611)" opacity="0.5">
          <path id="Path_2520" data-name="Path 2520" d="M1106.159,594.2l-61.226,32.609L1106.16,594.2Zm-.014,2.151-57.428,30.584L1175,705.4l58.635-38.218Zm-61.212,30.458h0l130.09,80.833,0,0Z" transform="translate(-1044.933 -594.199)" fill="rgba(254,144,0,0.6)"/>
          <path id="Path_2576" data-name="Path 2576" d="M1106.159,594.2l-61.227,32.608,130.094,80.832,62.268-40.589L1106.157,594.2M1175,705.4l-126.286-78.463,57.427-30.584,127.495,70.829Z" transform="translate(-1044.932 -594.199)" fill="#fe9000"/>
        </g>
        <g id="_38" data-name="38" transform="translate(780.613 341.372)" opacity="0.5">
          <path id="Path_2522" data-name="Path 2522" d="M1206.513,544.264l-55.92,29.443,55.922-29.442Zm.021,2.138-51.972,27.362,125.581,70.723,52.545-34.163Zm-55.942,27.305h0l129.618,73Z" transform="translate(-1150.592 -544.264)" fill="rgba(0,117,60,0.75)" opacity="0.4"/>
          <path id="Path_2579" data-name="Path 2579" d="M1206.514,544.265l-55.922,29.442,129.621,73,56.272-36.587-129.973-65.855m73.631,100.223-125.58-70.723,51.971-27.362,126.154,63.922Z" transform="translate(-1150.592 -544.264)" fill="#19b24b"/>
        </g>
        <g id="_58" data-name="58" transform="translate(789.267 126.589)">
          <path id="Path_2630" data-name="Path 2630" d="M1156.84,211.608l71.829,26.188,36.035-13.214L1193.177,199.7Z" transform="translate(-1156.837 -199.697)" fill="rgba(0,117,60,0.75)"/>
          <path id="Path_2691" data-name="Path 2691" d="M1193.172,199.7l71.528,24.885L1228.667,237.8l-71.829-26.188Zm-.013,1.478-32.039,10.5,67.546,24.627,31.871-11.688Z" transform="translate(-1156.838 -199.697)" fill="#19b24b"/>
        </g>
        <g id="_85" data-name="85" transform="translate(875.514 161.05)">
          <path id="Path_2647" data-name="Path 2647" d="M1433.9,285.235,1347.573,255.2l-44.751,17.262,87.826,32.424Z" transform="translate(-1302.82 -255.203)" fill="rgba(0,117,60,0.75)"/>
          <path id="Path_2708" data-name="Path 2708" d="M1390.647,304.889l-87.826-32.424,44.753-17.262,86.323,30.032Zm-.053-1.512,39.537-17.968L1347.6,256.694l-40.812,15.741Z" transform="translate(-1302.821 -255.203)" fill="#19b24b"/>
        </g>
        <g id="_59" data-name="59" transform="translate(827.792 114.893)">
          <path id="Path_2610" data-name="Path 2610" d="M1252.371,180.862l-33.477,10.971,71.407,24.844,33.335-12.23Z" transform="translate(-1218.894 -180.862)" fill="rgba(0,117,60,0.75)"/>
          <path id="Path_2671" data-name="Path 2671" d="M1252.37,180.862l71.264,23.593L1290.3,216.68l-71.406-24.843Zm0,1.475-29.1,9.54,67.02,23.317,29.1-10.671Z" transform="translate(-1218.89 -180.861)" fill="#19b24b"/>
        </g>
        <g id="_86" data-name="86" transform="translate(922.284 147.503)">
          <path id="Path_2639" data-name="Path 2639" d="M1411.255,233.385l-33.1,12.767,86.15,29.972,32.052-14.563Z" transform="translate(-1378.156 -233.383)" fill="rgba(0,117,60,0.75)"/>
          <path id="Path_2700" data-name="Path 2700" d="M1411.255,233.384l85.1,28.174L1464.3,276.124l-86.147-29.973Zm.036,1.488-29.068,11.212,82.013,28.533,28.286-12.854Z" transform="translate(-1378.155 -233.384)" fill="#19b24b"/>
        </g>
        <g id="_60" data-name="60" transform="translate(863.511 103.957)">
          <path id="Path_2611" data-name="Path 2611" d="M1378.6,185.624l-71.054-22.371-31.123,10.2,71.135,23.552Z" transform="translate(-1276.42 -163.248)" fill="rgba(0,117,60,0.75)"/>
          <path id="Path_2672" data-name="Path 2672" d="M1347.557,197l-71.139-23.551,31.124-10.2,71.053,22.372Zm-.024-1.483,26.72-9.8-66.7-21-26.658,8.739Z" transform="translate(-1276.417 -163.244)" fill="#19b24b"/>
        </g>
        <g id="_87" data-name="87" transform="translate(957.442 134.821)">
          <path id="Path_2640" data-name="Path 2640" d="M1434.78,224.846,1519.7,252.96l29.864-13.571-83.957-26.433Z" transform="translate(-1434.78 -212.956)" fill="rgba(0,117,60,0.75)"/>
          <path id="Path_2701" data-name="Path 2701" d="M1465.607,212.955l83.958,26.434L1519.7,252.96l-84.924-28.114Zm.048,1.483-26.722,10.307,80.688,26.713,26.034-11.832Z" transform="translate(-1434.78 -212.954)" fill="#19b24b"/>
        </g>
        <g id="_61" data-name="61" transform="translate(896.921 93.552)">
          <path id="Path_2615" data-name="Path 2615" d="M1430.392,167.748l-70.708-21.262-29.456,9.657,70.922,22.33Z" transform="translate(-1330.228 -146.486)" fill="rgba(0,117,60,0.75)"/>
          <path id="Path_2676" data-name="Path 2676" d="M1401.152,178.473l-70.922-22.33,29.456-9.657,70.708,21.262Zm-.034-1.48,24.85-9.114L1359.7,147.954l-24.9,8.161Z" transform="translate(-1330.231 -146.486)" fill="#19b24b"/>
        </g>
        <g id="_88" data-name="88" transform="translate(992.695 122.799)">
          <path id="Path_3239" data-name="Path 3239" d="M1147.886,151.018l83.719,27.394,27.639-12.868L1175.7,140.477Z" transform="translate(-1147.886 -140.477)" fill="rgba(0,117,60,0.75)"/>
          <g id="Path_3245" data-name="Path 3245" transform="translate(-1147.886 -140.477)" fill="none">
            <path d="M1147.886,151.018l83.721,27.5,28.749-12.825-84.66-25.211Z" stroke="none"/>
            <path d="M 1175.75390625 142.0596160888672 L 1152.385131835938 150.9165649414063 L 1231.525024414063 176.90771484375 L 1256.044189453125 165.9695739746094 L 1175.75390625 142.0596160888672 M 1175.6962890625 140.4773406982422 L 1260.356079101563 165.6885070800781 L 1231.607299804688 178.5135345458984 L 1147.885864257813 151.0177154541016 L 1175.6962890625 140.4773406982422 Z" stroke="none" fill="#19b24b"/>
          </g>
        </g>
        <g id="_62" data-name="62" transform="translate(928.703 84.028)">
          <path id="Path_2614" data-name="Path 2614" d="M1478.587,151.375l-70.444-20.227-26.722,8.76,70.572,21.221Z" transform="translate(-1381.421 -131.147)" fill="rgba(0,117,60,0.75)"/>
          <path id="Path_2675" data-name="Path 2675" d="M1451.993,161.129l-70.572-21.221,26.724-8.76,70.445,20.227Zm-.045-1.474,22.131-8.117-65.908-18.925-22.079,7.238Z" transform="translate(-1381.421 -131.148)" fill="#19b24b"/>
        </g>
        <g id="_89" data-name="89" transform="translate(1023.593 111.765)">
          <path id="Path_3240" data-name="Path 3240" d="M1184,137.542l82.474,24.909,25.96-11.3-82.7-23.568Z" transform="translate(-1183.998 -127.581)" fill="rgba(0,117,60,0.75)"/>
          <g id="Path_3246" data-name="Path 3246" transform="translate(-1183.998 -127.581)" fill="none">
            <path d="M1184,137.542l83.724,25.252,24.7-11.706-82.692-23.507Z" stroke="none"/>
            <path d="M 1209.805786132813 129.1607818603516 L 1188.608276367188 137.3654174804688 L 1267.601318359375 161.1906890869141 L 1288.178833007813 151.4397125244141 L 1209.805786132813 129.1607818603516 M 1209.732788085938 127.5805969238281 L 1292.425170898438 151.08740234375 L 1267.721435546875 162.7936553955078 L 1183.997680664063 137.5415496826172 L 1209.732788085938 127.5805969238281 Z" stroke="none" fill="#19b24b"/>
          </g>
        </g>
        <g id="_63" data-name="63" transform="translate(957.792 74.984)">
          <path id="Path_2629" data-name="Path 2629" d="M1523.7,135.824l-70.207-19.241-25.215,8.266,70.3,20.187Z" transform="translate(-1428.275 -116.583)" fill="rgba(0,117,60,0.75)"/>
          <path id="Path_2690" data-name="Path 2690" d="M1498.579,145.036l-70.3-20.188,25.213-8.266,70.208,19.241Zm-.052-1.473,20.577-7.547-65.58-17.972-20.483,6.715Z" transform="translate(-1428.273 -116.582)" fill="#19b24b"/>
        </g>
        <g id="_90" data-name="90" transform="translate(1052.47 101.182)">
          <path id="Path_3235" data-name="Path 3235" d="M5527.748-2535.827l81.235,23.736,22.24-10.854-79.2-21.842Z" transform="translate(-5527.748 2544.788)" fill="rgba(0,117,60,0.75)"/>
          <g id="Path_3241" data-name="Path 3241" transform="translate(-5527.748 2544.788)" fill="none">
            <path d="M5527.748-2535.827l81.681,23.96,22.378-10.966-79.787-21.954Z" stroke="none"/>
            <path d="M 5552.08740234375 -2543.21337890625 L 5532.52099609375 -2535.990478515625 L 5609.29248046875 -2513.470703125 L 5627.59130859375 -2522.43798828125 L 5552.08740234375 -2543.21337890625 M 5552.0205078125 -2544.78759765625 L 5631.8076171875 -2522.83349609375 L 5609.42919921875 -2511.867431640625 L 5527.748046875 -2535.827392578125 L 5552.0205078125 -2544.78759765625 Z" stroke="none" fill="#19b24b"/>
          </g>
        </g>
        <g id="_64" data-name="64" transform="translate(985.412 66.178)">
          <path id="Path_2616" data-name="Path 2616" d="M1566.781,120.83l-69.56-18.432-24.46,8.017,70.063,19.2Z" transform="translate(-1472.762 -102.397)" fill="rgba(0,117,60,0.75)"/>
          <path id="Path_2677" data-name="Path 2677" d="M1542.831,129.615l-70.062-19.2,24.455-8.017,69.559,18.433Zm-.062-1.469,19.359-7.1-64.862-17.188-19.635,6.438Z" transform="translate(-1472.762 -102.397)" fill="#19b24b"/>
        </g>
        <g id="_91" data-name="91" transform="translate(1079.775 91.116)">
          <path id="Path_3236" data-name="Path 3236" d="M5559.66-2547.82l79.665,22.168,21.373-10.071-78.921-20.831Z" transform="translate(-5559.661 2556.553)" fill="rgba(0,117,60,0.75)"/>
          <g id="Path_3242" data-name="Path 3242" transform="translate(-5559.661 2556.553)" fill="none">
            <path d="M5559.66-2547.82l80,22.281,21.6-10.3-79.48-20.719Z" stroke="none"/>
            <path d="M 5581.8720703125 -2554.978271484375 L 5564.36767578125 -2548.066162109375 L 5639.521484375 -2527.13525390625 L 5656.90087890625 -2535.419921875 L 5581.8720703125 -2554.978271484375 M 5581.77685546875 -2556.55322265625 L 5661.2568359375 -2535.834716796875 L 5639.66015625 -2525.53955078125 L 5559.66015625 -2547.820068359375 L 5581.77685546875 -2556.55322265625 Z" stroke="none" fill="#19b24b"/>
          </g>
        </g>
        <g id="_65" data-name="65" transform="translate(1011.831 57.819)">
          <path id="Path_3231" data-name="Path 3231" d="M1567.022,120.591,1493.31,103.8l-21.967,6.844,71.722,18.731Z" transform="translate(-1471.344 -103.158)" fill="rgba(0,117,60,0.75)"/>
          <path id="Path_3232" data-name="Path 3232" d="M1542.831,129.47l-70.062-19.2,21.456-7.017,72.558,17.433Zm-.062-1.469,19.359-7.1-67.9-16.169-16.594,5.419Z" transform="translate(-1471.104 -103.252)" fill="#19b24b"/>
        </g>
        <g id="_92" data-name="92" transform="translate(1105.852 81.871)">
          <path id="Path_3237" data-name="Path 3237" d="M5590.14-2559.411l76.414,20.674,20.59-8.952-76.635-19.669Z" transform="translate(-5590.14 2567.358)" fill="rgba(0,117,60,0.75)"/>
          <g id="Path_3243" data-name="Path 3243" transform="translate(-5590.14 2567.358)" fill="none">
            <path d="M5590.14-2559.411l77.085,20.9,19.806-9.064-76.522-19.781Z" stroke="none"/>
            <path d="M 5610.60205078125 -2565.784423828125 L 5594.9248046875 -2559.667724609375 L 5667.09375 -2540.102294921875 L 5682.56396484375 -2547.182373046875 L 5610.60205078125 -2565.784423828125 M 5610.50830078125 -2567.35791015625 L 5687.03076171875 -2547.576904296875 L 5667.224609375 -2538.5126953125 L 5590.1396484375 -2559.410888671875 L 5610.50830078125 -2567.35791015625 Z" stroke="none" fill="#19b24b"/>
          </g>
        </g>
        <g id="_66" data-name="66" transform="translate(1038.612 49.091)">
          <path id="Path_3233" data-name="Path 3233" d="M1554.491,120.937,1486.8,105.291,1467.45,111.8l72.534,16.264Z" transform="translate(-1467.198 -103.537)" fill="rgba(0,117,60,0.75)"/>
          <path id="Path_3234" data-name="Path 3234" d="M1538.32,129.222l-71.084-17.538,22.531-6.843L1559.58,120.7Zm0-1.652,15.89-6.338-64.444-15.25-18.584,5.454Z" transform="translate(-1467.236 -103.614)" fill="#19b24b"/>
        </g>
        <g id="_93" data-name="93" transform="translate(1129.045 73.943)">
          <path id="Path_3238" data-name="Path 3238" d="M5617.245-2569.848l75.715,19.276,21.371-10.294-68.732-15.089-11.6-.524Z" transform="translate(-5617.246 2576.603)" fill="rgba(0,117,60,0.75)"/>
          <g id="Path_3244" data-name="Path 3244" transform="translate(-5617.246 2576.603)" fill="none">
            <path d="M5617.245-2569.848l75.826,19.165,20.813-10.294-68.284-14.977-11.6-.524Z" stroke="none"/>
            <path d="M 5634.2490234375 -2574.9658203125 L 5622.11767578125 -2570.16357421875 L 5692.90234375 -2552.273193359375 L 5709.38916015625 -2560.427978515625 L 5645.40380859375 -2574.46240234375 L 5634.2490234375 -2574.9658203125 M 5633.99560546875 -2576.478759765625 L 5645.599609375 -2575.955078125 L 5713.8837890625 -2560.977783203125 L 5693.0712890625 -2550.683349609375 L 5617.2451171875 -2569.847900390625 L 5633.99560546875 -2576.478759765625 Z" stroke="none" fill="#19b24b"/>
          </g>
        </g>
      </g>
      <g id="_84" data-name="84">
        <path id="Path_2602" data-name="Path 2602" d="M1077.241,71.372,1028.3,56.348l-34.153,8.982L1041.555,81Z" transform="translate(-312.208 -20.921)" fill="rgba(0,117,60,0.75)"/>
        <path id="Path_2663" data-name="Path 2663" d="M1041.555,81,994.144,65.326l34.153-8.98,48.943,15.025Zm.041-1.48,30.525-8.235L1028.268,57.82l-29.136,7.66Z" transform="translate(-312.209 -20.92)" fill="#19b24b"/>
        <text id="_84-2" data-name="84" transform="translate(713.356 51.627)" fill="#fff" font-size="13.5" font-family="OpenSans-Semibold, Open Sans" font-weight="600"><tspan x="0" y="0">84</tspan></text>
      </g>
      <g id="_73" data-name="73">
        <path id="Path_2596" data-name="Path 2596" d="M1073.437,91.139l52.95,17.5L1164.3,98.391l-55.072-16.906Z" transform="translate(-341.646 -30.253)" fill="rgba(0,117,60,0.75)"/>
        <path id="Path_2657" data-name="Path 2657" d="M1109.224,81.486l55.071,16.906-37.908,10.252-52.948-17.5Zm-.025,1.475-30.826,8.316,48.055,15.886,32.754-8.858Z" transform="translate(-341.646 -30.254)" fill="#19b24b"/>
        <text id="_73-2" data-name="73" transform="translate(768.356 68.627)" fill="#fff" font-size="13.5" font-family="OpenSans-Semibold, Open Sans" font-weight="600"><tspan x="0" y="0">73</tspan></text>
      </g>
      <g id="_83" data-name="83">
        <path id="Path_2600" data-name="Path 2600" d="M1133.1,57.065l-50.309-14.431L1052.6,50.576l48.913,15.015Z" transform="translate(-333.912 -15.829)" fill="rgba(0,117,60,0.75)"/>
        <path id="Path_2661" data-name="Path 2661" d="M1101.513,65.587,1052.6,50.572l30.193-7.938,50.31,14.431Zm.024-1.476,26.278-7.089-45.038-12.917-25,6.572Z" transform="translate(-333.911 -15.829)" fill="#19b24b"/>
        <text id="_83-2" data-name="83" transform="translate(750.356 42.627)" fill="#fff" font-size="13.5" font-family="OpenSans-Semibold, Open Sans" font-weight="600"><tspan x="0" y="0">83</tspan></text>
      </g>
      <g id="_74" data-name="74">
        <g id="Group_2180" data-name="Group 2180">
          <path id="Path_2599" data-name="Path 2599" d="M1134.441,75.336l55.068,16.905,33.638-9.1-57.023-16.355Z" transform="translate(-364.292 -24.797)" fill="rgba(0,117,60,0.75)"/>
          <path id="Path_2660" data-name="Path 2660" d="M1166.125,66.79l57.022,16.355-33.637,9.1-55.068-16.906Zm-.013,1.471-26.552,7.164,49.974,15.341,28.328-7.662Z" transform="translate(-364.292 -24.797)" fill="#19b24b"/>
          <text id="_74-2" data-name="74" transform="translate(805.356 58.627)" fill="#fff" font-size="13.5" font-family="OpenSans-Semibold, Open Sans" font-weight="600"><tspan x="0" y="0">74</tspan></text>
        </g>
      </g>
      <g id="_72" data-name="72">
        <path id="Path_2627" data-name="Path 2627" d="M1316.716,133.581l-66.287-19.933-30.556,8.58,67.064,21.115Z" transform="translate(-396.008 -42.191)" fill="rgba(0,117,60,0.75)"/>
        <path id="Path_2688" data-name="Path 2688" d="M1286.938,143.343l-67.065-21.116,30.557-8.579,66.286,19.933Zm-.008-1.489,25.057-8.214-61.57-18.515-25.576,7.181Z" transform="translate(-396.008 -42.191)" fill="#19b24b"/>
        <text id="_72-2" data-name="72" transform="translate(864.356 90.627)" fill="#fff" font-size="13.5" font-family="OpenSans-Semibold, Open Sans" font-weight="600"><tspan x="0" y="0">72</tspan></text>
      </g>
      <g id="_82" data-name="82">
        <path id="Path_2590" data-name="Path 2590" d="M1183.724,43.945l-51.242-13.966-27.6,7.255,50.278,14.42Z" transform="translate(-353.32 -11.131)" fill="rgba(0,117,60,0.75)"/>
        <path id="Path_2651" data-name="Path 2651" d="M1155.164,51.649l-50.278-14.42,27.6-7.256,51.247,13.971Zm.012-1.471,23.135-6.241-45.834-12.495-22.24,5.846Z" transform="translate(-353.317 -11.13)" fill="#19b24b"/>
        <text id="_82-2" data-name="82" transform="translate(782.356 33.627)" fill="#fff" font-size="13.5" font-family="OpenSans-Semibold, Open Sans" font-weight="600"><tspan x="0" y="0">82</tspan></text>
      </g>
      <g id="_75" data-name="75">
        <path id="Path_2598" data-name="Path 2598" d="M1189.046,61.091l57.018,16.356,30.093-8.138-58.476-15.942Z" transform="translate(-384.561 -19.813)" fill="rgba(0,117,60,0.75)"/>
        <path id="Path_2659" data-name="Path 2659" d="M1217.68,53.366l58.477,15.942-30.093,8.138-57.02-16.355Zm0,1.469-23.344,6.3,51.741,14.84,24.668-6.671Z" transform="translate(-384.566 -19.812)" fill="#19b24b"/>
        <text id="_75-2" data-name="75" transform="translate(837.356 49.627)" fill="#fff" font-size="13.5" font-family="OpenSans-Semibold, Open Sans" font-weight="600"><tspan x="0" y="0">75</tspan></text>
      </g>
      <g id="_71" data-name="71">
        <path id="Path_2613" data-name="Path 2613" d="M1365.629,118.946l-65.437-18.789-27.669,7.768,66.1,19.876Z" transform="translate(-415.553 -37.184)" fill="rgba(0,117,60,0.75)"/>
        <path id="Path_2674" data-name="Path 2674" d="M1338.617,127.8l-66.094-19.876,27.668-7.768,65.438,18.789Zm-.016-1.486,22.2-7.279-60.616-17.4-22.584,6.341Z" transform="translate(-415.553 -37.183)" fill="#19b24b"/>
        <text id="_71-2" data-name="71" transform="translate(896.356 81.627)" fill="#fff" font-size="13.5" font-family="OpenSans-Semibold, Open Sans" font-weight="600"><tspan x="0" y="0">71</tspan></text>
      </g>
      <g id="_81" data-name="81">
        <path id="Path_2591" data-name="Path 2591" d="M1230.438,31.762l-51.611-13.676-25.683,6.752L1204.354,38.8Z" transform="translate(-371.234 -6.716)" fill="rgba(0,117,60,0.75)"/>
        <path id="Path_2652" data-name="Path 2652" d="M1204.354,38.8l-51.212-13.961,25.684-6.752,51.612,13.676Zm0-1.469,20.593-5.554-46.124-12.222-20.2,5.311Z" transform="translate(-371.235 -6.717)" fill="#19b24b"/>
        <text id="_81-2" data-name="81" transform="translate(809.356 25.627)" fill="#fff" font-size="13.5" font-family="OpenSans-Semibold, Open Sans" font-weight="600"><tspan x="0" y="0">81</tspan></text>
      </g>
      <g id="_76" data-name="76">
        <path id="Path_2608" data-name="Path 2608" d="M1238.9,48.043l58.474,15.94,26.922-7.28L1265.011,41Z" transform="translate(-403.069 -15.221)" fill="rgba(0,117,60,0.75)"/>
        <path id="Path_2669" data-name="Path 2669" d="M1265.017,41,1324.292,56.7l-26.923,7.281L1238.9,48.043Zm0,1.468-20.707,5.587,53.056,14.463,21.438-5.8Z" transform="translate(-403.07 -15.221)" fill="#19b24b"/>
        <text id="_76-2" data-name="76" transform="translate(864.356 40.627)" fill="#fff" font-size="13.5" font-family="OpenSans-Semibold, Open Sans" font-weight="600"><tspan x="0" y="0">76</tspan></text>
      </g>
      <g id="_70" data-name="70">
        <path id="Path_2625" data-name="Path 2625" d="M1411.378,105.047l-64.616-17.708-26.106,7.329L1385.9,113.4Z" transform="translate(-433.421 -32.426)" fill="rgba(0,117,60,0.75)"/>
        <path id="Path_2686" data-name="Path 2686" d="M1385.9,113.4l-65.239-18.732,26.106-7.33,64.616,17.708Zm-.027-1.483,20.587-6.749-59.688-16.358-20.918,5.873Z" transform="translate(-433.42 -32.426)" fill="#19b24b"/>
        <text id="_70-2" data-name="70" transform="translate(923.356 71.627)" fill="#fff" font-size="13.5" font-family="OpenSans-Semibold, Open Sans" font-weight="600"><tspan x="0" y="0">70</tspan></text>
      </g>
      <g id="_80" data-name="80">
        <path id="Path_2592" data-name="Path 2592" d="M1271.39,21.639,1218.9,8.36l-20.482,5.389,51.577,13.667Z" transform="translate(-388.039 -3.105)" fill="rgba(0,117,60,0.75)"/>
        <path id="Path_2653" data-name="Path 2653" d="M1249.984,27.412l-51.574-13.666,20.48-5.385,52.492,13.279Zm0-1.468,15.793-4.261L1218.9,9.824l-14.932,3.926Z" transform="translate(-388.037 -3.105)" fill="#19b24b"/>
        <text id="_80-2" data-name="80" transform="translate(837.356 18.627)" fill="#fff" font-size="13.5" font-family="OpenSans-Semibold, Open Sans" font-weight="600"><tspan x="0" y="0">80</tspan></text>
      </g>
      <g id="_77" data-name="77">
        <path id="Path_2607" data-name="Path 2607" d="M1306.264,30.61,1284.8,36.4l59.272,15.707,22.791-6.164Z" transform="translate(-420.106 -11.365)" fill="rgba(0,117,60,0.75)"/>
        <path id="Path_2668" data-name="Path 2668" d="M1306.265,30.61l60.6,15.332-22.792,6.164L1284.8,36.4Zm.011,1.466-15.981,4.311,53.777,14.25,17.194-4.65Z" transform="translate(-420.105 -11.365)" fill="#19b24b"/>
        <text id="_77-2" data-name="77" transform="translate(892.356 33.627)" fill="#fff" font-size="13.5" font-family="OpenSans-Semibold, Open Sans" font-weight="600"><tspan x="0" y="0">77</tspan></text>
      </g>
      <g id="_69" data-name="69">
        <path id="Path_2609" data-name="Path 2609" d="M1455.529,91.426l-63.344-16.786-25.79,7.242,64.41,17.651Z" transform="translate(-450.4 -27.71)" fill="rgba(0,117,60,0.75)"/>
        <path id="Path_2670" data-name="Path 2670" d="M1430.8,99.532l-64.409-17.651,25.791-7.242,63.347,16.787Zm-.036-1.481,19.772-6.481L1392.19,76.11l-20.5,5.755Z" transform="translate(-450.396 -27.709)" fill="#19b24b"/>
        <text id="_69-2" data-name="69" transform="translate(951.356 63.627)" fill="#fff" font-size="13.5" font-family="OpenSans-Semibold, Open Sans" font-weight="600"><tspan x="0" y="0">69</tspan></text>
      </g>
      <g id="_79" data-name="79" opacity="0.79">
        <path id="Path_2589" data-name="Path 2589" d="M1310.3,11.749,1261.306.111,1252.643,0l-17.155,4.511,52.453,13.27Z" transform="translate(-401.803 0)" fill="rgba(0,117,60,0.75)"/>
        <path id="Path_2650" data-name="Path 2650" d="M1287.946,17.782l-52.455-13.27L1252.647,0l8.663.111L1310.3,11.751Zm-.01-1.466,16.6-4.478-43.4-10.309-8.315-.106L1241.17,4.486Z" transform="translate(-401.806 -0.001)" fill="#19b24b"/>
        <text id="_79-2" data-name="79" transform="translate(862.356 12.627)" fill="#fff" font-size="13.5" font-family="OpenSans-Semibold, Open Sans" font-weight="600"><tspan x="0" y="0">79</tspan></text>
      </g>
      <g id="_78" data-name="78">
        <path id="Path_2601" data-name="Path 2601" d="M1383.984,41.166l18.846-5.1-2.656-3.38-54.346-12.909-22.444,6.051Z" transform="translate(-434.433 -7.345)" fill="rgba(0,117,60,0.75)"/>
        <path id="Path_2662" data-name="Path 2662" d="M1383.983,41.167l-60.6-15.331,22.444-6.055,54.345,12.909,2.656,3.379Zm-.011-1.466,16.418-4.44-1.026-1.306L1345.85,21.244l-16.858,4.548Z" transform="translate(-434.433 -7.347)" fill="#19b24b"/>
        <text id="_78-2" data-name="78" transform="translate(917.356 26.627)" fill="#fff" font-size="13.5" font-family="OpenSans-Semibold, Open Sans" font-weight="600"><tspan x="0" y="0">78</tspan></text>
      </g>
      <g id="_68" data-name="68">
        <path id="Path_2621" data-name="Path 2621" d="M1434.494,63.252l-22.814,6.405,63.134,16.733,22.269-7.3Z" transform="translate(-467.208 -23.483)" fill="rgba(0,117,60,0.75)"/>
        <path id="Path_2682" data-name="Path 2682" d="M1434.494,63.252l62.589,15.834-22.269,7.3L1411.68,69.658Zm.019,1.468-17.445,4.9,57.7,15.29L1492,79.262Z" transform="translate(-467.208 -23.485)" fill="#19b24b"/>
        <text id="_68-2" data-name="68" transform="translate(976.356 54.627)" fill="#fff" font-size="13.5" font-family="OpenSans-Semibold, Open Sans" font-weight="600"><tspan x="0" y="0">68</tspan></text>
      </g>
      <g id="Group_2181" data-name="Group 2181">
        <path id="Path_2623" data-name="Path 2623" d="M1536.321,67.779l-54.73-13.41L1470,54.128l-17.683,4.964,62.368,15.778Z" transform="translate(-482.297 -20.095)" fill="rgba(0,117,60,0.75)"/>
        <path id="Path_2684" data-name="Path 2684" d="M1514.69,74.875,1452.322,59.1l17.684-4.965,11.586.241,54.729,13.41Zm-.051-1.476,16.529-5.419-49.762-12.192-11.219-.233-12.365,3.471Z" transform="translate(-482.3 -20.097)" fill="#19b24b"/>
        <text id="_67" data-name="67" transform="translate(1002.356 46.627)" fill="#fff" font-size="13.5" font-family="OpenSans-Semibold, Open Sans" font-weight="600"><tspan x="0" y="0">67</tspan></text>
      </g>
    </g>
  </g>
</svg>
