<svg class="plot-sectors__svg" viewBox="0 0 1920 1043" fill="none" xmlns="http://www.w3.org/2000/svg">
    <g id="Mask group">
        <g id="Frame 18">
            <g id="Group 10571">
                <g  data-plots-plot="1" >
                    <path id="Vector 50" opacity="0.8" d="M1502.09 454.587L1498.98 455.981L1502.35 456.489L1548.85 463.489L1549.14 463.532L1549.4 463.417L1583.9 448.417L1587.11 447.021L1583.65 446.511L1536.15 439.511L1535.86 439.468L1535.59 439.587L1502.09 454.587Z" fill="#397D03" stroke="#397D03" stroke-width="2" />
                    <text id="1" fill="white" xml:space="preserve" style="white-space: pre" font-family="Montserrat" font-size="13" font-weight="500" letter-spacing="0.03em">
                        <tspan x="1537" y="455.66">1</tspan>
                    </text>
                </g>
                <g  data-plots-plot="2" >
                    <path id="Vector 51" opacity="0.8" d="M1553.06 462.6L1550 464.085L1553.38 464.493L1594.88 469.493L1595.16 469.527L1595.42 469.406L1626.42 454.906L1629.43 453.498L1626.15 453.011L1585.65 447.011L1585.34 446.966L1585.06 447.1L1553.06 462.6Z" fill="#397D03" stroke="#397D03" stroke-width="2" />
                    <text id="2" fill="white" xml:space="preserve" style="white-space: pre" font-family="Montserrat" font-size="13" font-weight="500" letter-spacing="0.03em">
                        <tspan x="1584" y="461.66">2</tspan>
                    </text>
                </g>
                <g  data-plots-plot="3" >
                    <path id="Vector 52" opacity="0.8" d="M1598.04 469.112L1595.22 470.571L1598.37 470.991L1643.37 476.991L1643.69 477.034L1643.98 476.878L1672.48 461.378L1675.15 459.925L1672.14 459.509L1628.64 453.509L1628.32 453.466L1628.04 453.612L1598.04 469.112Z" fill="#397D03" stroke="#397D03" stroke-width="2" />
                    <text id="3" fill="white" xml:space="preserve" style="white-space: pre" font-family="Montserrat" font-size="13" font-weight="500" letter-spacing="0.03em">
                        <tspan x="1628" y="468.66">3</tspan>
                    </text>
                </g>
                <g  data-plots-plot="4" >
                    <path id="Vector 53" opacity="0.8" d="M1646.51 475.63L1644 477.047L1646.85 477.488L1698.35 485.488L1698.74 485.549L1699.07 485.324L1723.07 468.824L1725.21 467.351L1722.63 467.009L1673.63 460.509L1673.3 460.465L1673.01 460.63L1646.51 475.63Z" fill="#397D03" stroke="#397D03" stroke-width="2" />
                    <text id="4" fill="white" xml:space="preserve" style="white-space: pre" font-family="Montserrat" font-size="13" font-weight="500" letter-spacing="0.03em">
                        <tspan x="1677" y="475.66">4</tspan>
                    </text>
                </g>
                <g  data-plots-plot="5" >
                    <path id="Vector 54" opacity="0.8" d="M1700.49 483.139L1698.08 484.568L1700.85 484.989L1756.85 493.489L1757.27 493.552L1757.6 493.298L1778.1 477.798L1780.01 476.352L1777.64 476.01L1725.64 468.51L1725.29 468.46L1724.99 468.639L1700.49 483.139Z" fill="#397D03" stroke="#397D03" stroke-width="2" />
                    <text id="5" fill="white" xml:space="preserve" style="white-space: pre" font-family="Montserrat" font-size="13" font-weight="500" letter-spacing="0.03em">
                        <tspan x="1734" y="484.66">5</tspan>
                    </text>
                </g>
                <g  data-plots-plot="6" >
                    <path id="Vector 55" opacity="0.8" d="M1758.43 491.68L1756.3 493.161L1758.87 493.492L1824.87 501.992L1825.34 502.052L1825.68 501.73L1841.18 487.23L1842.69 485.818L1840.65 485.511L1780.65 476.511L1780.25 476.452L1779.93 476.68L1758.43 491.68Z" fill="#397D03" stroke="#397D03" stroke-width="2" />
                    <text id="6" fill="white" xml:space="preserve" style="white-space: pre" font-family="Montserrat" font-size="13" font-weight="500" letter-spacing="0.03em">
                        <tspan x="1793" y="493.66">6</tspan>
                    </text>
                </g>
                <g  data-plots-plot="7" >
                    <path id="Vector 57" opacity="0.8" d="M1779.92 498.686L1777.89 500.137L1780.36 500.49L1885.36 515.49L1885.85 515.561L1886.21 515.207L1905.21 496.207L1906.63 494.785L1904.64 494.509L1843.14 486.009L1842.7 485.949L1842.36 486.232L1824.69 500.955L1784.12 496.007L1783.74 495.96L1783.42 496.186L1779.92 498.686Z" fill="#397D03" stroke="#397D03" stroke-width="2" />
                    <text id="7" fill="white" xml:space="preserve" style="white-space: pre" font-family="Montserrat" font-size="13" font-weight="500" letter-spacing="0.03em">
                        <tspan x="1853" y="504.66">7</tspan>
                    </text>
                </g>
                <g  data-plots-plot="8" >
                    <path id="Vector 56" opacity="0.8" d="M1766.37 510.222L1764.58 511.672L1766.86 511.99L1874.36 526.99L1874.85 527.059L1875.21 526.707L1886.21 515.707L1887.63 514.283L1885.64 514.009L1780.14 499.509L1779.71 499.45L1779.37 499.722L1766.37 510.222Z" fill="#397D03" stroke="#397D03" stroke-width="2" />
                    <text id="8" fill="white" xml:space="preserve" style="white-space: pre" font-family="Montserrat" font-size="13" font-weight="500" letter-spacing="0.03em">
                        <tspan x="1817" y="515.66">8</tspan>
                    </text>
                </g>
                <g  data-plots-plot="12" >
                    <path id="Vector 58" opacity="0.8" d="M1751.39 521.704L1749.47 523.168L1751.87 523.491L1863.37 538.491L1863.89 538.561L1864.24 538.171L1873.74 527.671L1875.02 526.253L1873.13 526.008L1764.63 512.008L1764.22 511.956L1763.89 512.204L1751.39 521.704Z" fill="#397D03" stroke="#397D03" stroke-width="2" />
                    <text id="12" fill="white" xml:space="preserve" style="white-space: pre" font-family="Montserrat" font-size="13" font-weight="500" letter-spacing="0.03em">
                        <tspan x="1803" y="527.66">12</tspan>
                    </text>
                </g>
                <g  data-plots-plot="16" >
                    <path id="Vector 59" opacity="0.8" d="M1736.39 533.704L1734.5 535.147L1736.86 535.49L1850.36 551.99L1850.85 552.062L1851.21 551.707L1863.21 539.707L1864.65 538.259L1862.62 538.008L1749.62 524.008L1749.22 523.958L1748.89 524.204L1736.39 533.704Z" fill="#397D03" stroke="#397D03" stroke-width="2" />
                    <text id="16" fill="white" xml:space="preserve" style="white-space: pre" font-family="Montserrat" font-size="13" font-weight="500" letter-spacing="0.03em">
                        <tspan x="1789" y="540.66">16</tspan>
                    </text>
                </g>
                <g  data-plots-plot="20" >
                    <path id="Vector 60" opacity="0.8" d="M1715.39 549.708L1713.49 551.175L1715.87 551.491L1836.37 567.491L1836.88 567.559L1837.23 567.179L1849.73 553.679L1851.04 552.273L1849.14 552.009L1733.64 536.009L1733.22 535.952L1732.89 536.208L1715.39 549.708Z" fill="#397D03" stroke="#397D03" stroke-width="2" />
                    <text id="20" fill="white" xml:space="preserve" style="white-space: pre" font-family="Montserrat" font-size="13" font-weight="500" letter-spacing="0.03em">
                        <tspan x="1775" y="553.66">20</tspan>
                    </text>
                </g>
                <g  data-plots-plot="24" >
                    <path id="Vector 61" opacity="0.8" d="M1696.88 563.712L1695.04 565.157L1697.36 565.49L1819.36 582.99L1819.82 583.056L1820.17 582.742L1835.67 568.742L1837.28 567.291L1835.13 567.009L1713.63 551.009L1713.21 550.954L1712.88 551.212L1696.88 563.712Z" fill="#397D03" stroke="#397D03" stroke-width="2" />
                    <text id="24" fill="white" xml:space="preserve" style="white-space: pre" font-family="Montserrat" font-size="13" font-weight="500" letter-spacing="0.03em">
                        <tspan x="1756" y="569.66">24</tspan>
                    </text>
                </g>
                <g  data-plots-plot="28" >
                    <path id="Vector 62" opacity="0.8" d="M1679.38 577.712L1677.59 579.115L1679.84 579.487L1803.84 599.987L1804.36 600.074L1804.73 599.683L1819.23 584.183L1820.54 582.781L1818.64 582.51L1696.14 565.01L1695.72 564.95L1695.38 565.212L1679.38 577.712Z" fill="#397D03" stroke="#397D03" stroke-width="2" />
                    <text id="28" fill="white" xml:space="preserve" style="white-space: pre" font-family="Montserrat" font-size="13" font-weight="500" letter-spacing="0.03em">
                        <tspan x="1742" y="585.66">28</tspan>
                    </text>
                </g>
                <g  data-plots-plot="27" >
                    <path id="Vector 85" opacity="0.8" d="M1352.62 513.074L1349.35 514.409L1352.84 514.987L1434.34 528.487L1434.64 528.537L1434.92 528.408L1460.92 516.408L1463.93 515.02L1460.65 514.512L1380.15 502.012L1379.88 501.969L1379.62 502.074L1352.62 513.074Z" fill="#397D03" stroke="#397D03" stroke-width="2" />
                    <text id="27" fill="white" xml:space="preserve" style="white-space: pre" font-family="Montserrat" font-size="13" font-weight="500" letter-spacing="0.03em">
                        <tspan x="1394" y="518.66">27</tspan>
                    </text>
                </g>
                <g  data-plots-plot="23" >
                    <path id="Vector 86" opacity="0.8" d="M1382.62 501.074L1379.21 502.463L1382.86 502.99L1462.36 514.49L1462.64 514.531L1462.91 514.413L1486.41 503.913L1489.49 502.538L1486.16 502.012L1410.16 490.012L1409.88 489.969L1409.62 490.074L1382.62 501.074Z" fill="#397D03" stroke="#397D03" stroke-width="2" />
                    <text id="23" fill="white" xml:space="preserve" style="white-space: pre" font-family="Montserrat" font-size="13" font-weight="500" letter-spacing="0.03em">
                        <tspan x="1423" y="506.66">23</tspan>
                    </text>
                </g>
                <g  data-plots-plot="19" >
                    <path id="Vector 87" opacity="0.8" d="M1411.58 490.094L1408.52 491.522L1411.86 491.99L1486.86 502.49L1487.14 502.529L1487.39 502.419L1511.89 491.919L1515.21 490.497L1511.64 490.009L1434.64 479.509L1434.34 479.469L1434.08 479.594L1411.58 490.094Z" fill="#397D03" stroke="#397D03" stroke-width="2" />
                    <text id="19" fill="white" xml:space="preserve" style="white-space: pre" font-family="Montserrat" font-size="13" font-weight="500" letter-spacing="0.03em">
                        <tspan x="1449" y="494.66">19</tspan>
                    </text>
                </g>
                <g  data-plots-plot="15" >
                    <path id="Vector 88" opacity="0.8" d="M1436.64 478.567L1433.04 479.956L1436.86 480.49L1511.86 490.99L1512.17 491.033L1512.45 490.894L1533.45 480.394L1536.46 478.89L1533.11 478.507L1459.11 470.007L1458.87 469.978L1458.64 470.067L1436.64 478.567Z" fill="#397D03" stroke="#397D03" stroke-width="2" />
                    <text id="15" fill="white" xml:space="preserve" style="white-space: pre" font-family="Montserrat" font-size="13" font-weight="500" letter-spacing="0.03em">
                        <tspan x="1473" y="483.66">15</tspan>
                    </text>
                </g>
                <g  data-plots-plot="11" >
                    <path id="Vector 89" opacity="0.8" d="M1462.64 468.567L1462.87 470.491L1534.87 479.991L1535.16 480.03L1535.42 479.906L1550.42 472.906L1551.35 472.472L1550.89 471.553L1549.39 468.553L1549.16 468.075L1548.62 468.008L1485.12 460.008L1484.87 459.976L1484.64 460.067L1462.64 468.567Z" fill="#397D03" stroke="#397D03" stroke-width="2" />
                    <text id="11" fill="white" xml:space="preserve" style="white-space: pre" font-family="Montserrat" font-size="13" font-weight="500" letter-spacing="0.03em">
                        <tspan x="1497" y="472.66">11</tspan>
                    </text>
                </g>
                <g  data-plots-plot="10" >
                    <path id="Vector 99" opacity="0.8" d="M1640.38 496.992L1640.71 497.034L1641 496.864L1659 486.364L1661.48 484.921L1658.64 484.51L1593.14 475.01L1593.07 475H1593H1577H1576.77L1576.57 475.097L1556.57 484.597L1553.48 486.065L1556.88 486.492L1640.38 496.992Z" fill="#397D03" stroke="#397D03" stroke-width="2" />
                    <text id="10" fill="white" xml:space="preserve" style="white-space: pre" font-family="Montserrat" font-size="13" font-weight="500" letter-spacing="0.03em">
                        <tspan x="1600" y="488.66">10</tspan>
                    </text>
                </g>
                <g  data-plots-plot="9" >
                    <path id="Vector 100" opacity="0.8" d="M1742.66 496.747L1742.43 496.549L1742.13 496.509L1660.13 485.509L1659.78 485.462L1659.48 485.645L1642.98 495.645L1640.58 497.103L1643.36 497.49L1733.36 509.99L1733.73 510.041L1734.04 509.842L1746.54 501.842L1747.66 501.124L1746.66 500.247L1742.66 496.747Z" fill="#397D03" stroke="#397D03" stroke-width="2" />
                    <text id="9" fill="white" xml:space="preserve" style="white-space: pre" font-family="Montserrat" font-size="13" font-weight="500" letter-spacing="0.03em">
                        <tspan x="1682" y="499.66">9</tspan>
                    </text>
                </g>
                <g  data-plots-plot="14" >
                    <path id="Vector 98" opacity="0.8" d="M1621.86 508.99L1622.19 509.039L1622.49 508.871L1641.99 497.871L1644.64 496.378L1641.62 496.007L1556.12 485.507L1555.84 485.473L1555.59 485.588L1535.59 494.588L1532.46 495.996L1535.86 496.49L1621.86 508.99Z" fill="#397D03" stroke="#397D03" stroke-width="2" />
                    <text id="14" fill="white" xml:space="preserve" style="white-space: pre" font-family="Montserrat" font-size="13" font-weight="500" letter-spacing="0.03em">
                        <tspan x="1580" y="501.66">14</tspan>
                    </text>
                </g>
                <g  data-plots-plot="13" >
                    <path id="Vector 101" opacity="0.8" d="M1716.35 522.489L1716.77 522.552L1717.11 522.294L1732.11 510.794L1734.02 509.329L1731.63 509.009L1642.13 497.009L1641.78 496.961L1641.47 497.152L1625.47 507.152L1623.17 508.589L1625.85 508.989L1716.35 522.489Z" fill="#397D03" stroke="#397D03" stroke-width="2" />
                    <text id="13" fill="white" xml:space="preserve" style="white-space: pre" font-family="Montserrat" font-size="13" font-weight="500" letter-spacing="0.03em">
                        <tspan x="1665" y="512.66">13</tspan>
                    </text>
                </g>
                <g  data-plots-plot="18" >
                    <path id="Vector 97" opacity="0.8" d="M1601.88 520.992L1602.2 521.033L1602.49 520.872L1622.99 509.372L1625.62 507.897L1622.63 507.508L1534.13 496.008L1533.84 495.971L1533.58 496.092L1508.58 507.592L1505.39 509.061L1508.88 509.492L1601.88 520.992Z" fill="#397D03" stroke="#397D03" stroke-width="2" />
                    <text id="18" fill="white" xml:space="preserve" style="white-space: pre" font-family="Montserrat" font-size="13" font-weight="500" letter-spacing="0.03em">
                        <tspan x="1557" y="511.66">18</tspan>
                    </text>
                </g>
                <g  data-plots-plot="17" >
                    <path id="Vector 102" opacity="0.8" d="M1697.86 534.99L1698.26 535.047L1698.58 534.812L1714.58 523.312L1716.62 521.85L1714.14 521.509L1623.14 509.009L1622.81 508.964L1622.52 509.125L1603.52 519.625L1600.91 521.066L1603.86 521.49L1697.86 534.99Z" fill="#397D03" stroke="#397D03" stroke-width="2" />
                    <text id="17" fill="white" xml:space="preserve" style="white-space: pre" font-family="Montserrat" font-size="13" font-weight="500" letter-spacing="0.03em">
                        <tspan x="1649" y="524.66">17</tspan>
                    </text>
                </g>
                <g  data-plots-plot="22" >
                    <path id="Vector 96" opacity="0.8" d="M1577.88 534.993L1578.23 535.035L1578.54 534.845L1599.04 521.845L1601.37 520.367L1598.63 520.008L1507.13 508.008L1506.81 507.966L1506.52 508.12L1481.52 521.62L1478.75 523.118L1481.88 523.493L1577.88 534.993Z" fill="#397D03" stroke="#397D03" stroke-width="2" />
                    <text id="22" fill="white" xml:space="preserve" style="white-space: pre" font-family="Montserrat" font-size="13" font-weight="500" letter-spacing="0.03em">
                        <tspan x="1531" y="524.66">22</tspan>
                    </text>
                </g>
                <g  data-plots-plot="21" >
                    <path id="Vector 103" opacity="0.8" d="M1679.87 548.991L1680.28 549.046L1680.6 548.797L1697.1 536.297L1699.02 534.849L1696.64 534.51L1602.14 521.01L1601.8 520.962L1601.51 521.131L1579.51 533.631L1576.93 535.095L1579.87 535.491L1679.87 548.991Z" fill="#397D03" stroke="#397D03" stroke-width="2" />
                    <text id="21" fill="white" xml:space="preserve" style="white-space: pre" font-family="Montserrat" font-size="13" font-weight="500" letter-spacing="0.03em">
                        <tspan x="1627" y="539.66">21</tspan>
                    </text>
                </g>
                <g  data-plots-plot="26" >
                    <path id="Vector 95" opacity="0.8" d="M1549.85 551.489L1550.22 551.545L1550.53 551.345L1575.03 535.845L1577.38 534.358L1574.63 534.008L1480.13 522.008L1479.82 521.969L1479.54 522.113L1454.54 535.113L1451.82 536.526L1454.85 536.989L1549.85 551.489Z" fill="#397D03" stroke="#397D03" stroke-width="2" />
                    <text id="26" fill="white" xml:space="preserve" style="white-space: pre" font-family="Montserrat" font-size="13" font-weight="500" letter-spacing="0.03em">
                        <tspan x="1506" y="540.66">26</tspan>
                    </text>
                </g>
                <g  data-plots-plot="25" >
                    <path id="Vector 104" opacity="0.8" d="M1653.35 567.488L1653.74 567.549L1654.07 567.322L1678.57 550.322L1680.7 548.841L1678.13 548.508L1577.63 535.508L1577.28 535.463L1576.98 535.644L1552.98 550.144L1550.63 551.567L1553.35 551.988L1653.35 567.488Z" fill="#397D03" stroke="#397D03" stroke-width="2" />
                    <text id="25" fill="white" xml:space="preserve" style="white-space: pre" font-family="Montserrat" font-size="13" font-weight="500" letter-spacing="0.03em">
                        <tspan x="1603" y="553.66">25</tspan>
                    </text>
                </g>
            </g>
        </g>
        <mask id="mask0_949_1399" style="mask-type:alpha" maskUnits="userSpaceOnUse" x="-1" y="0" width="1920" height="1043">
            <rect id="Rectangle 4329" x="-0.5" y="0.5" width="1919" height="1042" stroke="black" />
        </mask>
    </g>
</svg>