<svg width="768" height="945" viewBox="0 0 768 945" fill="none" xmlns="http://www.w3.org/2000/svg">
<g id="Mask group">
<g id="Group 10570">
<g id="Group 10501">
<path id="Vector 50" opacity="0.8" d="M432.765 419.044L390.634 412.701L420.986 399.111L464.023 405.453L432.765 419.044Z" fill="#397D03"/>
<text id="1" fill="white" xml:space="preserve" style="white-space: pre" font-family="Montserrat" font-size="13" font-weight="500" letter-spacing="0.03em"><tspan x="422" y="413.66">1</tspan></text>
</g>
<g id="Group 10502">
<path id="Vector 51" opacity="0.8" d="M474.442 424.48L436.842 419.95L465.835 405.906L502.53 411.342L474.442 424.48Z" fill="#397D03"/>
<text id="2" fill="white" xml:space="preserve" style="white-space: pre" font-family="Montserrat" font-size="13" font-weight="500" letter-spacing="0.03em"><tspan x="464" y="419.66">2</tspan></text>
</g>
<g id="Group 10503">
<path id="Vector 52" opacity="0.8" d="M518.386 431.275L477.614 425.839L504.795 411.795L544.208 417.232L518.386 431.275Z" fill="#397D03"/>
<text id="3" fill="white" xml:space="preserve" style="white-space: pre" font-family="Montserrat" font-size="13" font-weight="500" letter-spacing="0.03em"><tspan x="507" y="425.66">3</tspan></text>
</g>
<g id="Group 10504">
<path id="Vector 53" opacity="0.8" d="M568.218 438.977L521.557 431.728L545.567 418.138L589.963 424.027L568.218 438.977Z" fill="#397D03"/>
<text id="4" fill="white" xml:space="preserve" style="white-space: pre" font-family="Montserrat" font-size="13" font-weight="500" letter-spacing="0.03em"><tspan x="549" y="431.66">4</tspan></text>
</g>
<g id="Group 10505">
<path id="Vector 54" opacity="0.8" d="M621.222 446.225L570.483 438.524L592.681 425.386L639.795 432.181L621.222 446.225Z" fill="#397D03"/>
<text id="5" fill="white" xml:space="preserve" style="white-space: pre" font-family="Montserrat" font-size="13" font-weight="500" letter-spacing="0.03em"><tspan x="600" y="439.66">5</tspan></text>
</g>
<g id="Group 10506">
<path id="Vector 55" opacity="0.8" d="M682.832 453.926L623.033 446.225L642.513 432.634L696.875 440.789L682.832 453.926Z" fill="#397D03"/>
<text id="6" fill="white" xml:space="preserve" style="white-space: pre" font-family="Montserrat" font-size="13" font-weight="500" letter-spacing="0.03em"><tspan x="654" y="447.66">6</tspan></text>
</g>
<g id="Group 10507">
<path id="Vector 57" opacity="0.8" d="M737.648 466.158L642.514 452.567L645.685 450.302L682.832 454.832L699.141 441.242L754.863 448.943L737.648 466.158Z" fill="#397D03"/>
<text id="7" fill="white" xml:space="preserve" style="white-space: pre" font-family="Montserrat" font-size="13" font-weight="500" letter-spacing="0.03em"><tspan x="708" y="456.66">7</tspan></text>
</g>
<g id="Group 10508">
<path id="Vector 56" opacity="0.8" d="M727.682 476.577L630.282 462.987L642.061 453.473L737.648 466.611L727.682 476.577Z" fill="#397D03"/>
<text id="8" fill="white" xml:space="preserve" style="white-space: pre" font-family="Montserrat" font-size="13" font-weight="500" letter-spacing="0.03em"><tspan x="677.584" y="468.399">8</tspan></text>
</g>
<g id="Group 10512">
<path id="Vector 58" opacity="0.8" d="M718.168 487.45L616.691 473.406L628.017 464.799L726.322 477.483L718.168 487.45Z" fill="#397D03"/>
<text id="12" fill="white" xml:space="preserve" style="white-space: pre" font-family="Montserrat" font-size="13" font-weight="500" letter-spacing="0.03em"><tspan x="662.899" y="479.271">12</tspan></text>
</g>
<g id="Group 10516">
<path id="Vector 59" opacity="0.8" d="M703.671 499.228L603.101 484.279L614.426 475.671L715.903 488.356L703.671 499.228Z" fill="#397D03"/>
<text id="16" fill="white" xml:space="preserve" style="white-space: pre" font-family="Montserrat" font-size="13" font-weight="500" letter-spacing="0.03em"><tspan x="650.215" y="491.05">16</tspan></text>
</g>
<g id="Group 10520">
<path id="Vector 60" opacity="0.8" d="M693.252 513.272L584.074 498.775L599.93 486.544L704.578 501.04L693.252 513.272Z" fill="#397D03"/>
<text id="20" fill="white" xml:space="preserve" style="white-space: pre" font-family="Montserrat" font-size="13" font-weight="500" letter-spacing="0.03em"><tspan x="637.53" y="502.828">20</tspan></text>
</g>
<g id="Group 10524">
<path id="Vector 61" opacity="0.8" d="M677.849 527.315L567.312 511.46L581.809 500.134L691.893 514.631L677.849 527.315Z" fill="#397D03"/>
<text id="24" fill="white" xml:space="preserve" style="white-space: pre" font-family="Montserrat" font-size="13" font-weight="500" letter-spacing="0.03em"><tspan x="620.315" y="517.325">24</tspan></text>
</g>
<g id="Group 10528">
<path id="Vector 62" opacity="0.8" d="M663.805 542.718L551.456 524.144L565.953 512.819L676.943 528.675L663.805 542.718Z" fill="#397D03"/>
<text id="28" fill="white" xml:space="preserve" style="white-space: pre" font-family="Montserrat" font-size="13" font-weight="500" letter-spacing="0.03em"><tspan x="608" y="531.66">28</tspan></text>
</g>
<g id="Group 10527">
<path id="Vector 85" opacity="0.8" d="M329.023 477.936L255.181 465.705L279.644 455.738L352.58 467.064L329.023 477.936Z" fill="#397D03"/>
<text id="27" fill="white" xml:space="preserve" style="white-space: pre" font-family="Montserrat" font-size="13" font-weight="500" letter-spacing="0.03em"><tspan x="292.329" y="471.117">27</tspan></text>
</g>
<g id="Group 10523">
<path id="Vector 86" opacity="0.8" d="M354.393 465.252L282.362 454.832L306.825 444.866L375.684 455.738L354.393 465.252Z" fill="#397D03"/>
<text id="23" fill="white" xml:space="preserve" style="white-space: pre" font-family="Montserrat" font-size="13" font-weight="500" letter-spacing="0.03em"><tspan x="318.604" y="460.244">23</tspan></text>
</g>
<g id="Group 10519">
<path id="Vector 87" opacity="0.8" d="M376.591 454.379L308.638 444.866L329.024 435.352L398.789 444.866L376.591 454.379Z" fill="#397D03"/>
<text id="19" fill="white" xml:space="preserve" style="white-space: pre" font-family="Montserrat" font-size="13" font-weight="500" letter-spacing="0.03em"><tspan x="342.161" y="449.372">19</tspan></text>
</g>
<g id="Group 10515">
<path id="Vector 88" opacity="0.8" d="M399.242 443.96L331.289 434.446L351.221 426.745L418.268 434.446L399.242 443.96Z" fill="#397D03"/>
<text id="15" fill="white" xml:space="preserve" style="white-space: pre" font-family="Montserrat" font-size="13" font-weight="500" letter-spacing="0.03em"><tspan x="363.906" y="439.405">15</tspan></text>
</g>
<g id="Group 10511">
<path id="Vector 89" opacity="0.8" d="M420.081 433.993L354.846 425.386L374.779 417.685L432.312 424.933L433.671 427.651L420.081 433.993Z" fill="#397D03"/>
<text id="11" fill="white" xml:space="preserve" style="white-space: pre" font-family="Montserrat" font-size="13" font-weight="500" letter-spacing="0.03em"><tspan x="385.651" y="429.439">11</tspan></text>
</g>
<g id="Group 10510">
<path id="Vector 99" opacity="0.8" d="M531.977 439.883L515.668 449.396L440.014 439.883L458.134 431.275H472.631L531.977 439.883Z" fill="#397D03"/>
<text id="10" fill="white" xml:space="preserve" style="white-space: pre" font-family="Montserrat" font-size="13" font-weight="500" letter-spacing="0.03em"><tspan x="478.974" y="443.936">10</tspan></text>
</g>
<g id="Group 10509">
<path id="Vector 100" opacity="0.8" d="M533.335 440.789L607.631 450.755L611.255 453.926L599.929 461.174L518.386 449.849L533.335 440.789Z" fill="#397D03"/>
<text id="9" fill="white" xml:space="preserve" style="white-space: pre" font-family="Montserrat" font-size="13" font-weight="500" letter-spacing="0.03em"><tspan x="555.362" y="453.902">9</tspan></text>
</g>
<g id="Group 10514">
<path id="Vector 98" opacity="0.8" d="M516.574 450.302L498.906 460.268L420.986 448.943L439.107 440.789L516.574 450.302Z" fill="#397D03"/>
<text id="14" fill="white" xml:space="preserve" style="white-space: pre" font-family="Montserrat" font-size="13" font-weight="500" letter-spacing="0.03em"><tspan x="460.853" y="455.714">14</tspan></text>
</g>
<g id="Group 10513">
<path id="Vector 101" opacity="0.8" d="M598.118 462.08L584.527 472.5L502.53 460.268L517.027 451.208L598.118 462.08Z" fill="#397D03"/>
<text id="13" fill="white" xml:space="preserve" style="white-space: pre" font-family="Montserrat" font-size="13" font-weight="500" letter-spacing="0.03em"><tspan x="537.866" y="465.681">13</tspan></text>
</g>
<g id="Group 10518">
<path id="Vector 97" opacity="0.8" d="M499.359 460.721L480.785 471.141L396.523 460.721L419.174 450.302L499.359 460.721Z" fill="#397D03"/>
<text id="18" fill="white" xml:space="preserve" style="white-space: pre" font-family="Montserrat" font-size="13" font-weight="500" letter-spacing="0.03em"><tspan x="440.014" y="464.775">18</tspan></text>
</g>
<g id="Group 10517">
<path id="Vector 102" opacity="0.8" d="M582.262 473.406L567.765 483.826L482.598 471.594L499.812 462.081L582.262 473.406Z" fill="#397D03"/>
<text id="17" fill="white" xml:space="preserve" style="white-space: pre" font-family="Montserrat" font-size="13" font-weight="500" letter-spacing="0.03em"><tspan x="523.369" y="476.553">17</tspan></text>
</g>
<g id="Group 10522">
<path id="Vector 96" opacity="0.8" d="M477.614 472.047L459.04 483.826L372.061 473.406L394.712 461.175L477.614 472.047Z" fill="#397D03"/>
<text id="22" fill="white" xml:space="preserve" style="white-space: pre" font-family="Montserrat" font-size="13" font-weight="500" letter-spacing="0.03em"><tspan x="416.456" y="476.553">22</tspan></text>
</g>
<g id="Group 10521">
<path id="Vector 103" opacity="0.8" d="M566.406 485.185L551.457 496.51L460.853 484.279L480.785 472.953L566.406 485.185Z" fill="#397D03"/>
<text id="21" fill="white" xml:space="preserve" style="white-space: pre" font-family="Montserrat" font-size="13" font-weight="500" letter-spacing="0.03em"><tspan x="503.437" y="490.144">21</tspan></text>
</g>
<g id="Group 10526">
<path id="Vector 95" opacity="0.8" d="M455.869 484.732L433.671 498.775L347.598 485.638L370.249 473.859L455.869 484.732Z" fill="#397D03"/>
<text id="26" fill="white" xml:space="preserve" style="white-space: pre" font-family="Montserrat" font-size="13" font-weight="500" letter-spacing="0.03em"><tspan x="393.807" y="491.05">26</tspan></text>
</g>
<g id="Group 10525">
<path id="Vector 104" opacity="0.8" d="M549.644 497.869L527.446 513.272L436.842 499.228L458.587 486.091L549.644 497.869Z" fill="#397D03"/>
<text id="25" fill="white" xml:space="preserve" style="white-space: pre" font-family="Montserrat" font-size="13" font-weight="500" letter-spacing="0.03em"><tspan x="481.69" y="502.828">25</tspan></text>
</g>
</g>
</g>
</svg>
