<svg class="plots-map__svg" viewBox="0 0 1920 1043" fill="none" xmlns="http://www.w3.org/2000/svg">
    <g id="Mask group">
        <g id="Group 10571">
            <g  data-plots-plot="1" >
                <g>
                    <path id="Vector 50"  d="M1549 462.5L1502.5 455.5L1536 440.5L1583.5 447.5L1549 462.5Z" fill="#397D03" />
                </g>
                <text id="1" fill="white" xml:space="preserve" style="white-space: pre" font-family="Montserrat" font-size="13" font-weight="500" letter-spacing="0.03em">
                    <tspan x="1537" y="455.66">1</tspan>
                </text>
            </g>
            <g  data-plots-plot="2">
                <path id="Vector 51"  d="M1595 468.5L1553.5 463.5L1585.5 448L1626 454L1595 468.5Z" fill="#397D03" />
                <text id="2" fill="white" xml:space="preserve" style="white-space: pre" font-family="Montserrat" font-size="13" font-weight="500" letter-spacing="0.03em">
                    <tspan x="1584" y="461.66">2</tspan>
                </text>
            </g>
            <g data-plots-plot="3">
                <path id="Vector 52"  d="M1643.5 476L1598.5 470L1628.5 454.5L1672 460.5L1643.5 476Z" fill="#397D03" />
                <text id="3" fill="white" xml:space="preserve" style="white-space: pre" font-family="Montserrat" font-size="13" font-weight="500" letter-spacing="0.03em">
                    <tspan x="1628" y="468.66">3</tspan>
                </text>
            </g>
            <g data-plots-plot="4">
                <path id="Vector 53"  d="M1698.5 484.5L1647 476.5L1673.5 461.5L1722.5 468L1698.5 484.5Z" fill="#397D03" />
                <text id="4" fill="white" xml:space="preserve" style="white-space: pre" font-family="Montserrat" font-size="13" font-weight="500" letter-spacing="0.03em">
                    <tspan x="1677" y="475.66">4</tspan>
                </text>
            </g>
            <g data-plots-plot="5">
                <path id="Vector 54"  d="M1757 492.5L1701 484L1725.5 469.5L1777.5 477L1757 492.5Z" fill="#397D03" />
                <text id="5" fill="white" xml:space="preserve" style="white-space: pre" font-family="Montserrat" font-size="13" font-weight="500" letter-spacing="0.03em">
                    <tspan x="1734" y="484.66">5</tspan>
                </text>
            </g>
            <g data-plots-plot="6">
                <path id="Vector 55"  d="M1825 501L1759 492.5L1780.5 477.5L1840.5 486.5L1825 501Z" fill="#397D03" />
                <text id="6" fill="white" xml:space="preserve" style="white-space: pre" font-family="Montserrat" font-size="13" font-weight="500" letter-spacing="0.03em">
                    <tspan x="1793" y="493.66">6</tspan>
                </text>
            </g>
            <g data-plots-plot="7">
                <path id="Vector 57"  d="M1885.5 514.5L1780.5 499.5L1784 497L1825 502L1843 487L1904.5 495.5L1885.5 514.5Z" fill="#397D03" />
                <text id="7" fill="white" xml:space="preserve" style="white-space: pre" font-family="Montserrat" font-size="13" font-weight="500" letter-spacing="0.03em">
                    <tspan x="1853" y="504.66">7</tspan>
                </text>
            </g>
            <g data-plots-plot="8">
                <path id="Vector 56"  d="M1874.5 526L1767 511L1780 500.5L1885.5 515L1874.5 526Z" fill="#397D03" />
                <text id="8" fill="white" xml:space="preserve" style="white-space: pre" font-family="Montserrat" font-size="13" font-weight="500" letter-spacing="0.03em">
                    <tspan x="1817" y="515.66">8</tspan>
                </text>
            </g>
            <g data-plots-plot="12">
                <path id="Vector 58"  d="M1864 538L1752 522.5L1764.5 513L1873 527L1864 538Z" fill="#397D03" />
                <text id="12" fill="white" xml:space="preserve" style="white-space: pre" font-family="Montserrat" font-size="13" font-weight="500" letter-spacing="0.03em">
                    <tspan x="1803" y="527.66">12</tspan>
                </text>
            </g>
            <g data-plots-plot="16">
                <path id="Vector 59"  d="M1848 551L1737 534.5L1749.5 525L1861.5 539L1848 551Z" fill="#397D03" />
                <text id="16" fill="white" xml:space="preserve" style="white-space: pre" font-family="Montserrat" font-size="13" font-weight="500" letter-spacing="0.03em">
                    <tspan x="1789" y="540.66">16</tspan>
                </text>
            </g>
            <g data-plots-plot="20">
                <path id="Vector 60"  d="M1836.5 566.5L1716 550.5L1733.5 537L1849 553L1836.5 566.5Z" fill="#397D03" />
                <text id="20" fill="white" xml:space="preserve" style="white-space: pre" font-family="Montserrat" font-size="13" font-weight="500" letter-spacing="0.03em">
                    <tspan x="1775" y="553.66">20</tspan>
                </text>
            </g>
            <g data-plots-plot="24">
                <path id="Vector 61"  d="M1819.5 582L1697.5 564.5L1713.5 552L1835 568L1819.5 582Z" fill="#397D03" />
                <text id="24" fill="white" xml:space="preserve" style="white-space: pre" font-family="Montserrat" font-size="13" font-weight="500" letter-spacing="0.03em">
                    <tspan x="1756" y="569.66">24</tspan>
                </text>
            </g>
            <g data-plots-plot="28">
                <path id="Vector 62"  d="M1804 599L1680 578.5L1696 566L1818.5 583.5L1804 599Z" fill="#397D03" />
                <text id="28" fill="white" xml:space="preserve" style="white-space: pre" font-family="Montserrat" font-size="13" font-weight="500" letter-spacing="0.03em">
                    <tspan x="1742" y="585.66">28</tspan>
                </text>
            </g>
            <g data-plots-plot="27">
                <path id="Vector 85"  d="M1434.5 527.5L1353 514L1380 503L1460.5 515.5L1434.5 527.5Z" fill="#397D03" />
                <text id="27" fill="white" xml:space="preserve" style="white-space: pre" font-family="Montserrat" font-size="13" font-weight="500" letter-spacing="0.03em">
                    <tspan x="1394" y="518.66">27</tspan>
                </text>
            </g>
            <g data-plots-plot="23">
                <path id="Vector 86"  d="M1462.5 513.5L1383 502L1410 491L1486 503L1462.5 513.5Z" fill="#397D03" />
                <text id="23" fill="white" xml:space="preserve" style="white-space: pre" font-family="Montserrat" font-size="13" font-weight="500" letter-spacing="0.03em">
                    <tspan x="1423" y="506.66">23</tspan>
                </text>
            </g>
            <g data-plots-plot="19">
                <path id="Vector 87"  d="M1487 501.5L1412 491L1434.5 480.5L1511.5 491L1487 501.5Z" fill="#397D03" />
                <text id="19" fill="white" xml:space="preserve" style="white-space: pre" font-family="Montserrat" font-size="13" font-weight="500" letter-spacing="0.03em">
                    <tspan x="1449" y="494.66">19</tspan>
                </text>
            </g>
            <g data-plots-plot="15">
                <path id="Vector 88"  d="M1512 490L1437 479.5L1459 471L1533 479.5L1512 490Z" fill="#397D03" />
                <text id="15" fill="white" xml:space="preserve" style="white-space: pre" font-family="Montserrat" font-size="13" font-weight="500" letter-spacing="0.03em">
                    <tspan x="1473" y="483.66">15</tspan>
                </text>
            </g>
            <g data-plots-plot="11">
                <path id="Vector 89"  d="M1535 479L1463 469.5L1485 461L1548.5 469L1550 472L1535 479Z" fill="#397D03" />
                <text id="11" fill="white" xml:space="preserve" style="white-space: pre" font-family="Montserrat" font-size="13" font-weight="500" letter-spacing="0.03em">
                    <tspan x="1497" y="472.66">11</tspan>
                </text>
            </g>
            <g data-plots-plot="10">
                <path id="Vector 99"  d="M1658.5 485.5L1640.5 496L1557 485.5L1577 476H1593L1658.5 485.5Z" fill="#397D03" />
                <text id="10" fill="white" xml:space="preserve" style="white-space: pre" font-family="Montserrat" font-size="13" font-weight="500" letter-spacing="0.03em">
                    <tspan x="1600" y="488.66">10</tspan>
                </text>
            </g>
            <g data-plots-plot="9">
                <path id="Vector 100"  d="M1660 486.5L1742 497.5L1746 501L1733.5 509L1643.5 496.5L1660 486.5Z" fill="#397D03" />
                <text id="9" fill="white" xml:space="preserve" style="white-space: pre" font-family="Montserrat" font-size="13" font-weight="500" letter-spacing="0.03em">
                    <tspan x="1682" y="499.66">9</tspan>
                </text>
            </g>
            <g data-plots-plot="14">
                <path id="Vector 98"  d="M1641.5 497L1622 508L1536 495.5L1556 486.5L1641.5 497Z" fill="#397D03" />
                <text id="14" fill="white" xml:space="preserve" style="white-space: pre" font-family="Montserrat" font-size="13" font-weight="500" letter-spacing="0.03em">
                    <tspan x="1580" y="501.66">14</tspan>
                </text>
            </g>
            <g data-plots-plot="13">
                <path id="Vector 101"  d="M1731.5 510L1716.5 521.5L1626 508L1642 498L1731.5 510Z" fill="#397D03" />
                <text id="13" fill="white" xml:space="preserve" style="white-space: pre" font-family="Montserrat" font-size="13" font-weight="500" letter-spacing="0.03em">
                    <tspan x="1665" y="512.66">13</tspan>
                </text>
            </g>
            <g data-plots-plot="18">
                <path id="Vector 97"  d="M1622.5 508.5L1602 520L1509 508.5L1534 497L1622.5 508.5Z" fill="#397D03" />
                <text id="18" fill="white" xml:space="preserve" style="white-space: pre" font-family="Montserrat" font-size="13" font-weight="500" letter-spacing="0.03em">
                    <tspan x="1557" y="511.66">18</tspan>
                </text>
            </g>
            <g data-plots-plot="17">
                <path id="Vector 102"  d="M1714 522.5L1698 534L1604 520.5L1623 510L1714 522.5Z" fill="#397D03" />
                <text id="17" fill="white" xml:space="preserve" style="white-space: pre" font-family="Montserrat" font-size="13" font-weight="500" letter-spacing="0.03em">
                    <tspan x="1649" y="524.66">17</tspan>
                </text>
            </g>
            <g data-plots-plot="22">
                <path id="Vector 96"  d="M1598.5 521L1578 534L1482 522.5L1507 509L1598.5 521Z" fill="#397D03" />
                <text id="22" fill="white" xml:space="preserve" style="white-space: pre" font-family="Montserrat" font-size="13" font-weight="500" letter-spacing="0.03em">
                    <tspan x="1531" y="524.66">22</tspan>
                </text>
            </g>
            <g data-plots-plot="21">
                <path id="Vector 103"  d="M1696.5 535.5L1680 548L1580 534.5L1602 522L1696.5 535.5Z" fill="#397D03" />
                <text id="21" fill="white" xml:space="preserve" style="white-space: pre" font-family="Montserrat" font-size="13" font-weight="500" letter-spacing="0.03em">
                    <tspan x="1627" y="539.66">21</tspan>
                </text>
            </g>
            <g data-plots-plot="26">
                <path id="Vector 95"  d="M1574.5 535L1550 550.5L1455 536L1480 523L1574.5 535Z" fill="#397D03" />
                <text id="26" fill="white" xml:space="preserve" style="white-space: pre" font-family="Montserrat" font-size="13" font-weight="500" letter-spacing="0.03em">
                    <tspan x="1506" y="540.66">26</tspan>
                </text>
            </g>
            <g data-plots-plot="25">
                <path id="Vector 104"  d="M1678 549.5L1653.5 566.5L1553.5 551L1577.5 536.5L1678 549.5Z" fill="#397D03" />
                <text id="25" fill="white" xml:space="preserve" style="white-space: pre" font-family="Montserrat" font-size="13" font-weight="500" letter-spacing="0.03em">
                    <tspan x="1603" y="553.66">25</tspan>
                </text>
            </g>
        </g>
    </g>
</svg>