<svg xmlns="http://www.w3.org/2000/svg" width="124.745" height="115.694" viewBox="0 0 124.745 115.694">
    <defs>
        <style>
            .cls-1,.cls-2,.cls-3,.cls-4{fill:#28613d}.cls-2{font-size:10px;font-family:ArialMT,Arial}.cls-3{font-size:12px;font-family:Lora-Bold,Lora;font-weight:700;letter-spacing:.03em}.cls-4{font-size:11px;font-family:OpenSans,Open Sans;letter-spacing:.068em}
        </style>
    </defs>
    <g id="Group_961" data-name="Group 961" transform="translate(-482 -6337)">
        <g id="Group_948" data-name="Group 948" transform="translate(482 6337)">
            <g id="Group_929" data-name="Group 929">
                <path id="Path_1273" d="M257.8 818.089s-.4 3.693 1.205 6.245c1.493 2.376 3.276 3.945 4.264 3.687a41.6 41.6 0 0 1-4.109-7.328 67.486 67.486 0 0 1 4.631 6.993c.661-.778.012-3.052-1.481-5.428-1.11-1.758-4.51-4.169-4.51-4.169z" class="cls-1" data-name="Path 1273" transform="translate(-212.261 -718.11)"/>
                <path id="Path_1274" d="M238.4 864.229s1.96-3.154 4.8-4.177c2.64-.951 5.011-1.089 5.63-.277a41.584 41.584 0 0 0-7.751 3.241 67.517 67.517 0 0 0 7.955-2.656c.041 1.02-1.871 2.412-4.511 3.364-1.957.704-6.123.505-6.123.505z" class="cls-1" data-name="Path 1274" transform="translate(-197.941 -748.561)"/>
                <path id="Path_1275" d="M240.984 825.488a6.682 6.682 0 0 0 .061 3.777c.628 1.543 1.509 2.645 2.114 2.6a24.714 24.714 0 0 1-1.647-4.71 40.093 40.093 0 0 1 1.987 4.568c.467-.387.322-1.784-.306-3.328a13.043 13.043 0 0 0-2.209-2.907z" class="cls-1" data-name="Path 1275" transform="translate(-199.664 -723.584)"/>
                <path id="Path_1276" d="M225.928 852.358a6.682 6.682 0 0 1 3.236-1.948c1.642-.284 3.043-.12 3.321.418a24.706 24.706 0 0 0-4.868 1.1 40.142 40.142 0 0 0 4.927-.733c-.081.6-1.343 1.218-2.985 1.5a13.03 13.03 0 0 1-3.631-.337z" class="cls-1" data-name="Path 1276" transform="translate(-188.713 -741.923)"/>
                <path id="Path_1277" d="M215.178 795.716s-1.341 3.464-.452 6.345c.827 2.681 2.144 4.658 3.165 4.665a41.6 41.6 0 0 1-2.072-8.142 67.529 67.529 0 0 1 2.663 7.953c.84-.58.8-2.945-.025-5.626-.614-1.986-3.279-5.195-3.279-5.195z" class="cls-1" data-name="Path 1277" transform="translate(-180.199 -701.555)"/>
                <path id="Path_1278" d="M182.86 840.818s2.71-2.54 5.714-2.793c2.8-.236 5.122.245 5.51 1.189a41.6 41.6 0 0 0-8.326 1.125 67.477 67.477 0 0 0 8.372-.506c-.224 1-2.431 1.846-5.227 2.081-2.07.175-6.043-1.096-6.043-1.096z" class="cls-1" data-name="Path 1278" transform="translate(-156.845 -732.817)"/>
                <path id="Path_1279" d="M197.062 798.667a6.682 6.682 0 0 0-.919 3.664c.208 1.653.773 2.946 1.37 3.055a24.71 24.71 0 0 1-.372-4.976 40.116 40.116 0 0 1 .737 4.926c.551-.253.773-1.64.565-3.294a13.041 13.041 0 0 0-1.381-3.375z" class="cls-1" data-name="Path 1279" transform="translate(-166.652 -703.738)"/>
                <path id="Path_1280" d="M176.022 823.256a6.681 6.681 0 0 1 3.63-1.044c1.66.15 2.971.671 3.1 1.264a24.681 24.681 0 0 0-4.986-.2 40.137 40.137 0 0 0 4.949.567c-.234.559-1.612.829-3.272.678a13.032 13.032 0 0 1-3.421-1.265z" class="cls-1" data-name="Path 1280" transform="translate(-151.785 -721.149)"/>
                <path id="Path_1281" d="M177.987 763.6s-2.192 3-2.079 6.011c.105 2.8.865 5.054 1.85 5.325a41.608 41.608 0 0 1 .106-8.4 67.514 67.514 0 0 1 .514 8.371c.962-.344 1.537-2.637 1.432-5.441-.08-2.077-1.823-5.866-1.823-5.866z" class="cls-1" data-name="Path 1281" transform="translate(-151.697 -677.791)"/>
                <path id="Path_1282" d="M136.844 802.327s3.275-1.752 6.243-1.219c2.762.5 4.884 1.562 5.014 2.575a41.6 41.6 0 0 0-8.333-1.068 67.564 67.564 0 0 0 8.217 1.678c-.474.9-2.826 1.154-5.588.658-2.045-.368-5.553-2.624-5.553-2.624z" class="cls-1" data-name="Path 1282" transform="translate(-122.795 -705.47)"/>
                <path id="Path_1283" d="M160.7 761.9a6.681 6.681 0 0 0-1.836 3.3c-.228 1.651-.016 3.045.533 3.305a24.7 24.7 0 0 1 .928-4.9 40.1 40.1 0 0 1-.563 4.949c.6-.1 1.171-1.384 1.4-3.035a13.033 13.033 0 0 0-.462-3.619z" class="cls-1" data-name="Path 1283" transform="translate(-139.019 -676.534)"/>
                <path id="Path_1284" d="M136.1 781.491a6.68 6.68 0 0 1 3.777-.069c1.564.575 2.7 1.417 2.667 2.023a24.728 24.728 0 0 0-4.764-1.484 40.012 40.012 0 0 0 4.633 1.829c-.371.48-1.772.383-3.336-.192a13.037 13.037 0 0 1-2.977-2.107z" class="cls-1" data-name="Path 1284" transform="translate(-122.248 -690.787)"/>
                <path id="Path_1285" d="M148.727 723.928s-2.893 2.329-3.564 5.268c-.624 2.736-.473 5.106.408 5.622a41.6 41.6 0 0 1 2.277-8.087 67.539 67.539 0 0 1-1.67 8.219c1.018-.083 2.167-2.15 2.791-4.885.461-2.026-.242-6.137-.242-6.137z" class="cls-1" data-name="Path 1285" transform="translate(-128.67 -648.435)"/>
                <path id="Path_1286" d="M103.486 752.006s3.617-.845 6.345.438c2.539 1.194 4.314 2.773 4.177 3.785a41.607 41.607 0 0 0-7.773-3.189 67.484 67.484 0 0 0 7.5 3.747c-.692.75-3.028.383-5.568-.811-1.876-.884-4.681-3.97-4.681-3.97z" class="cls-1" data-name="Path 1286" transform="translate(-98.112 -669.009)"/>
                <path id="Path_1287" d="M134.049 717.7a6.683 6.683 0 0 0-2.628 2.714c-.647 1.536-.8 2.938-.341 3.33a24.7 24.7 0 0 1 2.165-4.5 40.094 40.094 0 0 1-1.825 4.635c.6.056 1.489-1.034 2.137-2.57a13.044 13.044 0 0 0 .492-3.609z" class="cls-1" data-name="Path 1287" transform="translate(-118.334 -643.825)"/>
                <path id="Path_1288" d="M108.9 729.722a6.682 6.682 0 0 1 3.666.911c1.362.96 2.237 2.067 2.053 2.644a24.705 24.705 0 0 0-4.217-2.667 40.084 40.084 0 0 0 4 2.966c-.482.368-1.811-.088-3.173-1.049a13.035 13.035 0 0 1-2.329-2.805z" class="cls-1" data-name="Path 1288" transform="translate(-102.115 -652.719)"/>
                <path id="Path_1289" d="M129.417 679.406s-3.4 1.5-4.806 4.166c-1.311 2.481-1.778 4.81-1.061 5.536a41.61 41.61 0 0 1 4.292-7.223 67.5 67.5 0 0 1-3.741 7.506c1 .184 2.65-1.516 3.961-4 .97-1.832 1.355-5.985 1.355-5.985z" class="cls-1" data-name="Path 1289" transform="translate(-112.71 -615.492)"/>
                <path id="Path_1290" d="M85.06 692.663s3.712.12 6.016 2.065c2.144 1.811 3.449 3.795 3.055 4.737a41.61 41.61 0 0 0-6.683-5.092 67.477 67.477 0 0 0 6.278 5.561c-.863.546-3.024-.414-5.168-2.224-1.587-1.339-3.498-5.047-3.498-5.047z" class="cls-1" data-name="Path 1290" transform="translate(-84.478 -625.301)"/>
                <path id="Path_1291" d="M119.639 669.067a6.681 6.681 0 0 0-3.241 1.941c-1.023 1.316-1.536 2.63-1.191 3.129a24.706 24.706 0 0 1 3.255-3.782 40.122 40.122 0 0 1-2.962 4c.568.211 1.706-.613 2.729-1.929a13.039 13.039 0 0 0 1.41-3.359z" class="cls-1" data-name="Path 1291" transform="translate(-106.706 -607.841)"/>
                <path id="Path_1292" d="M96.251 671.8a6.683 6.683 0 0 1 3.306 1.828c1.067 1.28 1.626 2.575 1.3 3.086a24.717 24.717 0 0 0-3.384-3.667 40.1 40.1 0 0 0 3.1 3.9c-.561.23-1.726-.554-2.793-1.834a13.034 13.034 0 0 1-1.529-3.313z" class="cls-1" data-name="Path 1292" transform="translate(-92.759 -609.864)"/>
                <path id="Path_1293" d="M122.519 633.067s-3.67.57-5.72 2.78c-1.909 2.057-2.963 4.186-2.458 5.073a41.627 41.627 0 0 1 6.015-5.866 67.5 67.5 0 0 1-5.556 6.283c.923.437 2.952-.778 4.86-2.835 1.412-1.523 2.859-5.435 2.859-5.435z" class="cls-1" data-name="Path 1293" transform="translate(-106.051 -581.203)"/>
                <path id="Path_1294" d="M82.822 629.823s3.554 1.077 5.276 3.552c1.6 2.3 2.349 4.558 1.725 5.366a41.615 41.615 0 0 0-5.137-6.648 67.545 67.545 0 0 0 4.624 7c-.975.3-2.814-1.183-4.416-3.486-1.186-1.707-2.072-5.784-2.072-5.784z" class="cls-1" data-name="Path 1294" transform="translate(-82.822 -578.803)"/>
                <path id="Path_1295" d="M118.8 619.323a6.68 6.68 0 0 0-3.633 1.036c-1.328 1.006-2.164 2.143-1.96 2.714a24.7 24.7 0 0 1 4.123-2.811 40.1 40.1 0 0 1-3.9 3.1c.494.351 1.807-.151 3.135-1.157a13.044 13.044 0 0 0 2.235-2.882z" class="cls-1" data-name="Path 1295" transform="translate(-105.285 -571.034)"/>
                <path id="Path_1296" d="M99.031 612.569a6.683 6.683 0 0 1 2.72 2.622c.7 1.513.9 2.908.455 3.317a24.691 24.691 0 0 0-2.319-4.418 40.116 40.116 0 0 0 1.983 4.569c-.6.077-1.524-.982-2.223-2.495a13.029 13.029 0 0 1-.616-3.595z" class="cls-1" data-name="Path 1296" transform="translate(-94.816 -566.036)"/>
                <path id="Path_1297" d="M128.913 587.943s-3.693-.4-6.245 1.205c-2.376 1.493-3.945 3.276-3.687 4.264a41.6 41.6 0 0 1 7.328-4.109 67.49 67.49 0 0 1-6.993 4.631c.778.661 3.053.012 5.428-1.481 1.756-1.106 4.169-4.51 4.169-4.51z" class="cls-1" data-name="Path 1297" transform="translate(-109.557 -547.781)"/>
                <path id="Path_1298" d="M96.85 568.546s3.155 1.96 4.177 4.8c.952 2.64 1.089 5.011.277 5.63a41.591 41.591 0 0 0-3.241-7.751 67.506 67.506 0 0 0 2.656 7.955c-1.02.041-2.412-1.871-3.364-4.511-.704-1.957-.505-6.123-.505-6.123z" class="cls-1" data-name="Path 1298" transform="translate(-93.183 -533.461)"/>
                <path id="Path_1299" d="M131.715 571.13a6.683 6.683 0 0 0-3.777.061c-1.543.628-2.645 1.509-2.6 2.114a24.715 24.715 0 0 1 4.71-1.647 40.064 40.064 0 0 1-4.568 1.987c.387.467 1.784.322 3.328-.306a13.038 13.038 0 0 0 2.907-2.209z" class="cls-1" data-name="Path 1299" transform="translate(-114.283 -535.184)"/>
                <path id="Path_1300" d="M115.955 556.074a6.682 6.682 0 0 1 1.948 3.236c.284 1.642.12 3.043-.418 3.321a24.725 24.725 0 0 0-1.1-4.868 40.07 40.07 0 0 0 .733 4.927c-.6-.081-1.218-1.343-1.5-2.985a13.039 13.039 0 0 1 .337-3.631z" class="cls-1" data-name="Path 1300" transform="translate(-107.054 -524.233)"/>
                <path id="Path_1301" d="M148.3 545.324s-3.463-1.341-6.344-.452c-2.681.827-4.659 2.144-4.665 3.165a41.592 41.592 0 0 1 8.142-2.072 67.578 67.578 0 0 1-7.953 2.663c.58.84 2.945.8 5.627-.026 1.984-.613 5.193-3.278 5.193-3.278z" class="cls-1" data-name="Path 1301" transform="translate(-123.126 -515.719)"/>
                <path id="Path_1302" d="M123.24 513.006s2.54 2.71 2.793 5.714c.236 2.8-.245 5.122-1.189 5.51a41.6 41.6 0 0 0-1.125-8.326 67.5 67.5 0 0 0 .506 8.372c-1-.224-1.846-2.431-2.081-5.227-.175-2.07 1.096-6.043 1.096-6.043z" class="cls-1" data-name="Path 1302" transform="translate(-111.906 -492.364)"/>
                <path id="Path_1303" d="M157.556 527.208a6.683 6.683 0 0 0-3.664-.919c-1.654.208-2.946.773-3.055 1.37a24.717 24.717 0 0 1 4.976-.372 40.112 40.112 0 0 1-4.926.737c.253.551 1.64.773 3.294.565a13.042 13.042 0 0 0 3.375-1.381z" class="cls-1" data-name="Path 1303" transform="translate(-133.149 -502.172)"/>
                <path id="Path_1304" d="M145.356 506.168a6.682 6.682 0 0 1 1.045 3.63c-.151 1.66-.671 2.971-1.264 3.1a24.72 24.72 0 0 0 .2-4.986 40.054 40.054 0 0 0-.567 4.949c-.56-.234-.829-1.612-.678-3.272a13.038 13.038 0 0 1 1.264-3.421z" class="cls-1" data-name="Path 1304" transform="translate(-128.128 -487.305)"/>
                <path id="Path_1305" d="M179.486 508.133s-3-2.192-6.011-2.079c-2.8.105-5.055.865-5.325 1.849a41.617 41.617 0 0 1 8.4.106 67.529 67.529 0 0 1-8.371.514c.343.962 2.637 1.537 5.441 1.432 2.08-.079 5.866-1.822 5.866-1.822z" class="cls-1" data-name="Path 1305" transform="translate(-145.96 -487.217)"/>
                <path id="Path_1306" d="M161.081 466.99s1.752 3.275 1.219 6.243c-.5 2.762-1.562 4.884-2.575 5.014a41.592 41.592 0 0 0 1.068-8.333 67.514 67.514 0 0 0-1.677 8.217c-.9-.474-1.154-2.826-.658-5.588.368-2.043 2.623-5.553 2.623-5.553z" class="cls-1" data-name="Path 1306" transform="translate(-138.603 -458.315)"/>
                <path id="Path_1307" d="M194.508 490.842a6.681 6.681 0 0 0-3.3-1.836c-1.651-.228-3.045-.016-3.305.533a24.7 24.7 0 0 1 4.9.928 40.106 40.106 0 0 1-4.949-.563c.1.6 1.384 1.171 3.035 1.4a13.035 13.035 0 0 0 3.619-.462z" class="cls-1" data-name="Path 1307" transform="translate(-160.541 -474.539)"/>
                <path id="Path_1308" d="M185.507 466.25a6.683 6.683 0 0 1 .069 3.777c-.575 1.564-1.418 2.7-2.023 2.667a24.7 24.7 0 0 0 1.484-4.764 40.083 40.083 0 0 0-1.829 4.633c-.48-.371-.383-1.772.192-3.336a13.037 13.037 0 0 1 2.107-2.977z" class="cls-1" data-name="Path 1308" transform="translate(-156.875 -457.768)"/>
                <path id="Path_1309" d="M220.051 478.873s-2.329-2.893-5.268-3.564c-2.736-.624-5.106-.473-5.622.408a41.6 41.6 0 0 1 8.087 2.277 67.537 67.537 0 0 1-8.219-1.67c.083 1.018 2.15 2.167 4.886 2.791 2.024.461 6.136-.242 6.136-.242z" class="cls-1" data-name="Path 1309" transform="translate(-176.208 -464.19)"/>
                <path id="Path_1310" d="M207.845 433.632s.844 3.617-.438 6.345c-1.194 2.539-2.773 4.314-3.785 4.177a41.626 41.626 0 0 0 3.189-7.773 67.512 67.512 0 0 0-3.747 7.5c-.751-.692-.383-3.028.811-5.568.883-1.876 3.97-4.681 3.97-4.681z" class="cls-1" data-name="Path 1310" transform="translate(-171.506 -433.632)"/>
                <path id="Path_1311" d="M240.043 464.2a6.681 6.681 0 0 0-2.714-2.628c-1.536-.647-2.938-.8-3.33-.341a24.718 24.718 0 0 1 4.5 2.165 40.061 40.061 0 0 1-4.635-1.825c-.057.6 1.034 1.489 2.57 2.137a13.045 13.045 0 0 0 3.609.492z" class="cls-1" data-name="Path 1311" transform="translate(-194.58 -453.854)"/>
                <path id="Path_1312" d="M234.279 439.042a6.682 6.682 0 0 1-.911 3.666c-.96 1.362-2.067 2.237-2.645 2.053a24.707 24.707 0 0 0 2.667-4.217 40.11 40.11 0 0 0-2.966 4c-.368-.482.088-1.811 1.049-3.173a13.038 13.038 0 0 1 2.806-2.329z" class="cls-1" data-name="Path 1312" transform="translate(-191.946 -437.635)"/>
                <path id="Path_1313" d="M369.632 818.089s.4 3.693-1.205 6.245c-1.493 2.376-3.276 3.945-4.264 3.687a41.6 41.6 0 0 0 4.109-7.328 67.488 67.488 0 0 0-4.63 6.993c-.661-.778-.012-3.052 1.481-5.428 1.105-1.758 4.509-4.169 4.509-4.169z" class="cls-1" data-name="Path 1313" transform="translate(-290.422 -718.11)"/>
                <path id="Path_1314" d="M376.686 864.229s-1.96-3.154-4.8-4.177c-2.64-.951-5.011-1.089-5.63-.277a41.588 41.588 0 0 1 7.751 3.241 67.532 67.532 0 0 1-7.955-2.656c-.042 1.02 1.871 2.412 4.51 3.364 1.957.704 6.124.505 6.124.505z" class="cls-1" data-name="Path 1314" transform="translate(-292.399 -748.561)"/>
                <path id="Path_1315" d="M395.687 825.488a6.68 6.68 0 0 1-.061 3.777c-.628 1.543-1.509 2.645-2.114 2.6a24.714 24.714 0 0 0 1.648-4.71 40.127 40.127 0 0 0-1.987 4.568c-.467-.387-.322-1.784.306-3.328a13.044 13.044 0 0 1 2.208-2.907z" class="cls-1" data-name="Path 1315" transform="translate(-312.262 -723.584)"/>
                <path id="Path_1316" d="M400.58 852.358a6.682 6.682 0 0 0-3.236-1.948c-1.642-.284-3.043-.12-3.321.418a24.7 24.7 0 0 1 4.868 1.1 40.148 40.148 0 0 1-4.927-.733c.081.6 1.343 1.218 2.985 1.5a13.03 13.03 0 0 0 3.631-.337z" class="cls-1" data-name="Path 1316" transform="translate(-313.05 -741.923)"/>
                <path id="Path_1317" d="M416.863 795.716s1.341 3.464.452 6.345c-.827 2.681-2.144 4.658-3.165 4.665a41.608 41.608 0 0 0 2.072-8.142 67.468 67.468 0 0 0-2.663 7.953c-.84-.58-.8-2.945.025-5.626.616-1.986 3.279-5.195 3.279-5.195z" class="cls-1" data-name="Path 1317" transform="translate(-327.097 -701.555)"/>
                <path id="Path_1318" d="M430.409 840.818s-2.71-2.54-5.714-2.793c-2.8-.236-5.122.245-5.51 1.189a41.6 41.6 0 0 1 8.326 1.125 67.473 67.473 0 0 1-8.371-.506c.224 1 2.431 1.846 5.227 2.081 2.069.175 6.042-1.096 6.042-1.096z" class="cls-1" data-name="Path 1318" transform="translate(-331.679 -732.817)"/>
                <path id="Path_1319" d="M441.428 798.667a6.682 6.682 0 0 1 .919 3.664c-.208 1.653-.773 2.946-1.37 3.055a24.7 24.7 0 0 0 .372-4.976 40.125 40.125 0 0 0-.737 4.926c-.551-.253-.773-1.64-.565-3.294a13.042 13.042 0 0 1 1.381-3.375z" class="cls-1" data-name="Path 1319" transform="translate(-347.093 -703.738)"/>
                <path id="Path_1320" d="M450.163 823.256a6.68 6.68 0 0 0-3.63-1.044c-1.66.15-2.971.671-3.1 1.264a24.681 24.681 0 0 1 4.986-.2 40.135 40.135 0 0 1-4.949.567c.234.559 1.612.829 3.272.678a13.032 13.032 0 0 0 3.421-1.265z" class="cls-1" data-name="Path 1320" transform="translate(-349.655 -721.149)"/>
                <path id="Path_1321" d="M456.2 763.6s2.192 3 2.079 6.011c-.105 2.8-.865 5.054-1.849 5.325a41.6 41.6 0 0 0-.106-8.4 67.505 67.505 0 0 0-.514 8.371c-.962-.344-1.537-2.637-1.432-5.441.082-2.077 1.822-5.866 1.822-5.866z" class="cls-1" data-name="Path 1321" transform="translate(-357.747 -677.791)"/>
                <path id="Path_1322" d="M476.462 802.327s-3.275-1.752-6.243-1.219c-2.762.5-4.884 1.562-5.014 2.575a41.608 41.608 0 0 1 8.333-1.068 67.567 67.567 0 0 1-8.217 1.678c.474.9 2.826 1.154 5.588.658 2.044-.368 5.553-2.624 5.553-2.624z" class="cls-1" data-name="Path 1322" transform="translate(-365.765 -705.47)"/>
                <path id="Path_1323" d="M477.767 761.9a6.683 6.683 0 0 1 1.836 3.3c.228 1.651.015 3.045-.533 3.305a24.723 24.723 0 0 0-.928-4.9 40.152 40.152 0 0 0 .563 4.949c-.6-.1-1.171-1.384-1.4-3.035a13.032 13.032 0 0 1 .462-3.619z" class="cls-1" data-name="Path 1323" transform="translate(-374.698 -676.534)"/>
                <path id="Path_1324" d="M490.894 781.491a6.68 6.68 0 0 0-3.777-.069c-1.564.575-2.7 1.417-2.667 2.023a24.717 24.717 0 0 1 4.764-1.484 40.041 40.041 0 0 1-4.633 1.829c.371.48 1.772.383 3.336-.192a13.036 13.036 0 0 0 2.977-2.107z" class="cls-1" data-name="Path 1324" transform="translate(-380.004 -690.787)"/>
                <path id="Path_1325" d="M484.253 723.928s2.893 2.329 3.564 5.268c.624 2.736.473 5.106-.408 5.622a41.6 41.6 0 0 0-2.277-8.087 67.5 67.5 0 0 0 1.671 8.219c-1.018-.083-2.167-2.15-2.791-4.885-.462-2.026.241-6.137.241-6.137z" class="cls-1" data-name="Path 1325" transform="translate(-379.565 -648.435)"/>
                <path id="Path_1326" d="M511.889 752.006s-3.617-.845-6.346.438c-2.539 1.194-4.313 2.773-4.177 3.785a41.607 41.607 0 0 1 7.773-3.189 67.491 67.491 0 0 1-7.5 3.747c.692.75 3.028.383 5.568-.811 1.876-.884 4.682-3.97 4.682-3.97z" class="cls-1" data-name="Path 1326" transform="translate(-392.517 -669.009)"/>
                <path id="Path_1327" d="M502.081 717.7a6.683 6.683 0 0 1 2.628 2.714c.647 1.536.8 2.938.341 3.33a24.7 24.7 0 0 0-2.166-4.5 40.144 40.144 0 0 0 1.825 4.635c-.6.056-1.489-1.034-2.136-2.57a13.038 13.038 0 0 1-.492-3.609z" class="cls-1" data-name="Path 1327" transform="translate(-393.051 -643.825)"/>
                <path id="Path_1328" d="M520.1 729.722a6.681 6.681 0 0 0-3.666.911c-1.362.96-2.237 2.067-2.053 2.644a24.7 24.7 0 0 1 4.217-2.667 40.057 40.057 0 0 1-4 2.966c.482.368 1.811-.088 3.173-1.049a13.037 13.037 0 0 0 2.329-2.805z" class="cls-1" data-name="Path 1328" transform="translate(-402.133 -652.719)"/>
                <path id="Path_1329" d="M498.269 679.406s3.4 1.5 4.806 4.166c1.311 2.481 1.778 4.81 1.061 5.536a41.611 41.611 0 0 0-4.292-7.223 67.5 67.5 0 0 0 3.741 7.506c-1 .184-2.65-1.516-3.96-4-.971-1.832-1.356-5.985-1.356-5.985z" class="cls-1" data-name="Path 1329" transform="translate(-390.231 -615.492)"/>
                <path id="Path_1330" d="M534.267 692.663s-3.712.12-6.016 2.065c-2.144 1.811-3.449 3.795-3.055 4.737a41.617 41.617 0 0 1 6.683-5.092 67.489 67.489 0 0 1-6.278 5.561c.863.546 3.024-.414 5.168-2.224 1.587-1.339 3.498-5.047 3.498-5.047z" class="cls-1" data-name="Path 1330" transform="translate(-410.104 -625.301)"/>
                <path id="Path_1331" d="M512.782 669.067a6.68 6.68 0 0 1 3.24 1.941c1.023 1.316 1.536 2.63 1.191 3.129a24.693 24.693 0 0 0-3.255-3.782 40.16 40.16 0 0 0 2.962 4c-.568.211-1.706-.613-2.728-1.929a13.033 13.033 0 0 1-1.41-3.359z" class="cls-1" data-name="Path 1331" transform="translate(-400.969 -607.841)"/>
                <path id="Path_1332" d="M535.719 671.8a6.683 6.683 0 0 0-3.306 1.828c-1.067 1.28-1.626 2.575-1.3 3.086a24.715 24.715 0 0 1 3.383-3.667 40.13 40.13 0 0 1-3.1 3.9c.561.23 1.726-.554 2.793-1.834a13.038 13.038 0 0 0 1.53-3.313z" class="cls-1" data-name="Path 1332" transform="translate(-414.466 -609.864)"/>
                <path id="Path_1333" d="M499.189 633.067s3.67.57 5.721 2.78c1.908 2.057 2.963 4.186 2.457 5.073a41.616 41.616 0 0 0-6.015-5.866 67.533 67.533 0 0 0 5.556 6.283c-.923.437-2.952-.778-4.86-2.835-1.412-1.523-2.859-5.435-2.859-5.435z" class="cls-1" data-name="Path 1333" transform="translate(-390.911 -581.203)"/>
                <path id="Path_1334" d="M541.968 629.823s-3.554 1.077-5.276 3.552c-1.6 2.3-2.349 4.558-1.725 5.366a41.6 41.6 0 0 1 5.137-6.648 67.491 67.491 0 0 1-4.624 7c.975.3 2.814-1.183 4.417-3.486 1.185-1.707 2.071-5.784 2.071-5.784z" class="cls-1" data-name="Path 1334" transform="translate(-417.223 -578.803)"/>
                <path id="Path_1335" d="M510.531 619.323a6.68 6.68 0 0 1 3.633 1.036c1.328 1.006 2.164 2.143 1.961 2.714a24.709 24.709 0 0 0-4.125-2.81 40.066 40.066 0 0 0 3.9 3.1c-.495.351-1.807-.151-3.135-1.157a13.039 13.039 0 0 1-2.234-2.883z" class="cls-1" data-name="Path 1335" transform="translate(-399.304 -571.034)"/>
                <path id="Path_1336" d="M536.593 612.569a6.682 6.682 0 0 0-2.72 2.622c-.7 1.513-.9 2.908-.455 3.317a24.713 24.713 0 0 1 2.319-4.418 40.074 40.074 0 0 1-1.983 4.569c.6.077 1.524-.982 2.224-2.495a13.035 13.035 0 0 0 .615-3.595z" class="cls-1" data-name="Path 1336" transform="translate(-416.063 -566.036)"/>
                <path id="Path_1337" d="M488.084 587.943s3.693-.4 6.245 1.205c2.376 1.493 3.945 3.276 3.687 4.264a41.6 41.6 0 0 0-7.328-4.109 67.489 67.489 0 0 0 6.993 4.631c-.778.661-3.053.012-5.428-1.481-1.759-1.106-4.169-4.51-4.169-4.51z" class="cls-1" data-name="Path 1337" transform="translate(-382.694 -547.781)"/>
                <path id="Path_1338" d="M534.224 568.546s-3.155 1.96-4.177 4.8c-.952 2.64-1.089 5.011-.277 5.63a41.59 41.59 0 0 1 3.241-7.751 67.49 67.49 0 0 1-2.656 7.955c1.02.041 2.412-1.871 3.364-4.511.704-1.957.505-6.123.505-6.123z" class="cls-1" data-name="Path 1338" transform="translate(-413.146 -533.461)"/>
                <path id="Path_1339" d="M495.483 571.13a6.682 6.682 0 0 1 3.777.061c1.543.628 2.645 1.509 2.6 2.114a24.716 24.716 0 0 0-4.71-1.647 40.081 40.081 0 0 0 4.568 1.987c-.387.467-1.784.322-3.328-.306a13.041 13.041 0 0 1-2.907-2.209z" class="cls-1" data-name="Path 1339" transform="translate(-388.169 -535.184)"/>
                <path id="Path_1340" d="M522.353 556.074a6.684 6.684 0 0 0-1.948 3.236c-.284 1.642-.12 3.043.418 3.321a24.722 24.722 0 0 1 1.1-4.868 40.082 40.082 0 0 1-.733 4.927c.6-.081 1.218-1.343 1.5-2.985a13.029 13.029 0 0 0-.337-3.631z" class="cls-1" data-name="Path 1340" transform="translate(-406.508 -524.233)"/>
                <path id="Path_1341" d="M465.711 545.324s3.463-1.341 6.345-.452c2.681.827 4.658 2.144 4.664 3.165a41.6 41.6 0 0 0-8.142-2.072 67.541 67.541 0 0 0 7.953 2.663c-.581.84-2.945.8-5.627-.026-1.984-.613-5.193-3.278-5.193-3.278z" class="cls-1" data-name="Path 1341" transform="translate(-366.139 -515.719)"/>
                <path id="Path_1342" d="M510.813 513.006s-2.54 2.71-2.793 5.714c-.236 2.8.245 5.122 1.189 5.51a41.6 41.6 0 0 1 1.125-8.326 67.492 67.492 0 0 1-.506 8.372c1-.224 1.846-2.431 2.081-5.227.175-2.07-1.096-6.043-1.096-6.043z" class="cls-1" data-name="Path 1342" transform="translate(-397.402 -492.364)"/>
                <path id="Path_1343" d="M468.662 527.208a6.683 6.683 0 0 1 3.664-.919c1.653.208 2.946.773 3.055 1.37a24.714 24.714 0 0 0-4.976-.372 40.1 40.1 0 0 0 4.926.737c-.253.551-1.64.773-3.294.565a13.043 13.043 0 0 1-3.375-1.381z" class="cls-1" data-name="Path 1343" transform="translate(-368.323 -502.172)"/>
                <path id="Path_1344" d="M493.251 506.168a6.68 6.68 0 0 0-1.044 3.63c.15 1.66.671 2.971 1.264 3.1a24.7 24.7 0 0 1-.2-4.986 40.155 40.155 0 0 1 .567 4.949c.559-.234.829-1.612.678-3.272a13.038 13.038 0 0 0-1.265-3.421z" class="cls-1" data-name="Path 1344" transform="translate(-385.734 -487.305)"/>
                <path id="Path_1345" d="M433.6 508.133s3-2.192 6.011-2.079c2.8.105 5.054.865 5.325 1.849a41.614 41.614 0 0 0-8.4.106 67.521 67.521 0 0 0 8.371.514c-.344.962-2.637 1.537-5.442 1.432-2.081-.079-5.865-1.822-5.865-1.822z" class="cls-1" data-name="Path 1345" transform="translate(-342.375 -487.217)"/>
                <path id="Path_1346" d="M472.322 466.99s-1.752 3.275-1.219 6.243c.5 2.762 1.562 4.884 2.575 5.014a41.613 41.613 0 0 1-1.068-8.333 67.557 67.557 0 0 1 1.678 8.217c.9-.474 1.154-2.826.658-5.588-.368-2.043-2.624-5.553-2.624-5.553z" class="cls-1" data-name="Path 1346" transform="translate(-370.055 -458.315)"/>
                <path id="Path_1347" d="M431.9 490.842a6.681 6.681 0 0 1 3.3-1.836c1.651-.228 3.045-.016 3.305.533a24.7 24.7 0 0 0-4.9.928 40.106 40.106 0 0 0 4.949-.563c-.1.6-1.384 1.171-3.035 1.4a13.032 13.032 0 0 1-3.619-.462z" class="cls-1" data-name="Path 1347" transform="translate(-341.119 -474.539)"/>
                <path id="Path_1348" d="M451.486 466.25a6.682 6.682 0 0 0-.069 3.777c.575 1.564 1.418 2.7 2.023 2.667a24.723 24.723 0 0 1-1.484-4.764 40.03 40.03 0 0 1 1.829 4.633c.48-.371.383-1.772-.192-3.336a13.038 13.038 0 0 0-2.107-2.977z" class="cls-1" data-name="Path 1348" transform="translate(-355.371 -457.768)"/>
                <path id="Path_1349" d="M393.923 478.873s2.329-2.893 5.268-3.564c2.736-.624 5.106-.473 5.622.408a41.593 41.593 0 0 0-8.087 2.277 67.547 67.547 0 0 0 8.219-1.67c-.083 1.018-2.15 2.167-4.885 2.791-2.026.461-6.137-.242-6.137-.242z" class="cls-1" data-name="Path 1349" transform="translate(-313.02 -464.19)"/>
                <path id="Path_1350" d="M422 433.632s-.845 3.617.438 6.345c1.194 2.539 2.773 4.314 3.785 4.177a41.611 41.611 0 0 1-3.189-7.773 67.511 67.511 0 0 1 3.747 7.5c.751-.692.383-3.028-.811-5.568-.883-1.876-3.97-4.681-3.97-4.681z" class="cls-1" data-name="Path 1350" transform="translate(-333.594 -433.632)"/>
                <path id="Path_1351" d="M390.07 464.2a6.681 6.681 0 0 1 2.714-2.628c1.536-.647 2.938-.8 3.33-.341a24.717 24.717 0 0 0-4.5 2.165 40.062 40.062 0 0 0 4.635-1.825c.057.6-1.034 1.489-2.57 2.137a13.045 13.045 0 0 1-3.609.492z" class="cls-1" data-name="Path 1351" transform="translate(-310.169 -453.854)"/>
                <path id="Path_1352" d="M399.717 439.042a6.682 6.682 0 0 0 .911 3.666c.96 1.362 2.067 2.237 2.645 2.053a24.71 24.71 0 0 1-2.667-4.217 40.115 40.115 0 0 1 2.966 4c.368-.482-.088-1.811-1.049-3.173a13.037 13.037 0 0 0-2.806-2.329z" class="cls-1" data-name="Path 1352" transform="translate(-317.304 -437.635)"/>
                <path id="Path_1353" d="M210.119 476.524a53.087 53.087 0 0 0-20.472-16.508v.687a57.194 57.194 0 0 1 19.981 16.2 54.021 54.021 0 0 1 10.682 40.237 54.566 54.566 0 0 1-53.9 47.258 55.278 55.278 0 0 1-7.241-.48 54.367 54.367 0 0 1-15.166-103.431v-.687a54.976 54.976 0 0 0 15.1 104.726 55.015 55.015 0 0 0 61.823-47.312 54.639 54.639 0 0 0-10.807-40.69z" class="cls-1" data-name="Path 1353" transform="translate(-103.964 -452.997)"/>
            </g>
            <text id="NAJWYŻSZEJ" class="cls-3" transform="translate(62.218 67.637)">
                <tspan x="-40.362" y="0">NAJWYŻSZEJ</tspan>
            </text>
            <text id="JAKOŚCI" class="cls-4" transform="translate(62.218 85.637)">
                <tspan x="-22.874" y="0">JAKOŚCI</tspan>
            </text>
            <text id="GWARANCJA" class="cls-4" transform="translate(62.218 49.637)">
                <tspan x="-35.014" y="0">GWARANCJA</tspan>
            </text>
        </g>
    </g>
</svg>
