<svg xmlns="http://www.w3.org/2000/svg" xmlns:xlink="http://www.w3.org/1999/xlink" width="128.84" height="166.069" viewBox="0 0 128.84 166.069">
  <defs>
    <linearGradient id="linear-gradient" x1="0.5" x2="0.5" y2="1" gradientUnits="objectBoundingBox">
      <stop offset="0" stop-color="#8b3b3b"/>
      <stop offset="1" stop-color="#782828"/>
    </linearGradient>
    <linearGradient id="linear-gradient-2" x1="0.5" x2="0.5" y2="1" gradientUnits="objectBoundingBox">
      <stop offset="0" stop-color="#cf903a"/>
      <stop offset="1" stop-color="#975904"/>
    </linearGradient>
    <linearGradient id="linear-gradient-3" x1="0.5" x2="0.5" y2="1" gradientUnits="objectBoundingBox">
      <stop offset="0" stop-color="#d49540"/>
      <stop offset="1" stop-color="#a47534"/>
    </linearGradient>
    <linearGradient id="linear-gradient-4" x1="0.5" x2="0.5" y2="1" gradientUnits="objectBoundingBox">
      <stop offset="0" stop-color="#d68f2d"/>
      <stop offset="1" stop-color="#87530b"/>
    </linearGradient>
  </defs>
  <g id="Group_962" data-name="Group 962" transform="translate(-347 -6337)">
    <path id="Path_1403" data-name="Path 1403" d="M445.461,121.406c-1.677,1.886-3.416,3.837-5.783,4.252-2.284.4-4.54-.816-6.718-1.991-1.674-.9-3.4-1.834-4.872-1.834s-3.2.932-4.87,1.834c-1.892,1.02-3.839,2.069-5.811,2.069a5.17,5.17,0,0,1-.909-.078c-2.367-.415-4.1-2.364-5.783-4.252a13.076,13.076,0,0,0-3.444-3.1v39.7l21.163-13.718,20.473,13.59V118.309A13.116,13.116,0,0,0,445.461,121.406Z" transform="translate(-16.669 6340.589)" fill="url(#linear-gradient)"/>
    <path id="Path_1404" data-name="Path 1404" d="M403.182,118.546v44.116l5.117-3.313V118.055a19.933,19.933,0,0,0-3.733.3Q403.876,118.456,403.182,118.546Z" transform="translate(-19.474 6340.407)" fill="#ab7935"/>
    <path id="Path_1407" data-name="Path 1407" d="M433.022,118.055v41.294l5.117,3.313V118.544c-.462-.057-.926-.121-1.386-.189A20.023,20.023,0,0,0,433.022,118.055Z" transform="translate(0.993 6340.407)" fill="#ab7935"/>
    <path id="Path_1408" data-name="Path 1408" d="M507.559,114.5c1.322-1.671,2.689-3.4,2.689-5.005s-1.367-3.335-2.691-5.007-2.694-3.409-3.034-5.349c-.351-2.008.356-4.147,1.044-6.216s1.335-4.034.813-5.467c-.538-1.48-2.32-2.576-4.208-3.738-1.831-1.128-3.726-2.294-4.724-4.019-1.01-1.748-1.079-3.989-1.143-6.155-.069-2.2-.131-4.274-1.124-5.457s-3.04-1.613-5.2-2.06c-2.119-.437-4.309-.89-5.85-2.183s-2.357-3.363-3.151-5.37c-.816-2.053-1.585-3.994-2.939-4.778a5.028,5.028,0,0,0-2.726-.472c-.288.012-.585.034-.888.064s-.587.064-.888.1q-.518.068-1.049.147a22.483,22.483,0,0,1-4.068.315,8.571,8.571,0,0,1-.888-.066,6.871,6.871,0,0,1-.889-.207c-.142-.039-.293-.049-.432-.1-1.861-.678-3.335-2.333-4.759-3.935-1.479-1.661-2.874-3.23-4.439-3.5-1.494-.258-3.294.715-5.209,1.748s-3.921,2.112-5.98,2.112-4.049-1.074-5.978-2.112-3.714-2-5.211-1.748c-1.563.275-2.959,1.843-4.436,3.5-1.426,1.6-2.9,3.259-4.763,3.937-.138.051-.288.059-.43.1a6.865,6.865,0,0,1-.888.207,8.605,8.605,0,0,1-.888.066,22.332,22.332,0,0,1-4.068-.315q-.534-.078-1.049-.147c-.3-.04-.6-.074-.89-.1s-.6-.052-.888-.064a5.028,5.028,0,0,0-2.726.472c-1.354.784-2.121,2.723-2.935,4.774-.8,2.008-1.617,4.083-3.154,5.371s-3.731,1.748-5.848,2.185c-2.158.445-4.2.867-5.2,2.058s-1.059,3.262-1.124,5.459c-.066,2.168-.133,4.407-1.145,6.153-1,1.726-2.893,2.893-4.726,4.021-1.887,1.162-3.67,2.257-4.208,3.738-.521,1.433.126,3.392.814,5.467s1.4,4.208,1.044,6.218c-.341,1.939-1.709,3.672-3.035,5.348s-2.691,3.4-2.691,5.007,1.367,3.335,2.689,5.005,2.7,3.409,3.036,5.349c.352,2.01-.357,4.149-1.044,6.218s-1.335,4.034-.814,5.467c.538,1.48,2.321,2.576,4.208,3.738,1.833,1.128,3.727,2.293,4.726,4.019,1.012,1.748,1.079,3.989,1.145,6.155.066,2.2.128,4.272,1.123,5.457s3.038,1.613,5.2,2.058c2.117.438,4.309.89,5.848,2.185s2.359,3.363,3.154,5.371c.814,2.052,1.581,3.992,2.935,4.776a5.043,5.043,0,0,0,2.726.472c.288-.013.585-.035.888-.066s.588-.064.89-.1q.516-.068,1.049-.147a25.656,25.656,0,0,1,3.623-.354c.152,0,.3.025.445.03.3.013.6.02.888.061a6.824,6.824,0,0,1,.888.216c.143.039.292.056.43.106,1.863.678,3.336,2.333,4.763,3.935,1.477,1.661,2.873,3.23,4.436,3.5,1.5.258,3.3-.715,5.211-1.747s3.92-2.114,5.978-2.114,4.051,1.076,5.98,2.114,3.719,2.006,5.209,1.747c1.564-.273,2.96-1.843,4.439-3.5,1.425-1.6,2.9-3.257,4.759-3.935.138-.051.29-.061.432-.1a6.533,6.533,0,0,1,.889-.206c.29-.042.59-.054.888-.067a22.492,22.492,0,0,1,4.068.315q.531.078,1.049.147c.3.04.6.076.888.1s.6.054.888.066a5.016,5.016,0,0,0,2.726-.472c1.354-.784,2.121-2.723,2.937-4.776.794-2.006,1.617-4.081,3.153-5.371s3.731-1.747,5.85-2.183c2.158-.447,4.2-.868,5.2-2.058s1.055-3.26,1.123-5.457c.066-2.166.133-4.409,1.145-6.157,1-1.725,2.893-2.89,4.724-4.017,1.887-1.162,3.67-2.259,4.208-3.739.523-1.433-.126-3.394-.813-5.469s-1.394-4.206-1.044-6.216C504.863,117.912,506.234,116.179,507.559,114.5Zm-32.242,42.572c-.295.184-.59.366-.888.543s-.592.342-.888.512a56.158,56.158,0,0,1-5.117,2.59c-.3.131-.588.271-.888.4s-.593.233-.889.351a55.806,55.806,0,0,1-41.636,0c-.295-.12-.6-.228-.888-.352s-.592-.266-.888-.4a55.513,55.513,0,0,1-5.117-2.59c-.3-.17-.6-.337-.89-.512s-.593-.359-.888-.543a55.949,55.949,0,0,1,0-95.156c.3-.182.59-.364.888-.543s.593-.342.89-.511a55.519,55.519,0,0,1,5.117-2.591c.3-.132.588-.271.888-.4s.593-.233.888-.351a55.8,55.8,0,0,1,41.636,0c.3.118.6.228.889.351s.592.268.888.4a55.725,55.725,0,0,1,5.117,2.59c.3.169.6.335.888.511s.593.361.888.543a55.949,55.949,0,0,1,0,95.156Z" transform="translate(-34.408 6290.997)" fill="url(#linear-gradient-2)"/>
    <path id="Path_1409" data-name="Path 1409" d="M471.446,59.725c-.3-.189-.588-.386-.888-.57s-.593-.347-.888-.521a54.786,54.786,0,0,0-5.117-2.652c-.3-.133-.59-.273-.888-.4s-.592-.25-.888-.373a54.777,54.777,0,0,0-41.636,0q-.445.182-.888.371c-.3.13-.593.268-.888.4a54.355,54.355,0,0,0-5.117,2.652c-.3.174-.6.341-.89.521s-.592.381-.888.57a54.84,54.84,0,0,0,0,92.556c.3.19.588.388.888.572s.593.347.89.521a54.771,54.771,0,0,0,5.117,2.652c.295.133.59.273.888.4s.592.25.888.373a54.767,54.767,0,0,0,41.636,0q.445-.182.888-.371c.3-.13.593-.268.888-.4a54.377,54.377,0,0,0,5.117-2.65c.295-.174.6-.342.888-.523s.592-.379.888-.57a54.84,54.84,0,0,0,0-92.556Zm0,89.52c-.292.2-.592.393-.888.587s-.59.384-.888.572a52.528,52.528,0,0,1-5.117,2.831c-.292.14-.593.268-.888.4s-.59.271-.888.4a52.227,52.227,0,0,1-41.636,0c-.3-.13-.593-.268-.888-.4s-.6-.261-.888-.4a52.324,52.324,0,0,1-5.117-2.831q-.448-.281-.89-.572c-.3-.194-.6-.386-.888-.587a52.312,52.312,0,0,1,0-86.484c.293-.2.592-.391.888-.587s.592-.383.89-.57a52,52,0,0,1,5.117-2.832c.292-.14.593-.266.888-.4s.59-.273.888-.4a52.236,52.236,0,0,1,41.636,0c.3.13.592.268.888.4s.6.261.888.4a52.182,52.182,0,0,1,5.117,2.831c.3.187.593.378.888.57s.6.388.888.587a52.31,52.31,0,0,1,0,86.484Z" transform="translate(-30.538 6294.491)" fill="url(#linear-gradient-3)"/>
    <path id="Path_1410" data-name="Path 1410" d="M469.995,62.566c-.3-.207-.587-.423-.888-.625s-.593-.381-.888-.572a51.5,51.5,0,0,0-5.117-2.9c-.293-.145-.592-.285-.888-.425s-.592-.27-.889-.4a51.152,51.152,0,0,0-41.636,0c-.3.133-.593.265-.888.4s-.6.28-.888.425a51.164,51.164,0,0,0-5.117,2.9c-.3.191-.6.374-.89.572s-.592.416-.888.625a51.265,51.265,0,0,0,0,83.972c.3.209.588.425.888.627s.593.379.89.57a51.179,51.179,0,0,0,5.117,2.9c.293.145.592.285.888.423s.592.271.888.4a51.161,51.161,0,0,0,41.636,0c.3-.133.594-.265.889-.4s.6-.278.888-.423a51.186,51.186,0,0,0,5.117-2.9c.3-.191.6-.373.888-.57s.592-.418.888-.627a51.265,51.265,0,0,0,0-83.972Zm-46.1,11.464c-.032-.047-2.055.582-4.2,1.2-.295.084-.593.169-.888.25s-.6.164-.888.241c-.518.137-1.012.263-1.452.362-2.426.465-3.114.143-2.972-.7a34.193,34.193,0,0,1,4.424-1.027c.295-.049.592-.1.888-.145s.593-.067.888-.1c.28-.03.558-.069.838-.094-.278,0-.56.034-.838.04-.295.007-.592.029-.888.042s-.592.02-.888.042a34.661,34.661,0,0,0-4.144.534c.511-.865,1.728-1.748,4.144-2.069.1-.013.19-.032.3-.044.2-.02.395-.01.592-.013a7.35,7.35,0,0,1,.888.032A10.411,10.411,0,0,1,423.891,74.03Zm4.149,67.145c-1.187.032-2.868-.555-4.645-2.571a8.545,8.545,0,0,1-1.87-5.43c-.069.056,3.783,3.057,6.108,5,1.972,1.78,2.158,2.529,1.253,2.856a29.279,29.279,0,0,1-5.536-5.118A28.638,28.638,0,0,0,428.04,141.175Zm-10.129-6.492c.275.58.568,1.158.888,1.731.271.487.556.971.862,1.452a3.314,3.314,0,0,1-.862-.305,4.46,4.46,0,0,1-.888-.614,7.858,7.858,0,0,1-1.814-2.525,8.894,8.894,0,0,1-.393-5.668c-.042.024,1.017,1.438,2.207,3.07.293.4.592.818.888,1.231q.468.655.888,1.268c.128.184.261.376.378.548,1.322,2.131,1.285,2.893.393,3.03-.271-.342-.519-.688-.77-1.035q-.468-.645-.888-1.3-.47-.728-.888-1.467c-.432-.762-.836-1.529-1.185-2.3A28.457,28.457,0,0,0,417.911,134.683ZM411.9,71.766c.1-.258.224-.539.373-.85a6.323,6.323,0,0,1,.518-.949,23.44,23.44,0,0,1,5.117-5.1,10.1,10.1,0,0,1,.888-.615c.051-.029.086-.044.093-.037s-.037.158-.093.381a23.731,23.731,0,0,1-.888,2.75,17.262,17.262,0,0,1-1.339,2.753c-1.433,2.333-2.458,3.368-3.48,3.786a32.889,32.889,0,0,1,3.293-6.55,33.415,33.415,0,0,0-3.591,5.808c-.153.315-.315.629-.457.944a.854.854,0,0,1-.433-.064C411.483,73.836,411.345,73.2,411.9,71.766Zm0,5.983.042-.015a6.417,6.417,0,0,1,.848-.209,9.531,9.531,0,0,1,4.8.474c-.04-.049-2.551,1.463-4.8,2.672-.305.164-.6.32-.89.467-.268.138-.534.275-.777.389-.04.019-.072.029-.111.046-2.1.9-2.824.728-2.876-.11.944-.543,1.907-1.018,2.876-1.455.295-.133.592-.244.888-.368s.593-.224.89-.337c.556-.212,1.109-.454,1.671-.632-.558.121-1.114.3-1.671.455-.3.083-.594.152-.89.243s-.592.179-.888.28c-.929.315-1.854.659-2.772,1.065a4.592,4.592,0,0,1,2.772-2.611C411.289,77.98,411.583,77.862,411.9,77.749Zm0,51.441a31.443,31.443,0,0,0,.89,3.625c.012.04.02.081.034.121l-.034-.019a3.137,3.137,0,0,1-.89-.649,4.927,4.927,0,0,1-.888-1.288,8.267,8.267,0,0,1,0-7.3c.125-.283.214-.447.212-.443-.027.01.265.706.676,1.7.263.632.575,1.386.89,2.166.415,1.033.831,2.107,1.136,3,.718,2.345.487,3.08-.371,3.028-.283-.654-.533-1.31-.765-1.967q-.523-1.472-.89-2.944c-.148-.6-.283-1.205-.394-1.806C411.6,127.331,411.733,128.258,411.9,129.191Zm-5.939-51.826c.526-3.163,4.491-7.961,4.587-7.89a20.974,20.974,0,0,1-.725,6.2c-.789,2.569-1.529,3.793-2.4,4.414a35.751,35.751,0,0,1,1.565-7.065,36.141,36.141,0,0,0-2.239,7.42C405.979,80.7,405.4,80.093,405.965,77.365Zm1.227,6.72a7.738,7.738,0,0,1,3.824-1.017c.342-.008.639,0,.888.015.453.03.749.079.743.079a7.6,7.6,0,0,0-.743.656c-.25.233-.551.511-.888.824-1.131,1.047-2.625,2.411-3.788,3.318-1.922,1.4-2.677,1.387-2.906.563a33.065,33.065,0,0,1,5.494-4.051,32.667,32.667,0,0,0-5.55,3.3C404.347,86.74,405.075,85.383,407.192,84.085Zm.347,42.631c-.811-.612-1.554-1.971-1.519-4.52a9.424,9.424,0,0,1,2.079-5.287c-.062.012.868,4.525,1.131,7.275.16,2.439-.233,3.105-1.037,2.878a34.3,34.3,0,0,1-.489-6.986A34.381,34.381,0,0,0,407.54,126.716Zm-3.744-7.18c-.659-.769-1.1-2.256-.553-4.741a7.912,7.912,0,0,1,1.226-2.713,9.854,9.854,0,0,1,1.849-2.023s-.025.657-.057,1.618c-.071,1.59-.052,4.033-.3,5.737-.349,2.418-.873,2.986-1.6,2.595a36.458,36.458,0,0,1,.949-6.934A36.3,36.3,0,0,0,403.8,119.535Zm-.947-10.935q-.683,1.5-1.253,3.119a3.2,3.2,0,0,1-.364-1.285,5.051,5.051,0,0,1,.047-1.183,7.063,7.063,0,0,1,.138-.693,10.007,10.007,0,0,1,.553-1.6,8.529,8.529,0,0,1,2.984-3.431,7.016,7.016,0,0,1,.927-.558,2.235,2.235,0,0,0-.111.428c-.126.565-.349,1.63-.62,2.819-.081.347-.164.706-.251,1.065-.192.8-.4,1.6-.61,2.3-.054.177-.106.349-.16.513q-.152.43-.3.774a6.121,6.121,0,0,1-.551,1.072c-.263.386-.509.556-.75.56a.576.576,0,0,1-.239-.051,1.023,1.023,0,0,1-.239-.153,37.19,37.19,0,0,1,2.269-6.59Q403.532,107.1,402.848,108.6ZM401.831,95.51c-.125-1.025.319-2.509,2.114-4.225a8.6,8.6,0,0,1,5.1-2.047c-.054-.039-2.541,3.775-4.284,5.831-1.6,1.774-2.342,1.924-2.728,1.165a34.615,34.615,0,0,1,4.542-5.122A33.848,33.848,0,0,0,401.831,95.51Zm.373,3.508a8.761,8.761,0,0,1,4.586-3.082c-.057-.025-1.74,4.232-3.062,6.615-1.229,2.077-1.93,2.379-2.45,1.718a36.307,36.307,0,0,1,3.464-5.976,35.558,35.558,0,0,0-3.8,5.309C400.626,102.624,400.778,101.078,402.2,99.018Zm1.79-22.7a20.635,20.635,0,0,1,.71,6.2c-.191,2.672-.649,4.024-1.366,4.813a38.976,38.976,0,0,1-.029-7.226,39.619,39.619,0,0,0-.55,7.715c-.695.41-1.381-.062-1.411-2.847C401.2,81.775,403.9,76.269,403.994,76.318Zm-4.773,8.05a20.294,20.294,0,0,1,1.983,5.914c.361,2.654.179,4.073-.364,5a40.959,40.959,0,0,1-1.487-7.062,41.943,41.943,0,0,0,1.018,7.662c-.6.548-1.36.231-1.94-2.488C397.662,90.287,399.132,84.338,399.222,84.368Zm-2.989,8.876a19.656,19.656,0,0,1,3.1,5.371c.867,2.522.956,3.952.6,4.97a41.2,41.2,0,0,1-2.81-6.6,42.428,42.428,0,0,0,2.465,7.29c-.486.664-1.288.513-2.374-2.028C395.873,99.367,396.145,93.234,396.233,93.244Zm-1.15,9.9c-.035-.243-.056-.42-.059-.511,0-.046,0-.069,0-.069a20.1,20.1,0,0,1,3.448,3.67c.212.3.415.615.6.937a15.717,15.717,0,0,1,1.069,2.192,6.805,6.805,0,0,1,.47,1.679,3.475,3.475,0,0,1-.015.873,40.137,40.137,0,0,1-4-5.875,41.308,41.308,0,0,0,3.788,6.622,1.057,1.057,0,0,1-.152.244.563.563,0,0,1-.45.212,1.152,1.152,0,0,1-.57-.226c-.046-.03-.091-.059-.142-.1a4.715,4.715,0,0,1-.625-.619,10.329,10.329,0,0,1-.769-1,7.488,7.488,0,0,1-.649-1.1,13.949,13.949,0,0,1-.558-1.318c-.152-.408-.288-.829-.416-1.253-.089-.3-.175-.593-.253-.887-.189-.71-.344-1.4-.464-2S395.135,103.511,395.083,103.147Zm.524,8.807a20.082,20.082,0,0,1,2.493,1.566,14.486,14.486,0,0,1,2.345,2.094c1.735,1.962,2.355,3.24,2.413,4.326a38.186,38.186,0,0,1-5.051-4.909,39.125,39.125,0,0,0,4.992,5.683c-.192.813-.993,1.006-2.947-.88a18.807,18.807,0,0,1-3.544-5.907C395.852,112.784,395.607,111.954,395.607,111.954Zm7.833,11.636c2.1,1.554,2.977,2.672,3.26,3.721a36.608,36.608,0,0,1-5.968-3.734,37.419,37.419,0,0,0,6.074,4.5c-.015.833-.769,1.194-3.087-.236-2.719-1.558-5.833-6.769-5.751-6.813A18.31,18.31,0,0,1,403.44,123.59Zm-1.325,5.826a18.767,18.767,0,0,1,5.943,1.339,13.514,13.514,0,0,1,2.959,1.683,4.734,4.734,0,0,1,.888.9,3.018,3.018,0,0,1,.224.354c-.074-.019-.148-.047-.224-.066-.3-.076-.592-.182-.888-.265a36.712,36.712,0,0,1-5.638-2.047,37.052,37.052,0,0,0,5.638,2.617c.295.108.592.211.888.312.17.057.339.123.509.177a.642.642,0,0,1-.509.858,2.536,2.536,0,0,1-.888.008,9.11,9.11,0,0,1-1.733-.438C406.208,133.911,402.034,129.477,402.115,129.416ZM411.9,139c-.3-.147-.6-.3-.888-.445a17.968,17.968,0,0,1-2.972-1.827,21.154,21.154,0,0,1,2.972-.234c.285,0,.585,0,.888.013s.588.032.89.059a13.674,13.674,0,0,1,1.5.2,14.109,14.109,0,0,1,3.613,1.106,5.049,5.049,0,0,1,.888.566,3.923,3.923,0,0,1,.344.317c-.115,0-.229-.02-.344-.024-.3-.008-.593-.046-.888-.061a38.7,38.7,0,0,1-5.117-.61c-.3-.056-.594-.084-.89-.147-.052-.012-.106-.015-.158-.027.052.015.106.027.158.044.3.088.593.162.89.243a38.974,38.974,0,0,0,5.117,1.037c.295.039.592.067.888.1.273.029.546.067.819.093a1.044,1.044,0,0,1,.069.19.582.582,0,0,1,0,.386c-.088.234-.361.42-.888.516a5.405,5.405,0,0,1-.888.067,11.45,11.45,0,0,1-1.369-.071,12.364,12.364,0,0,1-3.748-1.086Q412.342,139.21,411.9,139Zm7.784,4.827c-.307-.074-.6-.148-.888-.226-.312-.083-.612-.167-.888-.248a12.084,12.084,0,0,1-2.153-.765,21.568,21.568,0,0,1,2.153-.673c.278-.073.573-.143.888-.212.285-.062.582-.12.888-.174a16.8,16.8,0,0,1,2.475-.255c2.908-.067,4.533.25,5.579.88a44.341,44.341,0,0,1-7.909.762,44.5,44.5,0,0,0,8.591-.238c.634.646.2,1.4-2.925,1.73A17.356,17.356,0,0,1,419.688,143.826Zm16.464,2.409c-3.822,1.288-10.972.487-10.9.378a22.828,22.828,0,0,1,6.4-2.679c3.085-.706,4.95-.762,6.276-.383a53.254,53.254,0,0,1-8.286,2.488,54.149,54.149,0,0,0,9.186-2.131C439.721,144.39,439.457,145.22,436.152,146.235Zm2.694-4.024a33.315,33.315,0,0,1-7.463-3.736,31.8,31.8,0,0,0,6.578,4.063c-1.283.3-3.287.1-5.761-1.463a8.684,8.684,0,0,1-3.508-4.86c-.071.069,4.825,2.139,7.942,3.51C439.307,141.01,439.745,141.691,438.847,142.211ZM426.826,69c-4.168,1.359-5.713,1.659-6.455,1.018a37.9,37.9,0,0,1,11.907-4.127A39.312,39.312,0,0,0,420.034,69.4c-.1-.845.949-2.37,5.565-3.879,5.268-1.856,13.715-.248,13.669-.14A107.664,107.664,0,0,0,426.826,69ZM478.959,112.3a1.05,1.05,0,0,1-.238.153.582.582,0,0,1-.239.051c-.241,0-.489-.174-.752-.56a6.133,6.133,0,0,1-.55-1.072q-.144-.344-.3-.774c-.052-.164-.106-.335-.158-.513-.211-.706-.42-1.509-.612-2.3-.086-.359-.17-.718-.249-1.065-.273-1.189-.494-2.254-.62-2.819a2.588,2.588,0,0,0-.111-.428,7.278,7.278,0,0,1,.927.558,8.513,8.513,0,0,1,2.982,3.431,10.192,10.192,0,0,1,.555,1.6,5.825,5.825,0,0,1,.185,1.876,3.551,3.551,0,0,1-.162.8,2.9,2.9,0,0,1-.2.489q-.566-1.613-1.253-3.119t-1.472-2.886A37.2,37.2,0,0,1,478.959,112.3Zm-2.3,7.7c-.73.391-1.256-.177-1.6-2.595-.246-1.7-.228-4.147-.3-5.737-.03-.961-.057-1.618-.056-1.618a9.935,9.935,0,0,1,1.848,2.023,7.915,7.915,0,0,1,1.227,2.713c.546,2.485.106,3.972-.555,4.741a36.164,36.164,0,0,0-1.512-6.46A36.457,36.457,0,0,1,476.654,120.009Zm-3.346.066a34.191,34.191,0,0,1-.491,6.986c-.8.228-1.2-.438-1.035-2.878.261-2.75,1.194-7.263,1.13-7.275a9.408,9.408,0,0,1,2.08,5.287c.035,2.549-.708,3.908-1.519,4.52A34.4,34.4,0,0,0,473.308,120.075Zm6.427-15.805c-.521.661-1.221.359-2.45-1.718-1.323-2.384-3.006-6.641-3.063-6.615a8.761,8.761,0,0,1,4.586,3.082c1.426,2.06,1.58,3.606,1.264,4.584a35.564,35.564,0,0,0-3.8-5.309A36.431,36.431,0,0,1,479.734,104.27Zm-.553-8.76a33.946,33.946,0,0,0-4.744-4.4,34.609,34.609,0,0,1,4.54,5.122c-.384.759-1.128.609-2.726-1.165-1.745-2.057-4.23-5.87-4.286-5.831a8.6,8.6,0,0,1,5.1,2.047C478.863,93,479.3,94.485,479.181,95.51Zm-2.492-6.986c-.229.824-.983.835-2.9-.563-1.163-.907-2.659-2.271-3.79-3.318l-.888-.824a7.722,7.722,0,0,0-.742-.656c-.007,0,.29-.049.742-.079.251-.015.546-.024.888-.015a7.738,7.738,0,0,1,3.824,1.017c2.119,1.3,2.847,2.655,2.928,3.685a32.733,32.733,0,0,0-5.55-3.3A32.983,32.983,0,0,1,476.689,88.524Zm-7.583,39.7c-.243.98-.541,1.962-.888,2.945-.234.656-.484,1.312-.767,1.966-.858.052-1.089-.683-.371-3.028.305-.894.722-1.967,1.138-3,.314-.782.625-1.534.888-2.168.413-.995.7-1.691.676-1.7,0,0,.089.16.212.442a8.975,8.975,0,0,1,.711,5.167,8.831,8.831,0,0,1-.711,2.136,4.928,4.928,0,0,1-.888,1.288,3.133,3.133,0,0,1-.888.649l-.034.019c.012-.04.02-.079.034-.12a31.813,31.813,0,0,0,.888-3.626c.172-.932.308-1.86.395-2.775C469.39,127.016,469.256,127.618,469.106,128.221Zm1.354-58.746c.094-.071,4.06,4.727,4.587,7.89.568,2.728-.015,3.336-.786,3.082a36.236,36.236,0,0,0-2.237-7.42,35.751,35.751,0,0,1,1.565,7.065c-.875-.62-1.617-1.844-2.4-4.414A20.847,20.847,0,0,1,470.46,69.475Zm2.308,11.24c-.919-.406-1.844-.75-2.773-1.065-.295-.1-.592-.189-.888-.28s-.593-.16-.888-.243c-.558-.153-1.114-.334-1.672-.455.561.179,1.114.42,1.672.632.3.113.593.214.888.337s.593.234.888.368c.971.437,1.932.912,2.878,1.455-.054.838-.772,1.01-2.878.11-.039-.017-.071-.027-.11-.046-.243-.115-.511-.251-.779-.389-.288-.147-.585-.3-.888-.467-2.252-1.209-4.763-2.721-4.8-2.672a9.527,9.527,0,0,1,4.8-.474,6.455,6.455,0,0,1,.846.209l.042.015c.322.113.615.231.888.354A4.591,4.591,0,0,1,472.768,80.715ZM463.1,134.1q-.417.738-.888,1.468-.425.655-.889,1.3c-.251.347-.5.695-.77,1.037-.892-.137-.931-.9.393-3.03.115-.172.25-.364.378-.55q.42-.612.889-1.266c.295-.413.6-.828.888-1.232,1.188-1.632,2.247-3.045,2.207-3.068a8.894,8.894,0,0,1-.393,5.668,7.869,7.869,0,0,1-1.814,2.524,4.407,4.407,0,0,1-.888.615,3.327,3.327,0,0,1-.863.305q.458-.721.863-1.452c.32-.575.614-1.153.888-1.735a28.651,28.651,0,0,0,1.185-2.885C463.937,132.567,463.533,133.334,463.1,134.1Zm-.888-69.843a10.131,10.131,0,0,1,.888.617,23.469,23.469,0,0,1,5.117,5.1,6.329,6.329,0,0,1,.518.949c.148.31.27.592.371.85.56,1.43.423,2.07,0,2.259a.847.847,0,0,1-.432.064c-.142-.317-.3-.631-.457-.946a33.567,33.567,0,0,0-3.591-5.806,32.886,32.886,0,0,1,3.293,6.55c-1.022-.418-2.048-1.453-3.481-3.786a17.353,17.353,0,0,1-1.337-2.75,23.811,23.811,0,0,1-.888-2.755c-.057-.221-.093-.378-.093-.379S462.161,64.225,462.213,64.254Zm0,8.289c.2,0,.391-.007.592.013.106.012.2.03.3.044,2.416.32,3.631,1.2,4.144,2.069a34.665,34.665,0,0,0-4.144-.534c-.3-.022-.592-.027-.888-.042s-.593-.035-.889-.042c-.278-.007-.56-.04-.838-.04.278.025.558.064.838.094.3.034.592.061.889.1s.592.1.888.147a34.16,34.16,0,0,1,4.422,1.025c.142.845-.546,1.167-2.972.7-.438-.1-.932-.226-1.45-.362-.29-.078-.587-.157-.888-.241s-.593-.165-.889-.25c-2.148-.612-4.171-1.242-4.2-1.2a10.4,10.4,0,0,1,4.2-1.455A7.353,7.353,0,0,1,462.213,72.543Zm-10.088,68.491c-.905-.327-.72-1.076,1.254-2.856,2.323-1.947,6.177-4.948,6.108-5a8.556,8.556,0,0,1-1.87,5.43c-1.777,2.016-3.459,2.6-4.645,2.571a28.638,28.638,0,0,0,4.69-5.26A29.293,29.293,0,0,1,452.124,141.034Zm3.289-75.511c4.616,1.509,5.665,3.035,5.563,3.879a39.288,39.288,0,0,0-12.243-3.515,37.886,37.886,0,0,1,11.906,4.127c-.742.641-2.288.341-6.454-1.018a107.654,107.654,0,0,0-12.444-3.613C441.7,65.275,450.144,63.667,455.414,65.523Zm-11.037,74.2c3.117-1.371,8.015-3.441,7.942-3.51a8.666,8.666,0,0,1-3.507,4.86c-2.473,1.563-4.478,1.758-5.762,1.463a31.713,31.713,0,0,0,6.578-4.063,33.279,33.279,0,0,1-7.463,3.736C441.267,141.691,441.706,141.01,444.376,139.724Zm.484,6.511c-3.3-1.015-3.569-1.844-2.675-2.326a54.169,54.169,0,0,0,9.185,2.131,53.184,53.184,0,0,1-8.284-2.488c1.327-.379,3.191-.324,6.275.383a22.774,22.774,0,0,1,6.4,2.679C455.83,146.722,448.682,147.523,444.86,146.235ZM463.1,143.35c-.276.083-.578.167-.888.25-.287.078-.583.152-.889.226a17.359,17.359,0,0,1-5.811.582c-3.129-.33-3.561-1.084-2.925-1.73a44.484,44.484,0,0,0,8.59.238,44.356,44.356,0,0,1-7.909-.762c1.045-.631,2.67-.947,5.579-.88a16.792,16.792,0,0,1,2.477.255q.46.081.889.174c.315.069.61.14.888.212a21.749,21.749,0,0,1,2.153.673A12.078,12.078,0,0,1,463.1,143.35Zm6.893-4.8c-.285.15-.583.3-.888.445s-.588.276-.888.408a12.36,12.36,0,0,1-3.749,1.086,11.408,11.408,0,0,1-1.367.071,5.39,5.39,0,0,1-.888-.067c-.526-.1-.8-.28-.889-.512a.592.592,0,0,1,0-.393,1.019,1.019,0,0,1,.069-.187c.273-.025.546-.064.819-.093.3-.034.593-.062.888-.1a38.7,38.7,0,0,0,5.117-1.035c.3-.081.593-.155.888-.243.052-.017.106-.029.16-.044-.054.012-.108.015-.16.027-.3.062-.593.091-.888.147a38.706,38.706,0,0,1-5.117.61c-.3.015-.593.052-.888.061-.115,0-.229.022-.344.024a3.472,3.472,0,0,1,.344-.315,4.866,4.866,0,0,1,.888-.568,14.068,14.068,0,0,1,3.611-1.106,13.646,13.646,0,0,1,1.505-.2c.3-.027.6-.049.888-.059s.605-.017.888-.013a21.156,21.156,0,0,1,2.972.234A17.879,17.879,0,0,1,469.995,138.554Zm1.733-3.7a9.11,9.11,0,0,1-1.733.438,2.539,2.539,0,0,1-.888-.008.641.641,0,0,1-.507-.858c.17-.054.337-.12.507-.177.3-.1.593-.2.888-.312a37.045,37.045,0,0,0,5.638-2.617,36.708,36.708,0,0,1-5.638,2.047c-.3.083-.592.189-.888.265-.074.019-.148.047-.224.066a3.556,3.556,0,0,1,.224-.354,4.734,4.734,0,0,1,.888-.9,13.479,13.479,0,0,1,2.959-1.684,18.765,18.765,0,0,1,5.944-1.339C478.977,129.477,474.8,133.911,471.728,134.852Zm5.563-7.007c-2.316,1.43-3.07,1.069-3.087.236a37.347,37.347,0,0,0,6.074-4.5,36.464,36.464,0,0,1-5.968,3.734c.285-1.049,1.163-2.166,3.261-3.721a18.329,18.329,0,0,1,5.472-2.557C483.126,121.076,480.012,126.287,477.291,127.845Zm7.411-13.919a18.808,18.808,0,0,1-3.544,5.907c-1.954,1.887-2.753,1.693-2.945.88a39.324,39.324,0,0,0,4.992-5.683,38.287,38.287,0,0,1-5.051,4.909c.057-1.086.676-2.364,2.411-4.326a14.552,14.552,0,0,1,2.345-2.094,19.635,19.635,0,0,1,2.5-1.565S485.159,112.784,484.7,113.927Zm1.227-10.78c-.071.486-.2,1.237-.393,2.107-.094.433-.206.9-.332,1.371s-.266.959-.423,1.435a11.667,11.667,0,0,1-1.452,3.121,10.33,10.33,0,0,1-.77,1,4.618,4.618,0,0,1-.625.619,1.86,1.86,0,0,1-.2.13,1.12,1.12,0,0,1-.514.194.561.561,0,0,1-.45-.212,1.057,1.057,0,0,1-.153-.244,41.444,41.444,0,0,0,3.79-6.622,40.139,40.139,0,0,1-4,5.875,3.558,3.558,0,0,1-.014-.873,7.169,7.169,0,0,1,.61-2.037,17.4,17.4,0,0,1,.927-1.834c.187-.322.389-.636.6-.937a20.123,20.123,0,0,1,3.446-3.67A2.5,2.5,0,0,1,485.93,103.147Zm-2.126-.9c-1.086,2.541-1.89,2.692-2.374,2.028a42.415,42.415,0,0,0,2.465-7.29,41.335,41.335,0,0,1-2.81,6.6c-.356-1.018-.266-2.448.6-4.97a19.756,19.756,0,0,1,3.1-5.371C484.868,93.234,485.139,99.367,483.8,102.245Zm-2.015-17.877c.091-.03,1.559,5.919.792,9.023-.582,2.719-1.342,3.036-1.942,2.488a41.941,41.941,0,0,0,1.018-7.662,40.967,40.967,0,0,1-1.487,7.062c-.543-.924-.725-2.343-.364-5A20.293,20.293,0,0,1,481.789,84.368Zm-2.128.609c-.029,2.785-.716,3.257-1.411,2.847a39.35,39.35,0,0,0-.55-7.715,38.839,38.839,0,0,1-.029,7.226c-.715-.789-1.175-2.141-1.364-4.813a20.6,20.6,0,0,1,.708-6.2C477.109,76.269,479.81,81.775,479.662,84.977Z" transform="translate(-29.086 6295.942)" fill="url(#linear-gradient-4)"/>
    <text id="_700" data-name="700" transform="translate(411 6402)" fill="#fff" font-size="28" font-family="Garamond-Bold, Garamond" font-weight="700" letter-spacing="0.068em"><tspan x="-21.592" y="0">700</tspan></text>
    <g id="Group_971" data-name="Group 971">
      <text id="zadowolonych" transform="translate(411.327 6415.084)" fill="#fff" font-size="6" font-family="OpenSans, Open Sans" letter-spacing="0.068em"><tspan x="-27.433" y="0">ZADOWOLONYCH</tspan></text>
      <text id="klientów" transform="translate(411.327 6423.934)" fill="#fff" font-size="6" font-family="OpenSans, Open Sans" letter-spacing="0.068em"><tspan x="-16.366" y="0">KLIENTÓW</tspan></text>
    </g>
  </g>
</svg>
