<svg xmlns="http://www.w3.org/2000/svg" width="119.495" height="119.199" viewBox="0 0 119.495 119.199">
  <g id="Group_1104" data-name="Group 1104" transform="translate(-656 -6352.917)">
    <circle id="Ellipse_114" data-name="Ellipse 114" cx="58" cy="58" r="58" transform="translate(658 6355)" fill="#fff"/>
    <circle id="Ellipse_113" data-name="Ellipse 113" cx="42" cy="42" r="42" transform="translate(674 6371)" fill="#115061"/>
    <g id="Group_1043" data-name="Group 1043" transform="translate(0 -0.473)">
      <text id="_20_lat" data-name="20 lat" transform="translate(715 6420.473)" fill="#fff" font-size="25" font-family="SegoeUI-Bold, Segoe UI" font-weight="700"><tspan x="-32.971" y="0">20 lat</tspan></text>
      <text id="doświadczenia" transform="translate(715 6432.473)" fill="#fff" font-size="8" font-family="SegoeUI, Segoe UI" letter-spacing="0.066em"><tspan x="-28.83" y="0">doświadczenia</tspan></text>
    </g>
    <g id="Group_1042" data-name="Group 1042" transform="translate(396.161 6028.941)">
      <path id="Path_1501" data-name="Path 1501" d="M319.587,323.976a59.6,59.6,0,1,0,59.748,59.6A59.742,59.742,0,0,0,319.587,323.976Zm51.686,51.982a2.645,2.645,0,0,1-.434-1.941,2.6,2.6,0,0,1,1.883.7,10.751,10.751,0,0,1,1.234,2.972A12.449,12.449,0,0,1,371.273,375.958Zm2.887,5.085a11.654,11.654,0,0,1-2.493-1.9,3.233,3.233,0,0,1-.344-1.959,2.786,2.786,0,0,1,1.9.811A10.06,10.06,0,0,1,374.16,381.043Zm-90.054,40.79a2.659,2.659,0,0,1,1.564,1.234,2.616,2.616,0,0,1-1.912.634,10.836,10.836,0,0,1-2.836-1.534A12.47,12.47,0,0,1,284.106,421.833Zm-1-1.7a1.986,1.986,0,0,1-.686-1.129,9.35,9.35,0,0,1,.457-3.047,9.467,9.467,0,0,1,1.345,2.626,2.882,2.882,0,0,1-.526,1.913A3.193,3.193,0,0,1,283.109,420.129Zm1.8-1.943a9.2,9.2,0,0,1,1.572,2.464,2.972,2.972,0,0,1-.433,1.974,2.6,2.6,0,0,1-1.363-1.419A8.913,8.913,0,0,1,284.911,418.186Zm-.307,5.976a7.633,7.633,0,0,1,1.9-.185,2.663,2.663,0,0,1,1.678,1.082,2.743,2.743,0,0,1-.331.273,3.234,3.234,0,0,1-.518.3,2.2,2.2,0,0,1-.67.2,1.6,1.6,0,0,1-.371,0,7.844,7.844,0,0,1-2.88-1.407S283.952,424.289,284.6,424.161Zm2.376-2.754c.064-.66.168-1.2.168-1.2a15.03,15.03,0,0,1,1.676,2.413,2.851,2.851,0,0,1-.29,1.969,2.591,2.591,0,0,1-1.489-1.279A5.245,5.245,0,0,1,286.98,421.407Zm.352,4.773a6.273,6.273,0,0,1,1.75-.279,2.106,2.106,0,0,1,1.2.563l.362.337.137.144a3.311,3.311,0,0,1-.544.466,1.976,1.976,0,0,1-1.282.408,7.436,7.436,0,0,1-2.224-.84l-.731-.4S286.616,426.369,287.332,426.18Zm2.052-2.708c.008-.718.083-1.334.083-1.334l.522.535a6.766,6.766,0,0,1,1.293,1.783,2.493,2.493,0,0,1,.036,1.337,3.493,3.493,0,0,1-.216.664l-.194-.056a1.653,1.653,0,0,1-.442-.21,2.125,2.125,0,0,1-.881-.986A5.356,5.356,0,0,1,289.384,423.472Zm.467,4.694a7.182,7.182,0,0,1,1.9-.473,2.665,2.665,0,0,1,1.772.915,2.625,2.625,0,0,1-1.767.979,9.029,9.029,0,0,1-3.062-1Zm2.034-4.221c-.037.055,1.591,1.276,1.991,2.145a2.946,2.946,0,0,1-.06,2.013,2.594,2.594,0,0,1-1.608-1.133,5.435,5.435,0,0,1-.337-1.828A8.612,8.612,0,0,1,291.885,423.945Zm2.619,5.417a2.82,2.82,0,0,1,1.849.756,2.732,2.732,0,0,1-1.719,1.118,3.648,3.648,0,0,1-.922-.069c-.331-.086-.682-.2-1-.323-.64-.237-1.159-.478-1.159-.478A11.475,11.475,0,0,1,294.5,429.362Zm-.053-3.827s.4.318.86.745a9.711,9.711,0,0,1,.683.7,3.135,3.135,0,0,1,.54.635,2.821,2.821,0,0,1,.081,1.982,2.464,2.464,0,0,1-1.7-.985A9.6,9.6,0,0,1,294.45,425.535Zm2.947,5.236a2.663,2.663,0,0,1,1.85.738,2.546,2.546,0,0,1-1.622,1.164,10.733,10.733,0,0,1-3.146-.656A12.148,12.148,0,0,1,297.4,430.771Zm-.322-3.753a9.323,9.323,0,0,1,2.221,1.924,3.041,3.041,0,0,1,.178,2.028,2.609,2.609,0,0,1-1.713-.974A9.13,9.13,0,0,1,297.076,427.018Zm1.49,5.854a7.79,7.79,0,0,1,1.779-.814,1.139,1.139,0,1,1,.36,1.852,6.487,6.487,0,0,1-1.979-.106,4.953,4.953,0,0,1-.859-.212l-.352-.116S297.987,433.184,298.566,432.872Zm1.23-4.546.279.188c.17.118.4.29.667.442a5.508,5.508,0,0,1,1.4,1.126,2.917,2.917,0,0,1,.316,1.982,2.6,2.6,0,0,1-1.8-.8,5.1,5.1,0,0,1-.668-1.734C299.856,428.874,299.8,428.326,299.8,428.326Zm3.575,4.836a2.773,2.773,0,0,1,1.322.14,3.164,3.164,0,0,1,.626.292,3.075,3.075,0,0,1-.211.377,2.44,2.44,0,0,1-1.274,1.049,5.17,5.17,0,0,1-1.954-.062c-.675-.111-1.233-.248-1.233-.248A11.714,11.714,0,0,1,303.37,433.162Zm8.311,1.2a2.593,2.593,0,0,1-1.917-.429,4.714,4.714,0,0,1-.968-1.624c-.257-.615-.419-1.138-.419-1.138s.479.188,1.042.466a6.719,6.719,0,0,1,1.582.85A2.861,2.861,0,0,1,311.681,434.363Zm-.347-2.6a9.453,9.453,0,0,1,2.7,1.191,2.522,2.522,0,0,1,.668,1.152,3.442,3.442,0,0,1,.125.687,2.084,2.084,0,0,1-.688.077,2.121,2.121,0,0,1-1.244-.456A9.29,9.29,0,0,1,311.335,431.76Zm-2.78,2.061a2.6,2.6,0,0,1-1.869-.619,5.205,5.205,0,0,1-.822-1.522,13.029,13.029,0,0,1-.411-1.257l.685.294A6.672,6.672,0,0,1,308,431.871,3,3,0,0,1,308.554,433.821Zm-3.076-.789a3.156,3.156,0,0,1-.692-.045,1.713,1.713,0,0,1-1.151-.638,9.475,9.475,0,0,1-1.033-2.919s.456.233.986.563a7.433,7.433,0,0,1,1.439,1.118A2.785,2.785,0,0,1,305.478,433.032Zm-.545,1.913a6.525,6.525,0,0,1,1.537-.916,2.663,2.663,0,0,1,1.96.363,2.581,2.581,0,0,1-1.379,1.455,7.591,7.591,0,0,1-2.391.062l-.831-.094S304.333,435.389,304.933,434.945Zm3.08.914a9.1,9.1,0,0,1,1.587-1.085,1.139,1.139,0,1,1,.7,1.741,5.506,5.506,0,0,1-1.961.259c-.681-.041-1.248-.121-1.248-.121S307.5,436.275,308.013,435.859Zm4.772-.6a2.107,2.107,0,0,1,1.32-.064,6.767,6.767,0,0,1,.668.177,3.316,3.316,0,0,1-.256.668,1.971,1.971,0,0,1-.935.974,10.682,10.682,0,0,1-3.191.3A11.909,11.909,0,0,1,312.785,435.259Zm1.756,1.626a7.181,7.181,0,0,1,1.446-1.316,2.672,2.672,0,0,1,2-.036,2.625,2.625,0,0,1-1.09,1.7,6.425,6.425,0,0,1-1.915.483c-.341.047-.656.077-.886.1a2.373,2.373,0,0,1-.37,0Zm1.505-2.169a5.439,5.439,0,0,1-1.167-1.448,8.841,8.841,0,0,1-.559-1.052,3.119,3.119,0,0,0,.323.089c.2.041.475.1.775.181a5.6,5.6,0,0,1,1.676.666,2.941,2.941,0,0,1,.905,1.8A2.6,2.6,0,0,1,316.046,434.715Zm1.292-2.326s.505.089,1.112.248a9.471,9.471,0,0,1,1.712.611,2.8,2.8,0,0,1,1.011,1.7,3.159,3.159,0,0,1-.674.162,1.76,1.76,0,0,1-1.289-.236A9.6,9.6,0,0,1,317.338,432.39Zm3.019.077a9.324,9.324,0,0,1,2.871.627,2.122,2.122,0,0,1,.716.748,3.78,3.78,0,0,1,.344.752c.041.121.059.2.059.2a2.606,2.606,0,0,1-1.971-.037A9.1,9.1,0,0,1,320.356,432.466Zm3.861.925c-.481-.556-.842-1.078-.842-1.078l.751.081a9.4,9.4,0,0,1,2.15.383,2.879,2.879,0,0,1,1.216,1.586,2.6,2.6,0,0,1-1.96.162A4.34,4.34,0,0,1,324.217,433.391Zm2.157-1.409a9.5,9.5,0,0,1,2.935.336,2.431,2.431,0,0,1,.982.886,3.493,3.493,0,0,1,.327.618,2.974,2.974,0,0,1-.63.292,2.143,2.143,0,0,1-1.324-.064A9.367,9.367,0,0,1,326.374,431.982Zm3.833.373a10.757,10.757,0,0,1-.846-.825,2.633,2.633,0,0,0,.331-.025c.2-.019.485-.044.793-.057a5.607,5.607,0,0,1,1.8.138,2.964,2.964,0,0,1,1.408,1.446,2.6,2.6,0,0,1-1.937.356A5.467,5.467,0,0,1,330.208,432.354Zm2.079-1.565s.509-.066,1.135-.093a10.143,10.143,0,0,1,1.809.045,2.839,2.839,0,0,1,1.483,1.323,2.544,2.544,0,0,1-1.887.538A9.675,9.675,0,0,1,332.287,430.789Zm-.008-3.724a11.777,11.777,0,0,0-4.07-.257,11.213,11.213,0,0,0-3.54,1.742c-1.594,1.014-3.242,2.061-5.081,2.061s-3.487-1.048-5.081-2.061a11.218,11.218,0,0,0-3.542-1.742,11.772,11.772,0,0,0-4.069.257c-1.83.321-3.721.653-5.358-.025-1.671-.69-2.783-2.278-3.859-3.816a7.787,7.787,0,0,0-6.46-4.3c-1.822-.4-3.706-.823-4.972-2.086s-1.685-3.143-2.091-4.962a7.767,7.767,0,0,0-4.316-6.443c-1.539-1.072-3.131-2.182-3.824-3.849-.678-1.633-.346-3.52-.025-5.344a11.716,11.716,0,0,0,.259-4.06,11.162,11.162,0,0,0-1.748-3.534c-1.015-1.59-2.065-3.234-2.065-5.068s1.05-3.479,2.067-5.069a11.143,11.143,0,0,0,1.746-3.534,11.685,11.685,0,0,0-.259-4.06c-.322-1.826-.653-3.713.025-5.344.693-1.667,2.285-2.778,3.824-3.85a7.765,7.765,0,0,0,4.317-6.444c.407-1.817.826-3.7,2.091-4.959s3.15-1.682,4.973-2.086a11.473,11.473,0,0,0,3.823-1.3,11.351,11.351,0,0,0,2.638-3c1.075-1.535,2.187-3.123,3.858-3.813,1.633-.678,3.525-.347,5.354-.026a11.657,11.657,0,0,0,4.072.259,11.187,11.187,0,0,0,3.543-1.744c1.594-1.012,3.242-2.06,5.08-2.06s3.487,1.048,5.08,2.061a11.19,11.19,0,0,0,3.542,1.742,11.654,11.654,0,0,0,4.073-.259c1.828-.32,3.72-.652,5.355.026,1.67.692,2.783,2.279,3.858,3.814a11.328,11.328,0,0,0,2.638,3,11.453,11.453,0,0,0,3.823,1.3c1.823.405,3.708.824,4.973,2.087s1.685,3.143,2.091,4.961a7.767,7.767,0,0,0,4.316,6.443c1.539,1.072,3.131,2.183,3.824,3.85.678,1.63.346,3.519.025,5.343a11.684,11.684,0,0,0-.259,4.06,11.121,11.121,0,0,0,1.748,3.534c1.015,1.59,2.065,3.234,2.065,5.069s-1.051,3.479-2.067,5.069a11.152,11.152,0,0,0-1.746,3.532,11.681,11.681,0,0,0,.259,4.06c.32,1.826.653,3.714-.026,5.346-.693,1.667-2.285,2.778-3.825,3.85a7.765,7.765,0,0,0-4.314,6.443c-.407,1.817-.826,3.7-2.091,4.961s-3.15,1.682-4.973,2.086a11.453,11.453,0,0,0-3.823,1.3,11.3,11.3,0,0,0-2.636,3c-1.075,1.537-2.189,3.124-3.86,3.816C336,427.718,334.107,427.384,332.279,427.065Zm-50.77-8.864a2.591,2.591,0,0,1-1.219-1.539,4.681,4.681,0,0,1,.266-1.869c.185-.64.389-1.149.389-1.149s.255.447.519,1.015a6.446,6.446,0,0,1,.7,1.654A2.874,2.874,0,0,1,281.509,418.2Zm-5.985-58.325a11.307,11.307,0,0,1,1.212-.088,12.718,12.718,0,0,1-1.963,2.171,2.954,2.954,0,0,1-2.012.129,2.586,2.586,0,0,1,.975-1.705A5.419,5.419,0,0,1,275.524,359.876Zm-1.383-.642a2.041,2.041,0,0,1,.222-.649,2.117,2.117,0,0,1,.9-.968,5.37,5.37,0,0,1,1.708-.36c.716-.059,1.337-.042,1.337-.042s-.2.238-.483.571a6.777,6.777,0,0,1-1.655,1.452A3.08,3.08,0,0,1,274.14,359.234Zm1.24,3.245s-.277.431-.659.926a9.121,9.121,0,0,1-1.233,1.333,2.826,2.826,0,0,1-1.965.264,3.118,3.118,0,0,1,.114-.681,1.755,1.755,0,0,1,.724-1.09A9.6,9.6,0,0,1,275.38,362.478Zm-1.245,2.742a9.32,9.32,0,0,1-1.7,2.39,3.046,3.046,0,0,1-2,.367,2.589,2.589,0,0,1,.8-1.8A9.108,9.108,0,0,1,274.135,365.22Zm-2.217,3.136c.641-.2,1.179-.308,1.179-.308s-.242.455-.56.992a5.489,5.489,0,0,1-.985,1.5,2.918,2.918,0,0,1-1.942.5,2.584,2.584,0,0,1,.62-1.861A4.729,4.729,0,0,1,271.918,368.357Zm.33,2.579a9.495,9.495,0,0,1-1.461,2.564,2.817,2.817,0,0,1-1.876.625,3.247,3.247,0,0,1-.023-.692,1.865,1.865,0,0,1,.555-1.2A9.446,9.446,0,0,1,272.248,370.936Zm-1.952,3.446c.634-.316,1.211-.527,1.211-.527l-.225.709a6.6,6.6,0,0,1-.963,1.961,3,3,0,0,1-1.889.731,2.587,2.587,0,0,1,.431-1.917A5.158,5.158,0,0,1,270.3,374.382Zm-.334,2.975c.588-.314,1.093-.523,1.093-.523a15.977,15.977,0,0,1-1.092,2.728,2.846,2.846,0,0,1-1.8.849,2.576,2.576,0,0,1,.234-1.945A5.518,5.518,0,0,1,269.962,377.356Zm-1.723,4.265a9.255,9.255,0,0,1,2.486-1.8,9.363,9.363,0,0,1-.916,2.794,3.066,3.066,0,0,1-1.805.956A2.589,2.589,0,0,1,268.239,381.621Zm-.038,3.157a5.178,5.178,0,0,1,1.335-1.29c.553-.382,1.035-.651,1.035-.651l-.064.329a7.311,7.311,0,0,0-.145.786,5.513,5.513,0,0,1-.494,1.726,2.924,2.924,0,0,1-1.7,1.063A2.585,2.585,0,0,1,268.2,384.778Zm.159,3.157a9.507,9.507,0,0,1,2.291-2.086,9.973,9.973,0,0,1-.623,2.887,2.777,2.777,0,0,1-1.6,1.157A2.2,2.2,0,0,1,268.359,387.935Zm.389,3.134a8.971,8.971,0,0,1,2.08-2.212,9.192,9.192,0,0,1-.336,2.9,1.644,1.644,0,0,1-.182.3,2.391,2.391,0,0,1-.493.478,3.725,3.725,0,0,1-.511.312,3.5,3.5,0,0,1-.4.174A2.588,2.588,0,0,1,268.748,391.069Zm.505,3.119a4.752,4.752,0,0,1,1.042-1.418c.507-.527.99-.934.99-.934l0,.752a11.283,11.283,0,0,1-.208,2.175,2.866,2.866,0,0,1-1.464,1.352A2.583,2.583,0,0,1,269.254,394.187Zm.789,3.06a9.252,9.252,0,0,1,1.837-2.461,9.387,9.387,0,0,1-.042,2.941,3.07,3.07,0,0,1-1.405,1.448,1.813,1.813,0,0,1-.322-.608A2.116,2.116,0,0,1,270.043,397.247Zm.934,3.016a5.388,5.388,0,0,1,.881-1.633,8.966,8.966,0,0,1,.771-.927,12.087,12.087,0,0,1,.2,2.914,2.944,2.944,0,0,1-1.308,1.531A2.584,2.584,0,0,1,270.977,400.263Zm1.087,2.968a9.575,9.575,0,0,1,1.563-2.687s.116.5.205,1.118a9.313,9.313,0,0,1,.107,1.808,2.818,2.818,0,0,1-1.178,1.594,3.175,3.175,0,0,1-.411-.556A1.779,1.779,0,0,1,272.064,403.231Zm1.345,2.861a9.1,9.1,0,0,1,1.327-2.749,9.287,9.287,0,0,1,.535,2.883,3.038,3.038,0,0,1-1.131,1.691A2.588,2.588,0,0,1,273.409,406.092Zm2.039,1.024c.3-.6.6-1.06.6-1.06l.331,1.087a5.5,5.5,0,0,1,.388,1.75,2.9,2.9,0,0,1-.994,1.741,2.589,2.589,0,0,1-.9-1.742A4.811,4.811,0,0,1,275.448,407.116Zm1.52,2.778c.271-.67.568-1.22.568-1.22l.285.693a7.7,7.7,0,0,1,.549,2.135,2.79,2.79,0,0,1-.856,1.779,3.206,3.206,0,0,1-.511-.468,1.755,1.755,0,0,1-.49-1.219A5.487,5.487,0,0,1,276.969,409.894Zm2.165,1.337a9.223,9.223,0,0,1,1.077,2.723,3,3,0,0,1-.793,1.865,2.6,2.6,0,0,1-1.068-1.652A8.982,8.982,0,0,1,279.134,411.231Zm54.587-74.5a9.25,9.25,0,0,1-2.547-1.449,3,3,0,0,1-.555-1.95,2.6,2.6,0,0,1,1.869.62A8.994,8.994,0,0,1,333.721,336.728Zm-.026-2.609a3.162,3.162,0,0,1,.692.045,1.711,1.711,0,0,1,1.15.637,9.48,9.48,0,0,1,1.033,2.92s-.456-.233-.986-.563a7.485,7.485,0,0,1-1.439-1.118A2.784,2.784,0,0,1,333.695,334.119Zm-2.9,1.86s-.479-.188-1.042-.466a6.768,6.768,0,0,1-1.582-.851,2.866,2.866,0,0,1-.681-1.876,2.6,2.6,0,0,1,1.917.43,4.714,4.714,0,0,1,.968,1.624C330.635,335.456,330.8,335.979,330.8,335.979Zm-2.958-.588a9.468,9.468,0,0,1-2.7-1.193,2.515,2.515,0,0,1-.668-1.152,3.442,3.442,0,0,1-.125-.686,2.084,2.084,0,0,1,.688-.077,2.124,2.124,0,0,1,1.244.456A9.325,9.325,0,0,1,327.839,335.392Zm-2.986-.456s-.305-.093-.727-.179a6.589,6.589,0,0,1-2.048-.756,2.944,2.944,0,0,1-.905-1.8,2.6,2.6,0,0,1,1.954.236,5.078,5.078,0,0,1,1.09,1.324A9.525,9.525,0,0,1,324.853,334.936Zm-3.017-.175s-.505-.088-1.112-.246a9.579,9.579,0,0,1-1.712-.611A2.8,2.8,0,0,1,318,332.2a3.262,3.262,0,0,1,.672-.162,1.77,1.77,0,0,1,1.29.237A9.6,9.6,0,0,1,321.836,334.76Zm-3.019-.075a9.325,9.325,0,0,1-2.871-.627,3.015,3.015,0,0,1-1.119-1.7,2.606,2.606,0,0,1,1.971.037A9.1,9.1,0,0,1,318.817,334.685Zm-13.339-.566a2.6,2.6,0,0,1,1.937-.357,5.491,5.491,0,0,1,1.55,1.035,10.889,10.889,0,0,1,.846.823,3.019,3.019,0,0,0-.331.025c-.2.021-.485.044-.793.059a5.6,5.6,0,0,1-1.8-.138A2.964,2.964,0,0,1,305.478,334.119Zm1.408,2.243s-.314.029-.749.071c-.338.023-.752.041-1.153.031a4.233,4.233,0,0,1-1.042-.055,2.844,2.844,0,0,1-1.485-1.323,2.548,2.548,0,0,1,1.889-.538,5.624,5.624,0,0,1,1.518.922C306.436,335.922,306.886,336.363,306.886,336.363Zm2-2.416a3.335,3.335,0,0,1-.327-.618,3.012,3.012,0,0,1,.63-.29,2.143,2.143,0,0,1,1.324.064,9.367,9.367,0,0,1,2.29,2.067,9.5,9.5,0,0,1-2.935-.336A2.433,2.433,0,0,1,308.882,333.947Zm2.8-1.16a2.6,2.6,0,0,1,1.96-.16,4.6,4.6,0,0,1,1.413,1.249c.431.509.744.961.744.961s-.514-.037-1.135-.136a6.007,6.007,0,0,1-1.765-.327A2.88,2.88,0,0,1,311.681,332.787Zm5.072-1.244a2.662,2.662,0,0,1-1.979.237,2.566,2.566,0,0,1,.877-1.8,10.753,10.753,0,0,1,3.079-.926A12.188,12.188,0,0,1,316.753,331.543Zm-2.024-1.287a9.27,9.27,0,0,1-1.186,1.52,1.139,1.139,0,1,1-1.192-1.452,5.977,5.977,0,0,1,1.791-.845c.662-.163,1.224-.255,1.224-.255S315.092,329.705,314.729,330.256Zm-4.37,2.005a2.1,2.1,0,0,1-1.239.456,3.346,3.346,0,0,1-.689.042,3.308,3.308,0,0,1,.044-.714,2.012,2.012,0,0,1,.594-1.22,10.63,10.63,0,0,1,2.956-1.233A11.787,11.787,0,0,1,310.358,332.261Zm-2.163-1.015a7.1,7.1,0,0,1-.983,1.685,2.666,2.666,0,0,1-1.894.627s-.011-.077-.015-.2a3.2,3.2,0,0,1,.069-.811,2.151,2.151,0,0,1,.249-.641,1.6,1.6,0,0,1,.223-.289,6.384,6.384,0,0,1,1.682-1.031c.314-.145.6-.268.818-.355a2.3,2.3,0,0,1,.351-.126Zm-3.262.96a6,6,0,0,1-.841,1.526,1.141,1.141,0,1,1-1.438-1.2,3.83,3.83,0,0,1,.883-.737c.373-.208.781-.4,1.122-.552l.767-.318S305.217,331.535,304.933,332.206Zm-.941,5.007a9.43,9.43,0,0,1-2.932.249,3.053,3.053,0,0,1-1.585-1.283,2.607,2.607,0,0,1,1.894-.549A9.181,9.181,0,0,1,303.992,337.213Zm-2.927-2.383a2.659,2.659,0,0,1-1.817.812,2.539,2.539,0,0,1,.288-1.974,10.7,10.7,0,0,1,2.663-1.793A12.039,12.039,0,0,1,301.065,334.83Zm-.912,2.72c.567.359,1,.7,1,.7l-.329.07a7.073,7.073,0,0,0-.781.175,5.54,5.54,0,0,1-1.786.215,2.932,2.932,0,0,1-1.648-1.152,2.6,2.6,0,0,1,1.827-.727A5.287,5.287,0,0,1,300.153,337.55Zm-1.415-3.347a7.427,7.427,0,0,1-.651,1.845,2.668,2.668,0,0,1-1.735.985,2.632,2.632,0,0,1,.152-2.016,6.414,6.414,0,0,1,1.453-1.341,4.567,4.567,0,0,1,.748-.474l.329-.17S298.917,333.571,298.738,334.2Zm-.329,5.289s-.485.164-1.093.314a8.214,8.214,0,0,1-1.8.26,2.808,2.808,0,0,1-1.7-1.018,3.125,3.125,0,0,1,.516-.462,1.716,1.716,0,0,1,1.255-.388A9.545,9.545,0,0,1,298.41,339.492Zm-3.224-2.049a2.735,2.735,0,0,1-1.015.856,3.145,3.145,0,0,1-.648.244,2.744,2.744,0,0,1,.008-2.053,4.852,4.852,0,0,1,1.4-1.363c.549-.407,1.035-.709,1.035-.709A11.546,11.546,0,0,1,295.186,337.443Zm.529,3.4a9.318,9.318,0,0,1-2.821.809,3.023,3.023,0,0,1-1.791-.963,2.6,2.6,0,0,1,1.75-.9A9.085,9.085,0,0,1,295.714,340.847Zm-3.309-1.786a2.661,2.661,0,0,1-1.628,1.146,2.566,2.566,0,0,1-.085-2,10.757,10.757,0,0,1,2.271-2.276A12.22,12.22,0,0,1,292.405,339.061Zm-.383,2.857c.622.245,1.112.494,1.112.494s-.47.211-1.063.419a5.605,5.605,0,0,1-1.709.551,2.025,2.025,0,0,1-.99-.24,3.7,3.7,0,0,1-.8-.546l-.04-.038a2.6,2.6,0,0,1,1.652-1.063A4.732,4.732,0,0,1,292.022,341.918Zm-2.009-3.031a8.948,8.948,0,0,1-.316,1.906,2.663,2.663,0,0,1-1.515,1.3s-.037-.067-.089-.184a3.407,3.407,0,0,1-.167-.475,2.7,2.7,0,0,1-.1-.649,1.925,1.925,0,0,1,.026-.353,1.593,1.593,0,0,1,.1-.355,6.316,6.316,0,0,1,1.172-1.594c.5-.457.957-.805.957-.805S290.069,338.231,290.013,338.887Zm-.629,4.792c.693.205,1.27.449,1.27.449s-.278.145-.664.349a6.914,6.914,0,0,1-2.087.735,2.791,2.791,0,0,1-1.852-.686,2.244,2.244,0,0,1,1.6-1.139A5.436,5.436,0,0,1,289.384,343.679Zm-2.052-2.708a6.182,6.182,0,0,1-.216,1.746,3.154,3.154,0,0,1-1.446,1.367,2.762,2.762,0,0,1-.374-2.023,7.361,7.361,0,0,1,1.431-1.889l.59-.586S287.348,340.237,287.332,340.971Zm-2.087,4.469a9.028,9.028,0,0,1,3,.5,9.233,9.233,0,0,1-2.61,1.329,3,3,0,0,1-1.934-.614A2.6,2.6,0,0,1,285.245,345.44Zm-.573-.636a2.664,2.664,0,0,1-1.381,1.435,2.589,2.589,0,0,1-.456-1.954,10.813,10.813,0,0,1,1.8-2.669A12.379,12.379,0,0,1,284.673,344.8Zm-1.744,2.79a4.932,4.932,0,0,1,1.9.1c.655.125,1.181.279,1.181.279s-.42.3-.963.612a7.587,7.587,0,0,1-1.6.837,2.884,2.884,0,0,1-1.942-.473A2.59,2.59,0,0,1,282.929,347.595Zm-.612-.6a2.664,2.664,0,0,1-1.241,1.564,2.693,2.693,0,0,1-.6-1.946,5.1,5.1,0,0,1,.877-1.764c.409-.545.788-.974.788-.974s.089.551.156,1.208A8.4,8.4,0,0,1,282.317,346.994Zm-1.519,2.941a9.353,9.353,0,0,1,3.078.17,9.441,9.441,0,0,1-2.49,1.583,2.455,2.455,0,0,1-1.326-.078,3.454,3.454,0,0,1-.642-.277,2.617,2.617,0,0,1,.311-.618A2.115,2.115,0,0,1,280.8,349.934Zm55.917-14.847a2.6,2.6,0,0,1,1.8.8,5.094,5.094,0,0,1,.668,1.733c.136.656.2,1.2.2,1.2l-.278-.188c-.17-.119-.4-.29-.667-.442a5.512,5.512,0,0,1-1.4-1.127A2.918,2.918,0,0,1,336.715,335.088Zm2.983,1.092a2.6,2.6,0,0,1,1.712.975,5.281,5.281,0,0,1,.52,1.659c.126.7.167,1.319.167,1.319l-.615-.423a6.729,6.729,0,0,1-1.607-1.5A3.045,3.045,0,0,1,339.7,336.179Zm2.861,1.376a2.461,2.461,0,0,1,1.7.985,9.594,9.594,0,0,1,.466,3.075s-.4-.316-.86-.744c-.229-.214-.471-.456-.683-.7a3.139,3.139,0,0,1-.54-.637A2.817,2.817,0,0,1,342.559,337.556Zm2.8,1.493a2.594,2.594,0,0,1,1.608,1.133,5.419,5.419,0,0,1,.337,1.827,8.481,8.481,0,0,1-.015,1.2c.038-.053-1.59-1.275-1.99-2.143A2.946,2.946,0,0,1,345.357,339.048Zm2.5,2.308a3.5,3.5,0,0,1,.216-.663l.195.056a1.656,1.656,0,0,1,.442.21,2.118,2.118,0,0,1,.881.986,9.223,9.223,0,0,1,.116,3.067,9.394,9.394,0,0,1-1.815-2.319A2.493,2.493,0,0,1,347.855,341.356Zm2.783,1.2a2.6,2.6,0,0,1,1.489,1.281,5.277,5.277,0,0,1,.066,1.907c-.064.66-.168,1.2-.168,1.2a14.965,14.965,0,0,1-1.676-2.413A2.853,2.853,0,0,1,350.638,342.557Zm2.484,1.969a2.6,2.6,0,0,1,1.363,1.419,8.917,8.917,0,0,1-.223,3.02,9.2,9.2,0,0,1-1.572-2.464A2.974,2.974,0,0,1,353.123,344.527Zm2.352,2.133a3.191,3.191,0,0,1,.59.363,1.993,1.993,0,0,1,.686,1.129,5.41,5.41,0,0,1-.127,1.746c-.141.707-.33,1.3-.33,1.3l-.411-.625a6.831,6.831,0,0,1-.934-2A2.879,2.879,0,0,1,355.474,346.659Zm2.19,2.291a2.586,2.586,0,0,1,1.218,1.539,4.655,4.655,0,0,1-.264,1.87c-.186.64-.389,1.148-.389,1.148s-.255-.445-.519-1.014a6.447,6.447,0,0,1-.7-1.654A2.874,2.874,0,0,1,357.664,348.951Zm13.148,30.266a9.483,9.483,0,0,1-2.29,2.086,9.917,9.917,0,0,1,.623-2.887,2.781,2.781,0,0,1,1.6-1.159A2.2,2.2,0,0,1,370.813,379.216Zm.16,3.157a5.059,5.059,0,0,1-1.211,1.2c-.6.426-1.16.738-1.16.738l.156-.738a6.475,6.475,0,0,1,.548-2.1,2.923,2.923,0,0,1,1.7-1.063A2.585,2.585,0,0,1,370.973,382.373Zm-.548-6.291a8.983,8.983,0,0,1-2.08,2.211,9.2,9.2,0,0,1,.336-2.9,3,3,0,0,1,1.583-1.266A2.589,2.589,0,0,1,370.425,376.083Zm-.505-3.119a5.15,5.15,0,0,1-1.146,1.526c-.467.474-.886.826-.886.826a15.26,15.26,0,0,1,.212-2.927,2.859,2.859,0,0,1,1.464-1.352A2.581,2.581,0,0,1,369.92,372.964Zm-.789-3.061a9.241,9.241,0,0,1-1.837,2.463,9.387,9.387,0,0,1,.042-2.941,3.071,3.071,0,0,1,1.405-1.448,1.816,1.816,0,0,1,.322.607A2.126,2.126,0,0,1,369.131,369.9Zm-.934-3.016a5.377,5.377,0,0,1-.881,1.634,8.98,8.98,0,0,1-.771.927,12.1,12.1,0,0,1-.2-2.916,1.831,1.831,0,0,1,.3-.626A3.561,3.561,0,0,1,367.65,365,2.587,2.587,0,0,1,368.2,366.887Zm-1.089-2.968a5.53,5.53,0,0,1-.771,1.59c-.394.611-.79,1.1-.79,1.1l-.145-.737a10.2,10.2,0,0,1-.167-2.189,2.818,2.818,0,0,1,1.178-1.594,3.134,3.134,0,0,1,.41.556A1.762,1.762,0,0,1,367.108,363.919Zm-1.344-2.86a9.1,9.1,0,0,1-1.327,2.749,9.288,9.288,0,0,1-.535-2.883,3.038,3.038,0,0,1,1.131-1.691A2.588,2.588,0,0,1,365.764,361.059Zm-2.039-1.025c-.3.6-.6,1.06-.6,1.06l-.331-1.087a5.5,5.5,0,0,1-.388-1.752,2.909,2.909,0,0,1,.994-1.741,2.593,2.593,0,0,1,.9,1.743A4.812,4.812,0,0,1,363.725,360.035Zm-2.089-1.559a10.493,10.493,0,0,1-.834-2.827,2.786,2.786,0,0,1,.856-1.779,3.2,3.2,0,0,1,.511.468,1.755,1.755,0,0,1,.49,1.219A9.44,9.44,0,0,1,361.636,358.476Zm-1.6-2.556a9.221,9.221,0,0,1-1.076-2.723,3,3,0,0,1,.793-1.865,2.6,2.6,0,0,1,1.068,1.652A8.992,8.992,0,0,1,360.039,355.921Zm2.967,51.994a3.071,3.071,0,0,1,2.027,0,2.028,2.028,0,0,1-.222.648,2.12,2.12,0,0,1-.9.97,9.248,9.248,0,0,1-3.045.4A9.369,9.369,0,0,1,363.006,407.915Zm.644-.641a11.111,11.111,0,0,1-1.212.089,12.611,12.611,0,0,1,1.963-2.171,2.954,2.954,0,0,1,2.012-.129,2.589,2.589,0,0,1-.975,1.705A5.388,5.388,0,0,1,363.65,407.274Zm.144-2.6s.277-.431.659-.926a9.118,9.118,0,0,1,1.233-1.333,1.936,1.936,0,0,1,.953-.32,3.072,3.072,0,0,1,.312-.015,3.793,3.793,0,0,1,.5.036c.126.018.2.034.2.034a3.137,3.137,0,0,1-.114.682,1.754,1.754,0,0,1-.725,1.09A9.6,9.6,0,0,1,363.793,404.673Zm2.543-3.031c-.687.19-1.3.289-1.3.289l.363-.652a6.733,6.733,0,0,1,1.337-1.738,3.046,3.046,0,0,1,2-.367,2.589,2.589,0,0,1-.8,1.8A5.269,5.269,0,0,1,366.337,401.642Zm.918-2.847c-.64.2-1.178.308-1.178.308s.242-.455.56-.992a5.489,5.489,0,0,1,.985-1.5,2.91,2.91,0,0,1,1.942-.5,2.585,2.585,0,0,1-.62,1.861A4.727,4.727,0,0,1,367.254,398.795Zm-.329-2.579a9.5,9.5,0,0,1,1.461-2.564,2.817,2.817,0,0,1,1.876-.625,3.238,3.238,0,0,1,.023.692,1.858,1.858,0,0,1-.555,1.2A9.46,9.46,0,0,1,366.926,396.216Zm.741-2.92a9.189,9.189,0,0,1,1.187-2.669,3,3,0,0,1,1.887-.733,2.583,2.583,0,0,1-.43,1.917A8.929,8.929,0,0,1,367.667,393.3Zm1.545-3.5c-.588.314-1.093.522-1.093.522a15.977,15.977,0,0,1,1.092-2.727,2.846,2.846,0,0,1,1.8-.849,2.576,2.576,0,0,1-.234,1.945A5.518,5.518,0,0,1,369.212,389.8Zm1.723-4.266a9.236,9.236,0,0,1-2.486,1.8,9.36,9.36,0,0,1,.916-2.794,3.066,3.066,0,0,1,1.805-.956A2.585,2.585,0,0,1,370.934,385.529Zm1.42-11.7a7.945,7.945,0,0,1-1.6-1.045,2.658,2.658,0,0,1-.629-1.893,2.714,2.714,0,0,1,1.961.578,4.771,4.771,0,0,1,.982,1.707c.229.641.377,1.192.377,1.192S372.942,374.14,372.355,373.832Zm-2.4-4.157a2.1,2.1,0,0,1-.578-1.186c-.056-.393-.078-.689-.078-.689a2.54,2.54,0,0,1,1.963.463,10.628,10.628,0,0,1,1.526,2.816A12.008,12.008,0,0,1,369.957,369.676Zm.833-2.249a7.2,7.2,0,0,1-1.782-.818,2.655,2.655,0,0,1-.812-1.819,3.2,3.2,0,0,1,1.019-.041,1.956,1.956,0,0,1,.977.381,8.732,8.732,0,0,1,1.757,2.694Zm-1.279-3.143a6.11,6.11,0,0,1-1.609-.692,2.606,2.606,0,0,1-.778-1.081,3.2,3.2,0,0,1-.179-.667,2.75,2.75,0,0,1,2.043.2,5.621,5.621,0,0,1,1.459,1.876l.393.731S370.207,364.5,369.51,364.283Zm-2.976-3.6a2.655,2.655,0,0,1-.985-1.728,2.565,2.565,0,0,1,2,.1,10.732,10.732,0,0,1,2.052,2.472A12.262,12.262,0,0,1,366.534,360.684Zm.4-2.365a8.5,8.5,0,0,1-1.886-.483,1.139,1.139,0,1,1,.881-1.665,6.464,6.464,0,0,1,1.479,1.315,8.377,8.377,0,0,1,.727,1.018S367.584,358.437,366.935,358.319Zm-3.558-3.23a2.645,2.645,0,0,1-.937-.938,3.108,3.108,0,0,1-.3-.619,2.775,2.775,0,0,1,2.053-.182,9.654,9.654,0,0,1,2.287,2.231A11.7,11.7,0,0,1,363.377,355.089Zm-1.865-2.616a2.651,2.651,0,0,1-1.3-1.507,2.588,2.588,0,0,1,1.99-.271,10.764,10.764,0,0,1,2.49,2.038A12.329,12.329,0,0,1,361.512,352.473Zm-.053-2.389a9.027,9.027,0,0,1-1.92-.148,2.659,2.659,0,0,1-1.441-1.379,3.193,3.193,0,0,1,.634-.315,2.184,2.184,0,0,1,1.36-.1,5.7,5.7,0,0,1,1.69,1.026c.5.457.9.874.9.874S362.121,350.079,361.458,350.085Zm-2.322-2.475a6.2,6.2,0,0,1-1.765-.051,2.242,2.242,0,0,1-1.074-.77,3.176,3.176,0,0,1-.416-.549,2.691,2.691,0,0,1,1.976-.546,7.421,7.421,0,0,1,2.022,1.242l.641.53S359.874,347.556,359.137,347.61Zm-4.069-2.291a2.658,2.658,0,0,1-1.564-1.234,2.61,2.61,0,0,1,1.912-.634,10.835,10.835,0,0,1,2.836,1.534A12.468,12.468,0,0,1,355.068,345.319Zm-.5-2.328a7.631,7.631,0,0,1-1.9.185,2.668,2.668,0,0,1-1.678-1.083,2.71,2.71,0,0,1,1.89-.775,7.845,7.845,0,0,1,2.88,1.407S355.221,342.863,354.569,342.99Zm-4.479-1.739a2.106,2.106,0,0,1-1.2-.563l-.362-.337-.137-.144a3.259,3.259,0,0,1,.542-.466,1.974,1.974,0,0,1,1.283-.408,10.642,10.642,0,0,1,2.956,1.241A11.965,11.965,0,0,1,350.09,341.251Zm-.768-2.265a7.18,7.18,0,0,1-1.9.473,2.664,2.664,0,0,1-1.772-.915,2.625,2.625,0,0,1,1.767-.979,9,9,0,0,1,3.062,1Zm-4.653-1.2a2.818,2.818,0,0,1-1.849-.757s.044-.064.126-.162a3.1,3.1,0,0,1,.9-.742,1.835,1.835,0,0,1,.7-.212,3.649,3.649,0,0,1,.922.068c.331.086.682.2,1,.322.641.238,1.16.479,1.16.479A11.529,11.529,0,0,1,344.67,337.79Zm-1.22-2.015a6.351,6.351,0,0,1-1.674.6,2.657,2.657,0,0,1-1.85-.737,2.546,2.546,0,0,1,1.622-1.164,7.506,7.506,0,0,1,2.35.4l.8.255S344.119,335.455,343.449,335.775Zm-2.842-1.5a7.745,7.745,0,0,1-1.779.815,2.674,2.674,0,0,1-1.919-.556,2.655,2.655,0,0,1,1.559-1.3,6.488,6.488,0,0,1,1.979.105,4.962,4.962,0,0,1,.859.212l.352.116S341.187,333.967,340.607,334.278Zm-4.8-.29a2.773,2.773,0,0,1-1.322-.138,3.162,3.162,0,0,1-.626-.292,2.762,2.762,0,0,1,1.485-1.426,5.114,5.114,0,0,1,1.954.062c.675.111,1.233.247,1.233.247A11.662,11.662,0,0,1,335.8,333.988Zm-3.1-.867a2.665,2.665,0,0,1-1.96-.362,2.571,2.571,0,0,1,1.379-1.455,10.818,10.818,0,0,1,3.223.032A12.329,12.329,0,0,1,332.7,333.121Zm-1.544-1.828a9.091,9.091,0,0,1-1.587,1.085,1.14,1.14,0,1,1-.7-1.741,5.537,5.537,0,0,1,1.961-.26c.681.042,1.248.122,1.248.122S331.673,330.875,331.16,331.292Zm-4.772.6a2.1,2.1,0,0,1-1.32.066,6.757,6.757,0,0,1-.668-.177,3.281,3.281,0,0,1,.256-.668,1.97,1.97,0,0,1,.935-.974,10.635,10.635,0,0,1,3.191-.3A11.87,11.87,0,0,1,326.388,331.891Zm-1.86-1.511a6.654,6.654,0,0,1-1.342,1.2,2.669,2.669,0,0,1-2,.034,2.623,2.623,0,0,1,1.09-1.7,7.678,7.678,0,0,1,2.339-.535,4.845,4.845,0,0,1,.831-.047Zm-4.559,1.04a2.624,2.624,0,0,1-1.3.29,3.131,3.131,0,0,1-.685-.093,2.744,2.744,0,0,1,.982-1.8,4.592,4.592,0,0,1,1.879-.551c.677-.095,1.248-.129,1.248-.129A11.427,11.427,0,0,1,319.969,331.42ZM280.15,349.371a2.09,2.09,0,0,1-.675,1.134,4.137,4.137,0,0,1-.514.462,3.383,3.383,0,0,1-.415-.583,2.009,2.009,0,0,1-.3-1.32,10.592,10.592,0,0,1,1.519-2.815A11.846,11.846,0,0,1,280.15,349.371Zm-1.35,3.012a5.462,5.462,0,0,1,1.86-.164,10.393,10.393,0,0,1,1.182.114,2.209,2.209,0,0,0-.247.225c-.147.144-.351.338-.583.541a5.615,5.615,0,0,1-1.49,1.02,2.98,2.98,0,0,1-2.007-.248A2.587,2.587,0,0,1,278.8,352.383Zm-1.763,1.149a2.607,2.607,0,0,1-.811-1.842,6.372,6.372,0,0,1,.663-1.853c.152-.31.3-.588.414-.788a1.894,1.894,0,0,1,.2-.314l.327,1.2a7.1,7.1,0,0,1,.293,1.927A2.657,2.657,0,0,1,277.037,353.532Zm-.132,1.383a9.586,9.586,0,0,1,3.117-.177s-.356.37-.827.782a9.389,9.389,0,0,1-1.434,1.1,2.858,2.858,0,0,1-1.99-.105A2.584,2.584,0,0,1,276.906,354.915Zm-1.631,1.293a3.031,3.031,0,0,1-.3-.305,2.928,2.928,0,0,1-.5-.793,1.85,1.85,0,0,1-.147-.709,4.565,4.565,0,0,1,.557-1.882c.3-.614.588-1.105.588-1.105a11.586,11.586,0,0,1,.727,3.024A2.663,2.663,0,0,1,275.274,356.208Zm-.753.974a2.1,2.1,0,0,1-.448,1.244,6.317,6.317,0,0,1-.449.53,2.53,2.53,0,0,1-1.026-1.724,7.4,7.4,0,0,1,.627-2.291l.329-.766s.267.6.523,1.293A6.269,6.269,0,0,1,274.521,357.182ZM272.972,360a2.655,2.655,0,0,1-.742,1.849,2.638,2.638,0,0,1-1.145-1.667,6.387,6.387,0,0,1,.3-1.95,5.635,5.635,0,0,1,.423-1.181s.237.508.512,1.1A7.182,7.182,0,0,1,272.972,360Zm-1.4,2.9a2.622,2.622,0,0,1-.242,1.307,3.185,3.185,0,0,1-.353.593,2.74,2.74,0,0,1-1.279-1.605,4.632,4.632,0,0,1,.226-1.941c.175-.66.366-1.2.366-1.2A11.522,11.522,0,0,1,271.574,362.891Zm-1.145,3a2.649,2.649,0,0,1-.556,1.909,2.559,2.559,0,0,1-1.318-1.5,10.69,10.69,0,0,1,.349-3.191A12.229,12.229,0,0,1,270.429,365.891Zm-1.022,3.045a2.658,2.658,0,0,1-.364,1.959,2.674,2.674,0,0,1-1.445-1.428,6.5,6.5,0,0,1-.089-1.978,11.791,11.791,0,0,1,.237-1.226A15.056,15.056,0,0,1,269.407,368.936Zm-.8,3.112a2.433,2.433,0,0,1-.041,1.32,3.055,3.055,0,0,1-.229.649,2.754,2.754,0,0,1-1.561-1.342,10.539,10.539,0,0,1,.022-3.193A11.733,11.733,0,0,1,268.6,372.048Zm-1.654,1.713a6.518,6.518,0,0,1,1.066,1.442,2.644,2.644,0,0,1-.166,1.982,2.6,2.6,0,0,1-1.586-1.237,7.515,7.515,0,0,1-.3-2.371l.011-.835S266.449,373.205,266.95,373.761Zm-.6,3.146a7.147,7.147,0,0,1,1.2,1.474,2.657,2.657,0,0,1,.034,1.994,2.725,2.725,0,0,1-1.7-1.139,7.609,7.609,0,0,1-.416-3.172S265.88,376.436,266.347,376.907Zm1.034,4.683a2.641,2.641,0,0,1,.036,1.986,2.543,2.543,0,0,1-1.705-1.034,10.648,10.648,0,0,1-.615-3.142A12.026,12.026,0,0,1,267.381,381.59Zm-1.487,1.891a7.637,7.637,0,0,1,1.449,1.318,2.647,2.647,0,0,1,.236,1.978,2.663,2.663,0,0,1-1.8-.927,6.388,6.388,0,0,1-.675-1.857,4.551,4.551,0,0,1-.142-.871l-.029-.367S265.38,383.072,265.894,383.481Zm1.611,4.527a3.224,3.224,0,0,1,.345,1.957,2.782,2.782,0,0,1-1.9-.809,10.06,10.06,0,0,1-.94-3.047A11.621,11.621,0,0,1,267.5,388.008Zm.4,3.184a2.649,2.649,0,0,1,.434,1.942,2.6,2.6,0,0,1-1.883-.7,10.768,10.768,0,0,1-1.234-2.972A12.426,12.426,0,0,1,267.9,391.192Zm-.951,2.2a7.556,7.556,0,0,1,1.464.972,2.663,2.663,0,0,1,.629,1.894,2.714,2.714,0,0,1-1.961-.578,5.409,5.409,0,0,1-1.118-2.105l-.241-.793S266.31,393.047,266.95,393.39Zm2.267,4.086a2.1,2.1,0,0,1,.578,1.186c.056.392.078.689.078.689a2.54,2.54,0,0,1-1.963-.463,10.627,10.627,0,0,1-1.526-2.816A12.009,12.009,0,0,1,269.217,397.476Zm-.833,2.249a7.164,7.164,0,0,1,1.78.818,1.139,1.139,0,1,1-1.182,1.479,8.732,8.732,0,0,1-1.757-2.694Zm2.889,3.835a2.6,2.6,0,0,1,.778,1.081,3.174,3.174,0,0,1,.179.667,2.75,2.75,0,0,1-2.043-.2,4.564,4.564,0,0,1-1.245-1.512c-.352-.585-.607-1.1-.607-1.1A11.556,11.556,0,0,1,271.272,403.56Zm1.367,2.908a2.65,2.65,0,0,1,.985,1.727,2.558,2.558,0,0,1-2-.1,10.7,10.7,0,0,1-2.052-2.471A12.263,12.263,0,0,1,272.639,406.467Zm-.4,2.365a8.568,8.568,0,0,1,1.887.482,1.139,1.139,0,1,1-.881,1.667,6.464,6.464,0,0,1-1.479-1.315,8.382,8.382,0,0,1-.727-1.018S271.589,408.715,272.237,408.833Zm1.841,2.852a6.128,6.128,0,0,1,1.719.377,2.657,2.657,0,0,1,.937.938,3.112,3.112,0,0,1,.3.619,2.773,2.773,0,0,1-2.053.184,6.665,6.665,0,0,1-1.759-1.59l-.529-.642S273.347,411.6,274.077,411.684Zm3.584,2.994a2.652,2.652,0,0,1,1.3,1.507,2.594,2.594,0,0,1-1.99.271,10.762,10.762,0,0,1-2.49-2.038A12.331,12.331,0,0,1,277.662,414.678Zm.053,2.389a9.118,9.118,0,0,1,1.92.147,1.139,1.139,0,1,1-.553,1.794,5.647,5.647,0,0,1-1.69-1.026c-.5-.456-.9-.872-.9-.872S277.052,417.071,277.715,417.067Zm4.087,2.526a2.241,2.241,0,0,1,1.074.77,3.115,3.115,0,0,1,.416.549,2.691,2.691,0,0,1-1.976.546,10.625,10.625,0,0,1-2.663-1.774A11.815,11.815,0,0,1,281.8,419.592Zm35.28,18.423a11.461,11.461,0,0,1,2.123-2.284,2.639,2.639,0,0,1,1.3-.29,3.234,3.234,0,0,1,.685.093,2.746,2.746,0,0,1-.982,1.8,4.591,4.591,0,0,1-1.879.551C317.653,437.981,317.082,438.015,317.082,438.015Zm5.339-2.406a2.662,2.662,0,0,1,1.979-.237,2.832,2.832,0,0,1-.062.421,2.778,2.778,0,0,1-.333.859,1.732,1.732,0,0,1-.482.519,10.751,10.751,0,0,1-3.079.926A12.184,12.184,0,0,1,322.42,435.608Zm2.108,1.163a8.548,8.548,0,0,1,1.1-1.4,1.139,1.139,0,1,1,1.192,1.453,5.935,5.935,0,0,1-2.2.941l-.814.159S324.125,437.371,324.528,436.771Zm4.287-1.88a2.1,2.1,0,0,1,1.24-.456,3.341,3.341,0,0,1,.689-.042,3.294,3.294,0,0,1-.044.712,2.018,2.018,0,0,1-.594,1.222,10.674,10.674,0,0,1-2.956,1.233A11.786,11.786,0,0,1,328.815,434.891Zm2.163,1.015a7.139,7.139,0,0,1,.983-1.686,2.669,2.669,0,0,1,1.894-.626,2.606,2.606,0,0,1-.526,1.944,6.348,6.348,0,0,1-1.682,1.03c-.314.147-.6.27-.818.356a2.175,2.175,0,0,1-.351.125Zm4.1-2.486a1.141,1.141,0,1,1,1.437,1.2,4.466,4.466,0,0,1-1.619,1.112c-.616.292-1.153.494-1.153.494A11.388,11.388,0,0,1,335.081,433.42Zm.1-3.482a9.387,9.387,0,0,1,2.932-.249,3.06,3.06,0,0,1,1.585,1.282,2.612,2.612,0,0,1-1.894.551A9.18,9.18,0,0,1,335.181,429.938Zm2.927,2.383a2.659,2.659,0,0,1,1.818-.812,2.539,2.539,0,0,1-.288,1.974,10.7,10.7,0,0,1-2.663,1.793A12.02,12.02,0,0,1,338.108,432.321Zm.912-2.721c-.568-.359-1-.7-1-.7l.329-.07a7.075,7.075,0,0,0,.781-.175,5.538,5.538,0,0,1,1.786-.215,2.034,2.034,0,0,1,.931.42,3.526,3.526,0,0,1,.441.4,3.234,3.234,0,0,1,.275.33,2.6,2.6,0,0,1-1.827.727A5.262,5.262,0,0,1,339.02,429.6Zm1.415,3.349a7.459,7.459,0,0,1,.651-1.846,2.668,2.668,0,0,1,1.735-.985,2.635,2.635,0,0,1-.152,2.017,6.415,6.415,0,0,1-1.453,1.341,4.46,4.46,0,0,1-.748.473l-.329.171S340.257,433.58,340.435,432.949Zm1.5-4.61c-.645-.333-1.167-.679-1.167-.679l.719-.216a8.98,8.98,0,0,1,2.176-.357,2.808,2.808,0,0,1,1.7,1.018,3.125,3.125,0,0,1-.516.462,1.722,1.722,0,0,1-1.255.388A5.561,5.561,0,0,1,341.93,428.339Zm1.519,3.038a6.029,6.029,0,0,1,.538-1.668,2.735,2.735,0,0,1,1.015-.856,3.139,3.139,0,0,1,.648-.244,2.751,2.751,0,0,1-.008,2.053,6.038,6.038,0,0,1-1.745,1.611l-.692.462S343.3,432.091,343.449,431.376Zm.01-5.073a9.318,9.318,0,0,1,2.821-.809,3.03,3.03,0,0,1,1.791.964,2.6,2.6,0,0,1-1.752.9A9.08,9.08,0,0,1,343.459,426.3Zm3.309,1.787a2.661,2.661,0,0,1,1.628-1.146,2.565,2.565,0,0,1,.085,2,10.789,10.789,0,0,1-2.271,2.276A12.156,12.156,0,0,1,346.768,428.091Zm.383-2.858c-.622-.245-1.112-.494-1.112-.494s.47-.21,1.063-.419a5.59,5.59,0,0,1,1.709-.549,2.9,2.9,0,0,1,1.827.823,2.6,2.6,0,0,1-1.653,1.064A4.71,4.71,0,0,1,347.151,425.232Zm2.009,3.031a8.947,8.947,0,0,1,.316-1.905,1.139,1.139,0,1,1,1.742.718,6.408,6.408,0,0,1-1.172,1.594c-.5.457-.957.805-.957.805S349.1,428.921,349.161,428.263Zm-.641-5.24a9.541,9.541,0,0,1,2.75-1.085,2.794,2.794,0,0,1,1.853.685,2.245,2.245,0,0,1-1.6,1.141A9.451,9.451,0,0,1,348.52,423.023Zm3.536,1.411a3.161,3.161,0,0,1,1.448-1.367,2.762,2.762,0,0,1,.374,2.023,10.57,10.57,0,0,1-2.022,2.475A11.76,11.76,0,0,1,352.056,424.434Zm1.872-2.724a9,9,0,0,1-3-.5,9.232,9.232,0,0,1,2.61-1.329,3,3,0,0,1,1.934.614A2.594,2.594,0,0,1,353.928,421.71Zm.572.637a2.654,2.654,0,0,1,1.381-1.435,2.582,2.582,0,0,1,.455,1.954,10.78,10.78,0,0,1-1.8,2.669A12.379,12.379,0,0,1,354.5,422.346Zm1.743-2.79a4.961,4.961,0,0,1-1.9-.1c-.655-.125-1.181-.279-1.181-.279s.421-.3.963-.612a7.582,7.582,0,0,1,1.6-.837,1.631,1.631,0,0,1,.344-.044,2.3,2.3,0,0,1,.67.1,3.651,3.651,0,0,1,.929.421A2.589,2.589,0,0,1,356.244,419.557Zm.612.6a2.658,2.658,0,0,1,1.241-1.563,2.69,2.69,0,0,1,.6,1.946,5.115,5.115,0,0,1-.877,1.764c-.409.545-.787.972-.787.972s-.089-.549-.156-1.208A8.4,8.4,0,0,1,356.856,420.156Zm1.519-2.939a5.394,5.394,0,0,1-1.752.036c-.718-.074-1.326-.205-1.326-.205l.585-.468a6.823,6.823,0,0,1,1.905-1.115,2.455,2.455,0,0,1,1.326.078,3.456,3.456,0,0,1,.642.277,2.642,2.642,0,0,1-.311.618A2.128,2.128,0,0,1,358.375,417.217Zm.648.562a2.087,2.087,0,0,1,.675-1.133,4,4,0,0,1,.514-.462,3.4,3.4,0,0,1,.415.582,2.015,2.015,0,0,1,.3,1.322,7.447,7.447,0,0,1-1.049,2.127l-.47.688s-.149-.635-.273-1.361A6.219,6.219,0,0,1,359.023,417.779Zm1.35-3.01a5.5,5.5,0,0,1-1.86.164,10.208,10.208,0,0,1-1.182-.115,2.047,2.047,0,0,0,.247-.225c.147-.142.351-.337.583-.541a5.609,5.609,0,0,1,1.49-1.019,2.98,2.98,0,0,1,2.006.248A2.587,2.587,0,0,1,360.373,414.768Zm1.763-1.15a2.608,2.608,0,0,1,.811,1.844,6.37,6.37,0,0,1-.663,1.853c-.152.308-.3.586-.414.788a1.9,1.9,0,0,1-.2.314s-.151-.553-.327-1.2a7.108,7.108,0,0,1-.293-1.927A2.657,2.657,0,0,1,362.136,413.618Zm.131-1.382a9.63,9.63,0,0,1-3.117.177s.356-.37.827-.783a9.565,9.565,0,0,1,1.434-1.1,2.867,2.867,0,0,1,1.99.105A2.589,2.589,0,0,1,362.268,412.236Zm1.631-1.293a2.711,2.711,0,0,1,.952,1.808,4.592,4.592,0,0,1-.557,1.882c-.3.612-.588,1.105-.588,1.105a11.586,11.586,0,0,1-.727-3.024A2.664,2.664,0,0,1,363.9,410.943Zm.753-.975a2.106,2.106,0,0,1,.446-1.242,6.653,6.653,0,0,1,.451-.531,2.534,2.534,0,0,1,1.026,1.726,10.658,10.658,0,0,1-.957,3.057A12.011,12.011,0,0,1,364.652,409.968Zm1.549-2.812a1.138,1.138,0,1,1,1.886-.182,6.336,6.336,0,0,1-.3,1.95,5.633,5.633,0,0,1-.423,1.181l-.512-1.1A7.149,7.149,0,0,1,366.2,407.156Zm1.4-2.9a2.619,2.619,0,0,1,.242-1.307,3.182,3.182,0,0,1,.353-.593s.068.037.174.11a3.355,3.355,0,0,1,.619.548,2.3,2.3,0,0,1,.378.592,1.669,1.669,0,0,1,.108.355,4.637,4.637,0,0,1-.226,1.942c-.175.66-.366,1.2-.366,1.2A11.52,11.52,0,0,1,367.6,404.261Zm1.911-1.393a6.367,6.367,0,0,1-.766-1.608,2.646,2.646,0,0,1,.556-1.909,2.559,2.559,0,0,1,1.318,1.5,7.511,7.511,0,0,1-.173,2.376l-.177.815S369.894,403.5,369.51,402.868Zm.256-4.653a1.139,1.139,0,1,1,1.809-.53,6.493,6.493,0,0,1,.089,1.976,11.873,11.873,0,0,1-.237,1.227A15.05,15.05,0,0,1,369.766,398.215Zm.8-3.112a2.433,2.433,0,0,1,.041-1.32,3.058,3.058,0,0,1,.229-.649,2.755,2.755,0,0,1,1.561,1.341,10.539,10.539,0,0,1-.022,3.193A11.715,11.715,0,0,1,370.569,395.1Zm.589-3.156a2.648,2.648,0,0,1,.166-1.983,2.6,2.6,0,0,1,1.586,1.237,10.777,10.777,0,0,1,.289,3.206A12.409,12.409,0,0,1,371.158,391.948Zm1.668-1.7a7.18,7.18,0,0,1-1.2-1.474,2.661,2.661,0,0,1-.036-1.994,2.726,2.726,0,0,1,1.7,1.14,7.6,7.6,0,0,1,.416,3.171S373.293,390.715,372.826,390.244Zm-1.034-4.683a2.641,2.641,0,0,1-.036-1.986,3.092,3.092,0,0,1,.673.193,2.585,2.585,0,0,1,.563.315,1.7,1.7,0,0,1,.47.525,10.664,10.664,0,0,1,.615,3.143A12.028,12.028,0,0,1,371.792,385.562Zm1.372-1.986a6.768,6.768,0,0,1-1.334-1.223,1.139,1.139,0,1,1,1.568-1.05,7.636,7.636,0,0,1,.77,2.274l.077.822S373.723,384.03,373.164,383.576Z" transform="translate(0 0)" fill="#115061"/>
    </g>
    <g id="Ellipse_115" data-name="Ellipse 115" transform="translate(676 6373)" fill="none" stroke="#fff" stroke-width="1" stroke-dasharray="2">
      <circle cx="40" cy="40" r="40" stroke="none"/>
      <circle cx="40" cy="40" r="39.5" fill="none"/>
    </g>
  </g>
</svg>
