<svg xmlns="http://www.w3.org/2000/svg" xmlns:xlink="http://www.w3.org/1999/xlink" width="163.213" height="72.924" viewBox="0 0 163.213 72.924">
  <defs>
    <clipPath id="clip-path">
      <path id="Path_906" data-name="Path 906" d="M0-790.417H163.213v-72.924H0Z" transform="translate(0 863.341)" fill="none"/>
    </clipPath>
  </defs>
  <g id="Group_807" data-name="Group 807" transform="translate(0 863.341)">
    <g id="Group_821" data-name="Group 821" transform="translate(0 -863.341)" clip-path="url(#clip-path)">
      <g id="Group_807-2" data-name="Group 807" transform="translate(41.689 63.847)">
        <path id="Path_892" data-name="Path 892" d="M-47.753-40.808a4.876,4.876,0,0,1-.7,2.377,2.422,2.422,0,0,1-2,1.329.777.777,0,0,1-.483-.16.852.852,0,0,1-.293-.457l-.393.318-.392.318-.07-.034-.07-.034a1.58,1.58,0,0,0,.107-.258,2.44,2.44,0,0,0,.069-.275l.81-2.854.809-2.854c.011-.048.021-.091.027-.133a.807.807,0,0,0,.01-.115.29.29,0,0,0-.135-.271A.943.943,0,0,0-50.945-44l.023-.1.022-.1a4,4,0,0,0,.893-.1,3.182,3.182,0,0,0,.731-.275l-.6,2.18-.6,2.18a5.1,5.1,0,0,1,.866-1.451,1.213,1.213,0,0,1,.893-.443.842.842,0,0,1,.7.322,1.57,1.57,0,0,1,.263.977m-.794-.2a1.259,1.259,0,0,0-.116-.6.349.349,0,0,0-.316-.2c-.255,0-.576.316-.9.828a10.057,10.057,0,0,0-.927,2l-.16.579-.16.579a.908.908,0,0,0,.282.4.61.61,0,0,0,.377.113c.523,0,1-.577,1.353-1.328a6.1,6.1,0,0,0,.568-2.369" transform="translate(52.159 44.573)" fill="#42454a"/>
      </g>
      <g id="Group_808" data-name="Group 808" transform="translate(45.77 66.312)">
        <path id="Path_893" data-name="Path 893" d="M-53.172-8.128a5.261,5.261,0,0,1-.581,2.1,10.563,10.563,0,0,1-1.236,2,6.9,6.9,0,0,1-.69.746,4.623,4.623,0,0,1-1.132.787,2.852,2.852,0,0,1-.477.181,1.3,1.3,0,0,1-.325.049.542.542,0,0,1-.325-.1.339.339,0,0,1-.139-.282.376.376,0,0,1,.154-.307.582.582,0,0,1,.347-.108.861.861,0,0,1,.405.111,2.332,2.332,0,0,1,.362.25,4.459,4.459,0,0,0,.663-.431,5.716,5.716,0,0,0,.721-.674l-.34-2.07-.341-2.069a1.312,1.312,0,0,0-.115-.4.2.2,0,0,0-.183-.112c-.07,0-.143.037-.23.162a3.1,3.1,0,0,0-.315.686l-.059.171-.058.171h-.176l.115-.336.115-.336a1.548,1.548,0,0,1,.477-.752.929.929,0,0,1,.587-.191.523.523,0,0,1,.44.179,1.352,1.352,0,0,1,.223.669l.237,1.736.237,1.735a9.326,9.326,0,0,0,.855-1.435,6.8,6.8,0,0,0,.538-1.562,1.913,1.913,0,0,1-.461-.331.757.757,0,0,1-.243-.521.462.462,0,0,1,.135-.348.478.478,0,0,1,.335-.122.4.4,0,0,1,.366.19,1.07,1.07,0,0,1,.116.557" transform="translate(58.078 8.878)" fill="#42454a"/>
      </g>
      <g id="Group_809" data-name="Group 809" transform="translate(54.59 62.654)">
        <path id="Path_894" data-name="Path 894" d="M-40.506-4.78a1.665,1.665,0,0,0,.233.13.435.435,0,0,0,.172.038.186.186,0,0,0,.17-.132,1.451,1.451,0,0,0,.091-.388h.272c-.017.208-.032.44-.042.806s-.016.868-.016,1.615H-39.9a3.1,3.1,0,0,0-.513-1.565,1.686,1.686,0,0,0-1.433-.718,1.488,1.488,0,0,0-1.041.383,1.339,1.339,0,0,0-.407,1,1.578,1.578,0,0,0,.6,1.24,10.784,10.784,0,0,0,1.4.932A7.444,7.444,0,0,1-39.769-.3a2.135,2.135,0,0,1,.606,1.524,2.09,2.09,0,0,1-.743,1.691,2.783,2.783,0,0,1-1.776.562,3.194,3.194,0,0,1-1-.14,2.689,2.689,0,0,1-.625-.3,1.649,1.649,0,0,0-.237-.13.442.442,0,0,0-.168-.039.187.187,0,0,0-.17.133,1.448,1.448,0,0,0-.091.389h-.272c.017-.243.029-.536.036-.977s.01-1.031.01-1.867h.272a3.837,3.837,0,0,0,.548,1.885,1.835,1.835,0,0,0,1.613.808A1.591,1.591,0,0,0-40.7,2.872a1.543,1.543,0,0,0,.481-1.21,1.661,1.661,0,0,0-.511-1.2,6.521,6.521,0,0,0-1.337-.97,6.828,6.828,0,0,1-1.48-1.081,2.2,2.2,0,0,1-.633-1.578,1.924,1.924,0,0,1,.676-1.554,2.434,2.434,0,0,1,1.554-.5,2.534,2.534,0,0,1,.9.14,2.488,2.488,0,0,1,.551.3" transform="translate(44.243 5.221)" fill="#42454a"/>
      </g>
      <g id="Group_810" data-name="Group 810" transform="translate(60.218 63.918)">
        <path id="Path_895" data-name="Path 895" d="M-71.073-67.989a1.547,1.547,0,0,0,.416.6.692.692,0,0,0,.407.162v.237c-.163-.011-.368-.02-.589-.026s-.457-.009-.68-.009c-.31,0-.607,0-.868.009s-.488.014-.656.026v-.237a1.79,1.79,0,0,0,.639-.107.332.332,0,0,0,.213-.328.9.9,0,0,0-.04-.244,2.2,2.2,0,0,0-.122-.318l-.3-.674-.3-.674h-2.9l-.2.444-.2.443a2.98,2.98,0,0,0-.146.41,1.376,1.376,0,0,0-.05.349.579.579,0,0,0,.217.483,1.3,1.3,0,0,0,.7.218v.237c-.119-.011-.281-.02-.467-.026s-.4-.009-.611-.009c-.136,0-.343,0-.541.009s-.388.014-.49.026v-.239a1.078,1.078,0,0,0,.567-.39,3.079,3.079,0,0,0,.406-.711l1.309-2.966,1.309-2.966h.191l1.388,3.137Zm-3.319-4.842-.674,1.509-.674,1.509h2.687l-.669-1.509Z" transform="translate(77.63 74.262)" fill="#42454a"/>
      </g>
      <g id="Group_811" data-name="Group 811" transform="translate(66.443 63.976)">
        <path id="Path_896" data-name="Path 896" d="M-79.992,0V.238A.965.965,0,0,0-80.54.58a3.6,3.6,0,0,0-.449.816l-1.3,2.937-1.3,2.937h-.191l-1.388-3.137L-86.555,1a1.555,1.555,0,0,0-.413-.6.679.679,0,0,0-.4-.16V0c.159.011.364.02.585.026s.459.009.685.009c.307,0,.6,0,.865-.009s.487-.014.653-.026V.238a1.768,1.768,0,0,0-.634.106.332.332,0,0,0-.212.328.927.927,0,0,0,.039.244,2.451,2.451,0,0,0,.117.318l1.02,2.3,1.02,2.3.886-1.973.886-1.972a4.35,4.35,0,0,0,.219-.579A1.607,1.607,0,0,0-81.173.88.527.527,0,0,0-81.413.4,1.413,1.413,0,0,0-82.1.238V0c.118.011.342.02.588.026s.516.009.727.009c.139,0,.288,0,.428-.009s.268-.014.37-.026" transform="translate(87.372)" fill="#42454a"/>
      </g>
      <g id="Group_812" data-name="Group 812" transform="translate(74.289 63.977)">
        <path id="Path_897" data-name="Path 897" d="M-64.165-78.153c-.385-.016-.844-.026-1.3-.03s-.916,0-1.3,0c-.342,0-.889,0-1.492,0s-1.262.013-1.827.03v-.237c.4-.017.643-.056.782-.2s.179-.389.179-.821v-4.7c0-.435-.039-.681-.179-.822s-.38-.18-.782-.2v-.238c.565.017,1.224.026,1.827.03s1.151,0,1.492,0,.76,0,1.177,0,.836-.013,1.187-.03c-.029.254-.049.512-.062.738s-.019.418-.019.543c0,.142,0,.281.009.407s.014.239.026.329h-.272a2.454,2.454,0,0,0-.416-1.361,1.276,1.276,0,0,0-1.055-.383h-.87c-.4,0-.641.029-.782.167s-.179.384-.179.818V-81.9h.984a.813.813,0,0,0,.775-.444,2.407,2.407,0,0,0,.21-.766h.272c-.018.2-.028.367-.033.51s-.007.263-.007.371c0,.084,0,.16,0,.234s0,.143,0,.212c0,.163,0,.315.014.517s.03.454.061.816h-.277a2.041,2.041,0,0,0-.228-.825.852.852,0,0,0-.793-.386h-.984v2.253c0,.432.04.678.179.816s.38.169.782.169h.87a1.509,1.509,0,0,0,1.239-.435,2.743,2.743,0,0,0,.47-1.546h.273c-.012.107-.021.238-.026.382s-.009.3-.009.469c0,.136.006.347.019.595s.032.526.061.8" transform="translate(70.085 85.363)" fill="#42454a"/>
      </g>
      <g id="Group_813" data-name="Group 813" transform="translate(81.353 63.977)">
        <path id="Path_898" data-name="Path 898" d="M-32.779-2.565c-.4.016-.643.055-.783.2s-.179.388-.179.822v4.7c0,.432.039.678.179.821s.38.181.783.2v.237c-.183-.011-.423-.02-.686-.026s-.548-.009-.82-.009c-.307,0-.6,0-.866.009s-.487.014-.652.026V4.171c.4-.017.643-.056.783-.2s.179-.389.179-.821v-4.7c0-.435-.039-.681-.179-.822s-.38-.18-.783-.2V-2.8c.164.011.391.02.652.026s.559.009.866.009c.272,0,.557,0,.82-.009s.5-.014.686-.026Z" transform="translate(35.803 2.802)" fill="#42454a"/>
      </g>
      <g id="Group_814" data-name="Group 814" transform="translate(85.375 63.976)">
        <path id="Path_899" data-name="Path 899" d="M-78.171-2.58a1,1,0,0,0-.783.257,1.4,1.4,0,0,0-.178.879v5.9h-.273l-2.372-3.285L-84.15-2.117V3.015a1.313,1.313,0,0,0,.194.883,1.2,1.2,0,0,0,.885.258v.237c-.142-.011-.344-.02-.56-.026s-.449-.009-.651-.009-.41,0-.6.009-.368.014-.5.026V4.157c.4-.017.643-.086.783-.258a1.421,1.421,0,0,0,.179-.883V-1.56c0-.435-.039-.681-.179-.822s-.38-.18-.783-.2v-.238c.13.011.306.02.5.026s.4.009.6.009.4,0,.584-.009.362-.014.51-.026L-81.3-.184l1.891,2.633V-1.445a1.31,1.31,0,0,0-.191-.879c-.153-.172-.423-.239-.886-.257v-.238c.142.011.343.02.559.026s.448.009.65.009.41,0,.6-.009.368-.014.5-.026v.238Z" transform="translate(85.383 2.818)" fill="#42454a"/>
      </g>
      <g id="Group_815" data-name="Group 815" transform="translate(92.974 63.976)">
        <path id="Path_900" data-name="Path 900" d="M-79.978,0V.238a.968.968,0,0,0-.548.342,3.591,3.591,0,0,0-.448.816l-1.3,2.937-1.3,2.937h-.191l-1.387-3.137L-86.541,1a1.542,1.542,0,0,0-.413-.6.679.679,0,0,0-.4-.16V0c.159.011.363.02.584.026s.458.009.684.009c.307,0,.6,0,.865-.009s.487-.014.652-.026V.238A1.763,1.763,0,0,0-85.2.344a.331.331,0,0,0-.212.328.91.91,0,0,0,.039.244,2.435,2.435,0,0,0,.118.318l1.02,2.3,1.02,2.3.886-1.973.886-1.972a4.39,4.39,0,0,0,.218-.579A1.6,1.6,0,0,0-81.158.88.526.526,0,0,0-81.4.4a1.414,1.414,0,0,0-.693-.159V0c.119.011.342.02.588.026s.516.009.727.009c.139,0,.288,0,.428-.009s.27-.014.371-.026" transform="translate(87.357)" fill="#42454a"/>
      </g>
      <g id="Group_816" data-name="Group 816" transform="translate(100.82 63.977)">
        <path id="Path_901" data-name="Path 901" d="M-64.163-78.153c-.385-.016-.844-.026-1.3-.03s-.916,0-1.3,0c-.342,0-.889,0-1.492,0s-1.262.013-1.826.03v-.237c.4-.017.643-.056.783-.2s.179-.389.179-.821v-4.7c0-.435-.04-.681-.179-.822s-.381-.18-.783-.2v-.238c.564.017,1.224.026,1.826.03s1.151,0,1.492,0,.761,0,1.178,0,.835-.013,1.186-.03c-.029.254-.049.512-.062.738s-.019.418-.019.543c0,.142,0,.281.008.407s.014.239.026.329h-.272a2.455,2.455,0,0,0-.416-1.361,1.275,1.275,0,0,0-1.055-.383h-.869c-.4,0-.643.029-.783.167s-.179.384-.179.818V-81.9h.985a.812.812,0,0,0,.775-.444,2.415,2.415,0,0,0,.21-.766h.272c-.016.2-.027.367-.033.51s-.007.263-.007.371c0,.084,0,.16,0,.234s0,.143,0,.212c0,.163,0,.315.014.517s.03.454.061.816h-.279a2.03,2.03,0,0,0-.226-.825.851.851,0,0,0-.792-.386h-.985v2.253c0,.432.039.678.179.816s.38.169.783.169h.869a1.508,1.508,0,0,0,1.238-.435,2.744,2.744,0,0,0,.47-1.546h.272c-.012.107-.02.238-.026.382s-.009.3-.009.469c0,.136.006.347.019.595s.034.526.062.8" transform="translate(70.083 85.363)" fill="#42454a"/>
      </g>
      <g id="Group_817" data-name="Group 817" transform="translate(108.132 63.804)">
        <path id="Path_902" data-name="Path 902" d="M-40.5-4.807a1.921,1.921,0,0,0,.234.127.419.419,0,0,0,.172.04c.075,0,.128-.048.169-.138a1.527,1.527,0,0,0,.092-.389h.272c-.017.185-.032.395-.042.725s-.016.784-.016,1.459h-.271a2.575,2.575,0,0,0-.512-1.4,1.756,1.756,0,0,0-1.434-.641,1.634,1.634,0,0,0-1.041.334,1.07,1.07,0,0,0-.407.842,1.246,1.246,0,0,0,.558,1.025,11.39,11.39,0,0,0,1.313.777,7.324,7.324,0,0,1,1.549,1,1.751,1.751,0,0,1,.623,1.33,1.815,1.815,0,0,1-.721,1.509,2.831,2.831,0,0,1-1.712.506,3.19,3.19,0,0,1-1-.14,2.684,2.684,0,0,1-.624-.3,1.628,1.628,0,0,0-.238-.13.44.44,0,0,0-.168-.039.187.187,0,0,0-.17.133,1.452,1.452,0,0,0-.091.389h-.273c.018-.217.029-.487.037-.893s.01-.949.01-1.713h.273a3.271,3.271,0,0,0,.548,1.721,1.892,1.892,0,0,0,1.612.735,1.618,1.618,0,0,0,1-.316A1.246,1.246,0,0,0-40.3.719a1.28,1.28,0,0,0-.529-1.011,7.536,7.536,0,0,0-1.359-.814,5.639,5.639,0,0,1-1.4-.914,1.849,1.849,0,0,1-.6-1.374A1.669,1.669,0,0,1-43.5-4.783a2.6,2.6,0,0,1,1.554-.464,2.233,2.233,0,0,1,1.448.441" transform="translate(44.235 5.251)" fill="#42454a"/>
      </g>
      <g id="Group_818" data-name="Group 818" transform="translate(114.143 63.975)">
        <path id="Path_903" data-name="Path 903" d="M-71.451-15.139c0,.191,0,.375.009.541s.014.314.026.432h-.272a3.2,3.2,0,0,0-.42-1.635,1.472,1.472,0,0,0-1.289-.462h-.759V-10.7c0,.481.051.758.226.918a1.543,1.543,0,0,0,.973.223v.237c-.205-.011-.481-.02-.785-.026s-.637-.009-.958-.009c-.356,0-.7,0-1,.009s-.563.014-.754.026v-.237a1.543,1.543,0,0,0,.973-.223c.175-.161.226-.438.226-.918v-5.561h-.76A1.47,1.47,0,0,0-77.3-15.8a3.181,3.181,0,0,0-.422,1.635H-78c.012-.125.021-.272.026-.437s.009-.345.009-.537c0-.136-.006-.346-.019-.592s-.033-.526-.063-.8c.493.017,1.085.026,1.676.03s1.18,0,1.667,0,1.074,0,1.664,0,1.18-.013,1.673-.03c-.033.278-.054.559-.068.8s-.019.456-.019.592" transform="translate(78.043 16.536)" fill="#42454a"/>
      </g>
      <g id="Group_819" data-name="Group 819" transform="translate(61.195 0)">
        <path id="Path_904" data-name="Path 904" d="M-147.2-407.14a26.392,26.392,0,0,0-2.757-2.921,30.408,30.408,0,0,0-6.427-4.441,18.763,18.763,0,0,0,4.035,4.453c.52.341,1.032.706,1.532,1.1a18.531,18.531,0,0,0,3.617,1.806m22.838-8.517a24,24,0,0,0-5.35,2.221,50.868,50.868,0,0,0-8.2,6.127q.265.51.517,1.032.588-.106,1.164-.25a31.317,31.317,0,0,1,7.441-5.016q1.091-.513,2.2-.913a18.654,18.654,0,0,0,2.225-3.2Zm-23-4.5a42.029,42.029,0,0,0-1.624-4.882c-.322-.807-.665-1.6-1.018-2.363l1.306-.91c.4.861.8,1.768,1.168,2.7.327.821.636,1.659.916,2.5q.474-1.679,1.047-3.313l.041-.116a27.011,27.011,0,0,0-1.092-2.833l-.132-.289,1.306-.911c.087.184.173.371.258.56.177.4.349.8.51,1.2q.659-1.662,1.406-3.278l2.007-1.4.33.164a63.968,63.968,0,0,0-3.152,7.416,53.54,53.54,0,0,0-2.1,7.852q.7.636,1.371,1.3a44.646,44.646,0,0,1,2.643-8.854,51.644,51.644,0,0,1,3.384-6.9l1.29.9a50.31,50.31,0,0,0-3.217,6.588,40.888,40.888,0,0,0-2.686,9.389l-.075.252c.556.6.789.916,1.306,1.551a46.5,46.5,0,0,1,2.878-9.645,52.3,52.3,0,0,1,3.445-6.984l1.289.9a50.723,50.723,0,0,0-3.283,6.675,41.067,41.067,0,0,0-2.962,10.675l-.068.1c.139.192.214.275.349.469q.792-.691,1.6-1.336a31.908,31.908,0,0,1,2.47-8.984A37.33,37.33,0,0,1-132.9-428.4l1.288.9a35.723,35.723,0,0,0-3.4,6.157,31.541,31.541,0,0,0-2.137,7.012q1.136-.824,2.3-1.57a42.136,42.136,0,0,1,3.342-7.68c.544-.951,1.1-1.821,1.688-2.667l1.29.9c-.561.812-1.1,1.645-1.613,2.548a37.551,37.551,0,0,0-2.588,5.616q.254-.145.51-.289,1.068-.6,2.158-1.139l-.066-.028a22.107,22.107,0,0,1,2.385-4.134c.324-.456.657-.9.992-1.334l1.29.9c-.342.44-.679.889-1,1.345a24.939,24.939,0,0,0-1.424,2.224c1.569-.7,3.169-1.336,4.8-1.916l.644.449q-.1.54-.222,1.068a57.813,57.813,0,0,0-8.791,3.937,46.947,46.947,0,0,0-8.195,5.776q.5.789.973,1.609a50.938,50.938,0,0,1,8.2-6.087,25.664,25.664,0,0,1,7-2.7,18.661,18.661,0,0,0-10.108-24.378,18.661,18.661,0,0,0-24.378,10.108,18.661,18.661,0,0,0,.273,14.9,33.149,33.149,0,0,1,8.79,5.654,27.771,27.771,0,0,1,4.2,4.811,18.784,18.784,0,0,0,2.194.343l.076.006a27.309,27.309,0,0,0-3.4-4.718c-3.328-3.713-7.639-6.509-12.957-9.187l.707-1.4c5.478,2.76,9.934,5.658,13.418,9.544a29.012,29.012,0,0,1,4.063,5.843c.524,0,1.044-.029,1.559-.075a36.842,36.842,0,0,0-4.228-6.618,39.117,39.117,0,0,0-13-10.362l1.454-1.014q1.731.92,3.329,1.95c-.4-.934-.9-2.022-1.469-3.246l1.305-.91a52.067,52.067,0,0,1,2.36,5.522l-.143.045q.96.7,1.867,1.449.094-.458.2-.912Zm26.614-2.573a20.059,20.059,0,0,1-21.883,18.051,20.059,20.059,0,0,1-18.051-21.883A20.059,20.059,0,0,1-138.8-444.61h0a20.058,20.058,0,0,1,18.051,21.882Z" transform="translate(160.778 444.703)" fill="#595b60"/>
      </g>
      <g id="Group_820" data-name="Group 820" transform="translate(0 45.379)">
        <path id="Path_905" data-name="Path 905" d="M-79.093-116.525c0-.436.013-.833.039-1.119h-.306c-.332,2.146-1.151,2.836-2.341,2.836h-.657c-.774,0-.917-.117-.917-.949v-3.356h.429c1.067,0,1.489.826,1.626,1.762h.306c-.065-1.015-.078-1.457-.078-1.893,0-.2-.007-.39-.007-.637,0-.306.007-.689.046-1.255h-.306c-.143.722-.52,1.756-1.587,1.756h-.429v-3.3c0-.833.143-.949.917-.949h.546c1.223,0,1.919.618,2.185,2.569h.306a8.458,8.458,0,0,1-.039-.9c0-.384.026-1.184.091-1.971-.819.039-1.971.039-2.784.039-.891,0-2.888,0-4.338-.039v.267c.839.039,1,.176,1,1.145v6.608c0,.969-.15,1.106-1,1.145v.267c1.45-.039,3.447-.039,4.338-.039s2.146,0,3.05.039c-.078-.8-.091-1.626-.091-2.023m10.381-7.408c-.28.026-.741.039-1.158.039-.481,0-1.1-.013-1.444-.039v.267c1.177.117,1.294.455,1.294,1.919v4.169l-5.151-6.354c-.312.026-.728.039-1.151.039s-.878-.013-1.158-.039v.267c.845.039,1,.176,1,1.145v6c0,1.288-.15,1.639-1,1.756v.267c.28-.026.741-.039,1.158-.039.481,0,1.1.013,1.444.039v-.267c-1.177-.117-1.294-.455-1.294-1.919V-121.8l5.775,7.323c.13-.007.247-.007.364-.007s.221,0,.319.007v-7.434c0-1.288.15-1.639,1-1.756Zm6.546,3.512L-60.5-122.4a3.419,3.419,0,0,1,1.938-1.268v-.26c-.325.026-.735.039-1.262.039-.787,0-1.314-.013-1.964-.039v.26c.611.02.976.273.976.715a2.108,2.108,0,0,1-.611,1.236l-.78.949a2.858,2.858,0,0,1-1.977,1.249v-3c0-.969.15-1.106,1-1.145v-.267c-.481.026-1.275.039-2.016.039-.852,0-1.652-.013-2.1-.039v.267c.839.039,1,.176,1,1.145v6.608c0,.969-.15,1.106-1,1.145v.267c.449-.026,1.249-.039,2.1-.039.741,0,1.535.013,2.016.039v-.267c-.845-.039-1-.176-1-1.145v-3.323c.4.033.566.163.937.741l1.938,3.128a.753.753,0,0,1,.136.332c0,.176-.215.247-.709.267v.267c.813-.039,1.327-.039,1.691-.039.637,0,1.463.013,2.081.039v-.267a1.787,1.787,0,0,1-.956-.813Zm9.44-3.512c-.494.026-1.32.039-2.094.039-.852,0-1.652-.013-2.1-.039v.267c.839.039,1,.176,1,1.145v6.608c0,.969-.15,1.106-1,1.145v.267c1.45-.039,3.447-.039,4.338-.039s2.146,0,3.05.039c-.078-.833-.091-1.691-.091-2.107,0-.455.013-.865.039-1.171h-.306c-.26,1.775-1.2,2.972-2.426,2.972h-.65c-.7,0-.839-.117-.839-.949v-6.764c0-.969.176-1.106,1.08-1.145Zm9.387-.026c-.143.013-.306.02-.462.02s-.319-.007-.462-.02l-3.031,7.791c-.377.982-.767,1.327-1.158,1.4v.267c.267-.026.631-.039,1.021-.039.553,0,1.054.013,1.658.039v-.267c-.728-.02-1.184-.2-1.184-.9a4.317,4.317,0,0,1,.364-1.476l.358-.923h2.894l.8,2.185a1.861,1.861,0,0,1,.156.631c0,.364-.3.462-.937.488v.267c.442-.026,1.2-.039,2.029-.039.728,0,1.5.013,2.023.039v-.267c-.254-.013-.592-.215-.839-.852Zm-.1,5.619h-2.7l1.379-3.584ZM-28-123.894c-.553,0-1.06-.013-1.658-.039v.267c.735.02,1.145.312,1.145,1.112a5.5,5.5,0,0,1-.3,1.548l-1.268,4.032-1.828-5.574a2.051,2.051,0,0,1-.137-.624c0-.4.312-.468.911-.494v-.267c-.423.026-1.138.039-1.919.039-.683,0-1.411-.013-1.9-.039v.267c.28.02.54.163.722.715l.689,2.075-1.359,3.961-1.932-5.632a1.854,1.854,0,0,1-.124-.6.472.472,0,0,1,.468-.52v-.267c-.351.026-.93.039-1.639.039-.676,0-1.457-.013-1.984-.039v.267c.254.013.6.208.839.852l2.985,8.338c.143-.007.293-.013.455-.013s.325.007.468.013l1.977-5.925,1.964,5.925c.143-.007.293-.013.455-.013s.325.007.468.013l2.348-7.609a2.229,2.229,0,0,1,1.164-1.58v-.267c-.267.026-.624.039-1.015.039m5.272-.065c-.143.013-.306.02-.462.02s-.319-.007-.462-.02l-3.031,7.791c-.377.982-.767,1.327-1.158,1.4v.267c.267-.026.631-.039,1.021-.039.553,0,1.054.013,1.659.039v-.267c-.728-.02-1.184-.2-1.184-.9a4.317,4.317,0,0,1,.364-1.476l.358-.923h2.894l.8,2.185a1.861,1.861,0,0,1,.156.631c0,.364-.3.462-.937.488v.267c.442-.026,1.2-.039,2.029-.039.728,0,1.5.013,2.023.039v-.267c-.254-.013-.592-.215-.839-.852Zm-.1,5.619h-2.7l1.379-3.584Zm12.948-5.593c-.533,0-1.457.026-2.094.039-.137,0-.28.007-.416.007-.624,0-1.242-.026-1.606-.046v.267c.839.039,1,.176,1,1.145v6.608c0,.969-.15,1.106-1,1.145v.267c.449-.026,1.262-.039,2.049-.039.6,0,1.528.039,1.945.039,3.349,0,5.3-1.919,5.3-4.819,0-2.972-1.671-4.611-5.177-4.611m-.013.241c2.146,0,2.979,1.437,2.979,4.422,0,2.9-.722,4.527-2.966,4.527-.826,0-1-.215-1-1.145v-6.66c0-.917.176-1.145.989-1.145m13.469.026v-.267c-1.164.039-2.595.039-3.8.039-.878,0-2.107,0-3-.039.072.806.1,1.626.1,2.023s-.013.767-.039,1.015h.306c.254-2.1,1.34-2.731,2.66-2.731H1.332l-4.644,8.858v.267c1.106-.039,2.426-.039,3.577-.039.969,0,2.328,0,3.317.039a20.142,20.142,0,0,1-.091-2.023c0-.462.013-.872.039-1.177H3.224c-.234,2.192-1.6,2.894-2.81,2.894H-1.049Zm5.628-.267c-.481.026-1.275.039-2.016.039-.852,0-1.652-.013-2.1-.039v.267c.839.039,1,.176,1,1.145v6.608c0,.969-.15,1.106-1,1.145v.267c.449-.026,1.249-.039,2.1-.039.741,0,1.535.013,2.016.039v-.267c-.846-.039-1-.176-1-1.145v-6.608c0-.969.15-1.106,1-1.145Zm13.276.039c-.553,0-1.06-.013-1.658-.039v.267c.735.02,1.145.312,1.145,1.112a5.5,5.5,0,0,1-.3,1.548L20.4-116.974l-1.828-5.574a2.051,2.051,0,0,1-.137-.624c0-.4.312-.468.911-.494v-.267c-.423.026-1.138.039-1.919.039-.683,0-1.411-.013-1.9-.039v.267c.28.02.54.163.722.715l.689,2.075-1.359,3.961-1.932-5.632a1.854,1.854,0,0,1-.124-.6.472.472,0,0,1,.468-.52v-.267c-.351.026-.93.039-1.639.039-.676,0-1.457-.013-1.984-.039v.267c.254.013.6.208.839.852l2.985,8.338c.143-.007.293-.013.455-.013s.325.007.468.013L17.1-120.4l1.964,5.925c.143-.007.293-.013.455-.013s.325.007.468.013l2.348-7.609a2.229,2.229,0,0,1,1.164-1.58v-.267c-.267.026-.624.039-1.015.039m10.995-.039c-.28.026-.741.039-1.158.039-.481,0-1.1-.013-1.444-.039v.267c1.177.117,1.294.455,1.294,1.919v4.169l-5.151-6.354c-.312.026-.728.039-1.151.039s-.878-.013-1.158-.039v.267c.846.039,1,.176,1,1.145v6c0,1.288-.15,1.639-1,1.756v.267c.28-.026.741-.039,1.158-.039.481,0,1.1.013,1.444.039v-.267c-1.177-.117-1.294-.455-1.294-1.919V-121.8l5.775,7.323c.13-.007.247-.007.364-.007s.221,0,.319.007v-7.434c0-1.288.15-1.639,1-1.756Zm6.654-3.284a.876.876,0,0,0-.306-.059.7.7,0,0,0-.65.449,18.3,18.3,0,0,0-.228,2.133l.176.085c.683-.9,1.171-1.171,1.372-1.652a.865.865,0,0,0,.072-.325.677.677,0,0,0-.436-.631m-.78,3.1a4.622,4.622,0,0,0-4.715,4.982c0,3.05,1.88,4.826,4.7,4.826a4.626,4.626,0,0,0,4.715-4.982c0-3.05-1.886-4.826-4.7-4.826m-.059.241c1.411,0,2.549,1.8,2.549,4.637,0,2.758-.963,4.689-2.452,4.689-1.4,0-2.543-1.8-2.543-4.637,0-2.758.956-4.689,2.445-4.689m17.211-.013c-.553,0-1.06-.013-1.658-.039v.267c.735.02,1.145.312,1.145,1.112a5.5,5.5,0,0,1-.3,1.548l-1.268,4.032L52.6-122.548a2.051,2.051,0,0,1-.137-.624c0-.4.312-.468.91-.494v-.267c-.423.026-1.138.039-1.919.039-.683,0-1.411-.013-1.9-.039v.267c.28.02.54.163.722.715l.689,2.075-1.359,3.961-1.932-5.632a1.854,1.854,0,0,1-.124-.6.472.472,0,0,1,.468-.52v-.267c-.351.026-.93.039-1.639.039-.676,0-1.457-.013-1.984-.039v.267c.254.013.6.208.839.852l2.985,8.338c.143-.007.293-.013.455-.013s.325.007.468.013l1.977-5.925,1.964,5.925c.143-.007.293-.013.455-.013s.325.007.468.013l2.348-7.609a2.229,2.229,0,0,1,1.164-1.58v-.267c-.267.026-.624.039-1.015.039m9.52,7.369c0-.436.013-.833.039-1.119h-.306c-.332,2.146-1.151,2.836-2.341,2.836h-.657c-.774,0-.917-.117-.917-.949v-3.356h.429c1.067,0,1.489.826,1.626,1.762H64.2c-.065-1.015-.078-1.457-.078-1.893,0-.2-.007-.39-.007-.637,0-.306.007-.689.046-1.255H63.86c-.143.722-.52,1.756-1.587,1.756h-.429v-3.3c0-.833.143-.949.917-.949h.546c1.223,0,1.919.618,2.185,2.569H65.8a8.452,8.452,0,0,1-.039-.9c0-.384.026-1.184.091-1.971-.819.039-1.971.039-2.784.039-.891,0-2.888,0-4.338-.039v.267c.839.039,1,.176,1,1.145v6.608c0,.969-.15,1.106-1,1.145v.267c1.45-.039,3.447-.039,4.338-.039s2.146,0,3.05.039c-.078-.8-.091-1.626-.091-2.023m6.739-3.9L74.43-122.4a3.419,3.419,0,0,1,1.938-1.268v-.26c-.325.026-.735.039-1.262.039-.787,0-1.314-.013-1.964-.039v.26c.611.02.976.273.976.715a2.108,2.108,0,0,1-.611,1.236l-.78.949a2.858,2.858,0,0,1-1.977,1.249v-3c0-.969.15-1.106,1-1.145v-.267c-.481.026-1.275.039-2.016.039-.852,0-1.652-.013-2.1-.039v.267c.839.039,1,.176,1,1.145v6.608c0,.969-.15,1.106-1,1.145v.267c.449-.026,1.249-.039,2.1-.039.741,0,1.535.013,2.016.039v-.267c-.845-.039-1-.176-1-1.145v-3.323c.4.033.566.163.936.741l1.938,3.128a.754.754,0,0,1,.137.332c0,.176-.215.247-.709.267v.267c.813-.039,1.327-.039,1.691-.039.637,0,1.463.013,2.081.039v-.267a1.788,1.788,0,0,1-.956-.813Z" transform="translate(86.39 127.276)" fill="#42454a"/>
      </g>
    </g>
  </g>
</svg>
