<svg xmlns="http://www.w3.org/2000/svg" width="701.728" height="313.533" viewBox="0 0 701.728 313.533">
  <g id="Group_869" data-name="Group 869" transform="translate(-609.272 -264.245)">
    <path id="Path_892" data-name="Path 892" d="M-33.217-28.386a20.963,20.963,0,0,1-3.031,10.221c-1.98,3.231-4.887,5.712-8.6,5.712a3.343,3.343,0,0,1-2.076-.688,3.663,3.663,0,0,1-1.26-1.967l-1.688,1.367-1.685,1.368-.3-.146-.3-.146a6.793,6.793,0,0,0,.459-1.107,10.491,10.491,0,0,0,.3-1.18l3.481-12.272,3.478-12.27c.049-.205.089-.393.116-.572a3.471,3.471,0,0,0,.041-.495,1.247,1.247,0,0,0-.58-1.167,4.056,4.056,0,0,0-2.075-.384l.1-.417.1-.417a17.217,17.217,0,0,0,3.838-.443,13.681,13.681,0,0,0,3.141-1.184l-2.57,9.372-2.57,9.374a21.93,21.93,0,0,1,3.722-6.238,5.216,5.216,0,0,1,3.838-1.906,3.619,3.619,0,0,1,3,1.383,6.75,6.75,0,0,1,1.129,4.2m-3.413-.873a5.412,5.412,0,0,0-.5-2.6,1.5,1.5,0,0,0-1.359-.853c-1.1,0-2.475,1.36-3.868,3.562a43.24,43.24,0,0,0-3.984,8.593l-.688,2.49-.689,2.49a3.906,3.906,0,0,0,1.21,1.723,2.623,2.623,0,0,0,1.62.487c2.25,0,4.313-2.481,5.815-5.708a26.245,26.245,0,0,0,2.443-10.187" transform="translate(840.671 583.326)" fill="#fff"/>
    <path id="Path_893" data-name="Path 893" d="M-36.986-5.654a22.618,22.618,0,0,1-2.5,9.045A45.412,45.412,0,0,1-44.8,11.969a29.667,29.667,0,0,1-2.965,3.207,19.875,19.875,0,0,1-4.868,3.384,12.262,12.262,0,0,1-2.051.778,5.569,5.569,0,0,1-1.4.212,2.329,2.329,0,0,1-1.4-.414,1.458,1.458,0,0,1-.6-1.213,1.617,1.617,0,0,1,.661-1.321,2.5,2.5,0,0,1,1.492-.463,3.7,3.7,0,0,1,1.742.479,10.028,10.028,0,0,1,1.556,1.074,19.171,19.171,0,0,0,2.85-1.853,24.573,24.573,0,0,0,3.1-2.9l-1.463-8.9-1.465-8.9A5.64,5.64,0,0,0-50.1-6.563a.839.839,0,0,0-.786-.483c-.3,0-.616.158-.99.694A13.322,13.322,0,0,0-53.228-3.4l-.255.737-.251.737h-.756L-54-3.374l.495-1.445A6.658,6.658,0,0,1-51.45-8.05a3.994,3.994,0,0,1,2.522-.82,2.25,2.25,0,0,1,1.891.77,5.811,5.811,0,0,1,.959,2.876l1.017,7.464L-44.042,9.7a40.1,40.1,0,0,0,3.677-6.169,29.239,29.239,0,0,0,2.314-6.718,8.226,8.226,0,0,1-1.98-1.425,3.253,3.253,0,0,1-1.047-2.239,1.987,1.987,0,0,1,.58-1.5,2.055,2.055,0,0,1,1.438-.523,1.727,1.727,0,0,1,1.575.818,4.6,4.6,0,0,1,.5,2.4" transform="translate(864.136 558.228)" fill="#fff"/>
    <path id="Path_894" data-name="Path 894" d="M-28.176-3.325a7.159,7.159,0,0,0,1,.558,1.87,1.87,0,0,0,.741.163.8.8,0,0,0,.73-.566,6.236,6.236,0,0,0,.39-1.669h1.171c-.074.9-.137,1.89-.18,3.465s-.071,3.73-.071,6.941h-1.169A13.329,13.329,0,0,0-27.768-1.16,7.25,7.25,0,0,0-33.93-4.245,6.4,6.4,0,0,0-38.407-2.6a5.759,5.759,0,0,0-1.749,4.281,6.783,6.783,0,0,0,2.565,5.333,46.363,46.363,0,0,0,6,4.005,32,32,0,0,1,6.585,4.93A9.178,9.178,0,0,1-22.4,22.5a8.986,8.986,0,0,1-3.2,7.272,11.966,11.966,0,0,1-7.637,2.415,13.73,13.73,0,0,1-4.29-.6A11.56,11.56,0,0,1-40.209,30.3a7.09,7.09,0,0,0-1.02-.558,1.9,1.9,0,0,0-.722-.166.8.8,0,0,0-.729.572,6.225,6.225,0,0,0-.391,1.672h-1.171c.075-1.045.124-2.3.155-4.2s.044-4.431.044-8.028h1.171A16.5,16.5,0,0,0-40.518,27.7a7.891,7.891,0,0,0,6.935,3.474,6.84,6.84,0,0,0,4.555-1.6,6.632,6.632,0,0,0,2.069-5.2,7.143,7.143,0,0,0-2.2-5.146A28.035,28.035,0,0,0-34.9,15.056a29.358,29.358,0,0,1-6.364-4.65A9.456,9.456,0,0,1-43.99,3.624a8.273,8.273,0,0,1,2.907-6.681A10.467,10.467,0,0,1-34.4-5.217a10.9,10.9,0,0,1,3.859.6,10.7,10.7,0,0,1,2.367,1.292" transform="translate(888.221 538.844)" fill="#fff"/>
    <path id="Path_895" data-name="Path 895" d="M-49.438-47.293a6.653,6.653,0,0,0,1.787,2.568,2.974,2.974,0,0,0,1.751.7v1.019c-.7-.049-1.581-.086-2.532-.11s-1.965-.037-2.925-.037c-1.331,0-2.609.013-3.731.037s-2.1.062-2.82.11v-1.018a7.7,7.7,0,0,0,2.749-.459,1.428,1.428,0,0,0,.915-1.409,3.863,3.863,0,0,0-.172-1.05,9.458,9.458,0,0,0-.527-1.368l-1.282-2.9-1.283-2.9H-69.958l-.861,1.909-.86,1.906a12.817,12.817,0,0,0-.629,1.762,5.916,5.916,0,0,0-.216,1.5,2.49,2.49,0,0,0,.933,2.078,5.581,5.581,0,0,0,3.026.938V-43c-.511-.049-1.209-.086-2.006-.11s-1.705-.037-2.627-.037c-.584,0-1.473.013-2.326.037s-1.669.061-2.105.11v-1.027A4.634,4.634,0,0,0-75.192-45.7a13.238,13.238,0,0,0,1.748-3.057l5.628-12.751,5.629-12.751h.82L-55.4-60.777ZM-63.709-68.112l-2.9,6.486-2.9,6.487h11.555l-2.876-6.487Z" transform="translate(945.808 613.32)" fill="#fff"/>
    <path id="Path_896" data-name="Path 896" d="M-55.642,0V1.022A4.151,4.151,0,0,0-58,2.493,15.5,15.5,0,0,0-59.93,6l-5.586,12.628-5.592,12.628h-.82l-5.966-13.487L-83.858,4.283a6.684,6.684,0,0,0-1.776-2.574,2.92,2.92,0,0,0-1.739-.686V0c.684.049,1.564.086,2.513.11s1.972.037,2.944.037C-80.6.15-79.321.139-78.2.113S-76.1.051-75.391,0v1.02a7.6,7.6,0,0,0-2.725.457,1.426,1.426,0,0,0-.911,1.409,3.984,3.984,0,0,0,.167,1.05,10.533,10.533,0,0,0,.5,1.368l4.384,9.9,4.384,9.9,3.811-8.481,3.81-8.481a18.7,18.7,0,0,0,.942-2.488,6.91,6.91,0,0,0,.3-1.87A2.266,2.266,0,0,0-61.751,1.7a6.074,6.074,0,0,0-2.975-.682V0c.509.049,1.469.086,2.527.11s2.217.037,3.125.037c.6,0,1.238-.011,1.839-.037S-56.081.049-55.642,0" transform="translate(982.311 539.307)" fill="#fff"/>
    <path id="Path_897" data-name="Path 897" d="M-44.633-54.362c-1.656-.071-3.631-.11-5.6-.128s-3.937-.02-5.58-.02c-1.469,0-3.823,0-6.416.02s-5.426.055-7.854.128v-1.019c1.729-.075,2.763-.243,3.364-.856s.77-1.672.77-3.528v-20.2c0-1.868-.167-2.927-.77-3.536s-1.634-.772-3.364-.845v-1.021c2.428.075,5.26.11,7.854.13s4.95.018,6.416.018,3.267,0,5.06-.018,3.593-.055,5.1-.13c-.125,1.094-.212,2.2-.269,3.171S-46-80.4-46-79.858c0,.611.011,1.209.038,1.749s.062,1.029.11,1.415h-1.169c-.262-2.8-.8-4.676-1.79-5.85s-2.444-1.647-4.535-1.647h-3.74c-1.729,0-2.758.126-3.362.717s-.77,1.65-.77,3.518v9.489h4.232a3.494,3.494,0,0,0,3.333-1.909,10.35,10.35,0,0,0,.9-3.3h1.171c-.076.861-.12,1.577-.142,2.192s-.031,1.131-.031,1.595c0,.361.007.69.014,1.006s.011.613.011.91c0,.7.013,1.352.06,2.221s.128,1.952.264,3.509H-52.6a8.777,8.777,0,0,0-.979-3.547,3.662,3.662,0,0,0-3.408-1.658h-4.232v9.688c0,1.857.17,2.915.77,3.509s1.634.726,3.363.726h3.739c2.49,0,4.183-.536,5.326-1.868s1.735-3.465,2.02-6.647h1.172c-.051.461-.089,1.021-.113,1.644s-.037,1.308-.037,2.018c0,.585.025,1.493.08,2.556s.138,2.261.264,3.457" transform="translate(998.759 624.674)" fill="#fff"/>
    <path id="Path_898" data-name="Path 898" d="M-22.8-1.784c-1.731.071-2.766.236-3.367.845S-26.936.73-26.936,2.6v20.2c0,1.857.167,2.915.768,3.528s1.635.778,3.367.856V28.2c-.785-.049-1.819-.086-2.949-.11s-2.355-.037-3.527-.037c-1.319,0-2.6.013-3.721.037s-2.1.062-2.805.11V27.18c1.732-.075,2.766-.243,3.366-.856s.769-1.672.769-3.528V2.6c0-1.868-.167-2.927-.769-3.536s-1.634-.772-3.366-.845V-2.8c.707.049,1.683.086,2.805.11s2.4.037,3.721.037c1.172,0,2.4-.011,3.527-.037s2.164-.062,2.949-.11Z" transform="translate(994.849 542.113)" fill="#fff"/>
    <path id="Path_899" data-name="Path 899" d="M-54.375-1.795c-1.731.071-2.764.366-3.366,1.1s-.767,1.921-.767,3.778V28.441h-1.174l-10.2-14.123L-80.08.2V22.261c0,1.868.17,3.057.834,3.8s1.822,1.035,3.8,1.109v1.02c-.612-.049-1.478-.086-2.409-.11s-1.928-.037-2.8-.037-1.762.013-2.589.037-1.582.062-2.143.11V27.169c1.732-.075,2.767-.368,3.366-1.109s.77-1.93.77-3.8V2.59c0-1.868-.167-2.927-.77-3.536s-1.634-.772-3.366-.845V-2.812c.56.049,1.315.086,2.143.11s1.731.037,2.589.037,1.707-.011,2.513-.037,1.555-.062,2.192-.11l8.132,11.319,8.132,11.319V3.085c0-1.857-.161-3.041-.821-3.778s-1.818-1.03-3.809-1.1V-2.818c.609.049,1.476.086,2.4.11s1.925.037,2.8.037,1.761-.011,2.591-.037,1.582-.061,2.142-.11v1.023Z" transform="translate(1061.72 542.123)" fill="#fff"/>
    <path id="Path_900" data-name="Path 900" d="M-55.632,0V1.022a4.162,4.162,0,0,0-2.355,1.472A15.438,15.438,0,0,0-59.914,6L-65.5,18.631-71.1,31.258h-.823l-5.964-13.487L-83.848,4.283a6.632,6.632,0,0,0-1.774-2.574,2.92,2.92,0,0,0-1.735-.686V0c.684.049,1.561.086,2.512.11S-82.875.15-81.9.15c1.321,0,2.6-.011,3.721-.037s2.094-.062,2.8-.11v1.02a7.581,7.581,0,0,0-2.722.457,1.425,1.425,0,0,0-.913,1.409,3.911,3.911,0,0,0,.168,1.05,10.467,10.467,0,0,0,.507,1.368l4.384,9.9,4.384,9.9,3.811-8.481,3.809-8.481a18.874,18.874,0,0,0,.939-2.488,6.894,6.894,0,0,0,.307-1.87A2.263,2.263,0,0,0-61.741,1.7a6.08,6.08,0,0,0-2.978-.682V0c.511.049,1.469.086,2.528.11s2.216.037,3.126.037c.6,0,1.239-.011,1.839-.037S-56.068.049-55.632,0" transform="translate(1096.365 539.307)" fill="#fff"/>
    <path id="Path_901" data-name="Path 901" d="M-44.632-54.362c-1.657-.071-3.628-.11-5.6-.128s-3.937-.02-5.587-.02c-1.469,0-3.822,0-6.416.02s-5.426.055-7.849.128v-1.019c1.729-.075,2.763-.243,3.366-.856s.77-1.672.77-3.528v-20.2c0-1.868-.17-2.927-.77-3.536s-1.636-.772-3.366-.845v-1.021c2.426.075,5.26.11,7.849.13s4.95.018,6.416.018c1.485,0,3.272,0,5.065-.018s3.591-.055,5.1-.13c-.123,1.094-.212,2.2-.267,3.171S-46-80.4-46-79.858c0,.611.011,1.209.036,1.749s.061,1.029.112,1.415h-1.171c-.261-2.8-.8-4.676-1.789-5.85s-2.443-1.647-4.534-1.647h-3.737c-1.731,0-2.766.126-3.366.717s-.769,1.65-.769,3.518v9.489h4.235a3.489,3.489,0,0,0,3.33-1.909,10.383,10.383,0,0,0,.9-3.3h1.169c-.071.861-.117,1.577-.142,2.192s-.03,1.131-.03,1.595c0,.361.006.69.013,1.006s.013.613.013.91c0,.7.01,1.352.058,2.221s.127,1.952.264,3.509h-1.2a8.729,8.729,0,0,0-.974-3.547,3.657,3.657,0,0,0-3.405-1.658h-4.235v9.688c0,1.857.168,2.915.769,3.509s1.635.726,3.366.726h3.737c2.488,0,4.181-.536,5.324-1.868s1.736-3.465,2.022-6.647h1.169c-.051.461-.086,1.021-.112,1.644s-.037,1.308-.037,2.018c0,.585.026,1.493.081,2.556s.144,2.261.268,3.457" transform="translate(1112.824 624.674)" fill="#fff"/>
    <path id="Path_902" data-name="Path 902" d="M-28.171-3.344a8.26,8.26,0,0,0,1,.547,1.8,1.8,0,0,0,.741.174c.321,0,.551-.205.725-.591a6.567,6.567,0,0,0,.4-1.674h1.168c-.075.8-.137,1.7-.18,3.117s-.071,3.37-.071,6.273h-1.167a11.07,11.07,0,0,0-2.2-6.011,7.551,7.551,0,0,0-6.165-2.758A7.026,7.026,0,0,0-38.4-2.831,4.6,4.6,0,0,0-40.149.791a5.356,5.356,0,0,0,2.4,4.4,48.973,48.973,0,0,0,5.646,3.339,31.488,31.488,0,0,1,6.661,4.3,7.53,7.53,0,0,1,2.68,5.717,7.8,7.8,0,0,1-3.1,6.489,12.173,12.173,0,0,1-7.361,2.177,13.717,13.717,0,0,1-4.289-.6A11.54,11.54,0,0,1-40.2,25.322a7,7,0,0,0-1.022-.558,1.89,1.89,0,0,0-.721-.166.8.8,0,0,0-.73.572,6.242,6.242,0,0,0-.39,1.672h-1.174c.077-.935.125-2.093.157-3.84s.042-4.08.042-7.367h1.172a14.062,14.062,0,0,0,2.355,7.4,8.135,8.135,0,0,0,6.93,3.161,6.958,6.958,0,0,0,4.288-1.359A5.357,5.357,0,0,0-27.3,20.416a5.5,5.5,0,0,0-2.274-4.346,32.4,32.4,0,0,0-5.841-3.5,24.246,24.246,0,0,1-6-3.931,7.949,7.949,0,0,1-2.565-5.909,7.176,7.176,0,0,1,2.907-5.973,11.161,11.161,0,0,1,6.681-2,9.6,9.6,0,0,1,6.227,1.895" transform="translate(1118.417 543.817)" fill="#fff"/>
    <path id="Path_903" data-name="Path 903" d="M-49.7-10.531c0,.82.013,1.612.037,2.325s.062,1.35.113,1.859h-1.171c-.273-3.361-.728-5.615-1.8-7.029s-2.779-1.987-5.543-1.987h-3.264V8.547c0,2.067.218,3.258.972,3.948s2.042.885,4.185.959v1.018c-.882-.049-2.067-.086-3.375-.11s-2.74-.037-4.12-.037c-1.53,0-3.009.013-4.306.037s-2.419.062-3.242.11V13.454c2.142-.075,3.43-.269,4.184-.959s.973-1.882.973-3.948v-23.91h-3.266c-2.752,0-4.449.573-5.53,1.987S-76.4-9.708-76.673-6.347h-1.172c.051-.536.088-1.171.112-1.877s.04-1.485.04-2.308c0-.587-.027-1.489-.082-2.546s-.141-2.263-.269-3.459c2.118.075,4.667.11,7.206.13s5.074.017,7.166.017,4.619,0,7.153-.017,5.075-.055,7.193-.13c-.141,1.2-.232,2.4-.293,3.459s-.083,1.96-.083,2.546" transform="translate(1178.065 555.839)" fill="#fff"/>
    <g id="Group_819" data-name="Group 819" transform="translate(872.377 264.245)">
      <path id="Path_904" data-name="Path 904" d="M-102.389-283.2a113.471,113.471,0,0,0-11.852-12.557,130.736,130.736,0,0,0-27.633-19.093,80.67,80.67,0,0,0,17.347,19.147c2.237,1.465,4.435,3.037,6.589,4.738a79.678,79.678,0,0,0,15.55,7.766m98.19-36.62a103.172,103.172,0,0,0-23,9.55c-11.5,6.465-22.4,15.188-35.253,26.342q1.139,2.192,2.224,4.438,2.528-.457,5-1.076a134.643,134.643,0,0,1,31.991-21.568q4.689-2.2,9.469-3.926A80.2,80.2,0,0,0-4.2-319.824Zm-98.907-19.331a180.72,180.72,0,0,0-6.981-20.991c-1.386-3.471-2.859-6.884-4.378-10.162l5.615-3.914c1.74,3.7,3.434,7.6,5.021,11.593,1.407,3.529,2.733,7.131,3.94,10.735q2.038-7.219,4.5-14.246l.176-.5a116.129,116.129,0,0,0-4.7-12.182q-.283-.625-.566-1.242l5.616-3.915c.373.792.744,1.6,1.109,2.408.761,1.7,1.5,3.441,2.192,5.168q2.835-7.147,6.045-14.094l8.627-6.011,1.421.707a275.029,275.029,0,0,0-13.552,31.884,230.191,230.191,0,0,0-9.048,33.76q3.024,2.733,5.894,5.6c2.016-11.765,6.147-25.18,11.363-38.069a222.049,222.049,0,0,1,14.549-29.653l5.547,3.866a216.324,216.324,0,0,0-13.832,28.325c-5.628,13.907-9.939,28.34-11.549,40.365l-.324,1.085c2.391,2.583,3.394,3.94,5.614,6.668,2.075-12.729,6.667-27.5,12.375-41.469a224.835,224.835,0,0,1,14.81-30.025l5.54,3.863A218.084,218.084,0,0,0-62.19-350.9C-68.639-335.119-73.6-318.345-74.925-305l-.293.414c.6.825.919,1.18,1.5,2.016q3.406-2.97,6.888-5.745a137.188,137.188,0,0,1,10.618-38.625,160.5,160.5,0,0,1,15.292-27.668l5.54,3.864A153.587,153.587,0,0,0-50-344.275a135.606,135.606,0,0,0-9.186,30.147q4.883-3.543,9.9-6.75c4.753-14.116,9.4-24.335,14.37-33.019,2.338-4.089,4.741-7.828,7.256-11.467l5.545,3.867c-2.413,3.492-4.711,7.072-6.935,10.956A161.446,161.446,0,0,0-40.18-326.4q1.092-.625,2.192-1.242,4.592-2.56,9.278-4.9l-.283-.119a95.05,95.05,0,0,1,10.254-17.774c1.392-1.959,2.824-3.873,4.266-5.737l5.545,3.867c-1.47,1.89-2.92,3.822-4.314,5.781a107.2,107.2,0,0,0-6.121,9.563c6.745-3.022,13.624-5.746,20.631-8.236l2.771,1.932q-.412,2.322-.953,4.59a248.558,248.558,0,0,0-37.8,16.926,201.846,201.846,0,0,0-35.233,24.836q2.168,3.394,4.182,6.916c12.711-10.984,23.619-19.636,35.255-26.172A110.339,110.339,0,0,1-.4-327.754,80.233,80.233,0,0,0-43.856-432.568a80.232,80.232,0,0,0-104.813,43.461,80.233,80.233,0,0,0,1.172,64.046,142.525,142.525,0,0,1,37.794,24.31,119.4,119.4,0,0,1,18.069,20.687,80.745,80.745,0,0,0,9.433,1.476c.108.008.219.016.327.026a117.418,117.418,0,0,0-14.608-20.285c-14.309-15.965-32.844-27.983-55.709-39.5l3.041-6.025c23.552,11.865,42.711,24.326,57.691,41.036a124.733,124.733,0,0,1,17.471,25.12c2.255-.014,4.488-.126,6.7-.324A158.4,158.4,0,0,0-85.465-307q-21.865-27.245-55.9-44.55l6.25-4.358q7.441,3.954,14.313,8.382c-1.7-4.016-3.856-8.692-6.317-13.958l5.611-3.913c4.667,9.979,8.344,17.989,10.148,23.742l-.613.192q4.129,3.017,8.026,6.229.4-1.971.841-3.922ZM11.32-350.216a86.243,86.243,0,0,1-94.087,77.61,86.243,86.243,0,0,1-77.61-94.087A86.243,86.243,0,0,1-66.29-444.3h0a86.239,86.239,0,0,1,77.609,94.081Z" transform="translate(160.778 444.703)" fill="#fff"/>
    </g>
    <g id="Group_820" data-name="Group 820" transform="translate(609.272 459.352)">
      <path id="Path_905" data-name="Path 905" d="M-55.016-81.054c0-1.874.056-3.579.168-4.809h-1.314c-1.426,9.227-4.949,12.191-10.066,12.191h-2.824c-3.328,0-3.943-.5-3.943-4.082V-92.183h1.846c4.586,0,6.4,3.551,6.991,7.578h1.314c-.28-4.362-.336-6.263-.336-8.137,0-.839-.028-1.677-.028-2.74,0-1.314.028-2.964.2-5.4h-1.314c-.615,3.1-2.237,7.55-6.823,7.55H-73v-14.177c0-3.579.615-4.082,3.943-4.082H-66.7c5.257,0,8.249,2.656,9.4,11.045H-56a36.365,36.365,0,0,1-.168-3.887c0-1.65.112-5.089.392-8.473-3.523.168-8.473.168-11.968.168-3.831,0-12.415,0-18.651-.168v1.146c3.607.168,4.278.755,4.278,4.921v28.41c0,4.166-.643,4.753-4.278,4.921v1.147c6.236-.168,14.82-.168,18.651-.168,3.859,0,9.228,0,13.115.168-.336-3.44-.392-6.991-.392-8.7M-10.384-112.9c-1.2.112-3.187.168-4.977.168-2.069,0-4.726-.056-6.208-.168v1.146c5.061.5,5.564,1.957,5.564,8.249v17.924L-38.15-112.9c-1.342.112-3.132.168-4.95.168-1.79,0-3.775-.056-4.977-.168v1.146c3.635.168,4.306.755,4.306,4.921v25.781c0,5.536-.643,7.046-4.306,7.55v1.147c1.2-.112,3.188-.168,4.977-.168,2.069,0,4.726.056,6.208.168V-73.5c-5.061-.5-5.564-1.957-5.564-8.249v-21.978l24.831,31.485c.559-.028,1.063-.028,1.566-.028.475,0,.951,0,1.37.028v-31.961c0-5.537.643-7.047,4.306-7.55ZM17.758-97.8l7.158-8.528c3.02-3.579,5.844-4.922,8.333-5.453V-112.9c-1.4.112-3.16.168-5.425.168-3.384,0-5.649-.056-8.445-.168v1.119c2.628.084,4.194,1.174,4.194,3.076,0,1.37-.811,3.16-2.628,5.313l-3.356,4.082c-3.02,3.467-5.369,5.173-8.5,5.369v-12.89c0-4.167.643-4.753,4.306-4.921V-112.9c-2.069.112-5.48.168-8.668.168-3.663,0-7.1-.056-9.031-.168v1.146c3.607.168,4.278.755,4.278,4.921v28.41c0,4.166-.643,4.753-4.278,4.921v1.147c1.929-.112,5.369-.168,9.031-.168,3.188,0,6.6.056,8.668.168V-73.5c-3.635-.168-4.306-.755-4.306-4.921V-92.715c1.706.14,2.433.7,4.027,3.188l8.333,13.45a3.238,3.238,0,0,1,.587,1.426c0,.755-.922,1.063-3.048,1.146v1.147c3.5-.168,5.7-.168,7.27-.168,2.74,0,6.291.056,8.948.168V-73.5A7.685,7.685,0,0,1,31.1-77Zm40.586-15.1c-2.125.112-5.677.168-9,.168-3.663,0-7.1-.056-9.032-.168v1.146c3.607.168,4.278.755,4.278,4.921v28.41c0,4.166-.643,4.753-4.278,4.921v1.147c6.236-.168,14.82-.168,18.651-.168,3.859,0,9.228,0,13.114.168-.336-3.579-.391-7.27-.391-9.06,0-1.957.056-3.719.168-5.033H70.535c-1.118,7.634-5.145,12.779-10.43,12.779h-2.8c-3.02,0-3.607-.5-3.607-4.082v-29.081c0-4.167.755-4.753,4.642-4.921Zm40.358-.112c-.615.056-1.314.084-1.985.084-.7,0-1.37-.028-1.985-.084L81.7-79.516c-1.622,4.222-3.3,5.7-4.977,6.012v1.147c1.147-.112,2.712-.168,4.39-.168,2.377,0,4.53.056,7.13.168V-73.5c-3.132-.084-5.089-.867-5.089-3.887a18.559,18.559,0,0,1,1.566-6.348l1.538-3.97H98.7l3.439,9.4a8,8,0,0,1,.671,2.712c0,1.566-1.286,1.985-4.027,2.1v1.147c1.9-.112,5.173-.168,8.724-.168,3.132,0,6.432.056,8.7.168V-73.5c-1.091-.056-2.544-.923-3.607-3.663Zm-.419,24.159h-11.6l5.928-15.407Zm66.388-23.88c-2.377,0-4.558-.056-7.13-.168v1.146c3.16.084,4.922,1.342,4.922,4.781a23.626,23.626,0,0,1-1.286,6.655l-5.453,17.337-7.857-23.964a8.816,8.816,0,0,1-.587-2.684c0-1.734,1.342-2.013,3.915-2.125V-112.9c-1.818.112-4.894.168-8.249.168-2.936,0-6.068-.056-8.165-.168v1.146c1.2.084,2.321.7,3.1,3.076l2.964,8.92L135-82.732l-8.3-24.215a7.97,7.97,0,0,1-.531-2.573,2.029,2.029,0,0,1,2.013-2.237V-112.9c-1.51.112-4,.168-7.047.168-2.908,0-6.263-.056-8.529-.168v1.146c1.091.056,2.6.894,3.607,3.663l12.835,35.848c.615-.028,1.258-.056,1.957-.056s1.4.028,2.013.056l8.5-25.474,8.445,25.474c.615-.028,1.258-.056,1.957-.056s1.4.028,2.013.056l10.094-32.716c1.314-4.334,3.356-6.152,5.005-6.795V-112.9c-1.146.112-2.685.168-4.362.168m22.669-.28c-.615.056-1.314.084-1.985.084-.7,0-1.37-.028-1.985-.084l-13.031,33.5c-1.622,4.222-3.3,5.7-4.977,6.012v1.147c1.147-.112,2.712-.168,4.39-.168,2.377,0,4.53.056,7.131.168V-73.5c-3.132-.084-5.089-.867-5.089-3.887a18.56,18.56,0,0,1,1.566-6.348l1.538-3.97h12.443l3.44,9.4a8,8,0,0,1,.671,2.712c0,1.566-1.286,1.985-4.027,2.1v1.147c1.9-.112,5.173-.168,8.724-.168,3.132,0,6.432.056,8.7.168V-73.5c-1.09-.056-2.544-.923-3.607-3.663Zm-.419,24.159h-11.6l5.928-15.407ZM242.589-112.9c-2.293,0-6.264.112-9,.168-.587,0-1.2.028-1.79.028-2.684,0-5.341-.112-6.907-.2v1.146c3.607.168,4.278.755,4.278,4.921v28.41c0,4.166-.643,4.753-4.278,4.921v1.147c1.929-.112,5.425-.168,8.808-.168,2.572,0,6.571.168,8.361.168,14.4,0,22.789-8.249,22.789-20.72,0-12.779-7.186-19.825-22.258-19.825m-.056,1.035c9.228,0,12.807,6.18,12.807,19.014,0,12.471-3.1,19.462-12.751,19.462-3.551,0-4.306-.923-4.306-4.921v-28.634c0-3.943.755-4.921,4.25-4.921m57.907.112V-112.9c-5.005.168-11.157.168-16.33.168-3.775,0-9.06,0-12.89-.168.308,3.467.419,6.99.419,8.7s-.056,3.3-.168,4.362h1.314c1.091-9.032,5.76-11.744,11.436-11.744h6.543L270.8-73.5v1.147c4.753-.168,10.43-.168,15.379-.168,4.167,0,10.011,0,14.261.168a86.6,86.6,0,0,1-.391-8.7c0-1.985.056-3.747.167-5.061H298.9c-1.007,9.423-6.879,12.443-12.08,12.443h-6.291Zm24.2-1.146c-2.069.112-5.481.168-8.668.168-3.663,0-7.1-.056-9.032-.168v1.146c3.607.168,4.278.755,4.278,4.921v28.41c0,4.166-.643,4.753-4.278,4.921v1.147c1.929-.112,5.369-.168,9.032-.168,3.187,0,6.6.056,8.668.168V-73.5c-3.635-.168-4.306-.755-4.306-4.921v-28.41c0-4.167.643-4.753,4.306-4.921Zm57.079.168c-2.377,0-4.558-.056-7.13-.168v1.146c3.16.084,4.922,1.342,4.922,4.781a23.628,23.628,0,0,1-1.286,6.655L372.77-82.984l-7.857-23.964a8.817,8.817,0,0,1-.587-2.684c0-1.734,1.342-2.013,3.915-2.125V-112.9c-1.818.112-4.894.168-8.249.168-2.936,0-6.068-.056-8.165-.168v1.146c1.2.084,2.321.7,3.1,3.076l2.964,8.92L352.05-82.732l-8.3-24.215a7.97,7.97,0,0,1-.531-2.573,2.029,2.029,0,0,1,2.013-2.237V-112.9c-1.51.112-4,.168-7.046.168-2.908,0-6.264-.056-8.529-.168v1.146c1.091.056,2.6.894,3.607,3.663l12.835,35.848c.615-.028,1.258-.056,1.957-.056s1.4.028,2.013.056l8.5-25.474,8.445,25.474c.615-.028,1.258-.056,1.957-.056s1.4.028,2.013.056l10.094-32.716c1.314-4.334,3.356-6.152,5.005-6.795V-112.9c-1.146.112-2.685.168-4.362.168m47.271-.168c-1.2.112-3.188.168-4.977.168-2.069,0-4.726-.056-6.208-.168v1.146c5.061.5,5.565,1.957,5.565,8.249v17.924L401.222-112.9c-1.342.112-3.132.168-4.949.168-1.79,0-3.775-.056-4.977-.168v1.146c3.635.168,4.306.755,4.306,4.921v25.781c0,5.536-.643,7.046-4.306,7.55v1.147c1.2-.112,3.188-.168,4.977-.168,2.069,0,4.725.056,6.208.168V-73.5c-5.061-.5-5.564-1.957-5.564-8.249v-21.978l24.831,31.485c.559-.028,1.063-.028,1.566-.028.475,0,.95,0,1.37.028v-31.961c0-5.537.643-7.047,4.306-7.55ZM457.6-127.024a3.767,3.767,0,0,0-1.314-.252,2.992,2.992,0,0,0-2.8,1.93c-.839,2.069-.2,4.39-.979,9.172l.755.364c2.936-3.887,5.033-5.033,5.9-7.1a3.719,3.719,0,0,0,.308-1.4,2.911,2.911,0,0,0-1.874-2.713m-3.355,13.31c-11.912,0-20.273,8.612-20.273,21.419,0,13.115,8.081,20.748,20.217,20.748,11.884,0,20.272-8.612,20.272-21.419,0-13.114-8.109-20.748-20.217-20.748m-.252,1.035c6.068,0,10.961,7.746,10.961,19.937,0,11.856-4.138,20.161-10.542,20.161-6.04,0-10.933-7.746-10.933-19.937,0-11.856,4.11-20.161,10.514-20.161m74-.056c-2.377,0-4.558-.056-7.13-.168v1.146c3.16.084,4.921,1.342,4.921,4.781a23.627,23.627,0,0,1-1.286,6.655l-5.453,17.337-7.857-23.964a8.816,8.816,0,0,1-.587-2.684c0-1.734,1.342-2.013,3.915-2.125V-112.9c-1.818.112-4.893.168-8.249.168-2.936,0-6.068-.056-8.165-.168v1.146c1.2.084,2.321.7,3.1,3.076l2.964,8.92-5.844,17.029-8.3-24.215a7.969,7.969,0,0,1-.531-2.573,2.029,2.029,0,0,1,2.013-2.237V-112.9c-1.51.112-4,.168-7.046.168-2.908,0-6.263-.056-8.529-.168v1.146c1.091.056,2.6.894,3.607,3.663l12.835,35.848c.615-.028,1.258-.056,1.957-.056s1.4.028,2.013.056l8.5-25.474,8.445,25.474c.615-.028,1.258-.056,1.957-.056s1.4.028,2.013.056l10.094-32.716c1.314-4.334,3.355-6.152,5.005-6.795V-112.9c-1.146.112-2.684.168-4.362.168m40.93,31.681c0-1.874.056-3.579.168-4.809h-1.314c-1.426,9.227-4.95,12.191-10.066,12.191h-2.824c-3.327,0-3.943-.5-3.943-4.082V-92.183h1.846c4.586,0,6.4,3.551,6.991,7.578h1.314c-.279-4.362-.335-6.263-.335-8.137,0-.839-.028-1.677-.028-2.74,0-1.314.028-2.964.2-5.4H559.6c-.615,3.1-2.237,7.55-6.823,7.55h-1.846v-14.177c0-3.579.615-4.082,3.943-4.082h2.349c5.257,0,8.249,2.656,9.4,11.045h1.314a36.339,36.339,0,0,1-.168-3.887c0-1.65.112-5.089.391-8.473-3.523.168-8.473.168-11.968.168-3.831,0-12.415,0-18.651-.168v1.146c3.607.168,4.279.755,4.279,4.921v28.41c0,4.166-.643,4.753-4.279,4.921v1.147c6.236-.168,14.82-.168,18.651-.168,3.859,0,9.228,0,13.115.168-.336-3.44-.391-6.991-.391-8.7M597.89-97.8l7.158-8.528c3.02-3.579,5.844-4.922,8.333-5.453V-112.9c-1.4.112-3.16.168-5.425.168-3.383,0-5.648-.056-8.444-.168v1.119c2.628.084,4.194,1.174,4.194,3.076,0,1.37-.811,3.16-2.629,5.313l-3.355,4.082c-3.02,3.467-5.369,5.173-8.5,5.369v-12.89c0-4.167.643-4.753,4.306-4.921V-112.9c-2.069.112-5.48.168-8.668.168-3.663,0-7.1-.056-9.032-.168v1.146c3.607.168,4.278.755,4.278,4.921v28.41c0,4.166-.643,4.753-4.278,4.921v1.147c1.929-.112,5.369-.168,9.032-.168,3.188,0,6.6.056,8.668.168V-73.5c-3.635-.168-4.306-.755-4.306-4.921V-92.715c1.706.14,2.432.7,4.026,3.188l8.333,13.45a3.239,3.239,0,0,1,.587,1.426c0,.755-.923,1.063-3.048,1.146v1.147c3.5-.168,5.7-.168,7.27-.168,2.74,0,6.291.056,8.948.168V-73.5a7.688,7.688,0,0,1-4.111-3.5Z" transform="translate(86.39 127.276)" fill="#fff"/>
    </g>
    <path id="Path_906" data-name="Path 906" d="M0-549.808H701.728V-863.341H0Z" transform="translate(609.272 1127.586)" fill="none"/>
  </g>
</svg>
