<svg xmlns="http://www.w3.org/2000/svg" xmlns:xlink="http://www.w3.org/1999/xlink" width="841.81" height="1428.179" viewBox="0 0 841.81 1428.179">
  <defs>
    <clipPath id="clip-path">
      <path id="Path_1485" data-name="Path 1485" d="M841.81-2832.961H0v1340.41H841.81Z" transform="translate(0 2832.961)" fill="none"/>
    </clipPath>
    <clipPath id="clip-path-2">
      <rect id="Rectangle_605" data-name="Rectangle 605" width="148.179" height="168.192" fill="none"/>
    </clipPath>
    <clipPath id="clip-path-3">
      <rect id="Rectangle_602" data-name="Rectangle 602" width="425.555" height="474.464" transform="translate(0 2)" fill="#fff"/>
    </clipPath>
    <clipPath id="clip-path-4">
      <rect id="Rectangle_603" data-name="Rectangle 603" width="228.008" height="226.334" fill="#fff"/>
    </clipPath>
    <clipPath id="clip-path-5">
      <rect id="Rectangle_604" data-name="Rectangle 604" width="583.24" height="667.082" fill="#fff"/>
    </clipPath>
    <clipPath id="clip-path-6">
      <rect id="Rectangle_606" data-name="Rectangle 606" width="190.158" height="754.922" fill="#fff"/>
    </clipPath>
    <clipPath id="clip-path-7">
      <rect id="Rectangle_607" data-name="Rectangle 607" width="288.223" height="239.125" fill="#fff"/>
    </clipPath>
    <clipPath id="clip-path-8">
      <rect id="Rectangle_608" data-name="Rectangle 608" width="115.284" height="144.477" fill="#fff"/>
    </clipPath>
  </defs>
  <g id="Group_1195" data-name="Group 1195" transform="translate(-511 -1416.231)">
    <g id="Group_1015" data-name="Group 1015" transform="translate(510 1505.209)">
      <g id="Group_1014" data-name="Group 1014" transform="translate(1 -1.209)" clip-path="url(#clip-path)">
        <g id="Group_1001" data-name="Group 1001" transform="translate(263.723 389.933)" opacity="0.5">
          <g id="Group_1000" data-name="Group 1000">
            <g id="Group_999" data-name="Group 999" clip-path="url(#clip-path-2)">
              <g id="Group_998" data-name="Group 998" transform="translate(4.233 3.312)">
                <path id="Path_1481" data-name="Path 1481" d="M-88.273-346.282l-65.036,36.623-2.243,11.542,65.207,112.492,15.259,2.558,59.246-36.657-42.337-74.035Z" transform="translate(155.552 347.474)" fill="#fff"/>
              </g>
            </g>
          </g>
        </g>
        <g id="Group_1106" data-name="Group 1106">
          <g id="Group_989" data-name="Group 989" transform="translate(-4.232 -3.312)" opacity="0.5">
            <g id="Group_988" data-name="Group 988">
              <g id="Group_987" data-name="Group 987" clip-path="url(#clip-path-3)">
                <g id="Group_986" data-name="Group 986" transform="translate(4.231 3.312)">
                  <path id="Path_1478" data-name="Path 1478" d="M394.787-984.522l6.018,160.38-7.388,8.714H355.092L156.72-672.177l59.336,102.321-1.442,10.917L144.12-516.333l-12.832-4.92L-17.027-778.225l2.76-7.883,129.968,74.7L297.928-847.125l55.606-137.4Z" transform="translate(16.22 989.374)" fill="#fff"/>
                </g>
              </g>
            </g>
          </g>
          <g id="Group_993" data-name="Group 993" transform="translate(198.402 188.54)" opacity="0.5">
            <g id="Group_992" data-name="Group 992">
              <g id="Group_991" data-name="Group 991" clip-path="url(#clip-path-4)">
                <g id="Group_990" data-name="Group 990" transform="translate(4.235 3.312)">
                  <path id="Path_1479" data-name="Path 1479" d="M69.255-460.654l-169.368,122.58-1.915,12.313,45.905,78.243,12.716,5.116,152.594-89.531,7.63-10.232L111.731-454.72l-6.905-8.4Z" transform="translate(102.722 464.952)" fill="#fff"/>
                </g>
              </g>
            </g>
          </g>
          <g id="Group_997" data-name="Group 997" transform="translate(161.075 446.137)" opacity="0.5">
            <g id="Group_996" data-name="Group 996">
              <g id="Group_995" data-name="Group 995" clip-path="url(#clip-path-5)">
                <g id="Group_994" data-name="Group 994" transform="translate(4.235 3.312)">
                  <path id="Path_1480" data-name="Path 1480" d="M-991.31-1401.88l-68.667,39.136-4,11.278,72.671,126.855,345.879,23.022,40.692,463.005,38.148-38.371,50.865-310.48-7.63-6.716-35-6.144-5.694,5.539h-6.868l1.782-24.976,7.63-.645,4.606,7.573,41.172,5.861,3.067-3.2,10.738-69.2-4.843-5.474-99.174-17.687,1.2-14.432,101.729,18.222,5.3-3.791,9.9-57.062-6.106-13.265-163.509-48.959-44.454-2.584-4.823,5.128v37.011l5.9,5.041-1.075,7.69-24.391-.767.12-8.258,6.008-3.706v-38.713l-4.275-5.16-57.5-2.969-117.837,68.657-80.4-138.134Z" transform="translate(1065.064 1401.88)" fill="#fff"/>
                </g>
              </g>
            </g>
          </g>
          <g id="Group_1005" data-name="Group 1005" transform="translate(641.747 585.961)" opacity="0.5">
            <g id="Group_1004" data-name="Group 1004" transform="translate(0 -2)">
              <g id="Group_1003" data-name="Group 1003" clip-path="url(#clip-path-6)">
                <g id="Group_1002" data-name="Group 1002" transform="translate(4.234 3.314)">
                  <path id="Path_1482" data-name="Path 1482" d="M-336.67,694.624l45.518,14.262L-171.1-19.25l-56.009-16L-237.64-28.3l-80.729,486.659-35.9,36.146Z" transform="translate(353.801 37.845)" fill="#fff"/>
                </g>
              </g>
            </g>
          </g>
          <g id="Group_1009" data-name="Group 1009" transform="translate(557.821 347.139)" opacity="0.5">
            <g id="Group_1008" data-name="Group 1008">
              <g id="Group_1007" data-name="Group 1007" clip-path="url(#clip-path-7)">
                <g id="Group_1006" data-name="Group 1006" transform="translate(4.234 3.312)">
                  <path id="Path_1483" data-name="Path 1483" d="M247.958,235.34-6.366,158.6l-7.4-9.273L-19.158,85.4-21.073,0H44.321l2.721,102.322L258.13,166.273Z" transform="translate(21.625)" fill="#fff"/>
                </g>
              </g>
            </g>
          </g>
          <g id="Group_1013" data-name="Group 1013" transform="translate(438.288 362.487)" opacity="0.5">
            <g id="Group_1012" data-name="Group 1012">
              <g id="Mask_Group_1011" data-name="Mask Group 1011" clip-path="url(#clip-path-8)">
                <g id="Group_1010" data-name="Group 1010" transform="translate(4.234 3.312)">
                  <path id="Path_1484" data-name="Path 1484" d="M-226.629-289.229l3.238,125.637,7.286,6.8,89.046,5.181,6.8-7.316-7.938-133.053Z" transform="translate(227.07 291.946)" fill="#fff"/>
                </g>
              </g>
            </g>
          </g>
        </g>
      </g>
    </g>
    <g id="Group_1194" data-name="Group 1194">
      <g id="Group_1193" data-name="Group 1193">
        <g id="_1" data-name="1">
          <path id="Path_1570" data-name="Path 1570" d="M943.025,1425.918l1.517,53.1,6.3,6.419,36.764-1.167-1.167-60.689Z" fill="#079207" opacity="0.75"/>
          <text id="_1-2" data-name="1" transform="translate(967 1459)" fill="#fff" font-size="16" font-family="Lora-Regular, Lora" letter-spacing="0.025em"><tspan x="-2.912" y="0">1</tspan></text>
        </g>
        <g id="_22" data-name="22">
          <path id="Path_1496" data-name="Path 1496" d="M11093.862,6067.479l-1.149-38.32,6.515-7.472,40.332-1.054,1.532,45.17Z" transform="translate(-10147 -4514)" fill="#079207" opacity="0.75"/>
          <text id="_22-2" data-name="22" transform="matrix(0.999, -0.035, 0.035, 0.999, 971.626, 1538.146)" fill="#fff" font-size="16" font-family="Lora-Regular, Lora" letter-spacing="0.025em"><tspan x="-8.792" y="0">22</tspan></text>
        </g>
        <g id="_23" data-name="23">
          <path id="Path_1494" data-name="Path 1494" d="M11094.638,6065.8l-.862-38.8,47.221-1.716,1.841,38.305Z" transform="translate(-10147 -4472)" fill="#079207" opacity="0.75"/>
          <text id="_23-2" data-name="23" transform="matrix(0.999, -0.035, 0.035, 0.999, 972.092, 1580.121)" fill="#fff" font-size="16" font-family="Lora-Regular, Lora" letter-spacing="0.025em"><tspan x="-8.832" y="0">23</tspan></text>
        </g>
        <g id="_24" data-name="24">
          <path id="Path_1491" data-name="Path 1491" d="M11094.638,6065.8l-.862-38.8,47.709-2.108,1.353,38.7Z" transform="translate(-10146 -4432)" fill="#079207" opacity="0.75"/>
          <text id="_24-2" data-name="24" transform="matrix(0.999, -0.035, 0.035, 0.999, 973.488, 1620.096)" fill="#fff" font-size="16" font-family="Lora-Regular, Lora" letter-spacing="0.025em"><tspan x="-8.656" y="0">24</tspan></text>
        </g>
        <g id="_25" data-name="25">
          <path id="Path_1489" data-name="Path 1489" d="M11094.638,6065.8l-.862-38.8,47.709-2.108,1.353,38.7Z" transform="translate(-10145 -4392)" fill="#079207" opacity="0.75"/>
          <text id="_25-2" data-name="25" transform="matrix(0.999, -0.035, 0.035, 0.999, 974.814, 1659.073)" fill="#fff" font-size="16" font-family="Lora-Regular, Lora" letter-spacing="0.025em"><tspan x="-8.848" y="0">25</tspan></text>
        </g>
        <g id="_26" data-name="26">
          <path id="Path_1487" data-name="Path 1487" d="M11094.054,6065.212v-39.148l47.676-1.506,1.107,39.035Z" transform="translate(-10144 -4352)" fill="#079207" opacity="0.75"/>
          <text id="_26-2" data-name="26" transform="matrix(0.999, -0.035, 0.035, 0.999, 976.28, 1700.047)" fill="#fff" font-size="16" font-family="Lora-Regular, Lora" letter-spacing="0.025em"><tspan x="-9.12" y="0">26</tspan></text>
        </g>
        <g id="_27" data-name="27">
          <path id="Path_1476" data-name="Path 1476" d="M11094.054,6065.212v-39.148l48.2-1.684.585,39.213Z" transform="translate(-10143 -4312)" fill="#079207" opacity="0.75"/>
          <text id="_27-2" data-name="27" transform="matrix(0.999, -0.035, 0.035, 0.999, 976.676, 1739.023)" fill="#fff" font-size="16" font-family="Lora-Regular, Lora" letter-spacing="0.025em"><tspan x="-8.184" y="0">27</tspan></text>
        </g>
        <g id="_28" data-name="28">
          <path id="Path_1498" data-name="Path 1498" d="M11096.449,6064.232l-1.5-38.732,47.575-1.246,1.369,37.736Z" transform="translate(-10143 -4271)" fill="#079207" opacity="0.75"/>
          <text id="_28-2" data-name="28" transform="matrix(0.999, -0.035, 0.035, 0.999, 978.002, 1778)" fill="#fff" font-size="16" font-family="Lora-Regular, Lora" letter-spacing="0.025em"><tspan x="-8.992" y="0">28</tspan></text>
        </g>
        <g id="_29" data-name="29">
          <path id="Path_1475" data-name="Path 1475" d="M11096,6106.438l.951,38.517,48.363-1.825-1.428-38.8Z" transform="translate(-10143 -4312)" fill="#d32407" opacity="0.75"/>
          <text id="_29-2" data-name="29" transform="matrix(0.999, -0.035, 0.035, 0.999, 979.398, 1819.339)" fill="#fff" font-size="16" font-family="Lora-Regular, Lora" letter-spacing="0.025em"><tspan x="-9.12" y="0">29</tspan></text>
        </g>
        <g id="_30" data-name="30">
          <path id="Path_1500" data-name="Path 1500" d="M11096.449,6064.232l-.755-37.777,47.45-1.868,1.121,38.358Z" transform="translate(-10141 -4192)" fill="#079207" opacity="0.75"/>
          <text id="_30-2" data-name="30" transform="matrix(0.999, -0.035, 0.035, 0.999, 980.793, 1857.881)" fill="#fff" font-size="16" font-family="Lora-Regular, Lora" letter-spacing="0.025em"><tspan x="-9.624" y="0">30</tspan></text>
        </g>
        <g id="_21" data-name="21">
          <path id="Path_1495" data-name="Path 1495" d="M11094.25,6067.468l-1.583-45.218,41.333-1.341,6.567,6.227v38.607Z" transform="translate(-10098 -4516)" fill="#079207" opacity="0.75"/>
          <text id="_21-2" data-name="21" transform="matrix(0.999, -0.035, 0.035, 0.999, 1018.661, 1536.128)" fill="#fff" font-size="16" font-family="Lora-Regular, Lora" letter-spacing="0.025em"><tspan x="-7.408" y="0">21</tspan></text>
        </g>
        <g id="_13" data-name="13">
          <g id="Group_1136" data-name="Group 1136">
            <path id="Path_1499" data-name="Path 1499" d="M11096.507,6064.821l-1.86-38.691,47.442-1.536,1.121,38.483Z" transform="translate(-10091 -4194)" fill="#079207" opacity="0.75"/>
            <text id="_13-2" data-name="13" transform="matrix(0.999, -0.035, 0.035, 0.999, 1030.759, 1855.934)" fill="#fff" font-size="16" font-family="Lora-Regular, Lora" letter-spacing="0.025em"><tspan x="-7.568" y="0">13</tspan></text>
          </g>
        </g>
        <g id="_14" data-name="14">
          <path id="Path_1477" data-name="Path 1477" d="M11141.622,5984.271l-.73-39.034,47.574-1.619.552,38.751Z" transform="translate(-10138 -4153)" fill="#cf4f00" opacity="0.75"/>
          <text id="_14-2" data-name="14" transform="matrix(0.999, -0.035, 0.035, 0.999, 1029.433, 1817.269)" fill="#fff" font-size="16" font-family="Lora-Regular, Lora" letter-spacing="0.025em"><tspan x="-7.448" y="0">14</tspan></text>
        </g>
        <g id="_15" data-name="15">
          <path id="Path_1497" data-name="Path 1497" d="M11095.767,6063.742l-1.12-37.611,46.951-2.242,1.246,38.732Z" transform="translate(-10093 -4273)" fill="#079207" opacity="0.75"/>
          <text id="_15-2" data-name="15" transform="matrix(0.999, -0.035, 0.035, 0.999, 1026.967, 1775.983)" fill="#fff" font-size="16" font-family="Lora-Regular, Lora" letter-spacing="0.025em"><tspan x="-7.464" y="0">15</tspan></text>
        </g>
        <g id="_16" data-name="16">
          <path id="Path_1486" data-name="Path 1486" d="M11095.538,6065.5l-1.179-39.278,47.163-1.474,1.105,39.2Z" transform="translate(-10094 -4314)" fill="#079207" opacity="0.75"/>
          <text id="_16-2" data-name="16" transform="matrix(0.999, -0.035, 0.035, 0.999, 1025.641, 1737.006)" fill="#fff" font-size="16" font-family="Lora-Regular, Lora" letter-spacing="0.025em"><tspan x="-7.736" y="0">16</tspan></text>
        </g>
        <g id="_17" data-name="17">
          <path id="Path_1488" data-name="Path 1488" d="M11095.538,6065.5l-1.179-39.278,47.163-1.474,1.105,39.2Z" transform="translate(-10095 -4354)" fill="#079207" opacity="0.75"/>
          <text id="_17-2" data-name="17" transform="matrix(0.999, -0.035, 0.035, 0.999, 1024.175, 1696.067)" fill="#fff" font-size="16" font-family="Lora-Regular, Lora" letter-spacing="0.025em"><tspan x="-6.8" y="0">17</tspan></text>
        </g>
        <g id="_18" data-name="18">
          <path id="Path_1490" data-name="Path 1490" d="M11095.538,6065.5l-1.179-39.278,46.7-1.341,1.245,38.7Z" transform="translate(-10096 -4394)" fill="#079207" opacity="0.75"/>
          <text id="_18-2" data-name="18" transform="matrix(0.999, -0.035, 0.035, 0.999, 1023.849, 1657.055)" fill="#fff" font-size="16" font-family="Lora-Regular, Lora" letter-spacing="0.025em"><tspan x="-7.608" y="0">18</tspan></text>
        </g>
        <g id="_19" data-name="19">
          <path id="Path_1492" data-name="Path 1492" d="M11095.208,6065.268l-.958-38.512,46.8-1.872,1.245,38.7Z" transform="translate(-10097 -4434)" fill="#079207" opacity="0.75"/>
          <text id="_19-2" data-name="19" transform="matrix(0.999, -0.035, 0.035, 0.999, 1022.522, 1618.078)" fill="#fff" font-size="16" font-family="Lora-Regular, Lora" letter-spacing="0.025em"><tspan x="-7.736" y="0">19</tspan></text>
        </g>
        <g id="_20" data-name="20">
          <path id="Path_1493" data-name="Path 1493" d="M11095.208,6065.268l-1.1-37.98,46.751-1.916,1.445,38.216Z" transform="translate(-10098 -4474)" fill="#079207" opacity="0.75"/>
          <text id="_20-2" data-name="20" transform="matrix(0.999, -0.035, 0.035, 0.999, 1021.055, 1578.034)" fill="#fff" font-size="16" font-family="Lora-Regular, Lora" letter-spacing="0.025em"><tspan x="-9.464" y="0">20</tspan></text>
        </g>
        <g id="_2" data-name="2">
          <path id="Path_1571" data-name="Path 1571" d="M988.542,1423.583l1.05,60.222,43.767-1.05,8.4-8.636-1.4-53.57Z" fill="#079207" opacity="0.75"/>
          <text id="_2-2" data-name="2" transform="translate(1016 1459)" fill="#fff" font-size="16" font-family="Lora-Regular, Lora" letter-spacing="0.025em"><tspan x="-4.296" y="0">2</tspan></text>
        </g>
        <g id="_3" data-name="3">
          <path id="Path_1569" data-name="Path 1569" d="M1062.3,1419.5l2.03,76.376,63.465-1.658-2.355-77.986Z" fill="#079207" opacity="0.75"/>
          <text id="_3-2" data-name="3" transform="translate(1096 1465)" fill="#fff" font-size="16" font-family="Lora-Regular, Lora" letter-spacing="0.025em"><tspan x="-4.456" y="0">3</tspan></text>
        </g>
        <g id="_4" data-name="4">
          <path id="Path_1568" data-name="Path 1568" d="M1064.4,1496.994l1.283,38.164,63.16-1.04-.837-38.408Z" fill="#079207" opacity="0.75"/>
          <text id="_4-2" data-name="4" transform="translate(1098 1521)" fill="#fff" font-size="16" font-family="Lora-Regular, Lora" letter-spacing="0.025em"><tspan x="-4.336" y="0">4</tspan></text>
        </g>
        <g id="_5" data-name="5">
          <path id="Path_1567" data-name="Path 1567" d="M1065.687,1536.792s.721,38.992,1.071,38.992,63.373-2.1,63.373-2.1l-1.421-37.824Z" fill="#079207" opacity="0.75"/>
          <text id="_5-2" data-name="5" transform="translate(1099 1562)" fill="#fff" font-size="16" font-family="Lora-Regular, Lora" letter-spacing="0.025em"><tspan x="-4.352" y="0">5</tspan></text>
        </g>
        <g id="_6" data-name="6">
          <path id="Path_1566" data-name="Path 1566" d="M1067.574,1615.465l-.72-38.758,63.373-1.4,1.051,38.281Z" fill="#079207" opacity="0.75"/>
          <text id="_6-2" data-name="6" transform="translate(1099 1602)" fill="#fff" font-size="16" font-family="Lora-Regular, Lora" letter-spacing="0.025em"><tspan x="-4.624" y="0">6</tspan></text>
        </g>
        <g id="_7" data-name="7">
          <path id="Path_1565" data-name="Path 1565" d="M1068.955,1654.552l-.7-37.7,62.906-1.634.827,38.526Z" fill="#079207" opacity="0.75"/>
          <text id="_7-2" data-name="7" transform="translate(1100 1642)" fill="#fff" font-size="16" font-family="Lora-Regular, Lora" letter-spacing="0.025em"><tspan x="-3.688" y="0">7</tspan></text>
        </g>
        <g id="_8" data-name="8">
          <path id="Path_1564" data-name="Path 1564" d="M1070.472,1695.05l-.934-38.748,62.44-1.284.769,38.328Z" fill="#079207" opacity="0.75"/>
          <text id="_8-2" data-name="8" transform="translate(1102 1680)" fill="#fff" font-size="16" font-family="Lora-Regular, Lora" letter-spacing="0.025em"><tspan x="-4.496" y="0">8</tspan></text>
        </g>
        <g id="_9" data-name="9">
          <path id="Path_1563" data-name="Path 1563" d="M1071.056,1733.915h64.271l-1.947-38.865-62.907,1.518Z" fill="#079207" opacity="0.75"/>
          <text id="_9-2" data-name="9" transform="translate(1102 1718)" fill="#fff" font-size="16" font-family="Lora-Regular, Lora" letter-spacing="0.025em"><tspan x="-4.624" y="0">9</tspan></text>
        </g>
        <g id="_10" data-name="10">
          <path id="Path_1562" data-name="Path 1562" d="M1072.969,1774.822l-1.1-38.339,63.489-1.284.116,38.106Z" fill="#079207" opacity="0.75"/>
          <text id="_10-2" data-name="10" transform="translate(1102 1760)" fill="#fff" font-size="16" font-family="Lora-Regular, Lora" letter-spacing="0.025em"><tspan x="-8.08" y="0">10</tspan></text>
        </g>
        <g id="_11" data-name="11">
          <path id="Path_1561" data-name="Path 1561" d="M1072.573,1776.047l.7,38.631,63.419-1.47s-.863-38.445-1.1-38.445S1072.573,1776.047,1072.573,1776.047Z" fill="#079207" opacity="0.75"/>
          <text id="_11-2" data-name="11" transform="translate(1102 1801)" fill="#fff" font-size="16" font-family="Lora-Regular, Lora" letter-spacing="0.025em"><tspan x="-6.024" y="0">11</tspan></text>
        </g>
        <g id="_12" data-name="12">
          <path id="Path_1560" data-name="Path 1560" d="M1073.623,1816.2l.7,38.631,63.583-1.867-1.493-37.931Z" fill="#079207" opacity="0.75"/>
          <text id="_12-2" data-name="12" transform="translate(1103 1842)" fill="#fff" font-size="16" font-family="Lora-Regular, Lora" letter-spacing="0.025em"><tspan x="-7.408" y="0">12</tspan></text>
        </g>
      </g>
      <path id="Path_1610" data-name="Path 1610" d="M10989.235,6210.58l74.372,129.172,14.59-23.486-4.271-145.9-6.761-6.405Z" transform="translate(-10143 -4312)" fill="#fff" opacity="0.25"/>
      <path id="Path_1611" data-name="Path 1611" d="M11024.282,5820.3l28.216-72.222,10.106-10.528,2.948,82.75Z" transform="translate(-10143 -4312)" fill="#fff" opacity="0.25"/>
    </g>
  </g>
</svg>
