<svg xmlns="http://www.w3.org/2000/svg" xmlns:xlink="http://www.w3.org/1999/xlink" width="1920" height="1428" viewBox="0 0 1920 1428">
  <defs>
    <clipPath id="clip-path">
      <rect id="Rectangle_696" data-name="Rectangle 696" width="1920" height="1428" transform="translate(0 1416)" fill="#fff" stroke="#707070" stroke-width="1"/>
    </clipPath>
    <clipPath id="clip-path-2">
      <rect id="Rectangle_602" data-name="Rectangle 602" width="425.555" height="474.464" transform="translate(0 2)" fill="#fff"/>
    </clipPath>
    <clipPath id="clip-path-3">
      <rect id="Rectangle_605" data-name="Rectangle 605" width="148.179" height="168.192" fill="#fff"/>
    </clipPath>
    <clipPath id="clip-path-4">
      <rect id="Rectangle_604" data-name="Rectangle 604" width="583.24" height="667.082" fill="#fff"/>
    </clipPath>
    <clipPath id="clip-path-5">
      <rect id="Rectangle_606" data-name="Rectangle 606" width="190.158" height="754.922" fill="#fff"/>
    </clipPath>
    <clipPath id="clip-path-6">
      <rect id="Rectangle_607" data-name="Rectangle 607" width="288.223" height="239.125" fill="#fff"/>
    </clipPath>
    <clipPath id="clip-path-7">
      <rect id="Rectangle_608" data-name="Rectangle 608" width="115.284" height="144.477" fill="#fff"/>
    </clipPath>
  </defs>
  <g id="_1-60" data-name="1-60" transform="translate(0 -1416)" clip-path="url(#clip-path)">
    <g id="Group_1211" data-name="Group 1211">
      <g id="Group_1204" data-name="Group 1204">
        <path id="plac_zabaw" data-name="plac zabaw" d="M11017.554,6259.75l46.054,80,14.59-23.486-3.075-86.757Z" transform="translate(-10143 -4312)" fill="#fff" opacity="0.25"/>
        <path id="basen" d="M10989.235,6210.58l28.268,49.154,57.5-30.18-1.08-59.185-6.761-6.405Z" transform="translate(-10143 -4312)" fill="#fff" opacity="0.25"/>
      </g>
      <g id="Group_1210" data-name="Group 1210">
        <g id="_1" data-name="1">
          <path id="Path_1570" data-name="Path 1570" d="M943.025,1425.918l1.517,53.1,6.3,6.419,36.764-1.167-1.167-60.689Z" fill="#079207" opacity="0.75"/>
          <text id="_1-2" data-name="1" transform="translate(967 1459)" fill="#fff" font-size="16" font-family="Lora-Regular, Lora" letter-spacing="0.025em"><tspan x="-2.912" y="0">1</tspan></text>
        </g>
        <g id="_22" data-name="22">
          <path id="Path_1496" data-name="Path 1496" d="M11093.862,6067.479l-1.149-38.32,6.515-7.472,40.332-1.054,1.532,45.17Z" transform="translate(-10147 -4514)" fill="#079207" opacity="0.75"/>
          <text id="_22-2" data-name="22" transform="matrix(0.999, -0.035, 0.035, 0.999, 971.626, 1538.146)" fill="#fff" font-size="16" font-family="Lora-Regular, Lora" letter-spacing="0.025em"><tspan x="-8.792" y="0">22</tspan></text>
        </g>
        <g id="_23" data-name="23">
          <path id="Path_1494" data-name="Path 1494" d="M11094.638,6065.8l-.862-38.8,47.221-1.716,1.841,38.305Z" transform="translate(-10147 -4472)" fill="#079207" opacity="0.75"/>
          <text id="_23-2" data-name="23" transform="matrix(0.999, -0.035, 0.035, 0.999, 972.092, 1580.121)" fill="#fff" font-size="16" font-family="Lora-Regular, Lora" letter-spacing="0.025em"><tspan x="-8.832" y="0">23</tspan></text>
        </g>
        <g id="_24" data-name="24">
          <path id="Path_1491" data-name="Path 1491" d="M11094.638,6065.8l-.862-38.8,47.709-2.108,1.353,38.7Z" transform="translate(-10146 -4432)" fill="#079207" opacity="0.75"/>
          <text id="_24-2" data-name="24" transform="matrix(0.999, -0.035, 0.035, 0.999, 973.488, 1620.096)" fill="#fff" font-size="16" font-family="Lora-Regular, Lora" letter-spacing="0.025em"><tspan x="-8.656" y="0">24</tspan></text>
        </g>
        <g id="_25" data-name="25">
          <path id="Path_1489" data-name="Path 1489" d="M11094.638,6065.8l-.862-38.8,47.709-2.108,1.353,38.7Z" transform="translate(-10145 -4392)" fill="#079207" opacity="0.75"/>
          <text id="_25-2" data-name="25" transform="matrix(0.999, -0.035, 0.035, 0.999, 974.814, 1659.073)" fill="#fff" font-size="16" font-family="Lora-Regular, Lora" letter-spacing="0.025em"><tspan x="-8.848" y="0">25</tspan></text>
        </g>
        <g id="_26" data-name="26">
          <path id="Path_1487" data-name="Path 1487" d="M11094.054,6065.212v-39.148l47.676-1.506,1.107,39.035Z" transform="translate(-10144 -4352)" fill="#079207" opacity="0.75"/>
          <text id="_26-2" data-name="26" transform="matrix(0.999, -0.035, 0.035, 0.999, 976.28, 1700.047)" fill="#fff" font-size="16" font-family="Lora-Regular, Lora" letter-spacing="0.025em"><tspan x="-9.12" y="0">26</tspan></text>
        </g>
        <g id="_27" data-name="27">
          <path id="Path_1476" data-name="Path 1476" d="M11094.054,6065.212v-39.148l48.2-1.684.585,39.213Z" transform="translate(-10143 -4312)" fill="#079207" opacity="0.75"/>
          <text id="_27-2" data-name="27" transform="matrix(0.999, -0.035, 0.035, 0.999, 976.676, 1739.023)" fill="#fff" font-size="16" font-family="Lora-Regular, Lora" letter-spacing="0.025em"><tspan x="-8.184" y="0">27</tspan></text>
        </g>
        <g id="_28" data-name="28">
          <path id="Path_1498" data-name="Path 1498" d="M11096.449,6064.232l-1.5-38.732,47.575-1.246,1.369,37.736Z" transform="translate(-10143 -4271)" fill="#079207" opacity="0.75"/>
          <text id="_28-2" data-name="28" transform="matrix(0.999, -0.035, 0.035, 0.999, 978.002, 1778)" fill="#fff" font-size="16" font-family="Lora-Regular, Lora" letter-spacing="0.025em"><tspan x="-8.992" y="0">28</tspan></text>
        </g>
        <g id="_29" data-name="29">
          <path id="Path_1475" data-name="Path 1475" d="M11096,6106.438l.951,38.517,48.363-1.825-1.428-38.8Z" transform="translate(-10143 -4312)" fill="#d32407" opacity="0.75"/>
          <text id="_29-2" data-name="29" transform="matrix(0.999, -0.035, 0.035, 0.999, 979.398, 1819.339)" fill="#fff" font-size="16" font-family="Lora-Regular, Lora" letter-spacing="0.025em"><tspan x="-9.12" y="0">29</tspan></text>
        </g>
        <g id="_30" data-name="30">
          <path id="Path_1500" data-name="Path 1500" d="M11096.449,6064.232l-.755-37.777,47.45-1.868,1.121,38.358Z" transform="translate(-10141 -4192)" fill="#079207" opacity="0.75"/>
          <text id="_30-2" data-name="30" transform="matrix(0.999, -0.035, 0.035, 0.999, 980.793, 1857.881)" fill="#fff" font-size="16" font-family="Lora-Regular, Lora" letter-spacing="0.025em"><tspan x="-9.624" y="0">30</tspan></text>
        </g>
        <g id="_21" data-name="21">
          <path id="Path_1495" data-name="Path 1495" d="M11094.25,6067.468l-1.583-45.218,41.333-1.341,6.567,6.227v38.607Z" transform="translate(-10098 -4516)" fill="#079207" opacity="0.75"/>
          <text id="_21-2" data-name="21" transform="matrix(0.999, -0.035, 0.035, 0.999, 1018.661, 1536.128)" fill="#fff" font-size="16" font-family="Lora-Regular, Lora" letter-spacing="0.025em"><tspan x="-7.408" y="0">21</tspan></text>
        </g>
        <g id="_13" data-name="13">
          <g id="Group_1136" data-name="Group 1136">
            <path id="Path_1499" data-name="Path 1499" d="M11096.507,6064.821l-1.86-38.691,47.442-1.536,1.121,38.483Z" transform="translate(-10091 -4194)" fill="#079207" opacity="0.75"/>
            <text id="_13-2" data-name="13" transform="matrix(0.999, -0.035, 0.035, 0.999, 1030.759, 1855.934)" fill="#fff" font-size="16" font-family="Lora-Regular, Lora" letter-spacing="0.025em"><tspan x="-7.568" y="0">13</tspan></text>
          </g>
        </g>
        <g id="_14" data-name="14">
          <path id="Path_1477" data-name="Path 1477" d="M11141.622,5984.271l-.73-39.034,47.574-1.619.552,38.751Z" transform="translate(-10138 -4153)" fill="#cf4f00" opacity="0.75"/>
          <text id="_14-2" data-name="14" transform="matrix(0.999, -0.035, 0.035, 0.999, 1029.433, 1817.269)" fill="#fff" font-size="16" font-family="Lora-Regular, Lora" letter-spacing="0.025em"><tspan x="-7.448" y="0">14</tspan></text>
        </g>
        <g id="_15" data-name="15">
          <path id="Path_1497" data-name="Path 1497" d="M11095.767,6063.742l-1.12-37.611,46.951-2.242,1.246,38.732Z" transform="translate(-10093 -4273)" fill="#079207" opacity="0.75"/>
          <text id="_15-2" data-name="15" transform="matrix(0.999, -0.035, 0.035, 0.999, 1026.967, 1775.983)" fill="#fff" font-size="16" font-family="Lora-Regular, Lora" letter-spacing="0.025em"><tspan x="-7.464" y="0">15</tspan></text>
        </g>
        <g id="_16" data-name="16">
          <path id="Path_1486" data-name="Path 1486" d="M11095.538,6065.5l-1.179-39.278,47.163-1.474,1.105,39.2Z" transform="translate(-10094 -4314)" fill="#079207" opacity="0.75"/>
          <text id="_16-2" data-name="16" transform="matrix(0.999, -0.035, 0.035, 0.999, 1025.641, 1737.006)" fill="#fff" font-size="16" font-family="Lora-Regular, Lora" letter-spacing="0.025em"><tspan x="-7.736" y="0">16</tspan></text>
        </g>
        <g id="_17" data-name="17">
          <path id="Path_1488" data-name="Path 1488" d="M11095.538,6065.5l-1.179-39.278,47.163-1.474,1.105,39.2Z" transform="translate(-10095 -4354)" fill="#079207" opacity="0.75"/>
          <text id="_17-2" data-name="17" transform="matrix(0.999, -0.035, 0.035, 0.999, 1024.175, 1696.067)" fill="#fff" font-size="16" font-family="Lora-Regular, Lora" letter-spacing="0.025em"><tspan x="-6.8" y="0">17</tspan></text>
        </g>
        <g id="_18" data-name="18">
          <path id="Path_1490" data-name="Path 1490" d="M11095.538,6065.5l-1.179-39.278,46.7-1.341,1.245,38.7Z" transform="translate(-10096 -4394)" fill="#079207" opacity="0.75"/>
          <text id="_18-2" data-name="18" transform="matrix(0.999, -0.035, 0.035, 0.999, 1023.849, 1657.055)" fill="#fff" font-size="16" font-family="Lora-Regular, Lora" letter-spacing="0.025em"><tspan x="-7.608" y="0">18</tspan></text>
        </g>
        <g id="_19" data-name="19">
          <path id="Path_1492" data-name="Path 1492" d="M11095.208,6065.268l-.958-38.512,46.8-1.872,1.245,38.7Z" transform="translate(-10097 -4434)" fill="#079207" opacity="0.75"/>
          <text id="_19-2" data-name="19" transform="matrix(0.999, -0.035, 0.035, 0.999, 1022.522, 1618.078)" fill="#fff" font-size="16" font-family="Lora-Regular, Lora" letter-spacing="0.025em"><tspan x="-7.736" y="0">19</tspan></text>
        </g>
        <g id="_20" data-name="20">
          <path id="Path_1493" data-name="Path 1493" d="M11095.208,6065.268l-1.1-37.98,46.751-1.916,1.445,38.216Z" transform="translate(-10098 -4474)" fill="#079207" opacity="0.75"/>
          <text id="_20-2" data-name="20" transform="matrix(0.999, -0.035, 0.035, 0.999, 1021.055, 1578.034)" fill="#fff" font-size="16" font-family="Lora-Regular, Lora" letter-spacing="0.025em"><tspan x="-9.464" y="0">20</tspan></text>
        </g>
        <g id="_2" data-name="2">
          <path id="Path_1571" data-name="Path 1571" d="M988.542,1423.583l1.05,60.222,43.767-1.05,8.4-8.636-1.4-53.57Z" fill="#079207" opacity="0.75"/>
          <text id="_2-2" data-name="2" transform="translate(1016 1459)" fill="#fff" font-size="16" font-family="Lora-Regular, Lora" letter-spacing="0.025em"><tspan x="-4.296" y="0">2</tspan></text>
        </g>
        <g id="_3" data-name="3">
          <path id="Path_1569" data-name="Path 1569" d="M1062.3,1419.5l2.03,76.376,63.465-1.658-2.355-77.986Z" fill="#079207" opacity="0.75"/>
          <text id="_3-2" data-name="3" transform="translate(1096 1465)" fill="#fff" font-size="16" font-family="Lora-Regular, Lora" letter-spacing="0.025em"><tspan x="-4.456" y="0">3</tspan></text>
        </g>
        <g id="_4" data-name="4">
          <path id="Path_1568" data-name="Path 1568" d="M1064.4,1496.994l1.283,38.164,63.16-1.04-.837-38.408Z" fill="#079207" opacity="0.75"/>
          <text id="_4-2" data-name="4" transform="translate(1098 1521)" fill="#fff" font-size="16" font-family="Lora-Regular, Lora" letter-spacing="0.025em"><tspan x="-4.336" y="0">4</tspan></text>
        </g>
        <g id="_5" data-name="5">
          <path id="Path_1567" data-name="Path 1567" d="M1065.687,1536.792s.721,38.992,1.071,38.992,63.373-2.1,63.373-2.1l-1.421-37.824Z" fill="#079207" opacity="0.75"/>
          <text id="_5-2" data-name="5" transform="translate(1099 1562)" fill="#fff" font-size="16" font-family="Lora-Regular, Lora" letter-spacing="0.025em"><tspan x="-4.352" y="0">5</tspan></text>
        </g>
        <g id="_6" data-name="6">
          <path id="Path_1566" data-name="Path 1566" d="M1067.574,1615.465l-.72-38.758,63.373-1.4,1.051,38.281Z" fill="#079207" opacity="0.75"/>
          <text id="_6-2" data-name="6" transform="translate(1099 1602)" fill="#fff" font-size="16" font-family="Lora-Regular, Lora" letter-spacing="0.025em"><tspan x="-4.624" y="0">6</tspan></text>
        </g>
        <g id="_7" data-name="7">
          <path id="Path_1565" data-name="Path 1565" d="M1068.955,1654.552l-.7-37.7,62.906-1.634.827,38.526Z" fill="#079207" opacity="0.75"/>
          <text id="_7-2" data-name="7" transform="translate(1100 1642)" fill="#fff" font-size="16" font-family="Lora-Regular, Lora" letter-spacing="0.025em"><tspan x="-3.688" y="0">7</tspan></text>
        </g>
        <g id="_8" data-name="8">
          <path id="Path_1564" data-name="Path 1564" d="M1070.472,1695.05l-.934-38.748,62.44-1.284.769,38.328Z" fill="#079207" opacity="0.75"/>
          <text id="_8-2" data-name="8" transform="translate(1102 1680)" fill="#fff" font-size="16" font-family="Lora-Regular, Lora" letter-spacing="0.025em"><tspan x="-4.496" y="0">8</tspan></text>
        </g>
        <g id="_9" data-name="9">
          <path id="Path_1563" data-name="Path 1563" d="M1071.056,1733.915h64.271l-1.947-38.865-62.907,1.518Z" fill="#079207" opacity="0.75"/>
          <text id="_9-2" data-name="9" transform="translate(1102 1718)" fill="#fff" font-size="16" font-family="Lora-Regular, Lora" letter-spacing="0.025em"><tspan x="-4.624" y="0">9</tspan></text>
        </g>
        <g id="_10" data-name="10">
          <path id="Path_1562" data-name="Path 1562" d="M1072.969,1774.822l-1.1-38.339,63.489-1.284.116,38.106Z" fill="#079207" opacity="0.75"/>
          <text id="_10-2" data-name="10" transform="translate(1102 1760)" fill="#fff" font-size="16" font-family="Lora-Regular, Lora" letter-spacing="0.025em"><tspan x="-8.08" y="0">10</tspan></text>
        </g>
        <g id="_11" data-name="11">
          <path id="Path_1561" data-name="Path 1561" d="M1072.573,1776.047l.7,38.631,63.419-1.47s-.863-38.445-1.1-38.445S1072.573,1776.047,1072.573,1776.047Z" fill="#079207" opacity="0.75"/>
          <text id="_11-2" data-name="11" transform="translate(1102 1801)" fill="#fff" font-size="16" font-family="Lora-Regular, Lora" letter-spacing="0.025em"><tspan x="-6.024" y="0">11</tspan></text>
        </g>
        <g id="_12" data-name="12">
          <path id="Path_1560" data-name="Path 1560" d="M1073.623,1816.2l.7,38.631,63.583-1.867-1.493-37.931Z" fill="#079207" opacity="0.75"/>
          <text id="_12-2" data-name="12" transform="translate(1103 1842)" fill="#fff" font-size="16" font-family="Lora-Regular, Lora" letter-spacing="0.025em"><tspan x="-7.408" y="0">12</tspan></text>
        </g>
        <g id="Group_1209" data-name="Group 1209">
          <g id="Rectangle_600" data-name="Rectangle 600" transform="matrix(0.848, 0.53, -0.53, 0.848, 891.464, 1485.406)" fill="#47545b" stroke="#707070" stroke-width="1" opacity="0.46">
            <rect width="14" height="4" stroke="none"/>
            <rect x="0.5" y="0.5" width="13" height="3" fill="none"/>
          </g>
          <g id="Group_1207" data-name="Group 1207">
            <g id="Group_1206" data-name="Group 1206" opacity="0.5">
              <g id="Group_999" data-name="Group 999" transform="translate(774.723 1893.933)" clip-path="url(#clip-path-3)">
                <g id="Group_998" data-name="Group 998" transform="translate(4.233 3.312)">
                  <path id="Path_1481" data-name="Path 1481" d="M-88.273-346.282l-65.036,36.623-2.243,11.542,65.207,112.492,15.259,2.558,59.246-36.657-42.337-74.035Z" transform="translate(155.552 347.474)" fill="#fff"/>
                </g>
              </g>
              <g id="Group_1205" data-name="Group 1205">
                <g id="Group_996" data-name="Group 996" transform="translate(672.075 1950.137)">
                  <g id="Group_995" data-name="Group 995" clip-path="url(#clip-path-4)">
                    <g id="Group_994" data-name="Group 994" transform="translate(4.235 3.312)">
                      <path id="Path_1480" data-name="Path 1480" d="M-991.31-1401.88l-68.667,39.136-4,11.278,72.671,126.855,345.879,23.022,40.692,463.005,38.148-38.371,50.865-310.48-7.63-6.716-35-6.144-5.694,5.539h-6.868l1.782-24.976,7.63-.645,4.606,7.573,41.172,5.861,3.067-3.2,10.738-69.2-4.843-5.474-99.174-17.687,1.2-14.432,101.729,18.222,5.3-3.791,9.9-57.062-6.106-13.265-163.509-48.959-44.454-2.584-4.823,5.128v37.011l5.9,5.041-1.075,7.69-24.391-.767.12-8.258,6.008-3.706v-38.713l-4.275-5.16-57.5-2.969-117.837,68.657-80.4-138.134Z" transform="translate(1065.064 1401.88)" fill="#fff"/>
                    </g>
                  </g>
                </g>
                <g id="Group_1004" data-name="Group 1004" transform="translate(1152.747 2087.961)">
                  <g id="Group_1003" data-name="Group 1003" clip-path="url(#clip-path-5)">
                    <g id="Group_1002" data-name="Group 1002" transform="translate(4.234 3.314)">
                      <path id="Path_1482" data-name="Path 1482" d="M-336.67,694.624l45.518,14.262L-171.1-19.25l-56.009-16L-237.64-28.3l-80.729,486.659-35.9,36.146Z" transform="translate(353.801 37.845)" fill="#fff"/>
                    </g>
                  </g>
                </g>
                <g id="Group_1008" data-name="Group 1008" transform="translate(1068.821 1851.139)">
                  <g id="Group_1007" data-name="Group 1007" clip-path="url(#clip-path-6)">
                    <g id="Group_1006" data-name="Group 1006" transform="translate(4.234 3.312)">
                      <path id="Path_1483" data-name="Path 1483" d="M247.958,235.34-6.366,158.6l-7.4-9.273L-19.158,85.4-21.073,0H44.321l2.721,102.322L258.13,166.273Z" transform="translate(21.625)" fill="#fff"/>
                    </g>
                  </g>
                </g>
                <g id="Group_1012" data-name="Group 1012" transform="translate(949.288 1866.487)">
                  <g id="Mask_Group_1011" data-name="Mask Group 1011" clip-path="url(#clip-path-7)">
                    <g id="Group_1010" data-name="Group 1010" transform="translate(4.234 3.312)">
                      <path id="Path_1484" data-name="Path 1484" d="M-226.629-289.229l3.238,125.637,7.286,6.8,89.046,5.181,6.8-7.316-7.938-133.053Z" transform="translate(227.07 291.946)" fill="#fff"/>
                    </g>
                  </g>
                </g>
              </g>
            </g>
          </g>
          <path id="Path_1485" data-name="Path 1485" d="M841.81-2832.961H0v1340.41H841.81Z" transform="translate(511 4336.961)" fill="none"/>
          <path id="portiernia" d="M11024.282,5820.3l28.216-72.222,10.106-10.528,2.948,82.75Z" transform="translate(-10143 -4312)" fill="#fff" opacity="0.25"/>
          <g id="_31" data-name="31">
            <path id="Path_1613" data-name="Path 1613" d="M865.337,1546.941h58.014l-1.325-38.03H880.631Z" fill="#079207" opacity="0.75"/>
            <text id="_31-2" data-name="31" transform="matrix(0.999, -0.035, 0.035, 0.999, 896.626, 1534.146)" fill="#fff" font-size="16" font-family="Lora-Regular, Lora" letter-spacing="0.025em"><tspan x="-7.568" y="0">31</tspan></text>
          </g>
          <g id="_32" data-name="32">
            <path id="Path_1612" data-name="Path 1612" d="M9521.086,5900.439l77.591-1.122-1.326-39.356-58.422.51Z" transform="translate(-8674 -4312)" fill="#079207" opacity="0.75"/>
            <text id="_32-2" data-name="32" transform="matrix(0.999, -0.035, 0.035, 0.999, 896.626, 1574.146)" fill="#fff" font-size="16" font-family="Lora-Regular, Lora" letter-spacing="0.025em"><tspan x="-8.952" y="0">32</tspan></text>
          </g>
          <g id="_33" data-name="33">
            <path id="Path_1614" data-name="Path 1614" d="M9557.5,5940.044v-38.781l41.072-.85,1.193,38.571Z" transform="translate(-8674 -4312)" fill="#079207" opacity="0.75"/>
            <text id="_33-2" data-name="33" transform="matrix(0.999, -0.035, 0.035, 0.999, 905.626, 1614.146)" fill="#fff" font-size="16" font-family="Lora-Regular, Lora" letter-spacing="0.025em"><tspan x="-9.112" y="0">33</tspan></text>
          </g>
          <g id="_34" data-name="34">
            <path id="Path_1616" data-name="Path 1616" d="M9556.824,5941.768v46.391h37.246l7.157-6.76-1.325-40.691Z" transform="translate(-8674 -4312)" fill="#079207" opacity="0.75"/>
            <text id="_34-2" data-name="34" transform="matrix(0.999, -0.035, 0.035, 0.999, 905.626, 1660.146)" fill="#fff" font-size="16" font-family="Lora-Regular, Lora" letter-spacing="0.025em"><tspan x="-8.992" y="0">34</tspan></text>
          </g>
          <g id="_35" data-name="35">
            <path id="Path_1615" data-name="Path 1615" d="M9535.1,6003.1l19.472-13.958,1.033-88.05h-35.15l-23.09,50.142Z" transform="translate(-8674 -4312)" fill="#079207" opacity="0.75"/>
            <text id="_35-2" data-name="35" transform="matrix(0.999, -0.035, 0.035, 0.999, 859.626, 1646.146)" fill="#fff" font-size="16" font-family="Lora-Regular, Lora" letter-spacing="0.025em"><tspan x="-9.008" y="0">35</tspan></text>
          </g>
          <g id="_36" data-name="36">
            <path id="Path_1617" data-name="Path 1617" d="M9534.412,6004.131l-31.532,22.4-32.566-45.146,21.538-15.163,5.858-12.923Z" transform="translate(-8674 -4312)" fill="#079207" opacity="0.75"/>
            <text id="_36-2" data-name="36" transform="matrix(0.999, -0.035, 0.035, 0.999, 828.626, 1686.146)" fill="#fff" font-size="16" font-family="Lora-Regular, Lora" letter-spacing="0.025em"><tspan x="-9.28" y="0">36</tspan></text>
          </g>
          <g id="_37" data-name="37">
            <path id="Path_1618" data-name="Path 1618" d="M9470.83,6049.966l-33.256-45.49,31.533-22.4,33.146,45.34Z" transform="translate(-8674 -4312)" fill="#079207" opacity="0.75"/>
            <text id="_37-2" data-name="37" transform="matrix(0.999, -0.035, 0.035, 0.999, 796.626, 1710.146)" fill="#fff" font-size="16" font-family="Lora-Regular, Lora" letter-spacing="0.025em"><tspan x="-8.152" y="0">37</tspan></text>
          </g>
          <g id="_38" data-name="38">
            <path id="Path_1619" data-name="Path 1619" d="M9470.609,6049.573l-33.035-45.1,31.656-22.621,32.788,45.366Z" transform="translate(-8706 -4288)" fill="#079207" opacity="0.75"/>
            <text id="_38-2" data-name="38" transform="matrix(0.999, -0.035, 0.035, 0.999, 764.626, 1733.146)" fill="#fff" font-size="16" font-family="Lora-Regular, Lora" letter-spacing="0.025em"><tspan x="-9.152" y="0">38</tspan></text>
          </g>
          <g id="_39" data-name="39">
            <path id="Path_1620" data-name="Path 1620" d="M9470.215,6049.49l-32.911-44.628,31.286-22.958,32.985,45.358Z" transform="translate(-8738 -4265)" fill="#079207" opacity="0.75"/>
            <text id="_39-2" data-name="39" transform="matrix(0.999, -0.035, 0.035, 0.999, 731.626, 1756.146)" fill="#fff" font-size="16" font-family="Lora-Regular, Lora" letter-spacing="0.025em"><tspan x="-9.28" y="0">39</tspan></text>
          </g>
          <g id="_40" data-name="40">
            <path id="Path_1621" data-name="Path 1621" d="M9469.993,6050.786l-33.084-45.49,31.36-23.09,32.911,45.49Z" transform="translate(-8770 -4242)" fill="#079207" opacity="0.75"/>
            <text id="_40-2" data-name="40" transform="matrix(0.999, -0.035, 0.035, 0.999, 699.626, 1780.146)" fill="#fff" font-size="16" font-family="Lora-Regular, Lora" letter-spacing="0.025em"><tspan x="-9.504" y="0">40</tspan></text>
          </g>
          <g id="_41" data-name="41">
            <path id="Path_1622" data-name="Path 1622" d="M9463.223,6049.771l-20.849-34.634,1.723-18.265,24.123-16.886,32.739,45.317-16.024,12.406Z" transform="translate(-8802 -4216)" fill="#079207" opacity="0.75"/>
            <text id="_41-2" data-name="41" transform="matrix(0.999, -0.035, 0.035, 0.999, 666.626, 1806.146)" fill="#fff" font-size="16" font-family="Lora-Regular, Lora" letter-spacing="0.025em"><tspan x="-7.448" y="0">41</tspan></text>
          </g>
          <g id="_42" data-name="42">
            <path id="Path_1623" data-name="Path 1623" d="M9232.871,6109.585l-52.037-89.773,2.239-4.48,104.248,63.238Z" transform="translate(-8674 -4312)" fill="#079207" opacity="0.75"/>
            <text id="_42-2" data-name="42" transform="matrix(0.999, -0.035, 0.035, 0.999, 560.626, 1763.146)" fill="#fff" font-size="16" font-family="Lora-Regular, Lora" letter-spacing="0.025em"><tspan x="-8.832" y="0">42</tspan></text>
          </g>
          <g id="_43" data-name="43">
            <path id="Path_1624" data-name="Path 1624" d="M9253.376,6144.22l-19.3-32.911,54.622-31.877,24.641,13.785-1.379,17.231Z" transform="translate(-8674 -4312)" fill="#079207" opacity="0.75"/>
            <text id="_43-2" data-name="43" transform="matrix(0.999, -0.035, 0.035, 0.999, 595.626, 1803.146)" fill="#fff" font-size="16" font-family="Lora-Regular, Lora" letter-spacing="0.025em"><tspan x="-8.992" y="0">43</tspan></text>
          </g>
          <g id="_44" data-name="44">
            <path id="Path_1625" data-name="Path 1625" d="M9274.57,6181.094l-20.5-35.151,59.1-33.256,21.367,34.117Z" transform="translate(-8674 -4312)" fill="#079207" opacity="0.75"/>
            <text id="_44-2" data-name="44" transform="matrix(0.999, -0.035, 0.035, 0.999, 618.626, 1838.146)" fill="#fff" font-size="16" font-family="Lora-Regular, Lora" letter-spacing="0.025em"><tspan x="-8.872" y="0">44</tspan></text>
          </g>
          <g id="_45" data-name="45">
            <path id="Path_1627" data-name="Path 1627" d="M9295.075,6216.59l-19.644-34.118,41.01-23.089,19.126,34.117Z" transform="translate(-8674 -4312)" fill="#079207" opacity="0.75"/>
            <text id="_45-2" data-name="45" transform="matrix(0.999, -0.035, 0.035, 0.999, 631.626, 1880.146)" fill="#fff" font-size="16" font-family="Lora-Regular, Lora" letter-spacing="0.025em"><tspan x="-8.888" y="0">45</tspan></text>
          </g>
          <g id="_50" data-name="50">
            <path id="Path_1626" data-name="Path 1626" d="M9336.6,6192.466l-19.644-34.117,40.479-22.8,20,33.826Z" transform="translate(-8674 -4312)" fill="#079207" opacity="0.75"/>
            <text id="_50-2" data-name="50" transform="matrix(0.999, -0.035, 0.035, 0.999, 672.626, 1858.146)" fill="#fff" font-size="16" font-family="Lora-Regular, Lora" letter-spacing="0.025em"><tspan x="-9.52" y="0">50</tspan></text>
          </g>
          <g id="_49" data-name="49">
            <path id="Path_1629" data-name="Path 1629" d="M9337.98,6194.189l20.16,34.807,39.8-23.606-20.16-34.634Z" transform="translate(-8674 -4312)" fill="#079207" opacity="0.75"/>
            <text id="_49-2" data-name="49" transform="matrix(0.999, -0.035, 0.035, 0.999, 693.626, 1893.146)" fill="#fff" font-size="16" font-family="Lora-Regular, Lora" letter-spacing="0.025em"><tspan x="-9.16" y="0">49</tspan></text>
          </g>
          <g id="_48" data-name="48">
            <path id="Path_1631" data-name="Path 1631" d="M9358.829,6230.375l21.022,36.185,33.944-19.126,2.758-9.3-17.748-30.843Z" transform="translate(-8674 -4312)" fill="#079207" opacity="0.75"/>
            <text id="_48-2" data-name="48" transform="matrix(0.999, -0.035, 0.035, 0.999, 716.626, 1931.146)" fill="#fff" font-size="16" font-family="Lora-Regular, Lora" letter-spacing="0.025em"><tspan x="-9.032" y="0">48</tspan></text>
          </g>
          <g id="_47" data-name="47">
            <path id="Path_1630" data-name="Path 1630" d="M9316.958,6254.5l17.748,31.188,9.478,2.412,34.807-20.677-21.038-36.229Z" transform="translate(-8674 -4312)" fill="#079207" opacity="0.75"/>
            <text id="_47-2" data-name="47" transform="matrix(0.999, -0.035, 0.035, 0.999, 674.626, 1955.146)" fill="#fff" font-size="16" font-family="Lora-Regular, Lora" letter-spacing="0.025em"><tspan x="-8.224" y="0">47</tspan></text>
          </g>
          <g id="_46" data-name="46">
            <path id="Path_1628" data-name="Path 1628" d="M9296.453,6219.174l19.644,33.256,40.493-22.745-19.743-34.484Z" transform="translate(-8674 -4312)" fill="#079207" opacity="0.75"/>
            <text id="_46-2" data-name="46" transform="matrix(0.999, -0.035, 0.035, 0.999, 653.626, 1918.146)" fill="#fff" font-size="16" font-family="Lora-Regular, Lora" letter-spacing="0.025em"><tspan x="-9.16" y="0">46</tspan></text>
          </g>
          <g id="_61" data-name="61">
            <path id="Path_1639" data-name="Path 1639" d="M9414.606,6187.986l35.527-21.813,25.4,45.2-28.9,17.472-10.752-2.688Z" transform="translate(-8674 -4312)" fill="#079207" opacity="0.75"/>
            <text id="_61-2" data-name="61" transform="matrix(0.999, -0.035, 0.035, 0.999, 771.626, 1893.146)" fill="#fff" font-size="16" font-family="Lora-Regular, Lora" letter-spacing="0.025em"><tspan x="-7.736" y="0">61</tspan></text>
          </g>
          <g id="_60" data-name="60">
            <path id="Path_1638" data-name="Path 1638" d="M9451.194,6166.438l32.605-19.352,25.783,44.346-32.256,19.264Z" transform="translate(-8674 -4312)" fill="#079207" opacity="0.75"/>
            <text id="_60-2" data-name="60" transform="matrix(0.999, -0.035, 0.035, 0.999, 807.626, 1873.146)" fill="#fff" font-size="16" font-family="Lora-Regular, Lora" letter-spacing="0.025em"><tspan x="-9.792" y="0">60</tspan></text>
          </g>
          <g id="_59" data-name="59">
            <path id="Path_1637" data-name="Path 1637" d="M9484.943,6145.771l32.48-18.4,26.553,44.9-32.872,18.689Z" transform="translate(-8674 -4312)" fill="#079207" opacity="0.75"/>
            <text id="_59-2" data-name="59" transform="matrix(0.999, -0.035, 0.035, 0.999, 842.626, 1853.146)" fill="#fff" font-size="16" font-family="Lora-Regular, Lora" letter-spacing="0.025em"><tspan x="-9.176" y="0">59</tspan></text>
          </g>
          <g id="_58" data-name="58">
            <path id="Path_1636" data-name="Path 1636" d="M9518.991,6126.248l32.54-18.66,25.7,44.644-32.2,19.111Z" transform="translate(-8674 -4312)" fill="#079207" opacity="0.75"/>
            <text id="_58-2" data-name="58" transform="matrix(0.999, -0.035, 0.035, 0.999, 875.626, 1832.146)" fill="#fff" font-size="16" font-family="Lora-Regular, Lora" letter-spacing="0.025em"><tspan x="-9.048" y="0">58</tspan></text>
          </g>
          <g id="_57" data-name="57">
            <path id="Path_1642" data-name="Path 1642" d="M9546,6095.311l32.739,56,19.815-11.028,6.548-11.717-1.206-34.634Z" transform="translate(-8674 -4312)" fill="#079207" opacity="0.75"/>
            <text id="_57-2" data-name="57" transform="matrix(0.999, -0.035, 0.035, 0.999, 906.519, 1813.146)" fill="#fff" font-size="16" font-family="Lora-Regular, Lora" letter-spacing="0.025em"><tspan x="-8.24" y="0">57</tspan></text>
          </g>
          <g id="_56" data-name="56">
            <path id="Path_1641" data-name="Path 1641" d="M9545.139,6093.587l-21.884-37.046,79.091-1.723,1.379,37.391Z" transform="translate(-8674 -4312)" fill="#079207" opacity="0.75"/>
            <text id="_56-2" data-name="56" transform="matrix(0.999, -0.035, 0.035, 0.999, 904.518, 1770.146)" fill="#fff" font-size="16" font-family="Lora-Regular, Lora" letter-spacing="0.025em"><tspan x="-9.176" y="0">56</tspan></text>
          </g>
          <g id="_55" data-name="55">
            <path id="Path_1640" data-name="Path 1640" d="M9522.738,6055.162l-5.858-9.994,46.352-32.739,31.188-1.551,7.409,6.375,1.033,35.668Z" transform="translate(-8674 -4312)" fill="#079207" opacity="0.75"/>
            <text id="_55-2" data-name="55" transform="matrix(0.999, -0.035, 0.035, 0.999, 904.518, 1729.146)" fill="#fff" font-size="16" font-family="Lora-Regular, Lora" letter-spacing="0.025em"><tspan x="-8.904" y="0">55</tspan></text>
          </g>
          <g id="_54" data-name="54">
            <path id="Path_1635" data-name="Path 1635" d="M9484.943,6068.455l30.9-22.253,34.807,59.447-33.053,19.169Z" transform="translate(-8674 -4312)" fill="#079207" opacity="0.75"/>
            <text id="_54-2" data-name="54" transform="matrix(0.999, -0.035, 0.035, 0.999, 847.518, 1783.146)" fill="#fff" font-size="16" font-family="Lora-Regular, Lora" letter-spacing="0.025em"><tspan x="-8.888" y="0">54</tspan></text>
          </g>
          <g id="_53" data-name="53">
            <path id="Path_1634" data-name="Path 1634" d="M9453.05,6091.815l31-22.4,32.492,56.2-32.492,19Z" transform="translate(-8674 -4312)" fill="#079207" opacity="0.75"/>
            <text id="_53-2" data-name="53" transform="matrix(0.999, -0.035, 0.035, 0.999, 814.518, 1803.146)" fill="#fff" font-size="16" font-family="Lora-Regular, Lora" letter-spacing="0.025em"><tspan x="-9.008" y="0">53</tspan></text>
          </g>
          <g id="_52" data-name="52">
            <path id="Path_1633" data-name="Path 1633" d="M9450.664,6164.318l31.815-19.03-30.688-53.312-30.817,22.637Z" transform="translate(-8674 -4312)" fill="#079207" opacity="0.75"/>
            <text id="_52-2" data-name="52" transform="matrix(0.999, -0.035, 0.035, 0.999, 778.518, 1823.146)" fill="#fff" font-size="16" font-family="Lora-Regular, Lora" letter-spacing="0.025em"><tspan x="-8.848" y="0">52</tspan></text>
          </g>
          <g id="_51" data-name="51">
            <path id="Path_1632" data-name="Path 1632" d="M9392.209,6135.551l-1.792,10.859,22.624,40.1,36.032-21.394-28.63-50.632Z" transform="translate(-8674 -4312)" fill="#079207" opacity="0.75"/>
            <text id="_51-2" data-name="51" transform="matrix(0.999, -0.035, 0.035, 0.999, 743.518, 1846.146)" fill="#fff" font-size="16" font-family="Lora-Regular, Lora" letter-spacing="0.025em"><tspan x="-7.464" y="0">51</tspan></text>
          </g>
        </g>
      </g>
    </g>
  </g>
</svg>
