<svg xmlns="http://www.w3.org/2000/svg" width="179.866" height="73.691" viewBox="0 0 179.866 73.691">
    <defs>
        <style>
            .cls-1{fill:none;stroke:#d8cba4;stroke-miterlimit:10;stroke-width:11px}
        </style>
    </defs>
    <g id="Group_1021" data-name="Group 1021" transform="translate(0 8.86)">
        <path id="Path_729" d="M-130.4 7.792c11.24 0 22.48-14.2 22.48-14.2s11.24 14.2 22.48 14.2S-62.971-6.4-62.971-6.4-51.733 7.8-40.493 7.8-18.007-6.4-18.007-6.4-6.767 7.8 4.473 7.8s22.5-14.2 22.5-14.2S38.22 7.8 49.467 7.8" class="cls-1" data-name="Path 729" transform="translate(130.404 51.539)"/>
        <path id="Path_730" d="M-104.936-6.4s11.24 14.2 22.48 14.2S-59.982-6.4-59.982-6.4-48.744 7.8-37.504 7.8-15.018-6.4-15.018-6.4-3.778 7.8 7.462 7.8s22.5-14.2 22.5-14.2S41.2 7.792 52.451 7.792" class="cls-1" data-name="Path 730" transform="translate(127.415 6.404)"/>
    </g>
</svg>
