<svg xmlns="http://www.w3.org/2000/svg" width="179.866" height="73.693" viewBox="0 0 179.866 73.693">
    <defs>
        <style>
            .cls-1{fill:none;stroke:#d8cba4;stroke-miterlimit:10;stroke-width:11px}
        </style>
    </defs>
    <g id="Group_688" data-name="Group 688" transform="translate(0 8.861)">
        <g id="Group_687" data-name="Group 687">
            <path id="Path_729" d="M49.462 7.792c-11.24 0-22.48-14.2-22.48-14.2S15.743 7.792 4.5 7.792-17.971-6.4-17.971-6.4-29.209 7.8-40.449 7.8-62.935-6.4-62.935-6.4-74.175 7.8-85.414 7.8s-22.5-14.2-22.5-14.2-11.247 14.2-22.494 14.2" class="cls-1" data-name="Path 729" transform="translate(130.404 51.54)"/>
            <path id="Path_730" d="M52.451-6.4S41.211 7.8 29.971 7.8 7.5-6.4 7.5-6.4-3.738 7.8-14.978 7.8-37.467-6.4-37.467-6.4s-11.24 14.2-22.48 14.2-22.5-14.2-22.5-14.2-11.247 14.2-22.494 14.2" class="cls-1" data-name="Path 730" transform="translate(104.936 6.404)"/>
        </g>
    </g>
</svg>
