<svg xmlns="http://www.w3.org/2000/svg" width="59.811" height="50.169" viewBox="0 0 59.811 50.169">
    <defs>
        <style>
            .cls-1{fill:none;stroke:#afa77f;stroke-miterlimit:10;stroke-width:1.4px}
        </style>
    </defs>
    <g id="Group_469" data-name="Group 469" transform="translate(.7 1.032)">
        <path id="Path_556" d="M18.591 25.307v-6.533L12.984 12.7l-5.607 6.07v42.369h11.214V29.513" class="cls-1" data-name="Path 556" transform="translate(-7.376 -12.704)"/>
        <path id="Path_557" d="M18.6 18.77l5.6-6.062 5.607 6.062v42.37H18.6z" class="cls-1" data-name="Path 557" transform="translate(-2.867 -12.703)"/>
        <path id="Line_45" d="M4.514 0H0" class="cls-1" data-name="Line 45" transform="translate(26.944 35.271)"/>
        <path id="Line_46" d="M4.514 0H0" class="cls-1" data-name="Line 46" transform="translate(26.944 39.477)"/>
        <path id="Line_47" d="M4.528 0H0" class="cls-1" data-name="Line 47" transform="translate(42.673 35.271)"/>
        <path id="Line_48" d="M4.528 0H0" class="cls-1" data-name="Line 48" transform="translate(42.673 39.477)"/>
        <path id="Line_49" d="M4.514 0H0" class="cls-1" data-name="Line 49" transform="translate(11.215 35.271)"/>
        <path id="Line_50" d="M4.514 0H0" class="cls-1" data-name="Line 50" transform="translate(11.215 39.477)"/>
        <path id="Path_558" d="M29.82 18.77l5.607-6.062 5.607 6.062v42.37H29.82z" class="cls-1" data-name="Path 558" transform="translate(1.643 -12.703)"/>
        <path id="Path_559" d="M41.043 18.77l5.607-6.062 5.607 6.062v42.37H41.043z" class="cls-1" data-name="Path 559" transform="translate(6.153 -12.703)"/>
        <path id="Path_560" d="M19.89 25.9h-4.514v-4.206h4.514" class="cls-1" data-name="Path 560" transform="translate(-4.161 -9.091)"/>
        <path id="Line_51" d="M4.528 0H0" class="cls-1" data-name="Line 51" transform="translate(42.673 16.808)"/>
        <path id="Line_52" d="M4.528 0H0" class="cls-1" data-name="Line 52" transform="translate(42.673 12.603)"/>
        <path id="Line_53" d="M4.514 0H0" class="cls-1" data-name="Line 53" transform="translate(26.944 16.808)"/>
        <path id="Line_54" d="M4.514 0H0" class="cls-1" data-name="Line 54" transform="translate(26.944 12.603)"/>
    </g>
</svg>
