<svg xmlns="http://www.w3.org/2000/svg" width="67.157" height="62.803" viewBox="0 0 67.157 62.803">
    <defs>
        <style>
            .cls-1{fill:none;stroke:#afa77f;stroke-miterlimit:10;stroke-width:1.4px}
        </style>
    </defs>
    <g id="Group_1031" data-name="Group 1031" transform="translate(-359 -2847.156)">
        <path id="Line_67" d="M0 21.645V0" class="cls-1" data-name="Line 67" transform="translate(366.463 2872.657)"/>
        <path id="Line_68" d="M0 21.808V0" class="cls-1" data-name="Line 68" transform="translate(392.817 2872.494)"/>
        <path id="Line_69" d="M0 0h58.412" class="cls-1" data-name="Line 69" transform="translate(360.204 2894.3)"/>
        <g id="Group_472" data-name="Group 472" transform="translate(361.219 2864.754)">
            <path id="Path_579" d="M8.47-213.49l5.17-3.075 13.326-7.9 13.029 7.74 5.467 3.239" class="cls-1" data-name="Path 579" transform="translate(-8.47 224.469)"/>
        </g>
        <g id="Group_473" data-name="Group 473" transform="translate(408.56 2870.072)">
            <path id="Path_580" d="M40.337-220.889v24.23" class="cls-1" data-name="Path 580" transform="translate(-40.337 220.889)"/>
        </g>
        <g id="Group_474" data-name="Group 474" transform="translate(359 2903.316)">
            <path id="Path_581" d="M4.957-198.511c4.277 0 4.277 5.942 8.554 5.942s4.277-5.942 8.556-5.942 4.277 5.942 8.554 5.942 4.279-5.942 8.557-5.942 4.277 5.942 8.553 5.942 4.28-5.942 8.56-5.942 4.283 5.942 8.566 5.942" class="cls-1" data-name="Path 581" transform="translate(-4.957 198.511)"/>
        </g>
        <path id="Path_582" d="M39.594-203.243a16.884 16.884 0 0 0 6.262 1.194 16.9 16.9 0 0 0 16.9-16.9 16.9 16.9 0 0 0-16.9-16.9 16.906 16.906 0 0 0-16.884 16.194" class="cls-1" data-name="Path 582" transform="translate(362.704 3083.699)"/>
    </g>
</svg>
