<svg xmlns="http://www.w3.org/2000/svg" width="70.808" height="55.915" viewBox="0 0 70.808 55.915">
    <defs>
        <style>
            .cls-1{fill:none;stroke:#afa77f;stroke-miterlimit:10;stroke-width:1.4px}
        </style>
    </defs>
    <g id="pla-09" transform="translate(.296 .239)">
        <path id="Path_561" d="M0 32.4c4.125 0 4.125 4.662 8.239 4.662S12.365 32.4 16.49 32.4s4.125 4.662 8.239 4.662S28.855 32.4 32.98 32.4s4.125 4.662 8.239 4.662 4.126-4.662 8.252-4.662 4.125 4.662 8.251 4.662" class="cls-1" data-name="Path 561" transform="translate(6.168 1.583)"/>
        <path id="Path_562" d="M68.215 51.855a50.857 50.857 0 0 0-31.9-11.164h-.455a87.008 87.008 0 0 0-37.72 8.157" class="cls-1" data-name="Path 562" transform="translate(1.86 2.953)"/>
        <path id="Path_563" d="M36.206 55.32L32 43.725l-2.051-5.675-5.268-14.5v-.01" class="cls-1" data-name="Path 563" transform="translate(6.249 .117)"/>
        <path id="Path_564" d="M18.627 6.841h-.012L17.31 3.24" class="cls-1" data-name="Path 564" transform="translate(5.03 -3.24)"/>
        <path id="Path_565" d="M48.446 19.082L7.1 34.1A22 22 0 0 1 20.477 6.52a21.979 21.979 0 0 1 27.969 12.562z" class="cls-1" data-name="Path 565" transform="translate(3.157 -2.919)"/>
        <path id="Path_566" d="M20.489 6.33A21.991 21.991 0 0 0 7.1 33.915l9.078-3.3L39.357 22.2" class="cls-1" data-name="Path 566" transform="translate(3.157 -2.729)"/>
    </g>
</svg>
