<svg xmlns="http://www.w3.org/2000/svg" width="66.422" height="66.422" viewBox="0 0 66.422 66.422">
    <defs>
        <style>
            .cls-1,.cls-3{fill:none;stroke:#afa77f;stroke-width:1.4px}.cls-2{clip-path:url(#clip-path)}.cls-3{stroke-miterlimit:10}
        </style>
        <clipPath id="clip-path">
            <path id="Path_555" d="M0 0h66.422v66.422H0z" class="cls-1" data-name="Path 555"/>
        </clipPath>
    </defs>
    <g id="Mask_Group_49" class="cls-2" data-name="Mask Group 49">
        <g id="Untitled-1-07" transform="translate(1.294 12.594)">
            <path id="Path_552" d="M47.884 78.857H35.117v10.317h25.534" class="cls-3" data-name="Path 552" transform="translate(-22.35 -47.941)"/>
            <path id="Line_39" d="M0 10.317V0" class="cls-3" data-name="Line 39" transform="translate(38.301 30.917)"/>
            <path id="Line_40" d="M0 10.3V0" class="cls-3" data-name="Line 40" transform="translate(38.301 10.3)"/>
            <path id="Line_41" d="M0 10.3V0" class="cls-3" data-name="Line 41" transform="translate(25.534)"/>
            <path id="Line_42" d="M0 10.3V0" class="cls-3" data-name="Line 42" transform="translate(12.767 10.3)"/>
            <path id="Line_43" d="M0 10.317V0" class="cls-3" data-name="Line 43" transform="translate(25.534 20.6)"/>
            <path id="Path_553" d="M63.26 89.174h25.534V78.857h-38.3" class="cls-3" data-name="Path 553" transform="translate(-24.96 -47.941)"/>
            <path id="Line_44" d="M0 10.317V0" class="cls-3" data-name="Line 44" transform="translate(51.067 20.6)"/>
            <path id="Path_554" d="M70.808 51.921v-10.3H19.74v10.3h63.835v10.3H19.74v10.316h12.767" class="cls-3" data-name="Path 554" transform="translate(-19.74 -41.621)"/>
        </g>
    </g>
</svg>
