<svg xmlns="http://www.w3.org/2000/svg" width="60.353" height="60.353" viewBox="0 0 60.353 60.353">
    <defs>
        <style>
            .cls-1{fill:#fbfbfb}.cls-2{clip-path:url(#clip-path)}.cls-3{fill:none;stroke:#afa77f;stroke-miterlimit:10;stroke-width:1.5px}
        </style>
        <clipPath id="clip-path">
            <path id="Rectangle_4" d="M0 0h60.353v60.353H0z" class="cls-1" data-name="Rectangle 4"/>
        </clipPath>
    </defs>
    <g id="Mask_Group_21" class="cls-2" data-name="Mask Group 21">
        <g id="lokal-20" transform="translate(3.171 2.506)">
            <path id="Line_51" d="M0 0v26.976" class="cls-3" data-name="Line 51" transform="translate(37.15 17.179)"/>
            <path id="Path_143" d="M48.024 36.238a8.6 8.6 0 0 1 7.442-4.287 8.635 8.635 0 0 1 5.133-7.88 8.454 8.454 0 0 1 3.487-.74 8.635 8.635 0 0 1 8.635 8.62 8.635 8.635 0 1 1-8.62 8.922 2.021 2.021 0 0 1 0-.3" class="cls-3" data-name="Path 143" transform="translate(-26.875 -23.332)"/>
            <path id="Path_144" d="M65.425 46.023a8.62 8.62 0 0 1-8.62 8.635 8.046 8.046 0 0 1-3.019-.543" class="cls-3" data-name="Path 144" transform="translate(-28.29 -28.904)"/>
            <path id="Path_145" d="M33.7 24.432l-13.707 38H47.4z" class="cls-3" data-name="Path 145" transform="translate(-19.99 -23.602)"/>
            <path id="Line_52" d="M0 0v27.459" class="cls-3" data-name="Line 52" transform="translate(13.707 30.388)"/>
        </g>
    </g>
</svg>
