<svg xmlns="http://www.w3.org/2000/svg" id="Group_298" width="93.068" height="91.559" data-name="Group 298" viewBox="0 0 93.068 91.559">
    <defs>
        <style>
            .cls-1{fill:#ebf6fb}.cls-2{fill:#b99665}.cls-3,.cls-4{stroke:none}.cls-4{fill:#cfc9ae}
        </style>
    </defs>
    <g id="Path_120" class="cls-1" data-name="Path 120">
        <path d="M46.534 89.56c-6.017 0-11.853-1.16-17.345-3.445a44.438 44.438 0 0 1-14.157-9.39 43.603 43.603 0 0 1-9.538-13.916A42.868 42.868 0 0 1 2 45.78 42.868 42.868 0 0 1 5.494 28.75a43.603 43.603 0 0 1 9.538-13.916 44.438 44.438 0 0 1 14.157-9.39C34.681 3.16 40.517 2 46.534 2c6.017 0 11.853 1.159 17.345 3.444a44.438 44.438 0 0 1 14.157 9.39 43.603 43.603 0 0 1 9.538 13.916 42.868 42.868 0 0 1 3.494 17.03 42.868 42.868 0 0 1-3.494 17.03 43.602 43.602 0 0 1-9.538 13.915 44.438 44.438 0 0 1-14.157 9.39c-5.492 2.285-11.328 3.444-17.345 3.444z" class="cls-3"/>
        <path d="M46.534 4c-5.752 0-11.329 1.107-16.576 3.29a42.447 42.447 0 0 0-13.523 8.97 41.612 41.612 0 0 0-9.103 13.28A40.879 40.879 0 0 0 4 45.78c0 5.633 1.12 11.097 3.332 16.24a41.612 41.612 0 0 0 9.103 13.28 42.447 42.447 0 0 0 13.523 8.968c5.247 2.184 10.824 3.291 16.576 3.291 5.752 0 11.33-1.107 16.577-3.29a42.447 42.447 0 0 0 13.522-8.97 41.612 41.612 0 0 0 9.104-13.28 40.879 40.879 0 0 0 3.331-16.24c0-5.633-1.12-11.097-3.331-16.239a41.612 41.612 0 0 0-9.104-13.28 42.447 42.447 0 0 0-13.522-8.97C57.863 5.108 52.286 4 46.534 4m0-4c25.7 0 46.534 20.496 46.534 45.78 0 25.283-20.834 45.78-46.534 45.78S0 71.062 0 45.78C0 20.496 20.834 0 46.534 0z" class="cls-4"/>
    </g>
    <path id="Path_121" d="M14.919 0l14.919 22.75H0z" class="cls-2" data-name="Path 121" transform="rotate(90 14.535 47.51)"/>
</svg>
