<svg width="188" height="152" viewBox="0 0 188 152" fill="none" xmlns="http://www.w3.org/2000/svg">
<g clip-path="url(#clip0_434_14015)">
<path d="M10.1146 84.3901C10.1146 84.5114 10.0252 84.6307 9.84448 84.6307C8.82792 84.6307 9.84448 80.8556 5.77611 80.8556C3.441 80.8556 2.51376 82.1736 2.51376 83.6406C2.51376 87.9543 11.4927 87.3858 11.4927 93.5583C11.4927 97.4228 8.71095 99.1304 5.08919 99.1304C4.5809 99.1304 3.20281 98.892 2.18624 98.6812C0.329638 98.2915 0 97.7528 0 95.926C0 95.1169 0.0893213 93.3199 0.68905 93.3199C1.46742 93.3199 0.808145 94.1886 1.70561 95.8366C2.00548 96.3753 3.02204 98.1148 5.53579 98.1148C8.37919 98.1148 9.51697 96.3774 9.51697 94.8784C9.51697 90.3241 0.538054 90.6243 0.538054 84.8713C0.538054 82.3546 2.39253 79.8379 6.19507 79.8379C6.61403 79.8379 7.21163 79.8677 7.81136 79.9869C10.1146 80.4362 10.1146 80.7662 10.1146 81.9053V84.3922V84.3901Z" fill="#0B345A"/>
<path d="M18.9213 82.3844C18.9213 81.6051 18.6215 81.4561 17.5135 81.2155C16.5862 81.0345 16.197 80.9749 16.197 80.6172C16.197 80.3468 16.616 80.2573 17.0647 80.2573C18.1727 80.2573 20.627 80.3766 21.3734 80.3766C22.2709 80.3766 26.4903 80.2573 29.0338 80.2573C29.4825 80.2573 29.4825 80.5873 29.4825 81.2155V84.092C29.4825 84.2112 29.3613 84.2708 29.2422 84.2708C28.853 84.2708 28.9126 83.9408 28.4341 82.9231C27.9853 81.8734 27.8365 81.3943 22.7473 81.3943C21.6712 81.3943 21.4904 81.7839 21.4904 82.8038V87.9863C21.4904 88.5846 21.9391 88.6442 22.9876 88.6442H25.5907C27.8046 88.6442 27.1176 86.0679 27.8662 86.0679C28.2554 86.0679 28.2852 86.3383 28.2852 86.6662C28.2852 87.356 28.1661 87.7755 28.1661 89.1829C28.1661 90.4412 28.2852 91.2503 28.2852 92.0892C28.2852 92.3596 28.2554 92.5981 27.9556 92.5981C27.5068 92.5981 27.477 92.119 27.3261 91.2503C27.056 89.6917 26.788 89.4831 23.1067 89.4831C21.6988 89.4831 21.4904 89.6619 21.4904 90.2624V96.075C21.4904 97.4228 21.6116 97.574 25.0824 97.574C27.1176 97.574 27.8046 97.2738 28.4341 96.5562C29.8696 94.9082 29.7207 94.129 30.229 94.129C30.4991 94.129 30.5267 94.278 30.5267 94.4292C30.5267 94.5484 30.4374 94.6996 30.4076 94.9082L29.8377 97.9636C29.7484 98.4427 29.5676 98.5939 29.1486 98.5939H20.6206C18.9745 98.5939 18.0473 98.6237 17.539 98.6535C17.0009 98.6833 16.8499 98.7131 16.7011 98.7131C16.4629 98.7131 15.9844 98.7131 15.9844 98.3533C15.9844 97.904 16.5224 97.9636 17.271 97.755C18.0494 97.5165 18.9171 97.6655 18.9171 96.4072V82.3865L18.9213 82.3844Z" fill="#0B345A"/>
<path d="M47.7227 91.3718C47.4845 90.6224 47.3633 90.6224 44.9091 90.5926C42.8739 90.5627 42.3954 90.682 42.2763 90.9226C41.5574 92.3917 40.1517 96.5245 40.1517 96.8545C40.1517 97.4549 40.7812 97.6934 41.0194 97.753C41.9466 97.9936 42.5464 98.1128 42.5464 98.3513C42.5464 98.7111 42.0679 98.7111 41.8573 98.7111C41.0492 98.7111 40.0921 98.5919 39.2223 98.5919C38.0845 98.5919 36.9191 98.7111 35.9004 98.7111C35.6601 98.7111 35.541 98.6217 35.541 98.3513C35.541 97.9617 36.3194 98.0213 37.068 97.753C37.6656 97.5422 37.8166 97.3336 37.9655 97.0035L45.596 79.6571C45.6556 79.5357 45.7747 79.4761 45.8959 79.4761C46.0745 79.4761 46.2255 79.5655 46.2532 79.6869L51.8188 95.5961C52.3887 97.2441 52.9863 97.6338 53.3755 97.753C54.1836 97.9936 54.7515 97.9021 54.7515 98.3513C54.7515 98.6515 54.5133 98.7111 54.1539 98.7111C52.8672 98.7111 51.8507 98.5919 50.6831 98.5919C49.5155 98.5919 48.5288 98.7111 47.3612 98.7111C47.0635 98.7111 46.9422 98.5003 46.9422 98.3811C46.9422 98.0213 47.542 97.9319 48.6181 97.7509C48.7967 97.7211 49.3667 97.4805 49.3667 96.9716C49.3667 96.7608 49.2476 96.4627 49.188 96.2221L47.7206 91.3676L47.7227 91.3718ZM42.9036 88.5869C42.8441 88.7657 42.725 88.9467 42.725 89.1255C42.725 89.2746 44.6412 89.2746 44.8793 89.2746C45.058 89.2746 46.9741 89.2746 46.9741 89.0957C46.9741 88.9467 46.9146 88.7955 46.8253 88.5251L45.2388 83.7919C45.209 83.7323 45.1792 83.6131 45.0601 83.6131C45.0006 83.6131 44.941 83.6727 44.9112 83.7621L42.9058 88.5847L42.9036 88.5869Z" fill="#0B345A"/>
<path d="M85.429 90.4118C85.7884 89.9625 86.2967 88.9746 86.2967 88.7042C86.2967 88.5551 86.235 88.3741 85.9372 88.3145C84.6804 88.1037 84.1721 88.076 84.1721 87.7758C84.1721 87.6566 84.4103 87.5054 84.6208 87.5054C85.429 87.5054 86.2073 87.565 87.0155 87.565C87.7641 87.565 88.5722 87.5054 89.3506 87.5054C89.6207 87.5054 89.7993 87.5948 89.7993 87.8354C89.7993 88.1655 89.5292 88.1357 89.1422 88.1655C88.753 88.1953 88.2745 88.2868 87.8555 88.8255L83.6957 94.0378C83.634 94.0974 83.634 94.2464 83.634 94.3678C83.634 94.7872 85.9989 97.3934 87.2856 97.3934C87.9151 97.3934 88.8423 97.0357 89.1719 97.0357C89.4101 97.0357 89.5909 97.1549 89.5909 97.3657C89.5909 98.3238 87.7364 99.1329 86.3286 99.1329C84.5038 99.1329 83.096 97.5744 82.4984 96.9462C82.1985 96.6162 81.9603 96.2564 81.8412 96.2564C81.4818 96.2564 80.3143 99.1329 75.946 99.1329C74.1511 99.1329 71.0674 98.4431 71.0674 94.849C71.0674 90.9547 75.8546 89.9646 75.8546 89.4856C75.8546 89.3663 74.4786 88.3166 74.4786 86.4898C74.4786 84.663 75.6462 82.834 78.3683 82.834C80.4631 82.834 81.9305 83.9113 81.9305 85.7105C81.9305 88.2868 78.9085 88.7659 78.9085 89.0959C78.9085 89.1854 78.9978 89.245 79.0574 89.3067L82.7387 93.201C82.828 93.2904 82.8876 93.4118 82.9769 93.4118C83.1258 93.4118 83.1874 93.2627 83.3065 93.1116L85.4311 90.4139L85.429 90.4118ZM76.6308 90.1733C75.493 90.6524 73.3982 91.7021 73.3982 94.0378C73.3982 95.8944 74.7444 97.6915 77.1391 97.6915C79.6826 97.6915 81.4478 95.805 81.4478 95.4452C81.4478 95.3259 81.3585 95.2344 81.2691 95.1449L76.6308 90.1712V90.1733ZM78.3662 88.6445C78.6363 88.6445 80.3717 87.4756 80.3717 85.5295C80.3717 84.6608 79.8017 83.5515 78.3067 83.5515C77.2901 83.5515 76.2119 83.8496 76.2119 85.438C76.2119 87.2052 78.0663 88.6445 78.3662 88.6445Z" fill="#0B345A"/>
<path d="M121.128 93.0793C121.128 91.2227 121.099 90.8905 119.333 90.8905C117.568 90.8905 117.328 90.8309 117.328 90.4711C117.328 89.9005 117.928 89.9005 118.376 89.9005C119.633 89.9005 120.86 89.9601 122.117 89.9601C123.374 89.9601 124.691 89.9005 125.59 89.9005C126.247 89.9005 126.577 89.9601 126.577 90.2603C126.577 90.7394 125.92 90.7394 125.11 90.7394C124.482 90.7394 123.704 90.7692 123.704 91.7869V96.5201C123.704 96.9097 123.615 97.4782 123.074 97.7486C121.399 98.5279 119.484 99.1262 116.401 99.1262C111.044 99.1262 106.046 96.041 106.046 89.9579C106.046 83.8749 110.744 79.8315 117.028 79.8315C119.032 79.8315 120.38 80.1616 121.996 80.6108C123.164 80.9408 123.253 81.3603 123.253 84.3241C123.253 84.5647 123.132 84.5647 122.864 84.5647C122.207 84.5647 121.788 80.7301 117.209 80.7301C115.114 80.7301 109.219 81.2986 109.219 89.6875C109.219 95.2894 113.468 98.2256 116.82 98.2256C117.568 98.2256 118.496 98.1361 119.214 97.9275C120.201 97.6273 121.131 97.5378 121.131 94.7827V93.0751L121.128 93.0793Z" fill="#0B345A"/>
<path d="M141.508 79.8379C148.541 79.8379 151.533 85.2907 151.533 89.366C151.533 93.4413 148.69 99.1326 141.357 99.1326C135.792 99.1326 131.572 95.2085 131.572 89.4852C131.572 84.092 135.792 79.8379 141.506 79.8379H141.508ZM141.508 98.2341C148.092 98.2341 148.36 90.4136 148.36 88.9167C148.36 85.0523 146.147 80.7385 141.387 80.7385C138.154 80.7385 134.743 83.2254 134.743 89.547C134.743 96.3774 139.052 98.2362 141.506 98.2362L141.508 98.2341Z" fill="#0B345A"/>
<path d="M158.766 82.5036C158.766 81.4539 157.958 81.2751 156.701 81.2155C156.163 81.1856 155.623 81.0941 155.623 80.7066C155.623 80.2871 156.072 80.2573 156.342 80.2573C157.539 80.2573 158.586 80.3766 159.964 80.3766C161.101 80.3766 162.207 80.2573 163.345 80.2573C163.913 80.2573 164.332 80.3169 164.332 80.796C164.332 81.1558 163.553 81.2155 162.835 81.2155C161.997 81.2155 161.337 81.4539 161.337 82.9529V96.5243C161.337 97.4824 161.786 97.574 162.535 97.574C163.194 97.574 164.6 97.5144 165.857 97.3334C167.981 97.0353 169.06 94.5782 169.478 94.5782C169.778 94.5782 169.838 94.8486 169.838 95.0871C169.838 95.5066 169.689 96.9161 169.389 98.1723C169.27 98.6514 168.94 98.711 168.792 98.711C167.205 98.711 165.321 98.5917 160.802 98.5917C159.366 98.5917 157.958 98.711 156.523 98.711C155.806 98.711 155.744 98.5321 155.744 98.2319C155.744 97.8125 156.104 97.7827 156.433 97.7528C158.198 97.6038 158.768 97.4228 158.768 95.7472V82.5036H158.766Z" fill="#0B345A"/>
<path d="M188 84.2115C188 84.4223 187.94 84.5117 187.67 84.5117C187.491 84.5117 187.37 84.4223 187.34 84.3308C186.413 82.1143 187.281 81.2754 182.073 81.2754C180.427 81.2754 180.097 81.5139 180.097 82.4741V87.5373C180.097 88.5274 180.246 88.6466 182.251 88.6466C182.821 88.6466 183.327 88.5274 183.957 88.4976C186.081 88.2591 185.243 85.7424 186.26 85.7424C186.441 85.7424 186.59 85.802 186.59 86.2513C186.59 87.0902 186.53 87.8993 186.53 88.7382C186.53 89.5771 186.59 91.3145 186.59 91.8532C186.59 92.1832 186.468 92.3322 186.32 92.3322C185.93 92.3322 185.841 92.0022 185.511 90.6843C185.301 89.8454 185.063 89.4855 181.981 89.4855C180.484 89.4855 180.097 89.5749 180.097 90.2946V96.0477C180.097 97.306 180.427 97.4849 182.281 97.7553C182.879 97.8447 183.508 97.7851 183.508 98.2642C183.538 98.5622 183.359 98.7134 182.759 98.7134C182.281 98.7134 181.681 98.5942 179.048 98.5942C177.792 98.5942 176.564 98.7134 175.667 98.7134C175.129 98.7134 174.71 98.6538 174.71 98.294C174.71 97.9959 174.831 97.9639 176.537 97.7553C177.253 97.6658 177.524 97.2762 177.524 95.3301V82.687C177.524 81.6097 177.375 81.4883 176.626 81.2796C175.55 80.9794 174.891 81.2498 174.891 80.709C174.891 80.379 175.22 80.3194 176.326 80.3194C176.983 80.3194 177.762 80.3194 178.6 80.3492C179.438 80.3492 180.335 80.379 181.113 80.379C183.238 80.379 186.32 80.2598 187.368 80.2598C187.668 80.2598 187.998 80.3492 187.998 80.5579V84.2137L188 84.2115Z" fill="#0B345A"/>
<path d="M40.2349 139.144C40.1073 139.059 39.9202 139.019 39.6735 139.019H39.5608L39.5735 138.814C39.7054 138.782 39.9648 138.761 40.354 138.753C40.4348 138.753 40.7347 138.736 41.2536 138.704C41.2408 138.774 41.0941 139.227 40.8198 140.062L40.2923 141.714C40.2456 141.893 40.1265 142.266 39.9351 142.834L39.1567 145.34L40.1584 143.995C40.7432 143.301 41.0856 142.907 41.1877 142.813C41.4365 142.587 41.6577 142.434 41.8512 142.353C42.0447 142.272 42.2149 142.23 42.3616 142.23C42.5318 142.23 42.687 142.31 42.8252 142.474C43.0017 142.689 43.0868 142.943 43.0868 143.235C43.0868 143.843 42.9294 144.48 42.6168 145.138C42.3042 145.798 41.8725 146.401 41.3195 146.944C40.9622 147.295 40.4391 147.633 39.7479 147.957C39.3545 148.14 39.0376 148.232 38.7951 148.232C38.5229 148.232 38.306 148.159 38.1508 148.015C37.9955 147.87 37.9189 147.695 37.9189 147.495C37.9189 147.237 37.9679 146.937 38.0678 146.594L38.44 145.285L39.8096 141.129C39.9712 140.605 40.1243 140.154 40.2647 139.779C40.3221 139.63 40.3498 139.5 40.3498 139.391C40.3498 139.321 40.3094 139.24 40.2285 139.146L40.2349 139.144ZM39.0908 147.936C39.2396 147.936 39.3949 147.887 39.5544 147.787C39.8713 147.604 40.2307 147.278 40.6305 146.809C41.0303 146.339 41.3025 145.983 41.4493 145.738C41.7534 145.225 42.0043 144.719 42.1979 144.21C42.3446 143.835 42.419 143.505 42.419 143.226C42.419 143.094 42.3765 142.988 42.2893 142.904C42.2021 142.821 42.0937 142.781 41.9597 142.781C41.8257 142.781 41.6896 142.826 41.5365 142.915C41.2408 143.092 40.8921 143.424 40.4922 143.912C39.8564 144.68 39.4438 145.221 39.2566 145.534C39.0695 145.849 38.9164 146.207 38.7973 146.614C38.676 147.018 38.6165 147.289 38.6165 147.425C38.6165 147.567 38.6612 147.689 38.7484 147.787C38.8356 147.885 38.9483 147.934 39.0865 147.934L39.0908 147.936Z" fill="#0B345A"/>
<path d="M41.8663 150.94C41.9642 151.046 42.0514 151.117 42.1237 151.147C42.1981 151.176 42.3193 151.193 42.4937 151.193C42.7425 151.193 43.0339 151.123 43.3678 150.987C43.7038 150.848 43.9505 150.704 44.11 150.552C44.4099 150.35 44.7565 150.024 45.1521 149.575C45.3626 149.33 45.5434 149.019 45.6965 148.638C45.8496 148.257 45.9624 147.778 46.0347 147.199C46.107 146.618 46.1431 146.119 46.1431 145.702C46.1431 145.459 46.1304 145.01 46.1091 144.357C46.0857 143.912 46.0496 143.605 45.9985 143.441C45.9496 143.277 45.8858 143.16 45.805 143.09C45.7625 143.051 45.7093 143.032 45.6434 143.032C45.537 143.032 45.4413 143.079 45.3626 143.173C45.1968 143.375 45.0372 143.756 44.8777 144.32L44.8203 144.335C44.7735 144.335 44.714 144.31 44.6438 144.259C44.8076 143.643 44.9245 143.26 44.9947 143.111C45.1393 142.811 45.2669 142.602 45.3733 142.485C45.4392 142.415 45.5455 142.344 45.6965 142.274C45.771 142.264 45.8305 142.259 45.873 142.259C46.1453 142.259 46.3622 142.436 46.5259 142.787C46.7514 143.275 46.8641 143.939 46.8641 144.78C46.8641 145.161 46.8364 145.634 46.7833 146.196C46.7301 146.76 46.6727 147.176 46.611 147.444C46.5323 147.825 46.4877 148.059 46.477 148.149C46.5004 148.125 46.5259 148.089 46.5557 148.044C46.8556 147.593 47.1129 147.163 47.3277 146.75C47.4957 146.441 47.651 146.068 47.7892 145.638C47.9274 145.206 48.0359 144.763 48.1146 144.308C48.1614 144.037 48.1848 143.737 48.1848 143.415C48.1848 143.298 48.1826 143.198 48.1784 143.113C48.1677 143 48.1635 142.932 48.1635 142.909C48.1635 142.679 48.2082 142.504 48.2975 142.389C48.34 142.323 48.4208 142.291 48.542 142.291C48.6633 142.291 48.7547 142.325 48.8121 142.389C48.8717 142.455 48.8993 142.562 48.8993 142.713C48.8993 142.938 48.7653 143.498 48.4995 144.395C48.1358 145.632 47.7573 146.59 47.3681 147.265C46.7769 148.293 46.0963 149.2 45.3222 149.988C44.7969 150.523 44.2525 150.914 43.6868 151.161C43.1232 151.406 42.632 151.53 42.213 151.53C41.6515 151.53 41.2666 151.459 41.0603 151.315C40.854 151.172 40.752 151.027 40.752 150.882C40.752 150.789 40.786 150.708 40.8562 150.64C40.9263 150.572 41.0093 150.538 41.1029 150.538C41.2347 150.538 41.3708 150.572 41.5176 150.644C41.5877 150.682 41.7026 150.782 41.8621 150.946L41.8663 150.94Z" fill="#0B345A"/>
<path d="M59.6576 139.334C59.6959 139.643 59.7151 139.822 59.7151 139.868L59.6853 140.494C59.6746 140.763 59.664 140.933 59.6512 141.008C59.6087 141.027 59.5747 141.037 59.5449 141.037L59.4832 141.022C59.3322 140.367 59.0792 139.888 58.7198 139.587C58.3603 139.287 57.9244 139.136 57.4097 139.136C56.8951 139.136 56.4378 139.285 56.0954 139.587C55.753 139.888 55.5829 140.237 55.5829 140.635C55.5829 140.939 55.702 141.218 55.9402 141.472C56.1805 141.725 56.7908 142.104 57.7755 142.609C58.5262 142.996 59.06 143.316 59.3854 143.56C59.7087 143.807 59.9532 144.093 60.117 144.416C60.2829 144.74 60.3637 145.102 60.3637 145.5C60.3637 146.003 60.234 146.475 59.9745 146.916C59.7151 147.357 59.3641 147.689 58.9239 147.913C58.4837 148.136 57.8989 148.247 57.1736 148.247C56.542 148.247 55.9359 148.145 55.3532 147.944C55.0108 147.821 54.8024 147.723 54.7279 147.648C54.6535 147.574 54.6152 147.495 54.6152 147.41C54.6152 147.359 54.6195 147.293 54.628 147.212C54.6939 146.658 54.7301 146.203 54.7343 145.847C54.745 145.626 54.7599 145.498 54.7832 145.46C54.8003 145.428 54.8364 145.411 54.8875 145.411C54.93 145.411 54.964 145.426 54.9895 145.458C55.0151 145.489 55.0321 145.545 55.0427 145.63C55.0937 146.207 55.3617 146.722 55.8445 147.178C56.323 147.634 56.8632 147.861 57.4671 147.861C57.8372 147.861 58.1775 147.783 58.4901 147.629C58.8006 147.474 59.0451 147.25 59.2217 146.957C59.3982 146.663 59.4854 146.377 59.4854 146.101C59.4854 145.722 59.3514 145.375 59.0855 145.059C58.8176 144.744 58.2817 144.378 57.4756 143.959C56.6696 143.539 56.1443 143.233 55.8998 143.041C55.5063 142.726 55.2107 142.394 55.0151 142.042C54.8704 141.77 54.7981 141.453 54.7981 141.091C54.7981 140.439 55.0555 139.888 55.5701 139.434C56.0848 138.981 56.776 138.755 57.6436 138.755C58.1222 138.755 58.5326 138.808 58.8814 138.917C59.1345 139.002 59.3939 139.14 59.6619 139.332L59.6576 139.334Z" fill="#0B345A"/>
<path d="M61.7722 147.793C61.8382 147.755 61.8956 147.736 61.9488 147.736H62.1104C62.1423 147.736 62.1997 147.734 62.2784 147.729C62.6399 147.695 62.8526 147.663 62.9185 147.631C63.0823 147.542 63.2227 147.386 63.3417 147.167C63.5842 146.688 63.8585 146.011 64.1648 145.134C64.3094 144.716 64.4008 144.463 64.4391 144.374C64.5561 144.093 64.6688 143.797 64.7751 143.486L65.4365 141.636C65.5408 141.346 65.7875 140.68 66.183 139.636C66.2808 139.374 66.3999 139.021 66.5424 138.58L66.7487 138.567L66.9954 138.574C67.1974 138.972 67.374 139.402 67.5292 139.86C67.6143 140.105 67.7525 140.469 67.9439 140.952L69.0115 143.844L69.5794 145.413C69.8792 146.305 70.077 146.852 70.1706 147.056C70.2642 147.261 70.3513 147.395 70.43 147.461C70.4534 147.478 70.5406 147.508 70.6937 147.546C70.8447 147.584 70.9532 147.612 71.0149 147.631C71.2297 147.691 71.3785 147.744 71.4636 147.785C71.4827 147.836 71.4934 147.876 71.4934 147.906C71.4934 147.929 71.487 147.964 71.4721 148.01C71.3232 148.015 71.2169 148.017 71.1552 148.017C70.917 148.017 70.4938 148.01 69.8899 147.995L69.1859 147.981L68.3352 147.991C68.2778 147.991 68.2204 147.989 68.163 147.985C68.1034 147.978 68.0524 147.976 68.012 147.976H67.8567C67.8057 147.972 67.7589 147.957 67.7164 147.934C67.7164 147.868 67.727 147.804 67.7504 147.744C67.8078 147.717 67.8567 147.699 67.9035 147.695L68.6415 147.646C68.835 147.638 68.9796 147.612 69.0775 147.57C69.1072 147.484 69.12 147.421 69.12 147.38C69.12 147.295 69.0604 147.076 68.9392 146.724C68.8541 146.49 68.7797 146.267 68.718 146.054C68.6542 145.843 68.4054 145.147 67.9716 143.967C67.778 143.935 67.61 143.918 67.4654 143.918L65.9618 143.933L65.5195 143.927C65.36 143.927 65.1835 143.939 64.9921 143.961C64.9304 144.101 64.89 144.203 64.8708 144.263L64.252 146.198C63.9904 146.935 63.8585 147.342 63.8585 147.416C63.8585 147.459 63.8798 147.529 63.9223 147.627C64.0202 147.655 64.152 147.68 64.3158 147.704L65.2707 147.789C65.3217 147.831 65.3494 147.87 65.3494 147.902C65.3494 147.925 65.343 147.959 65.3281 148.006C65.1175 148.01 64.9559 148.012 64.8432 148.012C64.4689 148.012 64.0329 148 63.5353 147.978C63.3056 147.968 63.1418 147.963 63.044 147.963C62.9462 147.963 62.7739 147.968 62.5315 147.978C62.372 147.989 62.2571 147.993 62.187 147.993C62.0742 147.993 61.9296 147.987 61.751 147.972V147.929C61.751 147.897 61.7616 147.853 61.7808 147.795L61.7722 147.793ZM65.1261 143.571C65.628 143.599 66.2 143.614 66.8402 143.614C67.206 143.614 67.5271 143.601 67.8036 143.58C67.7568 143.396 67.7015 143.226 67.6419 143.066C67.3378 142.251 67.1698 141.799 67.1358 141.716L66.4978 140.092L66.4276 139.966C66.3999 140.024 66.2957 140.264 66.1192 140.692C65.8193 141.425 65.6024 141.993 65.4727 142.402C65.411 142.585 65.3494 142.766 65.2834 142.947C65.2175 143.126 65.1771 143.254 65.1601 143.326C65.1431 143.399 65.1197 143.471 65.0856 143.548L65.1282 143.575L65.1261 143.571Z" fill="#0B345A"/>
<path d="M71.0171 139.096L71.066 138.974C71.4446 138.974 71.8253 138.978 72.2038 138.989H72.4356C72.5058 138.989 72.5845 138.987 72.6674 138.983C72.9716 138.97 73.5224 138.961 74.3199 138.961C74.4794 138.961 74.6325 138.961 74.7835 138.966C74.9345 138.97 75.0791 138.972 75.2195 138.976C75.2471 138.991 75.2684 139.013 75.2833 139.04L75.2684 139.153C75.2407 139.2 75.1706 139.223 75.0578 139.223H75.0004C74.8686 139.219 74.6538 139.23 74.3539 139.255C74.054 139.281 73.8563 139.33 73.7627 139.4C73.7031 139.451 73.6712 139.519 73.6712 139.604C73.6712 139.788 73.7499 140.062 73.9031 140.428L74.9728 142.911L75.345 143.735C75.7065 144.608 76.0616 145.5 76.4147 146.409C76.453 146.507 76.487 146.597 76.5189 146.678L76.9889 145.524C77.2313 144.942 77.478 144.323 77.7247 143.665L78.2096 142.343C78.2202 142.315 78.2436 142.221 78.2862 142.062C78.7392 140.82 78.9667 140.035 78.9667 139.705C78.9667 139.634 78.9348 139.562 78.871 139.489C78.8072 139.417 78.7051 139.357 78.5648 139.311C78.5074 139.291 78.3245 139.264 78.0161 139.225L77.4972 139.162C77.4546 139.115 77.4355 139.074 77.4355 139.042L77.4568 138.985L79.7345 138.964H80.4873C80.7404 138.964 80.9126 138.978 81.0062 139.013L81.0126 139.068C81.0126 139.106 80.9998 139.155 80.9701 139.217C80.8574 139.255 80.7553 139.279 80.6617 139.287C80.2683 139.334 80.0237 139.389 79.9301 139.453C79.8365 139.515 79.7366 139.651 79.6345 139.858L77.7907 144.433C77.2143 145.807 76.806 146.871 76.5636 147.627L76.3594 148.24C76.2998 148.279 76.2467 148.298 76.2063 148.298C76.1531 148.298 76.0935 148.292 76.0297 148.277C75.4726 146.833 75.0174 145.717 74.6665 144.93L72.5143 140.049C72.3612 139.76 72.2442 139.585 72.1655 139.526C72.0868 139.466 71.8168 139.383 71.3553 139.277C71.1915 139.238 71.1001 139.215 71.0809 139.206C71.049 139.183 71.0235 139.149 71.0107 139.102L71.0171 139.096Z" fill="#0B345A"/>
<path d="M82.7138 147.913C82.7605 147.872 82.8009 147.847 82.8329 147.836C82.9115 147.813 83.0476 147.793 83.2412 147.778C83.6963 147.751 83.977 147.708 84.0855 147.653C84.1514 147.559 84.1833 147.427 84.1833 147.257L84.1769 146.765L84.1833 144.974L84.1684 144.129L84.1748 142.36L84.1408 140.352C84.1365 139.873 84.1046 139.602 84.0493 139.541C83.9643 139.451 83.7133 139.4 83.2965 139.385C83.1178 139.381 82.9605 139.368 82.8243 139.343C82.7648 139.311 82.735 139.268 82.735 139.217C82.735 139.179 82.7457 139.136 82.7691 139.083C82.8116 139.059 82.8477 139.049 82.8818 139.049C82.9477 139.049 83.0264 139.051 83.1221 139.055C83.3986 139.083 83.6835 139.098 83.9791 139.098L84.4981 139.083L85.7358 139.111C86.3547 139.111 86.8374 139.104 87.1841 139.089C87.5307 139.074 87.7647 139.068 87.888 139.068C87.9965 139.068 88.2644 139.079 88.6898 139.098L89.6872 139.091L89.8084 139.113L90.3911 139.091L90.4613 139.125C90.4847 139.164 90.5017 139.202 90.5102 139.245C90.5102 139.311 90.4996 139.413 90.4783 139.549C90.4571 139.683 90.4464 139.771 90.4464 139.803C90.4464 140.29 90.4634 140.703 90.4953 141.042C90.4911 141.069 90.4783 141.089 90.4549 141.097C90.4039 141.097 90.3571 141.091 90.3167 141.076C90.2657 140.986 90.1955 140.829 90.1104 140.605C90.0232 140.38 89.8935 140.12 89.7191 139.824C89.6021 139.628 89.5107 139.509 89.4448 139.473C89.3788 139.434 89.2427 139.417 89.0364 139.417C88.9939 139.417 88.7812 139.413 88.3963 139.402C88.2921 139.398 88.1921 139.396 88.0922 139.396L86.0888 139.438H85.9123C85.6529 139.438 85.4997 139.47 85.4487 139.536C85.37 139.649 85.3296 139.979 85.3296 140.529C85.3296 140.586 85.3402 141.148 85.3636 142.217V143.196C85.4147 143.209 85.47 143.218 85.5316 143.218H85.6507C85.7294 143.218 85.8485 143.22 86.0016 143.224C86.2462 143.235 86.41 143.239 86.4929 143.239C86.5503 143.239 86.5992 143.237 86.6418 143.233C87.1479 143.214 87.7987 143.205 88.5962 143.205C88.845 143.162 88.9896 143.113 89.0322 143.056C89.1024 142.971 89.1555 142.751 89.1917 142.394C89.2257 142.036 89.3044 141.836 89.4256 141.789C89.4873 141.789 89.5426 141.8 89.5936 141.823C89.6043 141.861 89.6085 141.896 89.6085 141.927C89.6085 141.959 89.6043 142.015 89.5936 142.089C89.5702 142.262 89.5596 142.807 89.5596 143.722C89.5596 143.965 89.5724 144.238 89.5979 144.538C89.6234 144.838 89.6383 145 89.6383 145.023C89.6383 145.066 89.6319 145.121 89.617 145.192C89.5787 145.211 89.549 145.221 89.5256 145.221H89.4767C89.4022 145.089 89.3299 144.885 89.2597 144.608C89.1385 144.133 89.0109 143.837 88.8769 143.718C88.7429 143.597 88.526 143.539 88.2262 143.539C88.1602 143.539 88.0411 143.544 87.8667 143.55C87.6945 143.556 87.435 143.561 87.0926 143.561H86.6375C85.9867 143.561 85.5593 143.575 85.3572 143.603L85.3509 143.835L85.3572 145.134L85.3509 145.952L85.3572 146.748C85.3615 147.227 85.3913 147.504 85.4487 147.58C85.5274 147.685 85.7018 147.736 85.9676 147.736L86.3951 147.73C86.4334 147.73 86.5801 147.734 86.8353 147.74C87.0905 147.747 87.4053 147.751 87.7817 147.751C88.6855 147.751 89.2874 147.712 89.5872 147.636C89.8871 147.557 90.1338 147.421 90.3295 147.223C90.523 147.025 90.7697 146.599 91.0632 145.945C91.1525 145.752 91.2418 145.656 91.3311 145.656C91.3737 145.656 91.4205 145.673 91.4715 145.713C91.3354 146.177 91.2588 146.482 91.2397 146.629C91.1886 146.957 91.1589 147.293 91.1482 147.636C91.1482 147.789 91.11 147.921 91.0355 148.023H90.8803L88.9046 148.045L88.0177 148.038L85.9081 148.066H85.051C84.9425 148.066 84.8426 148.068 84.749 148.072C83.9047 148.111 83.2837 148.13 82.886 148.13C82.8158 148.13 82.7691 148.117 82.7414 148.096C82.7159 148.072 82.7031 148.038 82.7031 147.994L82.7095 147.925L82.7138 147.913Z" fill="#0B345A"/>
<path d="M93.2279 147.793C93.3321 147.751 93.4363 147.725 93.5448 147.717C94.2615 147.67 94.6719 147.584 94.774 147.459C94.8782 147.333 94.9271 146.733 94.9271 145.651L94.9207 144.912V144.137L94.891 143.284L94.9058 142.783L94.8995 142.234V141.587L94.8846 141.297L94.8995 140.931C94.9037 140.846 94.9058 140.748 94.9058 140.635C94.9058 140.339 94.891 140.026 94.8633 139.698C94.8442 139.632 94.8187 139.568 94.7868 139.508C94.6145 139.419 94.3338 139.359 93.9467 139.33C93.5596 139.3 93.3406 139.266 93.2896 139.227C93.2513 139.198 93.23 139.125 93.2258 139.01H93.817L95.6821 139.053C96.1606 139.053 96.7986 139.038 97.5961 139.01C97.5961 139.085 97.5919 139.155 97.5812 139.221C97.4877 139.244 97.3303 139.27 97.1112 139.298C96.6668 139.349 96.3945 139.4 96.2946 139.447C96.235 139.47 96.1904 139.508 96.1606 139.566C96.1138 139.651 96.0862 139.809 96.0755 140.039L96.0415 140.948L96.0692 144.082V145.321C96.0606 145.711 96.0564 145.975 96.0564 146.117C96.0564 146.643 96.0691 146.98 96.0947 147.125C96.1202 147.269 96.1649 147.374 96.2287 147.438C96.2903 147.501 96.3967 147.553 96.5413 147.589C96.7561 147.64 96.9262 147.668 97.0474 147.674C97.309 147.685 97.4749 147.721 97.5472 147.787C97.56 147.849 97.5685 147.9 97.5685 147.942V147.998C97.141 148.012 96.8263 148.019 96.6242 148.019C96.5072 148.019 96.2988 148.012 95.999 147.998L95.0271 148.012L93.3725 148.006H93.2385L93.2236 147.795L93.2279 147.793Z" fill="#0B345A"/>
<path d="M99.5035 139.412L99.4971 139.074C100.222 139.074 100.754 139.057 101.092 139.016C101.224 139.004 101.313 138.995 101.364 138.995C101.407 138.995 101.471 138.997 101.554 139.002C101.751 139.165 101.932 139.353 102.102 139.564C102.141 139.606 102.181 139.653 102.228 139.704L103.71 141.344L103.921 141.597C104.22 141.948 104.493 142.249 104.739 142.498C104.986 142.747 105.465 143.266 106.177 144.054L107.857 145.919C108.021 146.1 108.231 146.328 108.489 146.601L108.495 146.488C108.467 145.836 108.453 145.489 108.453 145.453L108.48 145.031L108.467 144.369V144.067C108.467 143.873 108.45 143.281 108.419 142.287C108.414 142.151 108.395 141.895 108.361 141.516C108.329 141.137 108.312 140.807 108.312 140.52C108.312 140.004 108.282 139.704 108.221 139.619C108.178 139.557 107.98 139.495 107.623 139.429C107.538 139.425 107.408 139.412 107.23 139.387C107.019 139.376 106.894 139.366 106.858 139.353C106.821 139.34 106.783 139.3 106.745 139.234C106.755 139.157 106.775 139.089 106.807 139.021C106.934 138.982 107.057 138.965 107.179 138.965C107.311 138.965 107.472 138.98 107.668 139.014C107.861 139.048 108.036 139.063 108.191 139.063C108.406 139.063 108.742 139.051 109.197 139.021C109.454 139.004 109.633 138.993 109.731 138.993H109.85L109.835 139.21C109.761 139.242 109.656 139.263 109.527 139.27C109.395 139.276 109.273 139.295 109.161 139.329C108.993 139.381 108.891 139.425 108.859 139.464C108.746 139.587 108.691 139.711 108.691 139.836L108.767 142.059L108.825 143.079L108.818 143.375L108.861 144.789C108.889 145.755 108.903 146.594 108.903 147.307C108.903 147.461 108.893 147.797 108.874 148.315L108.546 148.342C108.382 148.155 107.817 147.563 106.851 146.569C106.626 146.339 106.475 146.177 106.394 146.083L105.79 145.387C105.556 145.129 105.403 144.963 105.333 144.895C105.263 144.825 105.212 144.774 105.18 144.74C104.667 144.158 104.006 143.43 103.189 142.559C102.968 142.325 102.647 141.959 102.219 141.461C101.951 141.146 101.783 140.954 101.713 140.884C101.643 140.813 101.547 140.733 101.426 140.643L101.405 140.884C101.405 141.799 101.428 143.062 101.475 144.669L101.524 146.999C101.528 147.197 101.539 147.386 101.558 147.569L101.802 147.627C102.247 147.669 102.685 147.731 103.117 147.816C103.151 147.846 103.178 147.865 103.202 147.88L103.195 148.149C103.119 148.172 103.059 148.183 103.012 148.183C102.961 148.183 102.898 148.178 102.823 148.168C102.36 148.129 101.794 148.112 101.13 148.112C100.66 148.112 100.25 148.123 99.8926 148.146L99.7948 148.153C99.7523 148.153 99.6906 148.149 99.6119 148.138L99.6055 147.927L99.7884 147.842L100.12 147.793C100.416 147.75 100.631 147.704 100.767 147.652C100.856 147.62 100.928 147.572 100.984 147.506C101.035 147.182 101.06 146.707 101.06 146.083C101.06 145.791 101.054 145.259 101.039 144.486V143.53L101.024 141.531C101.013 140.641 100.984 140.113 100.933 139.955C100.905 139.87 100.845 139.796 100.756 139.73C100.577 139.604 100.343 139.523 100.056 139.491C99.7693 139.457 99.5821 139.429 99.4971 139.406L99.5035 139.412Z" fill="#0B345A"/>
<path d="M111.67 139.096L111.719 138.974C112.098 138.974 112.479 138.978 112.857 138.989H113.089C113.159 138.989 113.238 138.987 113.321 138.983C113.625 138.97 114.176 138.961 114.973 138.961C115.133 138.961 115.286 138.961 115.437 138.966C115.588 138.97 115.732 138.972 115.873 138.976C115.9 138.991 115.922 139.013 115.937 139.04L115.922 139.153C115.894 139.2 115.824 139.223 115.711 139.223H115.654C115.522 139.219 115.307 139.23 115.007 139.255C114.707 139.281 114.51 139.33 114.416 139.4C114.356 139.451 114.325 139.519 114.325 139.604C114.325 139.788 114.403 140.062 114.556 140.428L115.626 142.911L115.998 143.735C116.36 144.608 116.715 145.5 117.068 146.409C117.106 146.507 117.14 146.597 117.172 146.678L117.642 145.524C117.885 144.942 118.131 144.323 118.378 143.665L118.863 142.343C118.874 142.315 118.897 142.221 118.939 142.062C119.392 140.82 119.62 140.035 119.62 139.705C119.62 139.634 119.588 139.562 119.524 139.489C119.461 139.417 119.358 139.357 119.218 139.311C119.161 139.291 118.978 139.264 118.669 139.225L118.15 139.162C118.108 139.115 118.089 139.074 118.089 139.042L118.11 138.985L120.388 138.964H121.141C121.394 138.964 121.566 138.978 121.66 139.013L121.666 139.068C121.666 139.106 121.653 139.155 121.623 139.217C121.511 139.255 121.409 139.279 121.315 139.287C120.922 139.334 120.677 139.389 120.583 139.453C120.49 139.515 120.39 139.651 120.288 139.858L118.444 144.433C117.868 145.807 117.459 146.871 117.217 147.627L117.013 148.24C116.953 148.279 116.9 148.298 116.86 148.298C116.806 148.298 116.747 148.292 116.683 148.277C116.126 146.833 115.671 145.717 115.32 144.93L113.168 140.049C113.015 139.76 112.898 139.585 112.819 139.526C112.74 139.466 112.47 139.383 112.009 139.277C111.845 139.238 111.753 139.215 111.734 139.206C111.702 139.183 111.677 139.149 111.664 139.102L111.67 139.096Z" fill="#0B345A"/>
<path d="M123.367 147.913C123.414 147.872 123.454 147.847 123.486 147.836C123.565 147.813 123.701 147.793 123.895 147.778C124.35 147.751 124.63 147.708 124.739 147.653C124.805 147.559 124.837 147.427 124.837 147.257L124.83 146.765L124.837 144.974L124.822 144.129L124.828 142.36L124.794 140.352C124.79 139.873 124.758 139.602 124.703 139.541C124.618 139.451 124.367 139.4 123.95 139.385C123.771 139.381 123.614 139.368 123.478 139.343C123.418 139.311 123.388 139.268 123.388 139.217C123.388 139.179 123.399 139.136 123.422 139.083C123.465 139.059 123.501 139.049 123.535 139.049C123.601 139.049 123.68 139.051 123.775 139.055C124.052 139.083 124.337 139.098 124.632 139.098L125.151 139.083L126.389 139.111C127.008 139.111 127.491 139.104 127.837 139.089C128.184 139.074 128.418 139.068 128.541 139.068C128.65 139.068 128.918 139.079 129.343 139.098L130.341 139.091L130.462 139.113L131.044 139.091L131.115 139.125C131.138 139.164 131.155 139.202 131.164 139.245C131.164 139.311 131.153 139.413 131.132 139.549C131.11 139.683 131.1 139.771 131.1 139.803C131.1 140.29 131.117 140.703 131.149 141.042C131.144 141.069 131.132 141.089 131.108 141.097C131.057 141.097 131.01 141.091 130.97 141.076C130.919 140.986 130.849 140.829 130.764 140.605C130.677 140.38 130.547 140.12 130.372 139.824C130.255 139.628 130.164 139.509 130.098 139.473C130.032 139.434 129.896 139.417 129.69 139.417C129.647 139.417 129.435 139.413 129.05 139.402C128.945 139.398 128.845 139.396 128.746 139.396L126.742 139.438H126.566C126.306 139.438 126.153 139.47 126.102 139.536C126.023 139.649 125.983 139.979 125.983 140.529C125.983 140.586 125.994 141.148 126.017 142.217V143.196C126.068 143.209 126.123 143.218 126.185 143.218H126.304C126.383 143.218 126.502 143.22 126.655 143.224C126.9 143.235 127.063 143.239 127.146 143.239C127.204 143.239 127.253 143.237 127.295 143.233C127.801 143.214 128.452 143.205 129.25 143.205C129.498 143.162 129.643 143.113 129.686 143.056C129.756 142.971 129.809 142.751 129.845 142.394C129.879 142.036 129.958 141.836 130.079 141.789C130.141 141.789 130.196 141.8 130.247 141.823C130.258 141.861 130.262 141.896 130.262 141.927C130.262 141.959 130.258 142.015 130.247 142.089C130.224 142.262 130.213 142.807 130.213 143.722C130.213 143.965 130.226 144.238 130.251 144.538C130.277 144.838 130.292 145 130.292 145.023C130.292 145.066 130.285 145.121 130.27 145.192C130.232 145.211 130.202 145.221 130.179 145.221H130.13C130.056 145.089 129.983 144.885 129.913 144.608C129.792 144.133 129.664 143.837 129.53 143.718C129.396 143.597 129.179 143.539 128.88 143.539C128.814 143.539 128.694 143.544 128.52 143.55C128.348 143.556 128.088 143.561 127.746 143.561H127.291C126.64 143.561 126.213 143.575 126.011 143.603L126.004 143.835L126.011 145.134L126.004 145.952L126.011 146.748C126.015 147.227 126.045 147.504 126.102 147.58C126.181 147.685 126.355 147.736 126.621 147.736L127.048 147.73C127.087 147.73 127.233 147.734 127.489 147.74C127.744 147.747 128.059 147.751 128.435 147.751C129.339 147.751 129.941 147.712 130.241 147.636C130.54 147.557 130.787 147.421 130.983 147.223C131.176 147.025 131.423 146.599 131.717 145.945C131.806 145.752 131.895 145.656 131.984 145.656C132.027 145.656 132.074 145.673 132.125 145.713C131.989 146.177 131.912 146.482 131.893 146.629C131.842 146.957 131.812 147.293 131.802 147.636C131.802 147.789 131.763 147.921 131.689 148.023H131.534L129.558 148.045L128.671 148.038L126.561 148.066H125.704C125.596 148.066 125.496 148.068 125.402 148.072C124.558 148.111 123.937 148.13 123.539 148.13C123.469 148.13 123.422 148.117 123.395 148.096C123.369 148.072 123.356 148.038 123.356 147.994L123.363 147.925L123.367 147.913Z" fill="#0B345A"/>
<path d="M139.148 139.334C139.186 139.643 139.205 139.822 139.205 139.868L139.175 140.494C139.165 140.763 139.154 140.933 139.141 141.008C139.099 141.027 139.065 141.037 139.035 141.037L138.973 141.022C138.822 140.367 138.569 139.888 138.21 139.587C137.851 139.287 137.415 139.136 136.9 139.136C136.385 139.136 135.928 139.285 135.586 139.587C135.243 139.888 135.073 140.237 135.073 140.635C135.073 140.939 135.192 141.218 135.43 141.472C135.671 141.725 136.281 142.104 137.266 142.609C138.016 142.996 138.55 143.316 138.876 143.56C139.199 143.807 139.443 144.093 139.607 144.416C139.773 144.74 139.854 145.102 139.854 145.5C139.854 146.003 139.724 146.475 139.465 146.916C139.205 147.357 138.854 147.689 138.414 147.913C137.974 148.136 137.389 148.247 136.664 148.247C136.032 148.247 135.426 148.145 134.843 147.944C134.501 147.821 134.293 147.723 134.218 147.648C134.144 147.574 134.105 147.495 134.105 147.41C134.105 147.359 134.11 147.293 134.118 147.212C134.184 146.658 134.22 146.203 134.225 145.847C134.235 145.626 134.25 145.498 134.273 145.46C134.29 145.428 134.327 145.411 134.378 145.411C134.42 145.411 134.454 145.426 134.48 145.458C134.505 145.489 134.522 145.545 134.533 145.63C134.584 146.207 134.852 146.722 135.335 147.178C135.813 147.634 136.353 147.861 136.957 147.861C137.327 147.861 137.668 147.783 137.98 147.629C138.291 147.474 138.535 147.25 138.712 146.957C138.888 146.663 138.976 146.377 138.976 146.101C138.976 145.722 138.842 145.375 138.576 145.059C138.308 144.744 137.772 144.378 136.966 143.959C136.16 143.539 135.635 143.233 135.39 143.041C134.997 142.726 134.701 142.394 134.505 142.042C134.361 141.77 134.288 141.453 134.288 141.091C134.288 140.439 134.546 139.888 135.06 139.434C135.575 138.981 136.266 138.755 137.134 138.755C137.612 138.755 138.023 138.808 138.372 138.917C138.625 139.002 138.884 139.14 139.152 139.332L139.148 139.334Z" fill="#0B345A"/>
<path d="M141.663 140.066L141.952 139.004C141.969 138.863 141.997 138.772 142.029 138.733C142.061 138.695 142.099 138.674 142.142 138.674C142.227 138.674 142.322 138.776 142.431 138.976C142.509 139.121 142.575 139.215 142.626 139.255C142.678 139.296 142.752 139.323 142.852 139.336L142.922 139.33L143.224 139.359L144.883 139.381L146.844 139.374H147.42L148.511 139.353C148.558 139.353 148.615 139.357 148.688 139.366C149.004 139.393 149.202 139.408 149.277 139.408C149.347 139.408 149.402 139.385 149.445 139.338C149.46 139.321 149.536 139.166 149.676 138.874C149.738 138.742 149.813 138.676 149.902 138.676C149.94 138.676 149.987 138.687 150.042 138.706C150.066 138.799 150.076 138.882 150.076 138.957L150.07 139.236L150.076 139.83C150.076 139.973 150.064 140.439 150.042 141.227C150.042 141.278 150.032 141.325 150.012 141.367C149.961 141.399 149.917 141.416 149.878 141.416C149.84 141.416 149.808 141.399 149.781 141.365C149.751 141.331 149.717 141.222 149.674 141.041C149.581 140.622 149.464 140.322 149.323 140.141C149.23 140.024 149.094 139.941 148.919 139.89C148.743 139.838 148.324 139.813 147.658 139.813H146.469C146.459 140 146.455 140.173 146.455 140.326L146.512 144.699C146.512 144.872 146.501 145.202 146.484 145.685L146.491 146.622L146.484 147.142C146.484 147.308 146.512 147.423 146.569 147.495C146.625 147.565 146.778 147.633 147.024 147.699C147.456 147.808 147.743 147.872 147.89 147.897C147.977 147.908 148.052 147.925 148.107 147.955V148.166L147.107 148.14C146.559 148.136 146.146 148.125 145.87 148.108L144.845 148.157L144.092 148.2C143.881 148.2 143.751 148.196 143.705 148.185L143.607 148.142C143.618 148.036 143.637 147.966 143.671 147.936C143.703 147.906 143.79 147.88 143.93 147.861C144.126 147.831 144.358 147.782 144.626 147.71C144.894 147.638 145.068 147.563 145.153 147.489C145.2 147.446 145.232 147.376 145.251 147.278C145.293 147.071 145.312 146.665 145.312 146.06V144.863L145.285 142.253L145.255 141.691L145.249 139.813H144.115C143.441 139.813 143.031 139.853 142.886 139.936C142.656 140.062 142.314 140.437 141.861 141.056C141.71 141.288 141.58 141.403 141.467 141.403L141.404 141.391C141.384 141.361 141.376 141.337 141.376 141.314C141.376 141.257 141.414 141.088 141.489 140.807C141.582 140.445 141.64 140.203 141.657 140.075L141.663 140.066Z" fill="#0B345A"/>
<path d="M61.819 122.997L59.4456 119.613C59.1521 119.635 58.9203 119.645 58.7544 119.645H56.0365V122.997H54.4648V111.982H58.7565C60.1814 111.982 61.3022 112.323 62.121 113.004C62.9376 113.686 63.3459 114.625 63.3459 115.821C63.3459 116.671 63.1354 117.395 62.7164 117.993C62.2975 118.591 61.6999 119.026 60.9257 119.298L63.5352 122.997H61.8211H61.819ZM60.9853 117.663C61.5106 117.233 61.7722 116.62 61.7722 115.821C61.7722 115.023 61.5106 114.412 60.9853 113.988C60.4621 113.562 59.7029 113.349 58.7055 113.349H56.0343V118.306H58.7055C59.7008 118.306 60.4621 118.091 60.9853 117.661V117.663Z" fill="#0B345A"/>
<path d="M76.8616 121.628V122.997H68.8779V111.982H76.6425V113.351H70.4496V116.735H75.9662V118.072H70.4496V121.628H76.8616Z" fill="#0B345A"/>
<path d="M83.3326 122.737C82.5628 122.482 81.9588 122.147 81.5186 121.738L82.0991 120.512C82.5181 120.889 83.0562 121.198 83.7112 121.432C84.3662 121.666 85.0382 121.785 85.7315 121.785C86.6439 121.785 87.3244 121.632 87.7753 121.321C88.2262 121.012 88.4516 120.602 88.4516 120.086C88.4516 119.709 88.3282 119.401 88.0815 119.166C87.8348 118.932 87.5329 118.749 87.1713 118.623C86.8098 118.498 86.2994 118.355 85.638 118.198C84.8107 118 84.1408 117.799 83.6346 117.599C83.1263 117.401 82.6904 117.093 82.3288 116.68C81.9673 116.266 81.7865 115.707 81.7865 115.004C81.7865 114.416 81.9396 113.886 82.2501 113.415C82.5585 112.943 83.0285 112.566 83.6559 112.283C84.2854 112 85.0659 111.857 85.9974 111.857C86.646 111.857 87.2862 111.94 87.9157 112.108C88.5452 112.276 89.0832 112.517 89.5341 112.832L89.0152 114.09C88.5537 113.797 88.0603 113.573 87.5371 113.422C87.0118 113.271 86.4993 113.194 85.9974 113.194C85.1063 113.194 84.4385 113.356 83.994 113.682C83.5496 114.007 83.3262 114.427 83.3262 114.94C83.3262 115.319 83.4517 115.626 83.7048 115.86C83.9557 116.096 84.2662 116.279 84.6405 116.411C85.0127 116.543 85.5189 116.682 86.1569 116.829C86.9842 117.029 87.6498 117.227 88.1517 117.427C88.6557 117.625 89.0875 117.929 89.449 118.338C89.8105 118.747 89.9913 119.298 89.9913 119.99C89.9913 120.567 89.8339 121.095 89.5192 121.572C89.2044 122.049 88.7281 122.428 88.0879 122.705C87.4499 122.984 86.663 123.122 85.7315 123.122C84.9043 123.122 84.1046 122.995 83.3348 122.737H83.3326Z" fill="#0B345A"/>
<path d="M97.3095 122.39C96.4184 121.902 95.7208 121.227 95.2125 120.367C94.7043 119.507 94.4512 118.547 94.4512 117.486C94.4512 116.426 94.7043 115.468 95.2125 114.608C95.7208 113.748 96.4205 113.075 97.3095 112.585C98.2005 112.097 99.2001 111.853 100.312 111.853C101.425 111.853 102.407 112.095 103.298 112.585C104.189 113.073 104.885 113.745 105.389 114.599C105.891 115.455 106.144 116.418 106.144 117.486C106.144 118.555 105.893 119.52 105.389 120.374C104.887 121.227 104.189 121.9 103.298 122.388C102.407 122.875 101.412 123.12 100.312 123.12C99.2128 123.12 98.2027 122.875 97.3095 122.388V122.39ZM102.488 121.17C103.132 120.802 103.641 120.297 104.013 119.652C104.385 119.007 104.57 118.285 104.57 117.488C104.57 116.692 104.385 115.97 104.013 115.325C103.641 114.68 103.132 114.173 102.488 113.807C101.844 113.439 101.118 113.256 100.31 113.256C99.5021 113.256 98.7726 113.439 98.1176 113.807C97.4626 114.175 96.95 114.68 96.5779 115.325C96.2057 115.97 96.0207 116.692 96.0207 117.488C96.0207 118.285 96.2078 119.007 96.5779 119.652C96.95 120.297 97.4647 120.804 98.1176 121.17C98.7705 121.536 99.5021 121.719 100.31 121.719C101.118 121.719 101.844 121.536 102.488 121.17Z" fill="#0B345A"/>
<path d="M118.902 122.997L116.529 119.613C116.235 119.635 116.003 119.645 115.837 119.645H113.119V122.997H111.548V111.982H115.84C117.264 111.982 118.385 112.323 119.204 113.004C120.021 113.686 120.429 114.625 120.429 115.821C120.429 116.671 120.218 117.395 119.799 117.993C119.38 118.591 118.783 119.026 118.009 119.298L120.618 122.997H118.904H118.902ZM118.068 117.663C118.594 117.233 118.855 116.62 118.855 115.821C118.855 115.023 118.594 114.412 118.068 113.988C117.545 113.562 116.786 113.349 115.788 113.349H113.117V118.306H115.788C116.784 118.306 117.545 118.091 118.068 117.661V117.663Z" fill="#0B345A"/>
<path d="M128.21 113.35H124.438V111.98H133.538V113.35H129.765V122.995H128.208V113.35H128.21Z" fill="#0B345A"/>
<path d="M109.489 14.0717C112.273 16.0944 111.93 19.3436 108.885 20.8936C108.77 20.9511 108.596 20.8766 108.638 20.785C108.951 20.1271 109.649 18.9135 109.772 17.538C109.912 15.9709 109.434 14.834 109.23 14.1356C109.202 14.0398 109.385 13.9951 109.489 14.0696V14.0717Z" fill="#AA7F10"/>
<path d="M112.517 22.8353C114.988 25.6693 113.831 29.044 110.21 29.951C110.074 29.9851 109.906 29.8616 109.974 29.7743C110.467 29.1505 111.505 28.0305 111.973 26.5955C112.504 24.9624 112.273 23.6338 112.226 22.8417C112.219 22.7331 112.426 22.7289 112.517 22.8353Z" fill="#AA7F10"/>
<path d="M109.396 31.5309C110.104 35.225 107.407 37.5586 103.822 36.5132C103.688 36.4749 103.605 36.2811 103.707 36.2428C104.447 35.9532 105.908 35.5082 107.033 34.5054C108.315 33.362 108.781 32.0973 109.14 31.3904C109.189 31.2924 109.37 31.3946 109.396 31.533V31.5309Z" fill="#AA7F10"/>
<path d="M107.988 23.242C109.657 26.2548 107.975 29.0547 104.557 29.1696C104.43 29.1739 104.302 29.0312 104.379 28.9674C104.94 28.5032 106.084 27.7005 106.777 26.506C107.567 25.1455 107.613 23.9127 107.724 23.193C107.739 23.0929 107.924 23.1313 107.988 23.2441V23.242Z" fill="#AA7F10"/>
<path d="M102.803 30.9478C102.767 34.3929 99.9232 35.994 96.8948 34.4035C96.782 34.3439 96.7416 34.1565 96.8395 34.1395C97.5562 34.0139 98.947 33.8819 100.14 33.1856C101.497 32.3936 102.148 31.3439 102.599 30.7732C102.66 30.6945 102.803 30.818 102.803 30.9478Z" fill="#AA7F10"/>
<path d="M105.193 9.17679C107.55 10.5608 107.53 13.1562 105.242 14.6169C105.157 14.6722 105.012 14.6254 105.038 14.5509C105.236 14.0058 105.693 12.9944 105.684 11.8979C105.676 10.6481 105.208 9.78574 104.993 9.24919C104.964 9.17466 105.106 9.12569 105.193 9.17679Z" fill="#AA7F10"/>
<path d="M98.7449 5.63807C100.578 6.0128 101.137 7.69912 99.9762 9.15335C99.9337 9.20871 99.8295 9.20871 99.8295 9.15335C99.838 8.75732 99.9103 7.99933 99.6615 7.29032C99.3808 6.48335 98.8874 6.02771 98.63 5.72749C98.5939 5.68704 98.6747 5.62316 98.7427 5.63594L98.7449 5.63807Z" fill="#AA7F10"/>
<path d="M93.5258 5.06298C94.5274 4.73508 95.2697 5.40365 95.1059 6.43843C95.0995 6.47676 95.0485 6.50657 95.0357 6.48102C94.9294 6.28513 94.755 5.89549 94.436 5.61657C94.0745 5.29932 93.7065 5.21415 93.496 5.13963C93.4662 5.12898 93.4896 5.07575 93.5258 5.06298Z" fill="#AA7F10"/>
<path d="M96.3759 10.1031C97.2032 10.7546 97.0607 11.7426 96.1122 12.1833C96.076 12.2003 96.0228 12.1748 96.0377 12.1471C96.1419 11.9491 96.3674 11.5871 96.4227 11.1677C96.4843 10.6908 96.3504 10.3373 96.2972 10.1201C96.2887 10.0903 96.3461 10.0797 96.378 10.1031H96.3759Z" fill="#AA7F10"/>
<path d="M95.3698 15.3516C95.9079 16.2565 95.4209 17.1295 94.3767 17.1976C94.3384 17.1998 94.298 17.1572 94.3214 17.138C94.4894 16.9911 94.8318 16.7335 95.0317 16.363C95.2614 15.9393 95.2635 15.5624 95.289 15.341C95.2933 15.3112 95.3507 15.3197 95.3698 15.3538V15.3516Z" fill="#AA7F10"/>
<path d="M92.1309 20.1976C92.2755 21.2409 91.4887 21.8562 90.4998 21.5113C90.4636 21.4985 90.4423 21.4431 90.4721 21.4346C90.6827 21.3643 91.0974 21.26 91.427 20.996C91.8013 20.6958 91.9502 20.3466 92.0607 20.155C92.0756 20.1273 92.1245 20.1592 92.1309 20.1976Z" fill="#AA7F10"/>
<path d="M87.8108 23.6849C87.6237 24.7218 86.6837 25.0582 85.8522 24.4237C85.8203 24.4003 85.8181 24.3407 85.85 24.3407C86.0733 24.3407 86.4987 24.3705 86.8942 24.2236C87.3451 24.0554 87.5939 23.7722 87.7598 23.6232C87.7832 23.6019 87.8194 23.6466 87.813 23.687L87.8108 23.6849Z" fill="#AA7F10"/>
<path d="M82.5582 24.8945C81.8947 25.7143 80.91 25.5567 80.4868 24.5986C80.4719 24.5624 80.4975 24.5092 80.523 24.5241C80.7186 24.6305 81.0781 24.8626 81.4949 24.9243C81.9713 24.9925 82.3264 24.8647 82.5412 24.8136C82.571 24.8072 82.5816 24.8626 82.5561 24.8945H82.5582Z" fill="#AA7F10"/>
<path d="M77.7503 23.9808C76.8741 24.5642 75.9788 24.1192 75.8597 23.078C75.8554 23.0397 75.8958 22.9971 75.9171 23.0184C76.0724 23.1781 76.3446 23.5081 76.7252 23.6912C77.1591 23.8999 77.5355 23.8828 77.7567 23.8999C77.7865 23.902 77.7801 23.9595 77.7482 23.9808H77.7503Z" fill="#AA7F10"/>
<path d="M100.397 11.4016C101.89 12.5258 101.675 14.2867 100.006 15.1C99.9441 15.1298 99.8484 15.0872 99.8718 15.0383C100.048 14.6848 100.437 14.0312 100.516 13.2859C100.608 12.4364 100.357 11.8147 100.252 11.4336C100.238 11.3803 100.338 11.359 100.395 11.3995L100.397 11.4016Z" fill="#AA7F10"/>
<path d="M99.4976 17.5361C100.529 19.1734 99.6742 20.7958 97.7623 20.9683C97.69 20.9747 97.6155 20.898 97.6559 20.8597C97.9558 20.5829 98.5725 20.0953 98.9234 19.4033C99.3233 18.6156 99.3105 17.9214 99.3488 17.5169C99.3552 17.4615 99.4594 17.4764 99.4976 17.5361Z" fill="#AA7F10"/>
<path d="M96.2946 23.0443C96.6753 24.7902 95.4227 25.9272 93.7085 25.4758C93.6447 25.4588 93.6022 25.3694 93.6511 25.3481C93.9999 25.2012 94.6868 24.9733 95.2079 24.4836C95.8033 23.9258 96.0096 23.3211 96.1713 22.9804C96.1925 22.9336 96.2797 22.9804 96.2946 23.0443Z" fill="#AA7F10"/>
<path d="M91.9579 26.8404C91.8665 28.4756 90.4799 29.174 89.0762 28.3521C89.0231 28.3223 89.0082 28.2308 89.0571 28.2244C89.3995 28.1797 90.0652 28.1477 90.6457 27.8433C91.3072 27.4962 91.6389 27.0129 91.8665 26.751C91.8984 26.7148 91.9622 26.7765 91.96 26.8383L91.9579 26.8404Z" fill="#AA7F10"/>
<path d="M86.8199 29.0528C85.931 30.8073 84.0701 30.9073 82.9217 29.3275C82.8792 29.2679 82.9047 29.1614 82.96 29.1784C83.3598 29.2955 84.1041 29.5787 84.891 29.5255C85.7864 29.4637 86.384 29.0911 86.7583 28.9123C86.8093 28.8867 86.8518 28.9868 86.8178 29.0528H86.8199Z" fill="#AA7F10"/>
<path d="M79.9317 29.2488C78.5068 30.6605 76.6736 30.158 76.0696 28.2587C76.0462 28.1885 76.1079 28.0927 76.1546 28.1267C76.5034 28.3695 77.1329 28.8847 77.9113 29.0849C78.7981 29.3127 79.4957 29.1445 79.9168 29.0934C79.9742 29.087 79.9827 29.1956 79.9295 29.2488H79.9317Z" fill="#AA7F10"/>
<path d="M104.546 17.5957C106.124 19.4651 105.337 21.6475 102.975 22.199C102.885 22.2203 102.777 22.1372 102.824 22.0819C103.151 21.6816 103.838 20.9619 104.155 20.0357C104.517 18.9796 104.38 18.1131 104.357 17.5957C104.355 17.5254 104.489 17.5254 104.546 17.5957Z" fill="#AA7F10"/>
<path d="M101.452 24.9901C102.105 27.3492 100.48 29.0015 98.1005 28.5139C98.0112 28.4948 97.9474 28.3755 98.0112 28.3436C98.4769 28.1158 99.3999 27.7517 100.076 27.0426C100.846 26.2336 101.084 25.3904 101.28 24.9113C101.308 24.8453 101.429 24.9007 101.452 24.9901Z" fill="#AA7F10"/>
<path d="M96.0732 30.2045C95.9329 32.6467 93.8636 33.69 91.7667 32.4615C91.688 32.4146 91.6667 32.2805 91.7369 32.272C92.2494 32.206 93.2405 32.1591 94.1103 31.7056C95.0992 31.1882 95.5947 30.4643 95.935 30.0768C95.9818 30.0235 96.0796 30.1151 96.0732 30.2066V30.2045Z" fill="#AA7F10"/>
<path d="M89.2515 33.0746C88.2902 35.3251 85.9891 35.5998 84.4366 33.7303C84.3792 33.6601 84.4026 33.5259 84.4728 33.543C84.9768 33.6558 85.9253 33.9497 86.8972 33.8176C88.0031 33.6686 88.7155 33.1576 89.1664 32.9064C89.2281 32.8723 89.2897 32.9915 89.2536 33.0767L89.2515 33.0746Z" fill="#AA7F10"/>
<path d="M81.5335 33.558C80.0257 35.485 77.731 35.1571 76.7123 32.9512C76.674 32.8682 76.7335 32.7447 76.7952 32.7788C77.2525 33.0194 78.0946 33.5453 79.0665 33.6688C80.1745 33.8093 80.9933 33.4984 81.4931 33.3728C81.5611 33.3558 81.5888 33.4878 81.5335 33.558Z" fill="#AA7F10"/>
<path d="M158.452 63.1132C158.873 62.6022 159.271 62.072 159.636 61.5163C159.983 60.7967 160.338 60.0812 160.661 59.3488C160.619 59.3807 160.576 59.4127 160.534 59.4468C158.18 61.2459 155.957 62.945 151.446 62.945C146.936 62.945 144.713 61.2459 142.359 59.4468C139.864 57.539 137.285 55.5674 132.147 55.5674C127.009 55.5674 124.429 57.539 121.934 59.4468C119.582 61.2459 117.358 62.945 112.847 62.945C108.336 62.945 106.114 61.2459 103.762 59.4468C101.267 57.539 98.6874 55.5674 93.5493 55.5674C88.4112 55.5674 85.8315 57.539 83.3369 59.4468C80.9847 61.2459 78.7624 62.945 74.2495 62.945C69.7367 62.945 67.5164 61.2459 65.1643 59.4468C62.6696 57.539 60.09 55.5674 54.9519 55.5674C49.8138 55.5674 47.2341 57.539 44.7395 59.4468C42.3873 61.2459 40.1649 62.945 35.6521 62.945C31.9857 62.945 29.8313 61.8229 27.8896 60.4368C28.113 60.9202 28.3575 61.3907 28.5915 61.8676C29.0678 62.5618 29.6016 63.2112 30.1652 63.8329C31.6433 64.4205 33.3999 64.8038 35.6521 64.8038C40.7902 64.8038 43.3699 62.8322 45.8645 60.9244C48.2166 59.1253 50.439 57.4262 54.9519 57.4262C59.4647 57.4262 61.685 59.1253 64.0371 60.9244C66.5317 62.8322 69.1114 64.8038 74.2495 64.8038C79.3876 64.8038 81.9673 62.8322 84.4619 60.9244C86.814 59.1253 89.0364 57.4262 93.5493 57.4262C98.0621 57.4262 100.282 59.1253 102.637 60.9244C105.131 62.8322 107.711 64.8038 112.849 64.8038C117.987 64.8038 120.567 62.8322 123.061 60.9244C125.416 59.1253 127.638 57.4262 132.149 57.4262C136.66 57.4262 138.882 59.1253 141.236 60.9244C143.731 62.8322 146.31 64.8038 151.449 64.8038C154.526 64.8038 156.68 64.0926 158.454 63.1153L158.452 63.1132Z" fill="#0B345A"/>
<path d="M151.447 44.8C146.936 44.8 144.713 43.1009 142.359 41.3017C139.865 39.394 137.285 37.4224 132.147 37.4224C127.009 37.4224 124.429 39.394 121.934 41.3017C119.58 43.1009 117.358 44.8 112.847 44.8C108.336 44.8 106.114 43.1009 103.76 41.3017C101.265 39.394 98.6853 37.4224 93.5472 37.4224C88.4091 37.4224 85.8294 39.394 83.3348 41.3017C80.9827 43.1009 78.7603 44.8 74.2474 44.8C69.7346 44.8 67.5143 43.1009 65.1622 41.3017C62.6675 39.394 60.0879 37.4224 54.9498 37.4224C49.8117 37.4224 47.232 39.394 44.7374 41.3017C42.3852 43.1009 40.1628 44.8 35.65 44.8C31.8623 44.8 29.691 43.5991 27.6983 42.1492C27.392 42.6942 27.1113 43.2542 26.8604 43.8312C28.987 45.3451 31.4668 46.6567 35.65 46.6567C40.7881 46.6567 43.3678 44.685 45.8624 42.7773C48.2145 40.9781 50.4369 39.279 54.9498 39.279C59.4626 39.279 61.6829 40.9781 64.035 42.7773C66.5296 44.685 69.1093 46.6567 74.2474 46.6567C79.3855 46.6567 81.9652 44.685 84.4598 42.7773C86.8119 40.9781 89.0343 39.279 93.5472 39.279C98.06 39.279 100.28 40.9781 102.632 42.7773C105.127 44.685 107.707 46.6567 112.845 46.6567C117.983 46.6567 120.563 44.685 123.057 42.7773C125.411 40.9781 127.634 39.279 132.145 39.279C136.655 39.279 138.878 40.9781 141.232 42.7773C143.727 44.685 146.306 46.6567 151.444 46.6567C156.07 46.6567 158.62 45.0598 160.902 43.35C160.634 42.7815 160.34 42.2279 160.017 41.6914C157.841 43.3372 155.625 44.8 151.444 44.8H151.447Z" fill="#0B345A"/>
<path d="M162.55 49.0859C161.844 49.5564 161.185 50.0547 160.534 50.5508C158.18 52.3499 155.957 54.049 151.446 54.049C146.936 54.049 144.711 52.3499 142.359 50.5508C139.864 48.643 137.285 46.6714 132.147 46.6714C127.009 46.6714 124.429 48.643 121.934 50.5508C119.582 52.3499 117.358 54.049 112.847 54.049C108.336 54.049 106.114 52.3499 103.76 50.5508C101.265 48.643 98.6852 46.6714 93.5471 46.6714C88.409 46.6714 85.8293 48.643 83.3347 50.5508C80.9826 52.3499 78.7602 54.049 74.2473 54.049C69.7345 54.049 67.5142 52.3499 65.1621 50.5508C62.6675 48.643 60.0878 46.6714 54.9497 46.6714C49.8116 46.6714 47.2319 48.643 44.7373 50.5508C42.3852 52.3499 40.1628 54.049 35.6499 54.049C31.1371 54.049 28.9168 52.3499 26.5625 50.5508C26.1776 50.2569 25.7842 49.9631 25.3865 49.6735C25.3397 50.208 25.3057 50.7445 25.3057 51.2896C25.3057 51.5132 25.3312 51.7325 25.3397 51.9539C25.3716 51.9794 25.4056 52.0029 25.4375 52.0284C27.9321 53.9362 30.5118 55.9078 35.6499 55.9078C40.788 55.9078 43.3677 53.9362 45.8623 52.0284C48.2144 50.2293 50.4368 48.5302 54.9497 48.5302C59.4626 48.5302 61.6828 50.2293 64.035 52.0284C66.5296 53.9362 69.1092 55.9078 74.2473 55.9078C79.3855 55.9078 81.9651 53.9362 84.4598 52.0284C86.8119 50.2293 89.0343 48.5302 93.5471 48.5302C98.06 48.5302 100.28 50.2293 102.635 52.0284C105.129 53.9362 107.709 55.9078 112.847 55.9078C117.985 55.9078 120.565 53.9362 123.059 52.0284C125.411 50.2293 127.636 48.5302 132.147 48.5302C136.657 48.5302 138.88 50.2293 141.234 52.0284C143.729 53.9362 146.308 55.9078 151.446 55.9078C156.585 55.9078 159.166 53.9362 161.661 52.0284C162.006 51.7665 162.346 51.5068 162.69 51.2534C162.69 50.5188 162.633 49.7992 162.55 49.0859Z" fill="#0B345A"/>
<path d="M93.358 0.0935506C80.1172 0.621589 69.7751 11.836 70.3025 25.0923C70.5152 30.4345 72.5207 35.536 75.9404 39.6049C76.8421 39.5218 77.6502 39.1918 78.1819 38.9193C74.6963 35.1101 72.661 30.1747 72.4547 25.005C71.9741 12.9368 81.389 2.72948 93.4431 2.24829C105.495 1.76709 115.693 11.193 116.173 23.2612C116.405 29.1058 114.351 34.6928 110.386 38.9917C110.386 38.9917 110.559 39.1556 111.144 39.4217C111.731 39.6879 112.186 39.7028 112.651 39.6389C116.543 35.0356 118.566 29.2421 118.325 23.1782C117.798 9.91975 106.599 -0.434488 93.358 0.0935506Z" fill="#AA7F10"/>
</g>
<defs>
<clipPath id="clip0_434_14015">
<rect width="188" height="151.598" fill="white"/>
</clipPath>
</defs>
</svg>
