<svg width="188" height="76" viewBox="0 0 188 76" fill="none" xmlns="http://www.w3.org/2000/svg">
<g clip-path="url(#clip0_434_13954)">
<path d="M10.1146 8.39009C10.1146 8.51145 10.0252 8.63068 9.84448 8.63068C8.82792 8.63068 9.84448 4.85564 5.77611 4.85564C3.441 4.85564 2.51376 6.1736 2.51376 7.64061C2.51376 11.9543 11.4927 11.3858 11.4927 17.5583C11.4927 21.4228 8.71095 23.1304 5.08919 23.1304C4.5809 23.1304 3.20281 22.892 2.18624 22.6812C0.329638 22.2915 0 21.7528 0 19.926C0 19.1169 0.0893213 17.3199 0.68905 17.3199C1.46742 17.3199 0.808145 18.1886 1.70561 19.8366C2.00548 20.3753 3.02204 22.1148 5.53579 22.1148C8.37919 22.1148 9.51697 20.3774 9.51697 18.8784C9.51697 14.3241 0.538054 14.6243 0.538054 8.87128C0.538054 6.35458 2.39253 3.83789 6.19507 3.83789C6.61403 3.83789 7.21163 3.8677 7.81136 3.98694C10.1146 4.43619 10.1146 4.76621 10.1146 5.90533V8.39221V8.39009Z" fill="#0B345A"/>
<path d="M18.9213 6.38438C18.9213 5.6051 18.6215 5.45606 17.5135 5.21546C16.5862 5.03448 16.197 4.97486 16.197 4.61716C16.197 4.34675 16.616 4.25732 17.0647 4.25732C18.1727 4.25732 20.627 4.37656 21.3734 4.37656C22.2709 4.37656 26.4903 4.25732 29.0338 4.25732C29.4825 4.25732 29.4825 4.58735 29.4825 5.21546V8.09199C29.4825 8.21122 29.3613 8.27084 29.2422 8.27084C28.853 8.27084 28.9126 7.94081 28.4341 6.92306C27.9853 5.87337 27.8365 5.39431 22.7473 5.39431C21.6712 5.39431 21.4904 5.78395 21.4904 6.80383V11.9863C21.4904 12.5846 21.9391 12.6442 22.9876 12.6442H25.5907C27.8046 12.6442 27.1176 10.0679 27.8662 10.0679C28.2554 10.0679 28.2852 10.3383 28.2852 10.6662C28.2852 11.356 28.1661 11.7755 28.1661 13.1829C28.1661 14.4412 28.2852 15.2503 28.2852 16.0892C28.2852 16.3596 28.2554 16.5981 27.9556 16.5981C27.5068 16.5981 27.477 16.119 27.3261 15.2503C27.056 13.6917 26.788 13.4831 23.1067 13.4831C21.6988 13.4831 21.4904 13.6619 21.4904 14.2624V20.075C21.4904 21.4228 21.6116 21.574 25.0824 21.574C27.1176 21.574 27.8046 21.2738 28.4341 20.5562C29.8696 18.9082 29.7207 18.129 30.229 18.129C30.4991 18.129 30.5267 18.278 30.5267 18.4292C30.5267 18.5484 30.4374 18.6996 30.4076 18.9082L29.8377 21.9636C29.7484 22.4427 29.5676 22.5939 29.1486 22.5939H20.6206C18.9745 22.5939 18.0473 22.6237 17.539 22.6535C17.0009 22.6833 16.8499 22.7131 16.7011 22.7131C16.4629 22.7131 15.9844 22.7131 15.9844 22.3533C15.9844 21.904 16.5224 21.9636 17.271 21.755C18.0494 21.5165 18.9171 21.6655 18.9171 20.4072V6.38651L18.9213 6.38438Z" fill="#0B345A"/>
<path d="M47.7227 15.3718C47.4845 14.6224 47.3633 14.6224 44.9091 14.5926C42.8739 14.5627 42.3954 14.682 42.2763 14.9226C41.5574 16.3917 40.1517 20.5245 40.1517 20.8545C40.1517 21.4549 40.7812 21.6934 41.0194 21.753C41.9466 21.9936 42.5464 22.1128 42.5464 22.3513C42.5464 22.7111 42.0679 22.7111 41.8573 22.7111C41.0492 22.7111 40.0921 22.5919 39.2223 22.5919C38.0845 22.5919 36.9191 22.7111 35.9004 22.7111C35.6601 22.7111 35.541 22.6217 35.541 22.3513C35.541 21.9617 36.3194 22.0213 37.068 21.753C37.6656 21.5422 37.8166 21.3336 37.9655 21.0035L45.596 3.65706C45.6556 3.53569 45.7747 3.47607 45.8959 3.47607C46.0745 3.47607 46.2255 3.5655 46.2532 3.68687L51.8188 19.5961C52.3887 21.2441 52.9863 21.6338 53.3755 21.753C54.1836 21.9936 54.7515 21.9021 54.7515 22.3513C54.7515 22.6515 54.5133 22.7111 54.1539 22.7111C52.8672 22.7111 51.8507 22.5919 50.6831 22.5919C49.5155 22.5919 48.5288 22.7111 47.3612 22.7111C47.0635 22.7111 46.9422 22.5003 46.9422 22.3811C46.9422 22.0213 47.542 21.9319 48.6181 21.7509C48.7967 21.7211 49.3667 21.4805 49.3667 20.9716C49.3667 20.7608 49.2476 20.4627 49.188 20.2221L47.7206 15.3676L47.7227 15.3718ZM42.9036 12.5869C42.8441 12.7657 42.725 12.9467 42.725 13.1255C42.725 13.2746 44.6412 13.2746 44.8793 13.2746C45.058 13.2746 46.9741 13.2746 46.9741 13.0957C46.9741 12.9467 46.9146 12.7955 46.8253 12.5251L45.2388 7.79194C45.209 7.73232 45.1792 7.61309 45.0601 7.61309C45.0006 7.61309 44.941 7.6727 44.9112 7.76213L42.9058 12.5847L42.9036 12.5869Z" fill="#0B345A"/>
<path d="M85.429 14.4118C85.7884 13.9625 86.2967 12.9746 86.2967 12.7042C86.2967 12.5551 86.235 12.3741 85.9372 12.3145C84.6804 12.1037 84.1721 12.076 84.1721 11.7758C84.1721 11.6566 84.4103 11.5054 84.6208 11.5054C85.429 11.5054 86.2073 11.565 87.0155 11.565C87.7641 11.565 88.5722 11.5054 89.3506 11.5054C89.6207 11.5054 89.7993 11.5948 89.7993 11.8354C89.7993 12.1655 89.5292 12.1357 89.1422 12.1655C88.753 12.1953 88.2745 12.2868 87.8555 12.8255L83.6957 18.0378C83.634 18.0974 83.634 18.2464 83.634 18.3678C83.634 18.7872 85.9989 21.3934 87.2856 21.3934C87.9151 21.3934 88.8423 21.0357 89.1719 21.0357C89.4101 21.0357 89.5909 21.1549 89.5909 21.3657C89.5909 22.3238 87.7364 23.1329 86.3286 23.1329C84.5038 23.1329 83.096 21.5744 82.4984 20.9462C82.1985 20.6162 81.9603 20.2564 81.8412 20.2564C81.4818 20.2564 80.3143 23.1329 75.946 23.1329C74.1511 23.1329 71.0674 22.4431 71.0674 18.849C71.0674 14.9547 75.8546 13.9646 75.8546 13.4856C75.8546 13.3663 74.4786 12.3166 74.4786 10.4898C74.4786 8.66295 75.6462 6.83398 78.3683 6.83398C80.4631 6.83398 81.9305 7.91135 81.9305 9.71051C81.9305 12.2868 78.9085 12.7659 78.9085 13.0959C78.9085 13.1854 78.9978 13.245 79.0574 13.3067L82.7387 17.201C82.828 17.2904 82.8876 17.4118 82.9769 17.4118C83.1258 17.4118 83.1874 17.2627 83.3065 17.1116L85.4311 14.4139L85.429 14.4118ZM76.6308 14.1733C75.493 14.6524 73.3982 15.7021 73.3982 18.0378C73.3982 19.8944 74.7444 21.6915 77.1391 21.6915C79.6826 21.6915 81.4478 19.805 81.4478 19.4452C81.4478 19.3259 81.3585 19.2344 81.2691 19.1449L76.6308 14.1712V14.1733ZM78.3662 12.6445C78.6363 12.6445 80.3717 11.4756 80.3717 9.52954C80.3717 8.66083 79.8017 7.55152 78.3067 7.55152C77.2901 7.55152 76.2119 7.8496 76.2119 9.43798C76.2119 11.2052 78.0663 12.6445 78.3662 12.6445Z" fill="#0B345A"/>
<path d="M121.128 17.0793C121.128 15.2227 121.099 14.8905 119.333 14.8905C117.568 14.8905 117.328 14.8309 117.328 14.4711C117.328 13.9005 117.928 13.9005 118.376 13.9005C119.633 13.9005 120.86 13.9601 122.117 13.9601C123.374 13.9601 124.691 13.9005 125.59 13.9005C126.247 13.9005 126.577 13.9601 126.577 14.2603C126.577 14.7394 125.92 14.7394 125.11 14.7394C124.482 14.7394 123.704 14.7692 123.704 15.7869V20.5201C123.704 20.9097 123.615 21.4782 123.074 21.7486C121.399 22.5279 119.484 23.1262 116.401 23.1262C111.044 23.1262 106.046 20.041 106.046 13.9579C106.046 7.87487 110.744 3.83154 117.028 3.83154C119.032 3.83154 120.38 4.16157 121.996 4.61083C123.164 4.94085 123.253 5.3603 123.253 8.32413C123.253 8.56472 123.132 8.56472 122.864 8.56472C122.207 8.56472 121.788 4.73006 117.209 4.73006C115.114 4.73006 109.219 5.29855 109.219 13.6875C109.219 19.2894 113.468 22.2256 116.82 22.2256C117.568 22.2256 118.496 22.1361 119.214 21.9275C120.201 21.6273 121.131 21.5378 121.131 18.7827V17.0751L121.128 17.0793Z" fill="#0B345A"/>
<path d="M141.508 3.83789C148.541 3.83789 151.533 9.29074 151.533 13.366C151.533 17.4413 148.69 23.1326 141.357 23.1326C135.792 23.1326 131.572 19.2085 131.572 13.4852C131.572 8.09201 135.792 3.83789 141.506 3.83789H141.508ZM141.508 22.2341C148.092 22.2341 148.36 14.4136 148.36 12.9167C148.36 9.05227 146.147 4.73854 141.387 4.73854C138.154 4.73854 134.743 7.22543 134.743 13.547C134.743 20.3774 139.052 22.2362 141.506 22.2362L141.508 22.2341Z" fill="#0B345A"/>
<path d="M158.766 6.50361C158.766 5.45392 157.958 5.27508 156.701 5.21546C156.163 5.18565 155.623 5.09409 155.623 4.70658C155.623 4.28713 156.072 4.25732 156.342 4.25732C157.539 4.25732 158.586 4.37656 159.964 4.37656C161.101 4.37656 162.207 4.25732 163.345 4.25732C163.913 4.25732 164.332 4.31694 164.332 4.79601C164.332 5.15584 163.553 5.21546 162.835 5.21546C161.997 5.21546 161.337 5.45393 161.337 6.95288V20.5243C161.337 21.4824 161.786 21.574 162.535 21.574C163.194 21.574 164.6 21.5144 165.857 21.3334C167.981 21.0353 169.06 18.5782 169.478 18.5782C169.778 18.5782 169.838 18.8486 169.838 19.0871C169.838 19.5066 169.689 20.9161 169.389 22.1723C169.27 22.6514 168.94 22.711 168.792 22.711C167.205 22.711 165.321 22.5917 160.802 22.5917C159.366 22.5917 157.958 22.711 156.523 22.711C155.806 22.711 155.744 22.5321 155.744 22.2319C155.744 21.8125 156.104 21.7827 156.433 21.7528C158.198 21.6038 158.768 21.4228 158.768 19.7472V6.50361H158.766Z" fill="#0B345A"/>
<path d="M188 8.21153C188 8.42232 187.94 8.51175 187.67 8.51175C187.491 8.51175 187.37 8.42232 187.34 8.33077C186.413 6.11428 187.281 5.27538 182.073 5.27538C180.427 5.27538 180.097 5.51385 180.097 6.47412V11.5373C180.097 12.5274 180.246 12.6466 182.251 12.6466C182.821 12.6466 183.327 12.5274 183.957 12.4976C186.081 12.2591 185.243 9.74242 186.26 9.74242C186.441 9.74242 186.59 9.80203 186.59 10.2513C186.59 11.0902 186.53 11.8993 186.53 12.7382C186.53 13.5771 186.59 15.3145 186.59 15.8532C186.59 16.1832 186.468 16.3322 186.32 16.3322C185.93 16.3322 185.841 16.0022 185.511 14.6843C185.301 13.8454 185.063 13.4855 181.981 13.4855C180.484 13.4855 180.097 13.5749 180.097 14.2946V20.0477C180.097 21.306 180.427 21.4849 182.281 21.7553C182.879 21.8447 183.508 21.7851 183.508 22.2642C183.538 22.5622 183.359 22.7134 182.759 22.7134C182.281 22.7134 181.681 22.5942 179.048 22.5942C177.792 22.5942 176.564 22.7134 175.667 22.7134C175.129 22.7134 174.71 22.6538 174.71 22.294C174.71 21.9959 174.831 21.9639 176.537 21.7553C177.253 21.6658 177.524 21.2762 177.524 19.3301V6.68704C177.524 5.60967 177.375 5.4883 176.626 5.27964C175.55 4.97943 174.891 5.24983 174.891 4.70902C174.891 4.379 175.22 4.31938 176.326 4.31938C176.983 4.31938 177.762 4.31938 178.6 4.34919C179.438 4.34919 180.335 4.379 181.113 4.379C183.238 4.379 186.32 4.25977 187.368 4.25977C187.668 4.25977 187.998 4.34919 187.998 4.55785V8.21366L188 8.21153Z" fill="#0B345A"/>
<path d="M40.2349 63.1444C40.1073 63.0592 39.9202 63.0187 39.6735 63.0187H39.5608L39.5735 62.8143C39.7054 62.7824 39.9648 62.7611 40.354 62.7526C40.4348 62.7526 40.7347 62.7356 41.2536 62.7036C41.2408 62.7739 41.0941 63.2274 40.8198 64.062L40.2923 65.7143C40.2456 65.8931 40.1265 66.2658 39.9351 66.8342L39.1567 69.3403L40.1584 67.9946C40.7432 67.3005 41.0856 66.9066 41.1877 66.8129C41.4365 66.5873 41.6577 66.434 41.8512 66.353C42.0447 66.2721 42.2149 66.2296 42.3616 66.2296C42.5318 66.2296 42.687 66.3105 42.8252 66.4744C43.0017 66.6895 43.0868 66.9428 43.0868 67.2345C43.0868 67.8435 42.9294 68.4801 42.6168 69.138C42.3042 69.7981 41.8725 70.4006 41.3195 70.9436C40.9622 71.2949 40.4391 71.6334 39.7479 71.9571C39.3545 72.1402 39.0376 72.2317 38.7951 72.2317C38.5229 72.2317 38.306 72.1593 38.1508 72.0146C37.9955 71.8698 37.9189 71.6952 37.9189 71.495C37.9189 71.2374 37.9679 70.9372 38.0678 70.5944L38.44 69.2849L39.8096 65.1288C39.9712 64.605 40.1243 64.1536 40.2647 63.7789C40.3221 63.6298 40.3498 63.4999 40.3498 63.3913C40.3498 63.3211 40.3094 63.2402 40.2285 63.1465L40.2349 63.1444ZM39.0908 71.9358C39.2396 71.9358 39.3949 71.8868 39.5544 71.7867C39.8713 71.6036 40.2307 71.2779 40.6305 70.8094C41.0303 70.3389 41.3025 69.9833 41.4493 69.7384C41.7534 69.2253 42.0043 68.7186 42.1979 68.2097C42.3446 67.835 42.419 67.5049 42.419 67.226C42.419 67.094 42.3765 66.9875 42.2893 66.9045C42.2021 66.8215 42.0937 66.781 41.9597 66.781C41.8257 66.781 41.6896 66.8257 41.5365 66.9151C41.2408 67.0919 40.8921 67.424 40.4922 67.9116C39.8564 68.6803 39.4438 69.2211 39.2566 69.5341C39.0695 69.8492 38.9164 70.2069 38.7973 70.6136C38.676 71.0181 38.6165 71.2885 38.6165 71.4248C38.6165 71.5674 38.6612 71.6888 38.7484 71.7867C38.8356 71.8847 38.9483 71.9336 39.0865 71.9336L39.0908 71.9358Z" fill="#0B345A"/>
<path d="M41.8663 74.94C41.9642 75.0464 42.0514 75.1167 42.1237 75.1465C42.1981 75.1763 42.3193 75.1933 42.4937 75.1933C42.7425 75.1933 43.0339 75.1231 43.3678 74.9868C43.7038 74.8484 43.9505 74.7036 44.11 74.5525C44.4099 74.3502 44.7565 74.0244 45.1521 73.5752C45.3626 73.3303 45.5434 73.0194 45.6965 72.6383C45.8496 72.2572 45.9624 71.7781 46.0347 71.199C46.107 70.6177 46.1431 70.1195 46.1431 69.7022C46.1431 69.4594 46.1304 69.0102 46.1091 68.3565C46.0857 67.9115 46.0496 67.6049 45.9985 67.441C45.9496 67.277 45.8858 67.1599 45.805 67.0897C45.7625 67.0513 45.7093 67.0322 45.6434 67.0322C45.537 67.0322 45.4413 67.079 45.3626 67.1727C45.1968 67.375 45.0372 67.7561 44.8777 68.3203L44.8203 68.3352C44.7735 68.3352 44.714 68.3097 44.6438 68.2586C44.8076 67.6433 44.9245 67.26 44.9947 67.111C45.1393 66.8107 45.2669 66.6021 45.3733 66.485C45.4392 66.4147 45.5455 66.3444 45.6965 66.2742C45.771 66.2635 45.8305 66.2593 45.873 66.2593C46.1453 66.2593 46.3622 66.436 46.5259 66.7873C46.7514 67.2749 46.8641 67.9392 46.8641 68.7802C46.8641 69.1614 46.8364 69.634 46.7833 70.1961C46.7301 70.7604 46.6727 71.1756 46.611 71.4438C46.5323 71.825 46.4877 72.0592 46.477 72.1486C46.5004 72.1252 46.5259 72.089 46.5557 72.0443C46.8556 71.5929 47.1129 71.1628 47.3277 70.7497C47.4957 70.441 47.651 70.0684 47.7892 69.6383C47.9274 69.2061 48.0359 68.7632 48.1146 68.3076C48.1614 68.0371 48.1848 67.7369 48.1848 67.4154C48.1848 67.2983 48.1826 67.1983 48.1784 67.1131C48.1677 67.0002 48.1635 66.9321 48.1635 66.9087C48.1635 66.6787 48.2082 66.5041 48.2975 66.3892C48.34 66.3231 48.4208 66.2912 48.542 66.2912C48.6633 66.2912 48.7547 66.3253 48.8121 66.3892C48.8717 66.4552 48.8993 66.5616 48.8993 66.7128C48.8993 66.9385 48.7653 67.4985 48.4995 68.3948C48.1358 69.6319 47.7573 70.59 47.3681 71.265C46.7769 72.2934 46.0963 73.2004 45.3222 73.9882C44.7969 74.5227 44.2525 74.9144 43.6868 75.1614C43.1232 75.4063 42.632 75.5298 42.213 75.5298C41.6515 75.5298 41.2666 75.4595 41.0603 75.3147C40.854 75.172 40.752 75.0273 40.752 74.8825C40.752 74.7888 40.786 74.7079 40.8562 74.6398C40.9263 74.5716 41.0093 74.5376 41.1029 74.5376C41.2347 74.5376 41.3708 74.5716 41.5176 74.644C41.5877 74.6823 41.7026 74.7824 41.8621 74.9464L41.8663 74.94Z" fill="#0B345A"/>
<path d="M59.6576 63.334C59.6959 63.6428 59.7151 63.8216 59.7151 63.8684L59.6853 64.4944C59.6746 64.7627 59.664 64.933 59.6512 65.0076C59.6087 65.0267 59.5747 65.0374 59.5449 65.0374L59.4832 65.0225C59.3322 64.3667 59.0792 63.8876 58.7198 63.5874C58.3603 63.2872 57.9244 63.136 57.4097 63.136C56.8951 63.136 56.4378 63.2851 56.0954 63.5874C55.753 63.8876 55.5829 64.2368 55.5829 64.635C55.5829 64.9394 55.702 65.2184 55.9402 65.4717C56.1805 65.7251 56.7908 66.1041 57.7755 66.6087C58.5262 66.9962 59.06 67.3156 59.3854 67.5605C59.7087 67.8074 59.9532 68.0928 60.117 68.4164C60.2829 68.74 60.3637 69.102 60.3637 69.5001C60.3637 70.0026 60.234 70.4753 59.9745 70.9161C59.7151 71.3568 59.3641 71.6889 58.9239 71.9125C58.4837 72.1361 57.8989 72.2468 57.1736 72.2468C56.542 72.2468 55.9359 72.1446 55.3532 71.9445C55.0108 71.821 54.8024 71.723 54.7279 71.6485C54.6535 71.574 54.6152 71.4952 54.6152 71.41C54.6152 71.3589 54.6195 71.2929 54.628 71.212C54.6939 70.6584 54.7301 70.2028 54.7343 69.8472C54.745 69.6258 54.7599 69.498 54.7832 69.4597C54.8003 69.4277 54.8364 69.4107 54.8875 69.4107C54.93 69.4107 54.964 69.4256 54.9895 69.4576C55.0151 69.4895 55.0321 69.5449 55.0427 69.63C55.0937 70.207 55.3617 70.7223 55.8445 71.1779C56.323 71.6336 56.8632 71.8614 57.4671 71.8614C57.8372 71.8614 58.1775 71.7826 58.4901 71.6293C58.8006 71.4739 59.0451 71.2503 59.2217 70.9565C59.3982 70.6627 59.4854 70.3774 59.4854 70.1006C59.4854 69.7216 59.3514 69.3745 59.0855 69.0594C58.8176 68.7443 58.2817 68.3781 57.4756 67.9586C56.6696 67.5392 56.1443 67.2326 55.8998 67.0409C55.5063 66.7258 55.2107 66.3937 55.0151 66.0423C54.8704 65.7698 54.7981 65.4526 54.7981 65.0906C54.7981 64.4391 55.0555 63.8876 55.5701 63.4341C56.0848 62.9806 56.776 62.7549 57.6436 62.7549C58.1222 62.7549 58.5326 62.8081 58.8814 62.9167C59.1345 63.0019 59.3939 63.1403 59.6619 63.3319L59.6576 63.334Z" fill="#0B345A"/>
<path d="M61.7722 71.7932C61.8382 71.7548 61.8956 71.7357 61.9488 71.7357H62.1104C62.1423 71.7357 62.1997 71.7335 62.2784 71.7293C62.6399 71.6952 62.8526 71.6633 62.9185 71.6313C63.0823 71.5419 63.2227 71.3865 63.3417 71.1672C63.5842 70.6881 63.8585 70.011 64.1648 69.1338C64.3094 68.7165 64.4008 68.4631 64.4391 68.3737C64.5561 68.0926 64.6688 67.7967 64.7751 67.4858L65.4365 65.6356C65.5408 65.346 65.7875 64.6795 66.183 63.6362C66.2808 63.3743 66.3999 63.0209 66.5424 62.5802L66.7487 62.5674L66.9954 62.5738C67.1974 62.9719 67.374 63.402 67.5292 63.8598C67.6143 64.1047 67.7525 64.4688 67.9439 64.9521L69.0115 67.8435L69.5794 69.4127C69.8792 70.3049 70.077 70.8521 70.1706 71.0565C70.2642 71.2609 70.3513 71.395 70.43 71.461C70.4534 71.478 70.5406 71.5078 70.6937 71.5462C70.8447 71.5845 70.9532 71.6122 71.0149 71.6313C71.2297 71.691 71.3785 71.7442 71.4636 71.7846C71.4827 71.8357 71.4934 71.8762 71.4934 71.906C71.4934 71.9294 71.487 71.9635 71.4721 72.0103C71.3232 72.0146 71.2169 72.0167 71.1552 72.0167C70.917 72.0167 70.4938 72.0103 69.8899 71.9954L69.1859 71.9805L68.3352 71.9912C68.2778 71.9912 68.2204 71.9891 68.163 71.9848C68.1034 71.9784 68.0524 71.9763 68.012 71.9763H67.8567C67.8057 71.972 67.7589 71.9571 67.7164 71.9337C67.7164 71.8677 67.727 71.8038 67.7504 71.7442C67.8078 71.7165 67.8567 71.6995 67.9035 71.6952L68.6415 71.6462C68.835 71.6377 68.9796 71.6122 69.0775 71.5696C69.1072 71.4844 69.12 71.4206 69.12 71.3801C69.12 71.2949 69.0604 71.0756 68.9392 70.7243C68.8541 70.4901 68.7797 70.2665 68.718 70.0536C68.6542 69.8428 68.4054 69.1466 67.9716 67.967C67.778 67.9351 67.61 67.918 67.4654 67.918L65.9618 67.9329L65.5195 67.9265C65.36 67.9265 65.1835 67.9393 64.9921 67.9606C64.9304 68.1011 64.89 68.2033 64.8708 68.263L64.252 70.1984C63.9904 70.9351 63.8585 71.3418 63.8585 71.4163C63.8585 71.4589 63.8798 71.5291 63.9223 71.6271C64.0202 71.6548 64.152 71.6803 64.3158 71.7037L65.2707 71.7889C65.3217 71.8315 65.3494 71.8698 65.3494 71.9018C65.3494 71.9252 65.343 71.9592 65.3281 72.0061C65.1175 72.0103 64.9559 72.0125 64.8432 72.0125C64.4689 72.0125 64.0329 71.9997 63.5353 71.9784C63.3056 71.9678 63.1418 71.9635 63.044 71.9635C62.9462 71.9635 62.7739 71.9678 62.5315 71.9784C62.372 71.989 62.2571 71.9933 62.187 71.9933C62.0742 71.9933 61.9296 71.9869 61.751 71.972V71.9294C61.751 71.8975 61.7616 71.8528 61.7808 71.7953L61.7722 71.7932ZM65.1261 67.571C65.628 67.5987 66.2 67.6136 66.8402 67.6136C67.206 67.6136 67.5271 67.6008 67.8036 67.5795C67.7568 67.3964 67.7015 67.226 67.6419 67.0664C67.3378 66.2509 67.1698 65.7995 67.1358 65.7165L66.4978 64.0919L66.4276 63.9663C66.3999 64.0237 66.2957 64.2644 66.1192 64.6923C65.8193 65.4248 65.6024 65.9932 65.4727 66.4021C65.411 66.5852 65.3494 66.7661 65.2834 66.9471C65.2175 67.126 65.1771 67.2537 65.1601 67.3261C65.1431 67.3985 65.1197 67.4709 65.0856 67.5476L65.1282 67.5752L65.1261 67.571Z" fill="#0B345A"/>
<path d="M71.0171 63.0956L71.066 62.9742C71.4446 62.9742 71.8253 62.9785 72.2038 62.9891H72.4356C72.5058 62.9891 72.5845 62.987 72.6674 62.9827C72.9716 62.9699 73.5224 62.9614 74.3199 62.9614C74.4794 62.9614 74.6325 62.9614 74.7835 62.9657C74.9345 62.9699 75.0791 62.9721 75.2195 62.9763C75.2471 62.9912 75.2684 63.0125 75.2833 63.0402L75.2684 63.153C75.2407 63.1999 75.1706 63.2233 75.0578 63.2233H75.0004C74.8686 63.2191 74.6538 63.2297 74.3539 63.2553C74.054 63.2808 73.8563 63.3298 73.7627 63.4C73.7031 63.4511 73.6712 63.5193 73.6712 63.6044C73.6712 63.7875 73.7499 64.0622 73.9031 64.4284L74.9728 66.9111L75.345 67.7351C75.7065 68.608 76.0616 69.5001 76.4147 70.4093C76.453 70.5073 76.487 70.5967 76.5189 70.6776L76.9889 69.5236C77.2313 68.9423 77.478 68.3227 77.7247 67.6648L78.2096 66.3426C78.2202 66.3149 78.2436 66.2212 78.2862 66.0615C78.7392 64.8202 78.9667 64.0345 78.9667 63.7045C78.9667 63.6342 78.9348 63.5619 78.871 63.4895C78.8072 63.4171 78.7051 63.3574 78.5648 63.3106C78.5074 63.2914 78.3245 63.2638 78.0161 63.2254L77.4972 63.1616C77.4546 63.1147 77.4355 63.0743 77.4355 63.0423L77.4568 62.9848L79.7345 62.9635H80.4873C80.7404 62.9635 80.9126 62.9785 81.0062 63.0125L81.0126 63.0679C81.0126 63.1062 80.9998 63.1552 80.9701 63.2169C80.8574 63.2552 80.7553 63.2787 80.6617 63.2872C80.2683 63.334 80.0237 63.3894 79.9301 63.4533C79.8365 63.515 79.7366 63.6513 79.6345 63.8578L77.7907 68.4334C77.2143 69.8067 76.806 70.8713 76.5636 71.6272L76.3594 72.2404C76.2998 72.2787 76.2467 72.2979 76.2063 72.2979C76.1531 72.2979 76.0935 72.2915 76.0297 72.2766C75.4726 70.833 75.0174 69.7173 74.6665 68.9295L72.5143 64.0494C72.3612 63.7599 72.2442 63.5853 72.1655 63.5257C72.0868 63.466 71.8168 63.383 71.3553 63.2765C71.1915 63.2382 71.1001 63.2148 71.0809 63.2063C71.049 63.1829 71.0235 63.1488 71.0107 63.1019L71.0171 63.0956Z" fill="#0B345A"/>
<path d="M82.7138 71.9126C82.7605 71.8722 82.8009 71.8466 82.8329 71.836C82.9115 71.8126 83.0476 71.7934 83.2412 71.7785C83.6963 71.7508 83.977 71.7082 84.0855 71.6529C84.1514 71.5592 84.1833 71.4272 84.1833 71.2568L84.1769 70.765L84.1833 68.9744L84.1684 68.1291L84.1748 66.3597L84.1408 64.3519C84.1365 63.8728 84.1046 63.6024 84.0493 63.5407C83.9643 63.4512 83.7133 63.4001 83.2965 63.3852C83.1178 63.381 82.9605 63.3682 82.8243 63.3427C82.7648 63.3107 82.735 63.2681 82.735 63.217C82.735 63.1787 82.7457 63.1361 82.7691 63.0829C82.8116 63.0595 82.8477 63.0488 82.8818 63.0488C82.9477 63.0488 83.0264 63.051 83.1221 63.0552C83.3986 63.0829 83.6835 63.0978 83.9791 63.0978L84.4981 63.0829L85.7358 63.1106C86.3547 63.1106 86.8374 63.1042 87.1841 63.0893C87.5307 63.0744 87.7647 63.068 87.888 63.068C87.9965 63.068 88.2644 63.0786 88.6898 63.0978L89.6872 63.0914L89.8084 63.1127L90.3911 63.0914L90.4613 63.1255C90.4847 63.1638 90.5017 63.2021 90.5102 63.2447C90.5102 63.3107 90.4996 63.4129 90.4783 63.5492C90.4571 63.6833 90.4464 63.7706 90.4464 63.8026C90.4464 64.2901 90.4634 64.7032 90.4953 65.0417C90.4911 65.0694 90.4783 65.0886 90.4549 65.0971C90.4039 65.0971 90.3571 65.0907 90.3167 65.0758C90.2657 64.9864 90.1955 64.8288 90.1104 64.6053C90.0232 64.3796 89.8935 64.1198 89.7191 63.8239C89.6021 63.628 89.5107 63.5087 89.4448 63.4725C89.3788 63.4342 89.2427 63.4172 89.0364 63.4172C88.9939 63.4172 88.7812 63.4129 88.3963 63.4023C88.2921 63.398 88.1921 63.3959 88.0922 63.3959L86.0888 63.4385H85.9123C85.6529 63.4385 85.4997 63.4704 85.4487 63.5364C85.37 63.6493 85.3296 63.9793 85.3296 64.5286C85.3296 64.5861 85.3402 65.1482 85.3636 66.2171V67.1965C85.4147 67.2093 85.47 67.2178 85.5316 67.2178H85.6507C85.7294 67.2178 85.8485 67.2199 86.0016 67.2242C86.2462 67.2348 86.41 67.2391 86.4929 67.2391C86.5503 67.2391 86.5992 67.2369 86.6418 67.2327C87.1479 67.2135 87.7987 67.205 88.5962 67.205C88.845 67.1624 88.9896 67.1134 89.0322 67.056C89.1024 66.9708 89.1555 66.7515 89.1917 66.3938C89.2257 66.0361 89.3044 65.8359 89.4256 65.7891C89.4873 65.7891 89.5426 65.7997 89.5936 65.8232C89.6043 65.8615 89.6085 65.8956 89.6085 65.9275C89.6085 65.9594 89.6043 66.0148 89.5936 66.0893C89.5702 66.2618 89.5596 66.8068 89.5596 67.7224C89.5596 67.9651 89.5724 68.2377 89.5979 68.5379C89.6234 68.8381 89.6383 68.9999 89.6383 69.0233C89.6383 69.0659 89.6319 69.1213 89.617 69.1915C89.5787 69.2107 89.549 69.2213 89.5256 69.2213H89.4767C89.4022 69.0893 89.3299 68.8849 89.2597 68.6081C89.1385 68.1333 89.0109 67.8374 88.8769 67.7181C88.7429 67.5968 88.526 67.5393 88.2262 67.5393C88.1602 67.5393 88.0411 67.5435 87.8667 67.5499C87.6945 67.5563 87.435 67.5606 87.0926 67.5606H86.6375C85.9867 67.5606 85.5593 67.5755 85.3572 67.6032L85.3509 67.8352L85.3572 69.134L85.3509 69.9516L85.3572 70.748C85.3615 71.227 85.3913 71.5038 85.4487 71.5805C85.5274 71.6848 85.7018 71.7359 85.9676 71.7359L86.3951 71.7295C86.4334 71.7295 86.5801 71.7338 86.8353 71.7402C87.0905 71.7465 87.4053 71.7508 87.7817 71.7508C88.6855 71.7508 89.2874 71.7125 89.5872 71.6358C89.8871 71.5571 90.1338 71.4208 90.3295 71.2228C90.523 71.0248 90.7697 70.5989 91.0632 69.9453C91.1525 69.7515 91.2418 69.6557 91.3311 69.6557C91.3737 69.6557 91.4205 69.6727 91.4715 69.7132C91.3354 70.1773 91.2588 70.4818 91.2397 70.6287C91.1886 70.9566 91.1589 71.293 91.1482 71.6358C91.1482 71.7891 91.11 71.9211 91.0355 72.0233H90.8803L88.9046 72.0446L88.0177 72.0383L85.9081 72.0659H85.051C84.9425 72.0659 84.8426 72.0681 84.749 72.0723C83.9047 72.1106 83.2837 72.1298 82.886 72.1298C82.8158 72.1298 82.7691 72.117 82.7414 72.0957C82.7159 72.0723 82.7031 72.0382 82.7031 71.9935L82.7095 71.9254L82.7138 71.9126Z" fill="#0B345A"/>
<path d="M93.2279 71.7932C93.3321 71.7506 93.4363 71.725 93.5448 71.7165C94.2615 71.6697 94.6719 71.5845 94.774 71.4589C94.8782 71.3332 94.9271 70.7328 94.9271 69.6512L94.9207 68.9124V68.1373L94.891 67.2835L94.9058 66.7832L94.8995 66.2338V65.5866L94.8846 65.297L94.8995 64.9308C94.9037 64.8456 94.9058 64.7477 94.9058 64.6348C94.9058 64.3389 94.891 64.0259 94.8633 63.698C94.8442 63.632 94.8187 63.5681 94.7868 63.5085C94.6145 63.4191 94.3338 63.3594 93.9467 63.3296C93.5596 63.2998 93.3406 63.2658 93.2896 63.2274C93.2513 63.1976 93.23 63.1252 93.2258 63.0103H93.817L95.6821 63.0528C96.1606 63.0528 96.7986 63.0379 97.5961 63.0103C97.5961 63.0848 97.5919 63.155 97.5812 63.221C97.4877 63.2445 97.3303 63.27 97.1112 63.2977C96.6668 63.3488 96.3945 63.3999 96.2946 63.4467C96.235 63.4702 96.1904 63.5085 96.1606 63.566C96.1138 63.6511 96.0862 63.8087 96.0755 64.0387L96.0415 64.9478L96.0692 68.082V69.3212C96.0606 69.7108 96.0564 69.9748 96.0564 70.1175C96.0564 70.6434 96.0691 70.9798 96.0947 71.1246C96.1202 71.2694 96.1649 71.3737 96.2287 71.4376C96.2903 71.5015 96.3967 71.5525 96.5413 71.5887C96.7561 71.6398 96.9262 71.6675 97.0474 71.6739C97.309 71.6846 97.4749 71.7208 97.5472 71.7868C97.56 71.8485 97.5685 71.8996 97.5685 71.9422V71.9976C97.141 72.0125 96.8263 72.0188 96.6242 72.0188C96.5072 72.0188 96.2988 72.0125 95.999 71.9976L95.0271 72.0125L93.3725 72.0061H93.2385L93.2236 71.7953L93.2279 71.7932Z" fill="#0B345A"/>
<path d="M99.5035 63.4125L99.4971 63.0739C100.222 63.0739 100.754 63.0569 101.092 63.0164C101.224 63.0037 101.313 62.9951 101.364 62.9951C101.407 62.9951 101.471 62.9973 101.554 63.0015C101.751 63.1655 101.932 63.3528 102.102 63.5636C102.141 63.6062 102.181 63.6531 102.228 63.7042L103.71 65.3436L103.921 65.597C104.22 65.9483 104.493 66.2485 104.739 66.4977C104.986 66.7468 105.465 67.2663 106.177 68.0541L107.857 69.9193C108.021 70.1002 108.231 70.3281 108.489 70.6006L108.495 70.4877C108.467 69.8362 108.453 69.4892 108.453 69.453L108.48 69.0314L108.467 68.3692V68.0669C108.467 67.8731 108.45 67.2812 108.419 66.2869C108.414 66.1506 108.395 65.8951 108.361 65.5161C108.329 65.1371 108.312 64.8071 108.312 64.5196C108.312 64.0044 108.282 63.7042 108.221 63.619C108.178 63.5572 107.98 63.4955 107.623 63.4295C107.538 63.4252 107.408 63.4125 107.23 63.3869C107.019 63.3763 106.894 63.3656 106.858 63.3528C106.821 63.3401 106.783 63.2996 106.745 63.2336C106.755 63.157 106.775 63.0888 106.807 63.0207C106.934 62.9824 107.057 62.9653 107.179 62.9653C107.311 62.9653 107.472 62.9802 107.668 63.0143C107.861 63.0484 108.036 63.0633 108.191 63.0633C108.406 63.0633 108.742 63.0505 109.197 63.0207C109.454 63.0037 109.633 62.993 109.731 62.993H109.85L109.835 63.2102C109.761 63.2421 109.656 63.2634 109.527 63.2698C109.395 63.2762 109.273 63.2954 109.161 63.3294C108.993 63.3805 108.891 63.4252 108.859 63.4636C108.746 63.5871 108.691 63.7106 108.691 63.8362L108.767 66.059L108.825 67.0789L108.818 67.3749L108.861 68.7887C108.889 69.7553 108.903 70.5942 108.903 71.3075C108.903 71.4608 108.893 71.7972 108.874 72.3146L108.546 72.3423C108.382 72.1549 107.817 71.563 106.851 70.5687C106.626 70.3387 106.475 70.1769 106.394 70.0832L105.79 69.387C105.556 69.1293 105.403 68.9633 105.333 68.8951C105.263 68.8249 105.212 68.7737 105.18 68.7397C104.667 68.1584 104.006 67.4302 103.189 66.5594C102.968 66.3252 102.647 65.959 102.219 65.4607C101.951 65.1456 101.783 64.954 101.713 64.8837C101.643 64.8135 101.547 64.7326 101.426 64.6431L101.405 64.8837C101.405 65.7993 101.428 67.0619 101.475 68.6694L101.524 70.9988C101.528 71.1968 101.539 71.3863 101.558 71.5694L101.802 71.6269C102.247 71.6694 102.685 71.7312 103.117 71.8164C103.151 71.8462 103.178 71.8653 103.202 71.8802L103.195 72.1485C103.119 72.1719 103.059 72.1826 103.012 72.1826C102.961 72.1826 102.898 72.1783 102.823 72.1677C102.36 72.1293 101.794 72.1123 101.13 72.1123C100.66 72.1123 100.25 72.123 99.8926 72.1464L99.7948 72.1528C99.7523 72.1528 99.6906 72.1485 99.6119 72.1379L99.6055 71.9271L99.7884 71.8419L100.12 71.7929C100.416 71.7504 100.631 71.7035 100.767 71.6524C100.856 71.6205 100.928 71.5715 100.984 71.5055C101.035 71.1819 101.06 70.707 101.06 70.0832C101.06 69.7915 101.054 69.2592 101.039 68.4863V67.5303L101.024 65.531C101.013 64.641 100.984 64.113 100.933 63.9554C100.905 63.8702 100.845 63.7957 100.756 63.7297C100.577 63.6041 100.343 63.5232 100.056 63.4912C99.7693 63.4572 99.5821 63.4295 99.4971 63.4061L99.5035 63.4125Z" fill="#0B345A"/>
<path d="M111.67 63.0956L111.719 62.9742C112.098 62.9742 112.479 62.9785 112.857 62.9891H113.089C113.159 62.9891 113.238 62.987 113.321 62.9827C113.625 62.9699 114.176 62.9614 114.973 62.9614C115.133 62.9614 115.286 62.9614 115.437 62.9657C115.588 62.9699 115.732 62.9721 115.873 62.9763C115.9 62.9912 115.922 63.0125 115.937 63.0402L115.922 63.153C115.894 63.1999 115.824 63.2233 115.711 63.2233H115.654C115.522 63.2191 115.307 63.2297 115.007 63.2553C114.707 63.2808 114.51 63.3298 114.416 63.4C114.356 63.4511 114.325 63.5193 114.325 63.6044C114.325 63.7875 114.403 64.0622 114.556 64.4284L115.626 66.9111L115.998 67.7351C116.36 68.608 116.715 69.5001 117.068 70.4093C117.106 70.5073 117.14 70.5967 117.172 70.6776L117.642 69.5236C117.885 68.9423 118.131 68.3227 118.378 67.6648L118.863 66.3426C118.874 66.3149 118.897 66.2212 118.939 66.0615C119.392 64.8202 119.62 64.0345 119.62 63.7045C119.62 63.6342 119.588 63.5619 119.524 63.4895C119.461 63.4171 119.358 63.3574 119.218 63.3106C119.161 63.2914 118.978 63.2638 118.669 63.2254L118.15 63.1616C118.108 63.1147 118.089 63.0743 118.089 63.0423L118.11 62.9848L120.388 62.9635H121.141C121.394 62.9635 121.566 62.9785 121.66 63.0125L121.666 63.0679C121.666 63.1062 121.653 63.1552 121.623 63.2169C121.511 63.2552 121.409 63.2787 121.315 63.2872C120.922 63.334 120.677 63.3894 120.583 63.4533C120.49 63.515 120.39 63.6513 120.288 63.8578L118.444 68.4334C117.868 69.8067 117.459 70.8713 117.217 71.6272L117.013 72.2404C116.953 72.2787 116.9 72.2979 116.86 72.2979C116.806 72.2979 116.747 72.2915 116.683 72.2766C116.126 70.833 115.671 69.7173 115.32 68.9295L113.168 64.0494C113.015 63.7599 112.898 63.5853 112.819 63.5257C112.74 63.466 112.47 63.383 112.009 63.2765C111.845 63.2382 111.753 63.2148 111.734 63.2063C111.702 63.1829 111.677 63.1488 111.664 63.1019L111.67 63.0956Z" fill="#0B345A"/>
<path d="M123.367 71.9126C123.414 71.8722 123.454 71.8466 123.486 71.836C123.565 71.8126 123.701 71.7934 123.895 71.7785C124.35 71.7508 124.63 71.7082 124.739 71.6529C124.805 71.5592 124.837 71.4272 124.837 71.2568L124.83 70.765L124.837 68.9744L124.822 68.1291L124.828 66.3597L124.794 64.3519C124.79 63.8728 124.758 63.6024 124.703 63.5407C124.618 63.4512 124.367 63.4001 123.95 63.3852C123.771 63.381 123.614 63.3682 123.478 63.3427C123.418 63.3107 123.388 63.2681 123.388 63.217C123.388 63.1787 123.399 63.1361 123.422 63.0829C123.465 63.0595 123.501 63.0488 123.535 63.0488C123.601 63.0488 123.68 63.051 123.775 63.0552C124.052 63.0829 124.337 63.0978 124.632 63.0978L125.151 63.0829L126.389 63.1106C127.008 63.1106 127.491 63.1042 127.837 63.0893C128.184 63.0744 128.418 63.068 128.541 63.068C128.65 63.068 128.918 63.0786 129.343 63.0978L130.341 63.0914L130.462 63.1127L131.044 63.0914L131.115 63.1255C131.138 63.1638 131.155 63.2021 131.164 63.2447C131.164 63.3107 131.153 63.4129 131.132 63.5492C131.11 63.6833 131.1 63.7706 131.1 63.8026C131.1 64.2901 131.117 64.7032 131.149 65.0417C131.144 65.0694 131.132 65.0886 131.108 65.0971C131.057 65.0971 131.01 65.0907 130.97 65.0758C130.919 64.9864 130.849 64.8288 130.764 64.6053C130.677 64.3796 130.547 64.1198 130.372 63.8239C130.255 63.628 130.164 63.5087 130.098 63.4725C130.032 63.4342 129.896 63.4172 129.69 63.4172C129.647 63.4172 129.435 63.4129 129.05 63.4023C128.945 63.398 128.845 63.3959 128.746 63.3959L126.742 63.4385H126.566C126.306 63.4385 126.153 63.4704 126.102 63.5364C126.023 63.6493 125.983 63.9793 125.983 64.5286C125.983 64.5861 125.994 65.1482 126.017 66.2171V67.1965C126.068 67.2093 126.123 67.2178 126.185 67.2178H126.304C126.383 67.2178 126.502 67.2199 126.655 67.2242C126.9 67.2348 127.063 67.2391 127.146 67.2391C127.204 67.2391 127.253 67.2369 127.295 67.2327C127.801 67.2135 128.452 67.205 129.25 67.205C129.498 67.1624 129.643 67.1134 129.686 67.056C129.756 66.9708 129.809 66.7515 129.845 66.3938C129.879 66.0361 129.958 65.8359 130.079 65.7891C130.141 65.7891 130.196 65.7997 130.247 65.8232C130.258 65.8615 130.262 65.8956 130.262 65.9275C130.262 65.9594 130.258 66.0148 130.247 66.0893C130.224 66.2618 130.213 66.8068 130.213 67.7224C130.213 67.9651 130.226 68.2377 130.251 68.5379C130.277 68.8381 130.292 68.9999 130.292 69.0233C130.292 69.0659 130.285 69.1213 130.27 69.1915C130.232 69.2107 130.202 69.2213 130.179 69.2213H130.13C130.056 69.0893 129.983 68.8849 129.913 68.6081C129.792 68.1333 129.664 67.8374 129.53 67.7181C129.396 67.5968 129.179 67.5393 128.88 67.5393C128.814 67.5393 128.694 67.5435 128.52 67.5499C128.348 67.5563 128.088 67.5606 127.746 67.5606H127.291C126.64 67.5606 126.213 67.5755 126.011 67.6032L126.004 67.8352L126.011 69.134L126.004 69.9516L126.011 70.748C126.015 71.227 126.045 71.5038 126.102 71.5805C126.181 71.6848 126.355 71.7359 126.621 71.7359L127.048 71.7295C127.087 71.7295 127.233 71.7338 127.489 71.7402C127.744 71.7465 128.059 71.7508 128.435 71.7508C129.339 71.7508 129.941 71.7125 130.241 71.6358C130.54 71.5571 130.787 71.4208 130.983 71.2228C131.176 71.0248 131.423 70.5989 131.717 69.9453C131.806 69.7515 131.895 69.6557 131.984 69.6557C132.027 69.6557 132.074 69.6727 132.125 69.7132C131.989 70.1773 131.912 70.4818 131.893 70.6287C131.842 70.9566 131.812 71.293 131.802 71.6358C131.802 71.7891 131.763 71.9211 131.689 72.0233H131.534L129.558 72.0446L128.671 72.0383L126.561 72.0659H125.704C125.596 72.0659 125.496 72.0681 125.402 72.0723C124.558 72.1106 123.937 72.1298 123.539 72.1298C123.469 72.1298 123.422 72.117 123.395 72.0957C123.369 72.0723 123.356 72.0382 123.356 71.9935L123.363 71.9254L123.367 71.9126Z" fill="#0B345A"/>
<path d="M139.148 63.334C139.186 63.6428 139.205 63.8216 139.205 63.8684L139.175 64.4944C139.165 64.7627 139.154 64.933 139.141 65.0076C139.099 65.0267 139.065 65.0374 139.035 65.0374L138.973 65.0225C138.822 64.3667 138.569 63.8876 138.21 63.5874C137.851 63.2872 137.415 63.136 136.9 63.136C136.385 63.136 135.928 63.2851 135.586 63.5874C135.243 63.8876 135.073 64.2368 135.073 64.635C135.073 64.9394 135.192 65.2184 135.43 65.4717C135.671 65.7251 136.281 66.1041 137.266 66.6087C138.016 66.9962 138.55 67.3156 138.876 67.5605C139.199 67.8074 139.443 68.0928 139.607 68.4164C139.773 68.74 139.854 69.102 139.854 69.5001C139.854 70.0026 139.724 70.4753 139.465 70.9161C139.205 71.3568 138.854 71.6889 138.414 71.9125C137.974 72.1361 137.389 72.2468 136.664 72.2468C136.032 72.2468 135.426 72.1446 134.843 71.9445C134.501 71.821 134.293 71.723 134.218 71.6485C134.144 71.574 134.105 71.4952 134.105 71.41C134.105 71.3589 134.11 71.2929 134.118 71.212C134.184 70.6584 134.22 70.2028 134.225 69.8472C134.235 69.6258 134.25 69.498 134.273 69.4597C134.29 69.4277 134.327 69.4107 134.378 69.4107C134.42 69.4107 134.454 69.4256 134.48 69.4576C134.505 69.4895 134.522 69.5449 134.533 69.63C134.584 70.207 134.852 70.7223 135.335 71.1779C135.813 71.6336 136.353 71.8614 136.957 71.8614C137.327 71.8614 137.668 71.7826 137.98 71.6293C138.291 71.4739 138.535 71.2503 138.712 70.9565C138.888 70.6627 138.976 70.3774 138.976 70.1006C138.976 69.7216 138.842 69.3745 138.576 69.0594C138.308 68.7443 137.772 68.3781 136.966 67.9586C136.16 67.5392 135.635 67.2326 135.39 67.0409C134.997 66.7258 134.701 66.3937 134.505 66.0423C134.361 65.7698 134.288 65.4526 134.288 65.0906C134.288 64.4391 134.546 63.8876 135.06 63.4341C135.575 62.9806 136.266 62.7549 137.134 62.7549C137.612 62.7549 138.023 62.8081 138.372 62.9167C138.625 63.0019 138.884 63.1403 139.152 63.3319L139.148 63.334Z" fill="#0B345A"/>
<path d="M141.663 64.0663L141.952 63.0038C141.969 62.8633 141.997 62.7718 142.029 62.7335C142.061 62.6951 142.099 62.6738 142.142 62.6738C142.227 62.6738 142.322 62.776 142.431 62.9762C142.509 63.121 142.575 63.2147 142.626 63.2551C142.678 63.2956 142.752 63.3232 142.852 63.336L142.922 63.3296L143.224 63.3594L144.883 63.3807L146.844 63.3743H147.42L148.511 63.353C148.558 63.353 148.615 63.3573 148.688 63.3658C149.004 63.3935 149.202 63.4084 149.277 63.4084C149.347 63.4084 149.402 63.385 149.445 63.3381C149.46 63.3211 149.536 63.1657 149.676 62.874C149.738 62.742 149.813 62.676 149.902 62.676C149.94 62.676 149.987 62.6866 150.042 62.7058C150.066 62.7995 150.076 62.8825 150.076 62.957L150.07 63.2359L150.076 63.83C150.076 63.9726 150.064 64.4389 150.042 65.2267C150.042 65.2778 150.032 65.3247 150.012 65.3673C149.961 65.3992 149.917 65.4162 149.878 65.4162C149.84 65.4162 149.808 65.3992 149.781 65.3651C149.751 65.3311 149.717 65.2225 149.674 65.0415C149.581 64.622 149.464 64.3218 149.323 64.1408C149.23 64.0237 149.094 63.9407 148.919 63.8896C148.743 63.8385 148.324 63.813 147.658 63.813H146.469C146.459 64.0003 146.455 64.1728 146.455 64.3261L146.512 68.6994C146.512 68.8719 146.501 69.2019 146.484 69.6852L146.491 70.6221L146.484 71.1416C146.484 71.3077 146.512 71.4227 146.569 71.4951C146.625 71.5653 146.778 71.6335 147.024 71.6995C147.456 71.808 147.743 71.8719 147.89 71.8975C147.977 71.9081 148.052 71.9252 148.107 71.955V72.1658L147.107 72.1402C146.559 72.1359 146.146 72.1253 145.87 72.1083L144.845 72.1572L144.092 72.1998C143.881 72.1998 143.751 72.1956 143.705 72.1849L143.607 72.1423C143.618 72.0359 143.637 71.9656 143.671 71.9358C143.703 71.906 143.79 71.8804 143.93 71.8613C144.126 71.8315 144.358 71.7825 144.626 71.7101C144.894 71.6377 145.068 71.5632 145.153 71.4887C145.2 71.4461 145.232 71.3758 145.251 71.2779C145.293 71.0714 145.312 70.6647 145.312 70.06V68.8634L145.285 66.253L145.255 65.6909L145.249 63.813H144.115C143.441 63.813 143.031 63.8534 142.886 63.9364C142.656 64.0621 142.314 64.4368 141.861 65.0564C141.71 65.2885 141.58 65.4034 141.467 65.4034L141.404 65.3907C141.384 65.3609 141.376 65.3374 141.376 65.314C141.376 65.2565 141.414 65.0883 141.489 64.8073C141.582 64.4453 141.64 64.2026 141.657 64.0748L141.663 64.0663Z" fill="#0B345A"/>
<path d="M61.819 46.9967L59.4456 43.6134C59.1521 43.6347 58.9203 43.6454 58.7544 43.6454H56.0365V46.9967H54.4648V35.9824H58.7565C60.1814 35.9824 61.3022 36.3231 62.121 37.0044C62.9376 37.6858 63.3459 38.6247 63.3459 39.8213C63.3459 40.6709 63.1354 41.3948 62.7164 41.9931C62.2975 42.5914 61.6999 43.0258 60.9257 43.2983L63.5352 46.9967H61.8211H61.819ZM60.9853 41.6631C61.5106 41.233 61.7722 40.6198 61.7722 39.8213C61.7722 39.0229 61.5106 38.4118 60.9853 37.9881C60.4621 37.5623 59.7029 37.3494 58.7055 37.3494H56.0343V42.3061H58.7055C59.7008 42.3061 60.4621 42.091 60.9853 41.661V41.6631Z" fill="#0B345A"/>
<path d="M76.8616 45.6276V46.9967H68.8779V35.9824H76.6425V37.3515H70.4496V40.7348H75.9662V42.0719H70.4496V45.6276H76.8616Z" fill="#0B345A"/>
<path d="M83.3326 46.7371C82.5628 46.4816 81.9588 46.1473 81.5186 45.7385L82.0991 44.5121C82.5181 44.8889 83.0562 45.1977 83.7112 45.4319C84.3662 45.6661 85.0382 45.7853 85.7315 45.7853C86.6439 45.7853 87.3244 45.632 87.7753 45.3212C88.2262 45.0124 88.4516 44.6015 88.4516 44.0862C88.4516 43.7094 88.3282 43.4006 88.0815 43.1664C87.8348 42.9322 87.5329 42.7491 87.1713 42.6235C86.8098 42.4979 86.2994 42.3552 85.638 42.1977C84.8107 41.9996 84.1408 41.7995 83.6346 41.5994C83.1263 41.4013 82.6904 41.0926 82.3288 40.6795C81.9673 40.2665 81.7865 39.7065 81.7865 39.0039C81.7865 38.4162 81.9396 37.886 82.2501 37.4155C82.5585 36.9428 83.0285 36.566 83.6559 36.2828C84.2854 35.9996 85.0659 35.8569 85.9974 35.8569C86.646 35.8569 87.2862 35.94 87.9157 36.1082C88.5452 36.2764 89.0832 36.517 89.5341 36.8321L89.0152 38.0905C88.5537 37.7966 88.0603 37.5731 87.5371 37.4219C87.0118 37.2707 86.4993 37.1941 85.9974 37.1941C85.1063 37.1941 84.4385 37.3559 83.994 37.6816C83.5496 38.0074 83.3262 38.4269 83.3262 38.94C83.3262 39.319 83.4517 39.6256 83.7048 39.8598C83.9557 40.0962 84.2662 40.2793 84.6405 40.4113C85.0127 40.5433 85.5189 40.6817 86.1569 40.8286C86.9842 41.0287 87.6498 41.2267 88.1517 41.4269C88.6557 41.6249 89.0875 41.9294 89.449 42.3382C89.8105 42.747 89.9913 43.2984 89.9913 43.9904C89.9913 44.5674 89.8339 45.0955 89.5192 45.5724C89.2044 46.0494 88.7281 46.4283 88.0879 46.7051C87.4499 46.9841 86.663 47.1225 85.7315 47.1225C84.9043 47.1225 84.1046 46.9947 83.3348 46.7371H83.3326Z" fill="#0B345A"/>
<path d="M97.3095 46.3899C96.4184 45.9023 95.7208 45.2273 95.2125 44.3672C94.7043 43.507 94.4512 42.5467 94.4512 41.4864C94.4512 40.426 94.7043 39.4679 95.2125 38.6077C95.7208 37.7475 96.4205 37.0747 97.3095 36.585C98.2005 36.0974 99.2001 35.8525 100.312 35.8525C101.425 35.8525 102.407 36.0953 103.298 36.585C104.189 37.0726 104.885 37.7454 105.389 38.5992C105.891 39.4551 106.144 40.4175 106.144 41.4864C106.144 42.5552 105.893 43.5197 105.389 44.3735C104.887 45.2273 104.189 45.9002 103.298 46.3878C102.407 46.8753 101.412 47.1202 100.312 47.1202C99.2128 47.1202 98.2027 46.8753 97.3095 46.3878V46.3899ZM102.488 45.1699C103.132 44.8015 103.641 44.2969 104.013 43.6518C104.385 43.0066 104.57 42.2848 104.57 41.4885C104.57 40.6922 104.385 39.9704 104.013 39.3252C103.641 38.6801 103.132 38.1734 102.488 37.8071C101.844 37.4388 101.118 37.2557 100.31 37.2557C99.5021 37.2557 98.7726 37.4388 98.1176 37.8071C97.4626 38.1755 96.95 38.6801 96.5779 39.3252C96.2057 39.9704 96.0207 40.6922 96.0207 41.4885C96.0207 42.2848 96.2078 43.0066 96.5779 43.6518C96.95 44.2969 97.4647 44.8036 98.1176 45.1699C98.7705 45.5361 99.5021 45.7192 100.31 45.7192C101.118 45.7192 101.844 45.5361 102.488 45.1699Z" fill="#0B345A"/>
<path d="M118.902 46.9967L116.529 43.6134C116.235 43.6347 116.003 43.6454 115.837 43.6454H113.119V46.9967H111.548V35.9824H115.84C117.264 35.9824 118.385 36.3231 119.204 37.0044C120.021 37.6858 120.429 38.6247 120.429 39.8213C120.429 40.6709 120.218 41.3948 119.799 41.9931C119.38 42.5914 118.783 43.0258 118.009 43.2983L120.618 46.9967H118.904H118.902ZM118.068 41.6631C118.594 41.233 118.855 40.6198 118.855 39.8213C118.855 39.0229 118.594 38.4118 118.068 37.9881C117.545 37.5623 116.786 37.3494 115.788 37.3494H113.117V42.3061H115.788C116.784 42.3061 117.545 42.091 118.068 41.661V41.6631Z" fill="#0B345A"/>
<path d="M128.21 37.3495H124.438V35.9805H133.538V37.3495H129.765V46.9947H128.208V37.3495H128.21Z" fill="#0B345A"/>
</g>
<defs>
<clipPath id="clip0_434_13954">
<rect width="188" height="75.598" fill="white"/>
</clipPath>
</defs>
</svg>
