<svg xmlns="http://www.w3.org/2000/svg" xmlns:xlink="http://www.w3.org/1999/xlink" width="768" height="486" viewBox="0 0 768 486">
  <defs>
    <clipPath id="clip-path">
      <rect id="Rectangle_4092" data-name="Rectangle 4092" width="768" height="486" transform="translate(0 61)" fill="#fff" stroke="#707070" stroke-width="1"/>
    </clipPath>
    <clipPath id="clip-path-2">
      <rect id="Rectangle_4091" data-name="Rectangle 4091" width="768" height="486" transform="translate(-192 61)" fill="rgba(255,255,255,0)" stroke="#707070" stroke-width="1"/>
    </clipPath>
  </defs>
  <g id="Mask_Group_1091" data-name="Mask Group 1091" transform="translate(0 -61)" clip-path="url(#clip-path)">
    <g id="strefy" transform="translate(192)" clip-path="url(#clip-path-2)">
      <g id="strefy-2" data-name="strefy">
        <g id="strefa1" transform="translate(0 -54)">
          <g id="_1" data-name="1" transform="translate(1.764 434.74)">
            <path id="Path_2509" data-name="Path 2509" d="M28.288,292.177,2.739,298.536,0,300.955l2.741-2.418,25.547-6.359,13.99,11.234h0Zm-.165.749L3.069,299.162l-2.062,1.82,10.276,10.09L40.8,303.1Z" transform="translate(0 -292.177)" fill="rgba(49,67,229,0.8)"/>
            <path id="Path_3133" data-name="Path 3133" d="M-16573.211-10084.946l-2.193,2.462,10.742,9.907,29.58-8.265-12.973-10.564Z" transform="translate(16576.248 10091.727)" fill="rgba(49,67,229,0.8)"/>
          </g>
          <g id="_2" data-name="2" transform="translate(31.589 427.793)">
            <path id="Path_2500" data-name="Path 2500" d="M158.73,263.372l-24.771,6.32,13.332,10.615,25.736-7.161Z" transform="translate(-133.203 -263.001)" fill="rgba(49,67,229,0.8)"/>
            <path id="Path_2534" data-name="Path 2534" d="M156.239,261.748l-25.591,6.528,14.009,11.155,26.616-7.406Zm-24.836,6.69,24.771-6.32,14.3,9.774-25.736,7.161Zm-.755-.163h0Z" transform="translate(-130.646 -261.748)" fill="rgba(49,67,229,0.8)"/>
          </g>
          <g id="_3" data-name="3" transform="translate(58.52 421.771)">
            <path id="Path_2510" data-name="Path 2510" d="M271.125,238.6l-20.888,5.3,13.332,9.331,21.422-5.775Zm-22.508,5.009h0l14.822,10.374,1.546-.416.165-.046-1.712.461-14.82-10.373" transform="translate(-248.617 -237.861)" fill="rgba(49,67,229,0.8)"/>
            <path id="Path_2557" data-name="Path 2557" d="M271.245,235.369l-22.628,5.746,14.821,10.373,1.712-.461,21.334-5.92Zm-7.676,15.373-13.332-9.331,20.888-5.3,13.867,8.861Z" transform="translate(-248.617 -235.369)" fill="rgba(49,67,229,0.8)"/>
          </g>
          <g id="_4" data-name="4" transform="translate(82.797 416.367)">
            <path id="Path_2512" data-name="Path 2512" d="M374.971,211.695h0l6.595,3.781Zm-.1.734-18.228,4.735,13.081,8.513,19.22-5.18Zm-19.907,4.463h0l14.643,9.528,15.705-4.233.063-.018-15.769,4.25-14.642-9.528" transform="translate(-354.964 -211.695)" fill="rgba(49,67,229,0.8)"/>
            <path id="Path_2561" data-name="Path 2561" d="M374.971,211.695l-20.007,5.2,14.643,9.528,15.769-4.25,5.3-1.471-9.11-5.223-6.6-3.781m-5.246,13.982-13.081-8.513,18.228-4.735,14.073,8.068Z" transform="translate(-354.964 -211.695)" fill="rgba(49,67,229,0.8)"/>
          </g>
          <g id="_5" data-name="5" transform="translate(104.208 411.251)">
            <path id="Path_2514" data-name="Path 2514" d="M473.3,192.48l-16.633,4.26,13.878,7.967,17.363-4.776Zm16.5,7.644-9.672,2.66,9.673-2.66Z" transform="translate(-454.858 -191.751)" fill="rgba(49,67,229,0.8)"/>
            <path id="Path_2564" data-name="Path 2564" d="M467.271,189.285l-18.521,4.743,15.592,8.95,9.673-2.66,9.672-2.66Zm-2.835,12.956-13.879-7.967,16.633-4.26,14.609,7.451Z" transform="translate(-448.75 -189.285)" fill="rgba(49,67,229,0.8)"/>
          </g>
          <g id="_6" data-name="6" transform="translate(124.234 406.542)">
            <path id="Path_2515" data-name="Path 2515" d="M553.571,171.851,538.4,175.833l14.239,7.218,15.368-4.179Zm-17.094,3.777h0l16.087,8.155,17.388-4.728-17.388,4.728Z" transform="translate(-536.477 -171.122)" fill="rgba(49,67,229,0.8)"/>
            <path id="Path_2566" data-name="Path 2566" d="M553.645,168.659l-17.165,4.505,16.086,8.155,17.388-4.728Zm-1,11.928L538.4,173.369l15.171-3.982,14.435,7.021Z" transform="translate(-536.479 -168.659)" fill="rgba(49,67,229,0.8)"/>
          </g>
          <g id="_7" data-name="7" transform="translate(142.825 401.909)">
            <path id="Path_2501" data-name="Path 2501" d="M634.539,148.364l-16.626,4.266h0l16.626-4.266Zm-.063.725-14.591,3.743,14.175,6.948,14.652-4.23Z" transform="translate(-617.913 -148.364)" fill="rgba(49,67,229,0.8)"/>
            <path id="Path_2537" data-name="Path 2537" d="M634.542,148.364l-16.626,4.266L634,160.514l16.693-4.82-16.15-7.329m-.478,11.416-14.175-6.948,14.591-3.743,14.237,6.461Z" transform="translate(-617.916 -148.364)" fill="rgba(49,67,229,0.8)"/>
          </g>
          <g id="_8" data-name="8" transform="translate(159.663 409.991)">
            <path id="Path_2506" data-name="Path 2506" d="M714.363,186.045l-14.412,4.3,21.934,10.546,17.625-4.324Z" transform="translate(-698.06 -185.525)" fill="rgba(49,67,229,0.8)"/>
            <path id="Path_2548" data-name="Path 2548" d="M708.508,183.767l-16.839,4.673,23.749,11.418L735.3,194.98Zm6.985,15.366L693.56,188.587l14.413-4.3,25.146,10.523Z" transform="translate(-691.669 -183.767)" fill="rgba(49,67,229,0.8)"/>
          </g>
          <g id="_9" data-name="9" transform="translate(141.386 415.088)">
            <path id="Path_2471" data-name="Path 2471" d="M634.8,209.3l-15.076,4.281,20.95,10.875,15.939-4.477Z" transform="translate(-617.868 -208.569)" fill="rgba(49,67,229,0.8)"/>
            <path id="Path_2472" data-name="Path 2472" d="M628.6,206.092l-16.994,4.826,22.727,11.8,17.932-5.036Zm5.808,15.889-20.951-10.875,15.077-4.281,21.813,10.68Z" transform="translate(-611.607 -206.092)" fill="rgba(49,67,229,0.8)"/>
          </g>
          <g id="_10" data-name="10" transform="translate(120.613 420.399)">
            <path id="Path_2505" data-name="Path 2505" d="M539.811,229.357l-19.2,5.2,19.2-5.2,22.949,11.8h0Zm-.078.733-17.323,4.694,20.645,11.634,17.884-5.428Z" transform="translate(-520.614 -229.357)" fill="rgba(49,67,229,0.8)"/>
            <path id="Path_2545" data-name="Path 2545" d="M539.811,229.365l-19.2,5.2,22.36,12.6,19.786-6.006Zm3.245,17.06-20.645-11.634,17.323-4.694L560.94,241Z" transform="translate(-520.614 -229.363)" fill="rgba(49,67,229,0.8)"/>
          </g>
          <g id="_11" data-name="11" transform="translate(98.924 426.085)">
            <path id="Path_2504" data-name="Path 2504" d="M445.761,257.486l-18.468,5.058,19.17,12.082,20.01-5.644Zm-8.426,1.6-11.726,3.211Zm30.929,10.108-21.908,6.179,21.908-6.179" transform="translate(-425.608 -256.751)" fill="rgba(49,67,229,0.8)"/>
            <path id="Path_2543" data-name="Path 2543" d="M445.849,254.266l-8.514,2.332-11.726,3.212,20.747,13.075,21.908-6.179Zm.614,17.875-19.17-12.081L445.761,255l20.712,11.5Z" transform="translate(-425.609 -254.266)" fill="rgba(49,67,229,0.8)"/>
          </g>
          <g id="_12" data-name="12" transform="translate(74.178 432.243)">
            <path id="Path_2473" data-name="Path 2473" d="M345.553,284.483l-21.329,5.788,18.573,12.9,22.368-6.608Z" transform="translate(-322.623 -283.742)" fill="rgba(49,67,229,0.8)"/>
            <path id="Path_2474" data-name="Path 2474" d="M340.246,281.239l-23.037,6.252,20.053,13.929,24.159-7.137Zm-2.863,19.429-18.573-12.9,21.329-5.788,19.612,12.081Z" transform="translate(-317.209 -281.239)" fill="rgba(49,67,229,0.8)"/>
          </g>
          <g id="_13" data-name="13" transform="translate(46.822 438.845)">
            <path id="Path_2469" data-name="Path 2469" d="M228.217,313.438l-24.547,6.877,16.047,13.474,26.628-7.652Z" transform="translate(-202.233 -312.69)" fill="rgba(49,67,229,0.8)"/>
            <path id="Path_2470" data-name="Path 2470" d="M223.487,310.159l-26.111,7.315L214.7,332.02l28.361-8.152Zm-8.628,21.1-16.046-13.474,24.546-6.877,18.128,12.7Z" transform="translate(-197.376 -310.159)" fill="rgba(49,67,229,0.8)"/>
          </g>
          <g id="_14" data-name="14" transform="translate(13.739 446.579)">
            <path id="Path_2507" data-name="Path 2507" d="M87.111,344.037h0l17.933,14.748h0Zm-.4.559-29.4,8.121,13.8,13.07h6.809l25.678-7.3Z" transform="translate(-56.203 -344.037)" fill="rgba(49,67,229,0.8)"/>
            <path id="Path_2551" data-name="Path 2551" d="M83.365,344.039l-30.906,8.576,14.633,13.86h7.178l27.03-7.688Zm-16,21.75-13.8-13.07,29.4-8.122,16.889,13.888-25.678,7.3Z" transform="translate(-52.459 -344.038)" fill="rgba(49,67,229,0.8)"/>
          </g>
          <g id="_15" data-name="15" transform="translate(38.437 464.095)">
            <path id="Path_2503" data-name="Path 2503" d="M200.629,420.768l-35.555,10.351-4.428,3.747h0l4.427-3.746Zm-.147.758-35.076,10.214-3.754,3.176,12.534,12.854,41.71-14.1Z" transform="translate(-160.646 -420.768)" fill="rgba(49,67,229,0.8)"/>
            <path id="Path_2541" data-name="Path 2541" d="M200.632,420.768h0l-35.555,10.353-4.427,3.746L174,448.556l43.319-14.644Zm-26.442,27-12.534-12.854,3.754-3.176,35.075-10.214L215.9,433.669Z" transform="translate(-160.649 -420.768)" fill="rgba(49,67,229,0.8)"/>
          </g>
          <g id="_16" data-name="16" transform="translate(80.485 456.579)">
            <path id="Path_2475" data-name="Path 2475" d="M372.33,391.155l-21.21,6.468,21.847,17.725,22.228-7.776Z" transform="translate(-349.685 -390.399)" fill="rgba(49,67,229,0.8)"/>
            <path id="Path_2476" data-name="Path 2476" d="M367.6,387.844l-22.77,6.943,23.147,18.78,23.836-8.339Zm.512,24.948-21.847-17.725,21.21-6.467,22.865,16.416Z" transform="translate(-344.833 -387.844)" fill="rgba(49,67,229,0.8)"/>
          </g>
          <g id="_17" data-name="17" transform="translate(104.949 448.863)">
            <path id="Path_2477" data-name="Path 2477" d="M482.191,357.3l-23.4,6.776,22.7,16.254,24.782-8.082Z" transform="translate(-457.238 -356.559)" fill="rgba(49,67,229,0.8)"/>
            <path id="Path_2478" data-name="Path 2478" d="M477.053,354.044,452,361.3l24.13,17.28,26.515-8.646Zm-.808,23.774-22.7-16.254,23.4-6.776,24.076,14.948Z" transform="translate(-451.998 -354.044)" fill="rgba(49,67,229,0.8)"/>
          </g>
          <g id="_18" data-name="18" transform="translate(131.524 442.011)">
            <path id="Path_2479" data-name="Path 2479" d="M594.416,327.281l-18.81,5.732,23.964,14.966,19.839-6.732Z" transform="translate(-573.963 -326.539)" fill="rgba(49,67,229,0.8)"/>
            <path id="Path_2480" data-name="Path 2480" d="M588.941,324.031l-20.533,6.258,25.52,15.937,21.609-7.333Zm5.074,21.44-23.964-14.966,18.81-5.733,24.993,13.966Z" transform="translate(-568.408 -324.031)" fill="rgba(49,67,229,0.8)"/>
          </g>
          <g id="_19" data-name="19" transform="translate(153.871 435.841)">
            <path id="Path_2481" data-name="Path 2481" d="M691.785,300.219l-17.751,5.163,24.777,13.867,18.308-6.272Z" transform="translate(-672.268 -299.485)" fill="rgba(49,67,229,0.8)"/>
            <path id="Path_2482" data-name="Path 2482" d="M685.884,297,666.3,302.7l26.475,14.817,20.142-6.9Zm6.958,19.764L668.065,302.9l17.751-5.163,25.334,12.758Z" transform="translate(-666.299 -297.002)" fill="rgba(49,67,229,0.8)"/>
          </g>
          <g id="_20" data-name="20" transform="translate(174.706 430.372)">
            <path id="Path_2483" data-name="Path 2483" d="M781.474,274.755l-16.039,5.087,25.114,12.822L807.167,287Z" transform="translate(-763.775 -274.365)" fill="rgba(49,67,229,0.8)"/>
            <path id="Path_3127" data-name="Path 3127" d="M775.316,271.545l-17.751,5.364L784.341,290.5l18.5-6.167Zm9.08,18.211L759.4,277.071l15.863-4.793,25.723,11.948Z" transform="translate(-757.566 -271.545)" fill="rgba(49,67,229,0.8)"/>
          </g>
          <g id="_21" data-name="21" transform="translate(194.166 424.493)">
            <path id="Path_2516" data-name="Path 2516" d="M860.063,250.492,844.739,255.1l25.24,11.678,14.941-5.237Zm-17.253,4.476h0l27.134,12.555,16.836-5.9-16.836,5.9Z" transform="translate(-842.81 -249.761)" fill="rgba(49,67,229,0.8)"/>
            <path id="Path_2568" data-name="Path 2568" d="M860.11,247.292l-17.3,5.207,27.134,12.555,16.835-5.9Zm9.87,17.022-25.24-11.678,15.324-4.613,24.858,11.054Z" transform="translate(-842.81 -247.292)" fill="rgba(49,67,229,0.8)"/>
          </g>
          <g id="_27" data-name="27" transform="translate(52.67 478.329)">
            <path id="Path_2502" data-name="Path 2502" d="M266.515,483.12l-43.524,14.3h0l43.523-14.3,18.321,14.3h0Zm-.134.768-42.125,13.844,15.666,15.921,43.53-16.439Z" transform="translate(-222.991 -483.12)" fill="rgba(49,67,229,0.8)"/>
            <path id="Path_2539" data-name="Path 2539" d="M266.516,483.129l-43.524,14.3,16.756,17.026,45.091-17.028ZM239.923,513.66l-15.666-15.921L266.382,483.9l17.071,13.326Z" transform="translate(-222.992 -483.127)" fill="rgba(49,67,229,0.8)"/>
          </g>
        </g>
        <g id="strefa2" transform="translate(0 -54)">
          <g id="_22" data-name="22" transform="translate(220.182 436.666)">
            <path id="Path_2493" data-name="Path 2493" d="M992.633,306.007l-14.277,4.961,30,14.166,11.741-4.878-.347-2.865Z" transform="translate(-976.57 -305.283)" fill="rgba(88,181,210,0.8)"/>
            <path id="Path_2494" data-name="Path 2494" d="M986.5,302.789l-16.086,5.59,31.773,15,12.492-5.191-.456-3.765Zm15.7,19.852-30-14.166,14.276-4.961L1013.6,314.9l.346,2.864Z" transform="translate(-970.417 -302.789)" fill="rgba(88,181,210,0.8)"/>
          </g>
          <g id="_23" data-name="23" transform="translate(200.163 442.829)">
            <path id="Path_2523" data-name="Path 2523" d="M899.432,330.171l-17.955,6.307Zm-.034.73-16.189,5.687L913.624,351.8l16.436-6.751Z" transform="translate(-881.477 -330.171)" fill="rgba(88,181,210,0.8)"/>
            <path id="Path_2581" data-name="Path 2581" d="M899.433,330.171h0l-17.954,6.308,32.119,16.06,18.157-7.458ZM913.626,351.8,883.21,336.588,899.4,330.9l30.662,14.144Z" transform="translate(-881.478 -330.171)" fill="rgba(88,181,210,0.8)"/>
          </g>
          <g id="_24" data-name="24" transform="translate(179.089 449.385)">
            <path id="Path_2489" data-name="Path 2489" d="M813.2,362.56l-18.034,6.279L825.4,385.695l18.486-7.578Z" transform="translate(-793.517 -361.826)" fill="rgba(88,181,210,0.8)"/>
            <path id="Path_2490" data-name="Path 2490" d="M807.576,359.3l-19.73,6.87,31.834,17.748,20.156-8.263Zm12.149,23.868-30.232-16.855,18.034-6.28,30.683,15.556Z" transform="translate(-787.846 -359.299)" fill="rgba(88,181,210,0.8)"/>
          </g>
          <g id="_25" data-name="25" transform="translate(155.925 456.769)">
            <path id="Path_2518" data-name="Path 2518" d="M712.038,395.384l-20.11,6.93L721.7,420.6l20.687-8.307Z" transform="translate(-690.353 -394.646)" fill="rgba(88,181,210,0.8)"/>
            <path id="Path_2572" data-name="Path 2572" d="M706.68,392.1,684.929,399.6l31.285,19.214,22.32-8.963Zm9.6,25.954L686.5,399.773l20.11-6.93,30.351,16.908Z" transform="translate(-684.929 -392.105)" fill="rgba(88,181,210,0.8)"/>
          </g>
          <g id="_26" data-name="26" transform="translate(103.689 464.797)">
            <path id="Path_2517" data-name="Path 2517" d="M503.713,431.071l-49.465,16.762,31.482,24.787,50.692-21.229Zm-50.865,16.523h0L485.624,473.4l52.269-21.889L485.624,473.4l-32.776-25.806" transform="translate(-452.848 -430.328)" fill="rgba(88,181,210,0.8)"/>
            <path id="Path_2570" data-name="Path 2570" d="M503.8,427.77l-50.951,17.266,32.776,25.805,52.269-21.889ZM485.73,470.063l-31.482-24.787,49.465-16.763,32.709,20.321Z" transform="translate(-452.848 -427.77)" fill="rgba(88,181,210,0.8)"/>
          </g>
          <g id="_28" data-name="28" transform="translate(68.735 492.162)">
            <path id="Path_2497" data-name="Path 2497" d="M342.679,552.753l-43.9,16.292,18.463,18.146,45.594-18.806Zm21.5,15.812L317.09,587.987l-19.542-19.206h0l19.542,19.206,47.087-19.421" transform="translate(-297.549 -551.988)" fill="rgba(88,181,210,0.8)"/>
            <path id="Path_2529" data-name="Path 2529" d="M342.8,549.354l-45.248,16.793,19.542,19.206,47.087-19.422Zm-25.551,35.2-18.463-18.146,43.9-16.292,20.161,15.632Z" transform="translate(-297.549 -549.354)" fill="rgba(88,181,210,0.8)"/>
          </g>
          <g id="_35" data-name="35" transform="translate(259.881 454.468)">
            <path id="Path_2525" data-name="Path 2525" d="M1171.222,384.889h-3.628L1154.031,391l38.14,17.674,14.989-7.84Z" transform="translate(-1152.404 -384.212)" fill="rgba(88,181,210,0.8)"/>
            <path id="Path_2584" data-name="Path 2584" d="M1165.76,381.882h-3.916l-15.046,6.782,39.787,18.437,16.526-8.645Zm20.807,24.464-38.14-17.674,13.562-6.114h3.628l35.938,15.947Z" transform="translate(-1146.798 -381.882)" fill="rgba(88,181,210,0.8)"/>
          </g>
          <g id="_34" data-name="34" transform="translate(240.297 461.729)">
            <path id="Path_2524" data-name="Path 2524" d="M1078.353,417.422l-16.937,6.966,38.35,19.381,16.571-8.526Zm-18.563,6.9h0l39.978,20.2,18.1-9.313-18.1,9.313Z" transform="translate(-1059.79 -416.683)" fill="rgba(88,181,210,0.8)"/>
            <path id="Path_2583" data-name="Path 2583" d="M1078.371,414.139l-18.581,7.642,39.978,20.2,18.1-9.314Zm21.395,27.086-38.35-19.381,16.937-6.966,37.984,17.821Z" transform="translate(-1059.79 -414.139)" fill="rgba(88,181,210,0.8)"/>
          </g>
          <g id="_33" data-name="33" transform="translate(218.896 469.753)">
            <path id="Path_2491" data-name="Path 2491" d="M990.628,453.111l-19.062,8.119,38.494,21.222,18.759-9.6Z" transform="translate(-970.022 -452.363)" fill="rgba(88,181,210,0.8)"/>
            <path id="Path_2492" data-name="Path 2492" d="M985.341,449.79l-20.634,8.788,40.026,22.067,20.252-10.365Zm19.4,30.089-38.493-21.222,19.062-8.119,38.191,19.74Z" transform="translate(-964.707 -449.79)" fill="rgba(88,181,210,0.8)"/>
          </g>
          <g id="_32" data-name="32" transform="translate(195.305 478.68)">
            <path id="Path_2519" data-name="Path 2519" d="M882.387,490.952l-22.5,9.744h0l22.495-9.743,39.643,22.257h0Zm-.038.756L860.355,500.8l38.971,24.289L921.6,513.184Z" transform="translate(-859.891 -490.952)" fill="rgba(88,181,210,0.8)"/>
            <path id="Path_2574" data-name="Path 2574" d="M882.391,490.959,859.9,500.7l39.4,24.167,22.734-11.653Zm16.939,33.136-37.971-23.289,20.995-9.093L920.6,513.189Z" transform="translate(-859.895 -490.619)" fill="rgba(88,181,210,0.8)"/>
          </g>
          <g id="_31" data-name="31" transform="translate(138.415 486.9)">
            <path id="Path_2485" data-name="Path 2485" d="M663.6,529.353l-50.585,21.526,40.306,31.411,52.146-26.863Z" transform="translate(-611.688 -528.592)" fill="rgba(88,181,210,0.8)"/>
            <path id="Path_2486" data-name="Path 2486" d="M659.1,525.972l-51.966,22.115,41.554,32.384,53.591-27.607Zm-10.337,53.7-40.306-31.411,50.585-21.526,41.867,26.074Z" transform="translate(-607.134 -525.972)" fill="rgba(88,181,210,0.8)"/>
          </g>
          <g id="_36" data-name="36" transform="translate(301.452 471.953)">
            <path id="Path_2527" data-name="Path 2527" d="M1347.8,459.567l-16.306,8.477,16.306-8.476,40.279,17.274,2.341,3.47h0l-2.341-3.471Zm.028.75-14.805,7.7,43.858,20.566,12.6-8.45-1.851-2.743Z" transform="translate(-1331.494 -459.567)" fill="rgba(88,181,210,0.8)"/>
            <path id="Path_2588" data-name="Path 2588" d="M1347.8,459.572l-16.306,8.476,45.445,21.309,13.48-9.04-2.341-3.47Zm29.08,29.01-43.858-20.566,14.805-7.7,39.8,17.069,1.851,2.743Z" transform="translate(-1331.494 -459.571)" fill="rgba(88,181,210,0.8)"/>
          </g>
          <g id="_37" data-name="37" transform="translate(282.321 481.076)">
            <path id="Path_2526" data-name="Path 2526" d="M1264.354,503.449l-16.387,8.6,44.094,22.555,16.485-10.741Zm-17.858,8.609h0l45.607,23.328,17.839-11.624L1292.1,535.386Z" transform="translate(-1246.496 -502.695)" fill="rgba(88,181,210,0.8)"/>
            <path id="Path_2586" data-name="Path 2586" d="M1264.337,500.1l-17.839,9.363,45.606,23.328,17.839-11.624Zm27.727,31.91-44.094-22.555,16.387-8.6,44.193,20.415Z" transform="translate(-1246.498 -500.1)" fill="rgba(88,181,210,0.8)"/>
          </g>
          <g id="_38" data-name="38" transform="translate(260.735 491.017)">
            <path id="Path_2522" data-name="Path 2522" d="M1170.522,544.264l-19.93,10.494,19.931-10.493Zm.007.762-18.523,9.752,44.757,25.205,18.727-12.175Zm-19.937,9.732h0l46.2,26.016Z" transform="translate(-1150.592 -544.264)" fill="rgba(88,181,210,0.8)"/>
            <path id="Path_2579" data-name="Path 2579" d="M1170.522,544.264l-19.931,10.493,46.2,26.016,20.055-13.039-46.322-23.47m26.242,35.719-44.756-25.205,18.522-9.752,44.961,22.782Z" transform="translate(-1150.592 -544.264)" fill="rgba(88,181,210,0.8)"/>
          </g>
          <g id="_39" data-name="39" transform="translate(236.953 502.256)">
            <path id="Path_2520" data-name="Path 2520" d="M1066.85,594.2l-21.917,11.673,21.917-11.672Zm-.005.77-20.557,10.948L1091.494,634l20.989-13.681Zm-21.912,10.9h0l46.568,28.936h0Z" transform="translate(-1044.933 -594.199)" fill="rgba(88,181,210,0.8)"/>
            <path id="Path_2576" data-name="Path 2576" d="M1066.849,594.2l-21.917,11.673,46.569,28.935,22.29-14.529L1066.849,594.2M1091.493,634l-45.206-28.087,20.557-10.948,45.639,25.354Z" transform="translate(-1044.932 -594.199)" fill="rgba(88,181,210,0.8)"/>
          </g>
          <g id="_40" data-name="40" transform="translate(209.454 514.709)">
            <path id="Path_2521" data-name="Path 2521" d="M952.781,652.989,928.54,665.7l45.593,31.719,24.38-16.08Z" transform="translate(-927.238 -652.21)" fill="rgba(88,181,210,0.8)"/>
            <path id="Path_2577" data-name="Path 2577" d="M948.327,649.528l-25.571,13.41,46.885,32.617,25.646-16.916ZM924.058,663.02h0L948.3,650.307l45.731,28.35-24.38,16.081Z" transform="translate(-922.756 -649.528)" fill="rgba(88,181,210,0.8)"/>
          </g>
          <g id="_41" data-name="41" transform="translate(181.688 529.075)">
            <path id="Path_2487" data-name="Path 2487" d="M829.472,716.858l-24.607,12.848,44.855,36.014,26.061-16.9Z" transform="translate(-803.633 -716.069)" fill="rgba(88,181,210,0.8)"/>
            <path id="Path_2488" data-name="Path 2488" d="M825.281,713.353,799.393,726.87l46.044,36.969,27.32-17.721ZM845.479,763,800.625,726.99l24.607-12.848L871.54,746.1Z" transform="translate(-799.393 -713.353)" fill="rgba(88,181,210,0.8)"/>
          </g>
          <g id="_30" data-name="30" transform="translate(113.258 529.612)">
            <path id="Path_2499" data-name="Path 2499" d="M547.755,719.263l-47.233,22.7,25.3,24.893L574.733,740.4Z" transform="translate(-499.361 -718.47)" fill="rgba(88,181,210,0.8)"/>
            <path id="Path_2531" data-name="Path 2531" d="M543.843,715.741l-48.48,23.3L521.7,764.956l50.265-27.179ZM521.82,764.123l-25.3-24.893,47.233-22.7,26.979,21.14Z" transform="translate(-495.363 -715.741)" fill="rgba(88,181,210,0.8)"/>
          </g>
          <g id="_29" data-name="29" transform="translate(90.067 509.675)">
            <path id="Path_2498" data-name="Path 2498" d="M443.075,630.612l-45.508,18.506,20.7,21.558,47.265-21.965Z" transform="translate(-396.388 -629.835)" fill="rgba(88,181,210,0.8)"/>
            <path id="Path_2530" data-name="Path 2530" d="M439.129,627.16l-46.8,19.032L414.05,668.82l48.69-22.628ZM414.2,668l-20.7-21.558,45.508-18.507,22.453,18.1Z" transform="translate(-392.328 -627.16)" fill="rgba(88,181,210,0.8)"/>
          </g>
          <g id="_42" data-name="42" transform="translate(141.311 552.959)">
            <path id="Path_2495" data-name="Path 2495" d="M673.552,822.861,625.008,850.1l19.833,19.035h32.4l29.853-19.24Z" transform="translate(-623.881 -822.098)" fill="rgba(88,181,210,0.8)"/>
            <path id="Path_2496" data-name="Path 2496" d="M669.8,819.469h-.154L620,847.331l19.983,19.179h.977l-19.833-19.035,48.544-27.242,33.543,27.038-29.853,19.24h1.25l29.758-19.179Z" transform="translate(-620 -819.469)" fill="rgba(88,181,210,0.8)"/>
          </g>
        </g>
        <g id="strefa3" transform="translate(0 -54)">
          <g id="_46" data-name="46" transform="translate(212.433 384.649)">
            <path id="Path_2606" data-name="Path 2606" d="M962.714,77.384l-17.255-5.7-13.251,3.483,16.527,5.992Z" transform="translate(-932.207 -71.68)" fill="rgba(178,1,230,0.8)"/>
            <path id="Path_2667" data-name="Path 2667" d="M948.733,81.155l-16.527-5.992,13.251-3.484,17.255,5.7Zm.023-.54,12.162-3.281L945.44,72.217l-11.5,3.024Z" transform="translate(-932.206 -71.679)" fill="rgba(178,1,230,0.8)"/>
          </g>
          <g id="_45" data-name="45" transform="translate(197.201 388.364)">
            <path id="Path_2593" data-name="Path 2593" d="M896.5,93.916l-16.536-6L865.6,91.694,881.363,98Z" transform="translate(-865.605 -87.921)" fill="rgba(178,1,230,0.8)"/>
            <path id="Path_2654" data-name="Path 2654" d="M881.363,98l-15.758-6.3,14.355-3.774L896.5,93.916Zm.032-.543,13.389-3.612-14.848-5.383L867.248,91.8Z" transform="translate(-865.605 -87.921)" fill="rgba(178,1,230,0.8)"/>
          </g>
          <g id="_44" data-name="44" transform="translate(179.119 392.358)">
            <path id="Path_2603" data-name="Path 2603" d="M819.554,111.692l-15.767-6.307-17.244,4.534,15.624,6.465Z" transform="translate(-786.543 -105.385)" fill="rgba(178,1,230,0.8)"/>
            <path id="Path_2664" data-name="Path 2664" d="M802.167,116.382l-15.624-6.464,17.244-4.534,15.767,6.308Zm.035-.544,15.725-4.242-14.174-5.67-15.6,4.1Z" transform="translate(-786.543 -105.384)" fill="rgba(178,1,230,0.8)"/>
          </g>
          <g id="_43" data-name="43" transform="translate(158.794 397.108)">
            <path id="Path_2604" data-name="Path 2604" d="M717.174,126.155l-19.5,5.127,15.264,6.7,19.87-5.36Z" transform="translate(-697.673 -126.155)" fill="rgba(178,1,230,0.8)"/>
            <path id="Path_2665" data-name="Path 2665" d="M717.174,126.155l15.633,6.468-19.87,5.36-15.264-6.7Zm-.037.543-17.9,4.706,13.742,6.033,18.23-4.918Z" transform="translate(-697.673 -126.155)" fill="rgba(178,1,230,0.8)"/>
          </g>
          <g id="_47" data-name="47" transform="translate(229.805 390.648)">
            <path id="Path_2594" data-name="Path 2594" d="M1008.16,101.694l18.3,6.637,14.983-4.052-19.261-6.368Z" transform="translate(-1008.16 -97.91)" fill="rgba(178,1,230,0.8)"/>
            <path id="Path_2655" data-name="Path 2655" d="M1022.184,97.907l19.261,6.367-14.983,4.052-18.3-6.636Zm-.015.538-12.3,3.318,16.612,6.023,13.168-3.561Z" transform="translate(-1008.16 -97.907)" fill="rgba(178,1,230,0.8)"/>
          </g>
          <g id="_48" data-name="48" transform="translate(213.757 394.665)">
            <path id="Path_2595" data-name="Path 2595" d="M937.993,119.567l17.3,6.919,16.188-4.377-18.3-6.637Z" transform="translate(-937.993 -115.471)" fill="rgba(178,1,230,0.8)"/>
            <path id="Path_2656" data-name="Path 2656" d="M953.173,115.473l18.3,6.636-16.188,4.378-17.3-6.919Zm-.023.54-13.53,3.65,15.7,6.28,14.445-3.906Z" transform="translate(-937.993 -115.473)" fill="rgba(178,1,230,0.8)"/>
          </g>
          <g id="_49" data-name="49" transform="translate(195.525 398.984)">
            <path id="Path_2597" data-name="Path 2597" d="M858.279,139.054l16.967,7.02,17.732-4.8-17.3-6.919Z" transform="translate(-858.278 -134.359)" fill="rgba(178,1,230,0.8)"/>
            <path id="Path_2658" data-name="Path 2658" d="M875.68,134.357l17.3,6.919-17.732,4.8-16.967-7.02Zm-.032.543-15.772,4.255,15.4,6.373,16.071-4.346Z" transform="translate(-858.277 -134.357)" fill="rgba(178,1,230,0.8)"/>
          </g>
          <g id="_50" data-name="50" transform="translate(174.811 403.899)">
            <path id="Path_3134" data-name="Path 3134" d="M767.707,161.216l16.382,7.192,20.484-5.539-16.968-7.02Z" transform="translate(-767.707 -155.848)" fill="rgba(178,1,230,0.8)"/>
            <path id="Path_2666" data-name="Path 2666" d="M787.605,155.849l16.968,7.02-20.484,5.54-16.382-7.192Zm-.035.544-18.314,4.94,14.874,6.53,18.846-5.1Z" transform="translate(-767.708 -155.849)" fill="rgba(178,1,230,0.8)"/>
          </g>
          <g id="_55" data-name="55" transform="translate(265.641 397.622)">
            <path id="Path_2618" data-name="Path 2618" d="M1200.985,136.105l-24.462-7.7-11.677,3.282,24.693,8.175Z" transform="translate(-1164.846 -128.402)" fill="rgba(178,1,230,0.8)"/>
            <path id="Path_2679" data-name="Path 2679" d="M1189.541,139.862l-24.694-8.175,11.676-3.279,24.462,7.7Zm0-.543,9.757-3.2-22.784-7.174-9.9,2.781Z" transform="translate(-1164.847 -128.407)" fill="rgba(178,1,230,0.8)"/>
          </g>
          <g id="_54" data-name="54" transform="translate(252.184 401.151)">
            <path id="Path_2619" data-name="Path 2619" d="M1143.337,152.029l-24.757-8.2-12.57,3.529,25.015,8.7Z" transform="translate(-1106.01 -143.833)" fill="rgba(178,1,230,0.8)"/>
            <path id="Path_2680" data-name="Path 2680" d="M1131.023,156.065l-25.014-8.7,12.569-3.529,24.757,8.2Zm.005-.545,10.658-3.494-23.121-7.654-10.836,3.043Z" transform="translate(-1106.009 -143.833)" fill="rgba(178,1,230,0.8)"/>
          </g>
          <g id="_53" data-name="53" transform="translate(237.624 404.924)">
            <path id="Path_2617" data-name="Path 2617" d="M1081.114,169.055l-25.075-8.724-13.691,3.844,25.4,9.261Z" transform="translate(-1042.347 -160.33)" fill="rgba(178,1,230,0.8)"/>
            <path id="Path_2678" data-name="Path 2678" d="M1067.749,173.435l-25.4-9.261,13.691-3.844,25.075,8.724Zm.009-.546,11.744-3.85-23.48-8.169-11.994,3.368Z" transform="translate(-1042.347 -160.329)" fill="rgba(178,1,230,0.8)"/>
          </g>
          <g id="_52" data-name="52" transform="translate(222.839 409.008)">
            <path id="Path_2612" data-name="Path 2612" d="M1017.1,187.466l-25.459-9.282L977.7,182.1l25.3,9.989Z" transform="translate(-977.703 -178.183)" fill="rgba(178,1,230,0.8)"/>
            <path id="Path_2673" data-name="Path 2673" d="M1003.006,192.084,977.7,182.1l13.934-3.912,25.46,9.282Zm.016-.548,12.5-4.1-23.9-8.715-12.3,3.454Z" transform="translate(-977.703 -178.183)" fill="rgba(178,1,230,0.8)"/>
          </g>
          <g id="_51" data-name="51" transform="translate(205.856 413.102)">
            <path id="Path_2628" data-name="Path 2628" d="M919.744,196.185l.04-.1-16.335,4.587,25.868,10.6,15.652-5.131Z" transform="translate(-903.448 -196.083)" fill="rgba(178,1,230,0.8)"/>
            <path id="Path_2689" data-name="Path 2689" d="M919.781,196.084l-.04.1,25.224,9.957-15.651,5.131-25.868-10.6Zm-.2.592-14.552,4.086,24.3,9.962,14.113-4.627Z" transform="translate(-903.445 -196.084)" fill="rgba(178,1,230,0.8)"/>
          </g>
          <g id="_57" data-name="57" transform="translate(248.894 418.575)">
            <path id="Path_2622" data-name="Path 2622" d="M1091.623,224.646,1117.8,234.98l14.452-5.3-26.5-9.663Z" transform="translate(-1091.623 -220.016)" fill="rgba(178,1,230,0.8)"/>
            <path id="Path_2683" data-name="Path 2683" d="M1105.746,220.018l26.5,9.663-14.451,5.3-26.173-10.333Zm-.009.546-12.6,4.129,24.662,9.736,12.942-4.747Z" transform="translate(-1091.624 -220.018)" fill="rgba(178,1,230,0.8)"/>
          </g>
          <g id="_56" data-name="56" transform="translate(232.459 423.457)">
            <path id="Path_2626" data-name="Path 2626" d="M1019.766,246.5l23.092,9.465,6.234.351,12.554-4.6-26.213-10.348Z" transform="translate(-1019.766 -241.361)" fill="rgba(178,1,230,0.8)"/>
            <path id="Path_2687" data-name="Path 2687" d="M1035.434,241.362l26.213,10.348-12.554,4.6-6.234-.351-23.092-9.465Zm-.016.548-14.159,4.642,21.716,8.9,6.041.341,11.182-4.1Z" transform="translate(-1019.767 -241.362)" fill="rgba(178,1,230,0.8)"/>
          </g>
        </g>
      </g>
    </g>
  </g>
</svg>
