<svg width="120" height="120" viewBox="0 0 120 120" fill="none" xmlns="http://www.w3.org/2000/svg">
<g opacity="0.6">
<path d="M32.3114 42.2647C31.7579 42.2647 31.2742 42.1389 30.8605 41.8873C30.4467 41.6357 30.1252 41.2862 29.896 40.8389C29.6667 40.386 29.5521 39.8604 29.5521 39.2621C29.5521 38.6583 29.6695 38.1271 29.9043 37.6686C30.1448 37.2045 30.4831 36.8439 30.9192 36.5866C31.3609 36.3239 31.8837 36.1925 32.4876 36.1925C33.1753 36.1925 33.7456 36.3574 34.1985 36.6873C34.6514 37.0172 34.945 37.4729 35.0792 38.0544H33.8798C33.7904 37.7804 33.6282 37.5679 33.3934 37.417C33.1585 37.2604 32.8566 37.1821 32.4876 37.1821C31.9005 37.1821 31.4476 37.3694 31.1289 37.7441C30.8102 38.1131 30.6508 38.6219 30.6508 39.2705C30.6508 39.9191 30.8074 40.4223 31.1205 40.7802C31.4392 41.1325 31.8697 41.3086 32.4121 41.3086C32.9433 41.3086 33.3431 41.166 33.6114 40.8808C33.8854 40.5901 34.0504 40.2099 34.1063 39.7402H32.6218V38.935H35.1882V42.1641H34.1985L34.1147 41.3925C33.9246 41.672 33.6869 41.8873 33.4018 42.0383C33.1166 42.1892 32.7532 42.2647 32.3114 42.2647ZM38.2616 42.1641L36.7099 36.2931H37.859L38.9158 40.9647L40.157 36.2931H41.3396L42.5474 40.9647L43.6041 36.2931H44.7616L43.168 42.1641H41.8932L40.7274 37.8112L39.528 42.1641H38.2616ZM45.4112 42.1641L47.5583 36.2931H48.766L50.9131 42.1641H49.7724L49.3028 40.8054H47.0131L46.535 42.1641H45.4112ZM47.3066 39.9666H49.0092L48.1537 37.526L47.3066 39.9666ZM52.5081 42.1641V36.2931H54.6636C55.1332 36.2931 55.519 36.3742 55.821 36.5363C56.1285 36.6929 56.3578 36.9082 56.5087 37.1821C56.6597 37.4505 56.7352 37.7497 56.7352 38.0795C56.7352 38.4374 56.6401 38.7645 56.45 39.0608C56.2655 39.3572 55.9747 39.5725 55.5778 39.7066L56.7939 42.1641H55.561L54.4707 39.8492H53.5816V42.1641H52.5081ZM53.5816 39.0608H54.5965C54.9543 39.0608 55.2171 38.9742 55.3849 38.8008C55.5526 38.6275 55.6365 38.3983 55.6365 38.1131C55.6365 37.8335 55.5526 37.6099 55.3849 37.4421C55.2227 37.2744 54.9571 37.1905 54.5881 37.1905H53.5816V39.0608ZM58.1949 42.1641L60.342 36.2931H61.5498L63.6969 42.1641H62.5562L62.0865 40.8054H59.7969L59.3188 42.1641H58.1949ZM60.0904 39.9666H61.793L60.9375 37.526L60.0904 39.9666ZM65.2918 42.1641V36.2931H66.3654L69.1247 40.4279V36.2931H70.1983V42.1641H69.1247L66.3654 38.0376V42.1641H65.2918ZM74.8339 42.2647C74.2412 42.2647 73.7324 42.1389 73.3074 41.8873C72.8825 41.6301 72.5554 41.275 72.3261 40.8221C72.0969 40.3636 71.9823 39.8352 71.9823 39.237C71.9823 38.6387 72.0969 38.1103 72.3261 37.6518C72.5554 37.1933 72.8825 36.8355 73.3074 36.5783C73.7324 36.3211 74.2412 36.1925 74.8339 36.1925C75.5384 36.1925 76.1143 36.3686 76.5616 36.7208C77.0145 37.0675 77.2969 37.5568 77.4087 38.1886H76.2261C76.1534 37.8699 75.9969 37.6211 75.7564 37.4421C75.5216 37.2576 75.2085 37.1654 74.8171 37.1654C74.2747 37.1654 73.8498 37.3499 73.5423 37.7189C73.2347 38.0879 73.081 38.594 73.081 39.237C73.081 39.88 73.2347 40.386 73.5423 40.755C73.8498 41.1185 74.2747 41.3002 74.8171 41.3002C75.2085 41.3002 75.5216 41.2163 75.7564 41.0486C75.9969 40.8752 76.1534 40.6376 76.2261 40.3357H77.4087C77.2969 40.9395 77.0145 41.412 76.5616 41.7531C76.1143 42.0942 75.5384 42.2647 74.8339 42.2647ZM80.7325 42.2647C80.1622 42.2647 79.7037 42.1054 79.3571 41.7866C79.016 41.4623 78.8455 41.0038 78.8455 40.4112H79.919C79.9246 40.6851 79.9889 40.9032 80.1119 41.0654C80.2349 41.2275 80.4334 41.3086 80.7074 41.3086C80.9646 41.3086 81.1519 41.2331 81.2693 41.0821C81.3867 40.9256 81.4455 40.7215 81.4455 40.4699V36.2931H82.519V40.4699C82.519 41.0458 82.3568 41.4903 82.0325 41.8034C81.7138 42.1109 81.2805 42.2647 80.7325 42.2647ZM83.8689 42.1641L86.016 36.2931H87.2238L89.3709 42.1641H88.2302L87.7605 40.8054H85.4709L84.9928 42.1641H83.8689ZM85.7644 39.9666H87.467L86.6115 37.526L85.7644 39.9666ZM29.2028 54.1641V48.2931H30.2763L33.0357 52.4279V48.2931H34.1092V54.1641H33.0357L30.2763 50.0376V54.1641H29.2028ZM35.7087 54.1641L37.8558 48.2931H39.0635L41.2106 54.1641H40.07L39.6003 52.8054H37.3106L36.8325 54.1641H35.7087ZM37.6042 51.9666H39.3067L38.4513 49.526L37.6042 51.9666ZM44.3404 54.2647C43.7701 54.2647 43.3116 54.1054 42.9649 53.7866C42.6239 53.4623 42.4533 53.0038 42.4533 52.4112H43.5269C43.5325 52.6851 43.5968 52.9032 43.7198 53.0654C43.8428 53.2275 44.0413 53.3086 44.3153 53.3086C44.5725 53.3086 44.7598 53.2331 44.8772 53.0821C44.9946 52.9256 45.0533 52.7215 45.0533 52.4699V48.2931H46.1269V52.4699C46.1269 53.0458 45.9647 53.4903 45.6404 53.8034C45.3217 54.1109 44.8884 54.2647 44.3404 54.2647ZM49.2991 54.1641L47.7475 48.2931H48.8965L49.9533 52.9647L51.1946 48.2931H52.3772L53.5849 52.9647L54.6417 48.2931H55.7991L54.2055 54.1641H52.9307L51.7649 49.8112L50.5656 54.1641H49.2991ZM58.9339 54.1641V52.0757L56.9629 48.2931H58.1791L59.4791 51.0021L60.7707 48.2931H61.97L60.0075 52.0757V54.1641H58.9339ZM63.3204 54.1641V53.3421L66.021 49.1905H63.3455V48.2931H67.2623V49.115L64.5449 53.2666H67.2791V54.1641H63.3204ZM65.2997 47.7563C65.1543 47.7563 65.0313 47.706 64.9307 47.6054C64.83 47.5047 64.7797 47.3817 64.7797 47.2363C64.7797 47.0909 64.83 46.9679 64.9307 46.8673C65.0313 46.7666 65.1543 46.7163 65.2997 46.7163C65.4451 46.7163 65.5681 46.7666 65.6687 46.8673C65.7694 46.9679 65.8197 47.0909 65.8197 47.2363C65.8197 47.3817 65.7694 47.5047 65.6687 47.6054C65.5681 47.706 65.4451 47.7563 65.2997 47.7563ZM71.0902 54.2647C70.6597 54.2647 70.2795 54.192 69.9496 54.0466C69.6197 53.8957 69.3597 53.6832 69.1696 53.4092C68.9795 53.1297 68.8816 52.7914 68.876 52.3944H70.0083C70.0195 52.6684 70.1173 52.9004 70.3018 53.0905C70.4919 53.275 70.7519 53.3673 71.0818 53.3673C71.367 53.3673 71.5934 53.3002 71.7612 53.166C71.9289 53.0262 72.0128 52.8417 72.0128 52.6125C72.0128 52.372 71.9373 52.1847 71.7863 52.0505C71.641 51.9163 71.4453 51.8073 71.1992 51.7234C70.9532 51.6395 70.6904 51.5501 70.4109 51.455C69.958 51.2985 69.6113 51.0972 69.3709 50.8512C69.136 50.6051 69.0186 50.278 69.0186 49.8699C69.013 49.5232 69.0941 49.2269 69.2618 48.9808C69.4352 48.7292 69.67 48.5363 69.9663 48.4021C70.2627 48.2623 70.6038 48.1925 70.9896 48.1925C71.381 48.1925 71.7248 48.2623 72.0212 48.4021C72.3231 48.5419 72.558 48.7376 72.7257 48.9892C72.899 49.2408 72.9913 49.54 73.0025 49.8866H71.8534C71.8478 49.6798 71.7668 49.498 71.6102 49.3415C71.4592 49.1793 71.2468 49.0983 70.9728 49.0983C70.738 49.0927 70.5395 49.1514 70.3773 49.2744C70.2207 49.3918 70.1425 49.5651 70.1425 49.7944C70.1425 49.9901 70.204 50.1466 70.327 50.2641C70.45 50.3759 70.6177 50.4709 70.8302 50.5492C71.0427 50.6275 71.2859 50.7114 71.5599 50.8008C71.8506 50.9015 72.1162 51.0189 72.3567 51.1531C72.5971 51.2873 72.79 51.4662 72.9354 51.6899C73.0807 51.9079 73.1534 52.1903 73.1534 52.537C73.1534 52.8445 73.0752 53.1297 72.9186 53.3925C72.762 53.6552 72.53 53.8677 72.2225 54.0299C71.9149 54.1864 71.5375 54.2647 71.0902 54.2647ZM74.7527 54.1641V53.3421L77.4533 49.1905H74.7778V48.2931H78.6946V49.115L75.9772 53.2666H78.7114V54.1641H74.7527ZM80.518 54.1641V48.2931H84.3509V49.157H81.5916V50.7673H84.0993V51.606H81.5916V53.3002H84.3509V54.1641H80.518ZM87.7404 54.2647C87.17 54.2647 86.7115 54.1054 86.3649 53.7866C86.0238 53.4623 85.8533 53.0038 85.8533 52.4112H86.9268C86.9324 52.6851 86.9967 52.9032 87.1197 53.0654C87.2427 53.2275 87.4412 53.3086 87.7152 53.3086C87.9724 53.3086 88.1597 53.2331 88.2771 53.0821C88.3945 52.9256 88.4533 52.7215 88.4533 52.4699V48.2931H89.5268V52.4699C89.5268 53.0458 89.3647 53.4903 89.0404 53.8034C88.7216 54.1109 88.2883 54.2647 87.7404 54.2647ZM41.423 66.2647C40.8526 66.2647 40.3942 66.1054 40.0475 65.7866C39.7064 65.4623 39.5359 65.0038 39.5359 64.4112H40.6094C40.615 64.6851 40.6793 64.9032 40.8023 65.0654C40.9253 65.2275 41.1238 65.3086 41.3978 65.3086C41.655 65.3086 41.8423 65.2331 41.9597 65.0821C42.0772 64.9256 42.1359 64.7215 42.1359 64.4699V60.2931H43.2094V64.4699C43.2094 65.0458 43.0473 65.4903 42.723 65.8034C42.4043 66.1109 41.9709 66.2647 41.423 66.2647ZM44.5593 66.1641L46.7064 60.2931H47.9142L50.0613 66.1641H48.9206L48.451 64.8054H46.1613L45.6832 66.1641H44.5593ZM46.4548 63.9666H48.1574L47.3019 61.526L46.4548 63.9666ZM51.6563 66.1641V60.2931H52.7298V62.6666L54.9021 60.2931H56.2272L54.0634 62.6247L56.2859 66.1641H54.9692L53.2918 63.4466L52.7298 64.0589V66.1641H51.6563ZM60.1848 66.2647C59.5977 66.2647 59.0833 66.1361 58.6416 65.8789C58.2055 65.6217 57.8616 65.2666 57.61 64.8137C57.364 64.3552 57.241 63.8269 57.241 63.2286C57.241 62.6303 57.364 62.1047 57.61 61.6518C57.8616 61.1933 58.2055 60.8355 58.6416 60.5783C59.0833 60.3211 59.5977 60.1925 60.1848 60.1925C60.7663 60.1925 61.2779 60.3211 61.7197 60.5783C62.1614 60.8355 62.5053 61.1933 62.7513 61.6518C62.9973 62.1047 63.1203 62.6303 63.1203 63.2286C63.1203 63.8269 62.9973 64.3552 62.7513 64.8137C62.5053 65.2666 62.1614 65.6217 61.7197 65.8789C61.2779 66.1361 60.7663 66.2647 60.1848 66.2647ZM60.1848 65.3002C60.744 65.3002 61.1885 65.1157 61.5184 64.7466C61.8539 64.3776 62.0216 63.8716 62.0216 63.2286C62.0216 62.5856 61.8539 62.0795 61.5184 61.7105C61.1885 61.3415 60.744 61.157 60.1848 61.157C59.6257 61.157 59.1784 61.3415 58.8429 61.7105C58.5074 62.0795 58.3397 62.5856 58.3397 63.2286C58.3397 63.8716 58.5074 64.3776 58.8429 64.7466C59.1784 65.1157 59.6257 65.3002 60.1848 65.3002ZM66.9114 66.2647C66.4809 66.2647 66.1007 66.192 65.7708 66.0466C65.4409 65.8957 65.1809 65.6832 64.9908 65.4092C64.8007 65.1297 64.7028 64.7914 64.6972 64.3944H65.8295C65.8407 64.6684 65.9385 64.9004 66.123 65.0905C66.3131 65.275 66.5731 65.3673 66.903 65.3673C67.1882 65.3673 67.4146 65.3002 67.5824 65.166C67.7501 65.0262 67.834 64.8417 67.834 64.6125C67.834 64.372 67.7585 64.1847 67.6075 64.0505C67.4622 63.9163 67.2665 63.8073 67.0204 63.7234C66.7744 63.6395 66.5116 63.5501 66.2321 63.455C65.7792 63.2985 65.4325 63.0972 65.1921 62.8512C64.9572 62.6051 64.8398 62.278 64.8398 61.8699C64.8342 61.5232 64.9153 61.2269 65.083 60.9808C65.2564 60.7292 65.4912 60.5363 65.7875 60.4021C66.0839 60.2623 66.425 60.1925 66.8108 60.1925C67.2022 60.1925 67.546 60.2623 67.8424 60.4021C68.1443 60.5419 68.3791 60.7376 68.5469 60.9892C68.7202 61.2408 68.8125 61.54 68.8237 61.8866H67.6746C67.669 61.6798 67.588 61.498 67.4314 61.3415C67.2804 61.1793 67.068 61.0983 66.794 61.0983C66.5592 61.0927 66.3607 61.1514 66.1985 61.2744C66.0419 61.3918 65.9637 61.5651 65.9637 61.7944C65.9637 61.9901 66.0252 62.1466 66.1482 62.2641C66.2712 62.3759 66.4389 62.4709 66.6514 62.5492C66.8639 62.6275 67.1071 62.7114 67.3811 62.8008C67.6718 62.9015 67.9374 63.0189 68.1779 63.1531C68.4183 63.2873 68.6112 63.4662 68.7566 63.6899C68.9019 63.9079 68.9746 64.1903 68.9746 64.537C68.9746 64.8445 68.8964 65.1297 68.7398 65.3925C68.5832 65.6552 68.3512 65.8677 68.0437 66.0299C67.7361 66.1864 67.3587 66.2647 66.9114 66.2647ZM66.4082 59.9576V59.2028L68.3037 58.1796V59.0518L66.4082 59.9576ZM73.4087 66.2647C72.816 66.2647 72.3072 66.1389 71.8823 65.8873C71.4573 65.6301 71.1302 65.275 70.901 64.8221C70.6717 64.3636 70.5571 63.8352 70.5571 63.237C70.5571 62.6387 70.6717 62.1103 70.901 61.6518C71.1302 61.1933 71.4573 60.8355 71.8823 60.5783C72.3072 60.3211 72.816 60.1925 73.4087 60.1925C74.1132 60.1925 74.6891 60.3686 75.1365 60.7208C75.5894 61.0675 75.8717 61.5568 75.9836 62.1886H74.801C74.7283 61.8699 74.5717 61.6211 74.3313 61.4421C74.0965 61.2576 73.7833 61.1654 73.3919 61.1654C72.8496 61.1654 72.4246 61.3499 72.1171 61.7189C71.8096 62.0879 71.6558 62.594 71.6558 63.237C71.6558 63.88 71.8096 64.386 72.1171 64.755C72.4246 65.1185 72.8496 65.3002 73.3919 65.3002C73.7833 65.3002 74.0965 65.2163 74.3313 65.0486C74.5717 64.8752 74.7283 64.6376 74.801 64.3357H75.9836C75.8717 64.9395 75.5894 65.412 75.1365 65.7531C74.6891 66.0942 74.1132 66.2647 73.4087 66.2647ZM77.7726 66.1641V60.2931H78.8461V66.1641H77.7726Z" fill="#F0F0F0"/>
<path d="M62.5729 112.213C62.1605 109.571 61.1535 107.047 59.6227 104.822C58.0509 102.587 55.883 100.804 53.3485 99.6618C52.0716 99.0946 50.7447 98.6391 49.3837 98.3009C48.0087 97.959 46.627 97.5333 45.252 97.1592C44.5722 96.9641 43.9038 96.7337 43.2496 96.4691L41.2472 95.7209C40.5771 95.4729 39.9219 95.1887 39.2848 94.8695L37.3491 93.9601C27.0831 88.817 18.8812 80.5176 14.0371 70.3711C9.19312 60.2246 7.9827 48.8085 10.5969 37.9237C11.2764 35.2346 12.1553 32.5962 13.2267 30.029C14.3365 27.4756 15.6487 25.0087 17.1514 22.6504C18.6899 20.3105 20.4079 18.0855 22.291 15.9941C24.2079 13.9289 26.2805 12.0037 28.4918 10.2344L28.9123 10.7375C19.9557 17.6399 13.6506 27.2432 11.004 38.014C10.3795 40.693 9.96673 43.4141 9.7692 46.1537C9.60269 48.8986 9.6473 51.6516 9.90268 54.3902C10.4597 59.8692 11.9693 65.2181 14.3681 70.2117C19.2278 80.227 27.3971 88.3956 37.5894 93.4312L39.5118 94.3213C40.1406 94.6358 40.7893 94.9115 41.4541 95.1469L43.4565 95.8757C44.1091 96.1317 44.7779 96.3472 45.459 96.5207C46.8339 96.8883 48.1689 97.3011 49.5639 97.6236C50.9724 97.9509 52.3483 98.3976 53.6755 98.9587C55.0201 99.5165 56.2852 100.238 57.4401 101.107C58.0223 101.539 58.5794 102.002 59.1088 102.493C59.6253 103.001 60.1111 103.537 60.5638 104.099C62.3643 106.399 63.692 109.011 64.4752 111.794L62.5729 112.213Z" fill="#F0F0F0"/>
<path d="M45.1581 102.648C43.2558 103.88 41.3802 104.325 40.1187 103.99C40.0119 103.99 39.9718 103.854 40.0319 103.713C40.8929 101.869 42.2827 100.302 44.0367 99.1977C45.9457 97.9657 47.8146 97.5207 49.0762 97.8561C49.1896 97.8561 49.223 97.9915 49.1629 98.127C48.3039 99.9738 46.9138 101.543 45.1581 102.648Z" fill="#F0F0F0"/>
<path d="M48.2824 91.7991C47.3079 89.7996 45.9463 88.4839 44.6847 88.142C44.5713 88.1098 44.4845 88.1872 44.4645 88.3355C44.221 90.3501 44.5825 92.3898 45.5057 94.2113C46.4802 96.2108 47.8419 97.5266 49.1034 97.8749C49.2169 97.8749 49.3036 97.8233 49.3237 97.6814C49.5676 95.6647 49.2062 93.6227 48.2824 91.7991Z" fill="#F0F0F0"/>
<path d="M37.9306 99.6616C36.055 100.552 34.3129 100.739 33.2116 100.307C33.1181 100.268 33.0981 100.158 33.1715 100.042C34.1853 98.4755 35.6422 97.2221 37.3699 96.4302C39.2388 95.5402 40.9876 95.3531 42.0889 95.7853C42.1824 95.824 42.2024 95.9336 42.129 96.0497C41.1152 97.6164 39.6583 98.8698 37.9306 99.6616Z" fill="#F0F0F0"/>
<path d="M42.0949 90.2128C41.4275 88.2778 40.3929 86.9427 39.2915 86.4847C39.1981 86.446 39.1113 86.4848 39.0713 86.6331C38.6006 88.4256 38.6748 90.3111 39.2849 92.0639C39.919 93.9988 40.9869 95.334 42.0882 95.7854C42.1817 95.8306 42.2685 95.7855 42.3085 95.6371C42.779 93.8468 42.7048 91.9633 42.0949 90.2128Z" fill="#F0F0F0"/>
<path d="M31.8498 96.598C29.8941 97.301 28.1386 97.3203 27.0907 96.7656C27.0039 96.7205 26.9906 96.6173 27.0907 96.5077C28.2566 95.0331 29.8368 93.9136 31.6428 93.2827C33.5985 92.5797 35.354 92.5603 36.4019 93.115C36.4887 93.1602 36.4954 93.2634 36.4019 93.373C35.236 94.8476 33.6558 95.9671 31.8498 96.598Z" fill="#F0F0F0"/>
<path d="M36.9687 87.5936C36.5415 85.6199 35.6338 84.1816 34.5725 83.6205C34.479 83.5689 34.3856 83.6205 34.3322 83.743C33.6825 85.4819 33.5621 87.3643 33.9851 89.1674C34.419 91.141 35.32 92.5858 36.388 93.1469C36.4748 93.1921 36.5749 93.1469 36.6216 93.0179C37.2765 91.28 37.397 89.3962 36.9687 87.5936Z" fill="#F0F0F0"/>
<path d="M26.0688 92.612C24.0263 93.0506 22.2842 92.8313 21.3297 92.1476C21.2429 92.0831 21.2563 91.9799 21.3297 91.8832C22.6974 90.5906 24.4215 89.7061 26.2957 89.3354C28.3315 88.8969 30.0736 89.1162 31.0348 89.7998C31.1149 89.8579 31.1082 89.9611 31.0348 90.0643C29.6652 91.3544 27.9419 92.2385 26.0688 92.612Z" fill="#F0F0F0"/>
<path d="M32.4225 84.3818C32.2824 82.3694 31.5681 80.815 30.6203 80.1249C30.5336 80.0668 30.4334 80.1249 30.36 80.2152C29.4692 81.8516 29.0824 83.7004 29.2453 85.5428C29.3855 87.5551 30.0997 89.1095 31.0542 89.7997C31.1343 89.8577 31.2344 89.7997 31.3078 89.7029C32.2013 88.0697 32.5883 86.2222 32.4225 84.3818Z" fill="#F0F0F0"/>
<path d="M14.7823 81.2791C12.6997 81.1307 11.0978 80.4342 10.3903 79.5054C10.3236 79.428 10.3903 79.3312 10.4837 79.2603C12.183 78.4103 14.0978 78.0456 16.0037 78.209C18.0863 78.3638 19.6882 79.0603 20.3957 79.9827C20.4625 80.0601 20.3957 80.1633 20.3023 80.2278C18.6041 81.0808 16.6884 81.4457 14.7823 81.2791Z" fill="#F0F0F0"/>
<path d="M23.3321 75.1845C23.7993 73.2495 23.5857 71.5274 22.8782 70.5986C22.8181 70.5212 22.7113 70.5277 22.6112 70.5986C21.2661 71.9145 20.3396 73.5753 19.9413 75.3844C19.4741 77.3194 19.6943 79.035 20.3952 79.9638C20.4553 80.0412 20.5687 80.0348 20.6688 79.9638C22.0134 78.6511 22.938 76.9918 23.3321 75.1845Z" fill="#F0F0F0"/>
<path d="M19.6278 87.0593C17.5386 87.1238 15.8699 86.6013 15.0556 85.7693C14.9888 85.6984 15.0156 85.5952 15.129 85.5178C16.7125 84.4967 18.5655 83.9349 20.4688 83.8989C22.558 83.8344 24.2267 84.3633 25.0343 85.1888C25.1077 85.2598 25.081 85.363 24.9676 85.4404C23.3845 86.4625 21.5313 87.0243 19.6278 87.0593Z" fill="#F0F0F0"/>
<path d="M27.4502 80.112C27.6972 78.1061 27.2967 76.4549 26.4891 75.5971C26.4223 75.5197 26.3155 75.5391 26.2221 75.6423C25.0318 77.0889 24.2953 78.8347 24.0995 80.6732C23.8592 82.6791 24.2597 84.3302 25.0607 85.1881C25.1341 85.259 25.2409 85.2397 25.3343 85.1429C26.5222 83.6955 27.2564 81.9498 27.4502 80.112Z" fill="#F0F0F0"/>
<path d="M11.2843 75.029C9.42208 74.6034 8.07379 73.7391 7.55984 72.8103C7.51979 72.7264 7.55982 72.6426 7.68664 72.5974C9.35597 72.0641 11.148 72.0014 12.8529 72.4168C14.7151 72.8425 16.0634 73.7068 16.5707 74.6356C16.6174 74.7194 16.5707 74.8033 16.4506 74.8484C14.7812 75.3818 12.9892 75.4445 11.2843 75.029Z" fill="#F0F0F0"/>
<path d="M19.9215 70.688C20.6424 68.9659 20.6958 67.405 20.1952 66.4634C20.1552 66.386 20.055 66.3731 19.9482 66.4634C18.5305 67.4675 17.4415 68.8445 16.8111 70.43C16.0969 72.1522 16.0435 73.7066 16.5374 74.6482C16.5842 74.7321 16.6843 74.7385 16.7911 74.6482C18.2043 73.6439 19.2905 72.2697 19.9215 70.688Z" fill="#F0F0F0"/>
<path d="M8.48793 69.1219C6.67241 68.5285 5.41089 67.561 4.99038 66.5807C4.95701 66.4968 4.99038 66.4194 5.13723 66.3807C6.84943 65.9977 8.6391 66.0939 10.2968 66.658C12.1123 67.2514 13.3738 68.2254 13.7877 69.238C13.8277 69.3218 13.7877 69.3992 13.6475 69.4315C11.9324 69.8074 10.1417 69.7 8.48793 69.1219Z" fill="#F0F0F0"/>
<path d="M17.5386 65.574C18.413 63.9228 18.6132 62.3491 18.2061 61.3945C18.1727 61.3106 18.0726 61.2913 17.9591 61.3558C16.4543 62.231 15.2406 63.5046 14.4616 65.0257C13.5872 66.6705 13.3803 68.2507 13.7941 69.2053C13.8341 69.2891 13.9276 69.302 14.041 69.244C15.547 68.3701 16.7611 67.0961 17.5386 65.574Z" fill="#F0F0F0"/>
<path d="M4.83676 56.1124C3.19478 55.1514 2.16687 53.9323 2 52.8875C2 52.7972 2.06007 52.7327 2.18689 52.7262C3.94363 52.7059 5.66872 53.1787 7.15289 54.0871C8.79487 55.0482 9.82278 56.2607 9.98965 57.3121C9.98965 57.4024 9.92958 57.4669 9.80276 57.4733C8.04688 57.4874 6.32357 57.0151 4.83676 56.1124Z" fill="#F0F0F0"/>
<path d="M14.4681 54.5639C15.6963 53.1385 16.2436 51.6743 16.0701 50.6295C16.0701 50.5392 15.9633 50.5005 15.8365 50.5327C14.1686 51.0682 12.6951 52.0555 11.5913 53.3771C10.3632 54.8025 9.81587 56.2667 9.98941 57.3115C9.98941 57.4018 10.0962 57.4405 10.223 57.4018C11.8892 56.8665 13.3622 55.8818 14.4681 54.5639Z" fill="#F0F0F0"/>
<path d="M6.39807 63.2269C4.60925 62.5819 3.39445 61.5177 3.02734 60.5244C3.02734 60.4341 3.06071 60.3567 3.18753 60.3309C4.91428 60.0235 6.6961 60.2026 8.3204 60.8469C10.1092 61.4919 11.3173 62.5497 11.6578 63.5494C11.6578 63.6397 11.6578 63.7106 11.5042 63.7429C9.78597 64.042 8.01512 63.863 6.39807 63.2269Z" fill="#F0F0F0"/>
<path d="M15.609 60.0987C16.5635 58.4927 16.8505 56.9576 16.4901 55.9579C16.4567 55.8741 16.3632 55.8483 16.2431 55.9063C14.6951 56.709 13.4185 57.9247 12.5653 59.4086C11.6109 61.0146 11.3305 62.5497 11.6843 63.5494C11.6843 63.6397 11.8178 63.659 11.9312 63.6074C13.4792 62.8019 14.7556 61.5841 15.609 60.0987Z" fill="#F0F0F0"/>
<path d="M4.96339 49.282C3.62845 48.25 2.81414 47.0568 2.76074 46.1022C2.76074 46.0184 2.83416 45.9667 2.94763 45.9732C4.53206 46.1361 6.03517 46.7337 7.27952 47.6953C8.61447 48.7273 9.42212 49.9205 9.47551 50.8751C9.47551 50.9589 9.40877 51.0105 9.28862 51.0041C7.70653 50.84 6.20588 50.2425 4.96339 49.282Z" fill="#F0F0F0"/>
<path d="M13.7808 48.8624C15.0357 47.7078 15.6898 46.4437 15.6431 45.4891C15.6431 45.4052 15.563 45.3601 15.4495 45.3794C13.8947 45.6907 12.4651 46.4273 11.3312 47.5015C10.0697 48.656 9.41558 49.9202 9.4623 50.8747C9.4623 50.9586 9.54908 51.0037 9.66255 50.9844C11.2174 50.6731 12.6469 49.9365 13.7808 48.8624Z" fill="#F0F0F0"/>
<path d="M5.44414 43.0703C4.24269 41.9739 3.62193 40.7742 3.66198 39.8454C3.66198 39.7616 3.74207 39.7229 3.84887 39.7422C5.3316 40.0357 6.69606 40.7341 7.78029 41.7546C8.98174 42.851 9.6025 44.0507 9.56245 44.9795C9.56245 45.0569 9.48236 45.0956 9.37556 45.0827C7.89309 44.7885 6.52882 44.0902 5.44414 43.0703Z" fill="#F0F0F0"/>
<path d="M13.8477 43.4583C15.1826 42.4715 15.8901 41.3363 15.9369 40.4204C15.9369 40.343 15.8701 40.2979 15.7566 40.3043C14.2522 40.4609 12.8267 41.0343 11.6517 41.9555C10.3501 42.9359 9.60922 44.0775 9.5625 44.9869C9.5625 45.0643 9.62923 45.1095 9.73603 45.103C11.2415 44.9474 12.6688 44.3764 13.8477 43.4583Z" fill="#F0F0F0"/>
<path d="M6.73918 36.5237C5.75799 35.2337 5.36418 33.9437 5.5711 33.0601C5.5711 32.9827 5.67121 32.9569 5.77133 32.9892C7.18156 33.5306 8.40049 34.4531 9.28225 35.6465C10.2634 36.9365 10.6572 38.2265 10.4503 39.1036C10.4503 39.181 10.3502 39.2133 10.2434 39.1746C8.83552 38.6355 7.6187 37.715 6.73918 36.5237Z" fill="#F0F0F0"/>
<path d="M14.9421 38.33C16.3972 37.5883 17.3317 36.5885 17.5453 35.7049C17.5453 35.6275 17.5052 35.5694 17.3984 35.5565C15.8884 35.4548 14.38 35.775 13.0532 36.4789C11.5914 37.2271 10.657 38.2203 10.4434 39.104C10.4434 39.1814 10.4834 39.2459 10.5969 39.2523C12.1071 39.3566 13.6162 39.0363 14.9421 38.33Z" fill="#F0F0F0"/>
<path d="M8.91477 30.1C8.11381 28.7004 7.89354 27.3782 8.2473 26.5203C8.2473 26.4429 8.36076 26.43 8.46088 26.4752C9.77832 27.1924 10.8572 28.2573 11.5713 29.5453C12.3723 30.9449 12.5925 32.2736 12.2388 33.125C12.2388 33.2024 12.1253 33.2217 12.0252 33.1701C10.7048 32.4567 9.62493 31.3908 8.91477 30.1Z" fill="#F0F0F0"/>
<path d="M16.8038 32.9251C18.3523 32.3639 19.4136 31.4997 19.7407 30.6418C19.7741 30.5709 19.7407 30.5064 19.6139 30.4806C18.1306 30.1894 16.592 30.3171 15.1818 30.8482C13.6266 31.4029 12.572 32.2736 12.2383 33.125C12.2383 33.2024 12.2383 33.2669 12.3718 33.2927C13.855 33.5839 15.3936 33.4562 16.8038 32.9251Z" fill="#F0F0F0"/>
<path d="M11.8592 24.3143C11.3185 22.9727 11.2852 21.7344 11.679 21.0313C11.7123 20.9733 11.7858 20.9668 11.8725 21.0313C12.9659 21.8219 13.802 22.8984 14.2821 24.1337C14.8228 25.4753 14.8561 26.7137 14.4623 27.4167C14.429 27.4812 14.3489 27.4812 14.2688 27.4167C13.1754 26.6262 12.3393 25.5496 11.8592 24.3143Z" fill="#F0F0F0"/>
<path d="M18.5667 27.7393C20.0218 27.4168 21.0764 26.7654 21.4769 26.0366C21.5102 25.9721 21.4769 25.9076 21.3767 25.8753C20.0872 25.4447 18.6962 25.3842 17.3719 25.7012C15.9168 26.0237 14.8622 26.6751 14.4617 27.4039C14.4284 27.462 14.4617 27.5329 14.5619 27.5652C15.852 27.9926 17.242 28.053 18.5667 27.7393Z" fill="#F0F0F0"/>
<path d="M15.5162 18.9679C15.2024 17.5618 15.376 16.3879 15.8899 15.7042C15.93 15.6462 16.0101 15.6526 16.0835 15.7042C17.0369 16.6603 17.6876 17.8598 17.9591 19.1614C18.2728 20.5674 18.0993 21.7413 17.5853 22.425C17.5453 22.483 17.4652 22.4766 17.3917 22.425C16.4371 21.4698 15.7862 20.2699 15.5162 18.9679Z" fill="#F0F0F0"/>
<path d="M21.5628 23.4315C23.0513 23.3412 24.2327 22.8575 24.72 22.2061C24.76 22.148 24.72 22.0771 24.6465 22.0255C23.4445 21.4014 22.0823 21.1238 20.7218 21.2257C19.2334 21.316 18.0853 21.7997 17.5647 22.4511C17.5246 22.5092 17.5647 22.5801 17.6381 22.6253C18.8395 23.2516 20.2017 23.5314 21.5628 23.4315Z" fill="#F0F0F0"/>
<path d="M18.9007 14.9685C18.7813 14.4715 18.7677 13.9562 18.8607 13.454C18.9536 12.9517 19.1512 12.473 19.4414 12.0467C19.4814 11.9951 19.5548 12.008 19.6149 12.0467C20.4105 12.9643 20.9156 14.0839 21.07 15.2717C21.1878 15.7688 21.2006 16.2838 21.1077 16.7858C21.0148 17.2878 20.8181 17.7666 20.5293 18.1935C20.4826 18.2451 20.4159 18.2322 20.3558 18.1935C19.5589 17.2766 19.0536 16.1566 18.9007 14.9685Z" fill="#F0F0F0"/>
<path d="M24.0667 19.3161C24.5927 19.3617 25.1229 19.3041 25.6253 19.1467C26.1277 18.9893 26.592 18.7354 26.9902 18.4002C27.0303 18.3551 26.9903 18.2841 26.9369 18.239C25.8925 17.6028 24.6804 17.2713 23.446 17.2844C22.921 17.2393 22.392 17.2972 21.8908 17.4545C21.3895 17.6119 20.9264 17.8656 20.5291 18.2003C20.4824 18.2519 20.5291 18.3164 20.5758 18.3615C21.6202 18.9977 22.8323 19.3291 24.0667 19.3161Z" fill="#F0F0F0"/>
<path d="M22.6718 11.1747C22.5759 10.6734 22.5856 10.1586 22.7003 9.66099C22.815 9.1634 23.0323 8.69327 23.3393 8.27868C23.386 8.23353 23.4527 8.24643 23.5128 8.31093C24.2595 9.25928 24.7109 10.3936 24.8144 11.581C24.9118 12.0822 24.9029 12.5974 24.7882 13.0952C24.6734 13.593 24.4553 14.0631 24.1469 14.477C24.1002 14.5222 24.0334 14.5093 23.9734 14.4448C23.2228 13.4985 22.7708 12.3631 22.6718 11.1747Z" fill="#F0F0F0"/>
<path d="M27.6237 15.7557C28.1466 15.8252 28.6786 15.7919 29.1879 15.6578C29.6972 15.5237 30.1732 15.2915 30.5873 14.9753C30.6273 14.9237 30.5873 14.8592 30.5405 14.8076C29.528 14.1278 28.3351 13.7428 27.1031 13.6982C26.5797 13.6311 26.0477 13.6661 25.5387 13.8013C25.0296 13.9364 24.5538 14.169 24.1395 14.4851C24.0928 14.5302 24.1395 14.6012 24.1862 14.6528C25.1987 15.3316 26.3921 15.7144 27.6237 15.7557Z" fill="#F0F0F0"/>
<path d="M30.9154 10.0861C31.9032 9.19598 32.3638 8.1898 32.2503 7.40292C32.2503 7.33197 32.1702 7.29327 32.0768 7.30617C30.8234 7.47846 29.6568 8.02406 28.7394 8.86704C28.3188 9.18678 27.9797 9.59553 27.7483 10.0618C27.5168 10.5281 27.3992 11.0395 27.4045 11.5566C27.4045 11.6211 27.4846 11.6598 27.5847 11.6534C28.8362 11.4772 30.0001 10.9295 30.9154 10.0861Z" fill="#F0F0F0"/>
<path d="M91.5415 10.7178C93.7528 12.4871 95.8254 14.4123 97.7424 16.4775C99.6254 18.5689 101.343 20.7939 102.882 23.1338C104.385 25.4962 105.697 27.9674 106.807 30.5253C107.878 33.0925 108.757 35.7309 109.436 38.42C112.049 49.3008 110.84 60.7124 106 70.8559C101.16 80.9994 92.9639 89.298 82.7042 94.4435L80.7686 95.3529C80.1327 95.6726 79.4774 95.9548 78.8062 96.1979L76.8038 96.9525C76.151 97.2187 75.4823 97.447 74.8013 97.6362C73.4264 98.0167 72.0447 98.4424 70.6764 98.7843C69.3128 99.1214 67.9836 99.5769 66.7049 100.145C64.1717 101.289 62.0043 103.072 60.4307 105.305C58.8989 107.53 57.8918 110.054 57.4804 112.697L55.5781 112.271C56.3741 109.512 57.706 106.925 59.5029 104.647C59.9556 104.085 60.4415 103.549 60.958 103.041C61.4873 102.55 62.0444 102.087 62.6267 101.654C63.7824 100.788 65.0474 100.066 66.3912 99.5067C67.7184 98.9455 69.0943 98.4988 70.5028 98.1715C71.8978 97.849 73.2328 97.4362 74.6078 97.0686C75.2884 96.8938 75.9572 96.6784 76.6102 96.4236L78.6126 95.6948C79.2791 95.4582 79.93 95.1825 80.5616 94.8692L82.4773 93.9791C92.6759 88.9365 100.846 80.7555 105.699 70.7273C108.075 65.7157 109.553 60.3506 110.071 54.8607C110.344 52.1321 110.411 49.3879 110.271 46.65C110.07 43.9108 109.657 41.1899 109.036 38.5103C106.384 27.7416 100.08 18.1399 91.1277 11.2338L91.5415 10.7178Z" fill="#F0F0F0"/>
<path d="M74.8414 103.105C76.7504 104.337 78.6193 104.782 79.8808 104.447C79.9943 104.447 80.0277 104.311 79.9676 104.17C79.1088 102.324 77.7185 100.757 75.9628 99.6547C74.0605 98.4228 72.1849 97.9777 70.9234 98.3131C70.8166 98.3131 70.7765 98.4486 70.8366 98.584C71.6956 100.431 73.0857 102 74.8414 103.105Z" fill="#F0F0F0"/>
<path d="M71.7169 92.2446C72.6914 90.2451 74.0597 88.9293 75.3146 88.5811C75.4281 88.5811 75.5148 88.6327 75.5415 88.7746C75.7797 90.7918 75.4161 92.8327 74.4936 94.6568C73.5191 96.6563 72.1574 97.9721 70.8959 98.3204C70.7891 98.3204 70.6957 98.2688 70.6757 98.1269C70.4317 96.1102 70.7931 94.0682 71.7169 92.2446Z" fill="#F0F0F0"/>
<path d="M82.0697 100.119C83.9453 101.009 85.6874 101.196 86.7888 100.764C86.8822 100.725 86.9022 100.622 86.8355 100.506C85.8199 98.9384 84.3606 97.6849 82.6304 96.8941C80.7615 96.004 79.0127 95.817 77.918 96.2491C77.8179 96.2878 77.8046 96.391 77.8713 96.5136C78.8861 98.0779 80.3429 99.3289 82.0697 100.119Z" fill="#F0F0F0"/>
<path d="M77.9049 90.6708C78.539 88.7358 79.6136 87.4007 80.7083 86.9428C80.8017 86.9041 80.8885 86.9428 80.9285 87.0911C81.3992 88.8836 81.325 90.7691 80.7149 92.5219C80.0808 94.4568 79.0129 95.792 77.9182 96.2435C77.8181 96.2822 77.7313 96.2435 77.6913 96.0951C77.2208 94.3048 77.295 92.4214 77.9049 90.6708Z" fill="#F0F0F0"/>
<path d="M88.1502 97.056C90.1059 97.759 91.8613 97.7784 92.9092 97.2237C93.0027 97.1785 93.0094 97.0753 92.9092 96.9657C91.7388 95.503 90.159 94.395 88.3571 93.773C86.4014 93.0699 84.6393 93.0506 83.598 93.5988C83.5046 93.6504 83.4979 93.7536 83.598 93.8633C84.7685 95.326 86.3482 96.4339 88.1502 97.056Z" fill="#F0F0F0"/>
<path d="M83.031 88.0516C83.4649 86.0779 84.3659 84.6332 85.4339 84.0785C85.5207 84.0269 85.6141 84.0785 85.6675 84.201C86.3172 85.94 86.4376 87.8223 86.0146 89.6254C85.5874 91.599 84.6797 93.0438 83.6184 93.5985C83.5249 93.6501 83.4315 93.5985 83.3781 93.4759C82.7284 91.737 82.608 89.8546 83.031 88.0516Z" fill="#F0F0F0"/>
<path d="M93.9311 93.0895C95.9736 93.5281 97.7157 93.3088 98.6701 92.6252C98.7569 92.5607 98.7502 92.4575 98.6701 92.3607C97.31 91.0554 95.5873 90.1592 93.7108 89.7808C91.6684 89.3422 89.9263 89.5615 88.9718 90.2451C88.885 90.3032 88.8917 90.4064 88.9718 90.5096C90.3353 91.8104 92.0566 92.7059 93.9311 93.0895Z" fill="#F0F0F0"/>
<path d="M87.5769 84.8406C87.7171 82.8283 88.4313 81.2739 89.3857 80.5837C89.4658 80.5192 89.566 80.5837 89.6394 80.674C90.5302 82.3105 90.917 84.1593 90.7541 86.0016C90.6139 88.014 89.8997 89.5619 88.9519 90.2585C88.8651 90.3166 88.765 90.2585 88.6916 90.1618C87.8021 88.5272 87.4153 86.6808 87.5769 84.8406Z" fill="#F0F0F0"/>
<path d="M105.217 81.7369C107.3 81.5885 108.902 80.892 109.616 79.9632C109.676 79.8858 109.616 79.789 109.516 79.7181C107.819 78.8686 105.907 78.5039 104.003 78.6668C101.92 78.8216 100.318 79.5181 99.604 80.4405C99.544 80.5179 99.604 80.6211 99.7042 80.6856C101.4 81.5374 103.314 81.9022 105.217 81.7369Z" fill="#F0F0F0"/>
<path d="M96.6676 75.636C96.2003 73.7011 96.4139 71.9854 97.1215 71.0566C97.1815 70.9792 97.2883 70.9857 97.3951 71.0566C98.7402 72.3725 99.6667 74.0334 100.065 75.8424C100.532 77.7774 100.312 79.4931 99.6111 80.4218C99.551 80.4992 99.4376 80.4928 99.3375 80.4218C97.9924 79.106 97.0658 77.4451 96.6676 75.636Z" fill="#F0F0F0"/>
<path d="M100.378 87.5173C102.461 87.5818 104.13 87.0529 104.944 86.2273C105.011 86.1564 104.984 86.0532 104.87 85.9758C103.287 84.9547 101.434 84.3929 99.5306 84.3569C97.4414 84.2924 95.7728 84.8213 94.9651 85.6468C94.8917 85.7178 94.9251 85.821 95.0319 85.8984C96.6183 86.9187 98.4731 87.4803 100.378 87.5173Z" fill="#F0F0F0"/>
<path d="M92.5493 80.5642C92.3024 78.5647 92.7095 76.9135 93.5105 76.0493C93.5772 75.9719 93.684 75.9912 93.7775 76.0944C94.9677 77.541 95.7043 79.2868 95.9 81.1253C96.1403 83.1312 95.7398 84.7824 94.9389 85.6402C94.8655 85.7112 94.7587 85.6918 94.6719 85.5951C93.4816 84.1484 92.7451 82.4026 92.5493 80.5642Z" fill="#F0F0F0"/>
<path d="M108.736 75.4811C110.605 75.0554 111.953 74.1911 112.46 73.2623C112.5 73.1785 112.46 73.0946 112.333 73.0495C110.666 72.5163 108.877 72.4536 107.174 72.8689C105.305 73.2946 103.957 74.1588 103.449 75.0876C103.403 75.1715 103.449 75.2553 103.576 75.3005C105.243 75.834 107.033 75.8967 108.736 75.4811Z" fill="#F0F0F0"/>
<path d="M100.058 71.1597C99.3438 69.4376 99.2838 67.8767 99.7844 66.935C99.8311 66.8577 99.9245 66.8448 100.031 66.935C101.45 67.9379 102.54 69.3152 103.168 70.9017C103.883 72.6238 103.943 74.1782 103.442 75.1199C103.395 75.2038 103.295 75.2102 103.188 75.1199C101.777 74.1138 100.691 72.7402 100.058 71.1597Z" fill="#F0F0F0"/>
<path d="M111.512 69.5793C113.327 68.9859 114.589 68.0184 115.009 67.0381C115.043 66.9542 115.009 66.8768 114.862 66.8381C113.15 66.4519 111.36 66.5481 109.703 67.1155C107.887 67.7088 106.626 68.6828 106.212 69.6567C106.172 69.747 106.212 69.8244 106.359 69.8567C108.068 70.2427 109.857 70.1465 111.512 69.5793Z" fill="#F0F0F0"/>
<path d="M102.468 66.032C101.587 64.3808 101.387 62.8071 101.8 61.8525C101.8 61.7686 101.934 61.7493 102.047 61.8138C103.554 62.6871 104.768 63.9612 105.545 65.4838C106.419 67.1285 106.626 68.7087 106.212 69.6568C106.172 69.7471 106.079 69.76 105.965 69.702C104.458 68.8304 103.243 67.5558 102.468 66.032Z" fill="#F0F0F0"/>
<path d="M115.164 56.5704C116.806 55.6093 117.834 54.3903 118 53.3454C118 53.2551 117.94 53.1906 117.813 53.1842C116.058 53.1646 114.333 53.6349 112.848 54.5387C111.206 55.5061 110.178 56.7187 110.011 57.7636C110.011 57.8539 110.071 57.9184 110.198 57.9248C111.953 57.9408 113.676 57.4708 115.164 56.5704Z" fill="#F0F0F0"/>
<path d="M105.532 55.0356C104.304 53.6101 103.756 52.146 103.93 51.1011C103.93 51.0108 104.037 50.9721 104.163 51.0044C105.832 51.5382 107.306 52.5258 108.409 53.8488C109.637 55.2678 110.184 56.7383 110.011 57.7832C110.011 57.8735 109.904 57.9122 109.777 57.8735C108.111 57.3382 106.638 56.3535 105.532 55.0356Z" fill="#F0F0F0"/>
<path d="M113.608 63.685C115.39 63.04 116.605 61.9758 116.945 60.9825C116.978 60.8922 116.945 60.8148 116.791 60.789C115.062 60.4815 113.278 60.6606 111.652 61.305C109.863 61.95 108.655 63.0078 108.315 64.0075C108.281 64.0914 108.315 64.1688 108.468 64.201C110.197 64.5053 111.98 64.3263 113.608 63.685Z" fill="#F0F0F0"/>
<path d="M104.39 60.5567C103.435 58.9507 103.155 57.4156 103.508 56.4159C103.542 56.3321 103.642 56.3063 103.755 56.3643C105.303 57.167 106.58 58.3827 107.433 59.8666C108.388 61.4726 108.668 63.0077 108.314 64.0074C108.281 64.0913 108.181 64.1171 108.067 64.0655C106.521 63.2581 105.245 62.0408 104.39 60.5567Z" fill="#F0F0F0"/>
<path d="M115.044 49.74C116.412 48.708 117.186 47.5148 117.24 46.5602C117.24 46.4764 117.173 46.4248 117.053 46.4312C115.476 46.5998 113.981 47.1969 112.741 48.1533C111.373 49.1853 110.598 50.3785 110.545 51.3331C110.545 51.417 110.612 51.4686 110.732 51.4621C112.309 51.2935 113.804 50.6964 115.044 49.74Z" fill="#F0F0F0"/>
<path d="M106.219 49.3149C104.964 48.1604 104.31 46.9027 104.357 45.9481C104.357 45.8642 104.437 45.8191 104.55 45.8384C106.105 46.1441 107.536 46.8738 108.675 47.9411C109.93 49.0956 110.584 50.3598 110.538 51.3144C110.538 51.3982 110.458 51.4434 110.344 51.424C108.788 51.1172 107.357 50.3851 106.219 49.3149Z" fill="#F0F0F0"/>
<path d="M114.556 43.5284C115.757 42.4319 116.378 41.2323 116.338 40.3035C116.338 40.2196 116.258 40.1809 116.151 40.1938C114.669 40.4942 113.306 41.1942 112.22 42.2126C111.025 43.3091 110.397 44.5088 110.437 45.4376C110.437 45.515 110.517 45.5537 110.624 45.5408C112.107 45.2466 113.471 44.5483 114.556 43.5284Z" fill="#F0F0F0"/>
<path d="M106.153 43.9153C104.851 42.9285 104.117 41.7933 104.063 40.8774C104.063 40.8001 104.13 40.7549 104.244 40.7614C105.748 40.9179 107.174 41.4913 108.349 42.4125C109.65 43.3929 110.391 44.5281 110.438 45.444C110.438 45.5213 110.371 45.5665 110.264 45.56C108.759 45.4033 107.332 44.8325 106.153 43.9153Z" fill="#F0F0F0"/>
<path d="M113.261 36.9757C114.242 35.6858 114.636 34.3958 114.429 33.5122C114.429 33.4348 114.329 33.4025 114.228 33.4412C112.823 33.985 111.611 34.9101 110.738 36.105C109.756 37.395 109.356 38.6849 109.563 39.5621C109.563 39.6395 109.663 39.6718 109.77 39.6331C111.172 39.0879 112.384 38.1657 113.261 36.9757Z" fill="#F0F0F0"/>
<path d="M105.065 38.7873C103.603 38.0456 102.669 37.0459 102.455 36.1623C102.455 36.0849 102.495 36.0268 102.602 36.0139C104.112 35.9081 105.622 36.2286 106.947 36.9362C108.409 37.678 109.343 38.6777 109.557 39.5613C109.557 39.6387 109.517 39.7032 109.41 39.7097C107.9 39.8155 106.39 39.495 105.065 38.7873Z" fill="#F0F0F0"/>
<path d="M111.085 30.558C111.886 29.1584 112.106 27.8362 111.752 26.9783C111.752 26.9009 111.639 26.888 111.546 26.9332C110.223 27.6463 109.141 28.7121 108.428 30.0033C107.627 31.403 107.414 32.7252 107.761 33.583C107.761 33.6604 107.874 33.6733 107.975 33.6282C109.293 32.9126 110.373 31.8473 111.085 30.558Z" fill="#F0F0F0"/>
<path d="M103.196 33.3829C101.647 32.8218 100.593 31.9575 100.259 31.0997C100.259 31.0287 100.259 30.9578 100.392 30.932C101.876 30.6465 103.414 30.7763 104.824 31.3061C106.373 31.8608 107.434 32.7315 107.761 33.5829C107.761 33.6603 107.761 33.7248 107.634 33.7506C106.149 34.0386 104.609 33.9111 103.196 33.3829Z" fill="#F0F0F0"/>
<path d="M108.141 24.7723C108.688 23.4308 108.722 22.1924 108.328 21.4893C108.288 21.4313 108.214 21.4248 108.128 21.4893C107.034 22.2784 106.2 23.3557 105.725 24.5917C105.177 25.9333 105.144 27.1717 105.538 27.8747C105.571 27.9328 105.651 27.9392 105.731 27.8747C106.827 27.0863 107.664 26.009 108.141 24.7723Z" fill="#F0F0F0"/>
<path d="M101.433 28.1973C99.9783 27.8749 98.9237 27.2234 98.5233 26.4946C98.4899 26.4301 98.5233 26.3656 98.6234 26.3333C99.9129 25.9027 101.304 25.8422 102.628 26.1592C104.083 26.4752 105.138 27.1331 105.538 27.862C105.572 27.92 105.538 27.9909 105.445 28.0232C104.152 28.4504 102.76 28.5109 101.433 28.1973Z" fill="#F0F0F0"/>
<path d="M104.484 19.4259C104.798 18.0198 104.624 16.8459 104.117 16.1622C104.07 16.1042 103.99 16.1106 103.917 16.1622C102.969 17.1199 102.325 18.3195 102.061 19.6194C101.754 21.0254 101.921 22.1993 102.435 22.883C102.475 22.9411 102.555 22.9346 102.628 22.883C103.578 21.9271 104.222 20.7267 104.484 19.4259Z" fill="#F0F0F0"/>
<path d="M98.4369 23.8632C96.9485 23.7729 95.8004 23.2891 95.2865 22.6377C95.2397 22.5796 95.2865 22.5087 95.3532 22.4571C96.5553 21.833 97.9174 21.5554 99.2779 21.6573C100.766 21.7476 101.914 22.2314 102.435 22.8828C102.482 22.9408 102.435 23.0118 102.368 23.0569C101.164 23.6831 99.8002 23.9629 98.4369 23.8632Z" fill="#F0F0F0"/>
<path d="M101.099 15.4265C101.219 14.9295 101.232 14.4143 101.14 13.912C101.047 13.4098 100.849 12.931 100.559 12.5047C100.519 12.4531 100.445 12.466 100.385 12.5047C99.591 13.4231 99.086 14.5423 98.9302 15.7297C98.8139 16.2269 98.8018 16.7416 98.8947 17.2434C98.9876 17.7452 99.1835 18.224 99.4709 18.6515C99.5176 18.6966 99.5843 18.6902 99.6444 18.6515C100.444 17.7362 100.95 16.6154 101.099 15.4265Z" fill="#F0F0F0"/>
<path d="M95.9333 19.7741C95.4083 19.8192 94.8793 19.7613 94.3781 19.6039C93.8768 19.4466 93.4137 19.1929 93.0164 18.8582C92.9697 18.8066 93.0164 18.7421 93.0631 18.697C94.1075 18.0608 95.3196 17.7293 96.554 17.7424C97.079 17.6973 97.608 17.7552 98.1092 17.9126C98.6105 18.0699 99.0736 18.3236 99.4709 18.6583C99.5176 18.7034 99.4709 18.7744 99.4241 18.8195C98.3798 19.4557 97.1677 19.7872 95.9333 19.7741Z" fill="#F0F0F0"/>
<path d="M97.3353 11.6405C97.4296 11.1392 97.4191 10.6247 97.3045 10.1273C97.1899 9.62992 96.9734 9.15976 96.6678 8.7445C96.6211 8.69935 96.5543 8.71225 96.4942 8.77675C95.7476 9.7251 95.2961 10.8594 95.1927 12.0468C95.0983 12.5482 95.1088 13.0627 95.2234 13.56C95.338 14.0574 95.5545 14.5276 95.8601 14.9428C95.9069 14.988 95.9736 14.9751 96.0337 14.9106C96.7813 13.9628 97.2329 12.8281 97.3353 11.6405Z" fill="#F0F0F0"/>
<path d="M92.3758 16.213C91.8534 16.2815 91.3222 16.2471 90.814 16.1119C90.3058 15.9766 89.8312 15.7434 89.4189 15.4262C89.3721 15.381 89.3855 15.3165 89.4589 15.2649C90.4714 14.5852 91.6644 14.2001 92.8964 14.1555C93.4197 14.088 93.9518 14.1229 94.4609 14.2581C94.97 14.3933 95.4458 14.626 95.86 14.9424C95.9067 14.9876 95.86 15.0521 95.8199 15.1101C94.8048 15.7888 93.6094 16.1716 92.3758 16.213Z" fill="#F0F0F0"/>
<path d="M89.085 10.5294C88.1039 9.63934 87.6366 8.63316 87.7501 7.84628C87.7501 7.77533 87.8302 7.73663 87.9236 7.74953C89.1786 7.91676 90.3467 8.46308 91.261 9.3104C91.6811 9.62914 92.0199 10.0368 92.2514 10.502C92.4828 10.9671 92.6007 11.4774 92.5959 11.9935C92.5959 12.0645 92.5158 12.1032 92.4157 12.0967C91.1642 11.9205 90.0003 11.3728 89.085 10.5294Z" fill="#F0F0F0"/>
</g>
</svg>
