<svg width="120" height="120" viewBox="0 0 120 120" fill="none" xmlns="http://www.w3.org/2000/svg">
<g opacity="0.6">
<mask id="path-1-inside-1_682_7691" fill="white">
<path d="M114.281 54.1023C112.969 52.9641 112.073 51.4219 111.734 49.7185C111.395 48.0151 111.632 46.2474 112.408 44.6937C112.909 43.6906 113.189 42.5913 113.227 41.4707C113.266 40.35 113.063 39.2342 112.632 38.199C112.201 37.1639 111.552 36.2336 110.73 35.4714C109.907 34.7092 108.93 34.1329 107.865 33.7818C106.229 33.2235 104.823 32.1383 103.868 30.6959C102.914 29.2535 102.465 27.5355 102.591 25.8105C102.671 24.6926 102.51 23.5704 102.119 22.5202C101.728 21.4699 101.115 20.516 100.323 19.7231C99.5306 18.9302 98.5772 18.317 97.5272 17.9248C96.4772 17.5327 95.3552 17.3708 94.2372 17.4503C92.5055 17.5742 90.7818 17.1177 89.3383 16.153C87.8949 15.1883 86.8139 13.7703 86.2659 12.1229C85.9112 11.0601 85.3322 10.0859 84.5682 9.26636C83.8041 8.44681 82.8729 7.80102 81.8375 7.37275C80.8021 6.94447 79.6868 6.74369 78.5671 6.78403C77.4473 6.82436 76.3494 7.10486 75.3475 7.60652C73.791 8.39037 72.0174 8.63184 70.308 8.2926C68.5987 7.95336 67.0517 7.05285 65.9125 5.73403C65.1785 4.8876 64.2711 4.20879 63.2519 3.74357C62.2326 3.27836 61.1253 3.0376 60.0049 3.0376C58.8846 3.0376 57.7772 3.27836 56.758 3.74357C55.7388 4.20879 54.8314 4.8876 54.0974 5.73403C52.9592 7.04587 51.417 7.94183 49.7136 8.28084C48.0102 8.61984 46.2425 8.38261 44.6888 7.60652C43.6872 7.10601 42.5898 6.82644 41.4708 6.78671C40.3519 6.74698 39.2374 6.94801 38.2029 7.37621C37.1683 7.80441 36.2378 8.44979 35.4742 9.26871C34.7106 10.0876 34.1318 11.061 33.7769 12.1229C33.229 13.7703 32.148 15.1883 30.7045 16.153C29.261 17.1177 27.5374 17.5742 25.8057 17.4503C24.6874 17.371 23.5651 17.5328 22.5148 17.9249C21.4645 18.317 20.5107 18.9302 19.718 19.7229C18.9253 20.5156 18.3121 21.4694 17.92 22.5197C17.5279 23.57 17.3661 24.6923 17.4454 25.8105C17.5693 27.5423 17.1128 29.2659 16.1481 30.7094C15.1834 32.1528 13.7654 33.2339 12.118 33.7818C11.0561 34.1367 10.0827 34.7155 9.26382 35.4791C8.44491 36.2426 7.79953 37.1732 7.37133 38.2077C6.94313 39.2423 6.74209 40.3568 6.78183 41.4757C6.82156 42.5947 7.10113 43.6921 7.60163 44.6937C8.37773 46.2474 8.61496 48.0151 8.27595 49.7185C7.93695 51.4219 7.04098 52.9641 5.72915 54.1023C4.88272 54.8363 4.20391 55.7437 3.73869 56.7629C3.27348 57.7821 3.03271 58.8894 3.03271 60.0098C3.03271 61.1302 3.27348 62.2375 3.73869 63.2568C4.20391 64.276 4.88272 65.1834 5.72915 65.9174C7.04044 67.0545 7.93616 68.5956 8.27517 70.2978C8.61418 72 8.37723 73.7667 7.60163 75.3194C7.09997 76.3213 6.81948 77.4193 6.77914 78.539C6.73881 79.6587 6.93958 80.774 7.36786 81.8094C7.79614 82.8448 8.44193 83.776 9.26148 84.5401C10.081 85.3041 11.0552 85.8831 12.118 86.2379C13.7654 86.7858 15.1834 87.8668 16.1481 89.3103C17.1128 90.7537 17.5693 92.4774 17.4454 94.2091C17.361 95.3298 17.5191 96.4554 17.909 97.5095C18.299 98.5635 18.9115 99.5211 19.7049 100.317C20.4983 101.113 21.454 101.728 22.5068 102.122C23.5596 102.515 24.6847 102.677 25.8057 102.596C27.5306 102.47 29.2487 102.919 30.691 103.873C32.1334 104.828 33.2186 106.233 33.7769 107.87C34.1302 108.934 34.7079 109.908 35.4711 110.729C36.2342 111.549 37.1647 112.195 38.1997 112.624C39.2346 113.053 40.3497 113.255 41.4694 113.215C42.589 113.175 43.687 112.895 44.6888 112.393C46.2425 111.617 48.0102 111.38 49.7136 111.719C51.417 112.058 52.9592 112.954 54.0974 114.266C54.8314 115.112 55.7388 115.791 56.758 116.256C57.7772 116.722 58.8846 116.962 60.0049 116.962C61.1253 116.962 62.2326 116.722 63.2519 116.256C64.2711 115.791 65.1785 115.112 65.9125 114.266C67.0496 112.955 68.5907 112.059 70.2929 111.72C71.9951 111.381 73.7618 111.618 75.3145 112.393C76.3168 112.895 77.4152 113.175 78.5353 113.215C79.6554 113.255 80.7709 113.054 81.8064 112.625C82.8418 112.196 83.773 111.549 84.5367 110.729C85.3005 109.909 85.8789 108.934 86.233 107.87C86.7913 106.233 87.8765 104.828 89.3189 103.873C90.7612 102.919 92.4793 102.47 94.2042 102.596C95.3275 102.682 96.4561 102.524 97.5127 102.133C98.5692 101.742 99.5287 101.127 100.325 100.33C101.122 99.5336 101.737 98.5741 102.128 97.5175C102.519 96.461 102.677 95.3324 102.591 94.2091C102.465 92.4842 102.914 90.7661 103.868 89.3237C104.823 87.8814 106.229 86.7962 107.865 86.2379C108.929 85.8838 109.904 85.3053 110.724 84.5416C111.544 83.7779 112.191 82.8467 112.62 81.8113C113.049 80.7758 113.25 79.6602 113.21 78.5402C113.17 77.4201 112.89 76.3217 112.388 75.3194C111.613 73.7667 111.376 72 111.715 70.2978C112.054 68.5956 112.95 67.0545 114.261 65.9174C115.109 65.1848 115.789 64.2785 116.256 63.2601C116.723 62.2416 116.965 61.1347 116.967 60.0143C116.969 58.894 116.73 57.7862 116.267 56.7662C115.803 55.7462 115.126 54.8377 114.281 54.1023ZM60.0049 110.145C50.1997 110.146 40.6143 107.24 32.4609 101.793C24.3075 96.3468 17.9523 88.6048 14.1991 79.5463C10.4459 70.4878 9.46321 60.5197 11.3753 50.9027C13.2874 41.2857 18.0084 32.4517 24.9413 25.5179C31.8742 18.5841 40.7076 13.8619 50.3244 11.9485C59.9411 10.0351 69.9093 11.0165 78.9683 14.7685C88.0273 18.5205 95.7702 24.8746 101.218 33.0273C106.665 41.18 109.573 50.765 109.573 60.5703C109.564 73.7114 104.338 86.3115 95.0437 95.6013C85.749 104.891 73.1461 110.11 60.0049 110.112V110.145Z"/>
</mask>
<path d="M114.281 54.1023C112.969 52.9641 112.073 51.4219 111.734 49.7185C111.395 48.0151 111.632 46.2474 112.408 44.6937C112.909 43.6906 113.189 42.5913 113.227 41.4707C113.266 40.35 113.063 39.2342 112.632 38.199C112.201 37.1639 111.552 36.2336 110.73 35.4714C109.907 34.7092 108.93 34.1329 107.865 33.7818C106.229 33.2235 104.823 32.1383 103.868 30.6959C102.914 29.2535 102.465 27.5355 102.591 25.8105C102.671 24.6926 102.51 23.5704 102.119 22.5202C101.728 21.4699 101.115 20.516 100.323 19.7231C99.5306 18.9302 98.5772 18.317 97.5272 17.9248C96.4772 17.5327 95.3552 17.3708 94.2372 17.4503C92.5055 17.5742 90.7818 17.1177 89.3383 16.153C87.8949 15.1883 86.8139 13.7703 86.2659 12.1229C85.9112 11.0601 85.3322 10.0859 84.5682 9.26636C83.8041 8.44681 82.8729 7.80102 81.8375 7.37275C80.8021 6.94447 79.6868 6.74369 78.5671 6.78403C77.4473 6.82436 76.3494 7.10486 75.3475 7.60652C73.791 8.39037 72.0174 8.63184 70.308 8.2926C68.5987 7.95336 67.0517 7.05285 65.9125 5.73403C65.1785 4.8876 64.2711 4.20879 63.2519 3.74357C62.2326 3.27836 61.1253 3.0376 60.0049 3.0376C58.8846 3.0376 57.7772 3.27836 56.758 3.74357C55.7388 4.20879 54.8314 4.8876 54.0974 5.73403C52.9592 7.04587 51.417 7.94183 49.7136 8.28084C48.0102 8.61984 46.2425 8.38261 44.6888 7.60652C43.6872 7.10601 42.5898 6.82644 41.4708 6.78671C40.3519 6.74698 39.2374 6.94801 38.2029 7.37621C37.1683 7.80441 36.2378 8.44979 35.4742 9.26871C34.7106 10.0876 34.1318 11.061 33.7769 12.1229C33.229 13.7703 32.148 15.1883 30.7045 16.153C29.261 17.1177 27.5374 17.5742 25.8057 17.4503C24.6874 17.371 23.5651 17.5328 22.5148 17.9249C21.4645 18.317 20.5107 18.9302 19.718 19.7229C18.9253 20.5156 18.3121 21.4694 17.92 22.5197C17.5279 23.57 17.3661 24.6923 17.4454 25.8105C17.5693 27.5423 17.1128 29.2659 16.1481 30.7094C15.1834 32.1528 13.7654 33.2339 12.118 33.7818C11.0561 34.1367 10.0827 34.7155 9.26382 35.4791C8.44491 36.2426 7.79953 37.1732 7.37133 38.2077C6.94313 39.2423 6.74209 40.3568 6.78183 41.4757C6.82156 42.5947 7.10113 43.6921 7.60163 44.6937C8.37773 46.2474 8.61496 48.0151 8.27595 49.7185C7.93695 51.4219 7.04098 52.9641 5.72915 54.1023C4.88272 54.8363 4.20391 55.7437 3.73869 56.7629C3.27348 57.7821 3.03271 58.8894 3.03271 60.0098C3.03271 61.1302 3.27348 62.2375 3.73869 63.2568C4.20391 64.276 4.88272 65.1834 5.72915 65.9174C7.04044 67.0545 7.93616 68.5956 8.27517 70.2978C8.61418 72 8.37723 73.7667 7.60163 75.3194C7.09997 76.3213 6.81948 77.4193 6.77914 78.539C6.73881 79.6587 6.93958 80.774 7.36786 81.8094C7.79614 82.8448 8.44193 83.776 9.26148 84.5401C10.081 85.3041 11.0552 85.8831 12.118 86.2379C13.7654 86.7858 15.1834 87.8668 16.1481 89.3103C17.1128 90.7537 17.5693 92.4774 17.4454 94.2091C17.361 95.3298 17.5191 96.4554 17.909 97.5095C18.299 98.5635 18.9115 99.5211 19.7049 100.317C20.4983 101.113 21.454 101.728 22.5068 102.122C23.5596 102.515 24.6847 102.677 25.8057 102.596C27.5306 102.47 29.2487 102.919 30.691 103.873C32.1334 104.828 33.2186 106.233 33.7769 107.87C34.1302 108.934 34.7079 109.908 35.4711 110.729C36.2342 111.549 37.1647 112.195 38.1997 112.624C39.2346 113.053 40.3497 113.255 41.4694 113.215C42.589 113.175 43.687 112.895 44.6888 112.393C46.2425 111.617 48.0102 111.38 49.7136 111.719C51.417 112.058 52.9592 112.954 54.0974 114.266C54.8314 115.112 55.7388 115.791 56.758 116.256C57.7772 116.722 58.8846 116.962 60.0049 116.962C61.1253 116.962 62.2326 116.722 63.2519 116.256C64.2711 115.791 65.1785 115.112 65.9125 114.266C67.0496 112.955 68.5907 112.059 70.2929 111.72C71.9951 111.381 73.7618 111.618 75.3145 112.393C76.3168 112.895 77.4152 113.175 78.5353 113.215C79.6554 113.255 80.7709 113.054 81.8064 112.625C82.8418 112.196 83.773 111.549 84.5367 110.729C85.3005 109.909 85.8789 108.934 86.233 107.87C86.7913 106.233 87.8765 104.828 89.3189 103.873C90.7612 102.919 92.4793 102.47 94.2042 102.596C95.3275 102.682 96.4561 102.524 97.5127 102.133C98.5692 101.742 99.5287 101.127 100.325 100.33C101.122 99.5336 101.737 98.5741 102.128 97.5175C102.519 96.461 102.677 95.3324 102.591 94.2091C102.465 92.4842 102.914 90.7661 103.868 89.3237C104.823 87.8814 106.229 86.7962 107.865 86.2379C108.929 85.8838 109.904 85.3053 110.724 84.5416C111.544 83.7779 112.191 82.8467 112.62 81.8113C113.049 80.7758 113.25 79.6602 113.21 78.5402C113.17 77.4201 112.89 76.3217 112.388 75.3194C111.613 73.7667 111.376 72 111.715 70.2978C112.054 68.5956 112.95 67.0545 114.261 65.9174C115.109 65.1848 115.789 64.2785 116.256 63.2601C116.723 62.2416 116.965 61.1347 116.967 60.0143C116.969 58.894 116.73 57.7862 116.267 56.7662C115.803 55.7462 115.126 54.8377 114.281 54.1023ZM60.0049 110.145C50.1997 110.146 40.6143 107.24 32.4609 101.793C24.3075 96.3468 17.9523 88.6048 14.1991 79.5463C10.4459 70.4878 9.46321 60.5197 11.3753 50.9027C13.2874 41.2857 18.0084 32.4517 24.9413 25.5179C31.8742 18.5841 40.7076 13.8619 50.3244 11.9485C59.9411 10.0351 69.9093 11.0165 78.9683 14.7685C88.0273 18.5205 95.7702 24.8746 101.218 33.0273C106.665 41.18 109.573 50.765 109.573 60.5703C109.564 73.7114 104.338 86.3115 95.0437 95.6013C85.749 104.891 73.1461 110.11 60.0049 110.112V110.145Z" fill="#F0F0F0" stroke="#F0F0F0" stroke-width="1.39785" mask="url(#path-1-inside-1_682_7691)"/>
<path d="M60.0032 106.602C85.4454 106.602 106.07 85.9766 106.07 60.5345C106.07 35.0923 85.4454 14.4673 60.0032 14.4673C34.561 14.4673 13.936 35.0923 13.936 60.5345C13.936 85.9766 34.561 106.602 60.0032 106.602Z" stroke="#F0F0F0" stroke-width="0.698924" stroke-miterlimit="10"/>
<path d="M32.1367 59.4888V45.5494L29.2431 46.2288V43.763L33.4954 41.8759H35.4831V59.4888H32.1367ZM46.1195 59.7907C44.4924 59.7907 43.1001 59.4133 41.9427 58.6584C40.7853 57.8868 39.8879 56.8217 39.2504 55.463C38.6298 54.0875 38.3195 52.4939 38.3195 50.6823C38.3195 48.8875 38.6298 47.3023 39.2504 45.9268C39.8879 44.5514 40.7853 43.4862 41.9427 42.7314C43.1001 41.9597 44.4924 41.5739 46.1195 41.5739C47.7466 41.5739 49.1388 41.9597 50.2962 42.7314C51.4537 43.4862 52.3427 44.5514 52.9633 45.9268C53.6008 47.3023 53.9195 48.8875 53.9195 50.6823C53.9195 52.4939 53.6008 54.0875 52.9633 55.463C52.3427 56.8217 51.4537 57.8868 50.2962 58.6584C49.1388 59.4133 47.7466 59.7907 46.1195 59.7907ZM46.1195 56.8972C47.4446 56.8972 48.5266 56.3436 49.3653 55.2365C50.204 54.1294 50.6233 52.6114 50.6233 50.6823C50.6233 48.7533 50.204 47.2352 49.3653 46.1281C48.5266 45.021 47.4446 44.4675 46.1195 44.4675C44.7775 44.4675 43.6872 45.021 42.8485 46.1281C42.0266 47.2352 41.6156 48.7533 41.6156 50.6823C41.6156 52.6114 42.0266 54.1294 42.8485 55.2365C43.6872 56.3436 44.7775 56.8972 46.1195 56.8972ZM63.983 59.7907C62.3559 59.7907 60.9636 59.4133 59.8062 58.6584C58.6488 57.8868 57.7514 56.8217 57.114 55.463C56.4933 54.0875 56.183 52.4939 56.183 50.6823C56.183 48.8875 56.4933 47.3023 57.114 45.9268C57.7514 44.5514 58.6488 43.4862 59.8062 42.7314C60.9636 41.9597 62.3559 41.5739 63.983 41.5739C65.6101 41.5739 67.0023 41.9597 68.1598 42.7314C69.3172 43.4862 70.2062 44.5514 70.8269 45.9268C71.4643 47.3023 71.783 48.8875 71.783 50.6823C71.783 52.4939 71.4643 54.0875 70.8269 55.463C70.2062 56.8217 69.3172 57.8868 68.1598 58.6584C67.0023 59.4133 65.6101 59.7907 63.983 59.7907ZM63.983 56.8972C65.3082 56.8972 66.3901 56.3436 67.2288 55.2365C68.0675 54.1294 68.4869 52.6114 68.4869 50.6823C68.4869 48.7533 68.0675 47.2352 67.2288 46.1281C66.3901 45.021 65.3082 44.4675 63.983 44.4675C62.6411 44.4675 61.5507 45.021 60.712 46.1281C59.8901 47.2352 59.4791 48.7533 59.4791 50.6823C59.4791 52.6114 59.8901 54.1294 60.712 55.2365C61.5507 56.3436 62.6411 56.8972 63.983 56.8972ZM81.8465 59.7907C80.2194 59.7907 78.8272 59.4133 77.6697 58.6584C76.5123 57.8868 75.6149 56.8217 74.9775 55.463C74.3568 54.0875 74.0465 52.4939 74.0465 50.6823C74.0465 48.8875 74.3568 47.3023 74.9775 45.9268C75.6149 44.5514 76.5123 43.4862 77.6697 42.7314C78.8272 41.9597 80.2194 41.5739 81.8465 41.5739C83.4736 41.5739 84.8659 41.9597 86.0233 42.7314C87.1807 43.4862 88.0697 44.5514 88.6904 45.9268C89.3278 47.3023 89.6465 48.8875 89.6465 50.6823C89.6465 52.4939 89.3278 54.0875 88.6904 55.463C88.0697 56.8217 87.1807 57.8868 86.0233 58.6584C84.8659 59.4133 83.4736 59.7907 81.8465 59.7907ZM81.8465 56.8972C83.1717 56.8972 84.2536 56.3436 85.0923 55.2365C85.931 54.1294 86.3504 52.6114 86.3504 50.6823C86.3504 48.7533 85.931 47.2352 85.0923 46.1281C84.2536 45.021 83.1717 44.4675 81.8465 44.4675C80.5046 44.4675 79.4143 45.021 78.5755 46.1281C77.7536 47.2352 77.3426 48.7533 77.3426 50.6823C77.3426 52.6114 77.7536 54.1294 78.5755 55.2365C79.4143 56.3436 80.5046 56.8972 81.8465 56.8972ZM19.2273 74.4888V73.6668L21.9279 69.5152H19.2524V68.6178H23.1692V69.4397L20.4518 73.5914H23.186V74.4888H19.2273ZM24.6152 74.4888L26.7623 68.6178H27.97L30.1171 74.4888H28.9765L28.5068 73.1301H26.2171L25.7391 74.4888H24.6152ZM26.5107 72.2914H28.2133L27.3578 69.8507L26.5107 72.2914ZM31.7121 74.4888V68.6178H33.7166C34.4044 68.6178 34.9691 68.7408 35.4108 68.9868C35.8581 69.2273 36.188 69.5683 36.4005 70.0101C36.6186 70.4462 36.7276 70.9606 36.7276 71.5533C36.7276 72.146 36.6186 72.6632 36.4005 73.1049C36.188 73.541 35.8581 73.8821 35.4108 74.1281C34.9691 74.3686 34.4044 74.4888 33.7166 74.4888H31.7121ZM32.7857 73.5662H33.6663C34.1583 73.5662 34.547 73.4879 34.8321 73.3314C35.1173 73.1692 35.3214 72.94 35.4444 72.6436C35.5674 72.3417 35.6289 71.9782 35.6289 71.5533C35.6289 71.1339 35.5674 70.7733 35.4444 70.4714C35.3214 70.1694 35.1173 69.9374 34.8321 69.7752C34.547 69.6131 34.1583 69.532 33.6663 69.532H32.7857V73.5662ZM41.2645 74.5894C40.6774 74.5894 40.163 74.4608 39.7213 74.2036C39.2851 73.9464 38.9413 73.5914 38.6897 73.1384C38.4436 72.68 38.3206 72.1516 38.3206 71.5533C38.3206 70.955 38.4436 70.4294 38.6897 69.9765C38.9413 69.518 39.2851 69.1602 39.7213 68.903C40.163 68.6458 40.6774 68.5172 41.2645 68.5172C41.846 68.5172 42.3576 68.6458 42.7993 68.903C43.241 69.1602 43.5849 69.518 43.8309 69.9765C44.077 70.4294 44.2 70.955 44.2 71.5533C44.2 72.1516 44.077 72.68 43.8309 73.1384C43.5849 73.5914 43.241 73.9464 42.7993 74.2036C42.3576 74.4608 41.846 74.5894 41.2645 74.5894ZM41.2645 73.6249C41.8236 73.6249 42.2681 73.4404 42.598 73.0714C42.9335 72.7023 43.1013 72.1963 43.1013 71.5533C43.1013 70.9103 42.9335 70.4043 42.598 70.0352C42.2681 69.6662 41.8236 69.4817 41.2645 69.4817C40.7053 69.4817 40.258 69.6662 39.9226 70.0352C39.5871 70.4043 39.4193 70.9103 39.4193 71.5533C39.4193 72.1963 39.5871 72.7023 39.9226 73.0714C40.258 73.4404 40.7053 73.6249 41.2645 73.6249ZM46.9236 74.4888L45.372 68.6178H46.521L47.5778 73.2894L48.8191 68.6178H50.0017L51.2094 73.2894L52.2662 68.6178H53.4236L51.8301 74.4888H50.5552L49.3894 70.1359L48.1901 74.4888H46.9236ZM57.5374 74.5894C56.9503 74.5894 56.4359 74.4608 55.9942 74.2036C55.5581 73.9464 55.2142 73.5914 54.9626 73.1384C54.7166 72.68 54.5935 72.1516 54.5935 71.5533C54.5935 70.955 54.7166 70.4294 54.9626 69.9765C55.2142 69.518 55.5581 69.1602 55.9942 68.903C56.4359 68.6458 56.9503 68.5172 57.5374 68.5172C58.1189 68.5172 58.6305 68.6458 59.0722 68.903C59.514 69.1602 59.8578 69.518 60.1039 69.9765C60.3499 70.4294 60.4729 70.955 60.4729 71.5533C60.4729 72.1516 60.3499 72.68 60.1039 73.1384C59.8578 73.5914 59.514 73.9464 59.0722 74.2036C58.6305 74.4608 58.1189 74.5894 57.5374 74.5894ZM57.5374 73.6249C58.0965 73.6249 58.5411 73.4404 58.871 73.0714C59.2064 72.7023 59.3742 72.1963 59.3742 71.5533C59.3742 70.9103 59.2064 70.4043 58.871 70.0352C58.5411 69.6662 58.0965 69.4817 57.5374 69.4817C56.9783 69.4817 56.531 69.6662 56.1955 70.0352C55.86 70.4043 55.6922 70.9103 55.6922 71.5533C55.6922 72.1963 55.86 72.7023 56.1955 73.0714C56.531 73.4404 56.9783 73.6249 57.5374 73.6249ZM62.2595 74.4888V68.6178H63.333V73.6501H65.933V74.4888H62.2595ZM69.9362 74.5894C69.3491 74.5894 68.8347 74.4608 68.393 74.2036C67.9569 73.9464 67.613 73.5914 67.3614 73.1384C67.1154 72.68 66.9924 72.1516 66.9924 71.5533C66.9924 70.955 67.1154 70.4294 67.3614 69.9765C67.613 69.518 67.9569 69.1602 68.393 68.903C68.8347 68.6458 69.3491 68.5172 69.9362 68.5172C70.5177 68.5172 71.0293 68.6458 71.4711 68.903C71.9128 69.1602 72.2567 69.518 72.5027 69.9765C72.7487 70.4294 72.8717 70.955 72.8717 71.5533C72.8717 72.1516 72.7487 72.68 72.5027 73.1384C72.2567 73.5914 71.9128 73.9464 71.4711 74.2036C71.0293 74.4608 70.5177 74.5894 69.9362 74.5894ZM69.9362 73.6249C70.4954 73.6249 70.9399 73.4404 71.2698 73.0714C71.6053 72.7023 71.773 72.1963 71.773 71.5533C71.773 70.9103 71.6053 70.4043 71.2698 70.0352C70.9399 69.6662 70.4954 69.4817 69.9362 69.4817C69.3771 69.4817 68.9298 69.6662 68.5943 70.0352C68.2588 70.4043 68.0911 70.9103 68.0911 71.5533C68.0911 72.1963 68.2588 72.7023 68.5943 73.0714C68.9298 73.4404 69.3771 73.6249 69.9362 73.6249ZM74.6583 74.4888V68.6178H75.7318L78.4912 72.7526V68.6178H79.5647V74.4888H78.4912L75.7318 70.3623V74.4888H74.6583ZM83.0597 74.4888V72.4004L81.0887 68.6178H82.3048L83.6048 71.3268L84.8964 68.6178H86.0958L84.1332 72.4004V74.4888H83.0597ZM89.9042 74.5894C89.3115 74.5894 88.8027 74.4636 88.3777 74.212C87.9528 73.9548 87.6257 73.5997 87.3964 73.1468C87.1672 72.6883 87.0526 72.16 87.0526 71.5617C87.0526 70.9634 87.1672 70.435 87.3964 69.9765C87.6257 69.518 87.9528 69.1602 88.3777 68.903C88.8027 68.6458 89.3115 68.5172 89.9042 68.5172C90.6087 68.5172 91.1846 68.6933 91.6319 69.0455C92.0848 69.3922 92.3672 69.8815 92.479 70.5133H91.2964C91.2238 70.1946 91.0672 69.9458 90.8268 69.7668C90.5919 69.5823 90.2788 69.4901 89.8874 69.4901C89.345 69.4901 88.9201 69.6746 88.6126 70.0436C88.305 70.4126 88.1513 70.9187 88.1513 71.5617C88.1513 72.2047 88.305 72.7107 88.6126 73.0797C88.9201 73.4432 89.345 73.6249 89.8874 73.6249C90.2788 73.6249 90.5919 73.541 90.8268 73.3733C91.0672 73.2 91.2238 72.9623 91.2964 72.6604H92.479C92.3672 73.2643 92.0848 73.7367 91.6319 74.0778C91.1846 74.4189 90.6087 74.5894 89.9042 74.5894ZM94.268 74.4888V68.6178H95.3416V71.0584H97.9751V68.6178H99.0487V74.4888H97.9751V71.9307H95.3416V74.4888H94.268ZM35.9401 86.4888V80.6178H37.0136V82.9914L39.1859 80.6178H40.511L38.3472 82.9494L40.5697 86.4888H39.253L37.5755 83.7714L37.0136 84.3836V86.4888H35.9401ZM42.1436 86.4888V80.6178H43.2171V85.6501H45.8171V86.4888H42.1436ZM47.6017 86.4888V80.6178H48.6753V86.4888H47.6017ZM50.6519 86.4888V80.6178H54.4848V81.4817H51.7254V83.092H54.2332V83.9307H51.7254V85.6249H54.4848V86.4888H50.6519ZM56.3394 86.4888V80.6178H57.4129L60.1723 84.7526V80.6178H61.2458V86.4888H60.1723L57.4129 82.3623V86.4888H56.3394ZM64.5898 86.4888V81.4817H62.8788V80.6178H67.3827V81.4817H65.6633V86.4888H64.5898ZM71.5547 86.5894C70.9676 86.5894 70.4532 86.4608 70.0114 86.2036C69.5753 85.9464 69.2314 85.5914 68.9798 85.1384C68.7338 84.68 68.6108 84.1516 68.6108 83.5533C68.6108 82.955 68.7338 82.4294 68.9798 81.9765C69.2314 81.518 69.5753 81.1602 70.0114 80.903C70.4532 80.6458 70.9676 80.5172 71.5547 80.5172C72.1362 80.5172 72.6478 80.6458 73.0895 80.903C73.5312 81.1602 73.8751 81.518 74.1211 81.9765C74.3671 82.4294 74.4901 82.955 74.4901 83.5533C74.4901 84.1516 74.3671 84.68 74.1211 85.1384C73.8751 85.5914 73.5312 85.9464 73.0895 86.2036C72.6478 86.4608 72.1362 86.5894 71.5547 86.5894ZM71.5547 85.6249C72.1138 85.6249 72.5583 85.4404 72.8882 85.0714C73.2237 84.7023 73.3914 84.1963 73.3914 83.5533C73.3914 82.9103 73.2237 82.4043 72.8882 82.0352C72.5583 81.6662 72.1138 81.4817 71.5547 81.4817C70.9955 81.4817 70.5482 81.6662 70.2127 82.0352C69.8772 82.4043 69.7095 82.9103 69.7095 83.5533C69.7095 84.1963 69.8772 84.7023 70.2127 85.0714C70.5482 85.4404 70.9955 85.6249 71.5547 85.6249ZM71.1353 80.2823V79.5275L73.0308 78.5043V79.3765L71.1353 80.2823ZM77.2138 86.4888L75.6622 80.6178H76.8112L77.868 85.2894L79.1093 80.6178H80.2919L81.4996 85.2894L82.5564 80.6178H83.7138L82.1202 86.4888H80.8454L79.6796 82.1359L78.4802 86.4888H77.2138Z" fill="#F0F0F0"/>
</g>
</svg>
