<svg width="120" height="120" viewBox="0 0 120 120" fill="none" xmlns="http://www.w3.org/2000/svg">
<g opacity="0.6">
<g clip-path="url(#clip0_682_7698)">
<path d="M56.1522 100.026C56.8555 99.1978 57.3413 98.2058 57.5654 97.1403C57.7894 96.0748 57.7445 94.9698 57.4347 93.9262C57.4079 93.838 57.3567 93.7592 57.2871 93.6991C57.2176 93.639 57.1324 93.6 57.0417 93.5868C55.9712 93.4375 54.8806 93.5614 53.8702 93.9472C52.8598 94.3329 51.962 94.968 51.2593 95.7942C50.5567 96.6204 50.0718 97.6111 49.8492 98.6751C49.6266 99.7392 49.6734 100.842 49.9854 101.884C50.0121 101.972 50.0633 102.051 50.1329 102.111C50.2025 102.171 50.2876 102.21 50.3784 102.223C51.4468 102.375 52.5361 102.254 53.5454 101.87C54.5547 101.485 55.4513 100.851 56.1522 100.026Z" fill="#F0F0F0"/>
<path d="M8.20209 24.1395C8.63057 25.1375 9.30198 26.0108 10.1544 26.6789C11.0067 27.3469 12.0126 27.7882 13.0792 27.962C13.1686 27.976 13.2601 27.9641 13.3431 27.9277C13.426 27.8913 13.4969 27.8319 13.5475 27.7564C14.1497 26.8525 14.5169 25.811 14.6152 24.7273C14.7135 23.6436 14.5399 22.5524 14.1103 21.5537C13.6806 20.5551 13.0087 19.6809 12.1561 19.0114C11.3036 18.3419 10.2976 17.8984 9.23043 17.7217C9.14108 17.7075 9.04956 17.7192 8.96661 17.7555C8.88365 17.7918 8.81272 17.8512 8.76211 17.9266C8.16001 18.8325 7.79326 19.8759 7.69543 20.9613C7.59759 22.0466 7.77179 23.1394 8.20209 24.1395Z" fill="#F0F0F0"/>
<path d="M5.09474 35.9797C5.78396 36.8151 6.67156 37.462 7.67533 37.8605C8.67911 38.259 9.76659 38.3962 10.8371 38.2593C10.9278 38.2472 11.0133 38.2095 11.0836 38.1505C11.1538 38.0914 11.206 38.0135 11.234 37.9258C11.5584 36.8867 11.6188 35.7824 11.4097 34.7137C11.2005 33.6451 10.7285 32.6463 10.0367 31.8085C9.34733 30.9732 8.45972 30.3264 7.45598 29.9279C6.45223 29.5295 5.3648 29.3922 4.29434 29.5289C4.20416 29.5415 4.11939 29.5797 4.04984 29.6388C3.98029 29.6979 3.9288 29.7757 3.90135 29.863C3.57637 30.9017 3.51533 32.0058 3.72381 33.0743C3.93229 34.1428 4.40363 35.1417 5.09474 35.9797Z" fill="#F0F0F0"/>
<path d="M4.35674 47.2672C5.19141 47.9549 6.18513 48.4193 7.24576 48.6175C8.30639 48.8156 9.39957 48.7411 10.4239 48.4008C10.5109 48.3719 10.5879 48.3187 10.6459 48.2474C10.7039 48.1761 10.7405 48.0896 10.7514 47.9981C10.8748 46.9164 10.7264 45.8208 10.32 44.8117C9.91351 43.8026 9.26193 42.9123 8.4249 42.2222C7.59009 41.5341 6.59605 41.0694 5.53504 40.8711C4.47403 40.6728 3.38044 40.7474 2.35574 41.088C2.26877 41.1171 2.1918 41.1704 2.13382 41.2418C2.07583 41.3132 2.03922 41.3998 2.02824 41.4913C1.90525 42.5732 2.05396 43.6689 2.46076 44.6779C2.86756 45.687 3.51945 46.5773 4.35674 47.2672Z" fill="#F0F0F0"/>
<path d="M6.16838 58.6657C7.12759 59.163 8.19611 59.4084 9.27476 59.3791C10.3534 59.3499 11.4072 59.0469 12.3384 58.4983C12.416 58.4522 12.479 58.3848 12.52 58.3041C12.5611 58.2233 12.5785 58.1326 12.5703 58.0422C12.4725 56.9592 12.1047 55.9186 11.5011 55.0165C10.8975 54.1145 10.0775 53.3802 9.11702 52.8816C8.15653 52.383 7.08657 52.1363 6.00615 52.1642C4.92574 52.1922 3.86978 52.4939 2.93599 53.0414C2.85841 53.0875 2.79544 53.1549 2.7544 53.2356C2.71335 53.3164 2.69592 53.4071 2.70413 53.4974C2.80448 54.5821 3.17436 55.624 3.77973 56.5271C4.38511 57.4303 5.20652 58.1657 6.16838 58.6657Z" fill="#F0F0F0"/>
<path d="M10.273 70.3121C11.3396 70.4835 12.432 70.3811 13.4487 70.0144C14.4655 69.6476 15.3738 69.0285 16.0893 68.2144C16.1487 68.1464 16.1876 68.0629 16.2018 67.9736C16.2159 67.8843 16.2046 67.7927 16.1692 67.7096C15.7422 66.7106 15.0712 65.8364 14.2185 65.1681C13.3659 64.4998 12.3593 64.0591 11.2921 63.887C10.2249 63.7149 9.13185 63.8169 8.11434 64.1835C7.09683 64.5501 6.18788 65.1695 5.4719 65.9842C5.41257 66.0521 5.37358 66.1356 5.35944 66.225C5.3453 66.3143 5.35659 66.4058 5.39199 66.489C5.82068 67.4877 6.49264 68.3615 7.34576 69.0297C8.19888 69.6979 9.20564 70.139 10.273 70.3121Z" fill="#F0F0F0"/>
<path d="M16.0059 79.3374C17.0855 79.3796 18.1583 79.1469 19.1248 78.6609C20.0912 78.1748 20.9201 77.4511 21.5347 76.5569C21.5856 76.4824 21.6145 76.3948 21.6179 76.3044C21.6214 76.214 21.5994 76.1244 21.5543 76.0461C21.012 75.1055 20.2423 74.318 19.3166 73.7568C18.3909 73.1956 17.3393 72.8789 16.2594 72.8361C15.1795 72.7933 14.1063 73.0257 13.1396 73.512C12.1729 73.9982 11.344 74.7223 10.7299 75.6171C10.6791 75.6917 10.6503 75.7793 10.6468 75.8696C10.6434 75.96 10.6653 76.0495 10.7102 76.1279C11.253 77.0681 12.023 77.8553 12.9487 78.4164C13.8745 78.9775 14.926 79.2943 16.0059 79.3374Z" fill="#F0F0F0"/>
<path d="M23.7151 86.9811C24.7913 86.8808 25.825 86.509 26.7206 85.9002C27.6163 85.2914 28.3449 84.4652 28.8391 83.4981C28.8801 83.4174 28.8975 83.3268 28.8894 83.2367C28.8813 83.1465 28.8479 83.0605 28.7932 82.9886C28.1335 82.1273 27.2681 81.4477 26.2775 81.0129C25.2869 80.5781 24.2031 80.4023 23.1269 80.5016C22.0507 80.6009 21.0168 80.9723 20.1214 81.5812C19.2259 82.1901 18.4979 83.0167 18.0049 83.9844C17.9641 84.0651 17.9469 84.1558 17.9551 84.2459C17.9634 84.336 17.9967 84.422 18.0514 84.4939C18.7112 85.3545 19.5761 86.0336 20.5662 86.4684C21.5562 86.9032 22.6393 87.0796 23.7151 86.9811Z" fill="#F0F0F0"/>
<path d="M33.4614 93.5252C34.4836 93.1692 35.4002 92.5599 36.1269 91.7537C36.8535 90.9475 37.3667 89.9701 37.6193 88.9118C37.6401 88.8238 37.6356 88.7315 37.6064 88.6459C37.5772 88.5603 37.5244 88.4848 37.4542 88.4281C36.6087 87.7505 35.6069 87.2987 34.5415 87.1147C33.4762 86.9306 32.382 87.0202 31.3603 87.3751C30.3385 87.7301 29.4224 88.3389 28.6969 89.1451C27.9714 89.9513 27.46 90.9288 27.2101 91.987C27.1893 92.075 27.1938 92.1673 27.223 92.2529C27.2523 92.3385 27.305 92.414 27.3752 92.4707C28.2192 93.1483 29.2196 93.6002 30.2837 93.7846C31.3477 93.9689 32.4408 93.8797 33.4614 93.5252Z" fill="#F0F0F0"/>
<path d="M44.2406 98.0735C45.1443 97.4751 45.8842 96.658 46.3924 95.697C46.9006 94.7361 47.1609 93.6622 47.1494 92.5737C47.148 92.4818 47.1207 92.3921 47.0708 92.3151C47.0208 92.2381 46.9502 92.177 46.8671 92.1387C45.8813 91.6939 44.8 91.5062 43.723 91.5929C42.6461 91.6796 41.6082 92.038 40.7053 92.635C39.8024 93.232 39.0636 94.0483 38.557 95.0085C38.0505 95.9687 37.7926 97.0418 37.8072 98.1288C37.8086 98.2207 37.8358 98.3103 37.8857 98.3872C37.9355 98.4642 38.0059 98.5254 38.0889 98.5638C39.0723 99.01 40.1518 99.199 41.2273 99.1133C42.3027 99.0276 43.3392 98.6699 44.2406 98.0735Z" fill="#F0F0F0"/>
<path d="M63.8484 100.026C63.1451 99.1978 62.6592 98.2058 62.4352 97.1403C62.2111 96.0748 62.2561 94.9697 62.5659 93.9262C62.5927 93.838 62.6438 93.7592 62.7134 93.6991C62.783 93.639 62.8681 93.6 62.9589 93.5868C64.0293 93.4375 65.1199 93.5614 66.1303 93.9472C67.1407 94.3329 68.0386 94.968 68.7412 95.7942C69.4438 96.6204 69.9288 97.6111 70.1514 98.6751C70.374 99.7392 70.3271 100.842 70.0151 101.884C69.9884 101.972 69.9373 102.051 69.8677 102.111C69.7981 102.171 69.7129 102.21 69.6221 102.223C68.5537 102.375 67.4644 102.254 66.4551 101.87C65.4458 101.486 64.5492 100.851 63.8484 100.026Z" fill="#F0F0F0"/>
<path d="M111.799 24.1395C111.371 25.1375 110.699 26.0108 109.847 26.6789C108.995 27.3469 107.989 27.7882 106.922 27.962C106.833 27.976 106.741 27.9641 106.658 27.9277C106.575 27.8913 106.504 27.8319 106.454 27.7564C105.852 26.8525 105.484 25.811 105.386 24.7273C105.288 23.6436 105.461 22.5524 105.891 21.5537C106.321 20.5551 106.993 19.6809 107.845 19.0114C108.698 18.3419 109.704 17.8984 110.771 17.7217C110.86 17.7075 110.952 17.7192 111.035 17.7555C111.118 17.7918 111.189 17.8512 111.239 17.9266C111.841 18.8325 112.208 19.8759 112.306 20.9613C112.404 22.0466 112.23 23.1394 111.799 24.1395Z" fill="#F0F0F0"/>
<path d="M114.905 35.98C114.216 36.8155 113.328 37.4624 112.325 37.8609C111.321 38.2594 110.233 38.3965 109.163 38.2597C109.072 38.2476 108.987 38.2099 108.916 38.1508C108.846 38.0918 108.794 38.0139 108.766 37.9262C108.439 36.8893 108.377 35.7864 108.585 34.719C108.793 33.6515 109.264 32.6539 109.956 31.8177C110.647 30.9815 111.536 30.3337 112.542 29.9338C113.547 29.5339 114.636 29.3948 115.709 29.5293C115.799 29.5419 115.884 29.58 115.953 29.6392C116.023 29.6983 116.075 29.776 116.102 29.8634C116.427 30.9023 116.487 32.0066 116.278 33.0751C116.069 34.1436 115.597 35.1424 114.905 35.98Z" fill="#F0F0F0"/>
<path d="M115.644 47.2663C114.81 47.9539 113.816 48.4184 112.755 48.6165C111.694 48.8147 110.601 48.7401 109.577 48.3998C109.49 48.3709 109.413 48.3176 109.355 48.2463C109.297 48.175 109.26 48.0886 109.249 47.9972C109.123 46.9174 109.269 45.823 109.674 44.815C110.079 43.807 110.729 42.9177 111.566 42.2293C112.402 41.5408 113.397 41.0753 114.459 40.8757C115.521 40.6761 116.617 40.7488 117.643 41.087C117.73 41.1161 117.807 41.1695 117.865 41.2409C117.923 41.3123 117.96 41.3988 117.971 41.4904C118.094 42.5721 117.946 43.6676 117.539 44.6767C117.133 45.6858 116.481 46.5761 115.644 47.2663Z" fill="#F0F0F0"/>
<path d="M113.832 58.6652C112.873 59.163 111.804 59.4086 110.725 59.3794C109.645 59.3501 108.591 59.0469 107.66 58.4978C107.582 58.4517 107.519 58.3843 107.478 58.3036C107.437 58.2229 107.42 58.1321 107.428 58.0418C107.525 56.9584 107.893 55.9173 108.497 55.0149C109.101 54.1125 109.921 53.378 110.882 52.8793C111.843 52.3807 112.913 52.1341 113.994 52.1623C115.075 52.1906 116.131 52.4928 117.065 53.0409C117.142 53.087 117.205 53.1544 117.246 53.2351C117.287 53.3159 117.305 53.4067 117.297 53.497C117.196 54.5816 116.826 55.6235 116.221 56.5266C115.616 57.4298 114.794 58.1652 113.832 58.6652Z" fill="#F0F0F0"/>
<path d="M109.728 70.3121C108.661 70.4835 107.569 70.3811 106.552 70.0144C105.535 69.6476 104.627 69.0285 103.911 68.2144C103.852 68.1464 103.813 68.0629 103.799 67.9736C103.785 67.8843 103.796 67.7927 103.831 67.7096C104.258 66.7106 104.929 65.8364 105.782 65.1681C106.635 64.4998 107.641 64.0591 108.709 63.887C109.776 63.7149 110.869 63.8169 111.886 64.1835C112.904 64.5501 113.813 65.1695 114.529 65.9842C114.588 66.0521 114.627 66.1356 114.641 66.225C114.655 66.3143 114.644 66.4058 114.609 66.489C114.18 67.4877 113.508 68.3615 112.655 69.0297C111.802 69.6979 110.795 70.139 109.728 70.3121Z" fill="#F0F0F0"/>
<path d="M103.997 79.3374C102.918 79.3796 101.845 79.1469 100.879 78.6609C99.912 78.1748 99.0831 77.4511 98.4686 76.5569C98.4176 76.4824 98.3886 76.3948 98.3851 76.3044C98.3816 76.214 98.4038 76.1244 98.449 76.0461C98.9913 75.1055 99.761 74.318 100.687 73.7568C101.612 73.1956 102.664 72.8789 103.744 72.8361C104.824 72.7933 105.897 73.0257 106.864 73.512C107.83 73.9982 108.659 74.7223 109.273 75.6171C109.324 75.6917 109.353 75.7793 109.356 75.8696C109.36 75.96 109.338 76.0495 109.293 76.1279C108.75 77.0681 107.98 77.8553 107.055 78.4164C106.129 78.9775 105.077 79.2943 103.997 79.3374Z" fill="#F0F0F0"/>
<path d="M96.2856 86.9811C95.2094 86.8808 94.1757 86.509 93.2801 85.9002C92.3845 85.2914 91.6558 84.4652 91.1616 83.4981C91.1206 83.4174 91.1032 83.3268 91.1113 83.2367C91.1194 83.1465 91.1528 83.0605 91.2075 82.9886C91.8672 82.1273 92.7326 81.4477 93.7232 81.0129C94.7138 80.5781 95.7976 80.4023 96.8738 80.5016C97.95 80.6009 98.9839 80.9723 99.8793 81.5812C100.775 82.1901 101.503 83.0167 101.996 83.9844C102.037 84.0651 102.054 84.1558 102.046 84.2459C102.037 84.336 102.004 84.422 101.949 84.4939C101.29 85.3545 100.425 86.0336 99.4345 86.4684C98.4445 86.9032 97.3614 87.0796 96.2856 86.9811Z" fill="#F0F0F0"/>
<path d="M86.5399 93.5252C85.5177 93.1692 84.6011 92.5599 83.8744 91.7537C83.1478 90.9475 82.6345 89.9701 82.382 88.9118C82.3612 88.8238 82.3657 88.7315 82.3949 88.6459C82.4241 88.5603 82.4769 88.4848 82.5471 88.4281C83.3926 87.7505 84.3944 87.2987 85.4597 87.1147C86.525 86.9306 87.6193 87.0202 88.641 87.3751C89.6627 87.7301 90.5788 88.3389 91.3043 89.1451C92.0298 89.9513 92.5412 90.9288 92.7911 91.987C92.8118 92.075 92.8072 92.1672 92.778 92.2528C92.7488 92.3384 92.6961 92.4139 92.6261 92.4707C91.7821 93.1483 90.7816 93.6002 89.7176 93.7846C88.6536 93.9689 87.5605 93.8797 86.5399 93.5252Z" fill="#F0F0F0"/>
<path d="M75.7588 98.0735C74.8551 97.4751 74.1152 96.658 73.607 95.697C73.0987 94.7361 72.8384 93.6622 72.85 92.5737C72.8514 92.4818 72.8786 92.3921 72.9286 92.3151C72.9785 92.2381 73.0492 92.177 73.1323 92.1387C74.1181 91.6939 75.1994 91.5062 76.2763 91.5929C77.3533 91.6796 78.3911 92.038 79.294 92.635C80.197 93.232 80.9358 94.0483 81.4423 95.0085C81.9488 95.9687 82.2067 97.0418 82.1921 98.1288C82.1908 98.2208 82.1635 98.3104 82.1135 98.3874C82.0636 98.4644 81.9929 98.5256 81.9098 98.5638C80.9265 99.01 79.8471 99.199 78.7718 99.1133C77.6964 99.0276 76.66 98.6699 75.7588 98.0735Z" fill="#F0F0F0"/>
</g>
<path d="M30.4512 46.21V32.2706L27.5577 32.95V30.4842L31.81 28.5971H33.7977V46.21H30.4512ZM44.434 46.5119C42.8069 46.5119 41.4147 46.1345 40.2573 45.3796C39.0998 44.608 38.2024 43.5429 37.565 42.1842C36.9444 40.8087 36.634 39.2151 36.634 37.4035C36.634 35.6087 36.9444 34.0235 37.565 32.648C38.2024 31.2725 39.0998 30.2074 40.2573 29.4525C41.4147 28.6809 42.8069 28.2951 44.434 28.2951C46.0611 28.2951 47.4534 28.6809 48.6108 29.4525C49.7682 30.2074 50.6573 31.2725 51.2779 32.648C51.9153 34.0235 52.234 35.6087 52.234 37.4035C52.234 39.2151 51.9153 40.8087 51.2779 42.1842C50.6573 43.5429 49.7682 44.608 48.6108 45.3796C47.4534 46.1345 46.0611 46.5119 44.434 46.5119ZM44.434 43.6183C45.7592 43.6183 46.8411 43.0648 47.6798 41.9577C48.5185 40.8506 48.9379 39.3325 48.9379 37.4035C48.9379 35.4745 48.5185 33.9564 47.6798 32.8493C46.8411 31.7422 45.7592 31.1887 44.434 31.1887C43.0921 31.1887 42.0018 31.7422 41.1631 32.8493C40.3411 33.9564 39.9302 35.4745 39.9302 37.4035C39.9302 39.3325 40.3411 40.8506 41.1631 41.9577C42.0018 43.0648 43.0921 43.6183 44.434 43.6183ZM62.2976 46.5119C60.6705 46.5119 59.2782 46.1345 58.1208 45.3796C56.9634 44.608 56.0659 43.5429 55.4285 42.1842C54.8079 40.8087 54.4976 39.2151 54.4976 37.4035C54.4976 35.6087 54.8079 34.0235 55.4285 32.648C56.0659 31.2725 56.9634 30.2074 58.1208 29.4525C59.2782 28.6809 60.6705 28.2951 62.2976 28.2951C63.9247 28.2951 65.3169 28.6809 66.4743 29.4525C67.6317 30.2074 68.5208 31.2725 69.1414 32.648C69.7788 34.0235 70.0976 35.6087 70.0976 37.4035C70.0976 39.2151 69.7788 40.8087 69.1414 42.1842C68.5208 43.5429 67.6317 44.608 66.4743 45.3796C65.3169 46.1345 63.9247 46.5119 62.2976 46.5119ZM62.2976 43.6183C63.6227 43.6183 64.7047 43.0648 65.5434 41.9577C66.3821 40.8506 66.8014 39.3325 66.8014 37.4035C66.8014 35.4745 66.3821 33.9564 65.5434 32.8493C64.7047 31.7422 63.6227 31.1887 62.2976 31.1887C60.9556 31.1887 59.8653 31.7422 59.0266 32.8493C58.2047 33.9564 57.7937 35.4745 57.7937 37.4035C57.7937 39.3325 58.2047 40.8506 59.0266 41.9577C59.8653 43.0648 60.9556 43.6183 62.2976 43.6183ZM76.563 37.2525C75.7579 37.2525 75.0282 37.0764 74.374 36.7242C73.7198 36.3551 73.1998 35.8351 72.814 35.1642C72.4282 34.4932 72.2353 33.6964 72.2353 32.7738C72.2353 31.8513 72.4282 31.0545 72.814 30.3835C73.1998 29.7125 73.7198 29.2009 74.374 28.8487C75.0282 28.4796 75.7662 28.2951 76.5882 28.2951C77.3933 28.2951 78.1146 28.4796 78.752 28.8487C79.4062 29.2009 79.9262 29.7125 80.312 30.3835C80.6979 31.0545 80.8908 31.8513 80.8908 32.7738C80.8908 33.6964 80.6979 34.4932 80.312 35.1642C79.9262 35.8351 79.4062 36.3551 78.752 36.7242C78.0979 37.0764 77.3682 37.2525 76.563 37.2525ZM75.6069 46.21L85.5456 28.5971H88.6908L78.752 46.21H75.6069ZM76.563 35.0132C77.0495 35.0132 77.4688 34.8287 77.8211 34.4596C78.1733 34.0738 78.3495 33.5119 78.3495 32.7738C78.3495 32.0358 78.1733 31.4738 77.8211 31.088C77.4856 30.7022 77.0662 30.5093 76.563 30.5093C76.0598 30.5093 75.632 30.7022 75.2798 31.088C74.9443 31.4738 74.7766 32.0358 74.7766 32.7738C74.7766 33.5119 74.9443 34.0738 75.2798 34.4596C75.632 34.8287 76.0598 35.0132 76.563 35.0132ZM87.8353 46.5119C87.0301 46.5119 86.3004 46.3358 85.6462 45.9835C84.992 45.6145 84.472 45.0945 84.0862 44.4235C83.7004 43.7525 83.5075 42.9558 83.5075 42.0332C83.5075 41.1106 83.7004 40.3222 84.0862 39.668C84.472 38.9971 84.992 38.4854 85.6462 38.1332C86.3004 37.7642 87.0385 37.5796 87.8604 37.5796C88.6656 37.5796 89.3869 37.7642 90.0243 38.1332C90.6785 38.4854 91.1985 38.9971 91.5843 39.668C91.9701 40.3222 92.163 41.1106 92.163 42.0332C92.163 42.9558 91.9701 43.7525 91.5843 44.4235C91.1985 45.0945 90.6785 45.6145 90.0243 45.9835C89.3869 46.3358 88.6572 46.5119 87.8353 46.5119ZM87.8353 44.2725C88.3385 44.2725 88.7578 44.088 89.0933 43.719C89.4456 43.3332 89.6217 42.7713 89.6217 42.0332C89.6217 41.2951 89.4456 40.7332 89.0933 40.3474C88.7578 39.9616 88.3385 39.7687 87.8353 39.7687C87.332 39.7687 86.9043 39.9616 86.552 40.3474C86.2166 40.7332 86.0488 41.2951 86.0488 42.0332C86.0488 42.7713 86.2166 43.3332 86.552 43.719C86.9043 44.088 87.332 44.2725 87.8353 44.2725ZM23.3198 61.3106C22.8892 61.3106 22.509 61.2379 22.1791 61.0925C21.8492 60.9416 21.5892 60.7291 21.3991 60.4551C21.209 60.1756 21.1112 59.8373 21.1056 59.4403H22.2378C22.249 59.7143 22.3469 59.9463 22.5314 60.1364C22.7215 60.3209 22.9815 60.4132 23.3114 60.4132C23.5965 60.4132 23.823 60.3461 23.9907 60.2119C24.1585 60.0721 24.2423 59.8876 24.2423 59.6583C24.2423 59.4179 24.1669 59.2306 24.0159 59.0964C23.8705 58.9622 23.6748 58.8532 23.4288 58.7693C23.1828 58.6854 22.92 58.596 22.6404 58.5009C22.1875 58.3444 21.8408 58.1431 21.6004 57.8971C21.3656 57.651 21.2481 57.3239 21.2481 56.9158C21.2426 56.5691 21.3236 56.2728 21.4914 56.0267C21.6647 55.7751 21.8995 55.5822 22.1959 55.448C22.4922 55.3082 22.8333 55.2384 23.2191 55.2384C23.6105 55.2384 23.9544 55.3082 24.2507 55.448C24.5527 55.5878 24.7875 55.7835 24.9552 56.0351C25.1286 56.2867 25.2208 56.5859 25.232 56.9325H24.083C24.0774 56.7257 23.9963 56.5439 23.8398 56.3874C23.6888 56.2252 23.4763 56.1442 23.2023 56.1442C22.9675 56.1386 22.769 56.1973 22.6069 56.3203C22.4503 56.4377 22.372 56.611 22.372 56.8403C22.372 57.036 22.4335 57.1925 22.5565 57.31C22.6795 57.4218 22.8473 57.5168 23.0598 57.5951C23.2722 57.6734 23.5155 57.7573 23.7894 57.8467C24.0802 57.9474 24.3458 58.0648 24.5862 58.199C24.8266 58.3332 25.0195 58.5121 25.1649 58.7358C25.3103 58.9538 25.383 59.2362 25.383 59.5829C25.383 59.8904 25.3047 60.1756 25.1481 60.4383C24.9916 60.7011 24.7595 60.9136 24.452 61.0758C24.1445 61.2323 23.7671 61.3106 23.3198 61.3106ZM27.1584 61.21V55.339H29.3306C29.8003 55.339 30.1889 55.4173 30.4964 55.5738C30.8039 55.7304 31.0332 55.9457 31.1842 56.2196C31.3351 56.4936 31.4106 56.8011 31.4106 57.1422C31.4106 57.4665 31.3379 57.7657 31.1925 58.0396C31.0472 58.308 30.8207 58.5261 30.5132 58.6938C30.2057 58.856 29.8115 58.9371 29.3306 58.9371H28.2319V61.21H27.1584ZM28.2319 58.0648H29.2635C29.6381 58.0648 29.9065 57.9837 30.0687 57.8216C30.2364 57.6538 30.3203 57.4274 30.3203 57.1422C30.3203 56.8515 30.2364 56.625 30.0687 56.4629C29.9065 56.2951 29.6381 56.2113 29.2635 56.2113H28.2319V58.0648ZM33.0916 61.21V55.339H35.2471C35.7167 55.339 36.1025 55.4201 36.4045 55.5822C36.712 55.7388 36.9412 55.9541 37.0922 56.228C37.2432 56.4964 37.3187 56.7956 37.3187 57.1254C37.3187 57.4833 37.2236 57.8104 37.0335 58.1067C36.849 58.4031 36.5582 58.6183 36.1612 58.7525L37.3774 61.21H36.1445L35.0541 58.8951H34.1651V61.21H33.0916ZM34.1651 58.1067H35.18C35.5378 58.1067 35.8006 58.0201 35.9683 57.8467C36.1361 57.6734 36.22 57.4442 36.22 57.159C36.22 56.8794 36.1361 56.6558 35.9683 56.488C35.8062 56.3203 35.5406 56.2364 35.1716 56.2364H34.1651V58.1067ZM38.7784 61.21L40.9255 55.339H42.1332L44.2803 61.21H43.1397L42.67 59.8513H40.3803L39.9023 61.21H38.7784ZM40.6739 59.0125H42.3765L41.521 56.5719L40.6739 59.0125ZM46.4766 61.21L44.925 55.339H46.074L47.1308 60.0106L48.3721 55.339H49.5546L50.7624 60.0106L51.8192 55.339H52.9766L51.383 61.21H50.1082L48.9424 56.8571L47.743 61.21H46.4766ZM54.5933 61.21V55.339H56.5978C57.2856 55.339 57.8503 55.462 58.292 55.708C58.7393 55.9485 59.0692 56.2895 59.2817 56.7313C59.4998 57.1674 59.6088 57.6818 59.6088 58.2745C59.6088 58.8672 59.4998 59.3844 59.2817 59.8261C59.0692 60.2622 58.7393 60.6033 58.292 60.8493C57.8503 61.0897 57.2856 61.21 56.5978 61.21H54.5933ZM55.6669 60.2874H56.5475C57.0396 60.2874 57.4282 60.2091 57.7133 60.0525C57.9985 59.8904 58.2026 59.6611 58.3256 59.3648C58.4486 59.0629 58.5101 58.6994 58.5101 58.2745C58.5101 57.8551 58.4486 57.4945 58.3256 57.1925C58.2026 56.8906 57.9985 56.6586 57.7133 56.4964C57.4282 56.3343 57.0396 56.2532 56.5475 56.2532H55.6669V60.2874ZM61.2186 61.21V60.388L63.9192 56.2364H61.2438V55.339H65.1605V56.1609L62.4431 60.3125H65.1773V61.21H61.2186ZM69.5711 61.3106C68.984 61.3106 68.4696 61.182 68.0279 60.9248C67.5917 60.6676 67.2479 60.3125 66.9963 59.8596C66.7502 59.4011 66.6272 58.8728 66.6272 58.2745C66.6272 57.6762 66.7502 57.1506 66.9963 56.6977C67.2479 56.2392 67.5917 55.8814 68.0279 55.6242C68.4696 55.367 68.984 55.2384 69.5711 55.2384C70.1526 55.2384 70.6642 55.367 71.1059 55.6242C71.5477 55.8814 71.8915 56.2392 72.1375 56.6977C72.3836 57.1506 72.5066 57.6762 72.5066 58.2745C72.5066 58.8728 72.3836 59.4011 72.1375 59.8596C71.8915 60.3125 71.5477 60.6676 71.1059 60.9248C70.6642 61.182 70.1526 61.3106 69.5711 61.3106ZM69.5711 60.3461C70.1302 60.3461 70.5747 60.1616 70.9046 59.7925C71.2401 59.4235 71.4079 58.9175 71.4079 58.2745C71.4079 57.6315 71.2401 57.1254 70.9046 56.7564C70.5747 56.3874 70.1302 56.2029 69.5711 56.2029C69.012 56.2029 68.5646 56.3874 68.2292 56.7564C67.8937 57.1254 67.7259 57.6315 67.7259 58.2745C67.7259 58.9175 67.8937 59.4235 68.2292 59.7925C68.5646 60.1616 69.012 60.3461 69.5711 60.3461ZM74.2932 61.21V55.339H75.3667L78.1261 59.4738V55.339H79.1996V61.21H78.1261L75.3667 57.0835V61.21H74.2932ZM82.6945 61.21V59.1216L80.7236 55.339H81.9397L83.2397 58.048L84.5313 55.339H85.7307L83.7681 59.1216V61.21H82.6945ZM89.5391 61.3106C88.9464 61.3106 88.4376 61.1848 88.0126 60.9332C87.5877 60.676 87.2606 60.3209 87.0313 59.868C86.8021 59.4095 86.6874 58.8811 86.6874 58.2829C86.6874 57.6846 86.8021 57.1562 87.0313 56.6977C87.2606 56.2392 87.5877 55.8814 88.0126 55.6242C88.4376 55.367 88.9464 55.2384 89.5391 55.2384C90.2436 55.2384 90.8195 55.4145 91.2668 55.7667C91.7197 56.1134 92.0021 56.6027 92.1139 57.2345H90.9313C90.8586 56.9158 90.7021 56.667 90.4616 56.488C90.2268 56.3035 89.9137 56.2113 89.5223 56.2113C88.9799 56.2113 88.555 56.3958 88.2474 56.7648C87.9399 57.1338 87.7862 57.6399 87.7862 58.2829C87.7862 58.9259 87.9399 59.4319 88.2474 59.8009C88.555 60.1644 88.9799 60.3461 89.5223 60.3461C89.9137 60.3461 90.2268 60.2622 90.4616 60.0945C90.7021 59.9211 90.8586 59.6835 90.9313 59.3816H92.1139C92.0021 59.9854 91.7197 60.4579 91.2668 60.799C90.8195 61.1401 90.2436 61.3106 89.5391 61.3106ZM93.9029 61.21V55.339H94.9765V57.7796H97.61V55.339H98.6835V61.21H97.61V58.6519H94.9765V61.21H93.9029ZM39.0915 76.3106C38.5379 76.3106 38.0543 76.1848 37.6405 75.9332C37.2268 75.6816 36.9053 75.3321 36.676 74.8848C36.4468 74.4319 36.3321 73.9063 36.3321 73.308C36.3321 72.7042 36.4496 72.173 36.6844 71.7145C36.9248 71.2504 37.2631 70.8897 37.6992 70.6325C38.141 70.3697 38.6637 70.2384 39.2676 70.2384C39.9554 70.2384 40.5257 70.4033 40.9786 70.7332C41.4315 71.0631 41.725 71.5188 41.8592 72.1003H40.6599C40.5704 71.8263 40.4083 71.6138 40.1734 71.4629C39.9386 71.3063 39.6366 71.228 39.2676 71.228C38.6805 71.228 38.2276 71.4153 37.9089 71.79C37.5902 72.159 37.4308 72.6678 37.4308 73.3164C37.4308 73.965 37.5874 74.4682 37.9005 74.8261C38.2192 75.1783 38.6498 75.3545 39.1921 75.3545C39.7233 75.3545 40.1231 75.2119 40.3915 74.9267C40.6655 74.636 40.8304 74.2558 40.8863 73.7861H39.4018V72.9809H41.9683V76.21H40.9786L40.8947 75.4383C40.7046 75.7179 40.467 75.9332 40.1818 76.0842C39.8966 76.2351 39.5332 76.3106 39.0915 76.3106ZM43.8506 76.21V70.339H46.0061C46.4758 70.339 46.8616 70.4201 47.1635 70.5822C47.4711 70.7388 47.7003 70.9541 47.8513 71.228C48.0022 71.4964 48.0777 71.7956 48.0777 72.1254C48.0777 72.4833 47.9827 72.8104 47.7926 73.1067C47.6081 73.4031 47.3173 73.6183 46.9203 73.7525L48.1364 76.21H46.9035L45.8132 73.8951H44.9242V76.21H43.8506ZM44.9242 73.1067H45.939C46.2969 73.1067 46.5597 73.0201 46.7274 72.8467C46.8952 72.6734 46.979 72.4442 46.979 72.159C46.979 71.8794 46.8952 71.6558 46.7274 71.488C46.5653 71.3203 46.2997 71.2364 45.9306 71.2364H44.9242V73.1067ZM52.1794 76.3106C51.7489 76.3106 51.3603 76.2267 51.0136 76.059C50.6669 75.8857 50.3902 75.6257 50.1833 75.279C49.982 74.9323 49.8814 74.4934 49.8814 73.9622V70.339H50.9549V73.9706C50.9549 74.4291 51.0639 74.7702 51.282 74.9938C51.5057 75.2175 51.8132 75.3293 52.2046 75.3293C52.5904 75.3293 52.8951 75.2175 53.1188 74.9938C53.3424 74.7702 53.4543 74.4291 53.4543 73.9706V70.339H54.5278V73.9622C54.5278 74.4934 54.4216 74.9323 54.2091 75.279C53.9966 75.6257 53.7115 75.8857 53.3536 76.059C53.0013 76.2267 52.61 76.3106 52.1794 76.3106ZM56.4624 76.21V70.339H57.5359L60.2953 74.4738V70.339H61.3688V76.21H60.2953L57.5359 72.0835V76.21H56.4624ZM64.7128 76.21V71.2029H63.0018V70.339H67.5057V71.2029H65.7864V76.21H64.7128ZM71.6777 76.3106C71.0906 76.3106 70.5762 76.182 70.1345 75.9248C69.6983 75.6676 69.3545 75.3125 69.1029 74.8596C68.8568 74.4011 68.7338 73.8728 68.7338 73.2745C68.7338 72.6762 68.8568 72.1506 69.1029 71.6977C69.3545 71.2392 69.6983 70.8814 70.1345 70.6242C70.5762 70.367 71.0906 70.2384 71.6777 70.2384C72.2592 70.2384 72.7708 70.367 73.2125 70.6242C73.6543 70.8814 73.9981 71.2392 74.2441 71.6977C74.4902 72.1506 74.6132 72.6762 74.6132 73.2745C74.6132 73.8728 74.4902 74.4011 74.2441 74.8596C73.9981 75.3125 73.6543 75.6676 73.2125 75.9248C72.7708 76.182 72.2592 76.3106 71.6777 76.3106ZM71.6777 75.3461C72.2368 75.3461 72.6814 75.1616 73.0112 74.7925C73.3467 74.4235 73.5145 73.9175 73.5145 73.2745C73.5145 72.6315 73.3467 72.1254 73.0112 71.7564C72.6814 71.3874 72.2368 71.2029 71.6777 71.2029C71.1186 71.2029 70.6712 71.3874 70.3358 71.7564C70.0003 72.1254 69.8325 72.6315 69.8325 73.2745C69.8325 73.9175 70.0003 74.4235 70.3358 74.7925C70.6712 75.1616 71.1186 75.3461 71.6777 75.3461ZM71.2583 70.0035V69.2487L73.1538 68.2254V69.0977L71.2583 70.0035ZM77.3368 76.21L75.7852 70.339H76.9342L77.991 75.0106L79.2323 70.339H80.4149L81.6226 75.0106L82.6794 70.339H83.8368L82.2433 76.21H80.9684L79.8026 71.8571L78.6033 76.21H77.3368Z" fill="#F0F0F0"/>
</g>
<defs>
<clipPath id="clip0_682_7698">
<rect width="116.021" height="84.5698" fill="white" transform="translate(1.98926 17.7148)"/>
</clipPath>
</defs>
</svg>
