<svg width="70" height="70" viewBox="0 0 70 70" fill="none" xmlns="http://www.w3.org/2000/svg">
<path d="M28.506 42.8235C27.1124 42.8235 25.9932 42.3933 25.1486 41.5329C24.3039 40.6315 23.8816 39.4433 23.8816 37.9684C23.8816 35.3052 24.7685 33.0313 26.5422 31.1466C28.316 29.2209 30.4909 27.623 33.0671 26.3529L33.954 27.5821C32.8982 28.2376 31.9057 29.057 30.9766 30.0404C30.0475 30.9827 29.3296 32.0275 28.8228 33.1747L30.5332 34.4038C31.2089 34.8955 31.7579 35.5101 32.1802 36.2476C32.6026 36.9441 32.8137 37.6406 32.8137 38.3371C32.8137 39.6072 32.3914 40.6725 31.5468 41.5329C30.7443 42.3933 29.7308 42.8235 28.506 42.8235ZM41.4925 42.8235C40.0988 42.8235 38.9796 42.3933 38.135 41.5329C37.2903 40.6315 36.868 39.4433 36.868 37.9684C36.868 35.3052 37.7549 33.0313 39.5287 31.1466C41.3024 29.2209 43.4774 27.623 46.0535 26.3529L46.9404 27.5821C45.8846 28.2376 44.8922 29.057 43.963 30.0404C43.0339 30.9827 42.316 32.0275 41.8092 33.1747L43.5196 34.4038C44.1953 34.8955 44.7443 35.5101 45.1667 36.2476C45.589 36.9441 45.8001 37.6406 45.8001 38.3371C45.8001 39.6072 45.3778 40.6725 44.5332 41.5329C43.7308 42.3933 42.7172 42.8235 41.4925 42.8235Z" fill="#B79763"/>
<g clip-path="url(#clip0_763_14296)">
<path d="M34.9924 70.0001C34.8308 70.0007 34.6711 69.9652 34.5249 69.8963C34.3787 69.8274 34.2497 69.7268 34.1473 69.6018C33.4997 68.8148 32.6481 68.5557 31.7545 68.2837C30.6698 67.9598 29.4458 67.5776 28.7367 66.1623C27.9087 66.8478 26.8684 67.2244 25.7936 67.2279C23.1029 67.3185 20.4348 65.9907 17.8478 64.7049C15.4582 63.5196 12.9909 62.2922 10.6434 62.2922C10.0813 62.2909 9.52155 62.3649 8.97912 62.5124C8.77114 62.5709 8.55136 62.573 8.34229 62.5185C8.13322 62.464 7.94244 62.3548 7.7895 62.2021C7.63656 62.0495 7.52699 61.8589 7.47203 61.6499C7.41707 61.4409 7.41871 61.221 7.47677 61.0129C8.26682 58.1499 6.82919 55.2319 5.28471 52.1422C3.98956 49.5513 2.67496 46.8795 2.76562 44.1946C2.76908 43.1195 3.14562 42.0789 3.8309 41.2507C2.41271 40.5414 2.04033 39.3075 1.71007 38.2323C1.43808 37.3384 1.17903 36.4931 0.388982 35.8389C0.265223 35.7356 0.165682 35.6063 0.0973661 35.4602C0.0290497 35.3142 -0.00634766 35.1549 -0.00634766 34.9936C-0.00634766 34.8324 0.0290497 34.6731 0.0973661 34.527C0.165682 34.381 0.265223 34.2517 0.388982 34.1484C1.17903 33.5006 1.43808 32.6489 1.71007 31.7518C2.03386 30.67 2.41594 29.4426 3.8309 28.7366C3.1461 27.908 2.76962 26.8677 2.76562 25.7926C2.67496 23.1078 4.00251 20.4295 5.28471 17.845C6.81947 14.7521 8.26682 11.8341 7.47677 8.97438C7.41907 8.76613 7.41764 8.5463 7.47266 8.33732C7.52768 8.12835 7.6372 7.93772 7.78997 7.78491C7.94274 7.6321 8.13329 7.52258 8.34221 7.46755C8.55114 7.41251 8.77092 7.41392 8.97912 7.47164C9.52155 7.61909 10.0813 7.69317 10.6434 7.69189C12.9844 7.69189 15.4582 6.46768 17.8478 5.27909C20.4381 3.98364 23.1093 2.68817 25.7936 2.75942C26.8684 2.76288 27.9087 3.13951 28.7367 3.82495C29.4458 2.40642 30.6795 2.03396 31.7512 1.70362C32.6481 1.43157 33.4932 1.1725 34.1473 0.382268C34.2527 0.261876 34.3827 0.165396 34.5284 0.099302C34.6742 0.033208 34.8324 -0.000976562 34.9924 -0.000976562C35.1524 -0.000976562 35.3106 0.033208 35.4563 0.099302C35.6021 0.165396 35.7321 0.261876 35.8375 0.382268C36.4851 1.1725 37.3366 1.43157 38.2335 1.70362C39.315 2.02748 40.5421 2.40642 41.248 3.82495C42.0761 3.13951 43.1163 2.76288 44.1912 2.75942C46.8722 2.66874 49.5499 3.99659 52.137 5.27909C54.5266 6.46768 56.9938 7.69513 59.3413 7.69189C59.9034 7.69317 60.4632 7.61909 61.0056 7.47164C61.2146 7.41541 61.4348 7.41578 61.6436 7.47269C61.8524 7.5296 62.0423 7.641 62.1939 7.79551C62.3498 7.94615 62.4622 8.1361 62.5192 8.34529C62.5762 8.55448 62.5757 8.77518 62.5177 8.9841C61.7309 11.8438 63.1653 14.7651 64.713 17.8547C66.0082 20.4456 67.3228 23.1175 67.2321 25.8024C67.2281 26.8774 66.8516 27.9177 66.1668 28.7463C67.5818 29.4523 67.9574 30.6895 68.2877 31.7615C68.5596 32.6586 68.8186 33.5039 69.6087 34.1581C69.7329 34.2611 69.833 34.3902 69.9016 34.5363C69.9703 34.6825 70.0059 34.8419 70.0059 35.0034C70.0059 35.1648 69.9703 35.3242 69.9016 35.4703C69.833 35.6164 69.7329 35.7456 69.6087 35.8486C68.8219 36.4964 68.5629 37.3481 68.2909 38.242C67.9671 39.327 67.585 40.5511 66.1701 41.2604C66.8549 42.0889 67.2313 43.1293 67.2353 44.2043C67.326 46.8892 65.9985 49.5643 64.7162 52.152C63.1815 55.2416 61.7341 58.1596 62.5242 61.0226C62.5812 61.2306 62.5821 61.4501 62.5267 61.6586C62.4714 61.867 62.3618 62.0571 62.2091 62.2095C62.0564 62.3619 61.8661 62.4711 61.6576 62.526C61.449 62.5809 61.2296 62.5795 61.0218 62.5221C60.4793 62.3747 59.9196 62.3006 59.3575 62.3019C57.0165 62.3019 54.5428 63.5293 52.1532 64.7147C49.5629 66.0101 46.8884 67.325 44.2074 67.2375C43.1319 67.2345 42.0912 66.8566 41.2642 66.1688C40.5584 67.5873 39.3215 67.963 38.2465 68.2933C37.3528 68.5654 36.5077 68.8245 35.8536 69.6115C35.7485 69.7369 35.6165 69.8369 35.4674 69.9042C35.3183 69.9715 35.1559 70.0043 34.9924 70.0001ZM28.7465 64.9835C28.8215 64.983 28.8964 64.9906 28.9699 65.0062C29.1366 65.0389 29.2934 65.11 29.4277 65.2141C29.5621 65.3181 29.6703 65.4521 29.7438 65.6053C30.2295 66.619 31.0389 66.8684 32.088 67.1858C33.0432 67.4772 34.1246 67.8075 35.0021 68.8245C35.8699 67.8075 36.9448 67.4772 37.9162 67.1858C38.9556 66.8619 39.7748 66.619 40.2604 65.6053C40.3347 65.4531 40.4429 65.32 40.5767 65.2164C40.7106 65.1127 40.8664 65.0412 41.0323 65.0074C41.1982 64.9736 41.3696 64.9783 41.5333 65.0214C41.697 65.0644 41.8487 65.1445 41.9765 65.2555C42.6087 65.7935 43.413 66.0865 44.2431 66.0814C46.6359 66.1656 49.1808 64.8992 51.6416 63.6783C54.1024 62.4573 56.7413 61.1457 59.3543 61.1457C60.0193 61.1436 60.6816 61.2318 61.3229 61.408L61.8021 61.7934L61.3942 61.3886C61.4047 61.3804 61.4122 61.369 61.4157 61.3562C61.4193 61.3433 61.4185 61.3297 61.4136 61.3173C60.507 58.0334 62.1227 54.7785 63.6801 51.6305C64.9559 49.0591 66.1636 46.6301 66.0826 44.2335C66.0876 43.4039 65.7959 42.5998 65.2602 41.9664C65.1479 41.8393 65.0665 41.6879 65.0225 41.524C64.9785 41.3602 64.9731 41.1883 65.0067 41.022C65.0402 40.8557 65.1119 40.6994 65.216 40.5655C65.3201 40.4315 65.4538 40.3235 65.6067 40.25C66.6201 39.7642 66.8694 38.9545 67.1867 37.9052C67.4781 36.9498 67.8084 35.8681 68.8251 34.9904C67.8084 34.1224 67.4781 33.0472 67.1867 32.0756C66.8629 31.036 66.6201 30.2134 65.6099 29.7308C65.4563 29.6576 65.3218 29.5494 65.2173 29.4151C65.1127 29.2807 65.0409 29.1238 65.0076 28.9568C64.9724 28.7904 64.977 28.6181 65.0208 28.4538C65.0647 28.2894 65.1467 28.1378 65.2602 28.0111C65.7969 27.3783 66.0887 26.5739 66.0826 25.7441C66.1636 23.3475 64.9559 20.9185 63.6801 18.3438C62.1195 15.1958 60.5038 11.941 61.4136 8.66024C61.4188 8.64738 61.4196 8.6332 61.4161 8.61979C61.4126 8.60639 61.4049 8.59444 61.3942 8.58574H61.3229C60.6816 8.7619 60.0193 8.85015 59.3543 8.84806C56.7413 8.84806 54.1477 7.55263 51.6416 6.31546C49.1355 5.0783 46.6521 3.82817 44.2431 3.91238C43.4137 3.90745 42.6098 4.19921 41.9765 4.735C41.8508 4.8489 41.6998 4.93121 41.5359 4.97514C41.3721 5.01906 41.2001 5.02333 41.0343 4.98761C40.8668 4.95553 40.7094 4.88421 40.5749 4.7795C40.4404 4.67479 40.3326 4.53967 40.2604 4.38523C39.7748 3.37477 38.9653 3.1254 37.9162 2.80801C36.961 2.51653 35.8796 2.18619 35.0021 1.16601C34.1343 2.18619 33.0594 2.51653 32.088 2.80801C31.0486 3.13187 30.2295 3.37477 29.7438 4.38523C29.6712 4.53883 29.5638 4.67332 29.4299 4.77792C29.2961 4.88252 29.1397 4.95433 28.9731 4.98761C28.8068 5.02361 28.6343 5.01948 28.4699 4.97555C28.3055 4.93162 28.1539 4.84917 28.0277 4.735C27.3944 4.19921 26.5906 3.90745 25.7611 3.91238C23.3554 3.82817 20.8233 5.0945 18.3625 6.31546C15.9017 7.53643 13.2597 8.84806 10.6499 8.84806C9.98487 8.85015 9.32258 8.7619 8.68126 8.58574H8.61004C8.59926 8.59444 8.59156 8.60639 8.58806 8.61979C8.58456 8.6332 8.58544 8.64738 8.59059 8.66024C9.4972 11.941 7.88149 15.1958 6.32406 18.3438C5.04833 20.9347 3.84063 23.3475 3.92157 25.7441C3.91665 26.5737 4.20834 27.3777 4.74401 28.0111C4.85625 28.1385 4.9374 28.2901 4.98116 28.4541C5.02492 28.6181 5.03007 28.7901 4.99618 28.9564C4.96229 29.1227 4.89026 29.279 4.78583 29.4128C4.68139 29.5466 4.5474 29.6543 4.39429 29.7276C3.38407 30.2102 3.13472 31.0231 2.8174 32.0724C2.52599 33.0278 2.19579 34.1095 1.17909 34.9872C2.19579 35.8551 2.52599 36.9303 2.8174 37.9019C3.14119 38.9415 3.38407 39.7609 4.39429 40.2467C4.5474 40.32 4.68139 40.4277 4.78583 40.5616C4.89026 40.6954 4.96229 40.8516 4.99618 41.0179C5.03007 41.1842 5.02492 41.3562 4.98116 41.5202C4.9374 41.6842 4.85625 41.8359 4.74401 41.9632C4.20784 42.5963 3.91607 43.4006 3.92157 44.2303C3.84063 46.6269 5.04833 49.0558 6.32406 51.6273C7.88473 54.7753 9.50044 58.0301 8.59059 61.3141C8.58568 61.3265 8.58495 61.3401 8.58846 61.353C8.59196 61.3658 8.59953 61.3772 8.61004 61.3853L8.68126 61.4047C9.32258 61.2286 9.98487 61.1404 10.6499 61.1424C13.2597 61.1424 15.8564 62.4379 18.3625 63.675C20.8687 64.9122 23.3586 66.1656 25.7611 66.0781C26.5906 66.0831 27.3944 65.7913 28.0277 65.2555C28.2269 65.0773 28.4857 64.9802 28.753 64.9835H28.7465Z" fill="#B79763"/>
<path fill-rule="evenodd" clip-rule="evenodd" d="M34.9914 14.9397C30.3529 14.9391 25.8577 16.5473 22.2717 19.4901C18.6858 22.433 16.2309 26.5285 15.3254 31.0788C14.42 35.6291 15.1199 40.3526 17.306 44.4446C19.492 48.5366 23.0291 51.7438 27.3143 53.5197C31.5995 55.2957 36.3677 55.5305 40.8066 54.1842C45.2455 52.8379 49.0803 49.9937 51.6577 46.1363C54.2351 42.279 55.3956 37.647 54.9414 33.0298C54.4872 28.4125 52.4465 24.0956 49.1669 20.8146C47.3074 18.9497 45.0978 17.4706 42.6652 16.4624C40.2325 15.4542 37.6246 14.9367 34.9914 14.9397ZM19.9611 19.9596C23.4383 16.4823 28.0133 14.3185 32.9067 13.8368C37.8 13.3552 42.709 14.5855 46.7972 17.3182C50.8853 20.0508 53.8998 24.1168 55.3269 28.8232C56.7539 33.5297 56.5053 38.5854 54.6235 43.1291C52.7416 47.6728 49.3429 51.4233 45.0065 53.7416C40.67 56.0599 35.664 56.8026 30.8415 55.843C26.0189 54.8835 21.6783 52.2811 18.559 48.4793C15.4397 44.6776 13.7347 39.9116 13.7346 34.9934C13.7319 32.2004 14.2811 29.4343 15.3508 26.8542C16.4205 24.2742 17.9895 21.9311 19.9676 19.9596H19.9611Z" fill="#B79763"/>
<path fill-rule="evenodd" clip-rule="evenodd" d="M9.98537 33.4875C9.26332 33.3256 8.54453 33.1637 7.82248 33.0341C7.10043 32.9046 6.36541 32.7718 5.61745 32.6617C5.5599 32.6485 5.50974 32.6134 5.47769 32.5638C5.44564 32.5142 5.43422 32.454 5.44584 32.3961C5.45052 32.3428 5.47445 32.293 5.51319 32.256C5.55192 32.2191 5.60278 32.1975 5.65627 32.1953C6.41394 32.2148 7.15546 32.2148 7.8937 32.1953C8.63194 32.1759 9.36365 32.1565 10.1019 32.1208C10.6101 32.1632 11.1046 32.3075 11.5558 32.5451C11.79 32.6485 12.03 32.7383 12.2746 32.8139C12.2992 32.8192 12.3224 32.8294 12.343 32.844C12.3635 32.8586 12.3807 32.8773 12.3938 32.8988C12.4068 32.9203 12.4153 32.9443 12.4188 32.9693C12.4222 32.9942 12.4205 33.0196 12.4138 33.0439C12.4002 33.0791 12.3769 33.1097 12.3464 33.1321C12.316 33.1545 12.2799 33.1677 12.2422 33.1702C11.9894 33.2041 11.7386 33.2516 11.491 33.3126C11.006 33.4721 10.4939 33.5316 9.98537 33.4875Z" fill="#B79763"/>
<path fill-rule="evenodd" clip-rule="evenodd" d="M10.6205 29.164C9.94058 28.8822 9.2606 28.6069 8.57093 28.3446C7.88126 28.0822 7.18187 27.8296 6.46306 27.59C6.41361 27.5652 6.37426 27.5241 6.35168 27.4736C6.32909 27.4231 6.3247 27.3663 6.33919 27.3129C6.35367 27.2595 6.38619 27.2128 6.4312 27.1807C6.47621 27.1485 6.53095 27.1329 6.58614 27.1366C7.32762 27.2888 8.05939 27.4183 8.78468 27.5349C9.50997 27.6515 10.2385 27.7519 10.9735 27.8588C11.466 27.9891 11.9274 28.2171 12.3302 28.5292C12.538 28.6726 12.7542 28.8035 12.9777 28.9211C13.0006 28.9308 13.0212 28.9452 13.0384 28.9631C13.0557 28.9811 13.0691 29.0024 13.0779 29.0257C13.0867 29.049 13.0906 29.0738 13.0895 29.0987C13.0884 29.1236 13.0824 29.148 13.0716 29.1704C13.0524 29.203 13.0241 29.2292 12.9901 29.2459C12.9562 29.2626 12.9181 29.269 12.8806 29.2643C12.6261 29.25 12.371 29.25 12.1165 29.2643C11.6161 29.3308 11.1075 29.2967 10.6205 29.164Z" fill="#B79763"/>
<path fill-rule="evenodd" clip-rule="evenodd" d="M12.0035 25.0218C11.3786 24.6235 10.7602 24.2316 10.1255 23.8527C9.49092 23.4738 8.84981 23.1046 8.18281 22.7418C8.13949 22.7087 8.10878 22.6617 8.09577 22.6087C8.08277 22.5557 8.08824 22.4998 8.11127 22.4504C8.1343 22.4009 8.17357 22.3608 8.22249 22.3366C8.27141 22.3125 8.32709 22.3058 8.38036 22.3176C9.08298 22.5961 9.77912 22.8519 10.4785 23.0948C11.1779 23.3377 11.8708 23.5645 12.5766 23.7847C13.0391 23.998 13.4533 24.3032 13.7941 24.6818C13.9796 24.8603 14.1753 25.0279 14.3802 25.1838C14.4014 25.1971 14.4196 25.2147 14.4337 25.2354C14.4478 25.2562 14.4574 25.2796 14.4619 25.3043C14.4665 25.3289 14.4659 25.3542 14.4602 25.3787C14.4545 25.4031 14.4437 25.426 14.4287 25.4461C14.4045 25.4743 14.3727 25.4948 14.337 25.5051C14.3014 25.5155 14.2635 25.5152 14.228 25.5044C13.9778 25.4498 13.7249 25.4087 13.4703 25.3813C12.9623 25.3608 12.4635 25.2386 12.0035 25.0218Z" fill="#B79763"/>
<path fill-rule="evenodd" clip-rule="evenodd" d="M14.0841 21.1807C13.5401 20.6787 12.9962 20.1864 12.4393 19.7039C11.8823 19.2213 11.3157 18.7323 10.7199 18.2724C10.675 18.2315 10.6481 18.1745 10.6451 18.1138C10.642 18.0531 10.6631 17.9937 10.7037 17.9485C10.7346 17.9042 10.7807 17.8728 10.8332 17.8603C10.8857 17.8477 10.9411 17.8549 10.9887 17.8805C11.6363 18.2789 12.2839 18.6513 12.9314 19.0108C13.579 19.3703 14.2266 19.7136 14.8742 20.0537C15.2938 20.3447 15.6496 20.7183 15.92 21.1516C16.0715 21.3575 16.2336 21.5553 16.4057 21.7442C16.4236 21.7617 16.4378 21.7826 16.4475 21.8057C16.4572 21.8288 16.4623 21.8536 16.4623 21.8786C16.4623 21.9037 16.4572 21.9285 16.4475 21.9516C16.4378 21.9746 16.4236 21.9955 16.4057 22.013C16.3764 22.0364 16.341 22.0509 16.3037 22.055C16.2664 22.059 16.2288 22.0523 16.1952 22.0357C15.9782 21.9418 15.7257 21.8608 15.4699 21.7799C14.9721 21.6764 14.5005 21.4725 14.0841 21.1807Z" fill="#B79763"/>
<path fill-rule="evenodd" clip-rule="evenodd" d="M16.8049 17.7575C16.3516 17.1681 15.9048 16.5949 15.4418 16.0216C14.9788 15.4484 14.4963 14.8816 13.9944 14.3149C13.9754 14.2913 13.9613 14.2642 13.9528 14.2352C13.9443 14.2061 13.9417 14.1756 13.945 14.1455C13.9483 14.1155 13.9575 14.0863 13.9721 14.0598C13.9867 14.0333 14.0064 14.0099 14.03 13.991C14.0688 13.9529 14.1201 13.9303 14.1743 13.9273C14.2285 13.9244 14.282 13.9412 14.3247 13.9748C14.8913 14.4768 15.4579 14.9464 16.031 15.4193C16.6041 15.8921 17.1773 16.3325 17.7698 16.7827C18.1303 17.144 18.4153 17.5733 18.6084 18.0458C18.7314 18.2822 18.8545 18.5186 18.984 18.7162C18.9999 18.7357 19.0114 18.7582 19.0179 18.7825C19.0244 18.8067 19.0256 18.832 19.0217 18.8568C19.0177 18.8815 19.0085 18.9052 18.9948 18.9262C18.981 18.9471 18.963 18.965 18.9419 18.9785C18.9107 18.9991 18.8741 19.0101 18.8367 19.0101C18.7993 19.0101 18.7627 18.9991 18.7315 18.9785C18.5157 18.8419 18.2931 18.7165 18.0644 18.6028C17.5915 18.4097 17.1629 18.1221 16.8049 17.7575Z" fill="#B79763"/>
<path fill-rule="evenodd" clip-rule="evenodd" d="M20.0718 14.8685C19.7318 14.2208 19.3886 13.5731 19.0292 12.9253C18.6698 12.2776 18.2974 11.6299 17.8991 10.9821C17.8715 10.9301 17.8656 10.8693 17.8825 10.8129C17.8995 10.7565 17.9381 10.7091 17.9898 10.681C18.0346 10.6501 18.0891 10.6363 18.1432 10.6423C18.1973 10.6482 18.2474 10.6734 18.2844 10.7133C18.7539 11.3092 19.23 11.876 19.7156 12.433C20.2013 12.9901 20.687 13.5342 21.1889 14.0783C21.4841 14.494 21.6912 14.9657 21.7976 15.4644C21.8785 15.7203 21.9595 15.9729 22.0534 16.1899C22.0648 16.2121 22.0717 16.2364 22.0735 16.2613C22.0753 16.2863 22.0719 16.3113 22.0637 16.3349C22.0556 16.3585 22.0427 16.3803 22.0259 16.3987C22.0091 16.4172 21.9887 16.4321 21.966 16.4425C21.9305 16.454 21.8926 16.4552 21.8565 16.446C21.8204 16.4369 21.7876 16.4177 21.7619 16.3907C21.5731 16.2194 21.3754 16.0584 21.1694 15.9081C20.7369 15.6396 20.3634 15.2859 20.0718 14.8685Z" fill="#B79763"/>
<path fill-rule="evenodd" clip-rule="evenodd" d="M23.7924 12.5691C23.5722 11.8631 23.3456 11.1668 23.1028 10.4705C22.8599 9.77417 22.6073 9.07463 22.3256 8.37184C22.3082 8.31515 22.3138 8.2539 22.341 8.20123C22.3683 8.14856 22.4151 8.10866 22.4714 8.09008C22.5202 8.06735 22.5756 8.06303 22.6274 8.07791C22.6791 8.09278 22.7237 8.12586 22.753 8.17105C23.1125 8.83821 23.4815 9.4665 23.8636 10.1142C24.2457 10.762 24.631 11.3676 25.0293 11.9926C25.2478 12.4532 25.3702 12.9535 25.3887 13.463C25.4156 13.7179 25.4577 13.971 25.515 14.2208C25.5223 14.2446 25.5248 14.2697 25.5222 14.2945C25.5197 14.3193 25.5121 14.3433 25.5 14.3651C25.4879 14.3869 25.4715 14.406 25.4518 14.4213C25.4321 14.4365 25.4096 14.4477 25.3855 14.454C25.3484 14.4603 25.3103 14.4556 25.2758 14.4407C25.2414 14.4258 25.212 14.4011 25.1912 14.3698C25.0344 14.1667 24.8668 13.9721 24.6893 13.7868C24.3125 13.4445 24.0076 13.0305 23.7924 12.5691Z" fill="#B79763"/>
<path fill-rule="evenodd" clip-rule="evenodd" d="M27.8681 10.9628C27.771 10.2276 27.6706 9.50216 27.5443 8.77347C27.4181 8.04477 27.2983 7.31608 27.1461 6.57444C27.1387 6.51572 27.1545 6.45642 27.1902 6.40922C27.2259 6.36202 27.2786 6.33064 27.3371 6.32181C27.3891 6.30754 27.4445 6.31286 27.4929 6.33674C27.5412 6.36061 27.5791 6.4014 27.5994 6.45137C27.839 7.17034 28.0915 7.86989 28.3538 8.55972C28.6161 9.24955 28.8913 9.92642 29.173 10.6098C29.3084 11.102 29.3415 11.6167 29.2702 12.1222C29.2702 12.3878 29.2475 12.6501 29.2702 12.8898C29.2738 12.9144 29.2723 12.9394 29.2658 12.9634C29.2593 12.9874 29.248 13.0098 29.2325 13.0293C29.217 13.0487 29.1978 13.0648 29.1758 13.0764C29.1539 13.0881 29.1298 13.0951 29.105 13.0971C29.0673 13.0967 29.0305 13.0855 28.9989 13.0648C28.9674 13.0441 28.9424 13.0149 28.9269 12.9805C28.8087 12.758 28.679 12.5418 28.5384 12.3327C28.2229 11.9272 27.9947 11.4608 27.8681 10.9628Z" fill="#B79763"/>
<path fill-rule="evenodd" clip-rule="evenodd" d="M32.1321 10.0916C32.1666 9.35317 32.1914 8.61692 32.2065 7.88282C32.2065 7.14441 32.2065 6.40277 32.2065 5.64493C32.2134 5.59069 32.2385 5.5404 32.2778 5.50243C32.3172 5.46446 32.3683 5.44107 32.4227 5.43615C32.4772 5.43124 32.5316 5.44509 32.5771 5.47541C32.6226 5.50572 32.6564 5.55068 32.6729 5.60283C32.783 6.35419 32.9092 7.08613 33.0484 7.81158C33.1877 8.53704 33.3366 9.25277 33.4985 9.97175C33.5465 10.48 33.4892 10.9927 33.3302 11.4777C33.2694 11.7266 33.2218 11.9785 33.1876 12.2323C33.1864 12.2573 33.1803 12.2818 33.1695 12.3043C33.1586 12.3269 33.1434 12.347 33.1247 12.3636C33.106 12.3802 33.0842 12.3929 33.0605 12.4009C33.0369 12.409 33.0119 12.4122 32.9869 12.4104C32.9498 12.4031 32.9156 12.3851 32.8886 12.3587C32.8616 12.3322 32.8429 12.2984 32.8348 12.2615C32.7565 12.0173 32.6657 11.7773 32.5627 11.5425C32.323 11.0928 32.1765 10.5993 32.1321 10.0916Z" fill="#B79763"/>
<path fill-rule="evenodd" clip-rule="evenodd" d="M33.4922 60.012C33.3335 60.7342 33.1684 61.4499 33.0421 62.1754C32.9158 62.9008 32.7766 63.6328 32.6665 64.3809C32.6533 64.4385 32.6182 64.4886 32.5686 64.5207C32.519 64.5527 32.4589 64.5642 32.401 64.5526C32.3471 64.5478 32.2969 64.5234 32.2599 64.484C32.2229 64.4445 32.2016 64.3929 32.2002 64.3388C32.2196 63.581 32.2196 62.8425 32.2002 62.1041C32.1808 61.3657 32.1613 60.6338 32.1257 59.8954C32.1681 59.3871 32.3124 58.8926 32.5499 58.4412C32.6534 58.2055 32.7443 57.9645 32.8219 57.719C32.8272 57.6948 32.8373 57.6719 32.8517 57.6518C32.8662 57.6316 32.8846 57.6147 32.9058 57.602C32.927 57.5892 32.9507 57.581 32.9752 57.5777C32.9998 57.5744 33.0247 57.5762 33.0486 57.583C33.084 57.5962 33.1149 57.6195 33.1373 57.65C33.1598 57.6805 33.1728 57.7168 33.1748 57.7546C33.2087 58.0075 33.2563 58.2583 33.3173 58.506C33.4783 58.9907 33.5378 59.5033 33.4922 60.012Z" fill="#B79763"/>
<path fill-rule="evenodd" clip-rule="evenodd" d="M29.1637 59.3773C28.882 60.0574 28.6067 60.7375 28.3445 61.4273C28.0822 62.1172 27.8296 62.8167 27.59 63.5357C27.5652 63.5851 27.5241 63.6245 27.4737 63.6471C27.4232 63.6697 27.3665 63.6741 27.3131 63.6596C27.2597 63.6451 27.213 63.6126 27.1809 63.5676C27.1487 63.5226 27.1331 63.4678 27.1367 63.4126C27.2889 62.671 27.4184 61.939 27.535 61.2103C27.6516 60.4816 27.7519 59.7562 27.8588 59.0242C27.9864 58.5306 28.2146 58.0686 28.5291 57.6673C28.6715 57.4406 28.814 57.2171 28.9208 57.0033C28.9303 56.9806 28.9443 56.96 28.9619 56.9427C28.9795 56.9254 29.0004 56.9118 29.0234 56.9028C29.0463 56.8937 29.0708 56.8894 29.0955 56.8899C29.1201 56.8905 29.1444 56.8961 29.1669 56.9062C29.1995 56.9254 29.2256 56.9538 29.2423 56.9877C29.259 57.0217 29.2655 57.0597 29.2608 57.0973C29.2608 57.3369 29.2608 57.596 29.2608 57.8648C29.332 58.3703 29.2989 58.885 29.1637 59.3773Z" fill="#B79763"/>
<path fill-rule="evenodd" clip-rule="evenodd" d="M25.0282 57.9944C24.63 58.6162 24.2414 59.238 23.8626 59.8695C23.4837 60.5011 23.1114 61.1455 22.752 61.8127C22.7196 61.8581 22.6723 61.8908 22.6183 61.9051C22.5644 61.9194 22.5072 61.9144 22.4565 61.891C22.4058 61.8676 22.3649 61.8272 22.3409 61.7768C22.3168 61.7265 22.311 61.6693 22.3246 61.6152C22.6063 60.9091 22.8589 60.2161 23.1017 59.5165C23.3446 58.817 23.5712 58.1239 23.7913 57.4179C24.0064 56.9555 24.3113 56.5404 24.6882 56.1969C24.8676 56.0133 25.0352 55.8186 25.1901 55.614C25.2035 55.5929 25.2211 55.5747 25.2418 55.5606C25.2624 55.5464 25.2856 55.5367 25.3101 55.5318C25.3347 55.527 25.36 55.5272 25.3844 55.5324C25.4089 55.5376 25.432 55.5477 25.4524 55.5621C25.4805 55.5871 25.5009 55.6195 25.5112 55.6556C25.5216 55.6918 25.5214 55.7301 25.5107 55.7662C25.4558 56.0164 25.4148 56.2693 25.3877 56.524C25.3688 57.0334 25.2465 57.5337 25.0282 57.9944Z" fill="#B79763"/>
<path fill-rule="evenodd" clip-rule="evenodd" d="M21.1892 55.9119C20.6873 56.456 20.1951 57.0001 19.7159 57.5572C19.2367 58.1142 18.7445 58.681 18.2847 59.2736C18.2443 59.319 18.1875 59.3466 18.1269 59.3502C18.0662 59.3539 18.0065 59.3333 17.9609 59.2931C17.9166 59.2622 17.8853 59.2161 17.8727 59.1635C17.8602 59.111 17.8674 59.0557 17.893 59.0081C18.2912 58.3604 18.6636 57.7126 19.023 57.0649C19.3824 56.4172 19.7256 55.7695 20.0656 55.1217C20.3574 54.7028 20.7308 54.347 21.1633 54.0757C21.3691 53.9242 21.5669 53.762 21.7558 53.5899C21.7733 53.5719 21.7942 53.5577 21.8172 53.5479C21.8403 53.5382 21.8651 53.5332 21.8901 53.5332C21.9152 53.5332 21.94 53.5382 21.9631 53.5479C21.9862 53.5577 22.007 53.5719 22.0245 53.5899C22.0479 53.6192 22.0624 53.6545 22.0664 53.6918C22.0704 53.7291 22.0638 53.7667 22.0472 53.8003C21.9533 54.0173 21.8723 54.2699 21.7914 54.5258C21.6863 55.0238 21.4814 55.4953 21.1892 55.9119Z" fill="#B79763"/>
<path fill-rule="evenodd" clip-rule="evenodd" d="M17.7704 53.1914C17.1778 53.6448 16.6047 54.0917 16.0316 54.5549C15.4585 55.018 14.8918 55.5005 14.3252 56.0025C14.3016 56.0215 14.2746 56.0356 14.2455 56.0441C14.2165 56.0526 14.186 56.0553 14.156 56.052C14.1259 56.0487 14.0967 56.0394 14.0702 56.0248C14.0437 56.0102 14.0203 55.9906 14.0014 55.9669C13.9663 55.9258 13.947 55.8736 13.947 55.8195C13.947 55.7655 13.9663 55.7132 14.0014 55.6722C14.5033 55.1054 14.9728 54.5354 15.4487 53.9654C15.9247 53.3954 16.3587 52.8157 16.812 52.2263C17.1714 51.8651 17.5997 51.5798 18.0715 51.3875C18.3019 51.274 18.5257 51.1474 18.7417 51.0085C18.7616 50.9936 18.7841 50.9829 18.8082 50.9769C18.8323 50.971 18.8573 50.97 18.8818 50.9739C18.9063 50.9778 18.9297 50.9866 18.9507 50.9998C18.9717 51.013 18.9898 51.0303 19.004 51.0506C19.0245 51.0825 19.0354 51.1196 19.0354 51.1575C19.0354 51.1954 19.0245 51.2325 19.004 51.2644C18.8667 51.4798 18.7413 51.7025 18.6284 51.9315C18.4303 52.4051 18.1385 52.8337 17.7704 53.1914Z" fill="#B79763"/>
<path fill-rule="evenodd" clip-rule="evenodd" d="M14.8686 49.9236C14.221 50.2475 13.5734 50.607 12.9259 50.9665C12.2783 51.3259 11.6307 51.6984 10.9831 52.0967C10.9324 52.1188 10.8755 52.1226 10.8223 52.1076C10.769 52.0925 10.7227 52.0595 10.691 52.0141C10.6594 51.9687 10.6444 51.9137 10.6487 51.8585C10.6529 51.8034 10.6761 51.7514 10.7143 51.7114C11.3101 51.2418 11.8768 50.7657 12.4337 50.2799C12.9906 49.7941 13.5345 49.3083 14.0785 48.8063C14.4942 48.5111 14.9657 48.3039 15.4643 48.1974C15.7201 48.1165 15.9727 48.0355 16.1896 47.9416C16.2115 47.9295 16.2357 47.9221 16.2606 47.9199C16.2855 47.9176 16.3106 47.9205 16.3343 47.9284C16.3581 47.9364 16.3799 47.9491 16.3984 47.9658C16.417 47.9826 16.4319 48.003 16.4422 48.0258C16.4539 48.0615 16.4556 48.0997 16.4471 48.1362C16.4385 48.1728 16.42 48.2063 16.3936 48.2331C16.2206 48.4212 16.0584 48.6191 15.9079 48.8257C15.6385 49.2576 15.2851 49.631 14.8686 49.9236Z" fill="#B79763"/>
<path fill-rule="evenodd" clip-rule="evenodd" d="M12.579 46.2024C11.8731 46.4226 11.177 46.6493 10.4808 46.889C9.78466 47.1286 9.08528 47.3877 8.38266 47.6663C8.3264 47.6838 8.26553 47.6787 8.21294 47.6521C8.16035 47.6255 8.12014 47.5795 8.10092 47.5237C8.0785 47.4745 8.07469 47.4189 8.09017 47.3671C8.10565 47.3153 8.13937 47.2708 8.18511 47.242C8.84888 46.8825 9.48027 46.5133 10.1278 46.1312C10.7754 45.749 11.3809 45.3636 12.0058 44.9652C12.4663 44.7466 12.9665 44.6243 13.4759 44.6057C13.7307 44.5789 13.9837 44.5368 14.2335 44.4795C14.2573 44.4721 14.2824 44.4696 14.3071 44.4722C14.3319 44.4748 14.356 44.4823 14.3777 44.4944C14.3995 44.5065 14.4187 44.5229 14.4339 44.5426C14.4492 44.5623 14.4604 44.5849 14.4667 44.609C14.4734 44.646 14.4689 44.6843 14.4539 44.7189C14.439 44.7534 14.4141 44.7828 14.3825 44.8033C14.1797 44.9581 13.9862 45.1246 13.8029 45.302C13.4595 45.6813 13.0432 45.9875 12.579 46.2024Z" fill="#B79763"/>
<path fill-rule="evenodd" clip-rule="evenodd" d="M10.9739 42.138C10.2389 42.2352 9.51364 42.3356 8.78512 42.4619C8.05659 42.5882 7.32805 42.708 6.58658 42.857C6.52835 42.8645 6.4695 42.8491 6.42239 42.8141C6.37528 42.779 6.34359 42.7271 6.33401 42.6691C6.31975 42.6171 6.32508 42.5617 6.34895 42.5134C6.37282 42.465 6.41354 42.4271 6.4635 42.4068C7.18231 42.1672 7.8817 41.9145 8.57137 41.6522C9.26104 41.3899 9.94102 41.1146 10.621 40.8296C11.1136 40.697 11.6278 40.6651 12.133 40.7357C12.4018 40.7357 12.6641 40.7583 12.9005 40.7357C12.9252 40.7321 12.9504 40.7335 12.9746 40.7399C12.9988 40.7464 13.0214 40.7577 13.0411 40.7731C13.0608 40.7886 13.0772 40.8078 13.0892 40.8298C13.1012 40.8518 13.1085 40.8759 13.1109 40.9008C13.1095 40.9387 13.0975 40.9755 13.0764 41.007C13.0552 41.0384 13.0257 41.0634 12.9911 41.079C12.7687 41.1972 12.5525 41.3269 12.3436 41.4676C11.9385 41.7837 11.4721 42.012 10.9739 42.138Z" fill="#B79763"/>
<path fill-rule="evenodd" clip-rule="evenodd" d="M10.1014 37.863C9.3632 37.8306 8.63149 37.8047 7.89325 37.7917C7.15501 37.7788 6.41348 37.7917 5.65582 37.7917C5.59741 37.7884 5.5426 37.7626 5.50277 37.7197C5.46295 37.6769 5.44121 37.6203 5.44214 37.5618C5.43776 37.5079 5.45307 37.4542 5.48523 37.4108C5.51738 37.3673 5.56419 37.3369 5.617 37.3254C6.36495 37.2152 7.09674 37.089 7.82203 36.9497C8.54731 36.8104 9.26287 36.6582 9.98492 36.4995C10.493 36.4518 11.0055 36.5091 11.4905 36.6679C11.7392 36.7293 11.9911 36.7768 12.245 36.8104C12.2698 36.8116 12.2941 36.8178 12.3165 36.8287C12.3389 36.8395 12.3588 36.8548 12.3752 36.8736C12.3915 36.8923 12.4038 36.9142 12.4115 36.9378C12.4192 36.9615 12.422 36.9864 12.4198 37.0112C12.4127 37.0479 12.3952 37.0818 12.3694 37.1088C12.3435 37.1358 12.3105 37.1548 12.2741 37.1634C12.03 37.2417 11.7901 37.3325 11.5553 37.4355C11.105 37.6759 10.6102 37.8214 10.1014 37.863Z" fill="#B79763"/>
<path fill-rule="evenodd" clip-rule="evenodd" d="M60.0114 36.4994C60.7334 36.6581 61.449 36.8233 62.1743 36.9496C62.8995 37.0759 63.6313 37.2151 64.3793 37.3252C64.4314 37.3414 64.4764 37.3749 64.5069 37.4201C64.5374 37.4654 64.5515 37.5197 64.547 37.574C64.5425 37.6284 64.5195 37.6796 64.482 37.7192C64.4444 37.7587 64.3944 37.7843 64.3404 37.7916C63.5827 37.7722 62.8413 37.7722 62.103 37.7916C61.3648 37.8111 60.633 37.8305 59.8948 37.8629C59.3865 37.8233 58.8917 37.68 58.441 37.4418C58.2062 37.3388 57.9663 37.248 57.7221 37.1698C57.6975 37.1645 57.6743 37.1543 57.6538 37.1397C57.6333 37.1251 57.6159 37.1065 57.6029 37.0849C57.5898 37.0634 57.5813 37.0394 57.5779 37.0145C57.5745 36.9895 57.5762 36.9641 57.5829 36.9399C57.5973 36.9054 57.6209 36.8757 57.6512 36.8539C57.6816 36.8322 57.7173 36.8193 57.7546 36.8168C58.0077 36.7833 58.2585 36.7346 58.5058 36.671C59.04 36.5447 59.6001 36.4022 60.0114 36.4994Z" fill="#B79763"/>
<path fill-rule="evenodd" clip-rule="evenodd" d="M59.3765 40.8198C60.0597 41.1048 60.7363 41.3801 61.426 41.6424C62.1157 41.9047 62.8151 42.1573 63.5339 42.397C63.5607 42.408 63.5851 42.4242 63.6056 42.4447C63.6262 42.4651 63.6426 42.4894 63.6537 42.5162C63.6648 42.543 63.6705 42.5717 63.6705 42.6007C63.6706 42.6297 63.6648 42.6584 63.6537 42.6852C63.6413 42.738 63.6093 42.784 63.5642 42.8141C63.5191 42.8442 63.4643 42.856 63.4109 42.8471C62.6705 42.6982 61.9376 42.5665 61.2123 42.452C60.4838 42.3355 59.7585 42.2318 59.0235 42.1282C58.5299 42.0006 58.0681 41.7723 57.6668 41.4578C57.453 41.3149 57.2314 41.1841 57.0031 41.0659C56.9802 41.0561 56.9596 41.0418 56.9423 41.0238C56.9251 41.0058 56.9118 40.9845 56.903 40.9612C56.8942 40.938 56.8902 40.9131 56.8913 40.8882C56.8924 40.8634 56.8984 40.839 56.9091 40.8165C56.9288 40.7846 56.9574 40.759 56.9913 40.7429C57.0252 40.7268 57.063 40.7209 57.1002 40.7258C57.3547 40.7401 57.6098 40.7401 57.8643 40.7258C58.3696 40.6567 58.8836 40.6887 59.3765 40.8198Z" fill="#B79763"/>
<path fill-rule="evenodd" clip-rule="evenodd" d="M57.9812 44.9654C58.6029 45.3638 59.2246 45.7524 59.8592 46.1313C60.4939 46.5102 61.135 46.8827 61.802 47.2422C61.8287 47.258 61.852 47.2792 61.8702 47.3043C61.8884 47.3295 61.9013 47.3582 61.908 47.3886C61.9147 47.419 61.915 47.4504 61.909 47.4809C61.903 47.5115 61.8909 47.5404 61.8732 47.566C61.8505 47.615 61.8106 47.654 61.761 47.6755C61.7115 47.697 61.6557 47.6995 61.6044 47.6826C60.9018 47.4041 60.2057 47.1483 59.5063 46.9054C58.8069 46.6625 58.114 46.439 57.4081 46.2188C56.945 46.0035 56.5299 45.6973 56.1874 45.3184C56.0038 45.1402 55.8091 44.9736 55.6046 44.8197C55.5835 44.8063 55.5654 44.7887 55.5512 44.7681C55.5371 44.7474 55.5274 44.7241 55.5225 44.6996C55.5177 44.6751 55.5179 44.6498 55.5231 44.6254C55.5283 44.6009 55.5384 44.5778 55.5528 44.5574C55.5776 44.529 55.6099 44.5081 55.6459 44.4973C55.682 44.4864 55.7204 44.4859 55.7568 44.4958C56.0066 44.5531 56.2596 44.5953 56.5145 44.6221C57.0216 44.636 57.5206 44.7528 57.9812 44.9654Z" fill="#B79763"/>
<path fill-rule="evenodd" clip-rule="evenodd" d="M55.9124 48.8064C56.4564 49.3051 57.0003 49.7974 57.5572 50.2799C58.1141 50.7625 58.6808 51.2515 59.2733 51.7114C59.2962 51.7312 59.3149 51.7553 59.3282 51.7825C59.3416 51.8096 59.3494 51.8391 59.3512 51.8692C59.3531 51.8994 59.3488 51.9297 59.3388 51.9582C59.3287 51.9867 59.3131 52.0129 59.2927 52.0353C59.2628 52.0807 59.2169 52.1133 59.1641 52.1265C59.1114 52.1397 59.0555 52.1325 59.0078 52.1065C58.3602 51.7082 57.7126 51.3357 57.065 50.9762C56.4175 50.6167 55.7699 50.2735 55.1223 49.9334C54.7035 49.6415 54.3478 49.2681 54.0765 48.8355C53.9258 48.629 53.7637 48.4311 53.5908 48.2428C53.5729 48.2253 53.5587 48.2044 53.549 48.1813C53.5392 48.1582 53.5342 48.1335 53.5342 48.1084C53.5342 48.0834 53.5392 48.0586 53.549 48.0355C53.5587 48.0124 53.5729 47.9915 53.5908 47.974C53.6201 47.9506 53.6555 47.9361 53.6928 47.9321C53.73 47.9281 53.7677 47.9348 53.8013 47.9514C54.0383 48.0488 54.2804 48.1331 54.5266 48.204C55.024 48.3106 55.4951 48.5154 55.9124 48.8064Z" fill="#B79763"/>
<path fill-rule="evenodd" clip-rule="evenodd" d="M53.1959 52.2262C53.6459 52.8157 54.0927 53.3921 54.5558 53.9621C55.0188 54.5321 55.5012 55.1054 56.0031 55.6721C56.0221 55.6957 56.0363 55.7228 56.0447 55.7519C56.0532 55.7809 56.0559 55.8114 56.0526 55.8415C56.0493 55.8716 56.0401 55.9007 56.0255 55.9272C56.0109 55.9537 55.9912 55.9771 55.9675 55.996C55.9265 56.0311 55.8742 56.0504 55.8202 56.0504C55.7661 56.0504 55.7139 56.0311 55.6729 55.996C55.1063 55.494 54.5396 55.0244 53.9665 54.5483C53.3934 54.0723 52.8203 53.6351 52.231 53.1849C51.8677 52.8265 51.5812 52.3978 51.3891 51.9251C51.2754 51.6953 51.1501 51.4715 51.0135 51.2546C50.9977 51.2352 50.9862 51.2126 50.9797 51.1884C50.9732 51.1641 50.9719 51.1388 50.9759 51.114C50.9799 51.0893 50.989 51.0656 51.0028 51.0447C51.0165 51.0237 51.0345 51.0059 51.0557 50.9923C51.0869 50.9717 51.1235 50.9607 51.1609 50.9607C51.1983 50.9607 51.2349 50.9717 51.2661 50.9923C51.4818 51.1289 51.7045 51.2543 51.9331 51.368C52.4077 51.5657 52.8373 51.8577 53.1959 52.2262Z" fill="#B79763"/>
<path fill-rule="evenodd" clip-rule="evenodd" d="M49.9252 55.1282C50.2651 55.7759 50.6083 56.4237 50.9677 57.0714C51.3271 57.7191 51.6995 58.3669 52.0978 59.0146C52.1208 59.065 52.1254 59.1219 52.1108 59.1754C52.0962 59.2288 52.0632 59.2755 52.0177 59.3071C51.9722 59.3388 51.917 59.3534 51.8618 59.3484C51.8066 59.3435 51.7548 59.3193 51.7156 59.2801C51.2429 58.6875 50.767 58.1174 50.2845 57.5636C49.8021 57.0098 49.3131 56.4625 48.808 55.9184C48.5135 55.5023 48.3064 55.0307 48.1993 54.5323C48.1265 54.2863 48.0411 54.0441 47.9435 53.8068C47.932 53.7848 47.925 53.7607 47.923 53.7359C47.921 53.7111 47.924 53.6862 47.9318 53.6626C47.9397 53.639 47.9522 53.6172 47.9687 53.5986C47.9851 53.58 48.0053 53.5649 48.0277 53.5542C48.0634 53.5424 48.1016 53.5408 48.1381 53.5493C48.1747 53.5579 48.2082 53.5764 48.2349 53.6028C48.4238 53.7749 48.6216 53.9371 48.8275 54.0886C49.2593 54.3581 49.6326 54.7116 49.9252 55.1282Z" fill="#B79763"/>
<path fill-rule="evenodd" clip-rule="evenodd" d="M46.2041 57.418C46.4243 58.124 46.651 58.8203 46.8938 59.5166C47.1367 60.2129 47.3892 60.9092 47.6709 61.6152C47.6882 61.6715 47.6826 61.7323 47.6553 61.7845C47.628 61.8366 47.5813 61.8759 47.5252 61.8937C47.477 61.917 47.4219 61.9216 47.3705 61.9066C47.3191 61.8917 47.275 61.8583 47.2468 61.8128C46.8841 61.165 46.515 60.5173 46.1361 59.8696C45.7573 59.2219 45.3656 58.6163 44.9673 57.9944C44.7506 57.5332 44.6284 57.0333 44.6079 56.5241C44.5807 56.2694 44.5397 56.0164 44.4848 55.7663C44.4769 55.7425 44.4739 55.7173 44.476 55.6923C44.4781 55.6673 44.4853 55.643 44.4971 55.6208C44.5089 55.5987 44.5252 55.5793 44.5448 55.5636C44.5644 55.5479 44.5869 55.5365 44.6111 55.5298C44.6484 55.5243 44.6866 55.5296 44.7211 55.5451C44.7555 55.5606 44.7848 55.5856 44.8054 55.6172C44.9623 55.8193 45.1298 56.0128 45.3073 56.197C45.6852 56.5396 45.9901 56.9549 46.2041 57.418Z" fill="#B79763"/>
<path fill-rule="evenodd" clip-rule="evenodd" d="M42.1404 59.0242C42.2376 59.7561 42.338 60.4848 42.4642 61.2102C42.5905 61.9357 42.7103 62.6709 42.8625 63.4125C42.8691 63.4711 42.8529 63.53 42.8173 63.577C42.7818 63.624 42.7296 63.6556 42.6714 63.6652C42.6194 63.6787 42.5643 63.6731 42.5162 63.6493C42.468 63.6255 42.43 63.5851 42.4091 63.5356C42.1695 62.8166 41.917 62.1171 41.6548 61.4272C41.3925 60.7374 41.1173 60.0573 40.8356 59.3772C40.7003 58.885 40.6673 58.3702 40.7384 57.8647C40.7528 57.6091 40.7528 57.3528 40.7384 57.0972C40.7352 57.0725 40.737 57.0474 40.7436 57.0234C40.7502 56.9994 40.7615 56.9769 40.7769 56.9573C40.7923 56.9378 40.8114 56.9214 40.8331 56.9093C40.8548 56.8972 40.8788 56.8895 40.9035 56.8867C40.9414 56.8881 40.9782 56.9001 41.0096 56.9213C41.0411 56.9424 41.066 56.9719 41.0816 57.0065C41.1998 57.2297 41.3306 57.4459 41.4734 57.6542C41.7874 58.0603 42.0144 58.5266 42.1404 59.0242Z" fill="#B79763"/>
<path fill-rule="evenodd" clip-rule="evenodd" d="M37.8634 59.8858C37.8277 60.6242 37.8018 61.3562 37.7888 62.0946C37.7759 62.833 37.7888 63.5714 37.7888 64.3292C37.7855 64.3879 37.7599 64.4432 37.7171 64.4835C37.6744 64.5239 37.6177 64.5463 37.5589 64.5462C37.505 64.5506 37.4514 64.5353 37.4079 64.5031C37.3645 64.471 37.3341 64.4242 37.3226 64.3713C37.2125 63.6232 37.0862 62.8913 36.947 62.1658C36.8078 61.4404 36.6588 60.7246 36.4969 60.0024C36.4508 59.4942 36.5081 58.9819 36.6653 58.4964C36.7263 58.2476 36.7739 57.9958 36.8078 57.7419C36.809 57.717 36.8152 57.6927 36.8261 57.6703C36.8369 57.6479 36.8521 57.628 36.8709 57.6116C36.8896 57.5953 36.9115 57.5829 36.9352 57.5753C36.9588 57.5676 36.9837 57.5647 37.0085 57.567C37.0456 57.5738 37.08 57.5913 37.1076 57.6171C37.1351 57.6429 37.1547 57.6761 37.1639 57.7127C37.2396 57.9574 37.3293 58.1974 37.4327 58.4317C37.6725 58.8825 37.819 59.3771 37.8634 59.8858Z" fill="#B79763"/>
<path fill-rule="evenodd" clip-rule="evenodd" d="M36.5038 9.97185C36.6656 9.25287 36.8157 8.53282 36.9539 7.81168C37.0931 7.08622 37.2193 6.35429 37.3294 5.60292C37.3433 5.54596 37.3787 5.49659 37.4282 5.46519C37.4777 5.43378 37.5375 5.42279 37.595 5.43451C37.6485 5.4385 37.6987 5.46223 37.7358 5.50112C37.7729 5.54001 37.7942 5.5913 37.7957 5.64503C37.7762 6.40287 37.7762 7.14451 37.7957 7.88292C37.8151 8.62133 37.8345 9.35327 37.8701 10.0917C37.8277 10.5989 37.6835 11.0924 37.446 11.5426C37.3424 11.792 37.242 12.0381 37.174 12.2648C37.1691 12.2893 37.1593 12.3125 37.145 12.333C37.1307 12.3535 37.1124 12.3709 37.0911 12.3839C37.0698 12.397 37.0461 12.4055 37.0214 12.409C36.9966 12.4125 36.9714 12.4108 36.9474 12.4041C36.9121 12.3905 36.8815 12.3671 36.8591 12.3367C36.8367 12.3063 36.8235 12.2701 36.8211 12.2324C36.7872 11.9785 36.7396 11.7266 36.6786 11.4778C36.5189 10.9929 36.4594 10.4805 36.5038 9.97185Z" fill="#B79763"/>
<path fill-rule="evenodd" clip-rule="evenodd" d="M40.8201 10.6098C41.1018 9.92645 41.377 9.24635 41.6393 8.55976C41.9015 7.87316 42.1541 7.17038 42.3937 6.4514C42.4185 6.40194 42.4596 6.36258 42.5101 6.33999C42.5606 6.3174 42.6173 6.31297 42.6706 6.32746C42.724 6.34195 42.7708 6.37447 42.8029 6.41949C42.835 6.46451 42.8506 6.51927 42.847 6.57447C42.6948 7.31612 42.5653 8.0448 42.4488 8.7735C42.3322 9.50219 42.2318 10.2277 42.125 10.9628C41.9968 11.4563 41.7686 11.9181 41.4547 12.3198C41.3122 12.5433 41.1698 12.77 41.0629 12.9675C41.0542 12.9909 41.0406 13.0122 41.0232 13.03C41.0057 13.0478 40.9847 13.0617 40.9615 13.0709C40.9383 13.08 40.9135 13.0842 40.8885 13.0832C40.8636 13.0821 40.8392 13.0758 40.8168 13.0647C40.7846 13.0451 40.7586 13.0168 40.742 12.9829C40.7253 12.949 40.7187 12.9111 40.7229 12.8736C40.7373 12.6191 40.7373 12.3639 40.7229 12.1093C40.6534 11.608 40.6865 11.0979 40.8201 10.6098Z" fill="#B79763"/>
<path fill-rule="evenodd" clip-rule="evenodd" d="M44.9681 11.9927C45.3664 11.3676 45.7581 10.7458 46.137 10.1143C46.5158 9.48272 46.885 8.83823 47.2476 8.17107C47.2808 8.12705 47.3281 8.09581 47.3816 8.08263C47.4351 8.06945 47.4916 8.07514 47.5414 8.09872C47.5912 8.12231 47.6314 8.16235 47.6551 8.2121C47.6789 8.26186 47.6847 8.31829 47.6717 8.37186C47.39 9.07465 47.1375 9.77095 46.8947 10.4705C46.6518 11.17 46.4251 11.8631 46.205 12.5691C45.9896 13.0313 45.6835 13.4454 45.3049 13.7869C45.1275 13.9713 44.961 14.166 44.8062 14.3698C44.7932 14.3913 44.7758 14.4098 44.7552 14.4242C44.7346 14.4386 44.7112 14.4486 44.6865 14.4534C44.6618 14.4583 44.6364 14.458 44.6119 14.4525C44.5873 14.447 44.5642 14.4365 44.544 14.4216C44.5155 14.3969 44.4949 14.3645 44.4845 14.3283C44.4742 14.2921 44.4746 14.2536 44.4857 14.2176C44.5403 13.9685 44.5813 13.7166 44.6087 13.463C44.6288 12.9537 44.751 12.4537 44.9681 11.9927Z" fill="#B79763"/>
<path fill-rule="evenodd" clip-rule="evenodd" d="M48.8088 14.0752C49.3096 13.5311 49.8018 12.9827 50.2853 12.4299C50.7677 11.8729 51.2566 11.3061 51.7164 10.7102C51.7595 10.6675 51.8176 10.6436 51.8783 10.6436C51.9389 10.6436 51.9971 10.6675 52.0402 10.7102C52.0845 10.7411 52.1159 10.7872 52.1285 10.8398C52.141 10.8923 52.1338 10.9477 52.1082 10.9952C51.71 11.643 51.3376 12.2907 50.9782 12.9384C50.6188 13.5861 50.2755 14.2339 49.9356 14.8816C49.6437 15.3005 49.2704 15.6563 48.8379 15.9277C48.6299 16.0764 48.432 16.2387 48.2454 16.4135C48.2279 16.4314 48.207 16.4457 48.184 16.4554C48.1609 16.4651 48.136 16.4701 48.111 16.4701C48.086 16.4701 48.0612 16.4651 48.0381 16.4554C48.015 16.4457 47.9942 16.4314 47.9767 16.4135C47.9533 16.3842 47.9387 16.3488 47.9347 16.3115C47.9307 16.2742 47.9374 16.2366 47.954 16.203C48.0516 15.9668 48.137 15.7257 48.2098 15.4808C48.3108 14.976 48.5146 14.4975 48.8088 14.0752Z" fill="#B79763"/>
<path fill-rule="evenodd" clip-rule="evenodd" d="M52.2308 16.7924C52.8169 16.3422 53.3933 15.8953 53.9664 15.4289C54.5395 14.9625 55.1061 14.4865 55.6728 13.9845C55.7179 13.9578 55.7707 13.9468 55.8227 13.9534C55.8748 13.96 55.9231 13.9837 55.9602 14.0208C55.9973 14.0579 56.0211 14.1063 56.0276 14.1583C56.0342 14.2104 56.0233 14.2632 55.9966 14.3084C55.4947 14.8751 55.0251 15.4419 54.5491 16.0151C54.0732 16.5883 53.6393 17.1616 53.1892 17.751C52.8291 18.1137 52.3997 18.4001 51.9265 18.5931C51.6968 18.7068 51.4731 18.8321 51.2562 18.9687C51.2366 18.9841 51.214 18.9952 51.1898 19.0014C51.1657 19.0077 51.1405 19.0088 51.1159 19.0049C51.0913 19.0009 51.0678 18.9919 51.0468 18.9785C51.0258 18.965 51.0078 18.9474 50.9939 18.9267C50.9733 18.8954 50.9624 18.8588 50.9624 18.8214C50.9624 18.784 50.9733 18.7474 50.9939 18.7161C51.1305 18.5004 51.2559 18.2777 51.3696 18.049C51.5691 17.5763 51.862 17.1489 52.2308 16.7924Z" fill="#B79763"/>
<path fill-rule="evenodd" clip-rule="evenodd" d="M55.1285 20.0504C55.776 19.7266 56.4236 19.3671 57.0712 19.0076C57.7188 18.6481 58.3664 18.2756 59.0139 17.8773C59.0645 17.8523 59.1224 17.8462 59.177 17.8602C59.2317 17.8741 59.2795 17.9071 59.312 17.9533C59.3444 17.9994 59.3593 18.0556 59.3539 18.1118C59.3486 18.1679 59.3233 18.2203 59.2827 18.2594C58.6869 18.7323 58.1203 19.2084 57.5634 19.6909C57.0065 20.1735 56.4625 20.6625 55.9185 21.1678C55.5028 21.463 55.0313 21.6702 54.5327 21.7766C54.277 21.8576 54.0244 21.9385 53.8075 22.0325C53.7853 22.0439 53.7609 22.0508 53.736 22.0526C53.7111 22.0543 53.686 22.051 53.6624 22.0429C53.6388 22.0347 53.6171 22.0218 53.5986 22.005C53.5801 21.9882 53.5653 21.9678 53.5549 21.945C53.5435 21.9091 53.5424 21.8707 53.5515 21.8341C53.5606 21.7975 53.5797 21.7641 53.6067 21.7378C53.7785 21.5494 53.9395 21.3515 54.0891 21.1451C54.3585 20.7141 54.712 20.3418 55.1285 20.0504Z" fill="#B79763"/>
<path fill-rule="evenodd" clip-rule="evenodd" d="M57.4178 23.7846C58.1237 23.5644 58.8198 23.3377 59.516 23.0948C60.2121 22.8519 60.9115 22.596 61.6141 22.3175C61.6704 22.3 61.7313 22.305 61.7839 22.3317C61.8365 22.3583 61.8767 22.4043 61.8959 22.46C61.919 22.5091 61.9232 22.565 61.9077 22.617C61.8921 22.669 61.858 22.7134 61.8117 22.7418C61.1641 23.1045 60.5165 23.4737 59.869 23.8526C59.2214 24.2316 58.6126 24.6202 57.991 25.0218C57.5303 25.2393 57.0301 25.3605 56.5209 25.378C56.2554 25.4137 55.9931 25.4493 55.7632 25.5044C55.7397 25.5123 55.7147 25.5152 55.69 25.5131C55.6652 25.5109 55.6412 25.5037 55.6193 25.4919C55.5974 25.48 55.5782 25.4638 55.5629 25.4442C55.5475 25.4246 55.5364 25.4021 55.5301 25.378C55.5234 25.341 55.5279 25.3027 55.5429 25.2681C55.5578 25.2336 55.5827 25.2042 55.6143 25.1837C55.817 25.0276 56.0105 24.86 56.1939 24.6817C56.5374 24.3034 56.9537 23.9983 57.4178 23.7846Z" fill="#B79763"/>
<path fill-rule="evenodd" clip-rule="evenodd" d="M59.0232 27.8458C59.7582 27.7518 60.4835 27.6515 61.212 27.5219C61.9406 27.3924 62.6691 27.2758 63.4106 27.1236C63.4693 27.1161 63.5285 27.132 63.5757 27.1677C63.6229 27.2034 63.6543 27.2561 63.6631 27.3146C63.6774 27.3666 63.6721 27.4221 63.6482 27.4704C63.6243 27.5188 63.5835 27.5567 63.5336 27.577C62.8148 27.8166 62.1154 28.0692 61.4257 28.3316C60.736 28.5939 60.0594 28.8659 59.3762 29.1509C58.8838 29.2847 58.3695 29.3178 57.864 29.2481C57.6084 29.2337 57.3523 29.2337 57.0967 29.2481C57.0718 29.2517 57.0465 29.2502 57.0223 29.2435C56.9981 29.2368 56.9756 29.2252 56.9561 29.2094C56.9366 29.1936 56.9206 29.1739 56.9092 29.1515C56.8977 29.1292 56.8909 29.1047 56.8894 29.0797C56.8892 29.0422 56.9002 29.0056 56.9209 28.9744C56.9417 28.9432 56.9714 28.919 57.006 28.9048C57.2291 28.7866 57.4453 28.6558 57.6536 28.5129C58.0609 28.2011 58.5266 27.9742 59.0232 27.8458Z" fill="#B79763"/>
<path fill-rule="evenodd" clip-rule="evenodd" d="M59.8952 32.1273C60.6334 32.1629 61.3652 32.1888 62.1035 32.2018C62.8417 32.2148 63.5832 32.2018 64.3408 32.2018C64.3949 32.2091 64.4448 32.2347 64.4824 32.2743C64.52 32.3138 64.5429 32.365 64.5475 32.4194C64.552 32.4738 64.5378 32.528 64.5073 32.5733C64.4768 32.6185 64.4318 32.652 64.3797 32.6681C63.6318 32.7783 62.9 32.9046 62.1747 33.0406C61.4494 33.1766 60.7339 33.3321 60.0118 33.494C59.5037 33.5401 58.9916 33.4828 58.5062 33.3256C58.2578 33.263 58.0059 33.2154 57.7518 33.1831C57.7269 33.1819 57.7026 33.1757 57.6802 33.1648C57.6578 33.154 57.6379 33.1387 57.6216 33.1199C57.6052 33.1012 57.5929 33.0794 57.5852 33.0557C57.5775 33.032 57.5747 33.0071 57.5769 32.9823C57.5838 32.9452 57.6012 32.9108 57.627 32.8833C57.6528 32.8557 57.686 32.8361 57.7226 32.8268C57.9672 32.7512 58.2072 32.6614 58.4414 32.558C58.8921 32.3182 59.3866 32.1717 59.8952 32.1273Z" fill="#B79763"/>
</g>
<g clip-path="url(#clip1_763_14296)">
<path d="M34.9924 70.0001C34.8308 70.0007 34.6711 69.9652 34.5249 69.8963C34.3787 69.8274 34.2497 69.7268 34.1473 69.6018C33.4997 68.8148 32.6481 68.5557 31.7545 68.2837C30.6698 67.9598 29.4458 67.5776 28.7367 66.1623C27.9087 66.8478 26.8684 67.2244 25.7936 67.2279C23.1029 67.3185 20.4348 65.9907 17.8478 64.7049C15.4582 63.5196 12.9909 62.2922 10.6434 62.2922C10.0813 62.2909 9.52155 62.3649 8.97912 62.5124C8.77114 62.5709 8.55136 62.573 8.34229 62.5185C8.13322 62.464 7.94244 62.3548 7.7895 62.2021C7.63656 62.0495 7.52699 61.8589 7.47203 61.6499C7.41707 61.4409 7.41871 61.221 7.47677 61.0129C8.26682 58.1499 6.82919 55.2319 5.28471 52.1422C3.98956 49.5513 2.67496 46.8795 2.76562 44.1946C2.76908 43.1195 3.14562 42.0789 3.8309 41.2507C2.41271 40.5414 2.04033 39.3075 1.71007 38.2323C1.43808 37.3384 1.17903 36.4931 0.388982 35.8389C0.265223 35.7356 0.165682 35.6063 0.0973661 35.4602C0.0290497 35.3142 -0.00634766 35.1549 -0.00634766 34.9936C-0.00634766 34.8324 0.0290497 34.6731 0.0973661 34.527C0.165682 34.381 0.265223 34.2517 0.388982 34.1484C1.17903 33.5006 1.43808 32.6489 1.71007 31.7518C2.03386 30.67 2.41594 29.4426 3.8309 28.7366C3.1461 27.908 2.76962 26.8677 2.76562 25.7926C2.67496 23.1078 4.00251 20.4295 5.28471 17.845C6.81947 14.7521 8.26682 11.8341 7.47677 8.97438C7.41907 8.76613 7.41764 8.5463 7.47266 8.33732C7.52768 8.12835 7.6372 7.93772 7.78997 7.78491C7.94274 7.6321 8.13329 7.52258 8.34221 7.46755C8.55114 7.41251 8.77092 7.41392 8.97912 7.47164C9.52155 7.61909 10.0813 7.69317 10.6434 7.69189C12.9844 7.69189 15.4582 6.46768 17.8478 5.27909C20.4381 3.98364 23.1093 2.68817 25.7936 2.75942C26.8684 2.76288 27.9087 3.13951 28.7367 3.82495C29.4458 2.40642 30.6795 2.03396 31.7512 1.70362C32.6481 1.43157 33.4932 1.1725 34.1473 0.382268C34.2527 0.261876 34.3827 0.165396 34.5284 0.099302C34.6742 0.033208 34.8324 -0.000976562 34.9924 -0.000976562C35.1524 -0.000976562 35.3106 0.033208 35.4563 0.099302C35.6021 0.165396 35.7321 0.261876 35.8375 0.382268C36.4851 1.1725 37.3366 1.43157 38.2335 1.70362C39.315 2.02748 40.5421 2.40642 41.248 3.82495C42.0761 3.13951 43.1163 2.76288 44.1912 2.75942C46.8722 2.66874 49.5499 3.99659 52.137 5.27909C54.5266 6.46768 56.9938 7.69513 59.3413 7.69189C59.9034 7.69317 60.4632 7.61909 61.0056 7.47164C61.2146 7.41541 61.4348 7.41578 61.6436 7.47269C61.8524 7.5296 62.0423 7.641 62.1939 7.79551C62.3498 7.94615 62.4622 8.1361 62.5192 8.34529C62.5762 8.55448 62.5757 8.77518 62.5177 8.9841C61.7309 11.8438 63.1653 14.7651 64.713 17.8547C66.0082 20.4456 67.3228 23.1175 67.2321 25.8024C67.2281 26.8774 66.8516 27.9177 66.1668 28.7463C67.5818 29.4523 67.9574 30.6895 68.2877 31.7615C68.5596 32.6586 68.8186 33.5039 69.6087 34.1581C69.7329 34.2611 69.833 34.3902 69.9016 34.5363C69.9703 34.6825 70.0059 34.8419 70.0059 35.0034C70.0059 35.1648 69.9703 35.3242 69.9016 35.4703C69.833 35.6164 69.7329 35.7456 69.6087 35.8486C68.8219 36.4964 68.5629 37.3481 68.2909 38.242C67.9671 39.327 67.585 40.5511 66.1701 41.2604C66.8549 42.0889 67.2313 43.1293 67.2353 44.2043C67.326 46.8892 65.9985 49.5643 64.7162 52.152C63.1815 55.2416 61.7341 58.1596 62.5242 61.0226C62.5812 61.2306 62.5821 61.4501 62.5267 61.6586C62.4714 61.867 62.3618 62.0571 62.2091 62.2095C62.0564 62.3619 61.8661 62.4711 61.6576 62.526C61.449 62.5809 61.2296 62.5795 61.0218 62.5221C60.4793 62.3747 59.9196 62.3006 59.3575 62.3019C57.0165 62.3019 54.5428 63.5293 52.1532 64.7147C49.5629 66.0101 46.8884 67.325 44.2074 67.2375C43.1319 67.2345 42.0912 66.8566 41.2642 66.1688C40.5584 67.5873 39.3215 67.963 38.2465 68.2933C37.3528 68.5654 36.5077 68.8245 35.8536 69.6115C35.7485 69.7369 35.6165 69.8369 35.4674 69.9042C35.3183 69.9715 35.1559 70.0043 34.9924 70.0001ZM28.7465 64.9835C28.8215 64.983 28.8964 64.9906 28.9699 65.0062C29.1366 65.0389 29.2934 65.11 29.4277 65.2141C29.5621 65.3181 29.6703 65.4521 29.7438 65.6053C30.2295 66.619 31.0389 66.8684 32.088 67.1858C33.0432 67.4772 34.1246 67.8075 35.0021 68.8245C35.8699 67.8075 36.9448 67.4772 37.9162 67.1858C38.9556 66.8619 39.7748 66.619 40.2604 65.6053C40.3347 65.4531 40.4429 65.32 40.5767 65.2164C40.7106 65.1127 40.8664 65.0412 41.0323 65.0074C41.1982 64.9736 41.3696 64.9783 41.5333 65.0214C41.697 65.0644 41.8487 65.1445 41.9765 65.2555C42.6087 65.7935 43.413 66.0865 44.2431 66.0814C46.6359 66.1656 49.1808 64.8992 51.6416 63.6783C54.1024 62.4573 56.7413 61.1457 59.3543 61.1457C60.0193 61.1436 60.6816 61.2318 61.3229 61.408L61.8021 61.7934L61.3942 61.3886C61.4047 61.3804 61.4122 61.369 61.4157 61.3562C61.4193 61.3433 61.4185 61.3297 61.4136 61.3173C60.507 58.0334 62.1227 54.7785 63.6801 51.6305C64.9559 49.0591 66.1636 46.6301 66.0826 44.2335C66.0876 43.4039 65.7959 42.5998 65.2602 41.9664C65.1479 41.8393 65.0665 41.6879 65.0225 41.524C64.9785 41.3602 64.9731 41.1883 65.0067 41.022C65.0402 40.8557 65.1119 40.6994 65.216 40.5655C65.3201 40.4315 65.4538 40.3235 65.6067 40.25C66.6201 39.7642 66.8694 38.9545 67.1867 37.9052C67.4781 36.9498 67.8084 35.8681 68.8251 34.9904C67.8084 34.1224 67.4781 33.0472 67.1867 32.0756C66.8629 31.036 66.6201 30.2134 65.6099 29.7308C65.4563 29.6576 65.3218 29.5494 65.2173 29.4151C65.1127 29.2807 65.0409 29.1238 65.0076 28.9568C64.9724 28.7904 64.977 28.6181 65.0208 28.4538C65.0647 28.2894 65.1467 28.1378 65.2602 28.0111C65.7969 27.3783 66.0887 26.5739 66.0826 25.7441C66.1636 23.3475 64.9559 20.9185 63.6801 18.3438C62.1195 15.1958 60.5038 11.941 61.4136 8.66024C61.4188 8.64738 61.4196 8.6332 61.4161 8.61979C61.4126 8.60639 61.4049 8.59444 61.3942 8.58574H61.3229C60.6816 8.7619 60.0193 8.85015 59.3543 8.84806C56.7413 8.84806 54.1477 7.55263 51.6416 6.31546C49.1355 5.0783 46.6521 3.82817 44.2431 3.91238C43.4137 3.90745 42.6098 4.19921 41.9765 4.735C41.8508 4.8489 41.6998 4.93121 41.5359 4.97514C41.3721 5.01906 41.2001 5.02333 41.0343 4.98761C40.8668 4.95553 40.7094 4.88421 40.5749 4.7795C40.4404 4.67479 40.3326 4.53967 40.2604 4.38523C39.7748 3.37477 38.9653 3.1254 37.9162 2.80801C36.961 2.51653 35.8796 2.18619 35.0021 1.16601C34.1343 2.18619 33.0594 2.51653 32.088 2.80801C31.0486 3.13187 30.2295 3.37477 29.7438 4.38523C29.6712 4.53883 29.5638 4.67332 29.4299 4.77792C29.2961 4.88252 29.1397 4.95433 28.9731 4.98761C28.8068 5.02361 28.6343 5.01948 28.4699 4.97555C28.3055 4.93162 28.1539 4.84917 28.0277 4.735C27.3944 4.19921 26.5906 3.90745 25.7611 3.91238C23.3554 3.82817 20.8233 5.0945 18.3625 6.31546C15.9017 7.53643 13.2597 8.84806 10.6499 8.84806C9.98487 8.85015 9.32258 8.7619 8.68126 8.58574H8.61004C8.59926 8.59444 8.59156 8.60639 8.58806 8.61979C8.58456 8.6332 8.58544 8.64738 8.59059 8.66024C9.4972 11.941 7.88149 15.1958 6.32406 18.3438C5.04833 20.9347 3.84063 23.3475 3.92157 25.7441C3.91665 26.5737 4.20834 27.3777 4.74401 28.0111C4.85625 28.1385 4.9374 28.2901 4.98116 28.4541C5.02492 28.6181 5.03007 28.7901 4.99618 28.9564C4.96229 29.1227 4.89026 29.279 4.78583 29.4128C4.68139 29.5466 4.5474 29.6543 4.39429 29.7276C3.38407 30.2102 3.13472 31.0231 2.8174 32.0724C2.52599 33.0278 2.19579 34.1095 1.17909 34.9872C2.19579 35.8551 2.52599 36.9303 2.8174 37.9019C3.14119 38.9415 3.38407 39.7609 4.39429 40.2467C4.5474 40.32 4.68139 40.4277 4.78583 40.5616C4.89026 40.6954 4.96229 40.8516 4.99618 41.0179C5.03007 41.1842 5.02492 41.3562 4.98116 41.5202C4.9374 41.6842 4.85625 41.8359 4.74401 41.9632C4.20784 42.5963 3.91607 43.4006 3.92157 44.2303C3.84063 46.6269 5.04833 49.0558 6.32406 51.6273C7.88473 54.7753 9.50044 58.0301 8.59059 61.3141C8.58568 61.3265 8.58495 61.3401 8.58846 61.353C8.59196 61.3658 8.59953 61.3772 8.61004 61.3853L8.68126 61.4047C9.32258 61.2286 9.98487 61.1404 10.6499 61.1424C13.2597 61.1424 15.8564 62.4379 18.3625 63.675C20.8687 64.9122 23.3586 66.1656 25.7611 66.0781C26.5906 66.0831 27.3944 65.7913 28.0277 65.2555C28.2269 65.0773 28.4857 64.9802 28.753 64.9835H28.7465Z" fill="#B79763"/>
<path fill-rule="evenodd" clip-rule="evenodd" d="M34.9914 14.9397C30.3529 14.9391 25.8577 16.5473 22.2717 19.4901C18.6858 22.433 16.2309 26.5285 15.3254 31.0788C14.42 35.6291 15.1199 40.3526 17.306 44.4446C19.492 48.5366 23.0291 51.7438 27.3143 53.5197C31.5995 55.2957 36.3677 55.5305 40.8066 54.1842C45.2455 52.8379 49.0803 49.9937 51.6577 46.1363C54.2351 42.279 55.3956 37.647 54.9414 33.0298C54.4872 28.4125 52.4465 24.0956 49.1669 20.8146C47.3074 18.9497 45.0978 17.4706 42.6652 16.4624C40.2325 15.4542 37.6246 14.9367 34.9914 14.9397ZM19.9611 19.9596C23.4383 16.4823 28.0133 14.3185 32.9067 13.8368C37.8 13.3552 42.709 14.5855 46.7972 17.3182C50.8853 20.0508 53.8998 24.1168 55.3269 28.8232C56.7539 33.5297 56.5053 38.5854 54.6235 43.1291C52.7416 47.6728 49.3429 51.4233 45.0065 53.7416C40.67 56.0599 35.664 56.8026 30.8415 55.843C26.0189 54.8835 21.6783 52.2811 18.559 48.4793C15.4397 44.6776 13.7347 39.9116 13.7346 34.9934C13.7319 32.2004 14.2811 29.4343 15.3508 26.8542C16.4205 24.2742 17.9895 21.9311 19.9676 19.9596H19.9611Z" fill="#B79763"/>
<path fill-rule="evenodd" clip-rule="evenodd" d="M9.98537 33.4875C9.26332 33.3256 8.54453 33.1637 7.82248 33.0341C7.10043 32.9046 6.36541 32.7718 5.61745 32.6617C5.5599 32.6485 5.50974 32.6134 5.47769 32.5638C5.44564 32.5142 5.43422 32.454 5.44584 32.3961C5.45052 32.3428 5.47445 32.293 5.51319 32.256C5.55192 32.2191 5.60278 32.1975 5.65627 32.1953C6.41394 32.2148 7.15546 32.2148 7.8937 32.1953C8.63194 32.1759 9.36365 32.1565 10.1019 32.1208C10.6101 32.1632 11.1046 32.3075 11.5558 32.5451C11.79 32.6485 12.03 32.7383 12.2746 32.8139C12.2992 32.8192 12.3224 32.8294 12.343 32.844C12.3635 32.8586 12.3807 32.8773 12.3938 32.8988C12.4068 32.9203 12.4153 32.9443 12.4188 32.9693C12.4222 32.9942 12.4205 33.0196 12.4138 33.0439C12.4002 33.0791 12.3769 33.1097 12.3464 33.1321C12.316 33.1545 12.2799 33.1677 12.2422 33.1702C11.9894 33.2041 11.7386 33.2516 11.491 33.3126C11.006 33.4721 10.4939 33.5316 9.98537 33.4875Z" fill="#B79763"/>
<path fill-rule="evenodd" clip-rule="evenodd" d="M10.6205 29.164C9.94058 28.8822 9.2606 28.6069 8.57093 28.3446C7.88126 28.0822 7.18187 27.8296 6.46306 27.59C6.41361 27.5652 6.37426 27.5241 6.35168 27.4736C6.32909 27.4231 6.3247 27.3663 6.33919 27.3129C6.35367 27.2595 6.38619 27.2128 6.4312 27.1807C6.47621 27.1485 6.53095 27.1329 6.58614 27.1366C7.32762 27.2888 8.05939 27.4183 8.78468 27.5349C9.50997 27.6515 10.2385 27.7519 10.9735 27.8588C11.466 27.9891 11.9274 28.2171 12.3302 28.5292C12.538 28.6726 12.7542 28.8035 12.9777 28.9211C13.0006 28.9308 13.0212 28.9452 13.0384 28.9631C13.0557 28.9811 13.0691 29.0024 13.0779 29.0257C13.0867 29.049 13.0906 29.0738 13.0895 29.0987C13.0884 29.1236 13.0824 29.148 13.0716 29.1704C13.0524 29.203 13.0241 29.2292 12.9901 29.2459C12.9562 29.2626 12.9181 29.269 12.8806 29.2643C12.6261 29.25 12.371 29.25 12.1165 29.2643C11.6161 29.3308 11.1075 29.2967 10.6205 29.164Z" fill="#B79763"/>
<path fill-rule="evenodd" clip-rule="evenodd" d="M12.0035 25.0218C11.3786 24.6235 10.7602 24.2316 10.1255 23.8527C9.49092 23.4738 8.84981 23.1046 8.18281 22.7418C8.13949 22.7087 8.10878 22.6617 8.09577 22.6087C8.08277 22.5557 8.08824 22.4998 8.11127 22.4504C8.1343 22.4009 8.17357 22.3608 8.22249 22.3366C8.27141 22.3125 8.32709 22.3058 8.38036 22.3176C9.08298 22.5961 9.77912 22.8519 10.4785 23.0948C11.1779 23.3377 11.8708 23.5645 12.5766 23.7847C13.0391 23.998 13.4533 24.3032 13.7941 24.6818C13.9796 24.8603 14.1753 25.0279 14.3802 25.1838C14.4014 25.1971 14.4196 25.2147 14.4337 25.2354C14.4478 25.2562 14.4574 25.2796 14.4619 25.3043C14.4665 25.3289 14.4659 25.3542 14.4602 25.3787C14.4545 25.4031 14.4437 25.426 14.4287 25.4461C14.4045 25.4743 14.3727 25.4948 14.337 25.5051C14.3014 25.5155 14.2635 25.5152 14.228 25.5044C13.9778 25.4498 13.7249 25.4087 13.4703 25.3813C12.9623 25.3608 12.4635 25.2386 12.0035 25.0218Z" fill="#B79763"/>
<path fill-rule="evenodd" clip-rule="evenodd" d="M14.0841 21.1807C13.5401 20.6787 12.9962 20.1864 12.4393 19.7039C11.8823 19.2213 11.3157 18.7323 10.7199 18.2724C10.675 18.2315 10.6481 18.1745 10.6451 18.1138C10.642 18.0531 10.6631 17.9937 10.7037 17.9485C10.7346 17.9042 10.7807 17.8728 10.8332 17.8603C10.8857 17.8477 10.9411 17.8549 10.9887 17.8805C11.6363 18.2789 12.2839 18.6513 12.9314 19.0108C13.579 19.3703 14.2266 19.7136 14.8742 20.0537C15.2938 20.3447 15.6496 20.7183 15.92 21.1516C16.0715 21.3575 16.2336 21.5553 16.4057 21.7442C16.4236 21.7617 16.4378 21.7826 16.4475 21.8057C16.4572 21.8288 16.4623 21.8536 16.4623 21.8786C16.4623 21.9037 16.4572 21.9285 16.4475 21.9516C16.4378 21.9746 16.4236 21.9955 16.4057 22.013C16.3764 22.0364 16.341 22.0509 16.3037 22.055C16.2664 22.059 16.2288 22.0523 16.1952 22.0357C15.9782 21.9418 15.7257 21.8608 15.4699 21.7799C14.9721 21.6764 14.5005 21.4725 14.0841 21.1807Z" fill="#B79763"/>
<path fill-rule="evenodd" clip-rule="evenodd" d="M16.8049 17.7575C16.3516 17.1681 15.9048 16.5949 15.4418 16.0216C14.9788 15.4484 14.4963 14.8816 13.9944 14.3149C13.9754 14.2913 13.9613 14.2642 13.9528 14.2352C13.9443 14.2061 13.9417 14.1756 13.945 14.1455C13.9483 14.1155 13.9575 14.0863 13.9721 14.0598C13.9867 14.0333 14.0064 14.0099 14.03 13.991C14.0688 13.9529 14.1201 13.9303 14.1743 13.9273C14.2285 13.9244 14.282 13.9412 14.3247 13.9748C14.8913 14.4768 15.4579 14.9464 16.031 15.4193C16.6041 15.8921 17.1773 16.3325 17.7698 16.7827C18.1303 17.144 18.4153 17.5733 18.6084 18.0458C18.7314 18.2822 18.8545 18.5186 18.984 18.7162C18.9999 18.7357 19.0114 18.7582 19.0179 18.7825C19.0244 18.8067 19.0256 18.832 19.0217 18.8568C19.0177 18.8815 19.0085 18.9052 18.9948 18.9262C18.981 18.9471 18.963 18.965 18.9419 18.9785C18.9107 18.9991 18.8741 19.0101 18.8367 19.0101C18.7993 19.0101 18.7627 18.9991 18.7315 18.9785C18.5157 18.8419 18.2931 18.7165 18.0644 18.6028C17.5915 18.4097 17.1629 18.1221 16.8049 17.7575Z" fill="#B79763"/>
<path fill-rule="evenodd" clip-rule="evenodd" d="M20.0718 14.8685C19.7318 14.2208 19.3886 13.5731 19.0292 12.9253C18.6698 12.2776 18.2974 11.6299 17.8991 10.9821C17.8715 10.9301 17.8656 10.8693 17.8825 10.8129C17.8995 10.7565 17.9381 10.7091 17.9898 10.681C18.0346 10.6501 18.0891 10.6363 18.1432 10.6423C18.1973 10.6482 18.2474 10.6734 18.2844 10.7133C18.7539 11.3092 19.23 11.876 19.7156 12.433C20.2013 12.9901 20.687 13.5342 21.1889 14.0783C21.4841 14.494 21.6912 14.9657 21.7976 15.4644C21.8785 15.7203 21.9595 15.9729 22.0534 16.1899C22.0648 16.2121 22.0717 16.2364 22.0735 16.2613C22.0753 16.2863 22.0719 16.3113 22.0637 16.3349C22.0556 16.3585 22.0427 16.3803 22.0259 16.3987C22.0091 16.4172 21.9887 16.4321 21.966 16.4425C21.9305 16.454 21.8926 16.4552 21.8565 16.446C21.8204 16.4369 21.7876 16.4177 21.7619 16.3907C21.5731 16.2194 21.3754 16.0584 21.1694 15.9081C20.7369 15.6396 20.3634 15.2859 20.0718 14.8685Z" fill="#B79763"/>
<path fill-rule="evenodd" clip-rule="evenodd" d="M23.7924 12.5691C23.5722 11.8631 23.3456 11.1668 23.1028 10.4705C22.8599 9.77417 22.6073 9.07463 22.3256 8.37184C22.3082 8.31515 22.3138 8.2539 22.341 8.20123C22.3683 8.14856 22.4151 8.10866 22.4714 8.09008C22.5202 8.06735 22.5756 8.06303 22.6274 8.07791C22.6791 8.09278 22.7237 8.12586 22.753 8.17105C23.1125 8.83821 23.4815 9.4665 23.8636 10.1142C24.2457 10.762 24.631 11.3676 25.0293 11.9926C25.2478 12.4532 25.3702 12.9535 25.3887 13.463C25.4156 13.7179 25.4577 13.971 25.515 14.2208C25.5223 14.2446 25.5248 14.2697 25.5222 14.2945C25.5197 14.3193 25.5121 14.3433 25.5 14.3651C25.4879 14.3869 25.4715 14.406 25.4518 14.4213C25.4321 14.4365 25.4096 14.4477 25.3855 14.454C25.3484 14.4603 25.3103 14.4556 25.2758 14.4407C25.2414 14.4258 25.212 14.4011 25.1912 14.3698C25.0344 14.1667 24.8668 13.9721 24.6893 13.7868C24.3125 13.4445 24.0076 13.0305 23.7924 12.5691Z" fill="#B79763"/>
<path fill-rule="evenodd" clip-rule="evenodd" d="M27.8681 10.9628C27.771 10.2276 27.6706 9.50216 27.5443 8.77347C27.4181 8.04477 27.2983 7.31608 27.1461 6.57444C27.1387 6.51572 27.1545 6.45642 27.1902 6.40922C27.2259 6.36202 27.2786 6.33064 27.3371 6.32181C27.3891 6.30754 27.4445 6.31286 27.4929 6.33674C27.5412 6.36061 27.5791 6.4014 27.5994 6.45137C27.839 7.17034 28.0915 7.86989 28.3538 8.55972C28.6161 9.24955 28.8913 9.92642 29.173 10.6098C29.3084 11.102 29.3415 11.6167 29.2702 12.1222C29.2702 12.3878 29.2475 12.6501 29.2702 12.8898C29.2738 12.9144 29.2723 12.9394 29.2658 12.9634C29.2593 12.9874 29.248 13.0098 29.2325 13.0293C29.217 13.0487 29.1978 13.0648 29.1758 13.0764C29.1539 13.0881 29.1298 13.0951 29.105 13.0971C29.0673 13.0967 29.0305 13.0855 28.9989 13.0648C28.9674 13.0441 28.9424 13.0149 28.9269 12.9805C28.8087 12.758 28.679 12.5418 28.5384 12.3327C28.2229 11.9272 27.9947 11.4608 27.8681 10.9628Z" fill="#B79763"/>
<path fill-rule="evenodd" clip-rule="evenodd" d="M32.1321 10.0916C32.1666 9.35317 32.1914 8.61692 32.2065 7.88282C32.2065 7.14441 32.2065 6.40277 32.2065 5.64493C32.2134 5.59069 32.2385 5.5404 32.2778 5.50243C32.3172 5.46446 32.3683 5.44107 32.4227 5.43615C32.4772 5.43124 32.5316 5.44509 32.5771 5.47541C32.6226 5.50572 32.6564 5.55068 32.6729 5.60283C32.783 6.35419 32.9092 7.08613 33.0484 7.81158C33.1877 8.53704 33.3366 9.25277 33.4985 9.97175C33.5465 10.48 33.4892 10.9927 33.3302 11.4777C33.2694 11.7266 33.2218 11.9785 33.1876 12.2323C33.1864 12.2573 33.1803 12.2818 33.1695 12.3043C33.1586 12.3269 33.1434 12.347 33.1247 12.3636C33.106 12.3802 33.0842 12.3929 33.0605 12.4009C33.0369 12.409 33.0119 12.4122 32.9869 12.4104C32.9498 12.4031 32.9156 12.3851 32.8886 12.3587C32.8616 12.3322 32.8429 12.2984 32.8348 12.2615C32.7565 12.0173 32.6657 11.7773 32.5627 11.5425C32.323 11.0928 32.1765 10.5993 32.1321 10.0916Z" fill="#B79763"/>
<path fill-rule="evenodd" clip-rule="evenodd" d="M33.4922 60.012C33.3335 60.7342 33.1684 61.4499 33.0421 62.1754C32.9158 62.9008 32.7766 63.6328 32.6665 64.3809C32.6533 64.4385 32.6182 64.4886 32.5686 64.5207C32.519 64.5527 32.4589 64.5642 32.401 64.5526C32.3471 64.5478 32.2969 64.5234 32.2599 64.484C32.2229 64.4445 32.2016 64.3929 32.2002 64.3388C32.2196 63.581 32.2196 62.8425 32.2002 62.1041C32.1808 61.3657 32.1613 60.6338 32.1257 59.8954C32.1681 59.3871 32.3124 58.8926 32.5499 58.4412C32.6534 58.2055 32.7443 57.9645 32.8219 57.719C32.8272 57.6948 32.8373 57.6719 32.8517 57.6518C32.8662 57.6316 32.8846 57.6147 32.9058 57.602C32.927 57.5892 32.9507 57.581 32.9752 57.5777C32.9998 57.5744 33.0247 57.5762 33.0486 57.583C33.084 57.5962 33.1149 57.6195 33.1373 57.65C33.1598 57.6805 33.1728 57.7168 33.1748 57.7546C33.2087 58.0075 33.2563 58.2583 33.3173 58.506C33.4783 58.9907 33.5378 59.5033 33.4922 60.012Z" fill="#B79763"/>
<path fill-rule="evenodd" clip-rule="evenodd" d="M29.1637 59.3773C28.882 60.0574 28.6067 60.7375 28.3445 61.4273C28.0822 62.1172 27.8296 62.8167 27.59 63.5357C27.5652 63.5851 27.5241 63.6245 27.4737 63.6471C27.4232 63.6697 27.3665 63.6741 27.3131 63.6596C27.2597 63.6451 27.213 63.6126 27.1809 63.5676C27.1487 63.5226 27.1331 63.4678 27.1367 63.4126C27.2889 62.671 27.4184 61.939 27.535 61.2103C27.6516 60.4816 27.7519 59.7562 27.8588 59.0242C27.9864 58.5306 28.2146 58.0686 28.5291 57.6673C28.6715 57.4406 28.814 57.2171 28.9208 57.0033C28.9303 56.9806 28.9443 56.96 28.9619 56.9427C28.9795 56.9254 29.0004 56.9118 29.0234 56.9028C29.0463 56.8937 29.0708 56.8894 29.0955 56.8899C29.1201 56.8905 29.1444 56.8961 29.1669 56.9062C29.1995 56.9254 29.2256 56.9538 29.2423 56.9877C29.259 57.0217 29.2655 57.0597 29.2608 57.0973C29.2608 57.3369 29.2608 57.596 29.2608 57.8648C29.332 58.3703 29.2989 58.885 29.1637 59.3773Z" fill="#B79763"/>
<path fill-rule="evenodd" clip-rule="evenodd" d="M25.0282 57.9944C24.63 58.6162 24.2414 59.238 23.8626 59.8695C23.4837 60.5011 23.1114 61.1455 22.752 61.8127C22.7196 61.8581 22.6723 61.8908 22.6183 61.9051C22.5644 61.9194 22.5072 61.9144 22.4565 61.891C22.4058 61.8676 22.3649 61.8272 22.3409 61.7768C22.3168 61.7265 22.311 61.6693 22.3246 61.6152C22.6063 60.9091 22.8589 60.2161 23.1017 59.5165C23.3446 58.817 23.5712 58.1239 23.7913 57.4179C24.0064 56.9555 24.3113 56.5404 24.6882 56.1969C24.8676 56.0133 25.0352 55.8186 25.1901 55.614C25.2035 55.5929 25.2211 55.5747 25.2418 55.5606C25.2624 55.5464 25.2856 55.5367 25.3101 55.5318C25.3347 55.527 25.36 55.5272 25.3844 55.5324C25.4089 55.5376 25.432 55.5477 25.4524 55.5621C25.4805 55.5871 25.5009 55.6195 25.5112 55.6556C25.5216 55.6918 25.5214 55.7301 25.5107 55.7662C25.4558 56.0164 25.4148 56.2693 25.3877 56.524C25.3688 57.0334 25.2465 57.5337 25.0282 57.9944Z" fill="#B79763"/>
<path fill-rule="evenodd" clip-rule="evenodd" d="M21.1892 55.9119C20.6873 56.456 20.1951 57.0001 19.7159 57.5572C19.2367 58.1142 18.7445 58.681 18.2847 59.2736C18.2443 59.319 18.1875 59.3466 18.1269 59.3502C18.0662 59.3539 18.0065 59.3333 17.9609 59.2931C17.9166 59.2622 17.8853 59.2161 17.8727 59.1635C17.8602 59.111 17.8674 59.0557 17.893 59.0081C18.2912 58.3604 18.6636 57.7126 19.023 57.0649C19.3824 56.4172 19.7256 55.7695 20.0656 55.1217C20.3574 54.7028 20.7308 54.347 21.1633 54.0757C21.3691 53.9242 21.5669 53.762 21.7558 53.5899C21.7733 53.5719 21.7942 53.5577 21.8172 53.5479C21.8403 53.5382 21.8651 53.5332 21.8901 53.5332C21.9152 53.5332 21.94 53.5382 21.9631 53.5479C21.9862 53.5577 22.007 53.5719 22.0245 53.5899C22.0479 53.6192 22.0624 53.6545 22.0664 53.6918C22.0704 53.7291 22.0638 53.7667 22.0472 53.8003C21.9533 54.0173 21.8723 54.2699 21.7914 54.5258C21.6863 55.0238 21.4814 55.4953 21.1892 55.9119Z" fill="#B79763"/>
<path fill-rule="evenodd" clip-rule="evenodd" d="M17.7704 53.1914C17.1778 53.6448 16.6047 54.0917 16.0316 54.5549C15.4585 55.018 14.8918 55.5005 14.3252 56.0025C14.3016 56.0215 14.2746 56.0356 14.2455 56.0441C14.2165 56.0526 14.186 56.0553 14.156 56.052C14.1259 56.0487 14.0967 56.0394 14.0702 56.0248C14.0437 56.0102 14.0203 55.9906 14.0014 55.9669C13.9663 55.9258 13.947 55.8736 13.947 55.8195C13.947 55.7655 13.9663 55.7132 14.0014 55.6722C14.5033 55.1054 14.9728 54.5354 15.4487 53.9654C15.9247 53.3954 16.3587 52.8157 16.812 52.2263C17.1714 51.8651 17.5997 51.5798 18.0715 51.3875C18.3019 51.274 18.5257 51.1474 18.7417 51.0085C18.7616 50.9936 18.7841 50.9829 18.8082 50.9769C18.8323 50.971 18.8573 50.97 18.8818 50.9739C18.9063 50.9778 18.9297 50.9866 18.9507 50.9998C18.9717 51.013 18.9898 51.0303 19.004 51.0506C19.0245 51.0825 19.0354 51.1196 19.0354 51.1575C19.0354 51.1954 19.0245 51.2325 19.004 51.2644C18.8667 51.4798 18.7413 51.7025 18.6284 51.9315C18.4303 52.4051 18.1385 52.8337 17.7704 53.1914Z" fill="#B79763"/>
<path fill-rule="evenodd" clip-rule="evenodd" d="M14.8686 49.9236C14.221 50.2475 13.5734 50.607 12.9259 50.9665C12.2783 51.3259 11.6307 51.6984 10.9831 52.0967C10.9324 52.1188 10.8755 52.1226 10.8223 52.1076C10.769 52.0925 10.7227 52.0595 10.691 52.0141C10.6594 51.9687 10.6444 51.9137 10.6487 51.8585C10.6529 51.8034 10.6761 51.7514 10.7143 51.7114C11.3101 51.2418 11.8768 50.7657 12.4337 50.2799C12.9906 49.7941 13.5345 49.3083 14.0785 48.8063C14.4942 48.5111 14.9657 48.3039 15.4643 48.1974C15.7201 48.1165 15.9727 48.0355 16.1896 47.9416C16.2115 47.9295 16.2357 47.9221 16.2606 47.9199C16.2855 47.9176 16.3106 47.9205 16.3343 47.9284C16.3581 47.9364 16.3799 47.9491 16.3984 47.9658C16.417 47.9826 16.4319 48.003 16.4422 48.0258C16.4539 48.0615 16.4556 48.0997 16.4471 48.1362C16.4385 48.1728 16.42 48.2063 16.3936 48.2331C16.2206 48.4212 16.0584 48.6191 15.9079 48.8257C15.6385 49.2576 15.2851 49.631 14.8686 49.9236Z" fill="#B79763"/>
<path fill-rule="evenodd" clip-rule="evenodd" d="M12.579 46.2024C11.8731 46.4226 11.177 46.6493 10.4808 46.889C9.78466 47.1286 9.08528 47.3877 8.38266 47.6663C8.3264 47.6838 8.26553 47.6787 8.21294 47.6521C8.16035 47.6255 8.12014 47.5795 8.10092 47.5237C8.0785 47.4745 8.07469 47.4189 8.09017 47.3671C8.10565 47.3153 8.13937 47.2708 8.18511 47.242C8.84888 46.8825 9.48027 46.5133 10.1278 46.1312C10.7754 45.749 11.3809 45.3636 12.0058 44.9652C12.4663 44.7466 12.9665 44.6243 13.4759 44.6057C13.7307 44.5789 13.9837 44.5368 14.2335 44.4795C14.2573 44.4721 14.2824 44.4696 14.3071 44.4722C14.3319 44.4748 14.356 44.4823 14.3777 44.4944C14.3995 44.5065 14.4187 44.5229 14.4339 44.5426C14.4492 44.5623 14.4604 44.5849 14.4667 44.609C14.4734 44.646 14.4689 44.6843 14.4539 44.7189C14.439 44.7534 14.4141 44.7828 14.3825 44.8033C14.1797 44.9581 13.9862 45.1246 13.8029 45.302C13.4595 45.6813 13.0432 45.9875 12.579 46.2024Z" fill="#B79763"/>
<path fill-rule="evenodd" clip-rule="evenodd" d="M10.9739 42.138C10.2389 42.2352 9.51364 42.3356 8.78512 42.4619C8.05659 42.5882 7.32805 42.708 6.58658 42.857C6.52835 42.8645 6.4695 42.8491 6.42239 42.8141C6.37528 42.779 6.34359 42.7271 6.33401 42.6691C6.31975 42.6171 6.32508 42.5617 6.34895 42.5134C6.37282 42.465 6.41354 42.4271 6.4635 42.4068C7.18231 42.1672 7.8817 41.9145 8.57137 41.6522C9.26104 41.3899 9.94102 41.1146 10.621 40.8296C11.1136 40.697 11.6278 40.6651 12.133 40.7357C12.4018 40.7357 12.6641 40.7583 12.9005 40.7357C12.9252 40.7321 12.9504 40.7335 12.9746 40.7399C12.9988 40.7464 13.0214 40.7577 13.0411 40.7731C13.0608 40.7886 13.0772 40.8078 13.0892 40.8298C13.1012 40.8518 13.1085 40.8759 13.1109 40.9008C13.1095 40.9387 13.0975 40.9755 13.0764 41.007C13.0552 41.0384 13.0257 41.0634 12.9911 41.079C12.7687 41.1972 12.5525 41.3269 12.3436 41.4676C11.9385 41.7837 11.4721 42.012 10.9739 42.138Z" fill="#B79763"/>
<path fill-rule="evenodd" clip-rule="evenodd" d="M10.1014 37.863C9.3632 37.8306 8.63149 37.8047 7.89325 37.7917C7.15501 37.7788 6.41348 37.7917 5.65582 37.7917C5.59741 37.7884 5.5426 37.7626 5.50277 37.7197C5.46295 37.6769 5.44121 37.6203 5.44214 37.5618C5.43776 37.5079 5.45307 37.4542 5.48523 37.4108C5.51738 37.3673 5.56419 37.3369 5.617 37.3254C6.36495 37.2152 7.09674 37.089 7.82203 36.9497C8.54731 36.8104 9.26287 36.6582 9.98492 36.4995C10.493 36.4518 11.0055 36.5091 11.4905 36.6679C11.7392 36.7293 11.9911 36.7768 12.245 36.8104C12.2698 36.8116 12.2941 36.8178 12.3165 36.8287C12.3389 36.8395 12.3588 36.8548 12.3752 36.8736C12.3915 36.8923 12.4038 36.9142 12.4115 36.9378C12.4192 36.9615 12.422 36.9864 12.4198 37.0112C12.4127 37.0479 12.3952 37.0818 12.3694 37.1088C12.3435 37.1358 12.3105 37.1548 12.2741 37.1634C12.03 37.2417 11.7901 37.3325 11.5553 37.4355C11.105 37.6759 10.6102 37.8214 10.1014 37.863Z" fill="#B79763"/>
<path fill-rule="evenodd" clip-rule="evenodd" d="M60.0114 36.4994C60.7334 36.6581 61.449 36.8233 62.1743 36.9496C62.8995 37.0759 63.6313 37.2151 64.3793 37.3252C64.4314 37.3414 64.4764 37.3749 64.5069 37.4201C64.5374 37.4654 64.5515 37.5197 64.547 37.574C64.5425 37.6284 64.5195 37.6796 64.482 37.7192C64.4444 37.7587 64.3944 37.7843 64.3404 37.7916C63.5827 37.7722 62.8413 37.7722 62.103 37.7916C61.3648 37.8111 60.633 37.8305 59.8948 37.8629C59.3865 37.8233 58.8917 37.68 58.441 37.4418C58.2062 37.3388 57.9663 37.248 57.7221 37.1698C57.6975 37.1645 57.6743 37.1543 57.6538 37.1397C57.6333 37.1251 57.6159 37.1065 57.6029 37.0849C57.5898 37.0634 57.5813 37.0394 57.5779 37.0145C57.5745 36.9895 57.5762 36.9641 57.5829 36.9399C57.5973 36.9054 57.6209 36.8757 57.6512 36.8539C57.6816 36.8322 57.7173 36.8193 57.7546 36.8168C58.0077 36.7833 58.2585 36.7346 58.5058 36.671C59.04 36.5447 59.6001 36.4022 60.0114 36.4994Z" fill="#B79763"/>
<path fill-rule="evenodd" clip-rule="evenodd" d="M59.3765 40.8198C60.0597 41.1048 60.7363 41.3801 61.426 41.6424C62.1157 41.9047 62.8151 42.1573 63.5339 42.397C63.5607 42.408 63.5851 42.4242 63.6056 42.4447C63.6262 42.4651 63.6426 42.4894 63.6537 42.5162C63.6648 42.543 63.6705 42.5717 63.6705 42.6007C63.6706 42.6297 63.6648 42.6584 63.6537 42.6852C63.6413 42.738 63.6093 42.784 63.5642 42.8141C63.5191 42.8442 63.4643 42.856 63.4109 42.8471C62.6705 42.6982 61.9376 42.5665 61.2123 42.452C60.4838 42.3355 59.7585 42.2318 59.0235 42.1282C58.5299 42.0006 58.0681 41.7723 57.6668 41.4578C57.453 41.3149 57.2314 41.1841 57.0031 41.0659C56.9802 41.0561 56.9596 41.0418 56.9423 41.0238C56.9251 41.0058 56.9118 40.9845 56.903 40.9612C56.8942 40.938 56.8902 40.9131 56.8913 40.8882C56.8924 40.8634 56.8984 40.839 56.9091 40.8165C56.9288 40.7846 56.9574 40.759 56.9913 40.7429C57.0252 40.7268 57.063 40.7209 57.1002 40.7258C57.3547 40.7401 57.6098 40.7401 57.8643 40.7258C58.3696 40.6567 58.8836 40.6887 59.3765 40.8198Z" fill="#B79763"/>
<path fill-rule="evenodd" clip-rule="evenodd" d="M57.9812 44.9654C58.6029 45.3638 59.2246 45.7524 59.8592 46.1313C60.4939 46.5102 61.135 46.8827 61.802 47.2422C61.8287 47.258 61.852 47.2792 61.8702 47.3043C61.8884 47.3295 61.9013 47.3582 61.908 47.3886C61.9147 47.419 61.915 47.4504 61.909 47.4809C61.903 47.5115 61.8909 47.5404 61.8732 47.566C61.8505 47.615 61.8106 47.654 61.761 47.6755C61.7115 47.697 61.6557 47.6995 61.6044 47.6826C60.9018 47.4041 60.2057 47.1483 59.5063 46.9054C58.8069 46.6625 58.114 46.439 57.4081 46.2188C56.945 46.0035 56.5299 45.6973 56.1874 45.3184C56.0038 45.1402 55.8091 44.9736 55.6046 44.8197C55.5835 44.8063 55.5654 44.7887 55.5512 44.7681C55.5371 44.7474 55.5274 44.7241 55.5225 44.6996C55.5177 44.6751 55.5179 44.6498 55.5231 44.6254C55.5283 44.6009 55.5384 44.5778 55.5528 44.5574C55.5776 44.529 55.6099 44.5081 55.6459 44.4973C55.682 44.4864 55.7204 44.4859 55.7568 44.4958C56.0066 44.5531 56.2596 44.5953 56.5145 44.6221C57.0216 44.636 57.5206 44.7528 57.9812 44.9654Z" fill="#B79763"/>
<path fill-rule="evenodd" clip-rule="evenodd" d="M55.9124 48.8064C56.4564 49.3051 57.0003 49.7974 57.5572 50.2799C58.1141 50.7625 58.6808 51.2515 59.2733 51.7114C59.2962 51.7312 59.3149 51.7553 59.3282 51.7825C59.3416 51.8096 59.3494 51.8391 59.3512 51.8692C59.3531 51.8994 59.3488 51.9297 59.3388 51.9582C59.3287 51.9867 59.3131 52.0129 59.2927 52.0353C59.2628 52.0807 59.2169 52.1133 59.1641 52.1265C59.1114 52.1397 59.0555 52.1325 59.0078 52.1065C58.3602 51.7082 57.7126 51.3357 57.065 50.9762C56.4175 50.6167 55.7699 50.2735 55.1223 49.9334C54.7035 49.6415 54.3478 49.2681 54.0765 48.8355C53.9258 48.629 53.7637 48.4311 53.5908 48.2428C53.5729 48.2253 53.5587 48.2044 53.549 48.1813C53.5392 48.1582 53.5342 48.1335 53.5342 48.1084C53.5342 48.0834 53.5392 48.0586 53.549 48.0355C53.5587 48.0124 53.5729 47.9915 53.5908 47.974C53.6201 47.9506 53.6555 47.9361 53.6928 47.9321C53.73 47.9281 53.7677 47.9348 53.8013 47.9514C54.0383 48.0488 54.2804 48.1331 54.5266 48.204C55.024 48.3106 55.4951 48.5154 55.9124 48.8064Z" fill="#B79763"/>
<path fill-rule="evenodd" clip-rule="evenodd" d="M53.1959 52.2262C53.6459 52.8157 54.0927 53.3921 54.5558 53.9621C55.0188 54.5321 55.5012 55.1054 56.0031 55.6721C56.0221 55.6957 56.0363 55.7228 56.0447 55.7519C56.0532 55.7809 56.0559 55.8114 56.0526 55.8415C56.0493 55.8716 56.0401 55.9007 56.0255 55.9272C56.0109 55.9537 55.9912 55.9771 55.9675 55.996C55.9265 56.0311 55.8742 56.0504 55.8202 56.0504C55.7661 56.0504 55.7139 56.0311 55.6729 55.996C55.1063 55.494 54.5396 55.0244 53.9665 54.5483C53.3934 54.0723 52.8203 53.6351 52.231 53.1849C51.8677 52.8265 51.5812 52.3978 51.3891 51.9251C51.2754 51.6953 51.1501 51.4715 51.0135 51.2546C50.9977 51.2352 50.9862 51.2126 50.9797 51.1884C50.9732 51.1641 50.9719 51.1388 50.9759 51.114C50.9799 51.0893 50.989 51.0656 51.0028 51.0447C51.0165 51.0237 51.0345 51.0059 51.0557 50.9923C51.0869 50.9717 51.1235 50.9607 51.1609 50.9607C51.1983 50.9607 51.2349 50.9717 51.2661 50.9923C51.4818 51.1289 51.7045 51.2543 51.9331 51.368C52.4077 51.5657 52.8373 51.8577 53.1959 52.2262Z" fill="#B79763"/>
<path fill-rule="evenodd" clip-rule="evenodd" d="M49.9252 55.1282C50.2651 55.7759 50.6083 56.4237 50.9677 57.0714C51.3271 57.7191 51.6995 58.3669 52.0978 59.0146C52.1208 59.065 52.1254 59.1219 52.1108 59.1754C52.0962 59.2288 52.0632 59.2755 52.0177 59.3071C51.9722 59.3388 51.917 59.3534 51.8618 59.3484C51.8066 59.3435 51.7548 59.3193 51.7156 59.2801C51.2429 58.6875 50.767 58.1174 50.2845 57.5636C49.8021 57.0098 49.3131 56.4625 48.808 55.9184C48.5135 55.5023 48.3064 55.0307 48.1993 54.5323C48.1265 54.2863 48.0411 54.0441 47.9435 53.8068C47.932 53.7848 47.925 53.7607 47.923 53.7359C47.921 53.7111 47.924 53.6862 47.9318 53.6626C47.9397 53.639 47.9522 53.6172 47.9687 53.5986C47.9851 53.58 48.0053 53.5649 48.0277 53.5542C48.0634 53.5424 48.1016 53.5408 48.1381 53.5493C48.1747 53.5579 48.2082 53.5764 48.2349 53.6028C48.4238 53.7749 48.6216 53.9371 48.8275 54.0886C49.2593 54.3581 49.6326 54.7116 49.9252 55.1282Z" fill="#B79763"/>
<path fill-rule="evenodd" clip-rule="evenodd" d="M46.2041 57.418C46.4243 58.124 46.651 58.8203 46.8938 59.5166C47.1367 60.2129 47.3892 60.9092 47.6709 61.6152C47.6882 61.6715 47.6826 61.7323 47.6553 61.7845C47.628 61.8366 47.5813 61.8759 47.5252 61.8937C47.477 61.917 47.4219 61.9216 47.3705 61.9066C47.3191 61.8917 47.275 61.8583 47.2468 61.8128C46.8841 61.165 46.515 60.5173 46.1361 59.8696C45.7573 59.2219 45.3656 58.6163 44.9673 57.9944C44.7506 57.5332 44.6284 57.0333 44.6079 56.5241C44.5807 56.2694 44.5397 56.0164 44.4848 55.7663C44.4769 55.7425 44.4739 55.7173 44.476 55.6923C44.4781 55.6673 44.4853 55.643 44.4971 55.6208C44.5089 55.5987 44.5252 55.5793 44.5448 55.5636C44.5644 55.5479 44.5869 55.5365 44.6111 55.5298C44.6484 55.5243 44.6866 55.5296 44.7211 55.5451C44.7555 55.5606 44.7848 55.5856 44.8054 55.6172C44.9623 55.8193 45.1298 56.0128 45.3073 56.197C45.6852 56.5396 45.9901 56.9549 46.2041 57.418Z" fill="#B79763"/>
<path fill-rule="evenodd" clip-rule="evenodd" d="M42.1404 59.0242C42.2376 59.7561 42.338 60.4848 42.4642 61.2102C42.5905 61.9357 42.7103 62.6709 42.8625 63.4125C42.8691 63.4711 42.8529 63.53 42.8173 63.577C42.7818 63.624 42.7296 63.6556 42.6714 63.6652C42.6194 63.6787 42.5643 63.6731 42.5162 63.6493C42.468 63.6255 42.43 63.5851 42.4091 63.5356C42.1695 62.8166 41.917 62.1171 41.6548 61.4272C41.3925 60.7374 41.1173 60.0573 40.8356 59.3772C40.7003 58.885 40.6673 58.3702 40.7384 57.8647C40.7528 57.6091 40.7528 57.3528 40.7384 57.0972C40.7352 57.0725 40.737 57.0474 40.7436 57.0234C40.7502 56.9994 40.7615 56.9769 40.7769 56.9573C40.7923 56.9378 40.8114 56.9214 40.8331 56.9093C40.8548 56.8972 40.8788 56.8895 40.9035 56.8867C40.9414 56.8881 40.9782 56.9001 41.0096 56.9213C41.0411 56.9424 41.066 56.9719 41.0816 57.0065C41.1998 57.2297 41.3306 57.4459 41.4734 57.6542C41.7874 58.0603 42.0144 58.5266 42.1404 59.0242Z" fill="#B79763"/>
<path fill-rule="evenodd" clip-rule="evenodd" d="M37.8634 59.8858C37.8277 60.6242 37.8018 61.3562 37.7888 62.0946C37.7759 62.833 37.7888 63.5714 37.7888 64.3292C37.7855 64.3879 37.7599 64.4432 37.7171 64.4835C37.6744 64.5239 37.6177 64.5463 37.5589 64.5462C37.505 64.5506 37.4514 64.5353 37.4079 64.5031C37.3645 64.471 37.3341 64.4242 37.3226 64.3713C37.2125 63.6232 37.0862 62.8913 36.947 62.1658C36.8078 61.4404 36.6588 60.7246 36.4969 60.0024C36.4508 59.4942 36.5081 58.9819 36.6653 58.4964C36.7263 58.2476 36.7739 57.9958 36.8078 57.7419C36.809 57.717 36.8152 57.6927 36.8261 57.6703C36.8369 57.6479 36.8521 57.628 36.8709 57.6116C36.8896 57.5953 36.9115 57.5829 36.9352 57.5753C36.9588 57.5676 36.9837 57.5647 37.0085 57.567C37.0456 57.5738 37.08 57.5913 37.1076 57.6171C37.1351 57.6429 37.1547 57.6761 37.1639 57.7127C37.2396 57.9574 37.3293 58.1974 37.4327 58.4317C37.6725 58.8825 37.819 59.3771 37.8634 59.8858Z" fill="#B79763"/>
<path fill-rule="evenodd" clip-rule="evenodd" d="M36.5038 9.97185C36.6656 9.25287 36.8157 8.53282 36.9539 7.81168C37.0931 7.08622 37.2193 6.35429 37.3294 5.60292C37.3433 5.54596 37.3787 5.49659 37.4282 5.46519C37.4777 5.43378 37.5375 5.42279 37.595 5.43451C37.6485 5.4385 37.6987 5.46223 37.7358 5.50112C37.7729 5.54001 37.7942 5.5913 37.7957 5.64503C37.7762 6.40287 37.7762 7.14451 37.7957 7.88292C37.8151 8.62133 37.8345 9.35327 37.8701 10.0917C37.8277 10.5989 37.6835 11.0924 37.446 11.5426C37.3424 11.792 37.242 12.0381 37.174 12.2648C37.1691 12.2893 37.1593 12.3125 37.145 12.333C37.1307 12.3535 37.1124 12.3709 37.0911 12.3839C37.0698 12.397 37.0461 12.4055 37.0214 12.409C36.9966 12.4125 36.9714 12.4108 36.9474 12.4041C36.9121 12.3905 36.8815 12.3671 36.8591 12.3367C36.8367 12.3063 36.8235 12.2701 36.8211 12.2324C36.7872 11.9785 36.7396 11.7266 36.6786 11.4778C36.5189 10.9929 36.4594 10.4805 36.5038 9.97185Z" fill="#B79763"/>
<path fill-rule="evenodd" clip-rule="evenodd" d="M40.8201 10.6098C41.1018 9.92645 41.377 9.24635 41.6393 8.55976C41.9015 7.87316 42.1541 7.17038 42.3937 6.4514C42.4185 6.40194 42.4596 6.36258 42.5101 6.33999C42.5606 6.3174 42.6173 6.31297 42.6706 6.32746C42.724 6.34195 42.7708 6.37447 42.8029 6.41949C42.835 6.46451 42.8506 6.51927 42.847 6.57447C42.6948 7.31612 42.5653 8.0448 42.4488 8.7735C42.3322 9.50219 42.2318 10.2277 42.125 10.9628C41.9968 11.4563 41.7686 11.9181 41.4547 12.3198C41.3122 12.5433 41.1698 12.77 41.0629 12.9675C41.0542 12.9909 41.0406 13.0122 41.0232 13.03C41.0057 13.0478 40.9847 13.0617 40.9615 13.0709C40.9383 13.08 40.9135 13.0842 40.8885 13.0832C40.8636 13.0821 40.8392 13.0758 40.8168 13.0647C40.7846 13.0451 40.7586 13.0168 40.742 12.9829C40.7253 12.949 40.7187 12.9111 40.7229 12.8736C40.7373 12.6191 40.7373 12.3639 40.7229 12.1093C40.6534 11.608 40.6865 11.0979 40.8201 10.6098Z" fill="#B79763"/>
<path fill-rule="evenodd" clip-rule="evenodd" d="M44.9681 11.9927C45.3664 11.3676 45.7581 10.7458 46.137 10.1143C46.5158 9.48272 46.885 8.83823 47.2476 8.17107C47.2808 8.12705 47.3281 8.09581 47.3816 8.08263C47.4351 8.06945 47.4916 8.07514 47.5414 8.09872C47.5912 8.12231 47.6314 8.16235 47.6551 8.2121C47.6789 8.26186 47.6847 8.31829 47.6717 8.37186C47.39 9.07465 47.1375 9.77095 46.8947 10.4705C46.6518 11.17 46.4251 11.8631 46.205 12.5691C45.9896 13.0313 45.6835 13.4454 45.3049 13.7869C45.1275 13.9713 44.961 14.166 44.8062 14.3698C44.7932 14.3913 44.7758 14.4098 44.7552 14.4242C44.7346 14.4386 44.7112 14.4486 44.6865 14.4534C44.6618 14.4583 44.6364 14.458 44.6119 14.4525C44.5873 14.447 44.5642 14.4365 44.544 14.4216C44.5155 14.3969 44.4949 14.3645 44.4845 14.3283C44.4742 14.2921 44.4746 14.2536 44.4857 14.2176C44.5403 13.9685 44.5813 13.7166 44.6087 13.463C44.6288 12.9537 44.751 12.4537 44.9681 11.9927Z" fill="#B79763"/>
<path fill-rule="evenodd" clip-rule="evenodd" d="M48.8088 14.0752C49.3096 13.5311 49.8018 12.9827 50.2853 12.4299C50.7677 11.8729 51.2566 11.3061 51.7164 10.7102C51.7595 10.6675 51.8176 10.6436 51.8783 10.6436C51.9389 10.6436 51.9971 10.6675 52.0402 10.7102C52.0845 10.7411 52.1159 10.7872 52.1285 10.8398C52.141 10.8923 52.1338 10.9477 52.1082 10.9952C51.71 11.643 51.3376 12.2907 50.9782 12.9384C50.6188 13.5861 50.2755 14.2339 49.9356 14.8816C49.6437 15.3005 49.2704 15.6563 48.8379 15.9277C48.6299 16.0764 48.432 16.2387 48.2454 16.4135C48.2279 16.4314 48.207 16.4457 48.184 16.4554C48.1609 16.4651 48.136 16.4701 48.111 16.4701C48.086 16.4701 48.0612 16.4651 48.0381 16.4554C48.015 16.4457 47.9942 16.4314 47.9767 16.4135C47.9533 16.3842 47.9387 16.3488 47.9347 16.3115C47.9307 16.2742 47.9374 16.2366 47.954 16.203C48.0516 15.9668 48.137 15.7257 48.2098 15.4808C48.3108 14.976 48.5146 14.4975 48.8088 14.0752Z" fill="#B79763"/>
<path fill-rule="evenodd" clip-rule="evenodd" d="M52.2308 16.7924C52.8169 16.3422 53.3933 15.8953 53.9664 15.4289C54.5395 14.9625 55.1061 14.4865 55.6728 13.9845C55.7179 13.9578 55.7707 13.9468 55.8227 13.9534C55.8748 13.96 55.9231 13.9837 55.9602 14.0208C55.9973 14.0579 56.0211 14.1063 56.0276 14.1583C56.0342 14.2104 56.0233 14.2632 55.9966 14.3084C55.4947 14.8751 55.0251 15.4419 54.5491 16.0151C54.0732 16.5883 53.6393 17.1616 53.1892 17.751C52.8291 18.1137 52.3997 18.4001 51.9265 18.5931C51.6968 18.7068 51.4731 18.8321 51.2562 18.9687C51.2366 18.9841 51.214 18.9952 51.1898 19.0014C51.1657 19.0077 51.1405 19.0088 51.1159 19.0049C51.0913 19.0009 51.0678 18.9919 51.0468 18.9785C51.0258 18.965 51.0078 18.9474 50.9939 18.9267C50.9733 18.8954 50.9624 18.8588 50.9624 18.8214C50.9624 18.784 50.9733 18.7474 50.9939 18.7161C51.1305 18.5004 51.2559 18.2777 51.3696 18.049C51.5691 17.5763 51.862 17.1489 52.2308 16.7924Z" fill="#B79763"/>
<path fill-rule="evenodd" clip-rule="evenodd" d="M55.1285 20.0504C55.776 19.7266 56.4236 19.3671 57.0712 19.0076C57.7188 18.6481 58.3664 18.2756 59.0139 17.8773C59.0645 17.8523 59.1224 17.8462 59.177 17.8602C59.2317 17.8741 59.2795 17.9071 59.312 17.9533C59.3444 17.9994 59.3593 18.0556 59.3539 18.1118C59.3486 18.1679 59.3233 18.2203 59.2827 18.2594C58.6869 18.7323 58.1203 19.2084 57.5634 19.6909C57.0065 20.1735 56.4625 20.6625 55.9185 21.1678C55.5028 21.463 55.0313 21.6702 54.5327 21.7766C54.277 21.8576 54.0244 21.9385 53.8075 22.0325C53.7853 22.0439 53.7609 22.0508 53.736 22.0526C53.7111 22.0543 53.686 22.051 53.6624 22.0429C53.6388 22.0347 53.6171 22.0218 53.5986 22.005C53.5801 21.9882 53.5653 21.9678 53.5549 21.945C53.5435 21.9091 53.5424 21.8707 53.5515 21.8341C53.5606 21.7975 53.5797 21.7641 53.6067 21.7378C53.7785 21.5494 53.9395 21.3515 54.0891 21.1451C54.3585 20.7141 54.712 20.3418 55.1285 20.0504Z" fill="#B79763"/>
<path fill-rule="evenodd" clip-rule="evenodd" d="M57.4178 23.7846C58.1237 23.5644 58.8198 23.3377 59.516 23.0948C60.2121 22.8519 60.9115 22.596 61.6141 22.3175C61.6704 22.3 61.7313 22.305 61.7839 22.3317C61.8365 22.3583 61.8767 22.4043 61.8959 22.46C61.919 22.5091 61.9232 22.565 61.9077 22.617C61.8921 22.669 61.858 22.7134 61.8117 22.7418C61.1641 23.1045 60.5165 23.4737 59.869 23.8526C59.2214 24.2316 58.6126 24.6202 57.991 25.0218C57.5303 25.2393 57.0301 25.3605 56.5209 25.378C56.2554 25.4137 55.9931 25.4493 55.7632 25.5044C55.7397 25.5123 55.7147 25.5152 55.69 25.5131C55.6652 25.5109 55.6412 25.5037 55.6193 25.4919C55.5974 25.48 55.5782 25.4638 55.5629 25.4442C55.5475 25.4246 55.5364 25.4021 55.5301 25.378C55.5234 25.341 55.5279 25.3027 55.5429 25.2681C55.5578 25.2336 55.5827 25.2042 55.6143 25.1837C55.817 25.0276 56.0105 24.86 56.1939 24.6817C56.5374 24.3034 56.9537 23.9983 57.4178 23.7846Z" fill="#B79763"/>
<path fill-rule="evenodd" clip-rule="evenodd" d="M59.0232 27.8458C59.7582 27.7518 60.4835 27.6515 61.212 27.5219C61.9406 27.3924 62.6691 27.2758 63.4106 27.1236C63.4693 27.1161 63.5285 27.132 63.5757 27.1677C63.6229 27.2034 63.6543 27.2561 63.6631 27.3146C63.6774 27.3666 63.6721 27.4221 63.6482 27.4704C63.6243 27.5188 63.5835 27.5567 63.5336 27.577C62.8148 27.8166 62.1154 28.0692 61.4257 28.3316C60.736 28.5939 60.0594 28.8659 59.3762 29.1509C58.8838 29.2847 58.3695 29.3178 57.864 29.2481C57.6084 29.2337 57.3523 29.2337 57.0967 29.2481C57.0718 29.2517 57.0465 29.2502 57.0223 29.2435C56.9981 29.2368 56.9756 29.2252 56.9561 29.2094C56.9366 29.1936 56.9206 29.1739 56.9092 29.1515C56.8977 29.1292 56.8909 29.1047 56.8894 29.0797C56.8892 29.0422 56.9002 29.0056 56.9209 28.9744C56.9417 28.9432 56.9714 28.919 57.006 28.9048C57.2291 28.7866 57.4453 28.6558 57.6536 28.5129C58.0609 28.2011 58.5266 27.9742 59.0232 27.8458Z" fill="#B79763"/>
<path fill-rule="evenodd" clip-rule="evenodd" d="M59.8952 32.1273C60.6334 32.1629 61.3652 32.1888 62.1035 32.2018C62.8417 32.2148 63.5832 32.2018 64.3408 32.2018C64.3949 32.2091 64.4448 32.2347 64.4824 32.2743C64.52 32.3138 64.5429 32.365 64.5475 32.4194C64.552 32.4738 64.5378 32.528 64.5073 32.5733C64.4768 32.6185 64.4318 32.652 64.3797 32.6681C63.6318 32.7783 62.9 32.9046 62.1747 33.0406C61.4494 33.1766 60.7339 33.3321 60.0118 33.494C59.5037 33.5401 58.9916 33.4828 58.5062 33.3256C58.2578 33.263 58.0059 33.2154 57.7518 33.1831C57.7269 33.1819 57.7026 33.1757 57.6802 33.1648C57.6578 33.154 57.6379 33.1387 57.6216 33.1199C57.6052 33.1012 57.5929 33.0794 57.5852 33.0557C57.5775 33.032 57.5747 33.0071 57.5769 32.9823C57.5838 32.9452 57.6012 32.9108 57.627 32.8833C57.6528 32.8557 57.686 32.8361 57.7226 32.8268C57.9672 32.7512 58.2072 32.6614 58.4414 32.558C58.8921 32.3182 59.3866 32.1717 59.8952 32.1273Z" fill="#B79763"/>
</g>
<defs>
<clipPath id="clip0_763_14296">
<rect width="70" height="70" fill="white"/>
</clipPath>
<clipPath id="clip1_763_14296">
<rect width="70" height="70" fill="white"/>
</clipPath>
</defs>
</svg>
