<svg width="120" height="120" viewBox="0 0 120 120" fill="none" xmlns="http://www.w3.org/2000/svg">
<mask id="mask0_763_14423" style="mask-type:alpha" maskUnits="userSpaceOnUse" x="0" y="0" width="120" height="120">
<rect width="120" height="120" fill="#C4C4C4"/>
</mask>
<g mask="url(#mask0_763_14423)">
<path d="M61.8 87.3004H27L44.4 21.1504L61.8 87.3004ZM30.9 84.3004H57.9L44.4 33.0004L30.9 84.3004Z" fill="#AA7F10"/>
<path d="M45.5996 87H42.5996V99.6H45.5996V87Z" fill="#AA7F10"/>
<path d="M69.5996 70.2002H66.5996V99.6002H69.5996V70.2002Z" fill="#AA7F10"/>
<path d="M68.1004 72.6C62.7004 72.6 57.7504 70.8 53.4004 67.2L55.3504 64.95C59.1004 67.95 63.4504 69.6 68.1004 69.6C79.6504 69.6 89.1004 59.4 89.1004 46.8C89.1004 34.2 79.6504 24 68.1004 24C59.7004 24 52.0504 29.4 48.7504 37.8L45.9004 36.75C49.6504 27.15 58.3504 21 67.9504 21C81.1504 21 91.9504 32.55 91.9504 46.8C91.9504 61.05 81.3004 72.6 68.1004 72.6Z" fill="#AA7F10"/>
</g>
</svg>
