<svg width="120" height="120" viewBox="0 0 120 120" fill="none" xmlns="http://www.w3.org/2000/svg">
<mask id="mask0_763_14480" style="mask-type:alpha" maskUnits="userSpaceOnUse" x="0" y="0" width="120" height="120">
<rect width="120" height="120" fill="#C4C4C4"/>
</mask>
<g mask="url(#mask0_763_14480)">
<path d="M38.1 64.8H13.5L25.8 18L38.1 64.8ZM17.4 61.8H34.2L25.8 29.85L17.4 61.8Z" fill="#AA7F10"/>
<path d="M27.9004 64.0498H24.9004V72.4498H27.9004V64.0498Z" fill="#AA7F10"/>
<path d="M106.049 78.5998H81.4492L93.7492 31.7998L106.049 78.5998ZM85.3492 75.5998H102.149L93.7492 43.6498L85.3492 75.5998Z" fill="#AA7F10"/>
<path d="M95.8496 77.8496H92.8496V86.2496H95.8496V77.8496Z" fill="#AA7F10"/>
<path d="M56.8494 102.3C54.8994 101.25 37.0494 91.8004 37.3494 82.0504C37.3494 76.8004 39.8994 73.0504 45.5994 69.9004C50.9994 66.9004 50.9995 65.7004 50.9995 63.4504C50.9995 62.2504 49.3494 60.4504 46.0494 58.5004C45.8994 58.3504 45.5994 58.2004 45.5994 58.2004L47.2495 55.6504C47.3995 55.6504 47.5494 55.8004 47.6994 55.9504C49.4994 57.1504 53.9995 60.0004 53.9995 63.4504C54.1495 67.0504 53.3994 69.1504 47.0994 72.6004C41.5494 75.7504 40.3494 78.7504 40.3494 82.2004C40.1994 88.9504 53.2494 97.2004 58.1994 99.7504L56.8494 102.3Z" fill="#AA7F10"/>
<path d="M86.2508 93.7502C82.0508 91.3502 70.9508 84.3002 68.8508 81.7502C66.0008 78.4502 65.4008 75.0002 67.0508 71.4002C67.9508 69.3002 69.3008 65.2502 67.2008 61.6502C65.8508 59.4002 60.1508 56.1002 57.4508 54.4502C55.9508 53.5502 55.3508 53.2502 55.0508 52.9502L57.0008 50.7002C57.1508 50.8502 58.2008 51.4502 58.9508 51.9002C62.2508 53.8502 67.9508 57.1502 69.7508 60.1502C71.8508 63.7502 72.0008 68.2502 69.9008 72.7502C68.8508 75.1502 69.1508 77.4002 71.2508 79.8002C72.9008 81.9002 83.2508 88.5002 87.9008 91.2002L86.2508 93.7502Z" fill="#AA7F10"/>
</g>
</svg>
