<svg width="120" height="120" viewBox="0 0 120 120" fill="none" xmlns="http://www.w3.org/2000/svg">
<mask id="mask0_763_14449" style="mask-type:alpha" maskUnits="userSpaceOnUse" x="0" y="0" width="120" height="120">
<rect width="120" height="120" fill="#C4C4C4"/>
</mask>
<g mask="url(#mask0_763_14449)">
<path d="M29.55 94.1999H18V31.9499L23.7 26.9999L29.4 31.9499V94.1999H29.55ZM21 91.1999H26.55V33.2999L23.85 30.8999L21.15 33.2999V91.1999H21Z" fill="#AA7F10"/>
<path d="M53.2492 94.1999H41.6992V31.9499L47.3992 26.9999L53.0992 31.9499V94.1999H53.2492ZM44.6992 91.1999H50.2492V33.2999L47.5492 30.8999L44.8492 33.2999V91.1999H44.6992Z" fill="#AA7F10"/>
<path d="M76.9504 94.1999H65.4004V31.9499L71.1004 26.9999L76.8004 31.9499V94.1999H76.9504ZM68.4004 91.1999H73.9504V33.2999L71.2504 30.8999L68.5504 33.2999V91.1999H68.4004Z" fill="#AA7F10"/>
<path d="M100.65 94.1999H89.0996V31.9499L94.7996 26.9999L100.5 31.9499V94.1999H100.65ZM92.2496 91.1999H97.7996V33.2999L95.0996 30.8999L92.3996 33.2999V91.1999H92.2496Z" fill="#AA7F10"/>
<path d="M42.6 52.2002H28.5V55.2002H42.6V52.2002Z" fill="#AA7F10"/>
<path d="M66.2992 52.2002H52.1992V55.2002H66.2992V52.2002Z" fill="#AA7F10"/>
<path d="M90.1508 52.2002H76.0508V55.2002H90.1508V52.2002Z" fill="#AA7F10"/>
<path d="M42.6 79.6503H28.5V82.6503H42.6V79.6503Z" fill="#AA7F10"/>
<path d="M66.2992 79.6503H52.1992V82.6503H66.2992V79.6503Z" fill="#AA7F10"/>
<path d="M90.1508 79.6503H76.0508V82.6503H90.1508V79.6503Z" fill="#AA7F10"/>
</g>
</svg>
