<svg width="120" height="120" viewBox="0 0 120 120" fill="none" xmlns="http://www.w3.org/2000/svg">
<mask id="mask0_763_14532" style="mask-type:alpha" maskUnits="userSpaceOnUse" x="0" y="0" width="120" height="120">
<rect width="120" height="120" fill="#C4C4C4"/>
</mask>
<g mask="url(#mask0_763_14532)">
</g>
<path fill-rule="evenodd" clip-rule="evenodd" d="M17.6028 82.2687C15.7982 79.554 14.5031 77.7845 12 77.7845V74.7845C16.2372 74.7845 18.3689 77.9972 19.9752 80.4182C20.0176 80.482 20.0596 80.5453 20.1012 80.6079C21.9058 83.3227 23.2009 85.0922 25.704 85.0922C28.2079 85.0922 29.5058 83.3217 31.3135 80.6069C31.3553 80.5443 31.3973 80.481 31.4398 80.4172C33.0489 77.9962 35.1836 74.7845 39.4201 74.7845C43.6556 74.7845 45.7875 77.9949 47.3947 80.4152C47.4376 80.4798 47.4802 80.544 47.5224 80.6074C49.3277 83.3208 50.6259 85.0922 53.136 85.0922C55.6453 85.0922 56.9408 83.3219 58.743 80.6084C58.7852 80.545 58.8277 80.4809 58.8705 80.4162C60.4749 77.9959 62.6038 74.7845 66.8401 74.7845C71.0766 74.7845 73.2113 77.9962 74.8204 80.4172C74.8629 80.481 74.9049 80.5443 74.9466 80.6069C76.7544 83.3217 78.0523 85.0922 80.5561 85.0922C83.0594 85.0922 84.3543 83.3227 86.1608 80.6074C86.2018 80.5459 86.2431 80.4837 86.2847 80.421C87.8936 77.9984 90.0281 74.7845 94.2721 74.7845C98.5144 74.7845 100.649 77.9961 102.259 80.4179C102.301 80.4815 102.343 80.5445 102.385 80.6069C104.192 83.3207 105.49 85.0922 108 85.0922V88.0922C103.758 88.0922 101.623 84.8806 100.013 82.4587C99.971 82.3952 99.9291 82.3321 99.8875 82.2697C98.0804 79.5559 96.7823 77.7845 94.2721 77.7845C91.762 77.7845 90.4638 79.5559 88.6585 82.2692C88.6163 82.3327 88.5737 82.3968 88.5307 82.4615C86.9236 84.8818 84.7917 88.0922 80.5561 88.0922C76.3197 88.0922 74.185 84.8805 72.5758 82.4595C72.5334 82.3957 72.4914 82.3324 72.4496 82.2697C70.6419 79.555 69.344 77.7845 66.8401 77.7845C64.3376 77.7845 63.0454 79.553 61.242 82.2682C61.2011 82.3298 61.1599 82.392 61.1184 82.4547C59.5122 84.8772 57.3808 88.0922 53.136 88.0922C48.892 88.0922 46.7575 84.8783 45.1486 82.4557C45.107 82.393 45.0657 82.3308 45.0247 82.2692C43.2182 79.554 41.9234 77.7845 39.4201 77.7845C36.9162 77.7845 35.6183 79.555 33.8106 82.2697C33.7688 82.3324 33.7268 82.3957 33.6843 82.4595C32.0752 84.8805 29.9405 88.0922 25.704 88.0922C21.4668 88.0922 19.3351 84.8794 17.7288 82.4585C17.6865 82.3947 17.6445 82.3314 17.6028 82.2687Z" fill="#AA7F10"/>
<path fill-rule="evenodd" clip-rule="evenodd" d="M17.6028 97.8865C15.7982 95.1717 14.5031 93.4022 12 93.4022V90.4022C16.2372 90.4022 18.3689 93.615 19.9752 96.0359C20.0176 96.0998 20.0596 96.163 20.1012 96.2257C21.9058 98.9405 23.2009 100.71 25.704 100.71C28.2079 100.71 29.5058 98.9394 31.3135 96.2247C31.3553 96.162 31.3973 96.0987 31.4398 96.0349C33.0489 93.6139 35.1836 90.4022 39.4201 90.4022C43.6556 90.4022 45.7875 93.6126 47.3947 96.0329C47.4376 96.0976 47.4802 96.1617 47.5224 96.2252C49.3277 98.9385 50.6259 100.71 53.136 100.71C55.6453 100.71 56.9408 98.9396 58.743 96.2262C58.7852 96.1627 58.8277 96.0986 58.8705 96.0339C60.4749 93.6137 62.6038 90.4022 66.8401 90.4022C71.0766 90.4022 73.2113 93.6139 74.8204 96.0349C74.8629 96.0987 74.9049 96.162 74.9466 96.2247C76.7544 98.9394 78.0523 100.71 80.5561 100.71C83.0594 100.71 84.3543 98.9404 86.1608 96.2252C86.2018 96.1636 86.2431 96.1014 86.2847 96.0387C87.8936 93.6162 90.0281 90.4022 94.2721 90.4022C98.5144 90.4022 100.649 93.6138 102.259 96.0357C102.301 96.0992 102.343 96.1623 102.385 96.2247C104.192 98.9385 105.49 100.71 108 100.71V103.71C103.758 103.71 101.623 100.498 100.013 98.0765C99.971 98.0129 99.9291 97.9499 99.8875 97.8875C98.0804 95.1737 96.7823 93.4022 94.2721 93.4022C91.762 93.4022 90.4638 95.1736 88.6585 97.887C88.6163 97.9504 88.5737 98.0146 88.5307 98.0793C86.9236 100.5 84.7917 103.71 80.5561 103.71C76.3197 103.71 74.185 100.498 72.5758 98.0772C72.5334 98.0134 72.4914 97.9501 72.4496 97.8875C70.6419 95.1727 69.344 93.4022 66.8401 93.4022C64.3376 93.4022 63.0454 95.1707 61.242 97.886C61.2011 97.9475 61.1599 98.0097 61.1184 98.0724C59.5122 100.495 57.3808 103.71 53.136 103.71C48.892 103.71 46.7575 100.496 45.1486 98.0734C45.107 98.0107 45.0657 97.9485 45.0247 97.887C43.2182 95.1718 41.9234 93.4022 39.4201 93.4022C36.9162 93.4022 35.6183 95.1727 33.8106 97.8875C33.7688 97.9501 33.7268 98.0134 33.6843 98.0772C32.0752 100.498 29.9405 103.71 25.704 103.71C21.4668 103.71 19.3351 100.497 17.7288 98.0762C17.6865 98.0124 17.6445 97.9491 17.6028 97.8865Z" fill="#AA7F10"/>
<path fill-rule="evenodd" clip-rule="evenodd" d="M98.9186 17.5374C98.9193 17.5378 98.9201 17.5383 98.1265 18.8112L98.9201 17.5383L98.945 17.5538L98.9693 17.5703C102.653 20.0722 104.192 22.9996 104.757 25.5012C105.035 26.7311 105.07 27.8228 105.037 28.6594C105.021 29.0772 104.988 29.4322 104.961 29.6992C104.955 29.7544 104.95 29.8018 104.946 29.8442C104.939 29.9117 104.933 29.9666 104.928 30.02C104.922 30.0879 104.92 30.1129 104.92 30.1129C104.92 30.1129 104.92 30.1097 104.92 30.104H101.92C101.92 29.8787 101.945 29.6302 101.973 29.35C102.05 28.5836 102.151 27.5795 101.831 26.1621C101.431 24.3916 100.331 22.1353 97.3237 20.0793C97.3089 20.071 97.2865 20.0587 97.2567 20.0431C97.1775 20.0018 97.047 19.9379 96.8696 19.8649C96.5141 19.7186 95.976 19.538 95.2893 19.427C93.9332 19.2076 91.9534 19.2506 89.5833 20.4385C88.4822 20.999 87.576 22.0078 86.8403 23.3553C86.1049 24.7026 85.5895 26.2996 85.2331 27.8847C84.8784 29.462 84.6926 30.9746 84.5916 32.1259C84.5413 32.6997 84.5123 33.1802 84.4936 33.5321C84.4877 33.6447 84.4833 33.7335 84.4793 33.8136C84.4767 33.8671 84.4742 33.9168 84.4716 33.9671C84.4714 33.9715 84.4711 33.977 84.4708 33.9835C84.4687 34.0269 84.4645 34.1143 84.4557 34.2053C83.9391 45.7144 84.1284 56.5172 84.3225 67.5897C84.4259 73.4897 84.5306 79.4663 84.5306 85.6671H81.5306C81.5306 79.5798 81.4271 73.6545 81.3244 67.7754C81.1297 56.6229 80.9378 45.6366 81.4608 34.0251L81.4651 33.929L81.4709 33.8958C81.472 33.8787 81.4736 33.8516 81.4756 33.8119C81.4774 33.7784 81.4796 33.734 81.4821 33.6825C81.4865 33.5938 81.492 33.484 81.4978 33.3734C81.5176 33.0002 81.5488 32.483 81.6031 31.8638C81.7114 30.6292 81.9129 28.9755 82.3062 27.2265C82.6977 25.4854 83.291 23.5962 84.2071 21.9179C85.1225 20.2412 86.4099 18.6857 88.2278 17.7622L88.2347 17.7587L88.2347 17.7587C91.228 16.2573 93.8566 16.1563 95.7683 16.4654C96.7157 16.6187 97.4765 16.8706 98.0113 17.0907C98.2791 17.2009 98.4916 17.3037 98.6442 17.3833C98.7206 17.4231 98.7821 17.4572 98.8282 17.4837C98.8513 17.4969 98.8705 17.5082 98.8858 17.5174L98.9059 17.5295L98.9137 17.5343L98.9171 17.5364L98.9186 17.5374ZM97.3448 20.0914L97.3448 20.0913L97.3448 20.0914Z" fill="#AA7F10"/>
<path fill-rule="evenodd" clip-rule="evenodd" d="M66.2027 17.5363C66.2034 17.5367 66.2042 17.5372 65.4124 18.8112L66.2042 17.5372L66.23 17.5532L66.2552 17.5703C69.9385 20.0722 71.4779 22.9996 72.0428 25.5012C72.3206 26.7311 72.3554 27.8228 72.323 28.6594C72.3068 29.0772 72.2738 29.4322 72.2466 29.6992C72.241 29.7544 72.236 29.8019 72.2316 29.8444C72.2246 29.9117 72.2189 29.9666 72.2138 30.02C72.2074 30.0879 72.2062 30.1129 72.2061 30.1129C72.206 30.1129 72.2061 30.1097 72.2061 30.104H69.2061C69.2061 29.8787 69.231 29.6302 69.2591 29.35C69.336 28.5836 69.4366 27.5795 69.1165 26.1621C68.7167 24.3918 67.6174 22.1358 64.6105 20.0799C64.5956 20.0716 64.5732 20.0593 64.5436 20.0439C64.464 20.0025 64.3329 19.9385 64.1548 19.8654C63.798 19.7189 63.2581 19.5382 62.5696 19.427C61.2099 19.2075 59.2273 19.2508 56.8578 20.4382C55.7601 20.9983 54.8561 22.0065 54.1228 23.3537C53.3897 24.7007 52.8768 26.2973 52.5242 27.8816C51.8903 30.7288 51.8161 33.31 51.7958 34.0137C51.7939 34.0791 51.7925 34.1284 51.7912 34.16L51.7912 34.16C51.2721 45.6861 51.4617 56.5027 51.656 67.5897C51.7594 73.4897 51.8641 79.4663 51.8641 85.6671H48.8641C48.8641 79.5798 48.7606 73.6545 48.6579 67.7754C48.4632 56.6229 48.2713 45.6366 48.7943 34.0251L48.7947 34.0152L48.7953 34.0053C48.7941 34.0249 48.8107 33.0619 48.9082 31.8723C49.0096 30.6345 49.2063 28.9795 49.5958 27.2297C49.9837 25.4876 50.5742 23.5981 51.4878 21.9195C52.4006 20.2426 53.6856 18.6867 55.5007 17.7627L55.5086 17.7587L55.5086 17.7587C58.5023 16.2571 61.1339 16.1564 63.0477 16.4654C63.9964 16.6185 64.7584 16.8703 65.2941 17.0902C65.5623 17.2003 65.7752 17.303 65.928 17.3825C66.0045 17.4223 66.0661 17.4563 66.1123 17.4827C66.1354 17.4959 66.1546 17.5072 66.1699 17.5164L66.19 17.5285L66.1978 17.5333L66.2012 17.5353L66.2027 17.5363Z" fill="#AA7F10"/>
<path fill-rule="evenodd" clip-rule="evenodd" d="M83.2804 49.0598H50.6499V46.0598H83.2804V49.0598Z" fill="#AA7F10"/>
<path fill-rule="evenodd" clip-rule="evenodd" d="M83.2804 59.4757H50.6499V56.4757H83.2804V59.4757Z" fill="#AA7F10"/>
<path fill-rule="evenodd" clip-rule="evenodd" d="M83.2804 69.8795H50.6499V66.8795H83.2804V69.8795Z" fill="#AA7F10"/>
</svg>
