<svg width="120" height="120" viewBox="0 0 120 120" fill="none" xmlns="http://www.w3.org/2000/svg">
<mask id="mask0_682_8074" style="mask-type:alpha" maskUnits="userSpaceOnUse" x="0" y="0" width="120" height="120">
<rect width="120" height="120" fill="#C4C4C4"/>
</mask>
<g mask="url(#mask0_682_8074)">
</g>
<g clip-path="url(#clip0_682_8074)">
<path d="M107 104.062H57.0625V107H107V104.062Z" fill="#AA7F10"/>
<path d="M54.125 104.062H13V107H54.125V104.062Z" fill="#AA7F10"/>
<path d="M51.1875 105.531H48.25V90.2416L52.6562 85.8353V80.5625H55.5938V87.0397L51.1875 91.4459V105.531Z" fill="#AA7F10"/>
<path d="M48.6759 91.8866L43.8438 87.0397V80.5625H46.7813V85.8353L50.7616 89.8009L48.6759 91.8866Z" fill="#AA7F10"/>
<path d="M49.7188 83.5C47.3948 83.5 45.1231 82.8109 43.1908 81.5198C41.2585 80.2287 39.7525 78.3936 38.8632 76.2465C37.9739 74.0995 37.7411 71.737 38.1945 69.4577C38.6479 67.1784 39.767 65.0848 41.4102 63.4415C43.0535 61.7982 45.1472 60.6792 47.4264 60.2258C49.7057 59.7724 52.0682 60.0051 54.2153 60.8944C56.3623 61.7838 58.1974 63.2898 59.4885 65.2221C60.7796 67.1543 61.4688 69.4261 61.4688 71.75C61.4688 74.8663 60.2308 77.855 58.0273 80.0585C55.8237 82.2621 52.835 83.5 49.7188 83.5ZM49.7188 62.9375C47.9758 62.9375 46.272 63.4544 44.8228 64.4227C43.3736 65.391 42.2441 66.7673 41.5771 68.3776C40.9101 69.9879 40.7356 71.7598 41.0756 73.4692C41.4156 75.1787 42.2549 76.7489 43.4874 77.9814C44.7198 79.2138 46.2901 80.0531 47.9995 80.3932C49.709 80.7332 51.4809 80.5587 53.0912 79.8917C54.7014 79.2247 56.0778 78.0952 57.0461 76.646C58.0144 75.1968 58.5312 73.493 58.5312 71.75C58.5312 69.4128 57.6028 67.1713 55.9501 65.5186C54.2975 63.866 52.056 62.9375 49.7188 62.9375Z" fill="#AA7F10"/>
<path d="M39.4375 87.9062C39.2877 87.9044 39.1392 87.8796 38.9969 87.8328C25.411 83.5 15.9375 72.6459 15.9375 61.4687C15.9375 51.6869 41.6259 51.1875 46.7812 51.1875C56.475 51.1875 68.8125 53.2731 75.6716 57.885L99.8325 13.8225C99.9289 13.6528 100.058 13.5037 100.212 13.3838C100.366 13.2639 100.542 13.1755 100.73 13.1237C100.919 13.0718 101.115 13.0576 101.309 13.0817C101.503 13.1059 101.69 13.1679 101.859 13.2644C102.029 13.3608 102.178 13.4897 102.298 13.6438C102.418 13.7978 102.506 13.974 102.558 14.1622C102.61 14.3504 102.624 14.547 102.6 14.7407C102.576 14.9344 102.514 15.1215 102.418 15.2912L76.5822 62.4381L75.2162 61.3072C70.1637 57.0625 58.5312 54.125 46.7812 54.125C33.0631 54.125 18.875 56.8716 18.875 61.4687C18.875 71.3828 27.5112 81.0766 39.8781 85.0422C40.2085 85.1507 40.4897 85.373 40.6716 85.6694C40.8536 85.9658 40.9244 86.3172 40.8715 86.6609C40.8186 87.0047 40.6455 87.3185 40.3829 87.5466C40.1203 87.7746 39.7853 87.9021 39.4375 87.9062Z" fill="#AA7F10"/>
<path d="M59.9998 87.9063C59.6103 87.9627 59.2143 87.8622 58.8989 87.6267C58.5835 87.3911 58.3746 87.04 58.3181 86.6505C58.2616 86.2609 58.3622 85.8649 58.5977 85.5495C58.8332 85.2341 59.1843 85.0252 59.5739 84.9688C71.3239 81.4731 76.7142 74.6875 80.768 67.9459L104.268 25.3522C104.364 25.1825 104.493 25.0334 104.647 24.9135C104.801 24.7936 104.978 24.7052 105.166 24.6534C105.354 24.6015 105.551 24.5873 105.744 24.6114C105.938 24.6356 106.125 24.6976 106.295 24.7941C106.465 24.8905 106.614 25.0194 106.734 25.1735C106.853 25.3275 106.942 25.5037 106.994 25.6919C107.045 25.8801 107.06 26.0767 107.036 26.2704C107.011 26.4641 106.949 26.6512 106.853 26.821L83.3529 69.4147C79.0935 76.5088 73.2186 84.1022 60.4258 87.9063C60.2841 87.9196 60.1415 87.9196 59.9998 87.9063Z" fill="#AA7F10"/>
<path d="M81.2924 51.361L79.7812 53.88L87.1241 58.2851L88.6353 55.7661L81.2924 51.361Z" fill="#AA7F10"/>
<path d="M84.228 45.4819L82.7168 48.0009L90.0596 52.406L91.5708 49.887L84.228 45.4819Z" fill="#AA7F10"/>
</g>
<defs>
<clipPath id="clip0_682_8074">
<rect width="94" height="94" fill="white" transform="translate(13 13)"/>
</clipPath>
</defs>
</svg>
