<svg width="365" height="551" viewBox="0 0 365 551" fill="none" xmlns="http://www.w3.org/2000/svg">
<path d="M163.465 550.432C134.494 550.432 104.997 546.745 74.9731 539.37C45.4758 532.523 20.7192 523.305 0.70316 511.717L5.44379 401.892H28.3568L52.8501 456.409C60.2244 471.685 67.8621 484.326 75.7632 494.334C83.6642 504.342 94.199 511.98 107.367 517.247C116.322 520.935 124.75 523.568 132.651 525.148C141.079 526.202 150.296 526.729 160.304 526.729C192.435 526.729 217.719 518.564 236.155 502.235C255.117 485.38 264.598 463.257 264.598 435.867C264.598 411.11 258.014 391.621 244.846 377.399C232.204 363.177 211.661 349.482 183.217 336.313L150.823 322.091C106.577 302.602 71.5493 279.952 45.7392 254.142C20.4558 228.332 7.81411 194.094 7.81411 151.429C7.81411 119.824 15.7152 92.9608 31.5173 70.8379C47.8461 48.1882 70.2324 30.8059 98.6762 18.6909C127.12 6.57597 160.304 0.518495 198.229 0.518495C226.147 0.518495 252.22 4.20565 276.45 11.58C301.207 18.9543 322.803 28.9623 341.239 41.604L335.708 139.577H312.795L283.561 80.3191C275.133 62.9368 266.969 50.5585 259.068 43.1842C251.693 35.2831 242.475 30.2791 231.414 28.1722C225.093 27.1187 219.562 26.3286 214.822 25.8019C210.608 25.2751 204.814 25.0118 197.439 25.0118C171.629 25.0118 149.243 32.6495 130.28 47.9248C111.845 62.6734 102.627 83.2162 102.627 109.553C102.627 134.836 109.738 155.379 123.96 171.181C138.181 186.983 158.724 200.942 185.588 213.057L221.143 228.069C272.236 250.192 308.844 273.895 330.967 299.178C353.09 323.935 364.152 355.803 364.152 394.781C364.152 441.134 346.506 478.796 311.215 507.766C276.45 536.21 227.2 550.432 163.465 550.432Z" fill="white"/>
</svg>
