<svg width="32" height="32" viewBox="0 0 32 32" fill="none" xmlns="http://www.w3.org/2000/svg">
<circle cx="16" cy="16" r="16" fill="white"/>
<path d="M26.4912 8.23535L26.0398 8.78023C27.5296 10.8968 28.316 13.3827 28.316 15.9869C28.316 18.9243 27.2875 21.7608 25.4141 24.0094L25.7976 24.6153C27.8634 22.2178 29.0002 19.1584 29.0002 15.9869C29.0008 13.1785 28.1329 10.5002 26.4912 8.23535Z" fill="#173559"/>
<path d="M14.7794 19.0291L14.8734 18.7041C16.7325 13.1613 22.3969 7.21308 26.6349 5.76091L26.6729 5.72168C18.6376 7.91551 14.5291 13.6825 12.5468 19.5927L12.5156 19.7203L14.7794 19.0291Z" fill="#173559"/>
<path d="M23.5311 22.6819C19.6977 20.8529 14.8103 19.7887 10.6047 19.5508L7.72266 19.3877L7.7955 19.549C9.07868 22.3786 11.2186 24.7337 13.9125 26.2805H25.5209C24.7065 25.1839 24.0341 23.9752 23.5311 22.6819Z" fill="#173559"/>
<path d="M20.8169 27.3476C19.3009 27.9908 17.6585 28.3277 15.9986 28.3277C9.20296 28.3277 3.67365 22.798 3.67365 16.0004C3.67365 9.20288 9.20233 3.67316 15.9986 3.67316C18.3259 3.67316 20.5766 4.32016 22.5341 5.54753C22.7657 5.43358 23.0016 5.32335 23.242 5.21625L23.2476 5.20753C21.1015 3.76345 18.5949 3 15.998 3C8.83064 3 3 8.83236 3 16.0004C3 23.1685 8.83127 29.0009 15.998 29.0009C18.2207 29.0009 20.4147 28.4299 22.3423 27.3495L22.3411 27.347H20.8169V27.3476Z" fill="#173559"/>
<path d="M22.0757 17.1447C22.0757 12.4364 24.185 8.22183 27.5091 5.39221L27.5215 5.35547C22.5862 8.0182 17.7953 13.315 16.0115 18.6324L15.9648 18.8173L22.0943 17.4885C22.0819 17.2332 22.0757 17.4032 22.0757 17.1447Z" fill="#173559"/>
</svg>
