<svg width="140" height="140" viewBox="0 0 140 140" fill="none" xmlns="http://www.w3.org/2000/svg">
<mask id="path-1-inside-1_763_11349" fill="white">
<path d="M135.082 62.4621C133.499 61.0887 132.418 59.2278 132.009 57.1723C131.6 55.1169 131.886 52.9839 132.822 51.109C133.427 49.8986 133.764 48.5722 133.811 47.22C133.857 45.8677 133.612 44.5213 133.092 43.2721C132.572 42.023 131.789 40.9004 130.797 39.9807C129.804 39.061 128.626 38.3657 127.341 37.942C125.365 37.2683 123.669 35.9587 122.518 34.2183C121.366 32.4778 120.824 30.4047 120.976 28.3232C121.073 26.9743 120.879 25.6202 120.406 24.3528C119.934 23.0855 119.195 21.9344 118.239 20.9777C117.283 20.021 116.133 19.281 114.866 18.8078C113.599 18.3346 112.245 18.1393 110.896 18.2351C108.806 18.3846 106.726 17.8339 104.984 16.6698C103.243 15.5057 101.938 13.7947 101.277 11.8068C100.849 10.5243 100.15 9.34876 99.2285 8.35983C98.3065 7.3709 97.1828 6.59165 95.9334 6.07486C94.6841 5.55806 93.3382 5.3158 91.9871 5.36447C90.636 5.41313 89.311 5.7516 88.1021 6.35694C86.224 7.3028 84.0837 7.59418 82.0211 7.18482C79.9585 6.77547 78.0917 5.68885 76.7172 4.09746C75.8314 3.0761 74.7365 2.257 73.5067 1.69563C72.2768 1.13427 70.9406 0.84375 69.5887 0.84375C68.2367 0.84375 66.9006 1.13427 65.6707 1.69563C64.4408 2.257 63.3459 3.0761 62.4602 4.09746C61.0867 5.68042 59.2258 6.76156 57.1704 7.17063C55.115 7.57969 52.9819 7.29344 51.1071 6.35694C49.8985 5.753 48.5743 5.41565 47.2241 5.3677C45.8738 5.31976 44.529 5.56234 43.2807 6.07904C42.0323 6.59574 40.9095 7.3745 39.9881 8.36266C39.0667 9.35082 38.3682 10.5253 37.94 11.8068C37.2788 13.7947 35.9744 15.5057 34.2326 16.6698C32.4908 17.8339 30.4109 18.3846 28.3213 18.2351C26.9719 18.1394 25.6177 18.3348 24.3503 18.8079C23.083 19.281 21.9321 20.0209 20.9755 20.9775C20.0189 21.934 19.2791 23.0849 18.8059 24.3523C18.3328 25.6196 18.1375 26.9739 18.2332 28.3232C18.3827 30.4129 17.8319 32.4928 16.6678 34.2346C15.5038 35.9764 13.7927 37.2808 11.8048 37.942C10.5234 38.3702 9.34887 39.0686 8.36071 39.99C7.37255 40.9114 6.59378 42.0343 6.07708 43.2826C5.56039 44.531 5.3178 45.8758 5.36575 47.226C5.41369 48.5762 5.75105 49.9004 6.35499 51.109C7.29148 52.9839 7.57774 55.1169 7.16867 57.1723C6.75961 59.2278 5.67847 61.0887 4.09551 62.4621C3.07414 63.3479 2.25504 64.4428 1.69368 65.6726C1.13232 66.9025 0.841797 68.2387 0.841797 69.5906C0.841797 70.9426 1.13232 72.2787 1.69368 73.5086C2.25504 74.7385 3.07414 75.8334 4.09551 76.7191C5.67782 78.0913 6.75865 79.9508 7.16773 82.0048C7.57681 84.0589 7.29088 86.1906 6.35499 88.0643C5.74965 89.2732 5.41118 90.5981 5.36251 91.9493C5.31384 93.3004 5.55611 94.6463 6.0729 95.8956C6.5897 97.145 7.36895 98.2687 8.35788 99.1906C9.34681 100.113 10.5223 100.811 11.8048 101.239C13.7927 101.9 15.5038 103.205 16.6678 104.947C17.8319 106.688 18.3827 108.768 18.2332 110.858C18.1313 112.21 18.3222 113.569 18.7927 114.84C19.2632 116.112 20.0023 117.268 20.9597 118.228C21.9171 119.189 23.0703 119.931 24.3406 120.406C25.611 120.88 26.9687 121.076 28.3213 120.978C30.4027 120.826 32.4759 121.368 34.2163 122.52C35.9568 123.671 37.2663 125.367 37.94 127.343C38.3663 128.626 39.0635 129.802 39.9843 130.792C40.9051 131.781 42.028 132.562 43.2769 133.079C44.5257 133.597 45.8713 133.84 47.2223 133.792C48.5733 133.744 49.8982 133.406 51.1071 132.8C52.9819 131.864 55.115 131.578 57.1704 131.987C59.2258 132.396 61.0867 133.477 62.4602 135.06C63.3459 136.081 64.4408 136.9 65.6707 137.462C66.9006 138.023 68.2367 138.314 69.5887 138.314C70.9406 138.314 72.2768 138.023 73.5067 137.462C74.7365 136.9 75.8314 136.081 76.7172 135.06C78.0893 133.478 79.9489 132.397 82.0029 131.988C84.0569 131.579 86.1887 131.865 88.0623 132.8C89.2718 133.406 90.5972 133.744 91.9487 133.792C93.3003 133.84 94.6464 133.597 95.8959 133.08C97.1453 132.562 98.2689 131.782 99.1905 130.792C100.112 129.802 100.81 128.626 101.237 127.343C101.911 125.367 103.221 123.671 104.961 122.52C106.701 121.368 108.775 120.826 110.856 120.978C112.211 121.082 113.573 120.891 114.848 120.419C116.123 119.947 117.281 119.205 118.242 118.244C119.203 117.283 119.945 116.125 120.417 114.85C120.889 113.575 121.08 112.213 120.976 110.858C120.824 108.777 121.366 106.703 122.518 104.963C123.669 103.223 125.365 101.913 127.341 101.239C128.624 100.812 129.8 100.114 130.79 99.1925C131.78 98.2709 132.56 97.1473 133.078 95.8978C133.595 94.6484 133.838 93.3023 133.79 91.9507C133.742 90.5991 133.404 89.2737 132.798 88.0643C131.863 86.1906 131.577 84.0589 131.986 82.0048C132.395 79.9508 133.476 78.0913 135.058 76.7191C136.081 75.8351 136.902 74.7416 137.465 73.5126C138.029 72.2837 138.321 70.948 138.324 69.5961C138.326 68.2441 138.038 66.9075 137.478 65.6767C136.919 64.4458 136.102 63.3496 135.082 62.4621ZM69.5887 130.087C57.7569 130.089 46.1905 126.582 36.352 120.01C26.5135 113.438 18.8449 104.095 14.316 93.1647C9.78708 82.2341 8.6013 70.2059 10.9086 58.6013C13.2159 46.9968 18.9126 36.337 27.2784 27.9701C35.6441 19.6033 46.3031 13.9051 57.9074 11.5963C69.5116 9.28747 81.54 10.4717 92.4712 14.9991C103.402 19.5265 112.746 27.1939 119.319 37.0315C125.893 46.8691 129.401 58.4351 129.401 70.2669C129.391 86.124 123.085 101.328 111.869 112.538C100.653 123.748 85.4458 130.046 69.5887 130.048V130.087Z"/>
</mask>
<path d="M135.082 62.4621C133.499 61.0887 132.418 59.2278 132.009 57.1723C131.6 55.1169 131.886 52.9839 132.822 51.109C133.427 49.8986 133.764 48.5722 133.811 47.22C133.857 45.8677 133.612 44.5213 133.092 43.2721C132.572 42.023 131.789 40.9004 130.797 39.9807C129.804 39.061 128.626 38.3657 127.341 37.942C125.365 37.2683 123.669 35.9587 122.518 34.2183C121.366 32.4778 120.824 30.4047 120.976 28.3232C121.073 26.9743 120.879 25.6202 120.406 24.3528C119.934 23.0855 119.195 21.9344 118.239 20.9777C117.283 20.021 116.133 19.281 114.866 18.8078C113.599 18.3346 112.245 18.1393 110.896 18.2351C108.806 18.3846 106.726 17.8339 104.984 16.6698C103.243 15.5057 101.938 13.7947 101.277 11.8068C100.849 10.5243 100.15 9.34876 99.2285 8.35983C98.3065 7.3709 97.1828 6.59165 95.9334 6.07486C94.6841 5.55806 93.3382 5.3158 91.9871 5.36447C90.636 5.41313 89.311 5.7516 88.1021 6.35694C86.224 7.3028 84.0837 7.59418 82.0211 7.18482C79.9585 6.77547 78.0917 5.68885 76.7172 4.09746C75.8314 3.0761 74.7365 2.257 73.5067 1.69563C72.2768 1.13427 70.9406 0.84375 69.5887 0.84375C68.2367 0.84375 66.9006 1.13427 65.6707 1.69563C64.4408 2.257 63.3459 3.0761 62.4602 4.09746C61.0867 5.68042 59.2258 6.76156 57.1704 7.17063C55.115 7.57969 52.9819 7.29344 51.1071 6.35694C49.8985 5.753 48.5743 5.41565 47.2241 5.3677C45.8738 5.31976 44.529 5.56234 43.2807 6.07904C42.0323 6.59574 40.9095 7.3745 39.9881 8.36266C39.0667 9.35082 38.3682 10.5253 37.94 11.8068C37.2788 13.7947 35.9744 15.5057 34.2326 16.6698C32.4908 17.8339 30.4109 18.3846 28.3213 18.2351C26.9719 18.1394 25.6177 18.3348 24.3503 18.8079C23.083 19.281 21.9321 20.0209 20.9755 20.9775C20.0189 21.934 19.2791 23.0849 18.8059 24.3523C18.3328 25.6196 18.1375 26.9739 18.2332 28.3232C18.3827 30.4129 17.8319 32.4928 16.6678 34.2346C15.5038 35.9764 13.7927 37.2808 11.8048 37.942C10.5234 38.3702 9.34887 39.0686 8.36071 39.99C7.37255 40.9114 6.59378 42.0343 6.07708 43.2826C5.56039 44.531 5.3178 45.8758 5.36575 47.226C5.41369 48.5762 5.75105 49.9004 6.35499 51.109C7.29148 52.9839 7.57774 55.1169 7.16867 57.1723C6.75961 59.2278 5.67847 61.0887 4.09551 62.4621C3.07414 63.3479 2.25504 64.4428 1.69368 65.6726C1.13232 66.9025 0.841797 68.2387 0.841797 69.5906C0.841797 70.9426 1.13232 72.2787 1.69368 73.5086C2.25504 74.7385 3.07414 75.8334 4.09551 76.7191C5.67782 78.0913 6.75865 79.9508 7.16773 82.0048C7.57681 84.0589 7.29088 86.1906 6.35499 88.0643C5.74965 89.2732 5.41118 90.5981 5.36251 91.9493C5.31384 93.3004 5.55611 94.6463 6.0729 95.8956C6.5897 97.145 7.36895 98.2687 8.35788 99.1906C9.34681 100.113 10.5223 100.811 11.8048 101.239C13.7927 101.9 15.5038 103.205 16.6678 104.947C17.8319 106.688 18.3827 108.768 18.2332 110.858C18.1313 112.21 18.3222 113.569 18.7927 114.84C19.2632 116.112 20.0023 117.268 20.9597 118.228C21.9171 119.189 23.0703 119.931 24.3406 120.406C25.611 120.88 26.9687 121.076 28.3213 120.978C30.4027 120.826 32.4759 121.368 34.2163 122.52C35.9568 123.671 37.2663 125.367 37.94 127.343C38.3663 128.626 39.0635 129.802 39.9843 130.792C40.9051 131.781 42.028 132.562 43.2769 133.079C44.5257 133.597 45.8713 133.84 47.2223 133.792C48.5733 133.744 49.8982 133.406 51.1071 132.8C52.9819 131.864 55.115 131.578 57.1704 131.987C59.2258 132.396 61.0867 133.477 62.4602 135.06C63.3459 136.081 64.4408 136.9 65.6707 137.462C66.9006 138.023 68.2367 138.314 69.5887 138.314C70.9406 138.314 72.2768 138.023 73.5067 137.462C74.7365 136.9 75.8314 136.081 76.7172 135.06C78.0893 133.478 79.9489 132.397 82.0029 131.988C84.0569 131.579 86.1887 131.865 88.0623 132.8C89.2718 133.406 90.5972 133.744 91.9487 133.792C93.3003 133.84 94.6464 133.597 95.8959 133.08C97.1453 132.562 98.2689 131.782 99.1905 130.792C100.112 129.802 100.81 128.626 101.237 127.343C101.911 125.367 103.221 123.671 104.961 122.52C106.701 121.368 108.775 120.826 110.856 120.978C112.211 121.082 113.573 120.891 114.848 120.419C116.123 119.947 117.281 119.205 118.242 118.244C119.203 117.283 119.945 116.125 120.417 114.85C120.889 113.575 121.08 112.213 120.976 110.858C120.824 108.777 121.366 106.703 122.518 104.963C123.669 103.223 125.365 101.913 127.341 101.239C128.624 100.812 129.8 100.114 130.79 99.1925C131.78 98.2709 132.56 97.1473 133.078 95.8978C133.595 94.6484 133.838 93.3023 133.79 91.9507C133.742 90.5991 133.404 89.2737 132.798 88.0643C131.863 86.1906 131.577 84.0589 131.986 82.0048C132.395 79.9508 133.476 78.0913 135.058 76.7191C136.081 75.8351 136.902 74.7416 137.465 73.5126C138.029 72.2837 138.321 70.948 138.324 69.5961C138.326 68.2441 138.038 66.9075 137.478 65.6767C136.919 64.4458 136.102 63.3496 135.082 62.4621ZM69.5887 130.087C57.7569 130.089 46.1905 126.582 36.352 120.01C26.5135 113.438 18.8449 104.095 14.316 93.1647C9.78708 82.2341 8.6013 70.2059 10.9086 58.6013C13.2159 46.9968 18.9126 36.337 27.2784 27.9701C35.6441 19.6033 46.3031 13.9051 57.9074 11.5963C69.5116 9.28747 81.54 10.4717 92.4712 14.9991C103.402 19.5265 112.746 27.1939 119.319 37.0315C125.893 46.8691 129.401 58.4351 129.401 70.2669C129.391 86.124 123.085 101.328 111.869 112.538C100.653 123.748 85.4458 130.046 69.5887 130.048V130.087Z" fill="#B68B1D" stroke="#B68B1D" stroke-width="1.68675" mask="url(#path-1-inside-1_763_11349)"/>
<path d="M69.588 125.813C100.288 125.813 125.176 100.925 125.176 70.2248C125.176 39.5243 100.288 14.6367 69.588 14.6367C38.8876 14.6367 14 39.5243 14 70.2248C14 100.925 38.8876 125.813 69.588 125.813Z" stroke="#B68B1D" stroke-width="0.843373" stroke-miterlimit="10"/>
<path d="M42.1143 44.9189V67H37.4458V49.3503H37.3164L32.2598 52.5201V48.3799L37.7261 44.9189H42.1143ZM56.0201 67.4852C54.1656 67.478 52.5699 67.0216 51.233 66.1159C49.9032 65.2102 48.879 63.8984 48.1602 62.1806C47.4486 60.4627 47.0964 58.3962 47.1036 55.981C47.1036 53.5731 47.4594 51.521 48.171 49.8247C48.8898 48.1283 49.914 46.8381 51.2438 45.954C52.5807 45.0627 54.1728 44.6171 56.0201 44.6171C57.8674 44.6171 59.4559 45.0627 60.7856 45.954C62.1226 46.8453 63.1504 48.1391 63.8692 49.8354C64.588 51.5246 64.9438 53.5731 64.9366 55.981C64.9366 58.4033 64.5772 60.4734 63.8584 62.1913C63.1468 63.9092 62.1262 65.221 60.7964 66.1267C59.4667 67.0323 57.8746 67.4852 56.0201 67.4852ZM56.0201 63.6145C57.2852 63.6145 58.2951 62.9784 59.0498 61.7062C59.8045 60.4339 60.1783 58.5255 60.1711 55.981C60.1711 54.3063 59.9986 52.9118 59.6536 51.7977C59.3157 50.6836 58.8341 49.8462 58.2088 49.2856C57.5906 48.7249 56.8611 48.4446 56.0201 48.4446C54.7622 48.4446 53.7559 49.0735 53.0012 50.3314C52.2465 51.5893 51.8655 53.4725 51.8583 55.981C51.8583 57.6774 52.0273 59.0934 52.3651 60.2291C52.7101 61.3575 53.1953 62.2057 53.8206 62.7735C54.446 63.3342 55.1791 63.6145 56.0201 63.6145ZM76.9232 67.4852C75.0688 67.478 73.4731 67.0216 72.1361 66.1159C70.8064 65.2102 69.7821 63.8984 69.0633 62.1806C68.3517 60.4627 67.9995 58.3962 68.0067 55.981C68.0067 53.5731 68.3625 51.521 69.0741 49.8247C69.7929 48.1283 70.8172 46.8381 72.1469 45.954C73.4839 45.0627 75.076 44.6171 76.9232 44.6171C78.7705 44.6171 80.359 45.0627 81.6888 45.954C83.0257 46.8453 84.0536 48.1391 84.7724 49.8354C85.4912 51.5246 85.847 53.5731 85.8398 55.981C85.8398 58.4033 85.4804 60.4734 84.7616 62.1913C84.05 63.9092 83.0293 65.221 81.6996 66.1267C80.3698 67.0323 78.7777 67.4852 76.9232 67.4852ZM76.9232 63.6145C78.1883 63.6145 79.1982 62.9784 79.9529 61.7062C80.7076 60.4339 81.0814 58.5255 81.0742 55.981C81.0742 54.3063 80.9017 52.9118 80.5567 51.7977C80.2189 50.6836 79.7373 49.8462 79.1119 49.2856C78.4938 48.7249 77.7642 48.4446 76.9232 48.4446C75.6654 48.4446 74.6591 49.0735 73.9044 50.3314C73.1496 51.5893 72.7687 53.4725 72.7615 55.981C72.7615 57.6774 72.9304 59.0934 73.2682 60.2291C73.6132 61.3575 74.0984 62.2057 74.7238 62.7735C75.3491 63.3342 76.0823 63.6145 76.9232 63.6145ZM97.8264 67.4852C95.9719 67.478 94.3762 67.0216 93.0393 66.1159C91.7095 65.2102 90.6853 63.8984 89.9665 62.1806C89.2549 60.4627 88.9027 58.3962 88.9099 55.981C88.9099 53.5731 89.2657 51.521 89.9773 49.8247C90.696 48.1283 91.7203 46.8381 93.0501 45.954C94.387 45.0627 95.9791 44.6171 97.8264 44.6171C99.6737 44.6171 101.262 45.0627 102.592 45.954C103.929 46.8453 104.957 48.1391 105.676 49.8354C106.394 51.5246 106.75 53.5731 106.743 55.981C106.743 58.4033 106.384 60.4734 105.665 62.1913C104.953 63.9092 103.932 65.221 102.603 66.1267C101.273 67.0323 99.6809 67.4852 97.8264 67.4852ZM97.8264 63.6145C99.0914 63.6145 100.101 62.9784 100.856 61.7062C101.611 60.4339 101.985 58.5255 101.977 55.981C101.977 54.3063 101.805 52.9118 101.46 51.7977C101.122 50.6836 100.64 49.8462 100.015 49.2856C99.3969 48.7249 98.6674 48.4446 97.8264 48.4446C96.5685 48.4446 95.5622 49.0735 94.8075 50.3314C94.0528 51.5893 93.6718 53.4725 93.6646 55.981C93.6646 57.6774 93.8335 59.0934 94.1714 60.2291C94.5164 61.3575 95.0016 62.2057 95.6269 62.7735C96.2523 63.3342 96.9854 63.6145 97.8264 63.6145ZM21.937 85V84.0764L25.61 78.9227H21.9298V77.6396H27.5651V78.5633L23.8885 83.717H27.5722V85H21.937ZM30.541 85H28.8734L31.4143 77.6396H33.4197L35.957 85H34.2895L32.4458 79.3216H32.3883L30.541 85ZM30.4368 82.1069H34.3757V83.3216H30.4368V82.1069ZM39.9581 85H37.349V77.6396H39.9797C40.7201 77.6396 41.3574 77.787 41.8917 78.0817C42.426 78.374 42.8369 78.7945 43.1244 79.3432C43.4143 79.8918 43.5593 80.5483 43.5593 81.3126C43.5593 82.0793 43.4143 82.7382 43.1244 83.2893C42.8369 83.8404 42.4236 84.2632 41.8845 84.5579C41.3478 84.8526 40.7057 85 39.9581 85ZM38.9051 83.6667H39.8935C40.3535 83.6667 40.7404 83.5852 41.0543 83.4223C41.3706 83.2569 41.6078 83.0018 41.7659 82.6568C41.9264 82.3094 42.0067 81.8613 42.0067 81.3126C42.0067 80.7688 41.9264 80.3243 41.7659 79.9793C41.6078 79.6343 41.3718 79.3803 41.0579 79.2174C40.744 79.0545 40.3571 78.973 39.8971 78.973H38.9051V83.6667ZM51.9818 81.3198C51.9818 82.1225 51.8297 82.8053 51.5254 83.3684C51.2235 83.9314 50.8114 84.3615 50.2891 84.6586C49.7691 84.9533 49.1845 85.1006 48.5352 85.1006C47.8811 85.1006 47.2941 84.9521 46.7742 84.655C46.2543 84.3579 45.8434 83.9278 45.5415 83.3648C45.2396 82.8017 45.0887 82.1201 45.0887 81.3198C45.0887 80.5172 45.2396 79.8343 45.5415 79.2713C45.8434 78.7082 46.2543 78.2794 46.7742 77.9847C47.2941 77.6876 47.8811 77.539 48.5352 77.539C49.1845 77.539 49.7691 77.6876 50.2891 77.9847C50.8114 78.2794 51.2235 78.7082 51.5254 79.2713C51.8297 79.8343 51.9818 80.5172 51.9818 81.3198ZM50.4041 81.3198C50.4041 80.7999 50.3262 80.3614 50.1705 80.0044C50.0171 79.6475 49.8003 79.3767 49.52 79.1922C49.2396 79.0077 48.9114 78.9155 48.5352 78.9155C48.1591 78.9155 47.8308 79.0077 47.5505 79.1922C47.2702 79.3767 47.0521 79.6475 46.8964 80.0044C46.7431 80.3614 46.6664 80.7999 46.6664 81.3198C46.6664 81.8397 46.7431 82.2782 46.8964 82.6352C47.0521 82.9922 47.2702 83.2629 47.5505 83.4474C47.8308 83.6319 48.1591 83.7242 48.5352 83.7242C48.9114 83.7242 49.2396 83.6319 49.52 83.4474C49.8003 83.2629 50.0171 82.9922 50.1705 82.6352C50.3262 82.2782 50.4041 81.8397 50.4041 81.3198ZM55.0206 85L52.9146 77.6396H54.6145L55.8329 82.7538H55.894L57.2381 77.6396H58.6936L60.0342 82.7646H60.0988L61.3172 77.6396H63.0171L60.9111 85H59.3944L57.9928 80.1877H57.9353L56.5373 85H55.0206ZM70.7047 81.3198C70.7047 82.1225 70.5525 82.8053 70.2483 83.3684C69.9464 83.9314 69.5343 84.3615 69.0119 84.6586C68.492 84.9533 67.9074 85.1006 67.2581 85.1006C66.604 85.1006 66.017 84.9521 65.4971 84.655C64.9772 84.3579 64.5663 83.9278 64.2644 83.3648C63.9625 82.8017 63.8115 82.1201 63.8115 81.3198C63.8115 80.5172 63.9625 79.8343 64.2644 79.2713C64.5663 78.7082 64.9772 78.2794 65.4971 77.9847C66.017 77.6876 66.604 77.539 67.2581 77.539C67.9074 77.539 68.492 77.6876 69.0119 77.9847C69.5343 78.2794 69.9464 78.7082 70.2483 79.2713C70.5525 79.8343 70.7047 80.5172 70.7047 81.3198ZM69.127 81.3198C69.127 80.7999 69.0491 80.3614 68.8933 80.0044C68.74 79.6475 68.5232 79.3767 68.2428 79.1922C67.9625 79.0077 67.6343 78.9155 67.2581 78.9155C66.8819 78.9155 66.5537 79.0077 66.2734 79.1922C65.9931 79.3767 65.775 79.6475 65.6193 80.0044C65.4659 80.3614 65.3893 80.7999 65.3893 81.3198C65.3893 81.8397 65.4659 82.2782 65.6193 82.6352C65.775 82.9922 65.9931 83.2629 66.2734 83.4474C66.5537 83.6319 66.8819 83.7242 67.2581 83.7242C67.6343 83.7242 67.9625 83.6319 68.2428 83.4474C68.5232 83.2629 68.74 82.9922 68.8933 82.6352C69.0491 82.2782 69.127 81.8397 69.127 81.3198ZM72.3635 85V77.6396H73.9196V83.717H77.0751V85H72.3635ZM85.0888 81.3198C85.0888 82.1225 84.9367 82.8053 84.6324 83.3684C84.3305 83.9314 83.9184 84.3615 83.3961 84.6586C82.8762 84.9533 82.2915 85.1006 81.6422 85.1006C80.9882 85.1006 80.4011 84.9521 79.8812 84.655C79.3613 84.3579 78.9504 83.9278 78.6485 83.3648C78.3466 82.8017 78.1957 82.1201 78.1957 81.3198C78.1957 80.5172 78.3466 79.8343 78.6485 79.2713C78.9504 78.7082 79.3613 78.2794 79.8812 77.9847C80.4011 77.6876 80.9882 77.539 81.6422 77.539C82.2915 77.539 82.8762 77.6876 83.3961 77.9847C83.9184 78.2794 84.3305 78.7082 84.6324 79.2713C84.9367 79.8343 85.0888 80.5172 85.0888 81.3198ZM83.5111 81.3198C83.5111 80.7999 83.4332 80.3614 83.2775 80.0044C83.1241 79.6475 82.9073 79.3767 82.627 79.1922C82.3467 79.0077 82.0184 78.9155 81.6422 78.9155C81.2661 78.9155 80.9378 79.0077 80.6575 79.1922C80.3772 79.3767 80.1592 79.6475 80.0034 80.0044C79.8501 80.3614 79.7734 80.7999 79.7734 81.3198C79.7734 81.8397 79.8501 82.2782 80.0034 82.6352C80.1592 82.9922 80.3772 83.2629 80.6575 83.4474C80.9378 83.6319 81.2661 83.7242 81.6422 83.7242C82.0184 83.7242 82.3467 83.6319 82.627 83.4474C82.9073 83.2629 83.1241 82.9922 83.2775 82.6352C83.4332 82.2782 83.5111 81.8397 83.5111 81.3198ZM92.904 77.6396V85H91.5599L88.3577 80.3674H88.3038V85H86.7476V77.6396H88.1133L91.2903 82.2686H91.355V77.6396H92.904ZM94.2645 77.6396H96.0075L97.6859 80.8095H97.7577L99.4361 77.6396H101.179L98.4945 82.398V85H96.9491V82.398L94.2645 77.6396ZM108.585 80.2165H107.01C106.982 80.0128 106.923 79.8319 106.834 79.6738C106.746 79.5133 106.632 79.3767 106.493 79.2641C106.354 79.1515 106.193 79.0652 106.011 79.0053C105.832 78.9454 105.636 78.9155 105.426 78.9155C105.045 78.9155 104.713 79.0101 104.43 79.1994C104.147 79.3863 103.928 79.6594 103.772 80.0188C103.617 80.3758 103.539 80.8095 103.539 81.3198C103.539 81.8445 103.617 82.2854 103.772 82.6424C103.93 82.9994 104.151 83.2689 104.434 83.451C104.716 83.6331 105.043 83.7242 105.415 83.7242C105.623 83.7242 105.816 83.6966 105.993 83.6415C106.173 83.5864 106.332 83.5061 106.471 83.4007C106.61 83.2929 106.725 83.1623 106.816 83.009C106.91 82.8556 106.975 82.6807 107.01 82.4843L108.585 82.4914C108.544 82.8293 108.442 83.1551 108.279 83.469C108.119 83.7805 107.902 84.0596 107.629 84.3064C107.358 84.5508 107.034 84.7448 106.658 84.8886C106.284 85.0299 105.862 85.1006 105.39 85.1006C104.733 85.1006 104.146 84.9521 103.629 84.655C103.113 84.3579 102.706 83.9278 102.407 83.3648C102.11 82.8017 101.961 82.1201 101.961 81.3198C101.961 80.5172 102.112 79.8343 102.414 79.2713C102.716 78.7082 103.125 78.2794 103.643 77.9847C104.16 77.6876 104.743 77.539 105.39 77.539C105.816 77.539 106.211 77.5989 106.576 77.7187C106.942 77.8385 107.267 78.0134 107.55 78.2434C107.832 78.471 108.062 78.7502 108.24 79.0808C108.419 79.4115 108.534 79.79 108.585 80.2165ZM110.207 85V77.6396H111.763V80.6765H114.922V77.6396H116.474V85H114.922V81.9595H111.763V85H110.207ZM41.496 100V92.6396H43.0522V95.885H43.1492L45.7979 92.6396H47.6632L44.9318 95.9353L47.6955 100H45.8339L43.8177 96.9739L43.0522 97.9083V100H41.496ZM48.9796 100V92.6396H50.5358V98.717H53.6912V100H48.9796ZM56.784 92.6396V100H55.2278V92.6396H56.784ZM58.5703 100V92.6396H63.53V93.9227H60.1265V95.6765H63.2748V96.9595H60.1265V98.717H63.5443V100H58.5703ZM71.4296 92.6396V100H70.0854L66.8833 95.3674H66.8294V100H65.2732V92.6396H66.6389L69.8159 97.2686H69.8806V92.6396H71.4296ZM72.941 93.9227V92.6396H78.986V93.9227H76.7326V100H75.1944V93.9227H72.941ZM86.9152 96.3198C86.9152 97.1225 86.7631 97.8053 86.4588 98.3684C86.1569 98.9314 85.7448 99.3615 85.2225 99.6586C84.7026 99.9533 84.118 100.101 83.4687 100.101C82.8146 100.101 82.2276 99.9521 81.7077 99.655C81.1877 99.3579 80.7768 98.9278 80.4749 98.3648C80.173 97.8017 80.0221 97.1201 80.0221 96.3198C80.0221 95.5172 80.173 94.8343 80.4749 94.2713C80.7768 93.7082 81.1877 93.2794 81.7077 92.9847C82.2276 92.6876 82.8146 92.539 83.4687 92.539C84.118 92.539 84.7026 92.6876 85.2225 92.9847C85.7448 93.2794 86.1569 93.7082 86.4588 94.2713C86.7631 94.8343 86.9152 95.5172 86.9152 96.3198ZM85.3375 96.3198C85.3375 95.7999 85.2596 95.3614 85.1039 95.0044C84.9506 94.6475 84.7337 94.3767 84.4534 94.1922C84.1731 94.0077 83.8448 93.9155 83.4687 93.9155C83.0925 93.9155 82.7643 94.0077 82.4839 94.1922C82.2036 94.3767 81.9856 94.6475 81.8298 95.0044C81.6765 95.3614 81.5998 95.7999 81.5998 96.3198C81.5998 96.8397 81.6765 97.2782 81.8298 97.6352C81.9856 97.9922 82.2036 98.2629 82.4839 98.4474C82.7643 98.6319 83.0925 98.7242 83.4687 98.7242C83.8448 98.7242 84.1731 98.6319 84.4534 98.4474C84.7337 98.2629 84.9506 97.9922 85.1039 97.6352C85.2596 97.2782 85.3375 96.8397 85.3375 96.3198ZM82.9188 91.9281L83.6807 90.2928H85.0967L84.0006 91.9281H82.9188ZM89.9541 100L87.848 92.6396H89.548L90.7663 97.7538H90.8274L92.1715 92.6396H93.6271L94.9676 97.7646H95.0323L96.2506 92.6396H97.9506L95.8445 100H94.3279L92.9263 95.1877H92.8687L91.4707 100H89.9541Z" fill="#0B345A"/>
</svg>
