<svg width="120" height="120" viewBox="0 0 120 120" fill="none" xmlns="http://www.w3.org/2000/svg">
<mask id="mask0_763_11886" style="mask-type:alpha" maskUnits="userSpaceOnUse" x="0" y="0" width="120" height="120">
<rect width="120" height="120" fill="#C4C4C4"/>
</mask>
<g mask="url(#mask0_763_11886)">
</g>
<g clip-path="url(#clip0_763_11886)">
<path d="M35.7726 88.2187L32.0332 88.2V86.4238H35.7726V88.2187Z" fill="#443401"/>
<path d="M35.7726 82.9837H32.0332V79.5248H35.7726V82.9837ZM35.7726 76.0658H32.0332V72.6069H35.7726V76.0658ZM35.7726 69.148H32.0332V65.689H35.7726V69.148ZM35.7726 62.2302H32.0332V58.7712H35.7726V62.2302ZM35.7726 55.3123H32.0332V51.9282H35.7726V55.3123ZM35.7726 48.3944H32.0332V44.9355H35.7726V48.3944Z" fill="#443401"/>
<path d="M35.7726 39.7188H32.0332V41.495H35.7726V39.7188Z" fill="#443401"/>
<path d="M90.1241 88.2185H86.3848V39.3262H90.1241V88.2185Z" fill="#443401"/>
<path d="M62.2872 21.7472L60.373 24.9595L99.9005 48.5132L101.815 45.3009L62.2872 21.7472Z" fill="#443401"/>
<path d="M22.2987 45.8118L20.7773 46.7285L22.7072 49.9314L24.2286 49.0147L22.2987 45.8118Z" fill="#443401"/>
<path d="M27.1724 47.104L25.3027 43.9069L28.2569 42.0373L30.1266 45.2344L27.1724 47.104ZM33.0807 43.5517L31.211 40.3545L34.1652 38.4848L36.0348 41.7007L33.0807 43.5517ZM38.9889 39.9805L37.1192 36.7834L40.0733 35.0072L41.943 38.2043L38.9889 39.9805ZM44.8971 36.4282L43.0275 33.231L45.9815 31.3613L47.8512 34.5585L44.8971 36.4282ZM50.7866 32.8757L48.9169 29.6599L51.871 27.7902L53.7407 31.0061L50.7866 32.8757ZM56.6949 29.3047L54.8252 26.1075L57.7792 24.2378L59.6489 27.435L56.6949 29.3047Z" fill="#443401"/>
<path d="M62.1868 21.5709L60.666 22.4883L62.5975 25.6902L64.1184 24.7728L62.1868 21.5709Z" fill="#443401"/>
<path d="M105.736 104.765H15.2617V14.2725H105.736V104.765ZM17.1314 102.896H103.866V16.1421H17.1314V102.896Z" fill="#443401"/>
<path d="M21.3776 20.3864H11.0195V10.0283H21.3776V20.3864ZM12.8892 18.5167H19.5079V11.898H12.8892V18.5167Z" fill="#443401"/>
<path d="M109.981 20.3864H99.623V10.0283H109.981V20.3864ZM101.493 18.5167H108.112V11.898H101.493V18.5167Z" fill="#443401"/>
<path d="M21.358 109.028H11V98.6704H21.358V109.028ZM12.8697 107.159H19.4883V100.54H12.8697V107.159Z" fill="#443401"/>
<path d="M109.981 109.01H99.623V98.6704H109.981V109.01ZM101.493 107.14H108.112V100.54H101.493V107.14Z" fill="#443401"/>
<path d="M62.192 15.2075H60.3223V103.831H62.192V15.2075Z" fill="#443401"/>
</g>
<defs>
<clipPath id="clip0_763_11886">
<rect width="99" height="99" fill="white" transform="translate(11 10.0283)"/>
</clipPath>
</defs>
</svg>
