<svg width="140" height="140" viewBox="0 0 140 140" fill="none" xmlns="http://www.w3.org/2000/svg">
<path d="M31.929 62.2656V59.6319L38.0828 53.9339C38.6061 53.4274 39.0451 52.9716 39.3996 52.5664C39.7598 52.1612 40.0327 51.7645 40.2185 51.3762C40.4042 50.9822 40.497 50.5574 40.497 50.1015C40.497 49.595 40.3817 49.1589 40.1509 48.7931C39.9202 48.4217 39.605 48.1375 39.2055 47.9405C38.8059 47.7379 38.3529 47.6366 37.8464 47.6366C37.3174 47.6366 36.8559 47.7435 36.462 47.9574C36.0681 48.1712 35.7642 48.4779 35.5503 48.8775C35.3365 49.2771 35.2296 49.7526 35.2296 50.3041H31.7601C31.7601 49.173 32.0162 48.1909 32.5283 47.358C33.0404 46.5252 33.7579 45.8808 34.6809 45.425C35.6038 44.9691 36.6674 44.7412 37.8717 44.7412C39.1098 44.7412 40.1875 44.9607 41.1048 45.3996C42.0277 45.833 42.7453 46.4351 43.2574 47.2061C43.7695 47.9771 44.0255 48.8606 44.0255 49.8567C44.0255 50.5095 43.8961 51.1539 43.6372 51.7898C43.384 52.4257 42.931 53.132 42.2782 53.9086C41.6254 54.6796 40.7052 55.6053 39.5178 56.6858L36.9938 59.1592V59.2774H44.2535V62.2656H31.929ZM53.6804 62.6455C52.2285 62.6399 50.9792 62.2825 49.9324 61.5734C48.8913 60.8643 48.0894 59.8373 47.5266 58.4923C46.9695 57.1473 46.6937 55.5294 46.6994 53.6385C46.6994 51.7532 46.9779 50.1465 47.5351 48.8184C48.0978 47.4903 48.8998 46.4801 49.9409 45.7879C50.9876 45.0901 52.2341 44.7412 53.6804 44.7412C55.1267 44.7412 56.3704 45.0901 57.4115 45.7879C58.4583 46.4858 59.263 47.4987 59.8258 48.8269C60.3886 50.1494 60.6671 51.7532 60.6615 53.6385C60.6615 55.535 60.3801 57.1557 59.8174 58.5007C59.2602 59.8457 58.4611 60.8728 57.42 61.5819C56.3789 62.2909 55.1324 62.6455 53.6804 62.6455ZM53.6804 59.615C54.6709 59.615 55.4616 59.117 56.0525 58.1209C56.6434 57.1248 56.936 55.6307 56.9304 53.6385C56.9304 52.3272 56.7953 51.2355 56.5252 50.3632C56.2607 49.4909 55.8836 48.8353 55.394 48.3963C54.9101 47.9574 54.3389 47.7379 53.6804 47.7379C52.6956 47.7379 51.9077 48.2303 51.3168 49.2152C50.7259 50.2 50.4277 51.6744 50.422 53.6385C50.422 54.9666 50.5543 56.0752 50.8188 56.9644C51.0889 57.8479 51.4688 58.512 51.9584 58.9566C52.448 59.3955 53.022 59.615 53.6804 59.615ZM68.8708 62.2656V44.9776H72.5259V59.252H79.9375V62.2656H68.8708ZM85.779 62.2656H81.8622L87.8303 44.9776H92.5406L98.5002 62.2656H94.5834L90.253 48.9282H90.1179L85.779 62.2656ZM85.5342 55.4703H94.786V58.3235H85.5342V55.4703ZM97.8101 47.9912V44.9776H112.009V47.9912H106.716V62.2656H103.103V47.9912H97.8101Z" fill="#0B345A"/>
<path d="M31.7227 77.625H29.1819V70.4574H31.7437C32.4647 70.4574 33.0853 70.6009 33.6056 70.8879C34.1259 71.1725 34.5261 71.582 34.8061 72.1163C35.0884 72.6506 35.2295 73.2899 35.2295 74.0342C35.2295 74.7808 35.0884 75.4225 34.8061 75.9591C34.5261 76.4957 34.1236 76.9075 33.5986 77.1945C33.076 77.4815 32.4507 77.625 31.7227 77.625ZM30.6973 76.3266H31.6597C32.1077 76.3266 32.4845 76.2472 32.7902 76.0886C33.0982 75.9276 33.3291 75.6791 33.4831 75.3431C33.6395 75.0048 33.7176 74.5685 33.7176 74.0342C33.7176 73.5046 33.6395 73.0718 33.4831 72.7358C33.3291 72.3998 33.0993 72.1525 32.7937 71.9938C32.488 71.8352 32.1112 71.7558 31.6632 71.7558H30.6973V76.3266ZM42.9387 74.0412C42.9387 74.8228 42.7905 75.4878 42.4942 76.0361C42.2002 76.5844 41.7989 77.0032 41.2903 77.2925C40.784 77.5795 40.2147 77.723 39.5824 77.723C38.9454 77.723 38.3738 77.5783 37.8675 77.289C37.3612 76.9997 36.9611 76.5809 36.6671 76.0326C36.3731 75.4843 36.2261 74.8205 36.2261 74.0412C36.2261 73.2596 36.3731 72.5946 36.6671 72.0463C36.9611 71.498 37.3612 71.0804 37.8675 70.7934C38.3738 70.5041 38.9454 70.3594 39.5824 70.3594C40.2147 70.3594 40.784 70.5041 41.2903 70.7934C41.7989 71.0804 42.2002 71.498 42.4942 72.0463C42.7905 72.5946 42.9387 73.2596 42.9387 74.0412ZM41.4023 74.0412C41.4023 73.5349 41.3265 73.1079 41.1748 72.7603C41.0255 72.4126 40.8143 72.149 40.5413 71.9693C40.2684 71.7897 39.9487 71.6998 39.5824 71.6998C39.2161 71.6998 38.8964 71.7897 38.6235 71.9693C38.3505 72.149 38.1382 72.4126 37.9865 72.7603C37.8372 73.1079 37.7625 73.5349 37.7625 74.0412C37.7625 74.5475 37.8372 74.9745 37.9865 75.3221C38.1382 75.6698 38.3505 75.9334 38.6235 76.1131C38.8964 76.2927 39.2161 76.3826 39.5824 76.3826C39.9487 76.3826 40.2684 76.2927 40.5413 76.1131C40.8143 75.9334 41.0255 75.6698 41.1748 75.3221C41.3265 74.9745 41.4023 74.5475 41.4023 74.0412ZM47.9495 72.5188C47.9215 72.2365 47.8014 72.0172 47.5891 71.8608C47.3767 71.7045 47.0886 71.6264 46.7246 71.6264C46.4773 71.6264 46.2685 71.6614 46.0981 71.7313C45.9278 71.799 45.7972 71.8935 45.7062 72.0148C45.6175 72.1362 45.5732 72.2738 45.5732 72.4278C45.5685 72.5561 45.5953 72.6681 45.6537 72.7638C45.7143 72.8594 45.7972 72.9423 45.9022 73.0123C46.0072 73.0799 46.1285 73.1394 46.2661 73.1908C46.4038 73.2398 46.5508 73.2818 46.7071 73.3168L47.3511 73.4707C47.6637 73.5407 47.9507 73.6341 48.212 73.7507C48.4733 73.8674 48.6997 74.0109 48.891 74.1812C49.0823 74.3515 49.2305 74.5522 49.3355 74.7832C49.4428 75.0142 49.4976 75.279 49.4999 75.5776C49.4976 76.0163 49.3856 76.3966 49.164 76.7186C48.9446 77.0382 48.6273 77.2867 48.212 77.464C47.799 77.639 47.3009 77.7265 46.7176 77.7265C46.139 77.7265 45.635 77.6378 45.2057 77.4605C44.7787 77.2832 44.4451 77.0207 44.2048 76.6731C43.9668 76.3231 43.8419 75.8903 43.8303 75.3746H45.2967C45.313 75.615 45.3819 75.8156 45.5032 75.9766C45.6268 76.1353 45.7913 76.2554 45.9967 76.3371C46.2043 76.4164 46.4388 76.4561 46.7001 76.4561C46.9568 76.4561 47.1796 76.4187 47.3686 76.3441C47.5599 76.2694 47.7081 76.1656 47.813 76.0326C47.918 75.8996 47.9705 75.7468 47.9705 75.5741C47.9705 75.4131 47.9227 75.2778 47.827 75.1681C47.7337 75.0585 47.5961 74.9652 47.4141 74.8882C47.2344 74.8112 47.0139 74.7412 46.7526 74.6782L45.9722 74.4822C45.3679 74.3352 44.8907 74.1054 44.5407 73.7927C44.1908 73.4801 44.0169 73.0589 44.0193 72.5293C44.0169 72.0953 44.1324 71.7162 44.3657 71.3919C44.6014 71.0676 44.9245 70.8144 45.3352 70.6324C45.7458 70.4504 46.2125 70.3594 46.7351 70.3594C47.2671 70.3594 47.7314 70.4504 48.128 70.6324C48.527 70.8144 48.8373 71.0676 49.059 71.3919C49.2806 71.7162 49.395 72.0918 49.402 72.5188H47.9495ZM46.1296 69.7645L46.8716 68.1721H48.2505L47.1831 69.7645H46.1296ZM52.1327 77.625L50.0818 70.4574H51.7372L52.9236 75.4376H52.9831L54.292 70.4574H55.7095L57.0149 75.4481H57.0779L58.2643 70.4574H59.9197L57.8688 77.625H56.3919L55.027 72.9388H54.971L53.6096 77.625H52.1327ZM62.2462 70.4574V77.625H60.7308V70.4574H62.2462ZM64.7284 77.625H63.1045L65.5789 70.4574H67.5318L70.0026 77.625H68.3787L66.5833 72.0953H66.5273L64.7284 77.625ZM64.6269 74.8077H68.4627V75.9906H64.6269V74.8077ZM73.4062 77.625H70.8653V70.4574H73.4272C74.1481 70.4574 74.7688 70.6009 75.2891 70.8879C75.8094 71.1725 76.2095 71.582 76.4895 72.1163C76.7718 72.6506 76.913 73.2899 76.913 74.0342C76.913 74.7808 76.7718 75.4225 76.4895 75.9591C76.2095 76.4957 75.807 76.9075 75.2821 77.1945C74.7594 77.4815 74.1341 77.625 73.4062 77.625ZM72.3807 76.3266H73.3432C73.7911 76.3266 74.168 76.2472 74.4736 76.0886C74.7816 75.9276 75.0126 75.6791 75.1666 75.3431C75.3229 75.0048 75.401 74.5685 75.401 74.0342C75.401 73.5046 75.3229 73.0718 75.1666 72.7358C75.0126 72.3998 74.7828 72.1525 74.4771 71.9938C74.1715 71.8352 73.7946 71.7558 73.3467 71.7558H72.3807V76.3266ZM84.3596 72.9668H82.8267C82.7987 72.7685 82.7416 72.5923 82.6552 72.4383C82.5689 72.282 82.4581 72.149 82.3228 72.0393C82.1874 71.9297 82.0311 71.8457 81.8538 71.7873C81.6788 71.729 81.4886 71.6998 81.2833 71.6998C80.9124 71.6998 80.5892 71.792 80.3139 71.9763C80.0386 72.1583 79.8251 72.4243 79.6734 72.7743C79.5218 73.1219 79.4459 73.5442 79.4459 74.0412C79.4459 74.5522 79.5218 74.9815 79.6734 75.3291C79.8274 75.6768 80.0421 75.9393 80.3174 76.1166C80.5927 76.2939 80.9112 76.3826 81.2728 76.3826C81.4758 76.3826 81.6636 76.3557 81.8363 76.3021C82.0113 76.2484 82.1664 76.1703 82.3018 76.0676C82.4371 75.9626 82.5491 75.8354 82.6377 75.6861C82.7287 75.5368 82.7917 75.3665 82.8267 75.1751L84.3596 75.1821C84.32 75.5111 84.2208 75.8284 84.0622 76.1341C83.9058 76.4374 83.6947 76.7092 83.4287 76.9495C83.1651 77.1875 82.8501 77.3765 82.4838 77.5165C82.1198 77.6542 81.708 77.723 81.2483 77.723C80.609 77.723 80.0374 77.5783 79.5334 77.289C79.0318 76.9997 78.6352 76.5809 78.3435 76.0326C78.0542 75.4843 77.9095 74.8205 77.9095 74.0412C77.9095 73.2596 78.0565 72.5946 78.3505 72.0463C78.6445 71.498 79.0435 71.0804 79.5474 70.7934C80.0514 70.5041 80.6184 70.3594 81.2483 70.3594C81.6636 70.3594 82.0486 70.4178 82.4033 70.5344C82.7602 70.6511 83.0764 70.8214 83.3517 71.0454C83.627 71.267 83.851 71.5389 84.0237 71.8608C84.1987 72.1828 84.3107 72.5515 84.3596 72.9668ZM85.3693 77.625V76.7256L88.9461 71.7068H85.3623V70.4574H90.85V71.3569L87.2697 76.3756H90.857V77.625H85.3693ZM92.0198 77.625V70.4574H96.8495V71.7068H93.5352V73.4147H96.6011V74.6642H93.5352V76.3756H96.8635V77.625H92.0198ZM104.049 70.4574V77.625H102.741L99.6223 73.1138H99.5698V77.625H98.0543V70.4574H99.3843L102.478 74.9652H102.541V70.4574H104.049ZM106.817 70.4574V77.625H105.302V70.4574H106.817ZM109.299 77.625H107.675L110.15 70.4574H112.103L114.573 77.625H112.949L111.154 72.0953H111.098L109.299 77.625ZM109.198 74.8077H113.033V75.9906H109.198V74.8077Z" fill="#0B345A"/>
<path d="M73.818 134.18C73.3269 130.991 72.1277 127.947 70.3048 125.261C68.433 122.564 65.8514 120.413 62.8332 119.035C61.3127 118.35 59.7326 117.801 58.1118 117.393C56.4745 116.98 54.8292 116.466 53.1918 116.015C52.3822 115.779 51.5862 115.501 50.8072 115.182L48.4227 114.279C47.6247 113.98 46.8445 113.637 46.0859 113.252L43.7808 112.155C31.5557 105.949 21.7886 95.9339 16.0202 83.6904C10.2518 71.4469 8.81039 57.6714 11.9234 44.5369C12.7326 41.2921 13.7792 38.1084 15.0551 35.0107C16.3767 31.9295 17.9393 28.9528 19.7288 26.1071C21.5609 23.2836 23.6067 20.5988 25.8491 18.0751C28.1318 15.5831 30.6 13.26 33.2332 11.125L33.734 11.7321C23.0681 20.061 15.5599 31.6491 12.4082 44.6459C11.6646 47.8787 11.173 51.1621 10.9378 54.4679C10.7395 57.7801 10.7926 61.1021 11.0968 64.4066C11.76 71.018 13.5578 77.4724 16.4143 83.498C22.2014 95.5832 31.9297 105.44 44.0669 111.516L46.3561 112.59C47.1049 112.97 47.8774 113.303 48.6691 113.587L51.0536 114.466C51.8307 114.775 52.6272 115.035 53.4382 115.244C55.0756 115.688 56.6652 116.186 58.3265 116.575C60.0038 116.97 61.6422 117.509 63.2227 118.186C64.8239 118.859 66.3304 119.73 67.7056 120.778C68.399 121.3 69.0624 121.858 69.6927 122.451C70.3078 123.064 70.8864 123.711 71.4255 124.389C73.5695 127.165 75.1506 130.316 76.0833 133.674L73.818 134.18Z" fill="#B68B1D"/>
<path d="M53.0811 122.64C50.8158 124.126 48.5823 124.663 47.08 124.258C46.9529 124.258 46.9052 124.095 46.9767 123.924C48.002 121.699 49.6571 119.808 51.7458 118.476C54.019 116.989 56.2446 116.452 57.7469 116.857C57.882 116.857 57.9217 117.02 57.8502 117.184C56.8273 119.412 55.1719 121.306 53.0811 122.64Z" fill="#B68B1D"/>
<path d="M56.8005 109.547C55.64 107.134 54.0185 105.546 52.5162 105.134C52.3811 105.095 52.2778 105.188 52.2539 105.367C51.964 107.798 52.3945 110.259 53.4939 112.457C54.6544 114.87 56.2759 116.458 57.7781 116.878C57.9132 116.878 58.0166 116.816 58.0404 116.645C58.3309 114.211 57.9005 111.747 56.8005 109.547Z" fill="#B68B1D"/>
<path d="M44.4723 119.036C42.2388 120.11 40.1642 120.336 38.8527 119.814C38.7414 119.768 38.7176 119.635 38.805 119.495C40.0123 117.605 41.7472 116.092 43.8046 115.137C46.0301 114.063 48.1126 113.837 49.4241 114.359C49.5354 114.405 49.5593 114.538 49.4718 114.678C48.2646 116.568 46.5297 118.081 44.4723 119.036Z" fill="#B68B1D"/>
<path d="M49.4314 107.633C48.6366 105.298 47.4046 103.687 46.0931 103.134C45.9818 103.087 45.8785 103.134 45.8308 103.313C45.2703 105.476 45.3586 107.751 46.0851 109.866C46.8402 112.201 48.112 113.812 49.4235 114.357C49.5347 114.412 49.6381 114.357 49.6858 114.178C50.246 112.018 50.1577 109.745 49.4314 107.633Z" fill="#B68B1D"/>
<path d="M37.2313 115.338C34.9024 116.186 32.8119 116.21 31.564 115.54C31.4607 115.486 31.4448 115.361 31.564 115.229C32.9524 113.45 34.8342 112.099 36.9849 111.338C39.3138 110.489 41.4042 110.466 42.6521 111.135C42.7555 111.19 42.7634 111.314 42.6521 111.446C41.2637 113.226 39.382 114.577 37.2313 115.338Z" fill="#B68B1D"/>
<path d="M43.3266 104.474C42.8179 102.093 41.7369 100.357 40.4731 99.6802C40.3618 99.618 40.2505 99.6802 40.1869 99.8281C39.4133 101.926 39.2699 104.198 39.7736 106.374C40.2903 108.755 41.3633 110.498 42.635 111.176C42.7384 111.23 42.8576 111.176 42.9132 111.02C43.6931 108.923 43.8366 106.65 43.3266 104.474Z" fill="#B68B1D"/>
<path d="M30.3479 110.528C27.9157 111.058 25.8411 110.793 24.7045 109.968C24.6011 109.89 24.617 109.766 24.7045 109.649C26.3332 108.089 28.3863 107.022 30.6181 106.575C33.0424 106.046 35.117 106.31 36.2615 107.135C36.3569 107.205 36.349 107.33 36.2615 107.454C34.6307 109.011 32.5785 110.078 30.3479 110.528Z" fill="#B68B1D"/>
<path d="M37.9147 100.598C37.7477 98.1702 36.8973 96.2945 35.7686 95.4617C35.6652 95.3917 35.546 95.4617 35.4586 95.5707C34.3978 97.5453 33.9372 99.7763 34.1312 101.999C34.2981 104.428 35.1486 106.303 36.2852 107.136C36.3806 107.206 36.4998 107.136 36.5873 107.019C37.6512 105.049 38.1121 102.819 37.9147 100.598Z" fill="#B68B1D"/>
<path d="M16.9068 96.856C14.4269 96.677 12.5192 95.8365 11.6767 94.7158C11.5972 94.6224 11.6767 94.5056 11.788 94.42C13.8115 93.3943 16.0916 92.9543 18.3614 93.1514C20.8413 93.3382 22.7489 94.1787 23.5914 95.2917C23.6709 95.3851 23.5914 95.5096 23.4802 95.5874C21.4579 96.6168 19.1767 97.0571 16.9068 96.856Z" fill="#B68B1D"/>
<path d="M27.0878 89.4992C27.6441 87.1644 27.3898 85.0863 26.5473 83.9656C26.4757 83.8722 26.3486 83.88 26.2293 83.9656C24.6276 85.5534 23.5242 87.5575 23.05 89.7405C22.4936 92.0754 22.7559 94.1456 23.5904 95.2663C23.662 95.3597 23.7971 95.352 23.9163 95.2663C25.5175 93.6823 26.6186 91.6801 27.0878 89.4992Z" fill="#B68B1D"/>
<path d="M22.6771 103.828C20.1892 103.906 18.2021 103.275 17.2324 102.271C17.1529 102.186 17.1847 102.061 17.3198 101.968C19.2055 100.736 21.412 100.058 23.6786 100.014C26.1665 99.9364 28.1536 100.575 29.1153 101.571C29.2028 101.656 29.171 101.781 29.0359 101.874C27.1507 103.108 24.9439 103.786 22.6771 103.828Z" fill="#B68B1D"/>
<path d="M31.9925 95.4465C32.2866 93.026 31.8097 91.0336 30.8479 89.9985C30.7684 89.9051 30.6413 89.9284 30.53 90.053C29.1126 91.7986 28.2355 93.9052 28.0024 96.1236C27.7162 98.5441 28.1932 100.537 29.147 101.572C29.2344 101.657 29.3616 101.634 29.4728 101.517C30.8874 99.7706 31.7617 97.6641 31.9925 95.4465Z" fill="#B68B1D"/>
<path d="M12.7421 89.3115C10.5244 88.7978 8.91886 87.7549 8.30683 86.6342C8.25914 86.533 8.30681 86.4319 8.45783 86.3774C10.4457 85.7338 12.5798 85.6582 14.6099 86.1594C16.8276 86.6731 18.4332 87.716 19.0372 88.8368C19.0929 88.9379 19.0372 89.0391 18.8941 89.0936C16.9063 89.7372 14.7722 89.8128 12.7421 89.3115Z" fill="#B68B1D"/>
<path d="M23.0277 84.0761C23.8861 81.9981 23.9497 80.1146 23.3536 78.9783C23.3059 78.8849 23.1867 78.8694 23.0595 78.9783C21.3712 80.19 20.0744 81.8515 19.3237 83.7648C18.4732 85.8428 18.4096 87.7185 18.9978 88.8548C19.0535 88.956 19.1727 88.9638 19.2999 88.8548C20.9827 87.6429 22.2763 85.9847 23.0277 84.0761Z" fill="#B68B1D"/>
<path d="M9.41153 82.1833C7.24956 81.4673 5.74731 80.2998 5.24655 79.1168C5.20681 79.0157 5.24655 78.9223 5.42142 78.8756C7.46036 78.4134 9.59155 78.5295 11.5656 79.2102C13.7275 79.9263 15.2298 81.1015 15.7226 82.3234C15.7703 82.4246 15.7226 82.518 15.5557 82.5569C13.5133 83.0105 11.3809 82.8808 9.41153 82.1833Z" fill="#B68B1D"/>
<path d="M20.1898 77.902C21.231 75.9095 21.4695 74.0105 20.9846 72.8586C20.9449 72.7575 20.8257 72.7341 20.6905 72.812C18.8986 73.8681 17.4532 75.4049 16.5256 77.2404C15.4843 79.225 15.2379 81.1319 15.7307 82.2837C15.7784 82.3849 15.8897 82.4005 16.0248 82.3304C17.8182 81.276 19.264 79.7387 20.1898 77.902Z" fill="#B68B1D"/>
<path d="M5.06364 66.4852C3.10832 65.3256 1.88426 63.8546 1.68555 62.5938C1.68555 62.4848 1.75708 62.407 1.9081 62.3992C4.00008 62.3747 6.05436 62.9452 7.82175 64.0414C9.77707 65.201 11.0011 66.6642 11.1998 67.9328C11.1998 68.0418 11.1283 68.1196 10.9773 68.1274C8.88634 68.1444 6.83418 67.5745 5.06364 66.4852Z" fill="#B68B1D"/>
<path d="M16.5329 64.62C17.9954 62.9 18.6472 61.1333 18.4406 59.8725C18.4406 59.7635 18.3134 59.7168 18.1624 59.7557C16.1762 60.4019 14.4215 61.5933 13.1071 63.188C11.6446 64.908 10.9928 66.6747 11.1995 67.9356C11.1995 68.0445 11.3267 68.0912 11.4777 68.0445C13.4619 67.3985 15.2159 66.2103 16.5329 64.62Z" fill="#B68B1D"/>
<path d="M6.92411 75.0695C4.79393 74.2913 3.34732 73.0071 2.91016 71.8085C2.91016 71.6996 2.94989 71.6062 3.10091 71.575C5.15718 71.2041 7.27901 71.4202 9.21327 72.1977C11.3435 72.976 12.7821 74.2523 13.1875 75.4587C13.1875 75.5676 13.1875 75.6533 13.0047 75.6922C10.9585 76.0531 8.84975 75.8372 6.92411 75.0695Z" fill="#B68B1D"/>
<path d="M17.8919 71.2959C19.0285 69.3579 19.3703 67.5056 18.9411 66.2993C18.9013 66.1981 18.7901 66.1669 18.647 66.237C16.8036 67.2056 15.2834 68.6725 14.2674 70.4631C13.1308 72.401 12.7969 74.2534 13.2182 75.4597C13.2182 75.5687 13.3772 75.592 13.5123 75.5298C15.3557 74.5577 16.8757 73.0883 17.8919 71.2959Z" fill="#B68B1D"/>
<path d="M5.21478 58.2433C3.62509 56.998 2.65538 55.5582 2.5918 54.4063C2.5918 54.3051 2.67923 54.2429 2.81435 54.2507C4.70113 54.4472 6.49108 55.1683 7.97289 56.3287C9.56258 57.5739 10.5243 59.0138 10.5879 60.1656C10.5879 60.2668 10.5085 60.3291 10.3654 60.3213C8.48138 60.1233 6.69437 59.4023 5.21478 58.2433Z" fill="#B68B1D"/>
<path d="M15.7138 57.7394C17.2081 56.3462 17.9871 54.8208 17.9314 53.6689C17.9314 53.5677 17.836 53.5133 17.7009 53.5366C15.8493 53.9122 14.147 54.801 12.7967 56.0972C11.2945 57.4903 10.5155 59.0158 10.5711 60.1676C10.5711 60.2688 10.6745 60.3233 10.8096 60.2999C12.6612 59.9243 14.3635 59.0355 15.7138 57.7394Z" fill="#B68B1D"/>
<path d="M5.78653 50.7484C4.35581 49.4253 3.61659 47.9777 3.66428 46.857C3.66428 46.7558 3.75966 46.7091 3.88684 46.7325C5.65251 47.0866 7.27735 47.9294 8.56849 49.1607C9.99921 50.4838 10.7384 51.9314 10.6907 53.0522C10.6907 53.1456 10.5954 53.1923 10.4682 53.1767C8.70281 52.8217 7.07819 51.9791 5.78653 50.7484Z" fill="#B68B1D"/>
<path d="M15.7943 51.2167C17.384 50.0259 18.2265 48.6561 18.2822 47.551C18.2822 47.4576 18.2027 47.4031 18.0676 47.4109C16.2761 47.5998 14.5785 48.2917 13.1793 49.4033C11.6293 50.5863 10.747 51.9639 10.6914 53.0613C10.6914 53.1547 10.7709 53.2091 10.898 53.2014C12.6908 53.0135 14.3905 52.3246 15.7943 51.2167Z" fill="#B68B1D"/>
<path d="M7.32971 42.8478C6.16129 41.2912 5.69233 39.7347 5.93874 38.6684C5.93874 38.575 6.05795 38.5439 6.17718 38.5828C7.85652 39.2361 9.30806 40.3493 10.3581 41.7893C11.5265 43.3459 11.9955 44.9025 11.7491 45.961C11.7491 46.0544 11.6298 46.0933 11.5027 46.0466C9.8261 45.3961 8.37707 44.2853 7.32971 42.8478Z" fill="#B68B1D"/>
<path d="M17.0975 45.0291C18.8303 44.134 19.943 42.9277 20.1974 41.8614C20.1974 41.768 20.1497 41.698 20.0225 41.6824C18.2244 41.5597 16.4281 41.946 14.8481 42.7954C13.1074 43.6982 11.9946 44.8968 11.7402 45.963C11.7402 46.0564 11.7879 46.1342 11.9231 46.142C13.7214 46.2679 15.5186 45.8813 17.0975 45.0291Z" fill="#B68B1D"/>
<path d="M9.91901 35.0967C8.9652 33.4078 8.7029 31.8123 9.12417 30.7772C9.12417 30.6838 9.25927 30.6683 9.3785 30.7227C10.9474 31.5882 12.2321 32.8732 13.0825 34.4274C14.0363 36.1163 14.2986 37.7196 13.8773 38.7469C13.8773 38.8403 13.7422 38.8636 13.623 38.8014C12.0506 37.9404 10.7647 36.6543 9.91901 35.0967Z" fill="#B68B1D"/>
<path d="M19.3156 38.5048C21.1597 37.8277 22.4235 36.7847 22.813 35.7496C22.8527 35.664 22.813 35.5862 22.662 35.5551C20.8957 35.2037 19.0635 35.3578 17.3842 35.9987C15.5322 36.668 14.2763 37.7187 13.8789 38.746C13.8789 38.8394 13.8789 38.9173 14.0379 38.9484C15.8042 39.2997 17.6364 39.1457 19.3156 38.5048Z" fill="#B68B1D"/>
<path d="M13.4246 28.1146C12.7808 26.4958 12.741 25.0015 13.21 24.1531C13.2497 24.0831 13.3372 24.0753 13.4405 24.1531C14.7425 25.107 15.7382 26.4061 16.3099 27.8967C16.9537 29.5156 16.9935 31.0099 16.5245 31.8582C16.4848 31.936 16.3894 31.936 16.294 31.8582C14.992 30.9043 13.9963 29.6052 13.4246 28.1146Z" fill="#B68B1D"/>
<path d="M21.413 32.2478C23.1457 31.8587 24.4016 31.0726 24.8785 30.1932C24.9182 30.1153 24.8785 30.0375 24.7593 29.9986C23.2237 29.4789 21.5672 29.4059 19.9902 29.7885C18.2574 30.1776 17.0016 30.9637 16.5247 31.8431C16.4849 31.9132 16.5247 31.9988 16.6439 32.0377C18.1802 32.5534 19.8355 32.6264 21.413 32.2478Z" fill="#B68B1D"/>
<path d="M17.7804 21.6636C17.4069 19.9669 17.6135 18.5504 18.2256 17.7254C18.2732 17.6554 18.3686 17.6632 18.4561 17.7254C19.5914 18.8791 20.3663 20.3265 20.6896 21.8971C21.0632 23.5937 20.8565 25.0102 20.2445 25.8352C20.1968 25.9052 20.1014 25.8975 20.014 25.8352C18.8772 24.6825 18.102 23.2347 17.7804 21.6636Z" fill="#B68B1D"/>
<path d="M24.9812 27.0499C26.7537 26.9409 28.1605 26.3572 28.7408 25.5711C28.7885 25.5011 28.7408 25.4155 28.6533 25.3532C27.2219 24.6001 25.5998 24.2652 23.9797 24.3881C22.2072 24.4971 20.84 25.0808 20.22 25.8669C20.1723 25.9369 20.22 26.0225 20.3075 26.077C21.7381 26.8328 23.3603 27.1704 24.9812 27.0499Z" fill="#B68B1D"/>
<path d="M21.8116 16.8401C21.6694 16.2404 21.6532 15.6187 21.7639 15.0126C21.8746 14.4066 22.1098 13.8288 22.4554 13.3145C22.5031 13.2522 22.5905 13.2678 22.6621 13.3145C23.6094 14.4217 24.211 15.7727 24.3948 17.2059C24.5351 17.8058 24.5504 18.4272 24.4398 19.033C24.3291 19.6388 24.0949 20.2165 23.751 20.7316C23.6954 20.7939 23.6159 20.7783 23.5443 20.7316C22.5954 19.6253 21.9936 18.2738 21.8116 16.8401Z" fill="#B68B1D"/>
<path d="M27.9623 22.0828C28.5887 22.1379 29.22 22.0683 29.8183 21.8784C30.4166 21.6885 30.9694 21.3821 31.4437 20.9776C31.4914 20.9232 31.4437 20.8376 31.3801 20.7831C30.1365 20.0154 28.6931 19.6155 27.2231 19.6312C26.5979 19.5768 25.968 19.6466 25.3711 19.8365C24.7742 20.0264 24.2227 20.3325 23.7496 20.7364C23.694 20.7986 23.7496 20.8765 23.8053 20.9309C25.0489 21.6986 26.4923 22.0986 27.9623 22.0828Z" fill="#B68B1D"/>
<path d="M26.3024 12.2611C26.1883 11.6563 26.1998 11.035 26.3364 10.4346C26.473 9.8342 26.7317 9.2669 27.0973 8.76663C27.1529 8.71215 27.2324 8.72771 27.3039 8.80554C28.1931 9.94989 28.7307 11.3187 28.8539 12.7515C28.9699 13.3563 28.9593 13.9779 28.8227 14.5786C28.686 15.1793 28.4262 15.7465 28.059 16.246C28.0034 16.3005 27.9239 16.2849 27.8524 16.2071C26.9585 15.0653 26.4203 13.6951 26.3024 12.2611Z" fill="#B68B1D"/>
<path d="M32.1995 17.7884C32.8222 17.8723 33.4558 17.8321 34.0622 17.6703C34.6687 17.5084 35.2355 17.2283 35.7286 16.8466C35.7763 16.7844 35.7286 16.7066 35.673 16.6443C34.4672 15.824 33.0466 15.3595 31.5795 15.3056C30.9563 15.2246 30.3228 15.2669 29.7166 15.43C29.1104 15.5931 28.5438 15.8737 28.0504 16.2551C27.9948 16.3096 28.0504 16.3952 28.106 16.4575C29.3118 17.2766 30.7328 17.7386 32.1995 17.7884Z" fill="#B68B1D"/>
<path d="M36.1186 10.9472C37.295 9.87319 37.8434 8.65906 37.7083 7.70955C37.7083 7.62394 37.6129 7.57724 37.5016 7.59281C36.0091 7.80071 34.6199 8.45908 33.5274 9.47627C33.0265 9.86209 32.6227 10.3553 32.3471 10.918C32.0715 11.4806 31.9314 12.0977 31.9377 12.7217C31.9377 12.7996 32.0331 12.8463 32.1523 12.8385C33.6427 12.6259 35.0287 11.965 36.1186 10.9472Z" fill="#B68B1D"/>
<path d="M108.313 11.7109C110.946 13.846 113.414 16.169 115.697 18.6611C117.939 21.1847 119.985 23.8696 121.817 26.693C123.607 29.5437 125.17 32.5257 126.491 35.6122C127.767 38.7099 128.813 41.8936 129.622 45.1384C132.734 58.268 131.294 72.0381 125.53 84.278C119.766 96.5179 110.006 106.532 97.7889 112.741L95.4838 113.838C94.7266 114.224 93.9462 114.564 93.147 114.857L90.7624 115.768C89.9851 116.089 89.1888 116.365 88.3779 116.593C86.7405 117.052 85.0952 117.566 83.4657 117.978C81.842 118.385 80.2591 118.935 78.7364 119.621C75.7198 121.001 73.1387 123.152 71.2649 125.847C69.4408 128.532 68.2415 131.577 67.7516 134.766L65.4863 134.252C66.4341 130.923 68.0203 127.801 70.16 125.053C70.6992 124.375 71.2777 123.728 71.8928 123.115C72.5232 122.522 73.1866 121.963 73.8799 121.442C75.2562 120.396 76.7626 119.525 78.3628 118.85C79.9433 118.173 81.5818 117.634 83.2591 117.239C84.9203 116.85 86.51 116.352 88.1474 115.908C88.9579 115.697 89.7543 115.437 90.5319 115.13L92.9164 114.25C93.7101 113.965 94.4852 113.632 95.2374 113.254L97.5186 112.18C109.663 106.095 119.393 96.2236 125.171 84.1229C128.001 78.0755 129.761 71.6015 130.378 64.977C130.703 61.6845 130.782 58.3732 130.616 55.0694C130.377 51.764 129.885 48.4809 129.146 45.2474C125.988 32.2532 118.481 20.667 107.82 12.3336L108.313 11.7109Z" fill="#B68B1D"/>
<path d="M88.4274 123.19C90.7007 124.677 92.9262 125.214 94.4285 124.809C94.5636 124.809 94.6034 124.646 94.5318 124.475C93.5092 122.248 91.8536 120.357 89.7628 119.027C87.4974 117.54 85.2639 117.003 83.7617 117.408C83.6345 117.408 83.5868 117.571 83.6584 117.735C84.6813 119.963 86.3366 121.857 88.4274 123.19Z" fill="#B68B1D"/>
<path d="M84.7071 110.085C85.8676 107.672 87.497 106.084 88.9913 105.664C89.1264 105.664 89.2298 105.726 89.2615 105.898C89.5451 108.332 89.1122 110.794 88.0137 112.996C86.8532 115.408 85.2317 116.996 83.7294 117.416C83.6023 117.416 83.491 117.354 83.4671 117.183C83.1766 114.749 83.607 112.285 84.7071 110.085Z" fill="#B68B1D"/>
<path d="M97.035 119.587C99.2685 120.661 101.343 120.887 102.655 120.365C102.766 120.319 102.79 120.194 102.71 120.054C101.501 118.162 99.763 116.65 97.7027 115.696C95.4771 114.621 93.3946 114.396 92.0911 114.917C91.9718 114.964 91.956 115.088 92.0355 115.236C93.2439 117.124 94.9787 118.634 97.035 119.587Z" fill="#B68B1D"/>
<path d="M92.0752 108.187C92.8303 105.852 94.11 104.241 95.4136 103.689C95.5249 103.642 95.6282 103.689 95.6759 103.868C96.2363 106.031 96.148 108.306 95.4215 110.421C94.6664 112.756 93.3946 114.367 92.0911 114.912C91.9719 114.958 91.8685 114.912 91.8209 114.733C91.2606 112.572 91.3489 110.3 92.0752 108.187Z" fill="#B68B1D"/>
<path d="M104.277 115.89C106.606 116.738 108.696 116.762 109.944 116.092C110.055 116.038 110.063 115.913 109.944 115.781C108.55 114.016 106.669 112.679 104.523 111.929C102.194 111.08 100.096 111.057 98.856 111.718C98.7447 111.781 98.7368 111.905 98.856 112.038C100.25 113.803 102.131 115.139 104.277 115.89Z" fill="#B68B1D"/>
<path d="M98.1798 105.025C98.6965 102.644 99.7695 100.9 101.041 100.231C101.145 100.169 101.256 100.231 101.319 100.379C102.093 102.477 102.237 104.749 101.733 106.924C101.224 109.306 100.143 111.049 98.8793 111.719C98.768 111.781 98.6568 111.719 98.5932 111.571C97.8195 109.472 97.6761 107.201 98.1798 105.025Z" fill="#B68B1D"/>
<path d="M111.16 111.106C113.592 111.636 115.667 111.371 116.803 110.546C116.907 110.468 116.899 110.344 116.803 110.227C115.184 108.652 113.132 107.571 110.898 107.114C108.465 106.585 106.391 106.849 105.254 107.674C105.151 107.744 105.159 107.869 105.254 107.993C106.878 109.563 108.928 110.643 111.16 111.106Z" fill="#B68B1D"/>
<path d="M103.592 101.153C103.758 98.7243 104.609 96.8486 105.746 96.0159C105.841 95.938 105.96 96.0159 106.048 96.1248C107.108 98.0995 107.569 100.33 107.375 102.553C107.208 104.982 106.358 106.85 105.229 107.69C105.126 107.76 105.006 107.69 104.919 107.573C103.86 105.601 103.399 103.373 103.592 101.153Z" fill="#B68B1D"/>
<path d="M124.6 97.4066C127.08 97.2276 128.987 96.387 129.838 95.2663C129.909 95.1729 129.838 95.0561 129.719 94.9705C127.698 93.9455 125.42 93.5055 123.153 93.7019C120.673 93.8887 118.766 94.7293 117.915 95.8422C117.844 95.9356 117.915 96.0601 118.034 96.138C120.054 97.1659 122.333 97.6061 124.6 97.4066Z" fill="#B68B1D"/>
<path d="M114.419 90.0461C113.863 87.7113 114.117 85.641 114.96 84.5203C115.031 84.4269 115.158 84.4347 115.285 84.5203C116.887 86.1081 117.991 88.1122 118.465 90.2952C119.021 92.6301 118.759 94.7003 117.924 95.821C117.853 95.9144 117.718 95.9066 117.599 95.821C115.997 94.2332 114.893 92.2291 114.419 90.0461Z" fill="#B68B1D"/>
<path d="M118.839 104.383C121.319 104.46 123.306 103.822 124.275 102.826C124.355 102.74 124.323 102.616 124.188 102.522C122.302 101.29 120.096 100.612 117.829 100.569C115.341 100.491 113.354 101.129 112.393 102.125C112.305 102.211 112.345 102.336 112.472 102.429C114.361 103.66 116.57 104.338 118.839 104.383Z" fill="#B68B1D"/>
<path d="M109.513 95.9895C109.219 93.5768 109.704 91.5844 110.658 90.5415C110.737 90.4481 110.864 90.4714 110.976 90.5959C112.393 92.3416 113.27 94.4482 113.503 96.6666C113.789 99.0871 113.313 101.079 112.359 102.115C112.271 102.2 112.144 102.177 112.041 102.06C110.623 100.314 109.746 98.2079 109.513 95.9895Z" fill="#B68B1D"/>
<path d="M128.789 89.8582C131.015 89.3446 132.62 88.3017 133.224 87.1809C133.272 87.0797 133.224 86.9786 133.073 86.9241C131.088 86.2807 128.957 86.2051 126.929 86.7062C124.703 87.2198 123.098 88.2627 122.494 89.3835C122.438 89.4847 122.494 89.5858 122.645 89.6403C124.63 90.2841 126.761 90.3597 128.789 89.8582Z" fill="#B68B1D"/>
<path d="M118.456 84.6425C117.605 82.5645 117.534 80.681 118.13 79.5447C118.186 79.4514 118.297 79.4358 118.424 79.5447C120.114 80.7548 121.411 82.4169 122.16 84.3312C123.01 86.4092 123.082 88.2849 122.486 89.4212C122.43 89.5224 122.311 89.5302 122.184 89.4212C120.503 88.2071 119.21 86.5496 118.456 84.6425Z" fill="#B68B1D"/>
<path d="M132.096 82.7369C134.258 82.0209 135.76 80.8534 136.261 79.6704C136.301 79.5693 136.261 79.4759 136.086 79.4292C134.048 78.9631 131.915 79.0792 129.942 79.7638C127.78 80.4799 126.278 81.6551 125.785 82.8303C125.737 82.9392 125.785 83.0326 125.96 83.0716C127.996 83.5374 130.126 83.4213 132.096 82.7369Z" fill="#B68B1D"/>
<path d="M121.326 78.4566C120.277 76.4642 120.038 74.5652 120.531 73.4133C120.531 73.3122 120.69 73.2888 120.825 73.3666C122.619 74.4204 124.065 75.9578 124.99 77.7951C126.032 79.7797 126.278 81.6865 125.785 82.8306C125.738 82.9396 125.626 82.9551 125.491 82.8851C123.695 81.8334 122.249 80.2954 121.326 78.4566Z" fill="#B68B1D"/>
<path d="M136.443 67.0399C138.398 65.8802 139.622 64.4092 139.821 63.1484C139.821 63.0394 139.749 62.9616 139.598 62.9538C137.508 62.9301 135.454 63.4977 133.685 64.5882C131.729 65.7557 130.505 67.2189 130.307 68.4797C130.307 68.5886 130.378 68.6665 130.529 68.6743C132.619 68.6936 134.671 68.1264 136.443 67.0399Z" fill="#B68B1D"/>
<path d="M124.974 65.1865C123.512 63.4664 122.86 61.6997 123.067 60.4389C123.067 60.3299 123.194 60.2832 123.345 60.3221C125.332 60.9663 127.087 62.158 128.4 63.7544C129.863 65.4666 130.514 67.2411 130.308 68.502C130.308 68.6109 130.181 68.6576 130.03 68.6109C128.045 67.9649 126.291 66.7767 124.974 65.1865Z" fill="#B68B1D"/>
<path d="M134.591 75.6244C136.713 74.8461 138.159 73.5619 138.565 72.3633C138.605 72.2544 138.565 72.161 138.382 72.1299C136.323 71.7587 134.199 71.9749 132.262 72.7525C130.132 73.5308 128.693 74.8072 128.287 76.0135C128.248 76.1147 128.287 76.2081 128.47 76.247C130.529 76.6142 132.653 76.3982 134.591 75.6244Z" fill="#B68B1D"/>
<path d="M123.615 71.8467C122.478 69.9087 122.145 68.0564 122.566 66.85C122.606 66.7489 122.725 66.7177 122.86 66.7878C124.703 67.7563 126.224 69.2233 127.24 71.0139C128.376 72.9518 128.71 74.8042 128.289 76.0105C128.249 76.1117 128.13 76.1428 127.995 76.0805C126.153 75.1063 124.633 73.6375 123.615 71.8467Z" fill="#B68B1D"/>
<path d="M136.301 58.798C137.93 57.5527 138.852 56.1129 138.916 54.961C138.916 54.8598 138.836 54.7976 138.693 54.8053C136.815 55.0087 135.035 55.7293 133.558 56.8834C131.929 58.1286 131.007 59.5685 130.943 60.7203C130.943 60.8215 131.023 60.8838 131.166 60.876C133.044 60.6726 134.824 59.9521 136.301 58.798Z" fill="#B68B1D"/>
<path d="M125.793 58.2824C124.298 56.8892 123.519 55.3716 123.575 54.2197C123.575 54.1185 123.67 54.064 123.806 54.0874C125.657 54.4563 127.361 55.3367 128.718 56.6246C130.212 58.0178 130.991 59.5432 130.935 60.6951C130.935 60.7962 130.84 60.8507 130.705 60.8274C128.852 60.4571 127.147 59.5738 125.793 58.2824Z" fill="#B68B1D"/>
<path d="M135.721 51.3001C137.152 49.977 137.891 48.5294 137.843 47.4087C137.843 47.3075 137.748 47.2608 137.62 47.2764C135.856 47.6389 134.233 48.4835 132.939 49.7124C131.516 51.0355 130.769 52.4831 130.817 53.6039C130.817 53.6973 130.912 53.7439 131.039 53.7284C132.805 53.3734 134.429 52.5308 135.721 51.3001Z" fill="#B68B1D"/>
<path d="M125.712 51.7675C124.163 50.5767 123.288 49.2069 123.225 48.1018C123.225 48.0084 123.304 47.9539 123.439 47.9617C125.231 48.1506 126.928 48.8425 128.328 49.9541C129.877 51.1371 130.76 52.5069 130.815 53.612C130.815 53.7054 130.736 53.7599 130.609 53.7521C128.816 53.563 127.117 52.8742 125.712 51.7675Z" fill="#B68B1D"/>
<path d="M134.179 43.3942C135.348 41.8376 135.817 40.281 135.57 39.2148C135.57 39.1214 135.451 39.0825 135.332 39.1292C133.659 39.7853 132.215 40.9017 131.175 42.3435C130.007 43.9001 129.53 45.4566 129.776 46.5151C129.776 46.6085 129.895 46.6474 130.022 46.6007C131.693 45.9428 133.135 44.8301 134.179 43.3942Z" fill="#B68B1D"/>
<path d="M124.416 45.5814C122.676 44.6864 121.563 43.4801 121.309 42.4138C121.309 42.3204 121.356 42.2504 121.483 42.2348C123.282 42.1071 125.08 42.4938 126.658 43.3477C128.399 44.2428 129.511 45.4491 129.766 46.5154C129.766 46.6088 129.718 46.6866 129.591 46.6944C127.792 46.822 125.995 46.4354 124.416 45.5814Z" fill="#B68B1D"/>
<path d="M131.587 35.6514C132.541 33.9625 132.803 32.367 132.382 31.3319C132.382 31.2385 132.247 31.223 132.135 31.2774C130.56 32.1379 129.272 33.424 128.423 34.9821C127.469 36.671 127.215 38.2665 127.628 39.3016C127.628 39.395 127.764 39.4105 127.883 39.3561C129.453 38.4927 130.739 37.2072 131.587 35.6514Z" fill="#B68B1D"/>
<path d="M122.193 39.0577C120.349 38.3806 119.093 37.3377 118.695 36.3026C118.695 36.217 118.695 36.1313 118.854 36.1002C120.622 35.7558 122.453 35.9124 124.132 36.5516C125.976 37.221 127.24 38.2716 127.629 39.299C127.629 39.3924 127.629 39.4702 127.478 39.5013C125.709 39.8489 123.876 39.695 122.193 39.0577Z" fill="#B68B1D"/>
<path d="M128.081 28.6693C128.732 27.0505 128.772 25.5562 128.303 24.7078C128.256 24.6378 128.168 24.63 128.065 24.7078C126.763 25.66 125.769 26.9599 125.203 28.4514C124.552 30.0702 124.512 31.5646 124.981 32.4129C125.021 32.4829 125.116 32.4907 125.211 32.4129C126.516 31.4615 127.512 30.1616 128.081 28.6693Z" fill="#B68B1D"/>
<path d="M120.094 32.8025C118.361 32.4134 117.105 31.6273 116.628 30.7479C116.588 30.67 116.628 30.5922 116.747 30.5533C118.283 30.0336 119.939 29.9606 121.516 30.3431C123.249 30.7245 124.505 31.5184 124.982 32.3978C125.022 32.4679 124.982 32.5535 124.871 32.5924C123.332 33.1079 121.674 33.1808 120.094 32.8025Z" fill="#B68B1D"/>
<path d="M123.725 22.2183C124.098 20.5216 123.892 19.1051 123.288 18.2801C123.232 18.2101 123.137 18.2179 123.049 18.2801C121.921 19.4357 121.154 20.8832 120.839 22.4518C120.474 24.1484 120.672 25.5649 121.285 26.3899C121.332 26.4599 121.428 26.4522 121.515 26.3899C122.646 25.2364 123.413 23.788 123.725 22.2183Z" fill="#B68B1D"/>
<path d="M116.524 27.5694C114.752 27.4605 113.385 26.8767 112.772 26.0907C112.717 26.0206 112.772 25.935 112.852 25.8727C114.283 25.1197 115.906 24.7847 117.526 24.9077C119.298 25.0166 120.665 25.6003 121.285 26.3864C121.341 26.4565 121.285 26.5421 121.206 26.5966C119.772 27.3521 118.148 27.6897 116.524 27.5694Z" fill="#B68B1D"/>
<path d="M119.697 17.3909C119.839 16.7912 119.855 16.1695 119.745 15.5634C119.634 14.9573 119.399 14.3796 119.053 13.8653C119.006 13.803 118.918 13.8186 118.847 13.8653C117.901 14.9734 117.299 16.324 117.114 17.7567C116.975 18.3567 116.961 18.9778 117.072 19.5833C117.182 20.1888 117.415 20.7665 117.758 21.2824C117.813 21.3369 117.893 21.3291 117.964 21.2824C118.916 20.178 119.519 18.8256 119.697 17.3909Z" fill="#B68B1D"/>
<path d="M113.543 22.6375C112.918 22.6919 112.288 22.6221 111.691 22.4322C111.095 22.2423 110.543 21.9362 110.07 21.5323C110.014 21.4701 110.07 21.3922 110.126 21.3378C111.369 20.5701 112.813 20.1701 114.283 20.1859C114.908 20.1315 115.538 20.2013 116.135 20.3912C116.731 20.5811 117.283 20.8872 117.756 21.2911C117.812 21.3455 117.756 21.4312 117.7 21.4856C116.457 22.2533 115.013 22.6532 113.543 22.6375Z" fill="#B68B1D"/>
<path d="M115.213 12.8236C115.326 12.2187 115.313 11.5979 115.177 10.9977C115.04 10.3975 114.782 9.83021 114.418 9.32913C114.363 9.27465 114.283 9.29021 114.212 9.36804C113.323 10.5124 112.785 11.8812 112.662 13.314C112.55 13.9189 112.562 14.5397 112.698 15.1399C112.835 15.7401 113.093 16.3074 113.457 16.8085C113.512 16.863 113.592 16.8474 113.663 16.7696C114.554 15.6259 115.091 14.2567 115.213 12.8236Z" fill="#B68B1D"/>
<path d="M109.308 18.3395C108.686 18.4222 108.053 18.3806 107.448 18.2174C106.843 18.0543 106.277 17.7728 105.786 17.39C105.731 17.3355 105.747 17.2577 105.834 17.1954C107.04 16.3752 108.46 15.9106 109.927 15.8568C110.551 15.7753 111.184 15.8174 111.791 15.9805C112.397 16.1436 112.963 16.4245 113.457 16.8063C113.512 16.8608 113.457 16.9386 113.409 17.0087C112.2 17.8275 110.777 18.2895 109.308 18.3395Z" fill="#B68B1D"/>
<path d="M105.389 11.4824C104.22 10.4084 103.664 9.19422 103.799 8.24471C103.799 8.1591 103.895 8.1124 104.006 8.12797C105.5 8.32976 106.891 8.98899 107.98 10.0114C108.48 10.396 108.884 10.8879 109.159 11.4493C109.435 12.0106 109.575 12.6263 109.57 13.2491C109.57 13.3347 109.474 13.3814 109.355 13.3736C107.865 13.161 106.479 12.5001 105.389 11.4824Z" fill="#B68B1D"/>
</svg>
