<svg width="141" height="140" viewBox="0 0 141 140" fill="none" xmlns="http://www.w3.org/2000/svg">
<path d="M65.3584 125.309C66.2071 124.31 66.7933 123.113 67.0637 121.827C67.334 120.541 67.2798 119.208 66.9059 117.949C66.8736 117.842 66.8119 117.747 66.7279 117.674C66.644 117.602 66.5412 117.555 66.4317 117.539C65.14 117.359 63.8241 117.508 62.6048 117.974C61.3856 118.439 60.3022 119.206 59.4544 120.203C58.6065 121.2 58.0214 122.395 57.7527 123.679C57.4841 124.963 57.5407 126.294 57.9171 127.55C57.9494 127.657 58.0111 127.752 58.0951 127.825C58.179 127.897 58.2818 127.944 58.3914 127.96C59.6806 128.144 60.995 127.997 62.2129 127.534C63.4308 127.07 64.5127 126.305 65.3584 125.309Z" fill="#B68B1D"/>
<path d="M7.5008 33.7396C8.01784 34.9438 8.828 35.9976 9.85654 36.8038C10.8851 37.6099 12.0989 38.1424 13.3858 38.3521C13.4937 38.369 13.6042 38.3547 13.7043 38.3107C13.8044 38.2668 13.8899 38.195 13.951 38.1039C14.6777 37.0133 15.1207 35.7565 15.2393 34.4488C15.358 33.1411 15.1485 31.8244 14.6301 30.6194C14.1116 29.4143 13.3009 28.3595 12.2721 27.5516C11.2433 26.7437 10.0294 26.2086 8.74167 25.9953C8.63385 25.9782 8.52342 25.9924 8.42332 26.0362C8.32322 26.08 8.23762 26.1516 8.17656 26.2427C7.45002 27.3358 7.00748 28.5948 6.88942 29.9045C6.77137 31.2142 6.98157 32.5327 7.5008 33.7396Z" fill="#B68B1D"/>
<path d="M3.75178 48.0256C4.58343 49.0337 5.65447 49.8144 6.8657 50.2952C8.07693 50.7761 9.38917 50.9416 10.6809 50.7764C10.7904 50.7619 10.8935 50.7163 10.9783 50.6451C11.0631 50.5738 11.1261 50.4798 11.1598 50.374C11.5513 49.1202 11.6242 47.7876 11.3718 46.4981C11.1194 45.2086 10.5498 44.0033 9.71506 42.9924C8.88326 41.9845 7.8122 41.204 6.60101 40.7232C5.38982 40.2423 4.07765 40.0767 2.78595 40.2416C2.67713 40.2569 2.57484 40.3029 2.49092 40.3743C2.40699 40.4456 2.34487 40.5394 2.31174 40.6448C1.9196 41.8982 1.84594 43.2304 2.09751 44.5198C2.34907 45.8091 2.91782 47.0145 3.75178 48.0256Z" fill="#B68B1D"/>
<path d="M2.86032 61.6457C3.86749 62.4755 5.06658 63.0359 6.34642 63.275C7.62625 63.5141 8.94536 63.4242 10.1814 63.0136C10.2864 62.9787 10.3793 62.9145 10.4493 62.8284C10.5192 62.7424 10.5634 62.6381 10.5766 62.5277C10.7255 61.2224 10.5464 59.9004 10.056 58.6827C9.56552 57.4651 8.77927 56.3907 7.76925 55.558C6.7619 54.7277 5.56243 54.1669 4.28214 53.9277C3.00185 53.6884 1.68223 53.7784 0.44576 54.1894C0.340811 54.2245 0.247938 54.2889 0.177969 54.375C0.108 54.4612 0.0638197 54.5656 0.0505794 54.6761C-0.0978344 55.9816 0.0816122 57.3037 0.572488 58.5213C1.06336 59.7389 1.84998 60.8132 2.86032 61.6457Z" fill="#B68B1D"/>
<path d="M5.04589 75.4024C6.20334 76.0025 7.49269 76.2986 8.79428 76.2633C10.0959 76.228 11.3675 75.8624 12.4911 75.2004C12.5847 75.1447 12.6607 75.0635 12.7102 74.966C12.7598 74.8686 12.7808 74.7591 12.7709 74.6501C12.6529 73.3433 12.2091 72.0875 11.4808 70.999C10.7524 69.9105 9.76295 69.0245 8.60394 68.4229C7.44494 67.8213 6.15384 67.5236 4.85014 67.5573C3.54643 67.591 2.27223 67.955 1.14546 68.6157C1.05184 68.6714 0.975858 68.7527 0.92633 68.8501C0.876803 68.9475 0.855767 69.057 0.865668 69.166C0.98676 70.4748 1.43309 71.732 2.16358 72.8218C2.89406 73.9116 3.88524 74.799 5.04589 75.4024Z" fill="#B68B1D"/>
<path d="M9.9987 89.4528C11.2858 89.6595 12.6039 89.5359 13.8308 89.0934C15.0577 88.6509 16.1537 87.9038 17.0171 86.9215C17.0887 86.8394 17.1358 86.7387 17.1528 86.6309C17.1699 86.5231 17.1563 86.4126 17.1135 86.3123C16.5982 85.1068 15.7886 84.0519 14.7597 83.2456C13.7308 82.4392 12.5162 81.9074 11.2284 81.6997C9.94072 81.492 8.62172 81.6151 7.39391 82.0575C6.16611 82.4999 5.06931 83.2473 4.20535 84.2303C4.13376 84.3123 4.08672 84.4131 4.06965 84.5209C4.05259 84.6287 4.0662 84.7391 4.10893 84.8395C4.62622 86.0445 5.43705 87.0989 6.46649 87.9053C7.49593 88.7116 8.71076 89.2438 9.9987 89.4528Z" fill="#B68B1D"/>
<path d="M16.9182 100.343C18.221 100.394 19.5155 100.113 20.6817 99.5268C21.8479 98.9403 22.8481 98.0671 23.5896 96.9881C23.6511 96.8981 23.6859 96.7925 23.6901 96.6834C23.6943 96.5743 23.6677 96.4662 23.6133 96.3717C22.959 95.2367 22.0302 94.2864 20.9132 93.6092C19.7962 92.932 18.5272 92.5499 17.2241 92.4982C15.921 92.4466 14.6261 92.7271 13.4596 93.3138C12.2931 93.9005 11.2929 94.7743 10.5518 95.854C10.4905 95.9441 10.4558 96.0497 10.4516 96.1588C10.4474 96.2678 10.4739 96.3758 10.5281 96.4704C11.1831 97.605 12.1122 98.5548 13.2292 99.2319C14.3463 99.9089 15.6152 100.291 16.9182 100.343Z" fill="#B68B1D"/>
<path d="M26.2184 109.57C27.5171 109.449 28.7644 109 29.8451 108.266C30.9259 107.531 31.8051 106.534 32.4014 105.367C32.4509 105.27 32.4719 105.16 32.4621 105.052C32.4523 104.943 32.4121 104.839 32.3461 104.752C31.55 103.713 30.5058 102.893 29.3104 102.368C28.1151 101.844 26.8074 101.631 25.5087 101.751C24.21 101.871 22.9625 102.319 21.882 103.054C20.8015 103.789 19.923 104.786 19.3281 105.954C19.2789 106.051 19.2581 106.161 19.268 106.269C19.278 106.378 19.3182 106.482 19.3842 106.569C20.1803 107.607 21.2241 108.427 22.4187 108.951C23.6134 109.476 24.9203 109.689 26.2184 109.57Z" fill="#B68B1D"/>
<path d="M37.9787 117.465C39.2121 117.035 40.3182 116.3 41.195 115.327C42.0718 114.355 42.6912 113.175 42.9959 111.898C43.021 111.792 43.0156 111.681 42.9803 111.577C42.9451 111.474 42.8814 111.383 42.7967 111.315C41.7765 110.497 40.5675 109.952 39.2821 109.73C37.9966 109.508 36.6762 109.616 35.4433 110.044C34.2104 110.472 33.105 111.207 32.2295 112.18C31.3541 113.153 30.737 114.332 30.4354 115.609C30.4104 115.715 30.4158 115.826 30.451 115.93C30.4863 116.033 30.5499 116.124 30.6346 116.193C31.653 117.01 32.8603 117.556 34.1442 117.778C35.4281 118 36.7471 117.893 37.9787 117.465Z" fill="#B68B1D"/>
<path d="M50.9863 122.954C52.0768 122.232 52.9696 121.246 53.5829 120.087C54.1961 118.927 54.5102 117.631 54.4963 116.318C54.4946 116.207 54.4617 116.099 54.4014 116.006C54.3412 115.913 54.2559 115.839 54.1556 115.793C52.9661 115.256 51.6613 115.03 50.3618 115.134C49.0623 115.239 47.8099 115.671 46.7204 116.392C45.6309 117.112 44.7394 118.097 44.1282 119.256C43.5169 120.414 43.2058 121.709 43.2234 123.021C43.2251 123.132 43.2579 123.24 43.318 123.333C43.3781 123.426 43.4631 123.5 43.5632 123.546C44.7499 124.084 46.0526 124.312 47.3503 124.209C48.6479 124.106 49.8987 123.674 50.9863 122.954Z" fill="#B68B1D"/>
<path d="M74.646 125.309C73.7973 124.31 73.2111 123.113 72.9407 121.827C72.6704 120.541 72.7246 119.208 73.0985 117.949C73.1307 117.842 73.1925 117.747 73.2765 117.674C73.3604 117.602 73.4632 117.555 73.5727 117.539C74.8644 117.359 76.1803 117.508 77.3996 117.974C78.6188 118.439 79.7022 119.206 80.55 120.203C81.3979 121.199 81.983 122.395 82.2516 123.679C82.5203 124.963 82.4637 126.294 82.0872 127.55C82.055 127.657 81.9933 127.752 81.9093 127.825C81.8254 127.897 81.7226 127.944 81.613 127.96C80.3238 128.144 79.0093 127.997 77.7914 127.534C76.5735 127.07 75.4916 126.305 74.646 125.309Z" fill="#B68B1D"/>
<path d="M132.503 33.7396C131.986 34.9438 131.176 35.9976 130.147 36.8038C129.119 37.6099 127.905 38.1424 126.618 38.3521C126.51 38.369 126.4 38.3547 126.3 38.3107C126.2 38.2668 126.114 38.195 126.053 38.1039C125.326 37.0133 124.883 35.7565 124.765 34.4488C124.646 33.1411 124.856 31.8244 125.374 30.6194C125.892 29.4143 126.703 28.3595 127.732 27.5516C128.761 26.7437 129.975 26.2086 131.262 25.9953C131.37 25.9782 131.481 25.9924 131.581 26.0362C131.681 26.08 131.766 26.1516 131.827 26.2427C132.554 27.3358 132.997 28.5948 133.115 29.9045C133.233 31.2142 133.022 32.5327 132.503 33.7396Z" fill="#B68B1D"/>
<path d="M136.25 48.0276C135.418 49.0357 134.347 49.8164 133.136 50.2972C131.925 50.7781 130.613 50.9436 129.321 50.7784C129.211 50.7639 129.108 50.7183 129.023 50.6471C128.939 50.5758 128.876 50.4818 128.842 50.376C128.448 49.1248 128.373 47.794 128.624 46.5059C128.875 45.2179 129.443 44.014 130.278 43.005C131.112 41.996 132.185 41.2143 133.398 40.7318C134.611 40.2492 135.925 40.0814 137.22 40.2436C137.329 40.2589 137.431 40.3049 137.515 40.3763C137.599 40.4476 137.661 40.5414 137.694 40.6468C138.086 41.9005 138.159 43.2329 137.906 44.5223C137.654 45.8117 137.085 47.0169 136.25 48.0276Z" fill="#B68B1D"/>
<path d="M137.143 61.6449C136.136 62.4747 134.937 63.0351 133.657 63.2742C132.377 63.5134 131.057 63.4234 129.821 63.0128C129.716 62.9778 129.624 62.9136 129.554 62.8276C129.484 62.7415 129.439 62.6372 129.426 62.5269C129.274 61.2239 129.45 59.9034 129.939 58.687C130.427 57.4707 131.212 56.3977 132.222 55.5669C133.231 54.7362 134.432 54.1745 135.713 53.9336C136.995 53.6927 138.316 53.7804 139.555 54.1886C139.66 54.2237 139.753 54.2881 139.823 54.3743C139.893 54.4604 139.937 54.5648 139.951 54.6753C140.099 55.9806 139.92 57.3025 139.43 58.5202C138.939 59.7378 138.153 60.8122 137.143 61.6449Z" fill="#B68B1D"/>
<path d="M134.957 75.4003C133.799 76.0009 132.509 76.2973 131.207 76.262C129.905 76.2267 128.633 75.8608 127.509 75.1983C127.415 75.1426 127.339 75.0613 127.29 74.9639C127.24 74.8665 127.219 74.7569 127.229 74.648C127.347 73.3407 127.79 72.0844 128.519 70.9955C129.248 69.9066 130.237 69.0203 131.397 68.4186C132.556 67.8169 133.848 67.5193 135.152 67.5534C136.456 67.5875 137.731 67.9521 138.858 68.6135C138.951 68.6692 139.027 68.7505 139.077 68.8479C139.126 68.9453 139.147 69.0549 139.137 69.1639C139.016 70.4727 138.57 71.7299 137.839 72.8197C137.109 73.9095 136.118 74.7969 134.957 75.4003Z" fill="#B68B1D"/>
<path d="M130.003 89.4528C128.716 89.6595 127.398 89.5359 126.171 89.0934C124.944 88.6509 123.848 87.9038 122.985 86.9215C122.913 86.8394 122.866 86.7387 122.849 86.6309C122.832 86.5231 122.845 86.4126 122.888 86.3123C123.404 85.1068 124.213 84.0519 125.242 83.2456C126.271 82.4392 127.486 81.9074 128.773 81.6997C130.061 81.492 131.38 81.6151 132.608 82.0575C133.836 82.4999 134.932 83.2473 135.796 84.2303C135.868 84.3123 135.915 84.4131 135.932 84.5209C135.949 84.6287 135.936 84.7391 135.893 84.8395C135.376 86.0445 134.565 87.0989 133.535 87.9053C132.506 88.7116 131.291 89.2438 130.003 89.4528Z" fill="#B68B1D"/>
<path d="M123.089 100.343C121.786 100.394 120.492 100.113 119.326 99.5268C118.159 98.9403 117.159 98.0671 116.418 96.9881C116.356 96.8982 116.321 96.7925 116.317 96.6834C116.313 96.5743 116.339 96.4662 116.394 96.3717C117.048 95.2367 117.977 94.2864 119.094 93.6092C120.211 92.932 121.48 92.5499 122.783 92.4982C124.086 92.4466 125.381 92.7271 126.548 93.3138C127.714 93.9005 128.714 94.7743 129.455 95.854C129.517 95.9441 129.551 96.0497 129.556 96.1588C129.56 96.2678 129.533 96.3758 129.479 96.4704C128.824 97.605 127.895 98.5548 126.778 99.2319C125.661 99.9089 124.392 100.291 123.089 100.343Z" fill="#B68B1D"/>
<path d="M113.785 109.57C112.486 109.449 111.239 109 110.158 108.266C109.078 107.531 108.198 106.534 107.602 105.367C107.553 105.27 107.532 105.16 107.541 105.052C107.551 104.943 107.591 104.839 107.657 104.752C108.454 103.713 109.498 102.893 110.693 102.368C111.888 101.844 113.196 101.631 114.495 101.751C115.793 101.871 117.041 102.319 118.122 103.054C119.202 103.789 120.081 104.786 120.675 105.954C120.725 106.051 120.745 106.161 120.735 106.269C120.726 106.378 120.685 106.482 120.619 106.569C119.823 107.607 118.779 108.427 117.585 108.951C116.39 109.476 115.083 109.689 113.785 109.57Z" fill="#B68B1D"/>
<path d="M102.023 117.465C100.79 117.035 99.6834 116.3 98.8066 115.327C97.9298 114.355 97.3105 113.175 97.0058 111.898C96.9807 111.792 96.9861 111.681 97.0213 111.577C97.0566 111.474 97.1202 111.383 97.2049 111.315C98.2252 110.497 99.4341 109.952 100.72 109.73C102.005 109.508 103.325 109.616 104.558 110.044C105.791 110.472 106.897 111.207 107.772 112.18C108.648 113.153 109.265 114.332 109.566 115.609C109.591 115.715 109.586 115.826 109.55 115.93C109.515 116.033 109.452 116.124 109.367 116.193C108.349 117.01 107.141 117.556 105.857 117.778C104.573 118 103.255 117.893 102.023 117.465Z" fill="#B68B1D"/>
<path d="M89.0163 122.954C87.9258 122.232 87.033 121.246 86.4197 120.087C85.8065 118.927 85.4924 117.631 85.5063 116.318C85.508 116.207 85.5409 116.099 85.6011 116.006C85.6614 115.913 85.7467 115.839 85.8469 115.793C87.0365 115.256 88.3413 115.03 89.6408 115.134C90.9403 115.239 92.1927 115.671 93.2822 116.392C94.3717 117.112 95.2632 118.097 95.8745 119.256C96.4857 120.414 96.7968 121.709 96.7792 123.021C96.7776 123.132 96.7447 123.24 96.6844 123.333C96.6241 123.426 96.5389 123.5 96.4386 123.546C95.252 124.084 93.9495 124.312 92.652 124.209C91.3544 124.105 90.1038 123.674 89.0163 122.954Z" fill="#B68B1D"/>
<path d="M25.9078 74.7565C25.879 74.4666 25.7556 74.2413 25.5376 74.0808C25.3196 73.9203 25.0237 73.84 24.6499 73.84C24.3959 73.84 24.1815 73.876 24.0066 73.9478C23.8317 74.0173 23.6975 74.1144 23.6041 74.2389C23.513 74.3635 23.4675 74.5049 23.4675 74.663C23.4627 74.7948 23.4903 74.9098 23.5502 75.008C23.6125 75.1063 23.6975 75.1913 23.8053 75.2632C23.9132 75.3327 24.0378 75.3938 24.1791 75.4465C24.3205 75.4968 24.4714 75.5399 24.6319 75.5759L25.2932 75.734C25.6143 75.8059 25.909 75.9017 26.1773 76.0215C26.4457 76.1413 26.6781 76.2887 26.8746 76.4636C27.071 76.6385 27.2232 76.8445 27.331 77.0817C27.4412 77.3189 27.4975 77.5909 27.4999 77.8976C27.4975 78.348 27.3825 78.7385 27.1549 79.0692C26.9297 79.3974 26.6038 79.6526 26.1773 79.8347C25.7533 80.0144 25.2417 80.1042 24.6427 80.1042C24.0485 80.1042 23.531 80.0132 23.0902 79.8311C22.6517 79.649 22.3091 79.3794 22.0623 79.0225C21.8179 78.6631 21.6897 78.2186 21.6777 77.6891H23.1836C23.2004 77.9359 23.2711 78.1419 23.3956 78.3073C23.5226 78.4702 23.6915 78.5936 23.9024 78.6774C24.1156 78.7589 24.3564 78.7996 24.6248 78.7996C24.8883 78.7996 25.1171 78.7613 25.3112 78.6846C25.5077 78.608 25.6598 78.5013 25.7676 78.3648C25.8754 78.2282 25.9294 78.0713 25.9294 77.894C25.9294 77.7286 25.8802 77.5897 25.782 77.4771C25.6862 77.3645 25.5448 77.2686 25.3579 77.1896C25.1734 77.1105 24.947 77.0386 24.6787 76.9739L23.8772 76.7727C23.2567 76.6217 22.7667 76.3857 22.4073 76.0647C22.0479 75.7436 21.8694 75.3111 21.8718 74.7673C21.8694 74.3216 21.988 73.9323 22.2276 73.5992C22.4696 73.2662 22.8014 73.0062 23.2231 72.8193C23.6448 72.6325 24.124 72.539 24.6607 72.539C25.207 72.539 25.6838 72.6325 26.0911 72.8193C26.5008 73.0062 26.8194 73.2662 27.0471 73.5992C27.2747 73.9323 27.3921 74.318 27.3993 74.7565H25.9078ZM29.5587 80V72.6396H32.4626C33.0208 72.6396 33.4964 72.7463 33.8894 72.9595C34.2823 73.1704 34.5818 73.4639 34.7878 73.84C34.9963 74.2138 35.1005 74.6451 35.1005 75.1338C35.1005 75.6226 34.9951 76.0539 34.7842 76.4276C34.5734 76.8014 34.2679 77.0925 33.8678 77.301C33.4701 77.5094 32.9885 77.6136 32.423 77.6136H30.5722V76.3665H32.1715C32.4709 76.3665 32.7177 76.315 32.9118 76.212C33.1083 76.1066 33.2544 75.9616 33.3503 75.7771C33.4485 75.5903 33.4976 75.3758 33.4976 75.1338C33.4976 74.8894 33.4485 74.6762 33.3503 74.4941C33.2544 74.3096 33.1083 74.1671 32.9118 74.0664C32.7153 73.9634 32.4662 73.9119 32.1643 73.9119H31.1148V80H29.5587ZM37.1233 80V72.6396H40.0272C40.5831 72.6396 41.0575 72.7391 41.4504 72.9379C41.8458 73.1344 42.1464 73.4135 42.3525 73.7753C42.5609 74.1347 42.6652 74.5576 42.6652 75.044C42.6652 75.5328 42.5597 75.9532 42.3489 76.3054C42.1381 76.6553 41.8326 76.9236 41.4325 77.1105C41.0347 77.2974 40.5531 77.3908 39.9877 77.3908H38.0434V76.1401H39.7361C40.0332 76.1401 40.28 76.0994 40.4765 76.0179C40.6729 75.9365 40.8191 75.8143 40.9149 75.6514C41.0132 75.4884 41.0623 75.286 41.0623 75.044C41.0623 74.7996 41.0132 74.5935 40.9149 74.4258C40.8191 74.2581 40.6717 74.1311 40.4729 74.0449C40.2764 73.9562 40.0284 73.9119 39.7289 73.9119H38.6795V80H37.1233ZM41.0982 76.6505L42.9275 80H41.2096L39.4199 76.6505H41.0982ZM46.0456 80H44.378L46.9189 72.6396H48.9243L51.4616 80H49.7941L47.9504 74.3216H47.8929L46.0456 80ZM45.9414 77.1069H49.8803V78.3216H45.9414V77.1069ZM54.2751 80L52.1691 72.6396H53.869L55.0874 77.7538H55.1485L56.4926 72.6396H57.9481L59.2887 77.7646H59.3534L60.5717 72.6396H62.2716L60.1656 80H58.649L57.2473 75.1877H57.1898L55.7918 80H54.2751ZM66.7257 80H64.1166V72.6396H66.7473C67.4877 72.6396 68.125 72.787 68.6593 73.0817C69.1936 73.374 69.6045 73.7945 69.892 74.3432C70.1819 74.8918 70.3269 75.5483 70.3269 76.3126C70.3269 77.0793 70.1819 77.7382 69.892 78.2893C69.6045 78.8404 69.1912 79.2632 68.6521 79.5579C68.1154 79.8526 67.4733 80 66.7257 80ZM65.6727 78.6667H66.6611C67.1211 78.6667 67.508 78.5852 67.8219 78.4223C68.1382 78.2569 68.3754 78.0018 68.5335 77.6568C68.694 77.3094 68.7743 76.8613 68.7743 76.3126C68.7743 75.7688 68.694 75.3243 68.5335 74.9793C68.3754 74.6343 68.1394 74.3803 67.8255 74.2174C67.5116 74.0545 67.1247 73.973 66.6647 73.973H65.6727V78.6667ZM72.4126 80V79.0764L76.0856 73.9227H72.4054V72.6396H78.0407V73.5633L74.3641 78.717H78.0479V80H72.4126ZM86.6718 76.3198C86.6718 77.1225 86.5197 77.8053 86.2154 78.3684C85.9135 78.9314 85.5014 79.3615 84.9791 79.6586C84.4592 79.9533 83.8746 80.1006 83.2253 80.1006C82.5712 80.1006 81.9842 79.9521 81.4642 79.655C80.9443 79.3579 80.5334 78.9278 80.2315 78.3648C79.9296 77.8017 79.7787 77.1201 79.7787 76.3198C79.7787 75.5172 79.9296 74.8343 80.2315 74.2713C80.5334 73.7082 80.9443 73.2794 81.4642 72.9847C81.9842 72.6876 82.5712 72.539 83.2253 72.539C83.8746 72.539 84.4592 72.6876 84.9791 72.9847C85.5014 73.2794 85.9135 73.7082 86.2154 74.2713C86.5197 74.8343 86.6718 75.5172 86.6718 76.3198ZM85.0941 76.3198C85.0941 75.7999 85.0162 75.3614 84.8605 75.0044C84.7072 74.6475 84.4903 74.3767 84.21 74.1922C83.9297 74.0077 83.6014 73.9155 83.2253 73.9155C82.8491 73.9155 82.5209 74.0077 82.2405 74.1922C81.9602 74.3767 81.7422 74.6475 81.5864 75.0044C81.4331 75.3614 81.3564 75.7999 81.3564 76.3198C81.3564 76.8397 81.4331 77.2782 81.5864 77.6352C81.7422 77.9922 81.9602 78.2629 82.2405 78.4474C82.5209 78.6319 82.8491 78.7242 83.2253 78.7242C83.6014 78.7242 83.9297 78.6319 84.21 78.4474C84.4903 78.2629 84.7072 77.9922 84.8605 77.6352C85.0162 77.2782 85.0941 76.8397 85.0941 76.3198ZM94.993 72.6396V80H93.6489L90.4467 75.3674H90.3928V80H88.8366V72.6396H90.2023L93.3793 77.2686H93.444V72.6396H94.993ZM96.8595 72.6396H98.6026L100.281 75.8095H100.353L102.031 72.6396H103.774L101.09 77.398V80H99.5442V77.398L96.8595 72.6396ZM111.686 75.2165H110.112C110.083 75.0128 110.024 74.8319 109.935 74.6738C109.847 74.5133 109.733 74.3767 109.594 74.2641C109.455 74.1515 109.295 74.0652 109.112 74.0053C108.933 73.9454 108.737 73.9155 108.527 73.9155C108.146 73.9155 107.814 74.0101 107.531 74.1994C107.248 74.3863 107.029 74.6594 106.873 75.0188C106.718 75.3758 106.64 75.8095 106.64 76.3198C106.64 76.8445 106.718 77.2854 106.873 77.6424C107.032 77.9994 107.252 78.2689 107.535 78.451C107.817 78.6331 108.144 78.7242 108.516 78.7242C108.724 78.7242 108.917 78.6966 109.094 78.6415C109.274 78.5864 109.434 78.5061 109.572 78.4007C109.711 78.2929 109.826 78.1623 109.917 78.009C110.011 77.8556 110.076 77.6807 110.112 77.4843L111.686 77.4914C111.645 77.8293 111.543 78.1551 111.38 78.469C111.22 78.7805 111.003 79.0596 110.73 79.3064C110.459 79.5508 110.136 79.7448 109.759 79.8886C109.386 80.0299 108.963 80.1006 108.491 80.1006C107.834 80.1006 107.247 79.9521 106.73 79.655C106.215 79.3579 105.807 78.9278 105.508 78.3648C105.211 77.8017 105.062 77.1201 105.062 76.3198C105.062 75.5172 105.213 74.8343 105.515 74.2713C105.817 73.7082 106.227 73.2794 106.744 72.9847C107.262 72.6876 107.844 72.539 108.491 72.539C108.917 72.539 109.313 72.5989 109.677 72.7187C110.043 72.8385 110.368 73.0134 110.651 73.2434C110.933 73.471 111.163 73.7502 111.341 74.0808C111.52 74.4115 111.635 74.79 111.686 75.2165ZM113.814 80V72.6396H115.37V75.6765H118.529V72.6396H120.081V80H118.529V76.9595H115.37V80H113.814ZM46.6263 90.0188C46.576 89.8439 46.5053 89.6894 46.4143 89.5552C46.3232 89.4186 46.2118 89.3036 46.08 89.2102C45.9506 89.1144 45.8021 89.0413 45.6344 88.991C45.4691 88.9406 45.2858 88.9155 45.0845 88.9155C44.7083 88.9155 44.3777 89.0089 44.0926 89.1958C43.8099 89.3827 43.5894 89.6546 43.4313 90.0116C43.2732 90.3662 43.1941 90.7999 43.1941 91.3126C43.1941 91.8254 43.272 92.2614 43.4277 92.6208C43.5834 92.9802 43.8039 93.2546 44.089 93.4438C44.3741 93.6307 44.7107 93.7242 45.0989 93.7242C45.4511 93.7242 45.7518 93.6619 46.001 93.5373C46.2525 93.4103 46.4442 93.2318 46.576 93.0018C46.7102 92.7718 46.7772 92.4998 46.7772 92.186L47.0935 92.2327H45.1959V91.0611H48.2759V91.9883C48.2759 92.6352 48.1393 93.1911 47.8662 93.6559C47.5931 94.1183 47.2169 94.4753 46.7377 94.7269C46.2585 94.976 45.7098 95.1006 45.0917 95.1006C44.4017 95.1006 43.7955 94.9485 43.2732 94.6442C42.7509 94.3375 42.3435 93.9027 42.0512 93.3396C41.7613 92.7742 41.6164 92.1033 41.6164 91.327C41.6164 90.7304 41.7026 90.1985 41.8751 89.7313C42.05 89.2617 42.2944 88.864 42.6083 88.5381C42.9222 88.2123 43.2875 87.9643 43.7044 87.7942C44.1213 87.6241 44.573 87.539 45.0593 87.539C45.4762 87.539 45.8644 87.6001 46.2238 87.7223C46.5832 87.8421 46.9018 88.0122 47.1798 88.2326C47.4601 88.4531 47.6889 88.7154 47.8662 89.0197C48.0435 89.3216 48.1573 89.6546 48.2076 90.0188H46.6263ZM50.4569 95V87.6396H53.3608C53.9166 87.6396 54.391 87.7391 54.784 87.9379C55.1793 88.1344 55.48 88.4135 55.686 88.7753C55.8945 89.1347 55.9987 89.5576 55.9987 90.044C55.9987 90.5328 55.8933 90.9532 55.6824 91.3054C55.4716 91.6553 55.1661 91.9236 54.766 92.1105C54.3683 92.2974 53.8867 92.3908 53.3212 92.3908H51.3769V91.1401H53.0697C53.3668 91.1401 53.6135 91.0994 53.81 91.0179C54.0065 90.9365 54.1526 90.8143 54.2485 90.6514C54.3467 90.4884 54.3958 90.286 54.3958 90.044C54.3958 89.7996 54.3467 89.5935 54.2485 89.4258C54.1526 89.2581 54.0053 89.1311 53.8064 89.0449C53.6099 88.9562 53.362 88.9119 53.0625 88.9119H52.013V95H50.4569ZM54.4318 91.6505L56.2611 95H54.5432L52.7534 91.6505H54.4318ZM62.6568 87.6396H64.213V92.4196C64.213 92.9563 64.0848 93.4259 63.8284 93.8284C63.5744 94.2309 63.2186 94.5448 62.761 94.77C62.3034 94.9928 61.7703 95.1042 61.1617 95.1042C60.5508 95.1042 60.0165 94.9928 59.5588 94.77C59.1012 94.5448 58.7454 94.2309 58.4914 93.8284C58.2375 93.4259 58.1105 92.9563 58.1105 92.4196V87.6396H59.6667V92.2866C59.6667 92.5669 59.7278 92.8161 59.8499 93.0341C59.9745 93.2522 60.1494 93.4235 60.3747 93.5481C60.5999 93.6726 60.8622 93.7349 61.1617 93.7349C61.4636 93.7349 61.726 93.6726 61.9488 93.5481C62.174 93.4235 62.3477 93.2522 62.4699 93.0341C62.5945 92.8161 62.6568 92.5669 62.6568 92.2866V87.6396ZM72.6617 87.6396V95H71.3176L68.1154 90.3674H68.0615V95H66.5054V87.6396H67.871L71.0481 92.2686H71.1128V87.6396H72.6617ZM74.6792 88.9227V87.6396H80.7242V88.9227H78.4708V95H76.9326V88.9227H74.6792ZM89.1595 91.3198C89.1595 92.1225 89.0073 92.8053 88.703 93.3684C88.4011 93.9314 87.989 94.3615 87.4667 94.6586C86.9468 94.9533 86.3622 95.1006 85.7129 95.1006C85.0588 95.1006 84.4718 94.9521 83.9519 94.655C83.4319 94.3579 83.021 93.9278 82.7191 93.3648C82.4173 92.8017 82.2663 92.1201 82.2663 91.3198C82.2663 90.5172 82.4173 89.8343 82.7191 89.2713C83.021 88.7082 83.4319 88.2794 83.9519 87.9847C84.4718 87.6876 85.0588 87.539 85.7129 87.539C86.3622 87.539 86.9468 87.6876 87.4667 87.9847C87.989 88.2794 88.4011 88.7082 88.703 89.2713C89.0073 89.8343 89.1595 90.5172 89.1595 91.3198ZM87.5817 91.3198C87.5817 90.7999 87.5039 90.3614 87.3481 90.0044C87.1948 89.6475 86.9779 89.3767 86.6976 89.1922C86.4173 89.0077 86.089 88.9155 85.7129 88.9155C85.3367 88.9155 85.0085 89.0077 84.7281 89.1922C84.4478 89.3767 84.2298 89.6475 84.0741 90.0044C83.9207 90.3614 83.844 90.7999 83.844 91.3198C83.844 91.8397 83.9207 92.2782 84.0741 92.6352C84.2298 92.9922 84.4478 93.2629 84.7281 93.4474C85.0085 93.6319 85.3367 93.7242 85.7129 93.7242C86.089 93.7242 86.4173 93.6319 86.6976 93.4474C86.9779 93.2629 87.1948 92.9922 87.3481 92.6352C87.5039 92.2782 87.5817 91.8397 87.5817 91.3198ZM85.163 86.9281L85.9249 85.2928H87.3409L86.2448 86.9281H85.163ZM92.7043 95L90.5983 87.6396H92.2982L93.5165 92.7538H93.5776L94.9218 87.6396H96.3773L97.7178 92.7646H97.7825L99.0009 87.6396H100.701L98.5948 95H97.0781L95.6765 90.1877H95.619L94.2209 95H92.7043Z" fill="#0B345A"/>
<path d="M41.02 41.9189V64H36.3515V46.3503H36.2221L31.1654 49.5201V45.3799L36.6318 41.9189H41.02ZM54.9257 64.4852C53.0713 64.478 51.4756 64.0216 50.1386 63.1159C48.8089 62.2102 47.7846 60.8984 47.0658 59.1806C46.3542 57.4627 46.002 55.3962 46.0092 52.981C46.0092 50.5731 46.365 48.521 47.0766 46.8247C47.7954 45.1283 48.8197 43.8381 50.1494 42.954C51.4864 42.0627 53.0785 41.6171 54.9257 41.6171C56.773 41.6171 58.3615 42.0627 59.6913 42.954C61.0282 43.8453 62.0561 45.1391 62.7749 46.8354C63.4936 48.5246 63.8494 50.5731 63.8423 52.981C63.8423 55.4033 63.4829 57.4734 62.7641 59.1913C62.0525 60.9092 61.0318 62.221 59.7021 63.1267C58.3723 64.0323 56.7802 64.4852 54.9257 64.4852ZM54.9257 60.6145C56.1908 60.6145 57.2007 59.9784 57.9554 58.7062C58.7101 57.4339 59.0839 55.5255 59.0767 52.981C59.0767 51.3063 58.9042 49.9118 58.5592 48.7977C58.2214 47.6836 57.7398 46.8462 57.1144 46.2856C56.4963 45.7249 55.7667 45.4446 54.9257 45.4446C53.6679 45.4446 52.6616 46.0735 51.9068 47.3314C51.1521 48.5893 50.7712 50.4725 50.764 52.981C50.764 54.6774 50.9329 56.0934 51.2707 57.2291C51.6157 58.3575 52.1009 59.2057 52.7263 59.7735C53.3516 60.3342 54.0848 60.6145 54.9257 60.6145ZM75.8289 64.4852C73.9744 64.478 72.3787 64.0216 71.0418 63.1159C69.712 62.2102 68.6878 60.8984 67.969 59.1806C67.2574 57.4627 66.9052 55.3962 66.9124 52.981C66.9124 50.5731 67.2682 48.521 67.9798 46.8247C68.6985 45.1283 69.7228 43.8381 71.0526 42.954C72.3895 42.0627 73.9816 41.6171 75.8289 41.6171C77.6762 41.6171 79.2647 42.0627 80.5944 42.954C81.9314 43.8453 82.9592 45.1391 83.678 46.8354C84.3968 48.5246 84.7526 50.5731 84.7454 52.981C84.7454 55.4033 84.386 57.4734 83.6672 59.1913C82.9556 60.9092 81.935 62.221 80.6052 63.1267C79.2755 64.0323 77.6833 64.4852 75.8289 64.4852ZM75.8289 60.6145C77.0939 60.6145 78.1038 59.9784 78.8586 58.7062C79.6133 57.4339 79.9871 55.5255 79.9799 52.981C79.9799 51.3063 79.8074 49.9118 79.4623 48.7977C79.1245 47.6836 78.6429 46.8462 78.0176 46.2856C77.3994 45.7249 76.6699 45.4446 75.8289 45.4446C74.571 45.4446 73.5647 46.0735 72.81 47.3314C72.0553 48.5893 71.6743 50.4725 71.6671 52.981C71.6671 54.6774 71.836 56.0934 72.1739 57.2291C72.5189 58.3575 73.0041 59.2057 73.6294 59.7735C74.2547 60.3342 74.9879 60.6145 75.8289 60.6145ZM100.161 59.8598V58.6954C100.161 57.8113 100.348 56.999 100.721 56.2587C101.102 55.5112 101.652 54.9146 102.371 54.4689C103.097 54.0161 103.981 53.7897 105.023 53.7897C106.08 53.7897 106.968 54.0125 107.686 54.4581C108.412 54.9038 108.959 55.5004 109.325 56.2479C109.699 56.9883 109.886 57.8041 109.886 58.6954V59.8598C109.886 60.7439 109.699 61.5597 109.325 62.3073C108.951 63.0476 108.401 63.6406 107.676 64.0863C106.95 64.5391 106.065 64.7655 105.023 64.7655C103.967 64.7655 103.079 64.5391 102.36 64.0863C101.641 63.6406 101.095 63.0476 100.721 62.3073C100.348 61.5597 100.161 60.7439 100.161 59.8598ZM103.298 58.6954V59.8598C103.298 60.3701 103.42 60.8517 103.665 61.3046C103.916 61.7574 104.369 61.9838 105.023 61.9838C105.677 61.9838 106.123 61.761 106.36 61.3153C106.605 60.8697 106.727 60.3845 106.727 59.8598V58.6954C106.727 58.1707 106.612 57.6819 106.382 57.2291C106.152 56.7762 105.699 56.5498 105.023 56.5498C104.376 56.5498 103.927 56.7762 103.675 57.2291C103.424 57.6819 103.298 58.1707 103.298 58.6954ZM88.829 47.2236V46.0591C88.829 45.1679 89.0195 44.352 89.4004 43.6117C89.7814 42.8641 90.3313 42.2676 91.05 41.8219C91.776 41.3763 92.6529 41.1534 93.6808 41.1534C94.7446 41.1534 95.6359 41.3763 96.3547 41.8219C97.0735 42.2676 97.6197 42.8641 97.9935 43.6117C98.3673 44.352 98.5541 45.1679 98.5541 46.0591V47.2236C98.5541 48.1149 98.3637 48.9307 97.9827 49.671C97.6089 50.4114 97.0591 51.0044 96.3331 51.45C95.6143 51.8885 94.7302 52.1077 93.6808 52.1077C92.6314 52.1077 91.7437 51.8849 91.0177 51.4392C90.2989 50.9864 89.7526 50.3934 89.3789 49.6603C89.0123 48.9199 88.829 48.1077 88.829 47.2236ZM91.9881 46.0591V47.2236C91.9881 47.7483 92.1102 48.2335 92.3546 48.6791C92.6062 49.1248 93.0483 49.3476 93.6808 49.3476C94.3421 49.3476 94.7913 49.1248 95.0285 48.6791C95.2729 48.2335 95.3951 47.7483 95.3951 47.2236V46.0591C95.3951 45.5344 95.2801 45.0457 95.0501 44.5928C94.8201 44.14 94.3636 43.9136 93.6808 43.9136C93.0411 43.9136 92.599 44.1436 92.3546 44.6036C92.1102 45.0636 91.9881 45.5488 91.9881 46.0591ZM90.2522 64L105.433 41.9189H108.258L93.077 64H90.2522Z" fill="#0B345A"/>
</svg>
