<svg width="120" height="120" viewBox="0 0 120 120" fill="none" xmlns="http://www.w3.org/2000/svg">
<mask id="mask0_763_11864" style="mask-type:alpha" maskUnits="userSpaceOnUse" x="0" y="0" width="120" height="120">
<rect width="120" height="120" fill="#C4C4C4"/>
</mask>
<g mask="url(#mask0_763_11864)">
</g>
<g clip-path="url(#clip0_763_11864)">
<path d="M44.999 23.5286L41.999 41.0286H54.7746L32.999 66.0286L35.999 48.0286H23.999L44.999 23.5286ZM51.3165 10.9374L42.1176 21.7288L22.3869 44.9368L17.0742 51.1735H32.3556L29.9526 63.8926L27.3243 77.859L36.5044 67.0488L56.2351 43.8595L61.5479 37.6229H46.2665L48.6882 24.8849L51.3353 10.9185L51.3165 10.9374Z" fill="#443401"/>
<path d="M83.9269 101.464C79.4972 101.459 75.2503 99.6849 72.118 96.5316C68.9856 93.3783 67.2237 89.1029 67.2188 84.6434C67.2188 70.3179 82.2373 59.5077 82.8381 59.0541L83.9457 58.2603L85.0346 59.0729C85.6729 59.5265 100.616 70.677 100.616 84.6434C100.616 89.1011 98.8586 93.3766 95.7293 96.5304C92.6 99.6843 88.355 101.459 83.9269 101.464ZM83.9269 62.985C80.6229 65.6687 70.9922 74.3245 70.9922 84.6434C70.9259 86.3964 71.2116 88.1449 71.8322 89.7841C72.4528 91.4234 73.3956 92.9197 74.6042 94.1835C75.8127 95.4474 77.2621 96.4528 78.8656 97.1395C80.4691 97.8262 82.1937 98.1802 83.9363 98.1802C85.6789 98.1802 87.4035 97.8262 89.0071 97.1395C90.6106 96.4528 92.06 95.4474 93.2685 94.1835C94.477 92.9197 95.4199 91.4234 96.0405 89.7841C96.6611 88.1449 96.9468 86.3964 96.8805 84.6434C96.8617 74.5891 87.2122 65.7254 83.9081 63.0229L83.9269 62.985Z" fill="#443401"/>
<path d="M100.092 8.93559L98.9648 10.3271L101.875 12.7156L103.002 11.324L100.092 8.93559Z" fill="#443401"/>
<path d="M26.5745 107.757L23.5332 105.527C24.1527 104.677 24.866 103.637 25.6733 102.635L28.677 104.903C27.8886 105.962 27.1752 106.907 26.5745 107.757ZM30.8172 102.087L27.8322 99.7817L30.01 96.9469L32.9761 99.2525L30.8172 102.087ZM35.1538 96.4176L32.2064 94.0931L34.384 91.2582L37.3502 93.6017L35.1538 96.4176ZM39.5467 90.7479L36.5806 88.4044L38.7958 85.6074L41.7432 87.9509L39.5467 90.7479ZM43.9397 85.0782L40.9923 82.7347L43.2075 79.9377L46.1361 82.2811L43.9397 85.0782ZM48.3513 79.4084L45.4227 77.0461L47.6379 74.249L50.5665 76.6114L48.3513 79.4084ZM52.7818 73.7387L49.8531 71.3953L52.0685 68.5982L54.9971 70.9606L52.7818 73.7387ZM57.2123 68.1635L54.3588 66.0468L56.5928 63.2498L59.5214 65.6121L57.2123 68.1635ZM61.6616 62.4937L58.7329 60.1314L60.967 57.3343L63.8956 59.6967L61.6616 62.4937ZM66.1108 56.9186L63.201 54.5373L65.4162 51.778L68.3448 54.1404L66.1108 56.9186ZM70.56 51.3623L67.6502 48.981L69.8654 46.2027L72.794 48.5651L70.56 51.3623ZM75.0281 45.6926L72.0994 43.3302L74.3335 40.533L77.2621 42.9143L75.0281 45.6926ZM79.4961 40.1362L76.5675 37.7549L78.8203 34.9767L81.7301 37.358L79.4961 40.1362ZM83.9641 34.5799L81.0542 32.1986L83.2882 29.4204L86.1981 31.8017L83.9641 34.5799ZM88.4321 29.0235L85.5222 27.1147L87.7562 24.3366L90.6848 26.7178L88.4321 29.0235ZM92.9189 23.4672L90.0278 21.445L92.2618 18.6669L95.1905 21.0481L92.9189 23.4672ZM97.4057 17.9109L94.4958 15.5296L96.7487 12.7515L99.6585 15.1327L97.4057 17.9109Z" fill="#443401"/>
<path d="M20.7362 112.028C19.929 110.819 20.7363 109.628 21.5623 108.362L24.6786 110.441C24.4442 110.759 24.2429 111.101 24.0778 111.461C24.1553 111.199 24.1753 110.923 24.1364 110.652C24.0975 110.381 24.0007 110.122 23.8525 109.893L20.7362 112.028Z" fill="#443401"/>
</g>
<defs>
<clipPath id="clip0_763_11864">
<rect width="86" height="103" fill="white" transform="translate(17 9.02832)"/>
</clipPath>
</defs>
</svg>
