<svg width="32" height="32" viewBox="0 0 32 32" fill="none" xmlns="http://www.w3.org/2000/svg">
<g clip-path="url(#clip0_720_17011)">
<rect width="32" height="32" fill="white"/>
<path d="M23.478 6.75147C24.821 7.72731 24.6558 9.29482 23.1866 10.0426C23.1312 10.0704 23.0471 10.0344 23.0676 9.99023C23.2184 9.67283 23.555 9.08732 23.6145 8.42375C23.6822 7.66773 23.4513 7.11921 23.3528 6.78229C23.3395 6.73606 23.4277 6.71449 23.478 6.75044V6.75147Z" fill="#AA7F10"/>
<path d="M24.9319 10.9798C26.1241 12.347 25.566 13.9751 23.8187 14.4127C23.753 14.4291 23.672 14.3695 23.7048 14.3274C23.9428 14.0264 24.4435 13.4861 24.6693 12.7938C24.9258 12.0059 24.8139 11.365 24.7913 10.9829C24.7883 10.9305 24.8878 10.9284 24.9319 10.9798Z" fill="#AA7F10"/>
<path d="M23.4267 15.1754C23.7684 16.9576 22.4674 18.0834 20.7376 17.579C20.6729 17.5605 20.6329 17.4671 20.6821 17.4486C21.0392 17.3089 21.7441 17.0942 22.2868 16.6104C22.9055 16.0588 23.1302 15.4486 23.3036 15.1076C23.3272 15.0603 23.4144 15.1096 23.4267 15.1764V15.1754Z" fill="#AA7F10"/>
<path d="M22.7464 11.1765C23.5518 12.63 22.7403 13.9807 21.0915 14.0362C21.0299 14.0383 20.9684 13.9694 21.0053 13.9386C21.2762 13.7147 21.8281 13.3274 22.1626 12.7512C22.5433 12.0948 22.5658 11.5001 22.6192 11.1529C22.6264 11.1046 22.7156 11.1231 22.7464 11.1775V11.1765Z" fill="#AA7F10"/>
<path d="M20.2473 14.894C20.2299 16.556 18.8581 17.3285 17.3971 16.5612C17.3427 16.5324 17.3232 16.442 17.3704 16.4338C17.7162 16.3732 18.3872 16.3095 18.9628 15.9736C19.6174 15.5915 19.9313 15.0851 20.1488 14.8098C20.1786 14.7718 20.2473 14.8313 20.2473 14.894Z" fill="#AA7F10"/>
<path d="M21.3992 4.39101C22.536 5.05869 22.5267 6.31084 21.4228 7.0155C21.3817 7.04221 21.312 7.01961 21.3243 6.98366C21.4197 6.72069 21.6403 6.23278 21.6362 5.70377C21.6321 5.1008 21.4063 4.68478 21.3027 4.42593C21.2884 4.38998 21.3571 4.36635 21.3992 4.39101Z" fill="#AA7F10"/>
<path d="M18.2863 2.68347C19.1707 2.86426 19.4405 3.6778 18.8803 4.37938C18.8598 4.40608 18.8095 4.40608 18.8095 4.37938C18.8136 4.18832 18.8485 3.82263 18.7285 3.48058C18.5931 3.09127 18.355 2.87145 18.2309 2.72661C18.2134 2.70709 18.2524 2.67628 18.2853 2.68244L18.2863 2.68347Z" fill="#AA7F10"/>
<path d="M15.7729 2.40672C16.2561 2.24853 16.6142 2.57108 16.5352 3.0703C16.5321 3.08878 16.5075 3.10317 16.5013 3.09084C16.45 2.99634 16.3659 2.80836 16.212 2.6738C16.0376 2.52074 15.8601 2.47965 15.7585 2.4437C15.7441 2.43857 15.7554 2.41289 15.7729 2.40672Z" fill="#AA7F10"/>
<path d="M17.1527 4.83721C17.5518 5.15154 17.483 5.62816 17.0254 5.84079C17.008 5.849 16.9823 5.83668 16.9895 5.82332C17.0398 5.72779 17.1486 5.55317 17.1752 5.35081C17.205 5.12072 17.1403 4.9502 17.1147 4.84543C17.1106 4.83105 17.1383 4.82591 17.1537 4.83721H17.1527Z" fill="#AA7F10"/>
<path d="M16.6635 7.3694C16.923 7.80596 16.6881 8.22711 16.1843 8.25998C16.1658 8.26101 16.1463 8.24046 16.1576 8.23122C16.2387 8.16034 16.4039 8.03605 16.5003 7.85732C16.6111 7.6529 16.6122 7.47109 16.6245 7.36426C16.6265 7.34988 16.6542 7.35399 16.6635 7.37042V7.3694Z" fill="#AA7F10"/>
<path d="M15.1 9.70917C15.1698 10.2125 14.7902 10.5094 14.3131 10.343C14.2957 10.3368 14.2854 10.3101 14.2998 10.306C14.4013 10.2721 14.6014 10.2217 14.7604 10.0944C14.941 9.94954 15.0128 9.78108 15.0662 9.68863C15.0734 9.67528 15.097 9.69068 15.1 9.70917Z" fill="#AA7F10"/>
<path d="M13.0176 11.3908C12.9273 11.8911 12.4738 12.0534 12.0726 11.7473C12.0572 11.736 12.0562 11.7072 12.0716 11.7072C12.1793 11.7072 12.3845 11.7216 12.5754 11.6507C12.7929 11.5696 12.9129 11.433 12.9929 11.361C13.0042 11.3508 13.0217 11.3723 13.0186 11.3919L13.0176 11.3908Z" fill="#AA7F10"/>
<path d="M10.48 11.9749C10.1599 12.3704 9.68482 12.2944 9.48064 11.8321C9.47346 11.8147 9.48577 11.789 9.49809 11.7962C9.59248 11.8475 9.76587 11.9595 9.96697 11.9893C10.1968 12.0221 10.3681 11.9605 10.4718 11.9359C10.4861 11.9328 10.4913 11.9595 10.4789 11.9749H10.48Z" fill="#AA7F10"/>
<path d="M8.16421 11.5354C7.7415 11.8169 7.30956 11.6022 7.2521 11.0999C7.25005 11.0814 7.26954 11.0608 7.2798 11.0711C7.3547 11.1481 7.48603 11.3074 7.66968 11.3957C7.87898 11.4964 8.06058 11.4881 8.16728 11.4964C8.18165 11.4974 8.17857 11.5251 8.16318 11.5354H8.16421Z" fill="#AA7F10"/>
<path d="M19.0872 5.46725C19.8074 6.00961 19.7038 6.8591 18.8984 7.25149C18.8687 7.26587 18.8225 7.24533 18.8338 7.2217C18.9189 7.05119 19.1067 6.73584 19.1447 6.37632C19.1888 5.96647 19.0677 5.66653 19.0174 5.48266C19.0102 5.45698 19.0585 5.44671 19.0862 5.46622L19.0872 5.46725Z" fill="#AA7F10"/>
<path d="M18.6518 8.42431C19.1494 9.21423 18.737 9.99695 17.8146 10.0802C17.7797 10.0832 17.7438 10.0463 17.7633 10.0278C17.908 9.89423 18.2055 9.65901 18.3748 9.32517C18.5677 8.9451 18.5615 8.61024 18.58 8.41507C18.5831 8.38836 18.6334 8.39555 18.6518 8.42431Z" fill="#AA7F10"/>
<path d="M17.1137 11.0829C17.2973 11.9253 16.693 12.4738 15.8661 12.256C15.8353 12.2478 15.8148 12.2047 15.8384 12.1944C16.0066 12.1235 16.338 12.0136 16.5894 11.7773C16.8767 11.5082 16.9762 11.2165 17.0542 11.0521C17.0644 11.0295 17.1065 11.0521 17.1137 11.0829Z" fill="#AA7F10"/>
<path d="M15.0134 12.9126C14.9693 13.7015 14.3004 14.0384 13.6232 13.6419C13.5976 13.6275 13.5904 13.5834 13.614 13.5803C13.7792 13.5587 14.1003 13.5433 14.3804 13.3964C14.6995 13.229 14.8595 12.9958 14.9693 12.8694C14.9847 12.852 15.0155 12.8818 15.0145 12.9116L15.0134 12.9126Z" fill="#AA7F10"/>
<path d="M12.5413 13.9789C12.1125 14.8254 11.2147 14.8736 10.6607 14.1115C10.6401 14.0827 10.6525 14.0313 10.6791 14.0395C10.872 14.096 11.2311 14.2327 11.6107 14.207C12.0427 14.1772 12.331 13.9974 12.5116 13.9112C12.5362 13.8988 12.5567 13.9471 12.5403 13.9789H12.5413Z" fill="#AA7F10"/>
<path d="M9.21725 14.0731C8.52983 14.7541 7.64542 14.5117 7.35403 13.5954C7.34275 13.5615 7.3725 13.5153 7.39507 13.5317C7.56334 13.6488 7.86703 13.8974 8.24255 13.994C8.67039 14.1039 9.00692 14.0227 9.21007 13.9981C9.23777 13.995 9.24187 14.0474 9.21622 14.0731H9.21725Z" fill="#AA7F10"/>
<path d="M21.0923 8.45218C21.8536 9.35406 21.474 10.4069 20.3341 10.673C20.291 10.6833 20.2387 10.6432 20.2613 10.6165C20.4193 10.4234 20.7507 10.0762 20.9036 9.62935C21.078 9.11986 21.0123 8.70179 21.001 8.45218C21 8.41828 21.0646 8.41828 21.0923 8.45218Z" fill="#AA7F10"/>
<path d="M19.5983 12.0188C19.9133 13.1569 19.1294 13.954 17.9813 13.7188C17.9382 13.7096 17.9075 13.652 17.9382 13.6366C18.1629 13.5267 18.6082 13.3511 18.9345 13.009C19.3059 12.6187 19.4208 12.2119 19.5152 11.9808C19.5285 11.9489 19.587 11.9757 19.5983 12.0188Z" fill="#AA7F10"/>
<path d="M17.0051 14.535C16.9374 15.7132 15.9391 16.2166 14.9275 15.6239C14.8895 15.6013 14.8793 15.5366 14.9131 15.5325C15.1604 15.5006 15.6385 15.478 16.0581 15.2592C16.5352 15.0096 16.7743 14.6604 16.9384 14.4734C16.961 14.4477 17.0082 14.4919 17.0051 14.5361V14.535Z" fill="#AA7F10"/>
<path d="M13.7056 15.919C13.2419 17.0047 12.1318 17.1372 11.3828 16.2354C11.3551 16.2015 11.3664 16.1368 11.4002 16.145C11.6434 16.1994 12.101 16.3412 12.5699 16.2775C13.1034 16.2056 13.4471 15.959 13.6646 15.8378C13.6944 15.8214 13.7241 15.8789 13.7067 15.92L13.7056 15.919Z" fill="#AA7F10"/>
<path d="M9.98997 16.1551C9.26254 17.0847 8.15548 16.9266 7.66403 15.8624C7.64556 15.8223 7.67429 15.7627 7.70405 15.7792C7.92464 15.8952 8.33093 16.149 8.79981 16.2085C9.33436 16.2763 9.72936 16.1264 9.97047 16.0658C10.0033 16.0575 10.0166 16.1212 9.98997 16.1551Z" fill="#AA7F10"/>
<path d="M47.0956 30.4109C47.2987 30.1644 47.4906 29.9086 47.667 29.6405C47.8343 29.2933 48.0056 28.9482 48.1616 28.5948C48.1411 28.6102 48.1205 28.6256 48.1 28.6421C46.9642 29.51 45.8921 30.3298 43.7159 30.3298C41.5398 30.3298 40.4676 29.51 39.3318 28.6421C38.1283 27.7217 36.8838 26.7705 34.405 26.7705C31.9262 26.7705 30.6816 27.7217 29.4781 28.6421C28.3434 29.51 27.2702 30.3298 25.094 30.3298C22.9179 30.3298 21.8457 29.51 20.711 28.6421C19.5075 27.7217 18.2629 26.7705 15.7841 26.7705C13.3053 26.7705 12.0608 27.7217 10.8573 28.6421C9.72252 29.51 8.65035 30.3298 6.47318 30.3298C4.29601 30.3298 3.22487 29.51 2.09011 28.6421C0.886614 27.7217 -0.357922 26.7705 -2.83674 26.7705C-5.31555 26.7705 -6.56009 27.7217 -7.76359 28.6421C-8.89834 29.51 -9.97051 30.3298 -12.1477 30.3298C-13.9165 30.3298 -14.9558 29.7884 -15.8926 29.1197C-15.7848 29.3529 -15.6669 29.5799 -15.554 29.81C-15.3242 30.1449 -15.0666 30.4582 -14.7948 30.7581C-14.0817 31.0416 -13.2342 31.2265 -12.1477 31.2265C-9.66887 31.2265 -8.42433 30.2753 -7.22083 29.3549C-6.08608 28.487 -5.01391 27.6673 -2.83674 27.6673C-0.659566 27.6673 0.411575 28.487 1.54633 29.3549C2.74983 30.2753 3.99437 31.2265 6.47318 31.2265C8.95199 31.2265 10.1965 30.2753 11.4 29.3549C12.5348 28.487 13.607 27.6673 15.7841 27.6673C17.9613 27.6673 19.0324 28.487 20.1682 29.3549C21.3717 30.2753 22.6163 31.2265 25.0951 31.2265C27.5739 31.2265 28.8184 30.2753 30.0219 29.3549C31.1577 28.487 32.2299 27.6673 34.406 27.6673C36.5822 27.6673 37.6543 28.487 38.7901 29.3549C39.9936 30.2753 41.2381 31.2265 43.717 31.2265C45.2016 31.2265 46.2409 30.8834 47.0966 30.4119L47.0956 30.4109Z" fill="#0B345A"/>
<path d="M43.7164 21.5768C41.5403 21.5768 40.4681 20.7571 39.3323 19.8891C38.1288 18.9688 36.8843 18.0176 34.4055 18.0176C31.9267 18.0176 30.6821 18.9688 29.4786 19.8891C28.3428 20.7571 27.2707 21.5768 25.0945 21.5768C22.9184 21.5768 21.8462 20.7571 20.7104 19.8891C19.5069 18.9688 18.2624 18.0176 15.7836 18.0176C13.3048 18.0176 12.0602 18.9688 10.8567 19.8891C9.72198 20.7571 8.64981 21.5768 6.47264 21.5768C4.29547 21.5768 3.22433 20.7571 2.08957 19.8891C0.886078 18.9688 -0.358458 18.0176 -2.83727 18.0176C-5.31609 18.0176 -6.56062 18.9688 -7.76412 19.8891C-8.89888 20.7571 -9.97105 21.5768 -12.1482 21.5768C-13.9755 21.5768 -15.0231 20.9975 -15.9844 20.298C-16.1322 20.5609 -16.2676 20.8311 -16.3887 21.1095C-15.3627 21.8398 -14.1664 22.4725 -12.1482 22.4725C-9.6694 22.4725 -8.42487 21.5214 -7.22137 20.601C-6.08661 19.733 -5.01444 18.9133 -2.83727 18.9133C-0.660102 18.9133 0.411041 19.733 1.5458 20.601C2.74929 21.5214 3.99383 22.4725 6.47264 22.4725C8.95146 22.4725 10.196 21.5214 11.3995 20.601C12.5343 19.733 13.6064 18.9133 15.7836 18.9133C17.9608 18.9133 19.0319 19.733 20.1667 20.601C21.3702 21.5214 22.6147 22.4725 25.0935 22.4725C27.5723 22.4725 28.8169 21.5214 30.0204 20.601C31.1561 19.733 32.2283 18.9133 34.4044 18.9133C36.5806 18.9133 37.6528 19.733 38.7886 20.601C39.992 21.5214 41.2366 22.4725 43.7154 22.4725C45.9469 22.4725 47.1771 21.7021 48.278 20.8773C48.1487 20.603 48.0071 20.336 47.8512 20.0771C46.8016 20.8711 45.7325 21.5768 43.7154 21.5768H43.7164Z" fill="#0B345A"/>
<path d="M49.0732 23.6443C48.7326 23.8713 48.4145 24.1117 48.1005 24.3511C46.9648 25.219 45.8926 26.0387 43.7164 26.0387C41.5403 26.0387 40.4671 25.219 39.3324 24.3511C38.1289 23.4307 36.8843 22.4795 34.4055 22.4795C31.9267 22.4795 30.6821 23.4307 29.4786 24.3511C28.3439 25.219 27.2707 26.0387 25.0946 26.0387C22.9184 26.0387 21.8462 25.219 20.7105 24.3511C19.507 23.4307 18.2624 22.4795 15.7836 22.4795C13.3048 22.4795 12.0603 23.4307 10.8568 24.3511C9.722 25.219 8.64983 26.0387 6.47266 26.0387C4.29549 26.0387 3.22434 25.219 2.08959 24.3511C0.886091 23.4307 -0.358444 22.4795 -2.83726 22.4795C-5.31608 22.4795 -6.56061 23.4307 -7.76411 24.3511C-8.89887 25.219 -9.97104 26.0387 -12.1482 26.0387C-14.3254 26.0387 -15.3965 25.219 -16.5323 24.3511C-16.718 24.2093 -16.9078 24.0675 -17.0997 23.9278C-17.1223 24.1857 -17.1387 24.4445 -17.1387 24.7075C-17.1387 24.8153 -17.1264 24.9211 -17.1223 25.028C-17.1069 25.0403 -17.0904 25.0516 -17.0751 25.0639C-15.8716 25.9843 -14.627 26.9355 -12.1482 26.9355C-9.66939 26.9355 -8.42486 25.9843 -7.22136 25.0639C-6.0866 24.1959 -5.01443 23.3762 -2.83726 23.3762C-0.660089 23.3762 0.411055 24.1959 1.54581 25.0639C2.74931 25.9843 3.99384 26.9355 6.47266 26.9355C8.95148 26.9355 10.196 25.9843 11.3995 25.0639C12.5343 24.1959 13.6064 23.3762 15.7836 23.3762C17.9608 23.3762 19.0319 24.1959 20.1677 25.0639C21.3712 25.9843 22.6157 26.9355 25.0946 26.9355C27.5734 26.9355 28.8179 25.9843 30.0214 25.0639C31.1562 24.1959 32.2294 23.3762 34.4055 23.3762C36.5816 23.3762 37.6538 24.1959 38.7896 25.0639C39.9931 25.9843 41.2376 26.9355 43.7164 26.9355C46.1953 26.9355 47.4408 25.9843 48.6443 25.0639C48.8105 24.9376 48.9747 24.8123 49.1409 24.69C49.1409 24.3356 49.1132 23.9884 49.0732 23.6443Z" fill="#0B345A"/>
<path d="M15.6927 0.00932644C9.30485 0.264072 4.31541 5.67434 4.56986 12.0697C4.67246 14.6469 5.63998 17.1081 7.28979 19.0711C7.72481 19.031 8.11469 18.8718 8.37119 18.7403C6.68958 16.9027 5.7077 14.5216 5.60817 12.0276C5.3763 6.2054 9.9184 1.281 15.7338 1.04885C21.5481 0.816706 26.4678 5.36412 26.6996 11.1863C26.8115 14.006 25.8204 16.7013 23.9079 18.7752C23.9079 18.7752 23.991 18.8543 24.2732 18.9827C24.5563 19.1111 24.7759 19.1183 25.0006 19.0875C26.8782 16.8667 27.8539 14.0717 27.738 11.1462C27.4835 4.74986 22.0806 -0.245419 15.6927 0.00932644Z" fill="#AA7F10"/>
</g>
<defs>
<clipPath id="clip0_720_17011">
<rect width="32" height="32" fill="white"/>
</clipPath>
</defs>
</svg>
