<svg width="194" height="80" viewBox="0 0 194 80" fill="none" xmlns="http://www.w3.org/2000/svg">
<path d="M80.2992 55.5918H84.5147V54.8189H81.1704V48.3973H80.2992V55.5918ZM94.6217 51.9945C94.6217 49.7181 93.2867 48.2989 91.446 48.2989C89.6052 48.2989 88.2702 49.7181 88.2702 51.9945C88.2702 54.2709 89.6052 55.6902 91.446 55.6902C93.2867 55.6902 94.6217 54.2709 94.6217 51.9945ZM93.7786 51.9945C93.7786 53.8634 92.7528 54.8752 91.446 54.8752C90.1391 54.8752 89.1134 53.8634 89.1134 51.9945C89.1134 50.1256 90.1391 49.1139 91.446 49.1139C92.7528 49.1139 93.7786 50.1256 93.7786 51.9945ZM103.972 50.6456H104.872C104.605 49.2544 103.438 48.2989 101.921 48.2989C100.077 48.2989 98.7733 49.7181 98.7733 51.9945C98.7733 54.2709 100.066 55.6902 101.977 55.6902C103.691 55.6902 104.914 54.5484 104.914 52.7674V51.9945H102.174V52.7674H104.071C104.046 54.0601 103.196 54.8752 101.977 54.8752C100.642 54.8752 99.6164 53.8634 99.6164 51.9945C99.6164 50.1256 100.642 49.1139 101.921 49.1139C102.961 49.1139 103.667 49.7006 103.972 50.6456ZM115.444 51.9945C115.444 49.7181 114.109 48.2989 112.268 48.2989C110.428 48.2989 109.093 49.7181 109.093 51.9945C109.093 54.2709 110.428 55.6902 112.268 55.6902C114.109 55.6902 115.444 54.2709 115.444 51.9945ZM114.601 51.9945C114.601 53.8634 113.575 54.8752 112.268 54.8752C110.962 54.8752 109.936 53.8634 109.936 51.9945C109.936 50.1256 110.962 49.1139 112.268 49.1139C113.575 49.1139 114.601 50.1256 114.601 51.9945Z" fill="white"/>
<path d="M2.54548 43.1849C2.1214 43.1849 1.90935 43.1044 1.90935 42.9436C1.90935 42.8412 1.96785 42.7608 2.08484 42.7023C2.20183 42.6438 2.38462 42.5926 2.63322 42.5487C3.20355 42.4464 3.61301 42.2782 3.86161 42.0442C4.12484 41.7956 4.25645 41.4154 4.25645 40.9036V31.0326C4.25645 30.5208 4.14677 30.1552 3.92742 29.9358C3.72269 29.7019 3.34247 29.5337 2.78677 29.4313C2.30419 29.3436 2.0629 29.1973 2.0629 28.9926C2.0629 28.8318 2.27494 28.7513 2.69903 28.7513C3.25473 28.7513 3.92742 28.7659 4.7171 28.7952L6.58161 28.8171L9.58677 28.7952L11.4513 28.7513C11.6999 28.7513 11.8315 28.8171 11.8461 28.9487C11.8754 29.0657 11.9339 29.3875 12.0216 29.9139C12.124 30.4404 12.1752 30.8718 12.1752 31.2081C12.1752 31.4275 12.0728 31.5371 11.8681 31.5371C11.7949 31.5371 11.7438 31.5225 11.7145 31.4933C11.6853 31.464 11.656 31.4055 11.6268 31.3178C11.5975 31.2447 11.539 31.0545 11.4513 30.7475C11.3635 30.4404 11.2612 30.2283 11.1442 30.1113C10.7932 29.7165 10.3033 29.5191 9.67452 29.5191H6.80097C6.65473 29.5191 6.48656 29.5922 6.29645 29.7384C6.10634 29.87 6.01129 30.0309 6.01129 30.221V34.8713C6.01129 35.0029 6.04785 35.1199 6.12097 35.2223C6.20871 35.31 6.30376 35.3539 6.40613 35.3539H8.57774C8.9872 35.3539 9.27237 35.2808 9.43323 35.1345C9.59409 34.9883 9.73301 34.7032 9.85 34.2791C9.93774 33.9573 10.0694 33.7965 10.2448 33.7965C10.3033 33.7965 10.3618 33.833 10.4203 33.9062C10.4934 33.9647 10.53 34.0451 10.53 34.1475L10.5081 34.7178L10.4642 35.6829L10.4861 36.8455L10.5081 37.372C10.5081 37.6206 10.4423 37.7449 10.3106 37.7449C10.0913 37.7449 9.92312 37.5109 9.80613 37.0429C9.71839 36.692 9.59409 36.4434 9.43323 36.2971C9.28699 36.1363 9.07495 36.0558 8.7971 36.0558H6.7571C6.47925 36.0558 6.28183 36.0924 6.16484 36.1655C6.06247 36.2386 6.01129 36.3922 6.01129 36.6262V40.8378C6.01129 41.3789 6.12097 41.7591 6.34032 41.9784C6.5743 42.1978 6.9472 42.3075 7.45903 42.3075H9.08226C9.56484 42.3075 9.95968 42.2782 10.2668 42.2197C10.5885 42.1612 10.859 42.0662 11.0784 41.9345C11.2977 41.7883 11.4952 41.5909 11.6706 41.3423C11.8608 41.0791 12.0801 40.7135 12.3287 40.2455C12.4311 40.0554 12.5334 39.9604 12.6358 39.9604C12.8259 39.9604 12.921 40.0627 12.921 40.2675C12.921 40.4576 12.8405 40.8597 12.6797 41.4739C12.5188 42.0735 12.3726 42.5195 12.241 42.812C12.2263 42.8412 12.2044 42.8924 12.1752 42.9655C12.1459 43.0386 12.1094 43.0898 12.0655 43.1191C12.0362 43.1629 11.9924 43.1849 11.9339 43.1849C11.6414 43.1849 10.3545 43.1629 8.07323 43.1191C7.06419 43.0752 6.06247 43.0533 5.06806 43.0533C4.6586 43.0533 4.27839 43.0752 3.92742 43.1191C3.18161 43.1629 2.72097 43.1849 2.54548 43.1849ZM28.1322 43.4481C27.9567 43.4481 27.6716 43.3238 27.2767 43.0752C26.8965 42.8266 26.5528 42.4902 26.2457 42.0662C26.1288 41.8907 25.2733 40.867 23.6793 38.9952C22.0999 37.1234 20.952 35.7561 20.2354 34.8933C19.0655 33.5186 18.3782 32.707 18.1735 32.4584C17.9834 32.2244 17.8298 32.1075 17.7128 32.1075C17.6397 32.1075 17.5885 32.1586 17.5593 32.261C17.53 32.3487 17.5154 32.4511 17.5154 32.5681C17.4423 36.1801 17.4057 38.9221 17.4057 40.7939C17.4057 41.7883 17.8737 42.3733 18.8096 42.5487C19.0582 42.5926 19.241 42.6438 19.358 42.7023C19.475 42.7608 19.5335 42.8412 19.5335 42.9436C19.5335 43.1044 19.3214 43.1849 18.8974 43.1849C18.3563 43.1849 17.9395 43.1629 17.647 43.1191C17.3546 43.0898 17.084 43.0752 16.8354 43.0752C16.6161 43.0752 16.3602 43.0898 16.0677 43.1191C15.4974 43.1629 15.0879 43.1849 14.8393 43.1849C14.4152 43.1849 14.2032 43.1044 14.2032 42.9436C14.2032 42.8558 14.2543 42.7827 14.3567 42.7242C14.4737 42.6657 14.6638 42.5999 14.927 42.5268C15.6728 42.3221 16.0969 41.7225 16.1993 40.7281C16.3017 39.7776 16.3894 38.498 16.4625 36.8894C16.5503 35.2662 16.5941 33.621 16.5941 31.9539C16.5941 31.2373 16.4113 30.7036 16.0457 30.3526C15.6948 30.0016 15.1537 29.7092 14.4225 29.4752C14.2909 29.4313 14.1447 29.3655 13.9838 29.2778C13.823 29.1754 13.7425 29.0657 13.7425 28.9487C13.7425 28.8318 13.7937 28.7513 13.8961 28.7075C14.0131 28.6636 14.13 28.6416 14.247 28.6416L15.7825 28.7075C16.4845 28.7367 17.0987 28.7513 17.6251 28.7513C17.7421 28.7513 17.8298 28.7806 17.8883 28.8391C17.9614 28.8829 18.0492 28.978 18.1516 29.1242C18.327 29.3728 19.5627 30.8937 21.8587 33.6868C24.1546 36.4799 25.7924 38.4687 26.7722 39.6533C27.0208 39.9457 27.2036 40.092 27.3206 40.092C27.4522 40.092 27.5253 39.9384 27.5399 39.6313C27.5692 38.5199 27.5838 35.544 27.5838 30.7036C27.5692 30.4404 27.4156 30.1844 27.1232 29.9358C26.8453 29.6872 26.5748 29.541 26.3116 29.4971C25.6535 29.3801 25.3245 29.2339 25.3245 29.0584C25.3245 28.9853 25.4195 28.9268 25.6096 28.8829C25.7997 28.8391 26.0045 28.8171 26.2238 28.8171H27.4741L28.5709 28.7952C29.0389 28.7659 29.5141 28.7513 29.9967 28.7513C30.4208 28.7513 30.6328 28.8318 30.6328 28.9926C30.6328 29.1973 30.3916 29.3436 29.909 29.4313C29.3679 29.5337 29.0096 29.6653 28.8341 29.8262C28.6587 29.987 28.5563 30.2502 28.527 30.6158C28.4978 31.1423 28.4832 34.5277 28.4832 40.772C28.4832 41.3569 28.5124 41.9126 28.5709 42.4391L28.5928 42.8997C28.5928 43.2653 28.4393 43.4481 28.1322 43.4481ZM32.1682 43.1849C31.7441 43.1849 31.532 43.1044 31.532 42.9436C31.532 42.8412 31.5905 42.7608 31.7075 42.7023C31.8245 42.6438 32.0073 42.5926 32.2559 42.5487C32.8116 42.4464 33.1918 42.2782 33.3965 42.0442C33.6159 41.7956 33.7256 41.4008 33.7256 40.8597V30.9887C33.7256 30.4915 33.6159 30.1333 33.3965 29.9139C33.1918 29.6945 32.8116 29.5337 32.2559 29.4313C31.7733 29.3436 31.532 29.1973 31.532 28.9926C31.532 28.8318 31.7441 28.7513 32.1682 28.7513L33.5282 28.7733C33.7475 28.7879 34.1131 28.7952 34.6249 28.7952C35.0344 28.7952 35.3196 28.7879 35.4804 28.7733L36.7527 28.7513C37.1768 28.7513 37.3888 28.8318 37.3888 28.9926C37.3888 29.1973 37.1475 29.3436 36.6649 29.4313C36.1531 29.5191 35.8241 29.6799 35.6778 29.9139C35.5462 30.1479 35.4804 30.5062 35.4804 30.9887V35.0907C35.4804 35.3685 35.517 35.5075 35.5901 35.5075C35.6632 35.5075 35.7583 35.4709 35.8753 35.3978C35.9922 35.31 36.0946 35.215 36.1824 35.1126L40.5694 30.6378C40.7888 30.4184 40.8985 30.1991 40.8985 29.9797C40.8985 29.8627 40.8619 29.7604 40.7888 29.6726C40.7157 29.5702 40.6133 29.5044 40.4817 29.4752C40.2331 29.4021 40.0576 29.3363 39.9553 29.2778C39.8529 29.2193 39.8017 29.1388 39.8017 29.0365C39.8017 28.8756 40.0138 28.7952 40.4378 28.7952H41.6224C41.9587 28.7952 42.8946 28.7733 44.4301 28.7294L45.1759 28.7075C45.3221 28.7075 45.4391 28.7294 45.5269 28.7733C45.6146 28.8171 45.6585 28.8756 45.6585 28.9487C45.6585 29.1535 45.4172 29.2997 44.9346 29.3875C43.56 29.6361 42.4486 30.1186 41.6004 30.8352C40.8107 31.4933 40.1015 32.1294 39.4727 32.7436C38.8585 33.3578 38.1639 34.089 37.3888 34.9371C37.3596 34.9664 37.3449 35.0029 37.3449 35.0468C37.3449 35.1345 37.3961 35.2296 37.4985 35.332L42.8069 40.9913C43.3187 41.5616 43.6989 41.9345 43.9475 42.11C44.1961 42.2709 44.6202 42.4171 45.2198 42.5487C45.483 42.6072 45.6658 42.6657 45.7682 42.7242C45.8851 42.7827 45.9436 42.8558 45.9436 42.9436C45.9436 43.1044 45.7316 43.1849 45.3075 43.1849C44.7226 43.1849 44.1961 43.1629 43.7282 43.1191C43.1432 43.0898 42.6533 43.0752 42.2585 43.0752H41.6443C41.4542 43.0898 41.0667 43.0971 40.4817 43.0971C40.0576 43.0971 39.8456 43.0167 39.8456 42.8558C39.8456 42.7535 39.8894 42.6804 39.9772 42.6365C40.0649 42.578 40.2185 42.5268 40.4378 42.4829C40.8473 42.3806 41.052 42.2343 41.052 42.0442C41.052 41.9272 40.9424 41.7444 40.723 41.4958L36.0727 36.3629C35.8241 36.1143 35.6559 35.99 35.5682 35.99C35.5097 35.99 35.4804 36.0924 35.4804 36.2971C35.4804 37.1892 35.517 38.6442 35.5901 40.6623C35.6193 41.1887 35.729 41.6128 35.9191 41.9345C36.1239 42.2563 36.4821 42.461 36.994 42.5487C37.2426 42.5926 37.4254 42.6438 37.5424 42.7023C37.6593 42.7608 37.7178 42.8412 37.7178 42.9436C37.7178 43.1044 37.5058 43.1849 37.0817 43.1849C36.6137 43.1849 36.1897 43.1556 35.8094 43.0971C35.5462 43.0533 35.2537 43.0313 34.932 43.0313C34.6834 43.0313 34.4275 43.0459 34.1643 43.0752C33.9157 43.0898 33.7329 43.0971 33.6159 43.0971C33.0602 43.1556 32.5776 43.1849 32.1682 43.1849ZM46.9892 43.1849C46.7991 43.1849 46.6455 43.1556 46.5285 43.0971C46.4262 43.0533 46.375 42.9948 46.375 42.9216C46.375 42.7462 46.5358 42.6219 46.8576 42.5487C47.4571 42.4318 47.9032 42.2563 48.1956 42.0223C48.4881 41.7883 48.6343 41.4373 48.6343 40.9694V30.7913C48.6343 30.4404 48.5978 30.1844 48.5247 30.0236C48.4515 29.8481 48.3272 29.7238 48.1518 29.6507C47.9909 29.5776 47.7057 29.5044 47.2963 29.4313C46.8137 29.3436 46.5724 29.1973 46.5724 28.9926C46.5724 28.8318 46.7844 28.7513 47.2085 28.7513C47.6472 28.7513 48.1006 28.7659 48.5685 28.7952L49.6653 28.8171L50.9814 28.7952C51.5371 28.7659 52.0197 28.7513 52.4292 28.7513C52.8533 28.7513 53.0653 28.8318 53.0653 28.9926C53.0653 29.1973 52.824 29.3436 52.3414 29.4313C51.6541 29.5629 51.1569 29.7019 50.8498 29.8481C50.5427 29.9943 50.3892 30.2576 50.3892 30.6378V40.9694C50.3892 41.452 50.4989 41.7956 50.7182 42.0004C50.9376 42.2051 51.3909 42.3075 52.0782 42.3075H54.7982C55.1638 42.3075 55.5001 42.249 55.8072 42.132C56.1143 42.015 56.3483 41.8834 56.5092 41.7371C56.8017 41.4885 57.0137 41.2692 57.1453 41.0791C57.2915 40.8743 57.4597 40.5745 57.6498 40.1797C57.7083 40.0335 57.7814 39.8872 57.8692 39.741C57.9569 39.5948 58.0447 39.5216 58.1324 39.5216C58.2201 39.5216 58.286 39.5655 58.3298 39.6533C58.3737 39.7264 58.3956 39.8141 58.3956 39.9165L58.3737 40.0262C58.1836 40.7281 58.0447 41.2692 57.9569 41.6494C57.8838 42.015 57.8253 42.4025 57.7814 42.812C57.7522 43.0606 57.6498 43.1849 57.4743 43.1849C55.9096 43.1849 54.4692 43.1629 53.1531 43.1191C51.6614 43.0898 50.5939 43.0752 49.9505 43.0752C49.4971 43.0752 48.9414 43.0898 48.2834 43.1191C47.6253 43.1483 47.1939 43.1702 46.9892 43.1849ZM59.185 43.1849C58.9949 43.1849 58.8413 43.1556 58.7243 43.0971C58.6073 43.0533 58.5488 42.9875 58.5488 42.8997C58.5488 42.7096 58.7901 42.5414 59.2727 42.3952C59.6968 42.2636 60.0624 42.0808 60.3695 41.8468C60.6766 41.5982 60.9398 41.218 61.1592 40.7062C61.9342 38.9221 62.6069 37.3062 63.1772 35.8584C63.7622 34.3961 64.4568 32.5754 65.2611 30.3965C65.422 29.9431 65.5243 29.5191 65.5682 29.1242C65.6121 29.1096 65.7144 29.0804 65.8753 29.0365C66.0508 28.978 66.2116 28.8976 66.3579 28.7952C66.4749 28.7075 66.5626 28.5758 66.6211 28.4004C66.6942 28.2249 66.7454 28.1079 66.7746 28.0494C66.7893 28.0348 66.8039 28.0348 66.8185 28.0494C66.8478 28.0494 66.8697 28.0567 66.8843 28.0713C66.9136 28.1444 66.9355 28.2249 66.9501 28.3126C66.9794 28.4004 67.0086 28.4808 67.0379 28.5539C68.12 31.9612 69.4215 35.8657 70.9424 40.2675C71.2202 41.0718 71.5273 41.6201 71.8637 41.9126C72.2 42.1905 72.6314 42.3733 73.1579 42.461C73.3919 42.5049 73.5673 42.578 73.6843 42.6804C73.8159 42.7681 73.8817 42.8632 73.8817 42.9655C73.8817 43.1118 73.6697 43.1849 73.2456 43.1849L72.0611 43.141C71.2422 43.0825 70.6207 43.0533 70.1966 43.0533L67.8934 43.0752C67.4693 43.0752 67.2572 42.9875 67.2572 42.812C67.2572 42.7242 67.323 42.6438 67.4546 42.5707C67.6009 42.4829 67.7764 42.4244 67.9811 42.3952C68.8731 42.249 69.3192 41.9199 69.3192 41.4081C69.3192 40.9401 69.034 39.7556 68.4637 37.8545C68.4344 37.7522 68.3759 37.6864 68.2882 37.6571C68.2151 37.6279 68.0762 37.6133 67.8714 37.6133H63.7256C63.5648 37.6133 63.4405 37.7449 63.3527 38.0081C63.1918 38.4761 63.0017 39.0902 62.7824 39.8507C62.563 40.5965 62.4534 41.0352 62.4534 41.1668C62.4534 41.4739 62.5703 41.7371 62.8043 41.9565C63.0529 42.1758 63.36 42.3294 63.7256 42.4171C63.9888 42.4902 64.1716 42.5561 64.274 42.6146C64.391 42.673 64.4495 42.7535 64.4495 42.8558C64.4495 43.0167 64.2374 43.0971 63.8134 43.0971C63.5501 43.0971 63.3308 43.0898 63.1553 43.0752L61.8172 43.0533C61.5686 43.0533 61.2908 43.0606 60.9837 43.0752C60.6912 43.1044 60.4718 43.1191 60.3256 43.1191C59.9161 43.1629 59.5359 43.1849 59.185 43.1849ZM67.7179 36.8894C67.8056 36.8894 67.8787 36.8821 67.9372 36.8675C67.9957 36.8528 68.025 36.8236 68.025 36.7797L67.9811 36.5604L66.2701 31.2081C66.1824 30.9449 66.1166 30.8133 66.0727 30.8133C66.0435 30.8133 65.985 30.9376 65.8972 31.1862L63.9011 36.5604L63.8572 36.7358C63.8572 36.809 63.8865 36.8528 63.945 36.8675C64.0181 36.8821 64.1424 36.8894 64.3179 36.8894H67.7179ZM78.0656 43.4262C78.0217 43.4262 77.9194 43.2214 77.7585 42.812L73.0204 30.9229C72.6695 30.1625 72.143 29.6799 71.4411 29.4752C71.1925 29.3875 71.0097 29.307 70.8927 29.2339C70.7757 29.1608 70.7172 29.0804 70.7172 28.9926C70.7172 28.8318 70.9293 28.7513 71.3533 28.7513L72.2746 28.7733C72.7133 28.8025 73.057 28.8171 73.3056 28.8171L74.6217 28.7952C74.8118 28.7806 75.0531 28.7733 75.3456 28.7733C75.7697 28.7733 75.9817 28.8537 75.9817 29.0145C75.9817 29.1169 75.9232 29.1973 75.8062 29.2558C75.7039 29.3143 75.5211 29.3801 75.2579 29.4533C74.9654 29.5264 74.8191 29.7677 74.8191 30.1771C74.8191 30.3672 74.8411 30.5573 74.885 30.7475C74.9434 30.9376 74.98 31.0619 74.9946 31.1204C75.6527 32.8167 76.2303 34.2644 76.7275 35.4636C77.2247 36.6481 77.8462 38.0739 78.592 39.741C78.6505 39.8872 78.709 39.9604 78.7675 39.9604C78.826 39.9604 78.8772 39.8945 78.9211 39.7629L80.632 35.5294C80.7198 35.31 80.7637 35.1419 80.7637 35.0249C80.7637 34.9079 80.7052 34.6958 80.5882 34.3887L79.3379 31.2739C79.1624 30.8352 78.8772 30.455 78.4824 30.1333C78.0875 29.8115 77.6781 29.5922 77.254 29.4752C77.0054 29.4021 76.8226 29.329 76.7056 29.2558C76.5886 29.1681 76.5301 29.0804 76.5301 28.9926C76.5301 28.8318 76.7422 28.7513 77.1662 28.7513L78.1095 28.7733C78.5774 28.8025 78.9503 28.8171 79.2282 28.8171L80.2372 28.7952C80.4127 28.7806 80.6394 28.7733 80.9172 28.7733C81.3413 28.7733 81.5533 28.8537 81.5533 29.0145C81.5533 29.0877 81.5168 29.1535 81.4437 29.212C81.3852 29.2705 81.2901 29.3363 81.1585 29.4094C80.8222 29.5556 80.654 29.7311 80.654 29.9358C80.654 29.9651 80.6686 30.0236 80.6979 30.1113C80.8002 30.4038 80.9465 30.8059 81.1366 31.3178C81.3413 31.815 81.5241 32.2391 81.685 32.59C81.6996 32.6193 81.7215 32.6778 81.7508 32.7655C81.7946 32.8386 81.8385 32.8752 81.8824 32.8752C81.9262 32.8752 81.992 32.7801 82.0798 32.59C82.3723 31.932 82.6647 31.1057 82.9572 30.1113C82.9718 30.0675 82.9791 30.0163 82.9791 29.9578C82.9791 29.8262 82.9353 29.7238 82.8475 29.6507C82.7744 29.5629 82.6647 29.4752 82.5185 29.3875C82.5039 29.3728 82.46 29.3436 82.3869 29.2997C82.3138 29.2558 82.2553 29.212 82.2114 29.1681C82.1822 29.1242 82.1675 29.073 82.1675 29.0145C82.1675 28.8537 82.3796 28.7733 82.8037 28.7733L83.5056 28.7952C83.5933 28.8098 83.7396 28.8171 83.9443 28.8171L84.5804 28.7952C84.8437 28.7659 85.063 28.7513 85.2385 28.7513C85.6626 28.7513 85.8746 28.8318 85.8746 28.9926C85.8746 29.1827 85.6333 29.329 85.1508 29.4313C84.7121 29.5337 84.405 29.6507 84.2295 29.7823C84.054 29.9139 83.8639 30.1479 83.6591 30.4842C83.5422 30.689 83.3594 31.0692 83.1108 31.6249C82.8768 32.1806 82.6721 32.6997 82.4966 33.1823C82.4381 33.3139 82.3942 33.4675 82.365 33.6429C82.3357 33.8184 82.3357 33.9427 82.365 34.0158L84.6243 39.8287C84.6536 39.8872 84.6755 39.9165 84.6901 39.9165C84.734 39.9165 84.7925 39.8434 84.8656 39.6971C85.4213 38.2201 86.3133 35.3905 87.5417 31.2081C87.6295 30.9449 87.6733 30.6816 87.6733 30.4184C87.6733 29.9066 87.454 29.5922 87.0153 29.4752C86.5327 29.3436 86.2914 29.1973 86.2914 29.0365C86.2914 28.8756 86.5034 28.7952 86.9275 28.7952L88.5069 28.8171C88.7847 28.8171 89.1576 28.8025 89.6256 28.7733L90.4811 28.7513C90.9052 28.7513 91.1172 28.8318 91.1172 28.9926C91.1172 29.1827 90.8759 29.329 90.3933 29.4313C89.6183 29.6068 89.0187 30.2502 88.5946 31.3616L84.7121 42.8339C84.6828 42.9216 84.6316 43.024 84.5585 43.141C84.5 43.2726 84.4342 43.3384 84.3611 43.3384C84.3026 43.3384 84.2368 43.2946 84.1637 43.2068C84.0905 43.1191 84.0321 43.024 83.9882 42.9216C83.4471 41.7079 82.8768 40.2967 82.2772 38.6881L81.2901 36.1436C81.2462 36.0558 81.217 36.012 81.2024 36.012C81.1731 36.012 81.1219 36.0997 81.0488 36.2752C80.5516 37.4597 80.1275 38.4907 79.7766 39.3681C79.4402 40.2455 79.0308 41.3715 78.5482 42.7462C78.4897 42.9216 78.4166 43.0752 78.3288 43.2068C78.2411 43.353 78.1533 43.4262 78.0656 43.4262ZM88.5537 43.1849C88.3636 43.1849 88.21 43.1556 88.093 43.0971C87.976 43.0533 87.9175 42.9875 87.9175 42.8997C87.9175 42.7096 88.1588 42.5414 88.6414 42.3952C89.0655 42.2636 89.4311 42.0808 89.7382 41.8468C90.0453 41.5982 90.3085 41.218 90.5279 40.7062C91.3029 38.9221 91.9756 37.3062 92.5459 35.8584C93.1309 34.3961 93.8255 32.5754 94.6298 30.3965C94.7907 29.9431 94.893 29.5191 94.9369 29.1242C94.9808 29.1096 95.0831 29.0804 95.244 29.0365C95.4195 28.978 95.5803 28.8976 95.7266 28.7952C95.8436 28.7075 95.9313 28.5758 95.9898 28.4004C96.0629 28.2249 96.1141 28.1079 96.1434 28.0494C96.158 28.0348 96.1726 28.0348 96.1872 28.0494C96.2165 28.0494 96.2384 28.0567 96.253 28.0713C96.2823 28.1444 96.3042 28.2249 96.3188 28.3126C96.3481 28.4004 96.3773 28.4808 96.4066 28.5539C97.4887 31.9612 98.7902 35.8657 100.311 40.2675C100.589 41.0718 100.896 41.6201 101.232 41.9126C101.569 42.1905 102 42.3733 102.527 42.461C102.761 42.5049 102.936 42.578 103.053 42.6804C103.185 42.7681 103.25 42.8632 103.25 42.9655C103.25 43.1118 103.038 43.1849 102.614 43.1849L101.43 43.141C100.611 43.0825 99.9894 43.0533 99.5653 43.0533L97.2621 43.0752C96.838 43.0752 96.6259 42.9875 96.6259 42.812C96.6259 42.7242 96.6917 42.6438 96.8234 42.5707C96.9696 42.4829 97.1451 42.4244 97.3498 42.3952C98.2419 42.249 98.6879 41.9199 98.6879 41.4081C98.6879 40.9401 98.4027 39.7556 97.8324 37.8545C97.8031 37.7522 97.7446 37.6864 97.6569 37.6571C97.5838 37.6279 97.4449 37.6133 97.2401 37.6133H93.0943C92.9335 37.6133 92.8092 37.7449 92.7214 38.0081C92.5606 38.4761 92.3705 39.0902 92.1511 39.8507C91.9317 40.5965 91.8221 41.0352 91.8221 41.1668C91.8221 41.4739 91.9391 41.7371 92.173 41.9565C92.4216 42.1758 92.7287 42.3294 93.0943 42.4171C93.3575 42.4902 93.5403 42.5561 93.6427 42.6146C93.7597 42.673 93.8182 42.7535 93.8182 42.8558C93.8182 43.0167 93.6062 43.0971 93.1821 43.0971C92.9188 43.0971 92.6995 43.0898 92.524 43.0752L91.1859 43.0533C90.9373 43.0533 90.6595 43.0606 90.3524 43.0752C90.0599 43.1044 89.8406 43.1191 89.6943 43.1191C89.2849 43.1629 88.9046 43.1849 88.5537 43.1849ZM97.0866 36.8894C97.1743 36.8894 97.2474 36.8821 97.3059 36.8675C97.3644 36.8528 97.3937 36.8236 97.3937 36.7797L97.3498 36.5604L95.6388 31.2081C95.5511 30.9449 95.4853 30.8133 95.4414 30.8133C95.4122 30.8133 95.3537 30.9376 95.2659 31.1862L93.2698 36.5604L93.2259 36.7358C93.2259 36.809 93.2552 36.8528 93.3137 36.8675C93.3868 36.8821 93.5111 36.8894 93.6866 36.8894H97.0866ZM108.857 43.1849C108.433 43.1849 108.221 43.1044 108.221 42.9436C108.221 42.8412 108.279 42.7608 108.396 42.7023C108.513 42.6438 108.696 42.5926 108.944 42.5487C109.5 42.4464 109.88 42.2782 110.085 42.0442C110.304 41.7956 110.414 41.4008 110.414 40.8597V30.9887C110.414 30.4915 110.304 30.1333 110.085 29.9139C109.88 29.6945 109.5 29.5337 108.944 29.4313C108.462 29.3436 108.221 29.1973 108.221 28.9926C108.221 28.8318 108.433 28.7513 108.857 28.7513L110.217 28.7733C110.436 28.7879 110.802 28.7952 111.313 28.7952C111.723 28.7952 112.008 28.7879 112.169 28.7733L113.441 28.7513C113.865 28.7513 114.077 28.8318 114.077 28.9926C114.077 29.1973 113.836 29.3436 113.353 29.4313C112.842 29.5191 112.513 29.6799 112.366 29.9139C112.235 30.1479 112.169 30.5062 112.169 30.9887V35.0907C112.169 35.3685 112.205 35.5075 112.279 35.5075C112.352 35.5075 112.447 35.4709 112.564 35.3978C112.681 35.31 112.783 35.215 112.871 35.1126L117.258 30.6378C117.477 30.4184 117.587 30.1991 117.587 29.9797C117.587 29.8627 117.55 29.7604 117.477 29.6726C117.404 29.5702 117.302 29.5044 117.17 29.4752C116.922 29.4021 116.746 29.3363 116.644 29.2778C116.541 29.2193 116.49 29.1388 116.49 29.0365C116.49 28.8756 116.702 28.7952 117.126 28.7952H118.311C118.647 28.7952 119.583 28.7733 121.119 28.7294L121.864 28.7075C122.011 28.7075 122.128 28.7294 122.215 28.7733C122.303 28.8171 122.347 28.8756 122.347 28.9487C122.347 29.1535 122.106 29.2997 121.623 29.3875C120.249 29.6361 119.137 30.1186 118.289 30.8352C117.499 31.4933 116.79 32.1294 116.161 32.7436C115.547 33.3578 114.852 34.089 114.077 34.9371C114.048 34.9664 114.033 35.0029 114.033 35.0468C114.033 35.1345 114.085 35.2296 114.187 35.332L119.495 40.9913C120.007 41.5616 120.387 41.9345 120.636 42.11C120.885 42.2709 121.309 42.4171 121.908 42.5487C122.172 42.6072 122.354 42.6657 122.457 42.7242C122.574 42.7827 122.632 42.8558 122.632 42.9436C122.632 43.1044 122.42 43.1849 121.996 43.1849C121.411 43.1849 120.885 43.1629 120.417 43.1191C119.832 43.0898 119.342 43.0752 118.947 43.0752H118.333C118.143 43.0898 117.755 43.0971 117.17 43.0971C116.746 43.0971 116.534 43.0167 116.534 42.8558C116.534 42.7535 116.578 42.6804 116.666 42.6365C116.753 42.578 116.907 42.5268 117.126 42.4829C117.536 42.3806 117.741 42.2343 117.741 42.0442C117.741 41.9272 117.631 41.7444 117.412 41.4958L112.761 36.3629C112.513 36.1143 112.344 35.99 112.257 35.99C112.198 35.99 112.169 36.0924 112.169 36.2971C112.169 37.1892 112.205 38.6442 112.279 40.6623C112.308 41.1887 112.418 41.6128 112.608 41.9345C112.812 42.2563 113.171 42.461 113.682 42.5487C113.931 42.5926 114.114 42.6438 114.231 42.7023C114.348 42.7608 114.406 42.8412 114.406 42.9436C114.406 43.1044 114.194 43.1849 113.77 43.1849C113.302 43.1849 112.878 43.1556 112.498 43.0971C112.235 43.0533 111.942 43.0313 111.621 43.0313C111.372 43.0313 111.116 43.0459 110.853 43.0752C110.604 43.0898 110.421 43.0971 110.304 43.0971C109.749 43.1556 109.266 43.1849 108.857 43.1849ZM123.064 43.1849C122.873 43.1849 122.72 43.1556 122.603 43.0971C122.486 43.0533 122.427 42.9875 122.427 42.8997C122.427 42.7096 122.669 42.5414 123.151 42.3952C123.575 42.2636 123.941 42.0808 124.248 41.8468C124.555 41.5982 124.818 41.218 125.038 40.7062C125.813 38.9221 126.485 37.3062 127.056 35.8584C127.641 34.3961 128.335 32.5754 129.14 30.3965C129.301 29.9431 129.403 29.5191 129.447 29.1242C129.491 29.1096 129.593 29.0804 129.754 29.0365C129.929 28.978 130.09 28.8976 130.236 28.7952C130.353 28.7075 130.441 28.5758 130.5 28.4004C130.573 28.2249 130.624 28.1079 130.653 28.0494C130.668 28.0348 130.682 28.0348 130.697 28.0494C130.726 28.0494 130.748 28.0567 130.763 28.0713C130.792 28.1444 130.814 28.2249 130.829 28.3126C130.858 28.4004 130.887 28.4808 130.916 28.5539C131.999 31.9612 133.3 35.8657 134.821 40.2675C135.099 41.0718 135.406 41.6201 135.742 41.9126C136.079 42.1905 136.51 42.3733 137.036 42.461C137.27 42.5049 137.446 42.578 137.563 42.6804C137.694 42.7681 137.76 42.8632 137.76 42.9655C137.76 43.1118 137.548 43.1849 137.124 43.1849L135.94 43.141C135.121 43.0825 134.499 43.0533 134.075 43.0533L131.772 43.0752C131.348 43.0752 131.136 42.9875 131.136 42.812C131.136 42.7242 131.202 42.6438 131.333 42.5707C131.479 42.4829 131.655 42.4244 131.86 42.3952C132.752 42.249 133.198 41.9199 133.198 41.4081C133.198 40.9401 132.913 39.7556 132.342 37.8545C132.313 37.7522 132.254 37.6864 132.167 37.6571C132.094 37.6279 131.955 37.6133 131.75 37.6133H127.604C127.443 37.6133 127.319 37.7449 127.231 38.0081C127.07 38.4761 126.88 39.0902 126.661 39.8507C126.442 40.5965 126.332 41.0352 126.332 41.1668C126.332 41.4739 126.449 41.7371 126.683 41.9565C126.931 42.1758 127.239 42.3294 127.604 42.4171C127.867 42.4902 128.05 42.5561 128.153 42.6146C128.27 42.673 128.328 42.7535 128.328 42.8558C128.328 43.0167 128.116 43.0971 127.692 43.0971C127.429 43.0971 127.209 43.0898 127.034 43.0752L125.696 43.0533C125.447 43.0533 125.169 43.0606 124.862 43.0752C124.57 43.1044 124.35 43.1191 124.204 43.1191C123.795 43.1629 123.414 43.1849 123.064 43.1849ZM131.596 36.8894C131.684 36.8894 131.757 36.8821 131.816 36.8675C131.874 36.8528 131.904 36.8236 131.904 36.7797L131.86 36.5604L130.149 31.2081C130.061 30.9449 129.995 30.8133 129.951 30.8133C129.922 30.8133 129.864 30.9376 129.776 31.1862L127.78 36.5604L127.736 36.7358C127.736 36.809 127.765 36.8528 127.824 36.8675C127.897 36.8821 128.021 36.8894 128.196 36.8894H131.596ZM151.632 43.5358C150.959 43.5358 150.374 43.4481 149.877 43.2726C149.394 43.0971 148.97 42.79 148.605 42.3513C147.932 41.5178 147.376 40.8085 146.938 40.2236C146.499 39.624 145.943 38.7758 145.271 37.6791C145.051 37.3135 144.737 37.0283 144.327 36.8236C143.845 36.5896 143.267 36.4361 142.594 36.3629H142.551C142.361 36.3629 142.265 36.5092 142.265 36.8016V40.6623C142.265 41.7444 142.755 42.3733 143.735 42.5487C143.984 42.5926 144.167 42.6438 144.284 42.7023C144.401 42.7608 144.459 42.8412 144.459 42.9436C144.459 43.1044 144.247 43.1849 143.823 43.1849C143.355 43.1849 142.931 43.1556 142.551 43.0971C142.287 43.0533 141.995 43.0313 141.673 43.0313C141.41 43.0313 141.139 43.0459 140.862 43.0752C140.598 43.0898 140.408 43.0971 140.291 43.0971C139.706 43.1556 139.216 43.1849 138.822 43.1849C138.397 43.1849 138.185 43.1044 138.185 42.9436C138.185 42.8412 138.244 42.7608 138.361 42.7023C138.478 42.6438 138.661 42.5926 138.909 42.5487C139.48 42.4464 139.889 42.2782 140.138 42.0442C140.386 41.7956 140.511 41.4081 140.511 40.8816V31.5371C140.511 30.9229 140.481 30.4915 140.423 30.2429C140.379 29.9797 140.262 29.7896 140.072 29.6726C139.896 29.5556 139.597 29.4752 139.173 29.4313C138.939 29.4167 138.756 29.3655 138.624 29.2778C138.507 29.19 138.449 29.095 138.449 28.9926C138.449 28.8318 138.661 28.7513 139.085 28.7513C139.714 28.7513 140.123 28.7586 140.313 28.7733H141.234C141.454 28.7733 141.783 28.7586 142.222 28.7294C143.011 28.6855 143.523 28.6636 143.757 28.6636C145.366 28.6636 146.587 28.9707 147.42 29.5849C148.268 30.1844 148.693 31.0765 148.693 32.261C148.693 33.8404 147.83 35.0687 146.104 35.9462C146.06 35.9608 146.038 35.9973 146.038 36.0558C146.038 36.0997 146.06 36.1582 146.104 36.2313C147.025 37.6206 147.764 38.6881 148.32 39.4339C148.89 40.1797 149.636 40.9694 150.557 41.8029C150.908 42.11 151.266 42.3075 151.632 42.3952C151.997 42.4829 152.48 42.5268 153.08 42.5268C153.299 42.5268 153.409 42.6072 153.409 42.7681C153.409 43.0459 153.211 43.2434 152.816 43.3604C152.436 43.4773 152.041 43.5358 151.632 43.5358ZM143.428 35.8584C144.071 35.8584 144.642 35.7122 145.139 35.4197C145.651 35.1126 146.038 34.7105 146.302 34.2133C146.579 33.7161 146.718 33.1823 146.718 32.612C146.718 31.5737 146.499 30.7694 146.06 30.1991C145.622 29.6141 144.766 29.3216 143.494 29.3216C143.041 29.3216 142.733 29.4679 142.573 29.7604C142.426 30.0382 142.339 30.572 142.309 31.3616C142.28 32.3561 142.265 33.5991 142.265 35.0907C142.265 35.427 142.353 35.6391 142.529 35.7268C142.704 35.8145 143.004 35.8584 143.428 35.8584ZM158.117 43.4262C158.073 43.4262 157.971 43.2214 157.81 42.812L153.072 30.9229C152.721 30.1625 152.195 29.6799 151.493 29.4752C151.244 29.3875 151.061 29.307 150.944 29.2339C150.827 29.1608 150.769 29.0804 150.769 28.9926C150.769 28.8318 150.981 28.7513 151.405 28.7513L152.326 28.7733C152.765 28.8025 153.109 28.8171 153.357 28.8171L154.673 28.7952C154.864 28.7806 155.105 28.7733 155.397 28.7733C155.821 28.7733 156.033 28.8537 156.033 29.0145C156.033 29.1169 155.975 29.1973 155.858 29.2558C155.756 29.3143 155.573 29.3801 155.31 29.4533C155.017 29.5264 154.871 29.7677 154.871 30.1771C154.871 30.3672 154.893 30.5573 154.937 30.7475C154.995 30.9376 155.032 31.0619 155.046 31.1204C155.704 32.8167 156.282 34.2644 156.779 35.4636C157.276 36.6481 157.898 38.0739 158.644 39.741C158.702 39.8872 158.761 39.9604 158.819 39.9604C158.878 39.9604 158.929 39.8945 158.973 39.7629L160.684 35.5294C160.771 35.31 160.815 35.1419 160.815 35.0249C160.815 34.9079 160.757 34.6958 160.64 34.3887L159.39 31.2739C159.214 30.8352 158.929 30.455 158.534 30.1333C158.139 29.8115 157.73 29.5922 157.306 29.4752C157.057 29.4021 156.874 29.329 156.757 29.2558C156.64 29.1681 156.582 29.0804 156.582 28.9926C156.582 28.8318 156.794 28.7513 157.218 28.7513L158.161 28.7733C158.629 28.8025 159.002 28.8171 159.28 28.8171L160.289 28.7952C160.464 28.7806 160.691 28.7733 160.969 28.7733C161.393 28.7733 161.605 28.8537 161.605 29.0145C161.605 29.0877 161.568 29.1535 161.495 29.212C161.437 29.2705 161.342 29.3363 161.21 29.4094C160.874 29.5556 160.706 29.7311 160.706 29.9358C160.706 29.9651 160.72 30.0236 160.75 30.1113C160.852 30.4038 160.998 30.8059 161.188 31.3178C161.393 31.815 161.576 32.2391 161.737 32.59C161.751 32.6193 161.773 32.6778 161.802 32.7655C161.846 32.8386 161.89 32.8752 161.934 32.8752C161.978 32.8752 162.044 32.7801 162.131 32.59C162.424 31.932 162.716 31.1057 163.009 30.1113C163.024 30.0675 163.031 30.0163 163.031 29.9578C163.031 29.8262 162.987 29.7238 162.899 29.6507C162.826 29.5629 162.716 29.4752 162.57 29.3875C162.556 29.3728 162.512 29.3436 162.439 29.2997C162.365 29.2558 162.307 29.212 162.263 29.1681C162.234 29.1242 162.219 29.073 162.219 29.0145C162.219 28.8537 162.431 28.7733 162.855 28.7733L163.557 28.7952C163.645 28.8098 163.791 28.8171 163.996 28.8171L164.632 28.7952C164.895 28.7659 165.115 28.7513 165.29 28.7513C165.714 28.7513 165.926 28.8318 165.926 28.9926C165.926 29.1827 165.685 29.329 165.202 29.4313C164.764 29.5337 164.457 29.6507 164.281 29.7823C164.106 29.9139 163.916 30.1479 163.711 30.4842C163.594 30.689 163.411 31.0692 163.162 31.6249C162.928 32.1806 162.724 32.6997 162.548 33.1823C162.49 33.3139 162.446 33.4675 162.417 33.6429C162.387 33.8184 162.387 33.9427 162.417 34.0158L164.676 39.8287C164.705 39.8872 164.727 39.9165 164.742 39.9165C164.786 39.9165 164.844 39.8434 164.917 39.6971C165.473 38.2201 166.365 35.3905 167.593 31.2081C167.681 30.9449 167.725 30.6816 167.725 30.4184C167.725 29.9066 167.506 29.5922 167.067 29.4752C166.584 29.3436 166.343 29.1973 166.343 29.0365C166.343 28.8756 166.555 28.7952 166.979 28.7952L168.559 28.8171C168.836 28.8171 169.209 28.8025 169.677 28.7733L170.533 28.7513C170.957 28.7513 171.169 28.8318 171.169 28.9926C171.169 29.1827 170.928 29.329 170.445 29.4313C169.67 29.6068 169.07 30.2502 168.646 31.3616L164.764 42.8339C164.734 42.9216 164.683 43.024 164.61 43.141C164.552 43.2726 164.486 43.3384 164.413 43.3384C164.354 43.3384 164.288 43.2946 164.215 43.2068C164.142 43.1191 164.084 43.024 164.04 42.9216C163.499 41.7079 162.928 40.2967 162.329 38.6881L161.342 36.1436C161.298 36.0558 161.269 36.012 161.254 36.012C161.225 36.012 161.174 36.0997 161.101 36.2752C160.603 37.4597 160.179 38.4907 159.828 39.3681C159.492 40.2455 159.082 41.3715 158.6 42.7462C158.541 42.9216 158.468 43.0752 158.381 43.2068C158.293 43.353 158.205 43.4262 158.117 43.4262ZM171.915 43.1849C171.491 43.1849 171.279 43.1044 171.279 42.9436C171.279 42.8412 171.337 42.7608 171.454 42.7023C171.571 42.6438 171.754 42.5926 172.003 42.5487C172.588 42.4464 173.019 42.2782 173.297 42.0442C173.575 41.7956 173.714 41.4227 173.714 40.9255V31.0107C173.714 30.4988 173.604 30.1333 173.385 29.9139C173.18 29.6945 172.8 29.5337 172.244 29.4313C171.761 29.3436 171.52 29.1973 171.52 28.9926C171.52 28.8318 171.732 28.7513 172.156 28.7513C172.566 28.7513 173.034 28.7659 173.56 28.7952L174.723 28.8171L175.776 28.7952C176.244 28.7659 176.69 28.7513 177.114 28.7513C177.538 28.7513 177.75 28.8318 177.75 28.9926C177.75 29.1973 177.509 29.3436 177.026 29.4313C176.456 29.5337 176.054 29.7019 175.82 29.9358C175.586 30.1552 175.469 30.5135 175.469 31.0107V40.9255C175.469 41.4227 175.607 41.7956 175.885 42.0442C176.178 42.2782 176.617 42.4464 177.201 42.5487C177.45 42.5926 177.633 42.6438 177.75 42.7023C177.867 42.7608 177.925 42.8412 177.925 42.9436C177.925 43.1044 177.713 43.1849 177.289 43.1849C176.748 43.1849 176.28 43.1629 175.885 43.1191C175.417 43.0898 175.03 43.0752 174.723 43.0752C174.357 43.0752 173.911 43.0898 173.385 43.1191C172.946 43.1629 172.456 43.1849 171.915 43.1849ZM178.909 43.1849C178.719 43.1849 178.565 43.1556 178.448 43.0971C178.331 43.0533 178.273 42.9875 178.273 42.8997C178.273 42.7096 178.514 42.5414 178.997 42.3952C179.421 42.2636 179.786 42.0808 180.094 41.8468C180.401 41.5982 180.664 41.218 180.883 40.7062C181.658 38.9221 182.331 37.3062 182.901 35.8584C183.486 34.3961 184.181 32.5754 184.985 30.3965C185.146 29.9431 185.248 29.5191 185.292 29.1242C185.336 29.1096 185.438 29.0804 185.599 29.0365C185.775 28.978 185.936 28.8976 186.082 28.7952C186.199 28.7075 186.287 28.5758 186.345 28.4004C186.418 28.2249 186.469 28.1079 186.499 28.0494C186.513 28.0348 186.528 28.0348 186.543 28.0494C186.572 28.0494 186.594 28.0567 186.608 28.0713C186.638 28.1444 186.66 28.2249 186.674 28.3126C186.703 28.4004 186.733 28.4808 186.762 28.5539C187.844 31.9612 189.146 35.8657 190.666 40.2675C190.944 41.0718 191.251 41.6201 191.588 41.9126C191.924 42.1905 192.355 42.3733 192.882 42.461C193.116 42.5049 193.291 42.578 193.408 42.6804C193.54 42.7681 193.606 42.8632 193.606 42.9655C193.606 43.1118 193.394 43.1849 192.97 43.1849L191.785 43.141C190.966 43.0825 190.345 43.0533 189.921 43.0533L187.617 43.0752C187.193 43.0752 186.981 42.9875 186.981 42.812C186.981 42.7242 187.047 42.6438 187.179 42.5707C187.325 42.4829 187.5 42.4244 187.705 42.3952C188.597 42.249 189.043 41.9199 189.043 41.4081C189.043 40.9401 188.758 39.7556 188.188 37.8545C188.158 37.7522 188.1 37.6864 188.012 37.6571C187.939 37.6279 187.8 37.6133 187.595 37.6133H183.45C183.289 37.6133 183.165 37.7449 183.077 38.0081C182.916 38.4761 182.726 39.0902 182.506 39.8507C182.287 40.5965 182.177 41.0352 182.177 41.1668C182.177 41.4739 182.294 41.7371 182.528 41.9565C182.777 42.1758 183.084 42.3294 183.45 42.4171C183.713 42.4902 183.896 42.5561 183.998 42.6146C184.115 42.673 184.174 42.7535 184.174 42.8558C184.174 43.0167 183.962 43.0971 183.537 43.0971C183.274 43.0971 183.055 43.0898 182.879 43.0752L181.541 43.0533C181.293 43.0533 181.015 43.0606 180.708 43.0752C180.415 43.1044 180.196 43.1191 180.05 43.1191C179.64 43.1629 179.26 43.1849 178.909 43.1849ZM187.442 36.8894C187.53 36.8894 187.603 36.8821 187.661 36.8675C187.72 36.8528 187.749 36.8236 187.749 36.7797L187.705 36.5604L185.994 31.2081C185.906 30.9449 185.841 30.8133 185.797 30.8133C185.768 30.8133 185.709 30.9376 185.621 31.1862L183.625 36.5604L183.581 36.7358C183.581 36.809 183.611 36.8528 183.669 36.8675C183.742 36.8821 183.866 36.8894 184.042 36.8894H187.442Z" fill="white"/>
<g opacity="0.5">
<mask id="mask0_15_963" style="mask-type:alpha" maskUnits="userSpaceOnUse" x="57" y="-1" width="81" height="81">
<circle cx="97.7305" cy="39.999" r="39.3548" stroke="white" stroke-width="1.29032"/>
</mask>
<g mask="url(#mask0_15_963)">
<rect x="35.7305" y="-17.2012" width="126.8" height="38.8" fill="white"/>
<rect x="35.7305" y="49.9688" width="126.8" height="38.8" fill="white"/>
</g>
</g>
</svg>
