<svg width="120" height="120" viewBox="0 0 120 120" fill="none" xmlns="http://www.w3.org/2000/svg">
<path d="M27.3804 53.085H37.9443V50.5236H31.7217V50.4223L33.8852 48.3023C36.9313 45.5238 37.7489 44.1346 37.7489 42.4488C37.7489 39.8801 35.6506 38.064 32.4742 38.064C29.363 38.064 27.2285 39.9236 27.2357 42.8322H30.2095C30.2023 41.4141 31.0995 40.5458 32.4525 40.5458C33.7549 40.5458 34.7245 41.3562 34.7245 42.6586C34.7245 43.838 34.0009 44.6483 32.6551 45.9435L27.3804 50.8275V53.085ZM46.0245 53.4106C49.7508 53.4106 52.0011 50.5742 52.0083 45.6903C52.0155 40.8425 49.7364 38.064 46.0245 38.064C42.3055 38.064 40.048 40.8352 40.0408 45.6903C40.0263 50.5598 42.291 53.4033 46.0245 53.4106ZM46.0245 50.813C44.3242 50.813 43.2244 49.1054 43.2316 45.6903C43.2389 42.3257 44.3314 40.6326 46.0245 40.6326C47.7104 40.6326 48.8102 42.3257 48.8102 45.6903C48.8174 49.1054 47.7176 50.813 46.0245 50.813ZM59.0448 53.085H68.5306V50.5019H62.1778V38.2666H59.0448V53.085ZM73.5376 53.085L74.6374 49.706H79.9844L81.0842 53.085H84.4415L79.3332 38.2666H75.2958L70.1803 53.085H73.5376ZM75.4333 47.2604L77.2566 41.6528H77.3724L79.1958 47.2604H75.4333ZM83.8301 40.8497H88.3668V53.085H91.4636V40.8497H96.0003V38.2666H83.8301V40.8497Z" fill="#0B345A"/>
<path d="M27.1937 66.1074C29.0656 66.1074 30.1995 64.9495 30.1995 63.0296C30.1995 61.1157 29.0656 59.9638 27.2117 59.9638H25.0158V66.1074H27.1937ZM26.3148 64.9945V61.0767H27.1427C28.2946 61.0767 28.9036 61.6647 28.9036 63.0296C28.9036 64.4005 28.2946 64.9945 27.1397 64.9945H26.3148ZM36.8074 63.0356C36.8074 61.0257 35.5595 59.8798 33.9306 59.8798C32.2927 59.8798 31.0537 61.0257 31.0537 63.0356C31.0537 65.0365 32.2927 66.1914 33.9306 66.1914C35.5595 66.1914 36.8074 65.0455 36.8074 63.0356ZM35.4905 63.0356C35.4905 64.3375 34.8725 65.0425 33.9306 65.0425C32.9856 65.0425 32.3707 64.3375 32.3707 63.0356C32.3707 61.7337 32.9856 61.0287 33.9306 61.0287C34.8725 61.0287 35.4905 61.7337 35.4905 63.0356ZM41.1024 61.7307H42.3473C42.3293 60.6357 41.4294 59.8798 40.0615 59.8798C38.7145 59.8798 37.7276 60.6237 37.7336 61.7397C37.7306 62.6456 38.3696 63.1646 39.4075 63.4136L40.0765 63.5816C40.7454 63.7436 41.1174 63.9355 41.1204 64.3495C41.1174 64.7995 40.6914 65.1055 40.0315 65.1055C39.3565 65.1055 38.8705 64.7935 38.8285 64.1785H37.5716C37.6046 65.5075 38.5555 66.1944 40.0465 66.1944C41.5464 66.1944 42.4283 65.4775 42.4313 64.3525C42.4283 63.3296 41.6574 62.7866 40.5894 62.5466L40.0375 62.4146C39.5035 62.2916 39.0565 62.0937 39.0655 61.6527C39.0655 61.2567 39.4165 60.9657 40.0525 60.9657C40.6734 60.9657 41.0544 61.2477 41.1024 61.7307ZM39.5425 59.3698H40.4454L41.3604 58.0049H40.1784L39.5425 59.3698ZM44.6879 66.1074H45.9539L47.1208 62.0907H47.1688L48.3387 66.1074H49.6046L51.3625 59.9638H49.9436L48.9267 64.2415H48.8727L47.7538 59.9638H46.5388L45.4169 64.2325H45.3659L44.349 59.9638H42.93L44.6879 66.1074ZM53.3567 59.9638H52.0577V66.1074H53.3567V59.9638ZM55.4843 66.1074L55.9403 64.7065H58.1571L58.6131 66.1074H60.005L57.8872 59.9638H56.2133L54.0924 66.1074H55.4843ZM56.2703 63.6926L57.0262 61.3677H57.0742L57.8302 63.6926H56.2703ZM62.9224 66.1074C64.7943 66.1074 65.9282 64.9495 65.9282 63.0296C65.9282 61.1157 64.7943 59.9638 62.9404 59.9638H60.7445V66.1074H62.9224ZM62.0434 64.9945V61.0767H62.8714C64.0233 61.0767 64.6323 61.6647 64.6323 63.0296C64.6323 64.4005 64.0233 64.9945 62.8684 64.9945H62.0434ZM72.3111 62.1147C72.1401 60.6957 71.0661 59.8798 69.6442 59.8798C68.0213 59.8798 66.7824 61.0257 66.7824 63.0356C66.7824 65.0395 68.0003 66.1914 69.6442 66.1914C71.2191 66.1914 72.1701 65.1445 72.3111 64.0135L70.9971 64.0075C70.8741 64.6645 70.3582 65.0425 69.6652 65.0425C68.7323 65.0425 68.0993 64.3495 68.0993 63.0356C68.0993 61.7577 68.7233 61.0287 69.6742 61.0287C70.3852 61.0287 70.8981 61.4397 70.9971 62.1147H72.3111ZM73.1765 66.1074H77.8802V65.0365H74.8054L77.8742 60.7347V59.9638H73.1705V61.0347H76.2423L73.1765 65.3365V66.1074ZM78.8769 66.1074H83.0287V65.0365H80.1758V63.5696H82.8037V62.4986H80.1758V61.0347H83.0167V59.9638H78.8769V66.1074ZM89.1881 59.9638H87.8951V63.8276H87.8411L85.1893 59.9638H84.0494V66.1074H85.3483V62.2406H85.3933L88.0661 66.1074H89.1881V59.9638ZM91.5602 59.9638H90.2613V66.1074H91.5602V59.9638ZM93.6878 66.1074L94.1438 64.7065H96.3606L96.8166 66.1074H98.2085L96.0907 59.9638H94.4168L92.2959 66.1074H93.6878ZM94.4738 63.6926L95.2297 61.3677H95.2777L96.0337 63.6926H94.4738Z" fill="#0B345A"/>
<path d="M63.2759 115.011C62.855 112.278 61.8271 109.668 60.2646 107.366C58.6602 105.054 56.4474 103.21 53.8604 102.029C52.5571 101.443 51.2027 100.971 49.8135 100.622C48.41 100.268 46.9998 99.8277 45.5963 99.4408C44.9024 99.239 44.2201 99.0007 43.5524 98.727L41.5085 97.9532C40.8245 97.6966 40.1558 97.4026 39.5055 97.0726L37.5297 96.132C27.0511 90.8125 18.6793 82.2285 13.7349 71.7341C8.79059 61.2397 7.55511 49.4321 10.2234 38.1739C10.917 35.3926 11.8141 32.6638 12.9077 30.0086C14.0405 27.3676 15.3799 24.8161 16.9137 22.3769C18.4841 19.9568 20.2377 17.6555 22.1597 15.4924C24.1163 13.3564 26.2319 11.3652 28.4889 9.53516L28.9182 10.0555C19.776 17.1946 13.3404 27.1272 10.639 38.2673C10.0016 41.0383 9.58022 43.8527 9.3786 46.6862C9.20865 49.5252 9.25418 52.3727 9.51485 55.2051C10.0834 60.872 11.6243 66.4043 14.0727 71.5692C19.0331 81.9279 27.3716 90.3767 37.775 95.5849L39.7371 96.5055C40.379 96.8308 41.0411 97.116 41.7197 97.3594L43.7636 98.1133C44.4297 98.3781 45.1124 98.6009 45.8075 98.7804C47.211 99.1606 48.5735 99.5876 49.9975 99.9211C51.4352 100.26 52.8396 100.722 54.1942 101.302C55.5667 101.879 56.858 102.625 58.0367 103.523C58.631 103.97 59.1996 104.449 59.74 104.958C60.2672 105.483 60.7631 106.038 61.2252 106.619C63.0629 108.998 64.4182 111.699 65.2176 114.577L63.2759 115.011Z" fill="#BF9875"/>
<path d="M45.5031 105.119C43.5614 106.393 41.647 106.854 40.3593 106.507C40.2503 106.507 40.2095 106.367 40.2708 106.22C41.1496 104.313 42.5682 102.692 44.3586 101.55C46.3071 100.276 48.2147 99.8156 49.5023 100.163C49.6181 100.163 49.6522 100.303 49.5909 100.443C48.7141 102.353 47.2952 103.976 45.5031 105.119Z" fill="#BF9875"/>
<path d="M48.6911 93.8964C47.6964 91.8284 46.3066 90.4675 45.0189 90.1139C44.9031 90.0806 44.8145 90.1606 44.7941 90.3141C44.5456 92.3977 44.9146 94.5074 45.8569 96.3914C46.8516 98.4594 48.2415 99.8203 49.5291 100.181C49.6449 100.181 49.7335 100.127 49.7539 99.9804C50.003 97.8946 49.634 95.7826 48.6911 93.8964Z" fill="#BF9875"/>
<path d="M38.1219 102.031C36.2074 102.951 34.4293 103.145 33.3051 102.698C33.2097 102.658 33.1893 102.544 33.2642 102.424C34.299 100.804 35.7861 99.5075 37.5496 98.6885C39.4572 97.7679 41.2422 97.5745 42.3663 98.0214C42.4617 98.0614 42.4822 98.1748 42.4072 98.2949C41.3724 99.9153 39.8854 101.212 38.1219 102.031Z" fill="#BF9875"/>
<path d="M42.3748 92.2561C41.6935 90.2548 40.6375 88.8739 39.5134 88.4003C39.418 88.3602 39.3294 88.4003 39.2885 88.5537C38.8082 90.4076 38.8839 92.3579 39.5066 94.1707C40.1538 96.172 41.2439 97.5529 42.368 98.0199C42.4634 98.0666 42.552 98.0199 42.5928 97.8665C43.073 96.0148 42.9973 94.0667 42.3748 92.2561Z" fill="#BF9875"/>
<path d="M31.9176 98.8607C29.9214 99.5878 28.1295 99.6078 27.0599 99.0341C26.9713 98.9874 26.9577 98.8807 27.0599 98.7673C28.25 97.2421 29.8629 96.0842 31.7064 95.4317C33.7025 94.7046 35.4944 94.6846 36.564 95.2583C36.6526 95.305 36.6594 95.4117 36.564 95.5251C35.3739 97.0503 33.761 98.2082 31.9176 98.8607Z" fill="#BF9875"/>
<path d="M37.1421 89.5489C36.706 87.5075 35.7795 86.0199 34.6962 85.4395C34.6008 85.3861 34.5055 85.4395 34.451 85.5663C33.7878 87.3648 33.6649 89.3118 34.0967 91.1766C34.5395 93.2179 35.4593 94.7123 36.5493 95.2926C36.6379 95.3393 36.7401 95.2926 36.7878 95.1592C37.4562 93.3617 37.5793 91.4133 37.1421 89.5489Z" fill="#BF9875"/>
<path d="M26.0158 94.738C23.931 95.1916 22.1529 94.9648 21.1786 94.2577C21.09 94.191 21.1037 94.0842 21.1786 93.9842C22.5747 92.6473 24.3344 91.7325 26.2475 91.3491C28.3254 90.8955 30.1036 91.1223 31.0847 91.8294C31.1664 91.8894 31.1596 91.9962 31.0847 92.1029C29.6868 93.4373 27.9278 94.3517 26.0158 94.738Z" fill="#BF9875"/>
<path d="M32.5027 86.2268C32.3597 84.1454 31.6307 82.5377 30.6632 81.8239C30.5747 81.7639 30.4725 81.8239 30.3975 81.9173C29.4883 83.6099 29.0935 85.5221 29.2598 87.4276C29.4028 89.5089 30.1318 91.1167 31.1061 91.8305C31.1878 91.8905 31.29 91.8305 31.365 91.7304C32.2769 90.0412 32.672 88.1303 32.5027 86.2268Z" fill="#BF9875"/>
<path d="M14.4988 83.0185C12.3731 82.8651 10.738 82.1446 10.0159 81.184C9.94773 81.1039 10.0158 81.0038 10.1112 80.9305C11.8457 80.0513 13.8001 79.6741 15.7456 79.8431C17.8712 80.0032 19.5063 80.7236 20.2285 81.6776C20.2966 81.7577 20.2285 81.8644 20.1331 81.9311C18.3998 82.8134 16.4444 83.1908 14.4988 83.0185Z" fill="#BF9875"/>
<path d="M23.2209 76.7128C23.6978 74.7115 23.4798 72.9303 22.7576 71.9697C22.6963 71.8896 22.5873 71.8963 22.4851 71.9697C21.1121 73.3307 20.1664 75.0485 19.7599 76.9196C19.283 78.9209 19.5078 80.6954 20.2232 81.656C20.2845 81.7361 20.4003 81.7294 20.5025 81.656C21.8749 80.2983 22.8187 78.5821 23.2209 76.7128Z" fill="#BF9875"/>
<path d="M19.442 88.995C17.3095 89.0617 15.6063 88.5214 14.7751 87.6608C14.707 87.5874 14.7342 87.4807 14.85 87.4006C16.4664 86.3445 18.3576 85.7635 20.3004 85.7262C22.4329 85.6595 24.1361 86.2065 24.9605 87.0604C25.0354 87.1338 25.0082 87.2405 24.8923 87.3206C23.2765 88.3777 21.3849 88.9588 19.442 88.995Z" fill="#BF9875"/>
<path d="M27.4283 81.8105C27.6804 79.7358 27.2716 78.028 26.4472 77.1407C26.3791 77.0607 26.2701 77.0807 26.1747 77.1874C24.9598 78.6837 24.208 80.4893 24.0082 82.3908C23.7629 84.4655 24.1717 86.1733 24.9893 87.0606C25.0642 87.1339 25.1732 87.1139 25.2686 87.0139C26.481 85.5168 27.2305 83.7112 27.4283 81.8105Z" fill="#BF9875"/>
<path d="M10.9262 76.5518C9.02541 76.1115 7.6492 75.2175 7.1246 74.2569C7.08372 74.1702 7.12458 74.0835 7.25403 74.0368C8.95793 73.4851 10.7871 73.4203 12.5273 73.85C14.4281 74.2903 15.8043 75.1842 16.3221 76.1448C16.3698 76.2315 16.3221 76.3183 16.1994 76.365C14.4955 76.9166 12.6664 76.9814 10.9262 76.5518Z" fill="#BF9875"/>
<path d="M19.7425 72.0646C20.4783 70.2834 20.5328 68.669 20.0218 67.695C19.9809 67.615 19.8787 67.6016 19.7697 67.695C18.3226 68.7336 17.2111 70.1578 16.5676 71.7977C15.8387 73.5789 15.7841 75.1866 16.2883 76.1606C16.336 76.2473 16.4382 76.254 16.5472 76.1606C17.9897 75.1218 19.0984 73.7005 19.7425 72.0646Z" fill="#BF9875"/>
<path d="M8.07038 70.4425C6.21725 69.8288 4.92961 68.8282 4.50039 67.8142C4.46633 67.7274 4.50039 67.6474 4.65028 67.6074C6.39794 67.2112 8.22468 67.3107 9.91668 67.8942C11.7698 68.5079 13.0575 69.5153 13.4799 70.5626C13.5207 70.6493 13.4799 70.7294 13.3368 70.7628C11.5862 71.1516 9.75841 71.0404 8.07038 70.4425Z" fill="#BF9875"/>
<path d="M17.3089 66.7727C18.2014 65.0649 18.4058 63.4372 17.9902 62.4499C17.9561 62.3631 17.8539 62.3431 17.7381 62.4098C16.2021 63.3151 14.9633 64.6324 14.1681 66.2056C13.2756 67.9068 13.0644 69.5412 13.4868 70.5285C13.5277 70.6152 13.6231 70.6285 13.7389 70.5685C15.2761 69.6647 16.5153 68.347 17.3089 66.7727Z" fill="#BF9875"/>
<path d="M4.34473 56.9863C2.66874 55.9924 1.61954 54.7315 1.44922 53.6508C1.44922 53.5574 1.51053 53.4907 1.63998 53.484C3.4331 53.4631 5.19392 53.952 6.70882 54.8916C8.38481 55.8856 9.43401 57.1398 9.60433 58.2272C9.60433 58.3206 9.54302 58.3873 9.41357 58.3939C7.62133 58.4085 5.86233 57.92 4.34473 56.9863Z" fill="#BF9875"/>
<path d="M14.1739 55.3881C15.4274 53.9138 15.9861 52.3994 15.809 51.3187C15.809 51.2253 15.7 51.1853 15.5705 51.2186C13.8681 51.7725 12.3641 52.7937 11.2375 54.1606C9.98389 55.6349 9.42523 57.1492 9.60237 58.2299C9.60237 58.3233 9.71138 58.3633 9.84083 58.3233C11.5415 57.7696 13.045 56.7511 14.1739 55.3881Z" fill="#BF9875"/>
<path d="M5.94054 64.3449C4.11466 63.6778 2.87471 62.5771 2.5 61.5497C2.5 61.4563 2.53406 61.3763 2.6635 61.3496C4.42602 61.0317 6.24473 61.2169 7.90267 61.8833C9.72854 62.5504 10.9617 63.6444 11.3092 64.6785C11.3092 64.7719 11.3091 64.8452 11.1524 64.8786C9.3986 65.1879 7.59108 65.0029 5.94054 64.3449Z" fill="#BF9875"/>
<path d="M15.3437 61.1098C16.318 59.4487 16.6109 57.861 16.243 56.827C16.209 56.7402 16.1136 56.7136 15.991 56.7736C14.4109 57.6038 13.1079 58.8612 12.237 60.396C11.2628 62.0571 10.9766 63.6448 11.3377 64.6788C11.3377 64.7722 11.474 64.7922 11.5898 64.7388C13.1698 63.9056 14.4727 62.6461 15.3437 61.1098Z" fill="#BF9875"/>
<path d="M4.47483 49.9218C3.11224 48.8545 2.28107 47.6203 2.22656 46.633C2.22656 46.5463 2.3015 46.4929 2.41732 46.4996C4.03456 46.6681 5.5688 47.2861 6.83893 48.2808C8.20152 49.3481 9.02589 50.5823 9.0804 51.5696C9.0804 51.6563 9.01227 51.7097 8.88964 51.703C7.27478 51.5333 5.74305 50.9153 4.47483 49.9218Z" fill="#BF9875"/>
<path d="M13.4729 49.4898C14.7537 48.2957 15.4214 46.9881 15.3737 46.0008C15.3737 45.9141 15.2919 45.8674 15.1761 45.8874C13.589 46.2094 12.1299 46.9712 10.9725 48.0822C9.68488 49.2763 9.0172 50.5838 9.06489 51.5711C9.06489 51.6579 9.15347 51.7046 9.26929 51.6845C10.8564 51.3626 12.3155 50.6008 13.4729 49.4898Z" fill="#BF9875"/>
<path d="M4.96546 43.4981C3.73913 42.364 3.10551 41.1232 3.14639 40.1626C3.14639 40.0759 3.22815 40.0358 3.33715 40.0558C4.85059 40.3594 6.24331 41.0818 7.35 42.1372C8.57633 43.2713 9.20994 44.5121 9.16907 45.4727C9.16907 45.5528 9.08731 45.5928 8.9783 45.5795C7.46513 45.2752 6.0726 44.5529 4.96546 43.4981Z" fill="#BF9875"/>
<path d="M13.5458 43.8995C14.9084 42.8788 15.6306 41.7047 15.6782 40.7574C15.6782 40.6774 15.6101 40.6307 15.4943 40.6373C13.9587 40.7993 12.5037 41.3923 11.3043 42.3451C9.97579 43.3591 9.21957 44.5399 9.17188 45.4805C9.17188 45.5606 9.23999 45.6073 9.349 45.6006C10.8856 45.4396 12.3425 44.8491 13.5458 43.8995Z" fill="#BF9875"/>
<path d="M6.28596 36.7264C5.28446 35.3922 4.88249 34.058 5.09369 33.1441C5.09369 33.064 5.19588 33.0373 5.29807 33.0707C6.73751 33.6306 7.98168 34.5849 8.8817 35.8192C9.8832 37.1534 10.2852 38.4876 10.074 39.3948C10.074 39.4749 9.97177 39.5082 9.86276 39.4682C8.42572 38.9106 7.1837 37.9586 6.28596 36.7264Z" fill="#BF9875"/>
<path d="M14.6584 38.5956C16.1436 37.8285 17.0974 36.7945 17.3154 35.8805C17.3154 35.8005 17.2745 35.7404 17.1655 35.7271C15.6243 35.6219 14.0846 35.9531 12.7303 36.6811C11.2382 37.4549 10.2844 38.4822 10.0664 39.3962C10.0664 39.4762 10.1073 39.5429 10.2231 39.5496C11.7646 39.6575 13.305 39.3262 14.6584 38.5956Z" fill="#BF9875"/>
<path d="M8.50424 30.0826C7.68669 28.635 7.46186 27.2674 7.82295 26.3802C7.82295 26.3001 7.93875 26.2868 8.04095 26.3335C9.38568 27.0753 10.4869 28.1767 11.2158 29.5089C12.0333 30.9565 12.2582 32.3308 11.8971 33.2113C11.8971 33.2914 11.7813 33.3114 11.6791 33.258C10.3313 32.5201 9.22911 31.4177 8.50424 30.0826Z" fill="#BF9875"/>
<path d="M16.5624 33.0034C18.143 32.423 19.2263 31.5291 19.5601 30.6418C19.5942 30.5685 19.5601 30.5017 19.4307 30.4751C17.9167 30.1739 16.3462 30.3059 14.9069 30.8553C13.3194 31.429 12.243 32.3296 11.9023 33.2102C11.9023 33.2902 11.9024 33.357 12.0386 33.3836C13.5526 33.6848 15.123 33.5528 16.5624 33.0034Z" fill="#BF9875"/>
<path d="M11.5129 24.0974C10.9611 22.7098 10.927 21.429 11.329 20.7019C11.3631 20.6418 11.438 20.6352 11.5266 20.7019C12.6426 21.5195 13.496 22.633 13.986 23.9106C14.5379 25.2982 14.572 26.5791 14.17 27.3062C14.1359 27.3729 14.0542 27.3729 13.9724 27.3062C12.8564 26.4886 12.0029 25.3751 11.5129 24.0974Z" fill="#BF9875"/>
<path d="M18.359 27.6403C19.8442 27.3068 20.9207 26.633 21.3294 25.8792C21.3635 25.8124 21.3294 25.7457 21.2272 25.7124C19.911 25.2669 18.4912 25.2044 17.1395 25.5323C15.6542 25.8658 14.5778 26.5396 14.169 27.2934C14.135 27.3535 14.169 27.4268 14.2712 27.4602C15.5881 27.9022 17.0069 27.9648 18.359 27.6403Z" fill="#BF9875"/>
<path d="M15.2421 18.5685C14.9218 17.1142 15.099 15.9001 15.6236 15.193C15.6645 15.1329 15.7462 15.1396 15.8212 15.193C16.7943 16.1818 17.4585 17.4224 17.7356 18.7686C18.0558 20.2229 17.8787 21.437 17.3541 22.1442C17.3132 22.2042 17.2314 22.1975 17.1565 22.1442C16.1821 21.1562 15.5177 19.9152 15.2421 18.5685Z" fill="#BF9875"/>
<path d="M21.4174 23.1846C22.9367 23.0912 24.1426 22.5909 24.64 21.9171C24.6809 21.8571 24.64 21.7837 24.565 21.7303C23.3381 21.0849 21.9477 20.7978 20.559 20.9031C19.0397 20.9965 17.8679 21.4969 17.3365 22.1706C17.2956 22.2307 17.3365 22.3041 17.4114 22.3508C18.6377 22.9986 20.0281 23.288 21.4174 23.1846Z" fill="#BF9875"/>
<path d="M18.7007 14.4341C18.5788 13.9201 18.5649 13.3872 18.6598 12.8677C18.7546 12.3482 18.9563 11.853 19.2525 11.4122C19.2934 11.3588 19.3683 11.3721 19.4296 11.4122C20.2417 12.3612 20.7573 13.5192 20.9149 14.7477C21.0351 15.2618 21.0482 15.7945 20.9534 16.3137C20.8586 16.833 20.6578 17.3282 20.363 17.7697C20.3153 17.823 20.2472 17.8097 20.1859 17.7697C19.3725 16.8214 18.8567 15.663 18.7007 14.4341Z" fill="#BF9875"/>
<path d="M23.9705 18.9273C24.5074 18.9745 25.0485 18.9149 25.5613 18.7521C26.0741 18.5893 26.548 18.3267 26.9545 17.98C26.9954 17.9333 26.9545 17.8599 26.9 17.8132C25.8341 17.1552 24.5969 16.8124 23.3369 16.8259C22.801 16.7793 22.2611 16.8391 21.7494 17.0019C21.2378 17.1647 20.7651 17.427 20.3596 17.7732C20.3119 17.8266 20.3596 17.8933 20.4073 17.94C21.4732 18.598 22.7104 18.9408 23.9705 18.9273Z" fill="#BF9875"/>
<path d="M22.5511 10.5093C22.4532 9.9908 22.4631 9.45833 22.5802 8.94368C22.6972 8.42903 22.9191 7.94278 23.2324 7.51397C23.2801 7.46728 23.3482 7.48062 23.4095 7.54733C24.1716 8.5282 24.6325 9.70142 24.738 10.9295C24.8375 11.448 24.8284 11.9808 24.7113 12.4956C24.5942 13.0105 24.3715 13.4967 24.0567 13.9248C24.009 13.9715 23.9409 13.9582 23.8796 13.8915C23.1135 12.9128 22.6521 11.7384 22.5511 10.5093Z" fill="#BF9875"/>
<path d="M27.6074 15.2463C28.1411 15.3182 28.6842 15.2838 29.204 15.1451C29.7238 15.0064 30.2096 14.7663 30.6323 14.4391C30.6732 14.3858 30.6323 14.3191 30.5846 14.2657C29.5512 13.5626 28.3335 13.1644 27.076 13.1183C26.5418 13.0488 25.9988 13.0851 25.4792 13.2249C24.9596 13.3647 24.4739 13.6052 24.051 13.9321C24.0033 13.9788 24.051 14.0522 24.0987 14.1056C25.1322 14.8076 26.3503 15.2037 27.6074 15.2463Z" fill="#BF9875"/>
<path d="M30.9627 9.38264C31.971 8.46204 32.4411 7.42136 32.3253 6.60749C32.3253 6.53411 32.2435 6.49408 32.1481 6.50742C30.8688 6.68562 29.6781 7.24994 28.7417 8.12182C28.3123 8.45252 27.9662 8.87529 27.73 9.35757C27.4938 9.83985 27.3737 10.3688 27.3791 10.9036C27.3791 10.9704 27.4608 11.0104 27.563 11.0037C28.8405 10.8215 30.0285 10.255 30.9627 9.38264Z" fill="#BF9875"/>
<path d="M92.8449 10.0371C95.102 11.8671 97.2175 13.8583 99.1742 15.9943C101.096 18.1575 102.85 20.4588 104.42 22.8789C105.955 25.3223 107.294 27.8783 108.426 30.5239C109.52 33.1791 110.417 35.9079 111.11 38.6892C113.777 49.9432 112.543 61.7461 107.603 72.2374C102.662 82.7288 94.2968 91.3119 83.8246 96.6339L81.8488 97.5745C81.1998 97.9052 80.5309 98.197 79.8458 98.4484L77.8019 99.229C77.1356 99.5043 76.4531 99.7404 75.7581 99.9361C74.3546 100.33 72.9443 100.77 71.5477 101.124C70.1559 101.472 68.7991 101.943 67.4939 102.531C64.9082 103.714 62.6959 105.558 61.0898 107.868C59.5263 110.17 58.4983 112.779 58.0784 115.513L56.1367 115.073C56.9491 112.219 58.3087 109.543 60.1427 107.188C60.6049 106.606 61.1008 106.052 61.628 105.526C62.1683 105.018 62.7369 104.539 63.3312 104.092C64.5109 103.195 65.8021 102.449 67.1737 101.871C68.5284 101.29 69.9328 100.828 71.3705 100.49C72.7944 100.156 74.157 99.7293 75.5605 99.349C76.2552 99.1683 76.9378 98.9455 77.6044 98.6819L79.6482 97.9281C80.3285 97.6834 80.9929 97.3983 81.6376 97.0742L83.593 96.1536C94.0028 90.9381 102.342 82.4765 107.295 72.1045C109.721 66.921 111.23 61.3719 111.758 55.6937C112.036 52.8716 112.105 50.0333 111.962 47.2015C111.757 44.3683 111.336 41.5542 110.702 38.7826C107.995 27.6447 101.56 17.7137 92.4225 10.5708L92.8449 10.0371Z" fill="#BF9875"/>
<path d="M75.7961 105.591C77.7446 106.865 79.6522 107.325 80.9398 106.978C81.0556 106.978 81.0897 106.838 81.0284 106.692C80.1518 104.783 78.7327 103.162 76.9406 102.022C74.9989 100.748 73.0845 100.287 71.7968 100.634C71.6878 100.634 71.647 100.774 71.7083 100.914C72.5851 102.825 74.004 104.448 75.7961 105.591Z" fill="#BF9875"/>
<path d="M72.6111 94.3575C73.6058 92.2895 75.0024 90.9286 76.2833 90.5684C76.3991 90.5684 76.4877 90.6217 76.5149 90.7685C76.758 92.8549 76.3869 94.9658 75.4453 96.8525C74.4506 98.9205 73.0608 100.281 71.7731 100.642C71.6641 100.642 71.5687 100.588 71.5483 100.442C71.2993 98.3557 71.6682 96.2437 72.6111 94.3575Z" fill="#BF9875"/>
<path d="M83.179 102.503C85.0934 103.423 86.8716 103.617 87.9958 103.17C88.0912 103.13 88.1116 103.023 88.0435 102.903C87.0068 101.281 85.5173 99.985 83.7513 99.167C81.8437 98.2464 80.0587 98.053 78.9413 98.4999C78.8391 98.54 78.8255 98.6467 78.8937 98.7734C79.9295 100.391 81.4164 101.685 83.179 102.503Z" fill="#BF9875"/>
<path d="M78.9283 92.7317C79.5755 90.7304 80.6724 89.3495 81.7898 88.8759C81.8851 88.8358 81.9737 88.8759 82.0146 89.0293C82.495 90.8832 82.4193 92.8334 81.7966 94.6463C81.1493 96.6476 80.0593 98.0285 78.9419 98.4955C78.8397 98.5355 78.7512 98.4955 78.7103 98.3421C78.2301 96.4904 78.3058 94.5423 78.9283 92.7317Z" fill="#BF9875"/>
<path d="M89.3846 99.3332C91.3808 100.06 93.1726 100.08 94.2423 99.5067C94.3376 99.46 94.3445 99.3532 94.2423 99.2398C93.0475 97.727 91.4351 96.581 89.5958 95.9377C87.5996 95.2105 85.801 95.1905 84.7382 95.7575C84.6428 95.8109 84.636 95.9176 84.7382 96.0311C85.9329 97.5439 87.5454 98.6899 89.3846 99.3332Z" fill="#BF9875"/>
<path d="M84.1592 90.0206C84.602 87.9792 85.5218 86.4849 86.6118 85.9112C86.7004 85.8578 86.7958 85.9112 86.8503 86.0379C87.5134 87.8365 87.6364 89.7834 87.2046 91.6483C86.7685 93.6896 85.842 95.1839 84.7587 95.7576C84.6633 95.811 84.568 95.7577 84.5135 95.6309C83.8503 93.8323 83.7274 91.8854 84.1592 90.0206Z" fill="#BF9875"/>
<path d="M95.2822 95.2333C97.3669 95.6869 99.1451 95.4601 100.119 94.7529C100.208 94.6862 100.201 94.5795 100.119 94.4794C98.7311 93.1294 96.9727 92.2025 95.0573 91.811C92.9726 91.3574 91.1944 91.5842 90.2201 92.2913C90.1316 92.3514 90.1384 92.4581 90.2201 92.5648C91.612 93.9103 93.3688 94.8364 95.2822 95.2333Z" fill="#BF9875"/>
<path d="M88.7983 86.7014C88.9414 84.62 89.6704 83.0123 90.6447 82.2985C90.7264 82.2318 90.8286 82.2985 90.9036 82.3919C91.8128 84.0844 92.2076 85.9967 92.0413 87.9022C91.8982 89.9835 91.1692 91.5846 90.2018 92.305C90.1132 92.3651 90.011 92.3051 89.9361 92.205C89.0282 90.5144 88.6334 88.6046 88.7983 86.7014Z" fill="#BF9875"/>
<path d="M106.805 83.4909C108.931 83.3375 110.566 82.617 111.295 81.6564C111.356 81.5763 111.295 81.4763 111.192 81.4029C109.46 80.5243 107.508 80.1471 105.565 80.3155C103.439 80.4756 101.804 81.1961 101.075 82.1501C101.014 82.2301 101.075 82.3368 101.177 82.4036C102.909 83.2846 104.862 83.6619 106.805 83.4909Z" fill="#BF9875"/>
<path d="M98.078 77.1817C97.6011 75.1804 97.8191 73.4059 98.5413 72.4453C98.6026 72.3652 98.7116 72.3719 98.8206 72.4453C100.194 73.8062 101.139 75.5241 101.546 77.3952C102.023 79.3965 101.798 81.171 101.082 82.1316C101.021 82.2117 100.905 82.205 100.803 82.1316C99.4302 80.7706 98.4845 79.0528 98.078 77.1817Z" fill="#BF9875"/>
<path d="M101.866 89.4696C103.992 89.5363 105.695 88.9893 106.526 88.1354C106.594 88.062 106.567 87.9553 106.451 87.8752C104.835 86.8191 102.944 86.2381 101.001 86.2008C98.8685 86.1341 97.1653 86.6811 96.3409 87.535C96.266 87.6084 96.3001 87.7151 96.4091 87.7952C98.0283 88.8505 99.9215 89.4314 101.866 89.4696Z" fill="#BF9875"/>
<path d="M93.8741 82.2763C93.622 80.2082 94.0376 78.5005 94.8551 77.6065C94.9233 77.5265 95.0323 77.5465 95.1276 77.6532C96.3426 79.1495 97.0944 80.9552 97.2942 82.8566C97.5394 84.9313 97.1306 86.6391 96.3131 87.5264C96.2381 87.5998 96.1291 87.5798 96.0406 87.4797C94.8257 85.9834 94.0738 84.1778 93.8741 82.2763Z" fill="#BF9875"/>
<path d="M110.398 77.0204C112.306 76.5801 113.682 75.6862 114.2 74.7255C114.241 74.6388 114.2 74.5521 114.071 74.5054C112.369 73.9539 110.542 73.8891 108.804 74.3186C106.896 74.7589 105.52 75.6528 105.002 76.6134C104.955 76.7002 105.002 76.7869 105.132 76.8336C106.833 77.3854 108.661 77.4502 110.398 77.0204Z" fill="#BF9875"/>
<path d="M101.539 72.5499C100.81 70.7687 100.749 69.1543 101.26 68.1804C101.308 68.1003 101.403 68.087 101.512 68.1804C102.96 69.2176 104.072 70.6422 104.714 72.2831C105.443 74.0642 105.504 75.672 104.993 76.6459C104.946 76.7327 104.844 76.7393 104.735 76.6459C103.294 75.6053 102.186 74.1846 101.539 72.5499Z" fill="#BF9875"/>
<path d="M113.229 70.9166C115.082 70.3029 116.37 69.3022 116.799 68.2882C116.833 68.2015 116.799 68.1215 116.649 68.0814C114.902 67.6819 113.074 67.7815 111.383 68.3683C109.53 68.982 108.242 69.9894 107.82 70.9967C107.779 71.0901 107.82 71.1701 107.97 71.2035C109.715 71.6028 111.54 71.5033 113.229 70.9166Z" fill="#BF9875"/>
<path d="M104.002 67.2483C103.102 65.5405 102.898 63.9128 103.32 62.9254C103.32 62.8387 103.457 62.8187 103.572 62.8854C105.11 63.7886 106.349 65.1064 107.142 66.6812C108.035 68.3823 108.246 70.0168 107.824 70.9974C107.783 71.0908 107.687 71.1041 107.572 71.0441C106.032 70.1426 104.793 68.8244 104.002 67.2483Z" fill="#BF9875"/>
<path d="M116.955 57.4619C118.631 56.4679 119.68 55.2071 119.85 54.1264C119.85 54.033 119.789 53.9663 119.66 53.9596C117.868 53.9393 116.108 54.4257 114.591 55.3605C112.915 56.3612 111.866 57.6153 111.695 58.696C111.695 58.7894 111.757 58.8561 111.886 58.8628C113.678 58.8794 115.437 58.3932 116.955 57.4619Z" fill="#BF9875"/>
<path d="M107.124 55.8734C105.871 54.3991 105.312 52.8848 105.489 51.8041C105.489 51.7107 105.598 51.6706 105.728 51.704C107.431 52.2561 108.935 53.2776 110.061 54.6459C111.314 56.1136 111.873 57.6346 111.696 58.7153C111.696 58.8087 111.587 58.8487 111.457 58.8087C109.757 58.255 108.253 57.2365 107.124 55.8734Z" fill="#BF9875"/>
<path d="M115.368 64.8206C117.187 64.1535 118.427 63.0528 118.774 62.0254C118.808 61.932 118.774 61.852 118.618 61.8253C116.853 61.5072 115.032 61.6924 113.372 62.359C111.546 63.0261 110.313 64.1202 109.965 65.1542C109.931 65.2409 109.965 65.3209 110.122 65.3543C111.887 65.669 113.707 65.4839 115.368 64.8206Z" fill="#BF9875"/>
<path d="M105.96 61.5824C104.985 59.9213 104.699 58.3336 105.06 57.2996C105.094 57.2129 105.197 57.1862 105.312 57.2462C106.892 58.0764 108.196 59.3338 109.066 60.8686C110.041 62.5297 110.327 64.1174 109.966 65.1514C109.932 65.2382 109.829 65.2648 109.714 65.2115C108.135 64.3765 106.833 63.1174 105.96 61.5824Z" fill="#BF9875"/>
<path d="M116.834 50.3974C118.231 49.33 119.021 48.0959 119.076 47.1086C119.076 47.0219 119.007 46.9685 118.885 46.9752C117.275 47.1495 115.749 47.7671 114.484 48.7563C113.087 49.8237 112.297 51.0578 112.242 52.0452C112.242 52.1319 112.31 52.1853 112.433 52.1786C114.042 52.0042 115.569 51.3866 116.834 50.3974Z" fill="#BF9875"/>
<path d="M107.825 49.9558C106.544 48.7616 105.877 47.4608 105.924 46.4735C105.924 46.3868 106.006 46.3401 106.122 46.3601C107.709 46.6762 109.17 47.4309 110.332 48.5348C111.613 49.7289 112.281 51.0365 112.233 52.0238C112.233 52.1105 112.151 52.1572 112.035 52.1372C110.448 51.8198 108.986 51.0627 107.825 49.9558Z" fill="#BF9875"/>
<path d="M116.338 43.971C117.565 42.8369 118.198 41.5961 118.157 40.6355C118.157 40.5487 118.076 40.5087 117.967 40.522C116.454 40.8328 115.063 41.5567 113.954 42.6101C112.734 43.7442 112.094 44.985 112.135 45.9456C112.135 46.0257 112.216 46.0657 112.325 46.0523C113.839 45.7481 115.231 45.0258 116.338 43.971Z" fill="#BF9875"/>
<path d="M107.757 44.3712C106.429 43.3505 105.68 42.1764 105.625 41.2291C105.625 41.1491 105.693 41.1024 105.809 41.109C107.345 41.271 108.8 41.864 109.999 42.8168C111.327 43.8308 112.084 45.0049 112.131 45.9522C112.131 46.0323 112.063 46.079 111.954 46.0723C110.418 45.9102 108.961 45.3198 107.757 44.3712Z" fill="#BF9875"/>
<path d="M115.016 37.1942C116.017 35.86 116.419 34.5258 116.208 33.6118C116.208 33.5318 116.106 33.4984 116.004 33.5384C114.569 34.1009 113.332 35.0577 112.441 36.2936C111.439 37.6278 111.03 38.962 111.242 39.8693C111.242 39.9493 111.344 39.9827 111.453 39.9426C112.884 39.3787 114.121 38.4249 115.016 37.1942Z" fill="#BF9875"/>
<path d="M106.648 39.0687C105.156 38.3015 104.202 37.2675 103.984 36.3536C103.984 36.2735 104.025 36.2135 104.134 36.2001C105.676 36.0907 107.217 36.4221 108.57 37.1541C110.062 37.9213 111.015 38.9553 111.233 39.8692C111.233 39.9493 111.192 40.016 111.083 40.0226C109.542 40.132 108.001 39.8006 106.648 39.0687Z" fill="#BF9875"/>
<path d="M112.791 30.5572C113.608 29.1096 113.833 27.7421 113.472 26.8548C113.472 26.7748 113.356 26.7614 113.261 26.8081C111.911 27.5456 110.807 28.648 110.079 29.9835C109.262 31.4311 109.044 32.7987 109.398 33.686C109.398 33.766 109.514 33.7794 109.616 33.7327C110.962 32.9926 112.064 31.8907 112.791 30.5572Z" fill="#BF9875"/>
<path d="M104.74 33.4769C103.159 32.8965 102.083 32.0026 101.742 31.1154C101.742 31.042 101.742 30.9686 101.878 30.9419C103.393 30.6467 104.963 30.7809 106.402 31.3288C107.983 31.9026 109.066 32.8031 109.4 33.6837C109.4 33.7638 109.4 33.8305 109.271 33.8572C107.754 34.1551 106.182 34.0232 104.74 33.4769Z" fill="#BF9875"/>
<path d="M109.786 24.573C110.345 23.1854 110.379 21.9046 109.977 21.1774C109.936 21.1174 109.861 21.1107 109.773 21.1774C108.657 21.9936 107.805 23.1078 107.32 24.3862C106.761 25.7738 106.727 27.0546 107.129 27.7818C107.163 27.8418 107.245 27.8485 107.327 27.7818C108.445 26.9663 109.299 25.8521 109.786 24.573Z" fill="#BF9875"/>
<path d="M102.944 28.1159C101.459 27.7823 100.382 27.1086 99.9737 26.3547C99.9396 26.288 99.9737 26.2213 100.076 26.188C101.392 25.7425 102.812 25.68 104.164 26.0078C105.649 26.3347 106.725 27.0152 107.134 27.769C107.168 27.829 107.134 27.9024 107.039 27.9358C105.719 28.3776 104.299 28.4402 102.944 28.1159Z" fill="#BF9875"/>
<path d="M106.052 19.0431C106.372 17.5888 106.195 16.3747 105.677 15.6676C105.63 15.6075 105.548 15.6142 105.473 15.6676C104.506 16.658 103.849 17.8988 103.579 19.2432C103.265 20.6975 103.436 21.9117 103.96 22.6188C104.001 22.6788 104.083 22.6722 104.158 22.6188C105.127 21.6301 105.785 20.3886 106.052 19.0431Z" fill="#BF9875"/>
<path d="M99.8795 23.6299C98.3602 23.5366 97.1884 23.0362 96.6638 22.3625C96.6161 22.3024 96.6638 22.229 96.7319 22.1757C97.9589 21.5302 99.3493 21.2431 100.738 21.3485C102.257 21.4418 103.429 21.9422 103.96 22.616C104.008 22.676 103.96 22.7494 103.892 22.7961C102.664 23.4437 101.271 23.7331 99.8795 23.6299Z" fill="#BF9875"/>
<path d="M102.602 14.9058C102.724 14.3918 102.738 13.8588 102.643 13.3394C102.548 12.8199 102.347 12.3247 102.051 11.8838C102.01 11.8305 101.935 11.8438 101.873 11.8838C101.063 12.8337 100.547 13.9913 100.388 15.2194C100.27 15.7336 100.257 16.266 100.352 16.785C100.447 17.304 100.647 17.7992 100.94 18.2413C100.988 18.288 101.056 18.2814 101.117 18.2413C101.933 17.2947 102.449 16.1355 102.602 14.9058Z" fill="#BF9875"/>
<path d="M97.3251 19.4029C96.7893 19.4495 96.2494 19.3897 95.7377 19.2269C95.2261 19.0641 94.7534 18.8017 94.3479 18.4556C94.3002 18.4022 94.3479 18.3355 94.3956 18.2888C95.4615 17.6308 96.6987 17.288 97.9587 17.3015C98.4946 17.2548 99.0345 17.3147 99.5462 17.4775C100.058 17.6403 100.531 17.9026 100.936 18.2488C100.984 18.2955 100.936 18.3689 100.888 18.4156C99.8224 19.0735 98.5852 19.4164 97.3251 19.4029Z" fill="#BF9875"/>
<path d="M98.756 10.9907C98.8522 10.4722 98.8416 9.94005 98.7246 9.42562C98.6075 8.9112 98.3866 8.42492 98.0747 7.99542C98.027 7.94872 97.9588 7.96206 97.8975 8.02877C97.1354 9.00964 96.6746 10.1829 96.569 11.411C96.4727 11.9295 96.4834 12.4617 96.6004 12.9761C96.7174 13.4905 96.9383 13.9768 97.2503 14.4063C97.298 14.453 97.3661 14.4396 97.4274 14.3729C98.1905 13.3926 98.6515 12.2191 98.756 10.9907Z" fill="#BF9875"/>
<path d="M93.6983 15.7193C93.1652 15.7901 92.6229 15.7546 92.1042 15.6147C91.5855 15.4748 91.1011 15.2335 90.6802 14.9054C90.6325 14.8587 90.6461 14.792 90.721 14.7387C91.7545 14.0356 92.9722 13.6374 94.2297 13.5913C94.7639 13.5214 95.307 13.5575 95.8266 13.6973C96.3463 13.8371 96.8319 14.0778 97.2547 14.4051C97.3024 14.4518 97.2547 14.5185 97.2138 14.5786C96.1776 15.2805 94.9575 15.6764 93.6983 15.7193Z" fill="#BF9875"/>
<path d="M90.3367 9.84163C89.3352 8.92102 88.8582 7.88034 88.9741 7.06647C88.9741 6.99309 89.0558 6.95307 89.1512 6.96641C90.4321 7.13938 91.6244 7.70443 92.5577 8.5808C92.9865 8.91048 93.3323 9.3321 93.5686 9.81323C93.8048 10.2943 93.9251 10.8221 93.9203 11.356C93.9203 11.4293 93.8385 11.4694 93.7363 11.4627C92.4589 11.2804 91.2709 10.714 90.3367 9.84163Z" fill="#BF9875"/>
</svg>
