<svg width="85" height="85" viewBox="0 0 85 85" fill="none" xmlns="http://www.w3.org/2000/svg">
<g clip-path="url(#clip0_516_14549)">
<path d="M42.4906 85.0004C42.2944 85.001 42.1005 84.958 41.923 84.8743C41.7455 84.7906 41.5888 84.6684 41.4644 84.5166C40.6781 83.561 39.6441 83.2464 38.5589 82.9161C37.2418 82.5228 35.7556 82.0587 34.8945 80.3402C33.889 81.1725 32.6258 81.6298 31.3206 81.634C28.0534 81.7441 24.8136 80.1318 21.6722 78.5705C18.7706 77.1311 15.7746 75.6407 12.9241 75.6407C12.2415 75.6391 11.5618 75.729 10.9031 75.9081C10.6506 75.9792 10.3837 75.9817 10.1298 75.9155C9.87595 75.8493 9.64428 75.7167 9.45857 75.5314C9.27286 75.346 9.13981 75.1146 9.07308 74.8608C9.00634 74.607 9.00833 74.34 9.07884 74.0873C10.0382 70.6108 8.29248 67.0675 6.41705 63.3158C4.84436 60.1697 3.24806 56.9253 3.35815 53.6651C3.36235 52.3596 3.81958 51.0961 4.65171 50.0903C2.92961 49.2291 2.47744 47.7308 2.07641 46.4251C1.74614 45.3397 1.43157 44.3133 0.472231 43.5189C0.321952 43.3934 0.201081 43.2364 0.118126 43.059C0.03517 42.8817 -0.0078125 42.6883 -0.0078125 42.4925C-0.0078125 42.2967 0.03517 42.1032 0.118126 41.9259C0.201081 41.7485 0.321952 41.5916 0.472231 41.4661C1.43157 40.6795 1.74614 39.6453 2.07641 38.5559C2.46958 37.2424 2.93354 35.7519 4.65171 34.8946C3.82016 33.8885 3.36301 32.6252 3.35815 31.3198C3.24806 28.0597 4.86008 24.8074 6.41705 21.6692C8.28069 17.9135 10.0382 14.3702 9.07884 10.8977C9.00876 10.6448 9.00703 10.3779 9.07384 10.1241C9.14066 9.87034 9.27364 9.63887 9.45915 9.45331C9.64465 9.26776 9.87603 9.13478 10.1297 9.06795C10.3834 9.00112 10.6503 9.00283 10.9031 9.07292C11.5618 9.25196 12.2415 9.34192 12.9241 9.34036C15.7667 9.34036 18.7706 7.85382 21.6722 6.41054C24.8176 4.83748 28.0612 3.26442 31.3206 3.35093C32.6258 3.35514 33.889 3.81247 34.8945 4.64479C35.7556 2.92229 37.2536 2.47002 38.555 2.06889C39.6441 1.73855 40.6702 1.42396 41.4644 0.464392C41.5925 0.318202 41.7503 0.201047 41.9273 0.12079C42.1043 0.0405333 42.2963 -0.000976562 42.4906 -0.000976562C42.685 -0.000976562 42.877 0.0405333 43.054 0.12079C43.231 0.201047 43.3888 0.318202 43.5169 0.464392C44.3032 1.42396 45.3372 1.73855 46.4263 2.06889C47.7395 2.46215 49.2297 2.92229 50.0868 4.64479C51.0923 3.81247 52.3555 3.35514 53.6606 3.35093C56.9161 3.24082 60.1677 4.85321 63.3091 6.41054C66.2107 7.85382 69.2067 9.34429 72.0572 9.34036C72.7398 9.34192 73.4195 9.25196 74.0782 9.07292C74.332 9.00464 74.5993 9.00508 74.8528 9.07419C75.1064 9.14329 75.337 9.27857 75.5211 9.46618C75.7104 9.6491 75.8469 9.87976 75.9161 10.1338C75.9853 10.3878 75.9846 10.6558 75.9143 10.9095C74.9588 14.382 76.7006 17.9292 78.58 21.681C80.1527 24.8271 81.749 28.0715 81.6389 31.3317C81.634 32.637 81.1769 33.9003 80.3453 34.9064C82.0635 35.7637 82.5196 37.266 82.9206 38.5677C83.2509 39.6571 83.5654 40.6835 84.5247 41.4779C84.6756 41.603 84.7971 41.7598 84.8804 41.9372C84.9638 42.1146 85.007 42.3083 85.007 42.5043C85.007 42.7003 84.9638 42.8939 84.8804 43.0713C84.7971 43.2488 84.6756 43.4056 84.5247 43.5307C83.5693 44.3172 83.2548 45.3515 82.9246 46.4369C82.5314 47.7544 82.0674 49.2409 80.3493 50.1021C81.1808 51.1082 81.638 52.3715 81.6428 53.6769C81.7529 56.937 80.1409 60.1854 78.5839 63.3276C76.7203 67.0793 74.9628 70.6226 75.9221 74.0991C75.9913 74.3517 75.9924 74.6181 75.9252 74.8713C75.858 75.1245 75.7249 75.3553 75.5395 75.5403C75.3541 75.7253 75.123 75.8579 74.8698 75.9246C74.6166 75.9913 74.3502 75.9897 74.0978 75.9199C73.4391 75.7409 72.7594 75.6509 72.0769 75.6525C69.2343 75.6525 66.2304 77.143 63.3288 78.5823C60.1834 80.1554 56.9358 81.752 53.6803 81.6458C52.3744 81.6421 51.1106 81.1832 50.1064 80.3481C49.2493 82.0705 47.7474 82.5267 46.4421 82.9278C45.3569 83.2582 44.3307 83.5728 43.5364 84.5285C43.4088 84.6807 43.2485 84.8022 43.0674 84.8839C42.8864 84.9656 42.6892 85.0054 42.4906 85.0004ZM34.9063 78.9087C34.9975 78.9081 35.0884 78.9174 35.1776 78.9362C35.38 78.976 35.5704 79.0624 35.7336 79.1887C35.8967 79.315 36.0281 79.4777 36.1173 79.6638C36.7071 80.8947 37.69 81.1975 38.9639 81.5829C40.1238 81.9368 41.437 82.338 42.5025 83.5728C43.5562 82.338 44.8615 81.9368 46.041 81.5829C47.3031 81.1896 48.2978 80.8947 48.8876 79.6638C48.9777 79.479 49.1091 79.3174 49.2716 79.1915C49.4341 79.0656 49.6234 78.9788 49.8248 78.9377C50.0262 78.8967 50.2344 78.9025 50.4332 78.9547C50.632 79.007 50.8162 79.1042 50.9714 79.239C51.7391 79.8923 52.7157 80.2481 53.7236 80.2419C56.6292 80.3441 59.7194 78.8064 62.7076 77.3238C65.6957 75.8412 68.9001 74.2485 72.073 74.2485C72.8805 74.246 73.6847 74.3531 74.4635 74.567L75.0454 75.0351L74.55 74.5435C74.5627 74.5336 74.5719 74.5198 74.5762 74.5042C74.5804 74.4886 74.5795 74.472 74.5736 74.457C73.4727 70.4693 75.4346 66.517 77.3258 62.6944C78.8749 59.5719 80.3414 56.6225 80.2431 53.7123C80.2491 52.7049 79.8949 51.7286 79.2444 50.9595C79.108 50.8051 79.0092 50.6212 78.9558 50.4222C78.9024 50.2233 78.8958 50.0146 78.9366 49.8127C78.9773 49.6107 79.0644 49.4209 79.1908 49.2583C79.3172 49.0956 79.4795 48.9645 79.6651 48.8751C80.8958 48.2853 81.1985 47.3021 81.5838 46.0279C81.9376 44.8678 82.3387 43.5543 83.5733 42.4885C82.3387 41.4346 81.9376 40.129 81.5838 38.9492C81.1906 37.6868 80.8958 36.6879 79.6691 36.1019C79.4825 36.013 79.3193 35.8817 79.1923 35.7185C79.0653 35.5553 78.9782 35.3648 78.9377 35.162C78.895 34.96 78.9005 34.7507 78.9538 34.5512C79.007 34.3517 79.1067 34.1675 79.2444 34.0137C79.8961 33.2453 80.2505 32.2685 80.2431 31.2609C80.3414 28.3507 78.8749 25.4012 77.3258 22.2748C75.4307 18.4523 73.4688 14.5 74.5736 10.5162C74.5798 10.5006 74.5809 10.4834 74.5766 10.4671C74.5724 10.4508 74.563 10.4363 74.55 10.4257H74.4635C73.6847 10.6397 72.8805 10.7468 72.073 10.7443C68.9001 10.7443 65.7507 9.17125 62.7076 7.66899C59.6644 6.16672 56.6488 4.6487 53.7236 4.75095C52.7165 4.74497 51.7404 5.09925 50.9714 5.74986C50.8187 5.88815 50.6353 5.9881 50.4364 6.04144C50.2374 6.09479 50.0286 6.09997 49.8272 6.05659C49.6239 6.01764 49.4328 5.93104 49.2694 5.80389C49.1061 5.67674 48.9752 5.51266 48.8876 5.32513C48.2978 4.09814 47.3149 3.79533 46.041 3.40993C44.8811 3.056 43.5679 2.65486 42.5025 1.41608C41.4487 2.65486 40.1434 3.056 38.9639 3.40993C37.7018 3.8032 36.7071 4.09814 36.1173 5.32513C36.0293 5.51164 35.8987 5.67495 35.7363 5.80197C35.5738 5.92899 35.3838 6.01618 35.1815 6.05659C34.9796 6.1003 34.7701 6.09529 34.5705 6.04195C34.3708 5.98861 34.1868 5.88848 34.0335 5.74986C33.2645 5.09925 32.2884 4.74497 31.2813 4.75095C28.36 4.6487 25.2854 6.18638 22.2973 7.66899C19.3091 9.15159 16.1009 10.7443 12.9319 10.7443C12.1244 10.7468 11.3202 10.6397 10.5414 10.4257H10.4549C10.4419 10.4363 10.4325 10.4508 10.4283 10.4671C10.424 10.4834 10.4251 10.5006 10.4313 10.5162C11.5322 14.5 9.57028 18.4523 7.67912 22.2748C6.13002 25.4209 4.66351 28.3507 4.76181 31.2609C4.75582 32.2682 5.11003 33.2446 5.76048 34.0137C5.89677 34.1683 5.99531 34.3525 6.04845 34.5516C6.10158 34.7508 6.10784 34.9596 6.06669 35.1616C6.02554 35.3635 5.93807 35.5532 5.81126 35.7157C5.68444 35.8782 5.52173 36.0091 5.33582 36.098C4.10912 36.684 3.80634 37.6711 3.42103 38.9452C3.06717 40.1054 2.66621 41.4189 1.43165 42.4846C2.66621 43.5386 3.06717 44.8442 3.42103 46.024C3.8142 47.2864 4.10912 48.2813 5.33582 48.8712C5.52173 48.9602 5.68444 49.091 5.81126 49.2535C5.93807 49.416 6.02554 49.6057 6.06669 49.8077C6.10784 50.0096 6.10158 50.2185 6.04845 50.4176C5.99531 50.6168 5.89677 50.8009 5.76048 50.9555C5.10942 51.7243 4.75513 52.7009 4.76181 53.7084C4.66351 56.6185 6.13002 59.568 7.67912 62.6905C9.57421 66.513 11.5361 70.4653 10.4313 74.453C10.4254 74.4681 10.4245 74.4846 10.4287 74.5002C10.433 74.5158 10.4422 74.5296 10.4549 74.5395L10.5414 74.5631C11.3202 74.3492 12.1244 74.2421 12.9319 74.2446C16.1009 74.2446 19.2541 75.8176 22.2973 77.3199C25.3404 78.8222 28.3639 80.3441 31.2813 80.2379C32.2884 80.2439 33.2645 79.8896 34.0335 79.239C34.2754 79.0226 34.5897 78.9048 34.9142 78.9087H34.9063Z" fill="#B79763"/>
<path fill-rule="evenodd" clip-rule="evenodd" d="M42.4895 18.1411C36.8571 18.1404 31.3986 20.0931 27.0442 23.6666C22.6898 27.24 19.7089 32.2131 18.6094 37.7385C17.5099 43.2638 18.3598 48.9996 21.0144 53.9684C23.6689 58.9372 27.9638 62.8317 33.1673 64.9882C38.3708 67.1448 44.1608 67.4299 49.5509 65.7951C54.941 64.1603 59.5975 60.7066 62.7272 56.0227C65.8569 51.3387 67.2661 45.7142 66.7145 40.1076C66.163 34.5009 63.685 29.2589 59.7026 25.2749C57.4447 23.0103 54.7617 21.2143 51.8077 19.9901C48.8537 18.7658 45.687 18.1374 42.4895 18.1411ZM24.2385 24.2367C28.4608 20.0142 34.0161 17.3867 39.9581 16.8019C45.9 16.217 51.8609 17.711 56.8251 21.0292C61.7893 24.3474 65.4497 29.2846 67.1826 34.9996C68.9155 40.7146 68.6136 46.8537 66.3285 52.3711C64.0434 57.8884 59.9164 62.4426 54.6507 65.2577C49.385 68.0727 43.3063 68.9745 37.4503 67.8094C31.5944 66.6442 26.3236 63.4842 22.5359 58.8677C18.7481 54.2513 16.6778 48.464 16.6777 42.492C16.6744 39.1004 17.3414 35.7416 18.6403 32.6087C19.9391 29.4758 21.8444 26.6306 24.2463 24.2367H24.2385Z" fill="#B79763"/>
<path fill-rule="evenodd" clip-rule="evenodd" d="M12.1251 40.6635C11.2483 40.4668 10.3755 40.2702 9.49872 40.1129C8.62195 39.9556 7.72942 39.7943 6.82119 39.6606C6.75131 39.6446 6.6904 39.602 6.65149 39.5418C6.61257 39.4815 6.5987 39.4085 6.6128 39.3382C6.61848 39.2734 6.64755 39.2129 6.69458 39.168C6.74162 39.1232 6.80337 39.097 6.86833 39.0943C7.78835 39.1179 8.68878 39.1179 9.58521 39.0943C10.4816 39.0708 11.3701 39.0472 12.2666 39.0039C12.8836 39.0554 13.4841 39.2305 14.032 39.5191C14.3164 39.6446 14.6078 39.7536 14.9048 39.8455C14.9347 39.8519 14.963 39.8643 14.9879 39.882C15.0128 39.8998 15.0338 39.9224 15.0496 39.9486C15.0654 39.9747 15.0758 40.0038 15.0799 40.0341C15.0841 40.0644 15.0821 40.0952 15.0739 40.1247C15.0574 40.1675 15.029 40.2047 14.9921 40.2319C14.9552 40.2591 14.9113 40.2751 14.8655 40.2781C14.5585 40.3192 14.254 40.377 13.9533 40.4511C13.3645 40.6447 12.7426 40.7169 12.1251 40.6635Z" fill="#B79763"/>
<path fill-rule="evenodd" clip-rule="evenodd" d="M12.8965 35.4136C12.0708 35.0715 11.2451 34.7372 10.4076 34.4187C9.57019 34.1001 8.72093 33.7934 7.84809 33.5024C7.78805 33.4723 7.74026 33.4223 7.71284 33.361C7.68542 33.2997 7.68008 33.2308 7.69767 33.166C7.71526 33.1011 7.75475 33.0444 7.8094 33.0053C7.86406 32.9663 7.93053 32.9474 7.99754 32.9518C8.89791 33.1366 9.78649 33.2939 10.6672 33.4355C11.5479 33.5771 12.4325 33.699 13.3251 33.8288C13.9231 33.987 14.4833 34.2639 14.9724 34.6428C15.2248 34.817 15.4874 34.9759 15.7588 35.1187C15.7866 35.1306 15.8116 35.1479 15.8325 35.1698C15.8534 35.1916 15.8697 35.2175 15.8804 35.2458C15.891 35.274 15.8958 35.3042 15.8945 35.3344C15.8932 35.3646 15.8858 35.3942 15.8728 35.4215C15.8494 35.461 15.815 35.4929 15.7738 35.5131C15.7326 35.5334 15.6864 35.5412 15.6408 35.5355C15.3317 35.5181 15.022 35.5181 14.713 35.5355C14.1054 35.6162 13.4878 35.5748 12.8965 35.4136Z" fill="#B79763"/>
<path fill-rule="evenodd" clip-rule="evenodd" d="M14.5758 30.3834C13.817 29.8997 13.066 29.4238 12.2954 28.9637C11.5248 28.5036 10.7463 28.0553 9.93634 27.6148C9.88374 27.5746 9.84645 27.5175 9.83065 27.4532C9.81486 27.3888 9.8215 27.321 9.84947 27.2609C9.87743 27.2009 9.92512 27.1522 9.98452 27.1228C10.0439 27.0935 10.1115 27.0853 10.1762 27.0997C11.0294 27.4379 11.8747 27.7486 12.724 28.0435C13.5732 28.3385 14.4146 28.6137 15.2717 28.8812C15.8333 29.1402 16.3363 29.5108 16.75 29.9705C16.9753 30.1873 17.2129 30.3908 17.4617 30.58C17.4875 30.5962 17.5096 30.6176 17.5267 30.6428C17.5438 30.668 17.5554 30.6965 17.561 30.7264C17.5665 30.7563 17.5658 30.7871 17.5589 30.8167C17.5519 30.8463 17.5389 30.8742 17.5207 30.8986C17.4913 30.9328 17.4526 30.9577 17.4093 30.9703C17.366 30.9829 17.32 30.9826 17.2769 30.9694C16.9732 30.9031 16.666 30.8532 16.3569 30.8199C15.74 30.795 15.1343 30.6466 14.5758 30.3834Z" fill="#B79763"/>
<path fill-rule="evenodd" clip-rule="evenodd" d="M17.1021 25.719C16.4415 25.1094 15.7811 24.5116 15.1048 23.9257C14.4285 23.3397 13.7405 22.7459 13.017 22.1875C12.9625 22.1378 12.9298 22.0686 12.9261 21.9949C12.9224 21.9212 12.948 21.849 12.9974 21.7942C13.0349 21.7404 13.0908 21.7022 13.1546 21.687C13.2184 21.6718 13.2856 21.6805 13.3434 21.7116C14.1297 22.1953 14.9161 22.6476 15.7024 23.0841C16.4888 23.5206 17.2751 23.9375 18.0615 24.3504C18.571 24.7038 19.0031 25.1575 19.3314 25.6836C19.5153 25.9336 19.7122 26.1738 19.9212 26.4032C19.9429 26.4245 19.9601 26.4499 19.9719 26.4779C19.9838 26.5059 19.9899 26.536 19.9899 26.5664C19.9899 26.5969 19.9838 26.627 19.9719 26.655C19.9601 26.683 19.9429 26.7084 19.9212 26.7296C19.8856 26.758 19.8426 26.7757 19.7973 26.7806C19.7521 26.7854 19.7064 26.7773 19.6655 26.7572C19.4021 26.6431 19.0955 26.5448 18.7848 26.4465C18.1803 26.3208 17.6078 26.0733 17.1021 25.719Z" fill="#B79763"/>
<path fill-rule="evenodd" clip-rule="evenodd" d="M20.4061 21.5625C19.8557 20.8468 19.3131 20.1507 18.7509 19.4546C18.1886 18.7585 17.6027 18.0703 16.9933 17.3821C16.9703 17.3535 16.9531 17.3206 16.9428 17.2853C16.9325 17.25 16.9293 17.213 16.9333 17.1765C16.9373 17.14 16.9485 17.1046 16.9662 17.0724C16.984 17.0402 17.0079 17.0118 17.0366 16.9889C17.0837 16.9426 17.1459 16.9152 17.2118 16.9115C17.2776 16.9079 17.3425 16.9284 17.3944 16.9692C18.0824 17.5788 18.7705 18.149 19.4664 18.7232C20.1623 19.2973 20.8583 19.8321 21.5778 20.3788C22.0155 20.8175 22.3616 21.3388 22.596 21.9125C22.7454 22.1996 22.8949 22.4867 23.0522 22.7266C23.0714 22.7502 23.0854 22.7776 23.0932 22.8071C23.1011 22.8365 23.1027 22.8672 23.0979 22.8973C23.093 22.9274 23.0819 22.9561 23.0652 22.9815C23.0485 23.007 23.0266 23.0287 23.001 23.0451C22.9631 23.0702 22.9187 23.0835 22.8732 23.0835C22.8278 23.0835 22.7834 23.0702 22.7455 23.0451C22.4835 22.8792 22.2132 22.727 21.9355 22.5889C21.3612 22.3544 20.8408 22.0051 20.4061 21.5625Z" fill="#B79763"/>
<path fill-rule="evenodd" clip-rule="evenodd" d="M24.373 18.0544C23.9602 17.2679 23.5434 16.4813 23.107 15.6948C22.6706 14.9083 22.2184 14.1218 21.7348 13.3352C21.7013 13.2721 21.694 13.1982 21.7147 13.1297C21.7353 13.0612 21.7821 13.0036 21.8449 12.9695C21.8993 12.932 21.9654 12.9153 22.0311 12.9225C22.0968 12.9298 22.1577 12.9604 22.2027 13.0088C22.7728 13.7324 23.3508 14.4206 23.9406 15.097C24.5303 15.7735 25.1201 16.4341 25.7295 17.0948C26.0879 17.5997 26.3394 18.1725 26.4686 18.778C26.5669 19.0887 26.6652 19.3954 26.7793 19.6589C26.7932 19.6859 26.8015 19.7154 26.8036 19.7457C26.8058 19.7759 26.8018 19.8063 26.7918 19.835C26.7819 19.8637 26.7663 19.8901 26.7458 19.9125C26.7254 19.935 26.7007 19.9531 26.6731 19.9656C26.6301 19.9796 26.584 19.9811 26.5401 19.9699C26.4963 19.9588 26.4565 19.9355 26.4253 19.9027C26.1961 19.6948 25.9559 19.4992 25.7059 19.3168C25.1807 18.9907 24.7271 18.5612 24.373 18.0544Z" fill="#B79763"/>
<path fill-rule="evenodd" clip-rule="evenodd" d="M28.8908 15.263C28.6235 14.4057 28.3483 13.5602 28.0534 12.7146C27.7585 11.8691 27.4518 11.0197 27.1097 10.1663C27.0886 10.0975 27.0954 10.0231 27.1285 9.95914C27.1615 9.89518 27.2184 9.84672 27.2867 9.82417C27.346 9.79657 27.4133 9.79132 27.4761 9.80938C27.539 9.82745 27.5932 9.86761 27.6287 9.92248C28.0652 10.7326 28.5134 11.4955 28.9773 12.2821C29.4412 13.0686 29.9092 13.804 30.3928 14.563C30.6582 15.1222 30.8067 15.7298 30.8292 16.3484C30.8618 16.6579 30.913 16.9653 30.9825 17.2686C30.9915 17.2976 30.9945 17.328 30.9914 17.3581C30.9882 17.3882 30.9791 17.4174 30.9644 17.4438C30.9497 17.4703 30.9297 17.4935 30.9058 17.512C30.8819 17.5306 30.8546 17.5441 30.8253 17.5518C30.7803 17.5594 30.734 17.5538 30.6922 17.5356C30.6503 17.5175 30.6146 17.4876 30.5894 17.4496C30.3989 17.2029 30.1955 16.9666 29.9799 16.7417C29.5224 16.3259 29.1522 15.8233 28.8908 15.263Z" fill="#B79763"/>
<path fill-rule="evenodd" clip-rule="evenodd" d="M33.8399 13.312C33.7219 12.4193 33.6 11.5384 33.4467 10.6535C33.2934 9.76869 33.1479 8.88385 32.9631 7.98328C32.9541 7.91198 32.9733 7.83998 33.0167 7.78266C33.06 7.72535 33.1241 7.68725 33.1951 7.67652C33.2583 7.65919 33.3255 7.66565 33.3842 7.69464C33.4429 7.72364 33.4889 7.77316 33.5135 7.83384C33.8045 8.70688 34.1112 9.55633 34.4296 10.394C34.7481 11.2316 35.0823 12.0535 35.4244 12.8833C35.5888 13.481 35.629 14.1061 35.5423 14.7199C35.5423 15.0424 35.5148 15.3609 35.5423 15.6519C35.5468 15.6818 35.5449 15.7122 35.5371 15.7414C35.5292 15.7705 35.5155 15.7977 35.4967 15.8213C35.4779 15.8449 35.4545 15.8644 35.4278 15.8786C35.4012 15.8927 35.3719 15.9012 35.3418 15.9036C35.296 15.9031 35.2513 15.8895 35.213 15.8644C35.1747 15.8393 35.1443 15.8038 35.1256 15.762C34.982 15.4918 34.8246 15.2293 34.6538 14.9755C34.2707 14.4831 33.9935 13.9167 33.8399 13.312Z" fill="#B79763"/>
<path fill-rule="evenodd" clip-rule="evenodd" d="M39.0176 12.2538C39.0595 11.3572 39.0897 10.4631 39.108 9.57175C39.108 8.67511 39.108 7.77454 39.108 6.85431C39.1163 6.78844 39.1468 6.72738 39.1946 6.68127C39.2423 6.63516 39.3044 6.60676 39.3705 6.60079C39.4366 6.59482 39.5028 6.61165 39.558 6.64846C39.6132 6.68527 39.6543 6.73986 39.6742 6.80318C39.8079 7.71555 39.9612 8.60433 40.1303 9.48524C40.2994 10.3662 40.4802 11.2353 40.6768 12.1083C40.7351 12.7254 40.6656 13.348 40.4724 13.937C40.3986 14.2392 40.3408 14.545 40.2993 14.8533C40.2978 14.8836 40.2904 14.9133 40.2772 14.9407C40.2641 14.9681 40.2456 14.9925 40.2229 15.0127C40.2002 15.0328 40.1737 15.0482 40.145 15.058C40.1162 15.0678 40.0859 15.0717 40.0556 15.0696C40.0105 15.0607 39.969 15.0388 39.9362 15.0067C39.9034 14.9746 39.8807 14.9336 39.8708 14.8887C39.7758 14.5922 39.6656 14.3008 39.5405 14.0156C39.2494 13.4695 39.0716 12.8703 39.0176 12.2538Z" fill="#B79763"/>
<path fill-rule="evenodd" clip-rule="evenodd" d="M40.669 72.8719C40.4764 73.7489 40.2758 74.618 40.1225 75.4989C39.9691 76.3798 39.8001 77.2686 39.6664 78.177C39.6504 78.2469 39.6077 78.3078 39.5475 78.3467C39.4873 78.3856 39.4143 78.3996 39.344 78.3855C39.2786 78.3797 39.2176 78.35 39.1727 78.3022C39.1277 78.2543 39.1019 78.1915 39.1002 78.1259C39.1238 77.2057 39.1238 76.309 39.1002 75.4124C39.0766 74.5157 39.053 73.627 39.0098 72.7303C39.0612 72.1131 39.2364 71.5126 39.5248 70.9646C39.6506 70.6784 39.7608 70.3856 39.8551 70.0876C39.8615 70.0582 39.8738 70.0304 39.8913 70.0059C39.9089 69.9815 39.9312 69.9609 39.957 69.9455C39.9828 69.93 40.0115 69.9199 40.0413 69.916C40.0711 69.912 40.1014 69.9142 40.1303 69.9224C40.1734 69.9384 40.2109 69.9667 40.2381 70.0037C40.2654 70.0408 40.2812 70.0849 40.2836 70.1309C40.3248 70.4379 40.3826 70.7424 40.4567 71.0432C40.6522 71.6317 40.7245 72.2542 40.669 72.8719Z" fill="#B79763"/>
<path fill-rule="evenodd" clip-rule="evenodd" d="M35.4131 72.1015C35.071 72.9273 34.7368 73.7531 34.4183 74.5908C34.0999 75.4285 33.7931 76.2779 33.5022 77.151C33.4721 77.211 33.4222 77.2588 33.3609 77.2862C33.2996 77.3137 33.2308 77.319 33.1659 77.3014C33.1011 77.2839 33.0444 77.2444 33.0054 77.1897C32.9663 77.135 32.9474 77.0685 32.9518 77.0015C33.1366 76.1009 33.2938 75.2121 33.4354 74.3273C33.5769 73.4425 33.6988 72.5615 33.8286 71.6728C33.9835 71.0733 34.2606 70.5123 34.6425 70.025C34.8155 69.7497 34.9884 69.4784 35.1182 69.2188C35.1297 69.1912 35.1467 69.1661 35.1681 69.1452C35.1895 69.1242 35.2148 69.1077 35.2427 69.0967C35.2705 69.0857 35.3003 69.0804 35.3302 69.0811C35.3602 69.0818 35.3897 69.0885 35.417 69.1008C35.4565 69.1242 35.4883 69.1586 35.5086 69.1998C35.5288 69.2411 35.5367 69.2873 35.531 69.3329C35.531 69.6239 35.531 69.9385 35.531 70.2649C35.6174 70.8787 35.5773 71.5037 35.4131 72.1015Z" fill="#B79763"/>
<path fill-rule="evenodd" clip-rule="evenodd" d="M30.3914 70.4222C29.9078 71.1773 29.4359 71.9323 28.9759 72.6992C28.5159 73.4661 28.0638 74.2486 27.6274 75.0588C27.588 75.1139 27.5305 75.1537 27.465 75.171C27.3995 75.1884 27.3301 75.1823 27.2685 75.1538C27.207 75.1254 27.1573 75.0764 27.1281 75.0152C27.0989 74.9541 27.0919 74.8846 27.1083 74.8189C27.4504 73.9616 27.7571 73.12 28.052 72.2705C28.3469 71.4211 28.6221 70.5795 28.8894 69.7222C29.1506 69.1607 29.5208 68.6567 29.9785 68.2396C30.1963 68.0166 30.3999 67.7803 30.588 67.5317C30.6042 67.5061 30.6256 67.484 30.6506 67.4669C30.6757 67.4497 30.7039 67.4379 30.7337 67.432C30.7634 67.4261 30.7942 67.4263 30.8239 67.4327C30.8536 67.439 30.8817 67.4513 30.9064 67.4688C30.9406 67.4991 30.9653 67.5385 30.9779 67.5823C30.9904 67.6262 30.9902 67.6728 30.9772 67.7166C30.9106 68.0203 30.8608 68.3275 30.8278 68.6368C30.8049 69.2554 30.6563 69.8628 30.3914 70.4222Z" fill="#B79763"/>
<path fill-rule="evenodd" clip-rule="evenodd" d="M25.7298 67.8933C25.1203 68.554 24.5227 69.2147 23.9408 69.8912C23.3589 70.5676 22.7612 71.2557 22.2029 71.9754C22.1538 72.0305 22.0849 72.064 22.0112 72.0684C21.9375 72.0728 21.8651 72.0479 21.8097 71.999C21.7559 71.9615 21.7178 71.9055 21.7026 71.8417C21.6874 71.7779 21.6961 71.7107 21.7272 71.653C22.2108 70.8664 22.6629 70.0799 23.0994 69.2934C23.5358 68.5069 23.9525 67.7203 24.3654 66.9338C24.7198 66.4251 25.1732 65.9931 25.6983 65.6636C25.9482 65.4796 26.1884 65.2827 26.4178 65.0737C26.4391 65.0519 26.4644 65.0346 26.4924 65.0228C26.5204 65.011 26.5505 65.0049 26.5809 65.0049C26.6113 65.0049 26.6415 65.011 26.6695 65.0228C26.6975 65.0346 26.7228 65.0519 26.7441 65.0737C26.7724 65.1093 26.7901 65.1522 26.795 65.1975C26.7998 65.2427 26.7918 65.2884 26.7716 65.3293C26.6576 65.5927 26.5593 65.8995 26.461 66.2102C26.3333 66.8148 26.0846 67.3874 25.7298 67.8933Z" fill="#B79763"/>
<path fill-rule="evenodd" clip-rule="evenodd" d="M21.5782 64.59C20.8587 65.1406 20.1627 65.6833 19.4668 66.2457C18.7709 66.8081 18.0828 67.394 17.3948 68.0036C17.3661 68.0266 17.3333 68.0438 17.298 68.0541C17.2627 68.0644 17.2258 68.0676 17.1892 68.0636C17.1527 68.0596 17.1173 68.0484 17.0851 68.0306C17.0529 68.0129 17.0245 67.989 17.0016 67.9603C16.9589 67.9104 16.9355 67.847 16.9355 67.7813C16.9355 67.7157 16.9589 67.6523 17.0016 67.6024C17.611 66.9142 18.1811 66.2221 18.7591 65.5299C19.337 64.8378 19.864 64.1338 20.4144 63.4181C20.8508 62.9795 21.3709 62.6331 21.9438 62.3996C22.2236 62.2617 22.4953 62.1081 22.7577 61.9394C22.7818 61.9213 22.8092 61.9083 22.8384 61.9011C22.8676 61.8938 22.8981 61.8926 22.9278 61.8974C22.9575 61.9021 22.9859 61.9129 23.0114 61.9289C23.0369 61.9449 23.059 61.9658 23.0762 61.9906C23.1011 62.0293 23.1143 62.0743 23.1143 62.1204C23.1143 62.1664 23.1011 62.2114 23.0762 62.2501C22.9095 62.5116 22.7572 62.7821 22.62 63.0602C22.3795 63.6353 22.0252 64.1557 21.5782 64.59Z" fill="#B79763"/>
<path fill-rule="evenodd" clip-rule="evenodd" d="M18.0548 60.6215C17.2684 61.0148 16.4821 61.4513 15.6957 61.8878C14.9094 62.3243 14.123 62.7766 13.3367 63.2603C13.2751 63.2871 13.206 63.2918 13.1413 63.2735C13.0767 63.2552 13.0204 63.2151 12.982 63.1599C12.9436 63.1048 12.9254 63.0381 12.9305 62.9711C12.9357 62.9041 12.9639 62.8409 13.0103 62.7923C13.7338 62.2221 14.4218 61.644 15.0981 61.0541C15.7743 60.4642 16.4348 59.8743 17.0953 59.2648C17.6001 58.9063 18.1727 58.6547 18.7781 58.5254C19.0887 58.4271 19.3954 58.3288 19.6588 58.2148C19.6854 58.2001 19.7148 58.1911 19.745 58.1884C19.7753 58.1857 19.8058 58.1892 19.8346 58.1988C19.8634 58.2084 19.8899 58.2239 19.9124 58.2442C19.935 58.2646 19.953 58.2893 19.9655 58.317C19.9798 58.3603 19.9819 58.4067 19.9715 58.4511C19.9611 58.4955 19.9386 58.5362 19.9066 58.5687C19.6964 58.7971 19.4995 59.0374 19.3168 59.2884C18.9897 59.8128 18.5605 60.2662 18.0548 60.6215Z" fill="#B79763"/>
<path fill-rule="evenodd" clip-rule="evenodd" d="M15.2745 56.1031C14.4174 56.3706 13.5721 56.6458 12.7268 56.9369C11.8815 57.2279 11.0322 57.5425 10.179 57.8807C10.1107 57.902 10.0368 57.8958 9.97294 57.8635C9.90908 57.8312 9.86026 57.7753 9.83692 57.7076C9.80969 57.6479 9.80507 57.5803 9.82387 57.5174C9.84267 57.4545 9.88361 57.4005 9.93915 57.3655C10.7452 56.929 11.5118 56.4807 12.2982 56.0166C13.0845 55.5526 13.8198 55.0846 14.5786 54.6009C15.1377 54.3355 15.7451 54.1869 16.3636 54.1643C16.6731 54.1318 16.9803 54.0806 17.2836 54.011C17.3125 54.0021 17.343 53.9991 17.3731 54.0022C17.4032 54.0053 17.4323 54.0145 17.4588 54.0292C17.4852 54.0439 17.5085 54.0638 17.527 54.0877C17.5456 54.1116 17.5591 54.139 17.5668 54.1683C17.5749 54.2133 17.5695 54.2597 17.5513 54.3017C17.5331 54.3437 17.5029 54.3794 17.4645 54.4043C17.2183 54.5922 16.9833 54.7944 16.7607 55.0099C16.3437 55.4704 15.8383 55.8422 15.2745 56.1031Z" fill="#B79763"/>
<path fill-rule="evenodd" clip-rule="evenodd" d="M13.3254 51.1671C12.4329 51.2851 11.5521 51.407 10.6675 51.5603C9.78287 51.7137 8.89821 51.8593 7.99785 52.0402C7.92715 52.0493 7.85568 52.0306 7.79848 51.988C7.74128 51.9455 7.7028 51.8824 7.69116 51.812C7.67384 51.7489 7.68031 51.6816 7.7093 51.6229C7.73829 51.5642 7.78773 51.5182 7.84839 51.4935C8.72123 51.2025 9.57049 50.8957 10.4079 50.5772C11.2454 50.2586 12.0711 49.9244 12.8968 49.5783C13.4949 49.4174 14.1194 49.3786 14.7328 49.4643C15.0592 49.4643 15.3777 49.4918 15.6647 49.4643C15.6948 49.4599 15.7254 49.4616 15.7548 49.4694C15.7841 49.4773 15.8116 49.491 15.8355 49.5097C15.8594 49.5285 15.8793 49.5519 15.8938 49.5786C15.9084 49.6052 15.9174 49.6346 15.9202 49.6648C15.9185 49.7108 15.904 49.7555 15.8783 49.7937C15.8526 49.8319 15.8168 49.8622 15.7748 49.8811C15.5047 50.0247 15.2422 50.1822 14.9885 50.353C14.4966 50.7369 13.9302 51.0141 13.3254 51.1671Z" fill="#B79763"/>
<path fill-rule="evenodd" clip-rule="evenodd" d="M12.266 45.9762C11.3696 45.9369 10.4811 45.9054 9.58466 45.8897C8.68823 45.874 7.7878 45.8897 6.86778 45.8897C6.79686 45.8857 6.7303 45.8543 6.68194 45.8023C6.63358 45.7502 6.60719 45.6815 6.60832 45.6105C6.60299 45.545 6.62159 45.4799 6.66063 45.4271C6.69967 45.3743 6.75652 45.3374 6.82065 45.3234C7.72887 45.1897 8.61747 45.0363 9.49817 44.8672C10.3789 44.6981 11.2478 44.5133 12.1245 44.3206C12.7415 44.2626 13.3638 44.3322 13.9528 44.5251C14.2547 44.5996 14.5606 44.6573 14.8689 44.6981C14.899 44.6996 14.9286 44.7071 14.9557 44.7203C14.9829 44.7335 15.0071 44.752 15.027 44.7748C15.0468 44.7975 15.0618 44.8241 15.0711 44.8528C15.0804 44.8816 15.0839 44.9119 15.0812 44.9419C15.0726 44.9865 15.0513 45.0276 15.02 45.0604C14.9886 45.0932 14.9484 45.1162 14.9043 45.1268C14.6079 45.2218 14.3165 45.3321 14.0315 45.4571C13.4847 45.749 12.8838 45.9257 12.266 45.9762Z" fill="#B79763"/>
<path fill-rule="evenodd" clip-rule="evenodd" d="M72.8711 44.3203C73.7479 44.513 74.6167 44.7135 75.4974 44.8669C76.3781 45.0203 77.2667 45.1893 78.175 45.3231C78.2382 45.3427 78.2929 45.3833 78.3299 45.4383C78.3669 45.4932 78.3842 45.5591 78.3787 45.6252C78.3732 45.6912 78.3453 45.7534 78.2997 45.8014C78.254 45.8494 78.1934 45.8805 78.1277 45.8894C77.2077 45.8658 76.3074 45.8658 75.411 45.8894C74.5145 45.913 73.6259 45.9366 72.7295 45.9759C72.1123 45.9278 71.5115 45.7538 70.9642 45.4646C70.6791 45.3396 70.3878 45.2293 70.0913 45.1343C70.0614 45.1279 70.0332 45.1154 70.0083 45.0977C69.9834 45.08 69.9623 45.0574 69.9465 45.0312C69.9306 45.0051 69.9203 44.976 69.9161 44.9457C69.912 44.9154 69.9141 44.8846 69.9223 44.8551C69.9397 44.8133 69.9684 44.7771 70.0052 44.7507C70.042 44.7243 70.0855 44.7087 70.1307 44.7057C70.438 44.665 70.7426 44.6059 71.0429 44.5287C71.6916 44.3753 72.3717 44.2023 72.8711 44.3203Z" fill="#B79763"/>
<path fill-rule="evenodd" clip-rule="evenodd" d="M72.1 49.5673C72.9296 49.9134 73.7512 50.2477 74.5887 50.5662C75.4261 50.8848 76.2754 51.1915 77.1482 51.4825C77.1808 51.4959 77.2104 51.5156 77.2354 51.5404C77.2604 51.5653 77.2802 51.5948 77.2938 51.6273C77.3073 51.6598 77.3142 51.6947 77.3142 51.7299C77.3142 51.7651 77.3073 51.8 77.2938 51.8325C77.2787 51.8966 77.2398 51.9525 77.1851 51.989C77.1304 52.0255 77.0638 52.0399 76.9989 52.0292C76.0998 51.8483 75.2099 51.6884 74.3292 51.5494C73.4446 51.4078 72.5639 51.282 71.6714 51.1561C71.072 51.0012 70.5112 50.724 70.024 50.3421C69.7643 50.1686 69.4952 50.0098 69.218 49.8662C69.1902 49.8543 69.1651 49.8369 69.1442 49.8151C69.1234 49.7933 69.1071 49.7674 69.0964 49.7392C69.0858 49.7109 69.0809 49.6807 69.0822 49.6505C69.0835 49.6203 69.0909 49.5907 69.1039 49.5634C69.1278 49.5246 69.1625 49.4936 69.2037 49.474C69.2448 49.4545 69.2908 49.4473 69.3359 49.4533C69.645 49.4707 69.9547 49.4707 70.2638 49.4533C70.8773 49.3694 71.5015 49.4082 72.1 49.5673Z" fill="#B79763"/>
<path fill-rule="evenodd" clip-rule="evenodd" d="M70.4058 54.6004C71.1607 55.0841 71.9156 55.556 72.6863 56.0161C73.4569 56.4762 74.2354 56.9284 75.0453 57.365C75.0778 57.3842 75.106 57.4099 75.1281 57.4405C75.1503 57.4711 75.1659 57.5059 75.174 57.5428C75.1821 57.5797 75.1825 57.6179 75.1753 57.6549C75.168 57.692 75.1532 57.7271 75.1318 57.7582C75.1042 57.8177 75.0557 57.8651 74.9956 57.8912C74.9354 57.9173 74.8677 57.9203 74.8054 57.8998C73.9522 57.5616 73.1069 57.2509 72.2577 56.956C71.4084 56.6611 70.567 56.3897 69.7099 56.1223C69.1476 55.8609 68.6435 55.4891 68.2276 55.029C68.0046 54.8125 67.7682 54.6103 67.5199 54.4234C67.4943 54.4071 67.4722 54.3858 67.4551 54.3607C67.438 54.3356 67.4261 54.3073 67.4203 54.2776C67.4144 54.2478 67.4146 54.2171 67.4209 54.1874C67.4273 54.1577 67.4395 54.1296 67.457 54.1048C67.4871 54.0704 67.5263 54.0451 67.5701 54.0319C67.6139 54.0187 67.6605 54.018 67.7047 54.0301C68.008 54.0997 68.3153 54.1509 68.6247 54.1835C69.2405 54.2004 69.8465 54.3422 70.4058 54.6004Z" fill="#B79763"/>
<path fill-rule="evenodd" clip-rule="evenodd" d="M67.8937 59.2651C68.5542 59.8708 69.2147 60.4685 69.891 61.0544C70.5672 61.6404 71.2553 62.2343 71.9748 62.7927C72.0025 62.8167 72.0253 62.846 72.0415 62.879C72.0578 62.9119 72.0672 62.9477 72.0694 62.9843C72.0716 63.021 72.0665 63.0577 72.0543 63.0923C72.0421 63.127 72.0231 63.1588 71.9984 63.1859C71.9621 63.2411 71.9063 63.2807 71.8422 63.2967C71.7781 63.3127 71.7104 63.3041 71.6524 63.2725C70.866 62.7887 70.0797 62.3365 69.2933 61.9C68.507 61.4634 67.7206 61.0466 66.9343 60.6337C66.4257 60.2792 65.9938 59.8257 65.6643 59.3005C65.4814 59.0497 65.2845 58.8095 65.0746 58.5809C65.0528 58.5596 65.0356 58.5342 65.0238 58.5062C65.012 58.4781 65.0059 58.448 65.0059 58.4176C65.0059 58.3872 65.012 58.3571 65.0238 58.3291C65.0356 58.301 65.0528 58.2757 65.0746 58.2544C65.1102 58.226 65.1532 58.2084 65.1984 58.2035C65.2437 58.1987 65.2894 58.2068 65.3302 58.2269C65.6179 58.3452 65.912 58.4476 66.2109 58.5337C66.8149 58.6631 67.387 58.9118 67.8937 59.2651Z" fill="#B79763"/>
<path fill-rule="evenodd" clip-rule="evenodd" d="M64.5949 63.4176C65.1414 64.1333 65.684 64.8333 66.2462 65.5255C66.8084 66.2176 67.3943 66.9137 68.0037 67.6019C68.0267 67.6305 68.044 67.6634 68.0543 67.6987C68.0646 67.734 68.0678 67.771 68.0638 67.8075C68.0597 67.844 68.0486 67.8794 68.0308 67.9116C68.0131 67.9438 67.9892 67.9722 67.9605 67.9952C67.9106 68.0378 67.8472 68.0613 67.7816 68.0613C67.716 68.0613 67.6526 68.0378 67.6027 67.9952C66.9147 67.3856 66.2266 66.8154 65.5307 66.2373C64.8348 65.6592 64.1388 65.1283 63.4232 64.5817C62.9822 64.1465 62.6343 63.626 62.401 63.0519C62.2629 62.7729 62.1107 62.5012 61.9449 62.2378C61.9257 62.2142 61.9117 62.1867 61.9038 62.1573C61.896 62.1279 61.8944 62.0971 61.8992 62.0671C61.904 62.037 61.9152 62.0083 61.9319 61.9828C61.9485 61.9573 61.9704 61.9357 61.9961 61.9193C62.034 61.8942 62.0784 61.8809 62.1238 61.8809C62.1693 61.8809 62.2137 61.8942 62.2516 61.9193C62.5136 62.0852 62.7839 62.2374 63.0616 62.3754C63.6379 62.6155 64.1595 62.97 64.5949 63.4176Z" fill="#B79763"/>
<path fill-rule="evenodd" clip-rule="evenodd" d="M60.6234 66.9413C61.0362 67.7279 61.4529 68.5144 61.8894 69.3009C62.3258 70.0874 62.7779 70.874 63.2615 71.6605C63.2896 71.7217 63.2951 71.7908 63.2774 71.8557C63.2596 71.9207 63.2196 71.9773 63.1643 72.0157C63.109 72.0542 63.0421 72.0719 62.975 72.0659C62.908 72.0599 62.8451 72.0306 62.7975 71.983C62.2235 71.2633 61.6456 70.5711 61.0597 69.8986C60.4739 69.2262 59.8802 68.5616 59.2668 67.9009C58.9092 67.3956 58.6578 66.823 58.5277 66.2177C58.4393 65.9189 58.3356 65.6249 58.2171 65.3368C58.2031 65.3101 58.1946 65.2808 58.1921 65.2507C58.1897 65.2206 58.1933 65.1903 58.2029 65.1617C58.2124 65.133 58.2276 65.1066 58.2476 65.0839C58.2676 65.0613 58.2921 65.043 58.3193 65.03C58.3626 65.0157 58.409 65.0137 58.4534 65.0241C58.4978 65.0345 58.5385 65.057 58.5709 65.089C58.8003 65.2981 59.0405 65.495 59.2905 65.6789C59.8148 66.0061 60.2681 66.4355 60.6234 66.9413Z" fill="#B79763"/>
<path fill-rule="evenodd" clip-rule="evenodd" d="M56.1051 69.7221C56.3724 70.5794 56.6477 71.4249 56.9426 72.2704C57.2375 73.1159 57.5441 73.9614 57.8862 74.8187C57.9071 74.8871 57.9004 74.9609 57.8673 75.0242C57.8341 75.0876 57.7773 75.1352 57.7093 75.1569C57.6507 75.1852 57.5838 75.1907 57.5214 75.1726C57.459 75.1544 57.4055 75.1138 57.3712 75.0586C56.9308 74.2721 56.4825 73.4856 56.0225 72.699C55.5625 71.9125 55.0868 71.1771 54.6032 70.4221C54.3401 69.862 54.1917 69.2549 54.1668 68.6366C54.1338 68.3274 54.084 68.0202 54.0174 67.7164C54.0078 67.6875 54.0041 67.6569 54.0067 67.6266C54.0092 67.5962 54.0179 67.5667 54.0323 67.5398C54.0466 67.513 54.0664 67.4893 54.0902 67.4703C54.114 67.4513 54.1413 67.4374 54.1707 67.4293C54.2161 67.4226 54.2624 67.4291 54.3042 67.4479C54.346 67.4667 54.3816 67.4971 54.4066 67.5355C54.5971 67.7808 54.8006 68.0158 55.0161 68.2394C55.475 68.6555 55.8453 69.1597 56.1051 69.7221Z" fill="#B79763"/>
<path fill-rule="evenodd" clip-rule="evenodd" d="M51.1706 71.6717C51.2886 72.5605 51.4105 73.4453 51.5638 74.3262C51.7171 75.2071 51.8626 76.0999 52.0474 77.0004C52.0554 77.0716 52.0357 77.1431 51.9926 77.2002C51.9494 77.2572 51.886 77.2956 51.8154 77.3072C51.7523 77.3237 51.6853 77.3168 51.6269 77.2879C51.5684 77.259 51.5222 77.21 51.4969 77.1499C51.2059 76.2768 50.8993 75.4274 50.5809 74.5897C50.2624 73.7521 49.9282 72.9262 49.5861 72.1004C49.4219 71.5027 49.3818 70.8777 49.4682 70.2638C49.4856 69.9534 49.4856 69.6422 49.4682 69.3318C49.4643 69.3018 49.4665 69.2714 49.4745 69.2422C49.4825 69.2131 49.4962 69.1858 49.5149 69.162C49.5336 69.1382 49.5568 69.1184 49.5831 69.1037C49.6095 69.0889 49.6386 69.0796 49.6687 69.0762C49.7147 69.0779 49.7593 69.0925 49.7975 69.1182C49.8357 69.1439 49.866 69.1797 49.8849 69.2217C50.0284 69.4927 50.1873 69.7553 50.3607 70.0082C50.7419 70.5012 51.0176 71.0675 51.1706 71.6717Z" fill="#B79763"/>
<path fill-rule="evenodd" clip-rule="evenodd" d="M45.9769 72.719C45.9336 73.6156 45.9021 74.5044 45.8863 75.401C45.8706 76.2977 45.8863 77.1943 45.8863 78.1146C45.8823 78.1859 45.8512 78.2529 45.7993 78.3019C45.7474 78.3509 45.6786 78.3782 45.6072 78.3781C45.5418 78.3834 45.4766 78.3648 45.4239 78.3257C45.3711 78.2867 45.3343 78.2298 45.3202 78.1657C45.1865 77.2573 45.0332 76.3685 44.8642 75.4876C44.6951 74.6067 44.5142 73.7376 44.3176 72.8606C44.2616 72.2435 44.3312 71.6214 44.522 71.0319C44.5961 70.7298 44.654 70.4239 44.6951 70.1156C44.6966 70.0854 44.7041 70.0559 44.7173 70.0287C44.7305 70.0015 44.749 69.9773 44.7717 69.9575C44.7945 69.9376 44.821 69.9226 44.8498 69.9133C44.8785 69.904 44.9088 69.9005 44.9388 69.9032C44.9839 69.9116 45.0257 69.9327 45.0591 69.9641C45.0926 69.9955 45.1163 70.0358 45.1275 70.0802C45.2194 70.3773 45.3284 70.6688 45.4539 70.9533C45.7451 71.5007 45.923 72.1013 45.9769 72.719Z" fill="#B79763"/>
<path fill-rule="evenodd" clip-rule="evenodd" d="M44.3259 12.1089C44.5225 11.2359 44.7047 10.3615 44.8725 9.48587C45.0415 8.60496 45.1948 7.71618 45.3285 6.80381C45.3454 6.73464 45.3884 6.67469 45.4485 6.63656C45.5086 6.59843 45.5812 6.58507 45.6509 6.59931C45.716 6.60415 45.7769 6.63297 45.822 6.6802C45.867 6.72742 45.8929 6.7897 45.8946 6.85494C45.8711 7.77517 45.8711 8.67574 45.8946 9.57238C45.9182 10.469 45.9418 11.3578 45.9851 12.2544C45.9335 12.8704 45.7584 13.4696 45.4701 14.0163C45.3443 14.3191 45.2224 14.618 45.1398 14.8932C45.1339 14.923 45.1219 14.9512 45.1046 14.9761C45.0872 15.001 45.0649 15.022 45.0391 15.0379C45.0133 15.0538 44.9845 15.0641 44.9544 15.0683C44.9244 15.0726 44.8938 15.0705 44.8646 15.0623C44.8218 15.0459 44.7845 15.0175 44.7574 14.9806C44.7302 14.9436 44.7142 14.8997 44.7112 14.8539C44.67 14.5456 44.6123 14.2397 44.5382 13.9376C44.3443 13.3488 44.272 12.7266 44.3259 12.1089Z" fill="#B79763"/>
<path fill-rule="evenodd" clip-rule="evenodd" d="M49.5672 12.883C49.9093 12.0532 50.2435 11.2274 50.562 10.3937C50.8804 9.55994 51.1872 8.70655 51.4781 7.83351C51.5082 7.77345 51.5581 7.72566 51.6194 7.69823C51.6807 7.6708 51.7495 7.66541 51.8144 7.68301C51.8792 7.7006 51.9359 7.7401 51.9749 7.79477C52.014 7.84943 52.0329 7.91592 52.0285 7.98295C51.8437 8.88352 51.6865 9.76836 51.5449 10.6532C51.4034 11.538 51.2815 12.419 51.1517 13.3117C50.9961 13.9109 50.719 14.4717 50.3378 14.9594C50.1648 15.2308 49.9919 15.5061 49.8621 15.746C49.8515 15.7743 49.8351 15.8002 49.8138 15.8218C49.7926 15.8434 49.7671 15.8603 49.739 15.8714C49.7108 15.8826 49.6806 15.8877 49.6504 15.8864C49.6201 15.8851 49.5904 15.8774 49.5633 15.8639C49.5241 15.8402 49.4926 15.8057 49.4724 15.7646C49.4522 15.7235 49.4441 15.6775 49.4493 15.6319C49.4667 15.3228 49.4667 15.0129 49.4493 14.7038C49.3648 14.0952 49.405 13.4757 49.5672 12.883Z" fill="#B79763"/>
<path fill-rule="evenodd" clip-rule="evenodd" d="M54.6041 14.563C55.0877 13.804 55.5634 13.0489 56.0234 12.282C56.4835 11.5152 56.9317 10.7326 57.3721 9.92246C57.4124 9.86901 57.4698 9.83108 57.5348 9.81508C57.5998 9.79907 57.6683 9.80598 57.7288 9.83461C57.7893 9.86325 57.8381 9.91188 57.8669 9.97229C57.8957 10.0327 57.9029 10.1012 57.8871 10.1663C57.545 11.0197 57.2384 11.8652 56.9435 12.7146C56.6486 13.5641 56.3733 14.4057 56.106 15.263C55.8445 15.8242 55.4728 16.327 55.0131 16.7416C54.7976 16.9656 54.5954 17.202 54.4076 17.4495C54.3917 17.4756 54.3706 17.4981 54.3455 17.5156C54.3205 17.5331 54.2921 17.5451 54.2621 17.5511C54.2322 17.557 54.2013 17.5566 54.1715 17.5499C54.1417 17.5433 54.1137 17.5305 54.0891 17.5124C54.0545 17.4825 54.0294 17.4431 54.0169 17.3991C54.0043 17.3551 54.0048 17.3084 54.0183 17.2647C54.0846 16.9622 54.1344 16.6563 54.1677 16.3484C54.192 15.73 54.3405 15.1228 54.6041 14.563Z" fill="#B79763"/>
<path fill-rule="evenodd" clip-rule="evenodd" d="M59.2678 17.0908C59.8759 16.4301 60.4736 15.7642 61.0607 15.093C61.6465 14.4166 62.2402 13.7284 62.7985 13.0048C62.8508 12.9529 62.9214 12.9238 62.9951 12.9238C63.0687 12.9238 63.1394 12.9529 63.1917 13.0048C63.2455 13.0423 63.2836 13.0983 63.2989 13.1621C63.3141 13.2259 63.3054 13.2931 63.2743 13.3509C62.7907 14.1374 62.3386 14.9239 61.9021 15.7104C61.4657 16.497 61.0489 17.2835 60.636 18.07C60.2816 18.5787 59.8283 19.0108 59.3032 19.3403C59.0507 19.5208 58.8103 19.7179 58.5837 19.9302C58.5624 19.9519 58.5371 19.9692 58.5091 19.981C58.4811 19.9929 58.4509 19.9989 58.4205 19.9989C58.3901 19.9989 58.36 19.9929 58.332 19.981C58.304 19.9692 58.2787 19.9519 58.2574 19.9302C58.2291 19.8946 58.2113 19.8516 58.2065 19.8064C58.2016 19.7611 58.2097 19.7154 58.2299 19.6746C58.3484 19.3877 58.4521 19.095 58.5405 18.7976C58.6631 18.1847 58.9106 17.6037 59.2678 17.0908Z" fill="#B79763"/>
<path fill-rule="evenodd" clip-rule="evenodd" d="M63.4231 20.391C64.1347 19.8444 64.8346 19.3017 65.5305 18.7354C66.2264 18.1691 66.9145 17.591 67.6025 16.9814C67.6574 16.949 67.7214 16.9357 67.7846 16.9437C67.8478 16.9516 67.9065 16.9804 67.9516 17.0255C67.9966 17.0706 68.0255 17.1293 68.0334 17.1925C68.0414 17.2557 68.0282 17.3198 67.9957 17.3747C67.3863 18.0629 66.8161 18.7511 66.2381 19.4472C65.6602 20.1432 65.1333 20.8393 64.5868 21.5551C64.1496 21.9955 63.6281 22.3432 63.0535 22.5776C62.7746 22.7156 62.5029 22.8679 62.2396 23.0337C62.2157 23.0524 62.1883 23.0659 62.159 23.0734C62.1297 23.081 62.0991 23.0824 62.0692 23.0776C62.0393 23.0728 62.0108 23.0619 61.9853 23.0455C61.9598 23.0292 61.9379 23.0078 61.9211 22.9826C61.8961 22.9447 61.8828 22.9003 61.8828 22.8548C61.8828 22.8094 61.8961 22.7649 61.9211 22.727C62.087 22.465 62.2393 22.1946 62.3773 21.9169C62.6195 21.3429 62.9752 20.8239 63.4231 20.391Z" fill="#B79763"/>
<path fill-rule="evenodd" clip-rule="evenodd" d="M66.9418 24.3472C67.7282 23.9539 68.5145 23.5174 69.3009 23.0809C70.0872 22.6444 70.8735 22.1921 71.6599 21.7084C71.7213 21.6781 71.7916 21.6707 71.8579 21.6876C71.9243 21.7045 71.9824 21.7446 72.0218 21.8006C72.0612 21.8567 72.0793 21.9249 72.0727 21.9931C72.0662 22.0613 72.0356 22.1249 71.9863 22.1724C71.2628 22.7466 70.5747 23.3247 69.8985 23.9107C69.2222 24.4966 68.5617 25.0905 67.9011 25.704C67.3964 26.0625 66.8239 26.3141 66.2184 26.4433C65.9078 26.5416 65.6012 26.6399 65.3377 26.754C65.3108 26.7679 65.2812 26.7762 65.251 26.7784C65.2207 26.7805 65.1903 26.7765 65.1616 26.7666C65.1329 26.7567 65.1066 26.741 65.0841 26.7206C65.0617 26.7002 65.0436 26.6754 65.031 26.6478C65.0173 26.6041 65.0158 26.5575 65.0269 26.5131C65.038 26.4686 65.0612 26.4281 65.0939 26.3961C65.3025 26.1674 65.4981 25.9271 65.6797 25.6764C66.0069 25.153 66.4361 24.701 66.9418 24.3472Z" fill="#B79763"/>
<path fill-rule="evenodd" clip-rule="evenodd" d="M69.7217 28.8819C70.5788 28.6144 71.4241 28.3391 72.2694 28.0442C73.1148 27.7493 73.964 27.4386 74.8172 27.1004C74.8855 27.0791 74.9594 27.0852 75.0233 27.1175C75.0871 27.1498 75.136 27.2057 75.1593 27.2734C75.1874 27.333 75.1925 27.4009 75.1736 27.464C75.1547 27.5272 75.1133 27.5811 75.0571 27.6155C74.2707 28.056 73.4844 28.5043 72.698 28.9644C71.9117 29.4245 71.1725 29.8965 70.4176 30.3841C69.8582 30.6482 69.2508 30.7954 68.6326 30.8167C68.3102 30.86 67.9917 30.9032 67.7125 30.9701C67.6839 30.9797 67.6536 30.9833 67.6236 30.9807C67.5935 30.9781 67.5643 30.9693 67.5377 30.9549C67.5112 30.9405 67.4878 30.9208 67.4692 30.8971C67.4506 30.8733 67.4371 30.8459 67.4295 30.8167C67.4213 30.7717 67.4267 30.7252 67.4449 30.6833C67.4631 30.6413 67.4933 30.6056 67.5317 30.5807C67.7778 30.3912 68.0128 30.1877 68.2355 29.9712C68.6526 29.5118 69.1581 29.1413 69.7217 28.8819Z" fill="#B79763"/>
<path fill-rule="evenodd" clip-rule="evenodd" d="M71.6711 33.8127C72.5636 33.6987 73.4443 33.5768 74.329 33.4195C75.2136 33.2622 76.0983 33.1206 76.9986 32.9358C77.0699 32.9268 77.1419 32.946 77.1992 32.9893C77.2565 33.0327 77.2946 33.0967 77.3053 33.1678C77.3227 33.2309 77.3162 33.2982 77.2872 33.3569C77.2582 33.4157 77.2087 33.4617 77.148 33.4863C76.2752 33.7773 75.4259 34.0841 74.5884 34.4026C73.751 34.7212 72.9293 35.0515 72.0997 35.3976C71.5019 35.5601 70.8773 35.6002 70.2635 35.5156C69.9532 35.4981 69.6421 35.4981 69.3318 35.5156C69.3016 35.52 69.2708 35.5181 69.2414 35.51C69.2121 35.5019 69.1848 35.4878 69.1611 35.4686C69.1374 35.4494 69.118 35.4254 69.1041 35.3983C69.0901 35.3712 69.0819 35.3415 69.0801 35.3111C69.0798 35.2656 69.0932 35.2211 69.1184 35.1832C69.1436 35.1454 69.1796 35.116 69.2217 35.0987C69.4926 34.9552 69.7552 34.7963 70.008 34.6229C70.5026 34.2442 71.0681 33.9687 71.6711 33.8127Z" fill="#B79763"/>
<path fill-rule="evenodd" clip-rule="evenodd" d="M72.73 39.0117C73.6265 39.055 74.5151 39.0864 75.4115 39.1022C76.3079 39.1179 77.2083 39.1022 78.1283 39.1022C78.1939 39.1111 78.2546 39.1421 78.3002 39.1902C78.3458 39.2382 78.3737 39.3004 78.3792 39.3664C78.3847 39.4324 78.3675 39.4983 78.3304 39.5532C78.2934 39.6082 78.2388 39.6488 78.1755 39.6684C77.2673 39.8021 76.3787 39.9555 75.498 40.1207C74.6173 40.2859 73.7484 40.4746 72.8716 40.6713C72.2546 40.7273 71.6328 40.6577 71.0434 40.4668C70.7418 40.3908 70.4358 40.333 70.1273 40.2938C70.0971 40.2923 70.0676 40.2847 70.0404 40.2715C70.0132 40.2584 69.989 40.2398 69.9692 40.217C69.9494 40.1943 69.9343 40.1678 69.925 40.139C69.9157 40.1103 69.9123 40.08 69.9149 40.0499C69.9233 40.0049 69.9444 39.9631 69.9758 39.9296C70.0072 39.8962 70.0474 39.8724 70.0919 39.8611C70.3889 39.7693 70.6803 39.6603 70.9647 39.5347C71.512 39.2435 72.1124 39.0656 72.73 39.0117Z" fill="#B79763"/>
</g>
<path d="M43 31.0571C44.8408 31.0571 46.4504 31.4725 47.8286 32.3032C49.2163 33.134 50.2878 34.3423 51.043 35.9282C51.8076 37.5047 52.1899 39.3833 52.1899 41.564C52.1899 43.6974 51.7982 45.5854 51.0146 47.228C50.2311 48.8706 49.1408 50.145 47.7437 51.0513C46.3465 51.9575 44.7559 52.4106 42.9717 52.4106C41.1309 52.4106 39.5166 51.9953 38.1289 51.1646C36.7507 50.3338 35.6792 49.1302 34.9146 47.5537C34.1593 45.9678 33.7817 44.0845 33.7817 41.9038C33.7817 39.7703 34.1735 37.8823 34.957 36.2397C35.7406 34.5972 36.8309 33.3228 38.228 32.4165C39.6252 31.5103 41.2158 31.0571 43 31.0571ZM42.8867 31.5811C41.6501 31.5811 40.5597 32.0153 39.6157 32.8838C38.6717 33.7428 37.9448 34.9465 37.4351 36.4946C36.9253 38.0334 36.6704 39.7987 36.6704 41.7905C36.6704 43.8013 36.9536 45.5713 37.52 47.1006C38.0864 48.6299 38.8558 49.8099 39.8281 50.6406C40.8099 51.4714 41.8955 51.8867 43.085 51.8867C44.3216 51.8867 45.4072 51.4572 46.3418 50.5981C47.2858 49.7297 48.0127 48.526 48.5225 46.9873C49.0322 45.4391 49.2871 43.6691 49.2871 41.6772C49.2871 39.6665 49.0039 37.8965 48.4375 36.3672C47.8711 34.8379 47.1017 33.6579 46.1294 32.8271C45.1571 31.9964 44.0762 31.5811 42.8867 31.5811Z" fill="#B79763"/>
<defs>
<clipPath id="clip0_516_14549">
<rect width="85" height="85" fill="white"/>
</clipPath>
</defs>
</svg>
