<svg xmlns="http://www.w3.org/2000/svg" xmlns:xlink="http://www.w3.org/1999/xlink" width="768" height="440" viewBox="0 0 768 440">
  <defs>
    <clipPath id="clip-path">
      <rect id="Rectangle_4083" data-name="Rectangle 4083" width="768" height="440" transform="translate(0 107)" fill="#fff" stroke="#707070" stroke-width="1"/>
    </clipPath>
  </defs>
  <g id="Mask_Group_1088" data-name="Mask Group 1088" transform="translate(0 -107)" clip-path="url(#clip-path)">
    <g id="Group_2073" data-name="Group 2073" transform="translate(134 258)">
      <path id="Plac_zabaw_i_basen" data-name="Plac zabaw i basen" d="M1212.3,280.249l-13.05,4.745-3.137-.4-13.579,6.441.863,3.667,7.872,3.882,8.736.755,62.12,28.364,10.03.539,28.786-15.3L1213.3,280.583Z" transform="translate(-825.034 -201.521)" fill="#be4c84" opacity="0"/>
      <g id="_36" data-name="36" transform="translate(399.35 129.103)">
        <path id="Path_2527" data-name="Path 2527" d="M1351.845,459.567l-20.351,10.58,20.351-10.579,50.274,21.56,2.922,4.332h0l-2.922-4.332Zm.034.936-18.479,9.6,54.741,25.67,15.726-10.547-2.31-3.424Z" transform="translate(-1331.494 -459.567)" fill="rgba(0,117,60,0.75)"/>
        <path id="Path_2588" data-name="Path 2588" d="M1351.845,459.572l-20.351,10.579,56.721,26.6,16.825-11.283-2.922-4.331Zm36.3,36.209-54.741-25.67,18.479-9.605,49.678,21.3,2.31,3.424Z" transform="translate(-1331.494 -459.571)" fill="#19b24b"/>
        <g id="Group_1932" data-name="Group 1932" transform="translate(29.911 11.55)">
          <path id="Path_2792" data-name="Path 2792" d="M1450.715,509.937a2.029,2.029,0,0,1-.486,1.387,2.43,2.43,0,0,1-1.365.745v.048a2.653,2.653,0,0,1,1.582.656,1.879,1.879,0,0,1,.526,1.392,2.31,2.31,0,0,1-.892,1.949,4.09,4.09,0,0,1-2.538.686,5.734,5.734,0,0,1-2.455-.473v-1.252a5.623,5.623,0,0,0,1.181.425,5.116,5.116,0,0,0,1.2.15,2.527,2.527,0,0,0,1.521-.377,1.365,1.365,0,0,0,.5-1.168,1.111,1.111,0,0,0-.557-1.03,3.56,3.56,0,0,0-1.749-.33h-.76V511.6h.772q2.095,0,2.1-1.449a1.067,1.067,0,0,0-.365-.868,1.643,1.643,0,0,0-1.078-.306,3.268,3.268,0,0,0-.958.141,4.553,4.553,0,0,0-1.09.548l-.688-.982a4.589,4.589,0,0,1,2.8-.886,3.328,3.328,0,0,1,2.066.569A1.867,1.867,0,0,1,1450.715,509.937Z" transform="translate(-1445.085 -507.8)" fill="#fff"/>
          <path id="Path_2793" data-name="Path 2793" d="M1459.454,512.962q0-5.138,4.186-5.138a5.176,5.176,0,0,1,1.113.1V509.1a3.784,3.784,0,0,0-1.054-.132,2.756,2.756,0,0,0-2.113.754,3.668,3.668,0,0,0-.768,2.419h.073a1.919,1.919,0,0,1,.79-.752,2.551,2.551,0,0,1,1.2-.266,2.383,2.383,0,0,1,1.856.731,2.834,2.834,0,0,1,.664,1.982,3.005,3.005,0,0,1-.769,2.177,2.772,2.772,0,0,1-2.1.8,2.923,2.923,0,0,1-1.635-.452,2.875,2.875,0,0,1-1.069-1.318A5.215,5.215,0,0,1,1459.454,512.962Zm3.053,2.689a1.375,1.375,0,0,0,1.116-.468,2.017,2.017,0,0,0,.393-1.334,1.767,1.767,0,0,0-.368-1.186,1.372,1.372,0,0,0-1.1-.431,1.828,1.828,0,0,0-.839.194,1.542,1.542,0,0,0-.6.533,1.254,1.254,0,0,0-.222.692,2.214,2.214,0,0,0,.458,1.423A1.431,1.431,0,0,0,1462.507,515.651Z" transform="translate(-1452.406 -507.813)" fill="#fff"/>
        </g>
      </g>
      <g id="_37" data-name="37" transform="translate(375.472 140.49)">
        <path id="Path_2526" data-name="Path 2526" d="M1268.786,503.449l-20.453,10.736,55.036,28.151,20.576-13.406ZM1246.5,514.194h0l56.923,29.117,22.266-14.508-22.266,14.508Z" transform="translate(-1246.497 -502.508)" fill="rgba(0,117,60,0.75)"/>
        <path id="Path_2586" data-name="Path 2586" d="M1268.763,500.1,1246.5,511.787l56.923,29.116,22.266-14.508Zm34.607,39.828-55.036-28.151,20.453-10.736,55.158,25.48Z" transform="translate(-1246.498 -500.1)" fill="#19b24b"/>
        <g id="Group_1933" data-name="Group 1933" transform="translate(31.726 14.064)">
          <path id="Path_2794" data-name="Path 2794" d="M1372.178,555.859a2.026,2.026,0,0,1-.485,1.386,2.439,2.439,0,0,1-1.365.746v.048a2.638,2.638,0,0,1,1.581.656,1.878,1.878,0,0,1,.527,1.392,2.312,2.312,0,0,1-.892,1.949,4.093,4.093,0,0,1-2.539.686,5.716,5.716,0,0,1-2.455-.473V561a5.628,5.628,0,0,0,1.18.425,5.131,5.131,0,0,0,1.2.149,2.523,2.523,0,0,0,1.521-.378,1.36,1.36,0,0,0,.5-1.167,1.11,1.11,0,0,0-.556-1.03,3.562,3.562,0,0,0-1.748-.329h-.761v-1.143h.772q2.1,0,2.1-1.449a1.07,1.07,0,0,0-.364-.869,1.647,1.647,0,0,0-1.078-.305,3.271,3.271,0,0,0-.958.141,4.55,4.55,0,0,0-1.09.548l-.689-.982a4.59,4.59,0,0,1,2.8-.886,3.327,3.327,0,0,1,2.065.569A1.867,1.867,0,0,1,1372.178,555.859Z" transform="translate(-1366.55 -553.722)" fill="#fff"/>
          <path id="Path_2795" data-name="Path 2795" d="M1381.763,562.745l3.461-7.5h-4.551V554h6.054v.982l-3.444,7.76Z" transform="translate(-1373.746 -553.864)" fill="#fff"/>
        </g>
      </g>
      <g id="_20" data-name="20" transform="translate(238.118 76.283)" opacity="0.5">
        <path id="Path_2483" data-name="Path 2483" d="M785.129,274.756l-19.52,5.9,30.757,15.61,20.417-6.806Z" transform="translate(-763.35 -273.853)" fill="rgba(0,117,60,0.75)" opacity="0.4"/>
        <path id="Path_3135" data-name="Path 3135" d="M779.409,271.545l-21.843,6.6,32.949,16.723,22.769-7.589Zm11.174,22.411-30.758-15.61,19.52-5.9L811,287.15Z" transform="translate(-757.566 -271.545)" fill="#19b24b"/>
      </g>
      <g id="_21" data-name="21" transform="translate(262.065 69.47)" opacity="0.5">
        <path id="Path_2516" data-name="Path 2516" d="M864.041,250.492l-18.857,5.676,31.06,14.371,18.386-6.445ZM842.81,256h0L876.2,271.45l20.718-7.262L876.2,271.45Z" transform="translate(-842.81 -249.593)" fill="rgba(0,117,60,0.75)" opacity="0.4"/>
        <path id="Path_2568" data-name="Path 2568" d="M864.1,247.292,842.81,253.7l33.391,15.45,20.717-7.262Zm12.146,20.946-31.061-14.371,18.857-5.676,30.59,13.6Z" transform="translate(-842.81 -247.292)" fill="#19b24b"/>
      </g>
      <g id="_46" data-name="46" transform="translate(287.179 20.136)" opacity="0.5">
        <path id="Path_2606" data-name="Path 2606" d="M969.679,78.686,948.484,71.68l-16.276,4.279,20.3,7.36Z" transform="translate(-932.207 -71.68)" fill="rgba(0,117,60,0.75)" opacity="0.4"/>
        <path id="Path_2667" data-name="Path 2667" d="M952.506,83.318l-20.3-7.36,16.276-4.279,21.2,7.007Zm.028-.664,14.939-4.03L948.462,72.34l-14.131,3.715Z" transform="translate(-932.206 -71.679)" fill="#19b24b"/>
      </g>
      <g id="_45" data-name="45" transform="translate(268.469 24.698)" opacity="0.5">
        <path id="Path_2593" data-name="Path 2593" d="M903.548,95.285l-20.311-7.364L865.6,92.556l19.357,7.743Z" transform="translate(-865.605 -87.921)" fill="rgba(111,6,1,0.8)"/>
        <path id="Path_2654" data-name="Path 2654" d="M884.961,100.3l-19.356-7.743,17.632-4.635,20.312,7.364Zm.039-.667L901.446,95.2l-18.238-6.612-15.585,4.1Z" transform="translate(-865.605 -87.921)" fill="#c8220b"/>
      </g>
      <g id="_44" data-name="44" transform="translate(246.259 29.604)" opacity="0.5">
        <path id="Path_2603" data-name="Path 2603" d="M827.091,113.132l-19.367-7.747-21.181,5.569,19.192,7.941Z" transform="translate(-786.543 -105.384)" fill="rgba(0,117,60,0.75)" opacity="0.4"/>
        <path id="Path_2664" data-name="Path 2664" d="M805.734,118.893l-19.192-7.94,21.181-5.569,19.367,7.748Zm.043-.668,19.315-5.21-17.409-6.964-19.158,5.037Z" transform="translate(-786.543 -105.384)" fill="#19b24b"/>
      </g>
      <g id="_48" data-name="48" transform="translate(288.805 32.438)" opacity="0.5">
        <path id="Path_2595" data-name="Path 2595" d="M937.993,120.5l21.244,8.5,6.684-1.808,13.2-3.569-22.482-8.153Z" transform="translate(-937.993 -115.471)" fill="rgba(254,144,0,0.6)"/>
        <path id="Path_2656" data-name="Path 2656" d="M956.639,115.473l22.482,8.151L959.237,129l-21.244-8.5Zm-.028.664-16.62,4.484,19.285,7.714,17.743-4.8Z" transform="translate(-937.993 -115.472)" fill="#fe9000"/>
      </g>
      <g id="_49" data-name="49" transform="translate(266.41 37.743)" opacity="0.5">
        <path id="Path_2597" data-name="Path 2597" d="M858.278,140.126l20.841,8.622,21.78-5.89-21.247-8.5Z" transform="translate(-858.278 -134.359)" fill="rgba(0,117,60,0.75)" opacity="0.4"/>
        <path id="Path_2658" data-name="Path 2658" d="M879.653,134.357l21.245,8.5-21.78,5.89-20.841-8.622Zm-.039.667-19.373,5.226,18.92,7.828,19.74-5.338Z" transform="translate(-858.277 -134.357)" fill="#19b24b"/>
      </g>
      <g id="_50" data-name="50" transform="translate(240.967 43.781)" opacity="0.5">
        <path id="Path_2605" data-name="Path 2605" d="M767.707,162.441l20.122,8.834,25.161-6.8-20.842-8.623Z" transform="translate(-767.707 -155.848)" fill="rgba(0,117,60,0.75)" opacity="0.4"/>
        <path id="Path_2666" data-name="Path 2666" d="M792.148,155.849l20.842,8.623-25.161,6.8-20.121-8.834Zm-.043.668-22.5,6.068,18.27,8.021,23.149-6.26Z" transform="translate(-767.708 -155.849)" fill="#19b24b"/>
      </g>
      <g id="_51" data-name="51" transform="translate(279.099 55.084)" opacity="0.5">
        <path id="Path_2628" data-name="Path 2628" d="M923.464,196.208l.049-.124-20.064,5.634,31.774,13.024,19.225-6.3Z" transform="translate(-903.448 -196.084)" fill="rgba(0,117,60,0.75)" opacity="0.4"/>
        <path id="Path_2689" data-name="Path 2689" d="M923.511,196.084l-.05.124,30.983,12.231-19.225,6.3-31.774-13.024Zm-.248.727-17.874,5.019,29.854,12.237,17.335-5.683Z" transform="translate(-903.445 -196.084)" fill="#19b24b"/>
      </g>
      <g id="_23" data-name="23" transform="translate(272.928 92.753)">
        <path id="Path_2523" data-name="Path 2523" d="M903.887,330.171l-22.41,7.873Zm-.043.911-20.206,7.1L921.6,357.162l20.514-8.427Z" transform="translate(-881.477 -330.171)" fill="rgba(0,117,60,0.75)"/>
        <path id="Path_2581" data-name="Path 2581" d="M903.888,330.171h0l-22.409,7.873,40.089,20.045,22.663-9.308ZM921.6,357.162,883.64,338.18l20.206-7.1,38.271,17.654Z" transform="translate(-881.478 -330.171)" fill="#19b24b"/>
        <g id="Group_1924" data-name="Group 1924" transform="translate(25.294 8.286)">
          <path id="Path_2776" data-name="Path 2776" d="M977.45,375.667h-5.934V374.6l2.258-2.269a19.058,19.058,0,0,0,1.326-1.452,3.454,3.454,0,0,0,.476-.805,2.175,2.175,0,0,0,.15-.808,1.233,1.233,0,0,0-.356-.935,1.365,1.365,0,0,0-.985-.341,2.631,2.631,0,0,0-.973.185,4.53,4.53,0,0,0-1.086.671l-.761-.928a4.91,4.91,0,0,1,1.419-.874,4.159,4.159,0,0,1,1.468-.257,2.887,2.887,0,0,1,1.958.638,2.155,2.155,0,0,1,.737,1.716,3.009,3.009,0,0,1-.213,1.126,4.558,4.558,0,0,1-.653,1.1,14.935,14.935,0,0,1-1.464,1.53l-1.521,1.473v.06h4.156Z" transform="translate(-971.516 -366.786)" fill="#fff"/>
          <path id="Path_2777" data-name="Path 2777" d="M991.366,368.924a2.03,2.03,0,0,1-.485,1.386,2.445,2.445,0,0,1-1.366.746v.048a2.642,2.642,0,0,1,1.581.656,1.876,1.876,0,0,1,.527,1.392,2.315,2.315,0,0,1-.892,1.95,4.1,4.1,0,0,1-2.539.685,5.714,5.714,0,0,1-2.455-.473v-1.252a5.581,5.581,0,0,0,1.18.425,5.106,5.106,0,0,0,1.2.15,2.529,2.529,0,0,0,1.522-.377,1.366,1.366,0,0,0,.5-1.167,1.112,1.112,0,0,0-.557-1.03,3.558,3.558,0,0,0-1.748-.329h-.761v-1.144h.772q2.1,0,2.1-1.449a1.069,1.069,0,0,0-.365-.869,1.647,1.647,0,0,0-1.079-.3,3.25,3.25,0,0,0-.957.141,4.536,4.536,0,0,0-1.09.548l-.689-.982a4.589,4.589,0,0,1,2.8-.886,3.33,3.33,0,0,1,2.066.569A1.868,1.868,0,0,1,991.366,368.924Z" transform="translate(-978.761 -366.786)" fill="#fff"/>
        </g>
      </g>
      <g id="_24" data-name="24" transform="translate(246.625 100.936)">
        <path id="Path_2489" data-name="Path 2489" d="M817.674,362.56l-22.51,7.837L832.9,391.435l23.073-9.458Z" transform="translate(-793.108 -361.644)" fill="rgba(0,117,60,0.75)"/>
        <path id="Path_2490" data-name="Path 2490" d="M812.472,359.3l-24.626,8.575,39.734,22.152,25.157-10.313Zm15.163,29.791L789.9,368.053l22.51-7.838,38.3,19.416Z" transform="translate(-787.846 -359.299)" fill="#19b24b"/>
        <g id="Group_1925" data-name="Group 1925" transform="translate(26.988 10.183)">
          <path id="Path_2778" data-name="Path 2778" d="M889.926,411.665h-6.014v-1.08l2.288-2.3a19.465,19.465,0,0,0,1.344-1.472,3.507,3.507,0,0,0,.483-.816,2.2,2.2,0,0,0,.152-.819,1.249,1.249,0,0,0-.361-.947,1.384,1.384,0,0,0-1-.346,2.657,2.657,0,0,0-.986.189,4.6,4.6,0,0,0-1.1.68l-.771-.941a4.979,4.979,0,0,1,1.438-.886,4.212,4.212,0,0,1,1.487-.261,2.927,2.927,0,0,1,1.985.647,2.183,2.183,0,0,1,.746,1.738,3.042,3.042,0,0,1-.215,1.141,4.647,4.647,0,0,1-.661,1.114,15.13,15.13,0,0,1-1.484,1.551l-1.542,1.493v.06h4.211Z" transform="translate(-883.913 -402.665)" fill="#fff"/>
          <path id="Path_2779" data-name="Path 2779" d="M904.2,409.833H903v1.936h-1.39v-1.936H897.56v-1.1l4.054-5.862H903v5.777h1.2Zm-2.586-1.184v-2.227q0-1.189.061-1.948h-.049a6.885,6.885,0,0,1-.533.971l-2.2,3.2Z" transform="translate(-890.775 -402.769)" fill="#fff"/>
        </g>
      </g>
      <g id="_25" data-name="25" transform="translate(217.712 110.152)">
        <path id="Path_2518" data-name="Path 2518" d="M717.028,395.384l-25.1,8.649,37.161,22.823,25.821-10.369Z" transform="translate(-689.962 -394.463)" fill="rgba(0,117,60,0.75)"/>
        <path id="Path_2572" data-name="Path 2572" d="M712.077,392.105l-27.148,9.354,39.048,23.982,27.859-11.187ZM724.056,424.5,686.9,401.676l25.1-8.649,37.883,21.1Z" transform="translate(-684.929 -392.105)" fill="#19b24b"/>
        <g id="Group_1926" data-name="Group 1926" transform="translate(28.221 10.866)">
          <path id="Path_2780" data-name="Path 2780" d="M794.879,450.344h-5.934v-1.066l2.257-2.269a19.09,19.09,0,0,0,1.326-1.453,3.44,3.44,0,0,0,.476-.8,2.173,2.173,0,0,0,.15-.808,1.232,1.232,0,0,0-.356-.934,1.366,1.366,0,0,0-.985-.341,2.632,2.632,0,0,0-.973.185,4.565,4.565,0,0,0-1.087.671l-.761-.928a4.909,4.909,0,0,1,1.419-.874,4.151,4.151,0,0,1,1.467-.257,2.886,2.886,0,0,1,1.958.638,2.154,2.154,0,0,1,.736,1.716,3.008,3.008,0,0,1-.212,1.126,4.6,4.6,0,0,1-.653,1.1,15.037,15.037,0,0,1-1.464,1.53l-1.522,1.473v.06h4.156Z" transform="translate(-788.945 -441.464)" fill="#fff"/>
          <path id="Path_2781" data-name="Path 2781" d="M806.352,445.007a3,3,0,0,1,2.1.7,2.45,2.45,0,0,1,.773,1.91,2.789,2.789,0,0,1-.878,2.189,3.607,3.607,0,0,1-2.493.787,4.713,4.713,0,0,1-2.306-.473v-1.275a4.25,4.25,0,0,0,1.114.425,5.068,5.068,0,0,0,1.167.149,2.172,2.172,0,0,0,1.449-.425,1.55,1.55,0,0,0,.5-1.246q0-1.568-2-1.568a5.276,5.276,0,0,0-.694.056q-.413.058-.724.129l-.629-.371.335-4.275h4.552v1.252H805.3l-.2,2.168c.139-.024.31-.052.512-.084A4.842,4.842,0,0,1,806.352,445.007Z" transform="translate(-796.383 -441.594)" fill="#fff"/>
        </g>
      </g>
      <g id="_32" data-name="32" transform="translate(266.864 137.499)">
        <path id="Path_2519" data-name="Path 2519" d="M887.969,490.952l-28.078,12.161h0l28.076-12.16,49.48,27.78h0Zm-.048.944-26.2,11.349,47.393,29.068L935.664,518.7Z" transform="translate(-859.891 -490.952)" fill="rgba(0,117,60,0.75)"/>
        <path id="Path_2574" data-name="Path 2574" d="M887.973,490.959,859.9,503.12l49.181,30.164,28.375-14.545Zm21.142,41.358L861.721,503.25l26.2-11.349,47.743,26.8Z" transform="translate(-859.895 -490.535)" fill="#19b24b"/>
        <g id="Group_1930" data-name="Group 1930" transform="translate(33.707 15.969)">
          <path id="Path_2788" data-name="Path 2788" d="M999.744,559.111a2.027,2.027,0,0,1-.485,1.386,2.444,2.444,0,0,1-1.365.746v.048a2.635,2.635,0,0,1,1.581.656,1.875,1.875,0,0,1,.527,1.391,2.314,2.314,0,0,1-.893,1.949,4.093,4.093,0,0,1-2.538.686,5.718,5.718,0,0,1-2.455-.473v-1.251a5.636,5.636,0,0,0,1.18.425,5.113,5.113,0,0,0,1.2.15,2.524,2.524,0,0,0,1.521-.378,1.362,1.362,0,0,0,.5-1.167,1.109,1.109,0,0,0-.558-1.029,3.548,3.548,0,0,0-1.748-.33h-.76v-1.143h.772q2.1,0,2.1-1.449a1.071,1.071,0,0,0-.365-.869,1.647,1.647,0,0,0-1.078-.3,3.267,3.267,0,0,0-.958.141,4.588,4.588,0,0,0-1.09.547l-.688-.981a4.584,4.584,0,0,1,2.8-.887,3.329,3.329,0,0,1,2.066.569A1.868,1.868,0,0,1,999.744,559.111Z" transform="translate(-994.115 -556.974)" fill="#fff"/>
          <path id="Path_2789" data-name="Path 2789" d="M1014.368,565.853h-5.934v-1.065l2.257-2.269a19.124,19.124,0,0,0,1.326-1.452,3.458,3.458,0,0,0,.477-.806,2.173,2.173,0,0,0,.15-.809,1.234,1.234,0,0,0-.356-.934,1.368,1.368,0,0,0-.985-.341,2.634,2.634,0,0,0-.973.186,4.561,4.561,0,0,0-1.086.67l-.761-.928a4.909,4.909,0,0,1,1.419-.874,4.159,4.159,0,0,1,1.467-.258,2.882,2.882,0,0,1,1.958.638,2.15,2.15,0,0,1,.737,1.715,3.019,3.019,0,0,1-.212,1.126,4.6,4.6,0,0,1-.652,1.1,14.954,14.954,0,0,1-1.465,1.529l-1.521,1.473v.06h4.156Z" transform="translate(-1001.41 -556.974)" fill="#fff"/>
        </g>
      </g>
      <g id="_31" data-name="31" transform="translate(195.858 147.758)">
        <path id="Path_2485" data-name="Path 2485" d="M676.148,529.353l-63.137,26.868,50.308,39.206L728.4,561.9Z" transform="translate(-611.359 -528.403)" fill="rgba(0,117,60,0.75)"/>
        <path id="Path_2486" data-name="Path 2486" d="M672,525.972l-64.862,27.6L659,593.993l66.888-34.458Zm-12.9,67.023-50.308-39.205,63.137-26.867,52.255,32.544Z" transform="translate(-607.134 -525.972)" fill="#19b24b"/>
        <g id="Group_1931" data-name="Group 1931" transform="translate(53.607 25.474)">
          <path id="Path_2790" data-name="Path 2790" d="M810.7,625.908a2.029,2.029,0,0,1-.485,1.386,2.439,2.439,0,0,1-1.366.745v.048a2.647,2.647,0,0,1,1.581.656,1.877,1.877,0,0,1,.527,1.392,2.315,2.315,0,0,1-.893,1.95,4.1,4.1,0,0,1-2.539.685,5.728,5.728,0,0,1-2.455-.472v-1.252a5.548,5.548,0,0,0,1.18.425,5.114,5.114,0,0,0,1.2.15,2.524,2.524,0,0,0,1.521-.377,1.364,1.364,0,0,0,.5-1.168,1.111,1.111,0,0,0-.557-1.03,3.556,3.556,0,0,0-1.749-.329h-.761v-1.144h.773q2.1,0,2.1-1.449a1.07,1.07,0,0,0-.366-.869,1.647,1.647,0,0,0-1.078-.3,3.25,3.25,0,0,0-.958.141,4.56,4.56,0,0,0-1.09.548l-.689-.982a4.592,4.592,0,0,1,2.8-.886,3.327,3.327,0,0,1,2.066.569A1.867,1.867,0,0,1,810.7,625.908Z" transform="translate(-805.075 -623.77)" fill="#fff"/>
          <path id="Path_2791" data-name="Path 2791" d="M823.924,632.781h-1.407v-5.653q0-1.012.048-1.606c-.092.1-.2.2-.339.318s-.582.483-1.344,1.1l-.707-.893,2.575-2.023h1.174Z" transform="translate(-812.768 -623.9)" fill="#fff"/>
        </g>
      </g>
      <g id="_40" data-name="40" transform="translate(284.524 182.469)">
        <path id="Path_2521" data-name="Path 2521" d="M958.8,652.989,928.54,668.855l56.907,39.589,30.429-20.07Z" transform="translate(-926.915 -652.016)" fill="rgba(111,6,1,0.8)"/>
        <path id="Path_2577" data-name="Path 2577" d="M954.673,649.529l-31.917,16.737,58.518,40.711,32.01-21.113Zm-30.292,16.839h0L954.638,650.5l57.079,35.385-30.429,20.071Z" transform="translate(-922.756 -649.529)" fill="#c8220b"/>
        <g id="Group_1936" data-name="Group 1936" transform="translate(38.805 21.632)">
          <path id="Path_2800" data-name="Path 2800" d="M1078.108,740.74h-1.178v1.908h-1.369V740.74h-3.995v-1.082l3.995-5.777h1.369v5.693h1.178Zm-2.547-1.166V737.38q0-1.173.06-1.921h-.049a6.719,6.719,0,0,1-.525.957l-2.172,3.157Z" transform="translate(-1071.566 -733.767)" fill="#fff"/>
          <path id="Path_2801" data-name="Path 2801" d="M1092.373,738.158a6.208,6.208,0,0,1-.733,3.385,2.765,2.765,0,0,1-4.451-.036,6.094,6.094,0,0,1-.754-3.349,6.255,6.255,0,0,1,.732-3.412,2.768,2.768,0,0,1,4.452.051A6.157,6.157,0,0,1,1092.373,738.158Zm-4.515,0a6.347,6.347,0,0,0,.368,2.553,1.285,1.285,0,0,0,2.355-.013,8.838,8.838,0,0,0,0-5.086,1.236,1.236,0,0,0-1.181-.786,1.223,1.223,0,0,0-1.174.772A6.4,6.4,0,0,0,1087.858,738.158Z" transform="translate(-1079.15 -733.649)" fill="#fff"/>
        </g>
      </g>
      <g id="_41" data-name="41" transform="translate(249.868 200.399)">
        <path id="Path_2487" data-name="Path 2487" d="M835.578,716.858l-30.713,16.036,55.985,44.951,32.528-21.1Z" transform="translate(-803.328 -715.874)" fill="rgba(0,117,60,0.75)"/>
        <path id="Path_2488" data-name="Path 2488" d="M831.7,713.353l-32.312,16.871,57.469,46.142,34.1-22.118Zm25.21,61.972L800.93,730.374l30.713-16.037,57.8,39.889Z" transform="translate(-799.393 -713.353)" fill="#19b24b"/>
        <g id="Group_1937" data-name="Group 1937" transform="translate(40.101 24.479)">
          <path id="Path_2802" data-name="Path 2802" d="M963.1,814.652h-1.21v1.958h-1.406v-1.958h-4.1v-1.111l4.1-5.93h1.406v5.844h1.21Zm-2.615-1.2V811.2q0-1.2.062-1.971h-.049a6.989,6.989,0,0,1-.541.982l-2.228,3.242Z" transform="translate(-956.379 -807.61)" fill="#fff"/>
          <path id="Path_2803" data-name="Path 2803" d="M975.9,816.634h-1.444v-5.8q0-1.037.05-1.645-.142.147-.347.325t-1.378,1.13l-.725-.915,2.641-2.075h1.2Z" transform="translate(-964.17 -807.634)" fill="#fff"/>
        </g>
      </g>
      <g id="_42" data-name="42" transform="translate(199.472 230.209)">
        <path id="Path_2495" data-name="Path 2495" d="M685.6,822.861l-60.59,34,24.755,23.759H690.2l37.261-24.014Z" transform="translate(-622.601 -821.908)" fill="rgba(0,117,60,0.75)"/>
        <path id="Path_2496" data-name="Path 2496" d="M682.16,819.469h-.192L620,854.245l24.942,23.938h1.22l-24.755-23.759,60.59-34,41.866,33.747L686.6,878.183h1.56L725.3,854.245Z" transform="translate(-620 -819.469)" fill="#19b24b"/>
        <g id="Group_1943" data-name="Group 1943" transform="translate(48.355 32.64)">
          <path id="Path_2814" data-name="Path 2814" d="M798.767,942.826h-1.2v1.936h-1.389v-1.936h-4.054v-1.1l4.054-5.862h1.389v5.777h1.2Zm-2.585-1.183v-2.226c0-.794.02-1.442.061-1.949h-.049a6.843,6.843,0,0,1-.534.971l-2.2,3.2Z" transform="translate(-792.128 -935.762)" fill="#fff"/>
          <path id="Path_2815" data-name="Path 2815" d="M813.035,944.658h-6.014v-1.08l2.288-2.3a19.5,19.5,0,0,0,1.344-1.472,3.49,3.49,0,0,0,.482-.816,2.2,2.2,0,0,0,.153-.82,1.252,1.252,0,0,0-.362-.947,1.383,1.383,0,0,0-1-.346,2.671,2.671,0,0,0-.986.188,4.6,4.6,0,0,0-1.1.679l-.771-.94a4.941,4.941,0,0,1,1.438-.887,4.21,4.21,0,0,1,1.487-.261,2.923,2.923,0,0,1,1.984.647,2.183,2.183,0,0,1,.746,1.738,3.047,3.047,0,0,1-.215,1.141,4.641,4.641,0,0,1-.662,1.114,15.063,15.063,0,0,1-1.483,1.55l-1.542,1.493v.06h4.212Z" transform="translate(-799.618 -935.658)" fill="#fff"/>
        </g>
      </g>
      <g id="_1" data-name="1" transform="translate(25.297 82.079)" opacity="0.5">
        <g id="Group_1951" data-name="Group 1951" transform="translate(0 0)">
          <path id="Path_2554" data-name="Path 2554" d="M34.811,292.182,3.373,300.007,0,302.983l13.639,13.39,38.389-10.366Zm-20.925,23.25L1.24,303.016l2.537-2.239L34.608,293.1,50.2,305.625Z" transform="translate(0 -292.181)" fill="#19b24b"/>
          <path id="Path_2509" data-name="Path 2509" d="M34.811,292.177,3.371,300,0,302.979,3.373,300l31.438-7.825L52.027,306h0Zm-.2.922L3.777,300.773,1.24,303.012l12.646,12.416L50.2,305.622Z" transform="translate(0 -292.177)" fill="rgba(0,117,60,0.75)" opacity="0.4"/>
        </g>
      </g>
      <g id="_2" data-name="2" transform="translate(61.999 73.531)" opacity="0.5">
        <path id="Path_2500" data-name="Path 2500" d="M164.441,263.372l-30.483,7.777,16.406,13.063,31.671-8.812Z" transform="translate(-133.028 -262.916)" fill="rgba(0,117,60,0.75)" opacity="0.4"/>
        <path id="Path_2534" data-name="Path 2534" d="M162.14,261.748l-31.492,8.034,17.24,13.727,32.753-9.114Zm-30.563,8.233,30.483-7.777,17.594,12.027-31.671,8.812Zm-.93-.2v0h0Z" transform="translate(-130.646 -261.748)" fill="#19b24b"/>
      </g>
      <g id="_3" data-name="3" transform="translate(95.14 66.121)" opacity="0.5">
        <path id="Path_2510" data-name="Path 2510" d="M276.315,238.6l-25.7,6.528,16.406,11.483,26.362-7.106Zm-27.7,6.164h0l18.239,12.766,1.9-.512.2-.056-2.106.568-18.238-12.765" transform="translate(-248.617 -237.691)" fill="rgba(0,117,60,0.75)" opacity="0.4"/>
        <path id="Path_2557" data-name="Path 2557" d="M276.462,235.369l-27.845,7.071,18.238,12.765,2.107-.568,26.253-7.285Zm-9.445,18.918L250.611,242.8l25.7-6.528,17.064,10.9Z" transform="translate(-248.617 -235.369)" fill="#19b24b"/>
      </g>
      <g id="_4" data-name="4" transform="translate(125.016 59.47)" opacity="0.5">
        <path id="Path_2512" data-name="Path 2512" d="M379.584,211.695h0l8.115,4.653Zm-.123.9-22.431,5.827,16.1,10.475,23.652-6.374Zm-24.5,5.492h0l18.019,11.725,19.327-5.209.078-.022-19.4,5.23-18.019-11.725" transform="translate(-354.964 -211.695)" fill="rgba(0,117,60,0.75)" opacity="0.4"/>
        <path id="Path_2561" data-name="Path 2561" d="M379.584,211.695l-24.62,6.4,18.019,11.725,19.405-5.23,6.522-1.81L387.7,216.348l-8.116-4.653M373.127,228.9l-16.1-10.475,22.431-5.827,17.318,9.928Z" transform="translate(-354.964 -211.695)" fill="#19b24b"/>
      </g>
      <g id="_5" data-name="5" transform="translate(151.363 53.174)" opacity="0.5">
        <path id="Path_2514" data-name="Path 2514" d="M477.133,192.48l-20.468,5.242,17.079,9.8,21.367-5.877Zm20.3,9.407-11.9,3.274,11.9-3.274Z" transform="translate(-454.441 -191.582)" fill="rgba(0,117,60,0.75)" opacity="0.4"/>
        <path id="Path_2564" data-name="Path 2564" d="M471.541,189.285l-22.791,5.837,19.187,11.014,11.9-3.273,11.9-3.274Zm-3.489,15.944-17.079-9.8,20.468-5.242,17.977,9.169Z" transform="translate(-448.75 -189.285)" fill="#19b24b"/>
      </g>
      <g id="_6" data-name="6" transform="translate(176.008 47.38)" opacity="0.5">
        <path id="Path_2515" data-name="Path 2515" d="M557.513,171.851l-18.67,4.9,17.522,8.882,18.912-5.143ZM536.478,176.5h0l19.8,10.035,21.4-5.818-21.4,5.818Z" transform="translate(-536.477 -170.954)" fill="rgba(0,117,60,0.75)" opacity="0.4"/>
        <path id="Path_2566" data-name="Path 2566" d="M557.6,168.659,536.48,174.2l19.8,10.035,21.4-5.818Zm-1.236,14.679-17.522-8.882,18.669-4.9,17.764,8.64Z" transform="translate(-536.479 -168.659)" fill="#19b24b"/>
      </g>
      <g id="_7" data-name="7" transform="translate(198.886 41.678)" opacity="0.5">
        <path id="Path_2501" data-name="Path 2501" d="M638.373,148.364l-20.46,5.249h0l20.46-5.249Zm-.077.892-17.955,4.607,17.443,8.55,18.031-5.206Z" transform="translate(-617.913 -148.364)" fill="rgba(0,117,60,0.75)" opacity="0.4"/>
        <path id="Path_2537" data-name="Path 2537" d="M638.376,148.364l-20.459,5.249,19.792,9.7,20.542-5.932-19.874-9.019m-.589,14.049-17.444-8.55,17.955-4.607,17.52,7.951Z" transform="translate(-617.915 -148.364)" fill="#19b24b"/>
      </g>
      <g id="_8" data-name="8" transform="translate(219.606 51.624)" opacity="0.5">
        <path id="Path_2506" data-name="Path 2506" d="M717.687,186.045l-17.736,5.292,26.991,12.978,21.689-5.321Z" transform="translate(-697.624 -185.405)" fill="rgba(0,117,60,0.75)" opacity="0.4"/>
        <path id="Path_2548" data-name="Path 2548" d="M712.391,183.767l-20.722,5.75,29.225,14.051,24.473-6Zm8.6,18.91L694,189.7l17.736-5.292,30.944,12.949Z" transform="translate(-691.669 -183.767)" fill="#19b24b"/>
      </g>
      <g id="_9" data-name="9" transform="translate(197.114 57.895)" opacity="0.5">
        <path id="Path_2471" data-name="Path 2471" d="M638.273,209.3,619.72,214.57,645.5,227.952l19.614-5.509Z" transform="translate(-617.441 -208.4)" fill="rgba(0,117,60,0.75)" opacity="0.4"/>
        <path id="Path_2472" data-name="Path 2472" d="M632.52,206.092l-20.913,5.939,27.968,14.516,22.067-6.2Zm7.148,19.553-25.781-13.382,18.553-5.268,26.842,13.142Z" transform="translate(-611.607 -206.092)" fill="#19b24b"/>
      </g>
      <g id="_10" data-name="10" transform="translate(171.552 64.431)" opacity="0.5">
        <path id="Path_2505" data-name="Path 2505" d="M544.238,229.357l-23.624,6.4,23.623-6.4,28.241,14.516h0Zm-.1.9-21.318,5.776,25.406,14.317,22.008-6.679Z" transform="translate(-520.614 -229.357)" fill="rgba(0,117,60,0.75)" opacity="0.4"/>
        <path id="Path_2545" data-name="Path 2545" d="M544.237,229.365l-23.623,6.4,27.516,15.506,24.349-7.391Zm3.993,20.994-25.406-14.317,21.318-5.776,26.1,13.414Z" transform="translate(-520.614 -229.363)" fill="#19b24b"/>
      </g>
      <g id="_11" data-name="11" transform="translate(144.862 71.429)" opacity="0.5">
        <path id="Path_2504" data-name="Path 2504" d="M450.407,257.486l-22.726,6.225,23.59,14.868,24.625-6.945Zm-10.369,1.965-14.43,3.952Zm38.06,12.439-26.96,7.6,26.96-7.6" transform="translate(-425.608 -256.581)" fill="rgba(0,117,60,0.75)" opacity="0.4"/>
        <path id="Path_2543" data-name="Path 2543" d="M450.517,254.266l-10.478,2.869-14.43,3.952,25.531,16.09,26.96-7.6Zm.756,22L427.682,261.4l22.726-6.225L475.9,269.318Z" transform="translate(-425.609 -254.266)" fill="#19b24b"/>
      </g>
      <g id="_12" data-name="12" transform="translate(114.411 79.006)" opacity="0.5">
        <path id="Path_2473" data-name="Path 2473" d="M350.471,284.483,324.224,291.6l22.855,15.875,27.526-8.132Z" transform="translate(-322.253 -283.572)" fill="rgba(0,117,60,0.75)" opacity="0.4"/>
        <path id="Path_2474" data-name="Path 2474" d="M345.558,281.239l-28.349,7.693,24.677,17.141,29.73-8.783Zm-3.523,23.909L319.18,289.273l26.247-7.122,24.134,14.866Z" transform="translate(-317.209 -281.239)" fill="#19b24b"/>
      </g>
      <g id="_13" data-name="13" transform="translate(80.746 87.131)" opacity="0.5">
        <path id="Path_2469" data-name="Path 2469" d="M233.877,313.438,203.67,321.9l19.747,16.581,32.768-9.417Z" transform="translate(-201.902 -312.517)" fill="rgba(0,117,60,0.75)" opacity="0.4"/>
        <path id="Path_2470" data-name="Path 2470" d="M229.508,310.159l-32.132,9,21.316,17.9,34.9-10.031Zm-10.617,25.965-19.746-16.581,30.206-8.463,22.308,15.627Z" transform="translate(-197.376 -310.159)" fill="#19b24b"/>
      </g>
      <g id="_14" data-name="14" transform="translate(40.034 96.648)" opacity="0.5">
        <path id="Path_2507" data-name="Path 2507" d="M93.983,344.037h0l22.069,18.148h0Zm-.5.688-36.175,9.994L74.291,370.8H82.67l31.6-8.987Z" transform="translate(-55.948 -344.037)" fill="rgba(0,117,60,0.75)" opacity="0.4"/>
        <path id="Path_2551" data-name="Path 2551" d="M90.492,344.039,52.459,354.592l18.007,17.056H79.3l33.262-9.461ZM70.8,370.8,53.822,354.72,90,344.726l20.784,17.09-31.6,8.987Z" transform="translate(-52.459 -344.038)" fill="#19b24b"/>
      </g>
      <g id="_15" data-name="15" transform="translate(70.428 118.204)" opacity="0.5">
        <path id="Path_2503" data-name="Path 2503" d="M209.848,420.768l-43.753,12.738-5.449,4.611h0l5.448-4.609Zm-.181.932L166.5,434.269l-4.619,3.908L177.309,454l51.328-17.352Z" transform="translate(-160.646 -420.768)" fill="rgba(0,117,60,0.75)" opacity="0.4"/>
        <path id="Path_2541" data-name="Path 2541" d="M209.851,420.768h0L166.1,433.508l-5.448,4.61,16.427,16.846,53.308-18.021ZM177.312,454l-15.425-15.818,4.619-3.908L209.67,421.7l18.97,14.943Z" transform="translate(-160.649 -420.768)" fill="#19b24b"/>
      </g>
      <g id="_16" data-name="16" transform="translate(122.17 108.954)" opacity="0.5">
        <g id="Group_1950" data-name="Group 1950">
          <path id="Path_2475" data-name="Path 2475" d="M377.22,391.155l-26.1,7.959L378,420.925l27.354-9.569Z" transform="translate(-349.354 -390.225)" fill="rgba(254,144,0,0.6)"/>
          <path id="Path_2476" data-name="Path 2476" d="M372.853,387.844l-28.02,8.543L373.318,419.5l29.332-10.262Zm.63,30.7L346.6,396.733l26.1-7.959,28.137,20.2Z" transform="translate(-344.833 -387.844)" fill="#fe9000"/>
        </g>
      </g>
      <g id="_17" data-name="17" transform="translate(152.276 99.459)" opacity="0.5">
        <path id="Path_2477" data-name="Path 2477" d="M487.588,357.3l-28.8,8.338,27.931,20,30.5-9.945Z" transform="translate(-456.881 -356.388)" fill="rgba(0,117,60,0.75)" opacity="0.4"/>
        <path id="Path_2478" data-name="Path 2478" d="M482.831,354.044,452,362.97l29.694,21.265,32.629-10.64Zm-.994,29.256-27.931-20,28.8-8.338,29.628,18.4Z" transform="translate(-451.998 -354.044)" fill="#19b24b"/>
      </g>
      <g id="_18" data-name="18" transform="translate(184.979 91.028)" opacity="0.5">
        <path id="Path_2479" data-name="Path 2479" d="M598.753,327.281l-23.147,7.054,29.49,18.417,24.414-8.284Z" transform="translate(-573.584 -326.368)" fill="rgba(0,117,60,0.75)" opacity="0.4"/>
        <path id="Path_2480" data-name="Path 2480" d="M593.675,324.031l-25.268,7.7,31.4,19.612L626.4,342.32Zm6.244,26.384L570.43,332l23.147-7.054,30.756,17.187Z" transform="translate(-568.408 -324.031)" fill="#19b24b"/>
      </g>
      <g id="_19" data-name="19" transform="translate(212.479 83.435)" opacity="0.5">
        <path id="Path_2481" data-name="Path 2481" d="M695.878,300.219l-21.845,6.353,30.491,17.064,22.529-7.718Z" transform="translate(-671.86 -299.315)" fill="rgba(0,117,60,0.75)" opacity="0.4"/>
        <path id="Path_2482" data-name="Path 2482" d="M690.4,297l-24.1,7.009,32.58,18.233,24.786-8.491Zm8.563,24.321-30.491-17.064,21.845-6.353,31.176,15.7Z" transform="translate(-666.299 -297.002)" fill="#19b24b"/>
      </g>
      <g id="_43" data-name="43" transform="translate(221.293 35.439)" opacity="0.5">
        <path id="Path_2604" data-name="Path 2604" d="M721.626,126.155l-23.952,6.3,18.748,8.231,24.406-6.584Z" transform="translate(-697.674 -126.155)" fill="rgba(0,117,60,0.75)" opacity="0.4"/>
        <path id="Path_2665" data-name="Path 2665" d="M721.626,126.155l19.2,7.945-24.406,6.584-18.748-8.231Zm-.045.667L699.593,132.6l16.88,7.411,22.392-6.041Z" transform="translate(-697.674 -126.155)" fill="#19b24b"/>
      </g>
      <g id="_26" data-name="26" transform="translate(152.515 120.171)">
        <path id="Path_2517" data-name="Path 2517" d="M516.335,431.071,454.6,451.993l39.294,30.938,63.271-26.5Zm-63.487,20.623h0L493.757,483.9,559,456.582,493.757,483.9l-40.909-32.209" transform="translate(-452.848 -430.144)" fill="rgba(0,117,60,0.75)"/>
        <path id="Path_2570" data-name="Path 2570" d="M516.442,427.77l-63.594,21.55,40.909,32.208L559,454.208Zm-22.553,52.787L454.6,449.62l61.74-20.922,40.825,25.363Z" transform="translate(-452.848 -427.77)" fill="#19b24b"/>
        <g id="Group_1938" data-name="Group 1938" transform="translate(47.266 20.344)">
          <path id="Path_2804" data-name="Path 2804" d="M627.032,509.067H621.1V508l2.257-2.269a19.314,19.314,0,0,0,1.327-1.452,3.467,3.467,0,0,0,.476-.805,2.17,2.17,0,0,0,.15-.809,1.234,1.234,0,0,0-.356-.934,1.366,1.366,0,0,0-.985-.341,2.633,2.633,0,0,0-.973.185,4.56,4.56,0,0,0-1.086.67l-.761-.928a4.91,4.91,0,0,1,1.419-.874,4.166,4.166,0,0,1,1.467-.257,2.881,2.881,0,0,1,1.957.638,2.152,2.152,0,0,1,.737,1.715,3.009,3.009,0,0,1-.213,1.126,4.561,4.561,0,0,1-.652,1.1,15.012,15.012,0,0,1-1.465,1.53l-1.52,1.474v.06h4.155Z" transform="translate(-621.098 -500.187)" fill="#fff"/>
          <path id="Path_2805" data-name="Path 2805" d="M635.417,505.349q0-5.137,4.185-5.138a5.215,5.215,0,0,1,1.114.1v1.174a3.815,3.815,0,0,0-1.053-.132,2.76,2.76,0,0,0-2.114.754,3.662,3.662,0,0,0-.767,2.419h.072a1.926,1.926,0,0,1,.79-.751,2.545,2.545,0,0,1,1.2-.266,2.384,2.384,0,0,1,1.857.731,2.836,2.836,0,0,1,.664,1.982,3.007,3.007,0,0,1-.77,2.177,2.776,2.776,0,0,1-2.1.8,2.928,2.928,0,0,1-1.635-.452,2.883,2.883,0,0,1-1.068-1.318A5.213,5.213,0,0,1,635.417,505.349Zm3.054,2.689a1.375,1.375,0,0,0,1.116-.467,2.021,2.021,0,0,0,.393-1.335,1.767,1.767,0,0,0-.369-1.186,1.373,1.373,0,0,0-1.1-.431,1.82,1.82,0,0,0-.838.194,1.54,1.54,0,0,0-.605.533,1.256,1.256,0,0,0-.221.692,2.222,2.222,0,0,0,.458,1.423A1.431,1.431,0,0,0,638.471,508.038Z" transform="translate(-628.393 -500.2)" fill="#fff"/>
        </g>
      </g>
      <g id="_27" data-name="27" transform="translate(87.942 135.72)" opacity="0.5">
        <path id="Path_2502" data-name="Path 2502" d="M276.551,483.12l-53.56,17.6h0l53.559-17.6,22.546,17.6h0Zm-.165.946L224.548,501.1l19.278,19.592,53.567-20.229Z" transform="translate(-222.991 -483.12)" fill="rgba(111,6,1,0.8)"/>
        <path id="Path_2539" data-name="Path 2539" d="M276.552,483.129l-53.56,17.6,20.619,20.953L299.1,500.729ZM243.827,520.7l-19.278-19.592,51.838-17.036,21.007,16.4Z" transform="translate(-222.992 -483.126)" fill="#c8220b"/>
      </g>
      <g id="_28" data-name="28" transform="translate(108.888 154.327)">
        <path id="Path_2497" data-name="Path 2497" d="M353.878,552.753l-54.789,20.335,23.045,22.649,56.908-23.473Zm26.833,19.736L321.939,596.73l-24.391-23.972h0l24.391,23.972,58.772-24.241" transform="translate(-297.549 -551.798)" fill="rgba(0,117,60,0.75)"/>
        <path id="Path_2529" data-name="Path 2529" d="M354.025,549.354l-56.476,20.96,24.391,23.972,58.772-24.241Zm-31.891,43.938-23.044-22.649,54.789-20.334,25.164,19.51Z" transform="translate(-297.549 -549.354)" fill="#19b24b"/>
        <g id="Group_1940" data-name="Group 1940" transform="translate(33.635 17.498)">
          <path id="Path_2808" data-name="Path 2808" d="M423.212,620.521h-5.933v-1.065l2.257-2.269a19.236,19.236,0,0,0,1.326-1.452,3.457,3.457,0,0,0,.476-.805,2.182,2.182,0,0,0,.15-.809,1.233,1.233,0,0,0-.356-.934,1.365,1.365,0,0,0-.985-.341,2.63,2.63,0,0,0-.973.185,4.583,4.583,0,0,0-1.086.67l-.761-.928a4.934,4.934,0,0,1,1.42-.874,4.157,4.157,0,0,1,1.467-.257,2.885,2.885,0,0,1,1.958.638,2.153,2.153,0,0,1,.736,1.715,3.009,3.009,0,0,1-.213,1.126,4.6,4.6,0,0,1-.652,1.1,15,15,0,0,1-1.464,1.529l-1.521,1.473v.06h4.155Z" transform="translate(-417.278 -611.643)" fill="#fff"/>
          <path id="Path_2809" data-name="Path 2809" d="M434.493,611.666a3.1,3.1,0,0,1,1.97.572,1.85,1.85,0,0,1,.724,1.53,2.407,2.407,0,0,1-1.617,2.145A4.149,4.149,0,0,1,437.035,617a2.04,2.04,0,0,1,.434,1.269,2.129,2.129,0,0,1-.8,1.736,3.3,3.3,0,0,1-2.155.654,3.519,3.519,0,0,1-2.209-.612,2.063,2.063,0,0,1-.785-1.73,2.234,2.234,0,0,1,.41-1.314,3.434,3.434,0,0,1,1.344-1.038,3.376,3.376,0,0,1-1.143-1.012,2.173,2.173,0,0,1-.341-1.2,1.8,1.8,0,0,1,.748-1.517A3.144,3.144,0,0,1,434.493,611.666Zm-1.623,6.6a1.162,1.162,0,0,0,.437.967,1.866,1.866,0,0,0,1.185.344,1.824,1.824,0,0,0,1.2-.356,1.193,1.193,0,0,0,.428-.967,1.24,1.24,0,0,0-.395-.887,3.74,3.74,0,0,0-1.2-.742l-.174-.078a3.076,3.076,0,0,0-1.137.764A1.447,1.447,0,0,0,432.87,618.265Zm1.611-5.515a1.48,1.48,0,0,0-.964.3.981.981,0,0,0-.365.8,1.157,1.157,0,0,0,.132.557,1.453,1.453,0,0,0,.383.446,4.587,4.587,0,0,0,.85.482,2.82,2.82,0,0,0,1.015-.668,1.225,1.225,0,0,0,.3-.817.979.979,0,0,0-.368-.8A1.513,1.513,0,0,0,434.481,612.75Z" transform="translate(-424.536 -611.654)" fill="#fff"/>
        </g>
      </g>
      <g id="_30" data-name="30" transform="translate(164.458 201.07)">
        <path id="Path_2499" data-name="Path 2499" d="M559.475,719.263l-58.953,28.328,31.573,31.07,61.054-33.012Z" transform="translate(-499.073 -718.274)" fill="rgba(0,117,60,0.75)"/>
        <path id="Path_2531" data-name="Path 2531" d="M555.873,715.741l-60.51,29.076,32.874,32.351,62.737-33.923Zm-27.488,60.387-31.573-31.07,58.953-28.328,33.673,26.386Z" transform="translate(-495.363 -715.741)" fill="#19b24b"/>
        <g id="Group_1942" data-name="Group 1942" transform="translate(44.619 27.495)">
          <path id="Path_2812" data-name="Path 2812" d="M659.811,815.774a2.026,2.026,0,0,1-.484,1.384,2.437,2.437,0,0,1-1.364.745v.048a2.642,2.642,0,0,1,1.579.655,1.874,1.874,0,0,1,.526,1.39,2.311,2.311,0,0,1-.891,1.947,4.087,4.087,0,0,1-2.536.685,5.719,5.719,0,0,1-2.452-.472v-1.25a5.573,5.573,0,0,0,1.178.425,5.1,5.1,0,0,0,1.2.149,2.519,2.519,0,0,0,1.519-.377,1.361,1.361,0,0,0,.5-1.167,1.107,1.107,0,0,0-.556-1.028,3.546,3.546,0,0,0-1.746-.329h-.759v-1.142h.771q2.093,0,2.093-1.448a1.067,1.067,0,0,0-.365-.867,1.642,1.642,0,0,0-1.076-.3,3.268,3.268,0,0,0-.957.141,4.55,4.55,0,0,0-1.089.547l-.688-.98a4.581,4.581,0,0,1,2.793-.885,3.321,3.321,0,0,1,2.063.568A1.865,1.865,0,0,1,659.811,815.774Z" transform="translate(-654.19 -813.628)" fill="#fff"/>
          <path id="Path_2813" data-name="Path 2813" d="M674.423,818.124a6.223,6.223,0,0,1-.732,3.385,2.766,2.766,0,0,1-4.452-.036,6.106,6.106,0,0,1-.753-3.348,6.257,6.257,0,0,1,.732-3.412,2.769,2.769,0,0,1,4.452.051A6.152,6.152,0,0,1,674.423,818.124Zm-4.515,0a6.358,6.358,0,0,0,.368,2.553,1.285,1.285,0,0,0,2.356-.012,8.848,8.848,0,0,0,0-5.086,1.28,1.28,0,0,0-2.356-.015A6.407,6.407,0,0,0,669.908,818.124Z" transform="translate(-661.482 -813.615)" fill="#fff"/>
        </g>
      </g>
      <g id="_29" data-name="29" transform="translate(135.513 176.185)">
        <path id="Path_2498" data-name="Path 2498" d="M454.367,630.612l-56.8,23.1L423.4,680.618,482.393,653.2Z" transform="translate(-396.095 -629.642)" fill="rgba(0,117,60,0.75)"/>
        <path id="Path_2530" data-name="Path 2530" d="M450.743,627.16l-58.415,23.755,27.112,28.242,60.772-28.242Zm-31.111,50.976L393.8,651.228l56.8-23.1,28.025,22.591Z" transform="translate(-392.328 -627.16)" fill="#19b24b"/>
        <g id="Group_1941" data-name="Group 1941" transform="translate(39.888 22.71)">
          <g id="Group_2128" data-name="Group 2128">
            <path id="Path_2810" data-name="Path 2810" d="M540.251,716.88h-5.935v-1.065l2.258-2.27a19.147,19.147,0,0,0,1.326-1.452,3.449,3.449,0,0,0,.476-.806,2.174,2.174,0,0,0,.15-.808,1.232,1.232,0,0,0-.357-.934,1.365,1.365,0,0,0-.985-.342,2.624,2.624,0,0,0-.973.186,4.521,4.521,0,0,0-1.087.67l-.76-.928a4.893,4.893,0,0,1,1.419-.874A4.153,4.153,0,0,1,537.25,708a2.887,2.887,0,0,1,1.958.637,2.153,2.153,0,0,1,.736,1.716,3,3,0,0,1-.213,1.125,4.57,4.57,0,0,1-.652,1.1,14.937,14.937,0,0,1-1.464,1.53l-1.521,1.473v.06h4.156Z" transform="translate(-534.316 -708)" fill="#fff"/>
            <path id="Path_2811" data-name="Path 2811" d="M554.484,711.875a6.018,6.018,0,0,1-1.042,3.863,3.812,3.812,0,0,1-3.137,1.275,4.817,4.817,0,0,1-1.144-.1v-1.18a3.954,3.954,0,0,0,1.071.15,2.743,2.743,0,0,0,2.126-.766,3.725,3.725,0,0,0,.766-2.408h-.072a2.116,2.116,0,0,1-.854.779,2.677,2.677,0,0,1-1.17.239,2.358,2.358,0,0,1-1.827-.724,2.829,2.829,0,0,1-.664-1.988,3.045,3.045,0,0,1,.769-2.183,2.753,2.753,0,0,1,2.1-.811,2.793,2.793,0,0,1,2.7,1.775A5.174,5.174,0,0,1,554.484,711.875Zm-3.053-2.682a1.36,1.36,0,0,0-1.12.476,2.06,2.06,0,0,0-.39,1.339,1.765,1.765,0,0,0,.362,1.176,1.358,1.358,0,0,0,1.1.428,1.751,1.751,0,0,0,1.2-.425,1.285,1.285,0,0,0,.486-.994,2.436,2.436,0,0,0-.207-1,1.783,1.783,0,0,0-.578-.734A1.414,1.414,0,0,0,551.43,709.193Z" transform="translate(-541.561 -708.013)" fill="#fff"/>
          </g>
        </g>
      </g>
      <g id="_52" data-name="52" transform="translate(299.961 50.055)" opacity="0.5">
        <path id="Path_2612" data-name="Path 2612" d="M1026.09,189.585l-31.272-11.4L977.7,182.989l31.081,12.269Z" transform="translate(-977.703 -178.183)" fill="rgba(254,144,0,0.6)"/>
        <path id="Path_2673" data-name="Path 2673" d="M1008.783,195.258,977.7,182.989l17.115-4.806,31.273,11.4Zm.02-.673,15.35-5.032-29.36-10.7-15.107,4.242Z" transform="translate(-977.703 -178.183)" fill="#fe9000"/>
      </g>
      <g id="_22" data-name="22" transform="translate(297.913 85.06)">
        <path id="Path_2493" data-name="Path 2493" d="M996.176,306.007,978.357,312.2l37.448,17.681,14.654-6.089-.433-3.575Z" transform="translate(-976.126 -305.103)" fill="rgba(0,117,60,0.75)"/>
        <path id="Path_2494" data-name="Path 2494" d="M990.495,302.789l-20.078,6.977,39.657,18.725,15.592-6.479-.569-4.7Zm19.6,24.778-37.449-17.681,17.819-6.192,33.851,14.209.433,3.575Z" transform="translate(-970.417 -302.789)" fill="#19b24b"/>
        <g id="Group_1923" data-name="Group 1923" transform="translate(23.495 7.295)">
          <path id="Path_2774" data-name="Path 2774" d="M1060.066,341.315h-6.015v-1.08l2.288-2.3a19.39,19.39,0,0,0,1.344-1.472,3.5,3.5,0,0,0,.483-.816,2.212,2.212,0,0,0,.153-.819,1.245,1.245,0,0,0-.362-.947,1.382,1.382,0,0,0-1-.346,2.664,2.664,0,0,0-.985.188,4.6,4.6,0,0,0-1.1.68l-.771-.94a4.987,4.987,0,0,1,1.438-.886,4.219,4.219,0,0,1,1.487-.261,2.927,2.927,0,0,1,1.985.646,2.18,2.18,0,0,1,.747,1.739,3.051,3.051,0,0,1-.216,1.141,4.651,4.651,0,0,1-.661,1.114,15.21,15.21,0,0,1-1.484,1.551L1055.854,340v.06h4.212Z" transform="translate(-1054.05 -332.315)" fill="#fff"/>
          <path id="Path_2775" data-name="Path 2775" d="M1074.334,341.315h-6.013v-1.08l2.287-2.3a19.449,19.449,0,0,0,1.345-1.472,3.518,3.518,0,0,0,.482-.816,2.181,2.181,0,0,0,.153-.819,1.252,1.252,0,0,0-.361-.947,1.386,1.386,0,0,0-1-.346,2.664,2.664,0,0,0-.986.188,4.606,4.606,0,0,0-1.1.68l-.771-.94a4.962,4.962,0,0,1,1.438-.886,4.215,4.215,0,0,1,1.488-.261,2.923,2.923,0,0,1,1.984.646,2.184,2.184,0,0,1,.747,1.739,3.036,3.036,0,0,1-.216,1.141,4.607,4.607,0,0,1-.661,1.114,15.143,15.143,0,0,1-1.484,1.551L1070.122,340v.06h4.213Z" transform="translate(-1061.227 -332.315)" fill="#fff"/>
        </g>
      </g>
      <g id="_33" data-name="33" transform="translate(296.309 126.357)">
        <path id="Path_2491" data-name="Path 2491" d="M995.358,453.111l-23.792,10.134,48.046,26.488,23.414-11.983Z" transform="translate(-969.639 -452.178)" fill="rgba(0,117,60,0.75)"/>
        <path id="Path_2492" data-name="Path 2492" d="M990.461,449.79l-25.754,10.969,49.957,27.543,25.277-12.937Zm24.218,37.555-48.045-26.488,23.792-10.133,47.668,24.638Z" transform="translate(-964.707 -449.79)" fill="#19b24b"/>
        <g id="Group_1929" data-name="Group 1929" transform="translate(34.064 13.861)">
          <path id="Path_2786" data-name="Path 2786" d="M1098.71,508.388a2.029,2.029,0,0,1-.484,1.386,2.446,2.446,0,0,1-1.365.745v.048a2.643,2.643,0,0,1,1.58.656,1.874,1.874,0,0,1,.527,1.392,2.314,2.314,0,0,1-.891,1.949,4.1,4.1,0,0,1-2.54.686,5.7,5.7,0,0,1-2.454-.473v-1.251a5.612,5.612,0,0,0,1.179.425,5.089,5.089,0,0,0,1.2.15,2.53,2.53,0,0,0,1.521-.377,1.366,1.366,0,0,0,.5-1.168,1.112,1.112,0,0,0-.557-1.03,3.563,3.563,0,0,0-1.749-.33h-.76v-1.143h.772q2.1,0,2.1-1.449a1.067,1.067,0,0,0-.365-.868,1.645,1.645,0,0,0-1.078-.305,3.257,3.257,0,0,0-.957.141,4.529,4.529,0,0,0-1.09.548l-.689-.982a4.592,4.592,0,0,1,2.8-.886,3.326,3.326,0,0,1,2.065.569A1.866,1.866,0,0,1,1098.71,508.388Z" transform="translate(-1093.082 -506.25)" fill="#fff"/>
          <path id="Path_2787" data-name="Path 2787" d="M1112.981,508.388a2.031,2.031,0,0,1-.485,1.386,2.438,2.438,0,0,1-1.365.745v.048a2.643,2.643,0,0,1,1.581.656,1.876,1.876,0,0,1,.527,1.392,2.315,2.315,0,0,1-.892,1.949,4.1,4.1,0,0,1-2.539.686,5.711,5.711,0,0,1-2.455-.473v-1.251a5.623,5.623,0,0,0,1.18.425,5.082,5.082,0,0,0,1.2.15,2.529,2.529,0,0,0,1.521-.377,1.365,1.365,0,0,0,.5-1.168,1.111,1.111,0,0,0-.557-1.03,3.559,3.559,0,0,0-1.748-.33h-.76v-1.143h.771q2.1,0,2.1-1.449a1.071,1.071,0,0,0-.365-.868,1.645,1.645,0,0,0-1.078-.305,3.259,3.259,0,0,0-.957.141,4.5,4.5,0,0,0-1.09.548l-.689-.982a4.591,4.591,0,0,1,2.8-.886,3.327,3.327,0,0,1,2.065.569A1.868,1.868,0,0,1,1112.981,508.388Z" transform="translate(-1100.353 -506.25)" fill="#fff"/>
        </g>
      </g>
      <g id="_53" data-name="53" transform="translate(318.12 45.04)" opacity="0.5">
        <path id="Path_2617" data-name="Path 2617" d="M1089.964,171.046l-30.8-10.716-16.817,4.722,31.2,11.376Z" transform="translate(-1042.347 -160.33)" fill="rgba(0,117,60,0.75)" opacity="0.4"/>
        <path id="Path_2678" data-name="Path 2678" d="M1073.548,176.427l-31.2-11.375,16.817-4.722,30.8,10.716Zm.011-.67,14.426-4.729-28.841-10.034-14.732,4.136Z" transform="translate(-1042.347 -160.329)" fill="#19b24b"/>
      </g>
      <g id="_47" data-name="47" transform="translate(308.516 27.504)" opacity="0.5">
        <path id="Path_2594" data-name="Path 2594" d="M1008.16,102.557l22.481,8.152,18.4-4.977-23.659-7.821Z" transform="translate(-1008.16 -97.91)" fill="rgba(0,117,60,0.75)" opacity="0.4"/>
        <path id="Path_2655" data-name="Path 2655" d="M1025.386,97.907l23.659,7.821-18.4,4.977-22.48-8.151Zm-.018.661-15.105,4.075,20.4,7.4,16.174-4.374Z" transform="translate(-1008.16 -97.907)" fill="#19b24b"/>
      </g>
      <g id="_56" data-name="56" transform="translate(311.776 67.803)" opacity="0.5">
        <path id="Path_2626" data-name="Path 2626" d="M1019.766,247.669,1048.13,259.3l7.657.431,15.42-5.655-32.2-12.71Z" transform="translate(-1019.766 -241.361)" fill="rgba(111,6,1,0.8)"/>
        <path id="Path_2687" data-name="Path 2687" d="M1039.011,241.362l32.2,12.71-15.42,5.655-7.657-.432-28.364-11.626Zm-.02.673-17.392,5.7,26.673,10.933,7.42.419,13.735-5.038Z" transform="translate(-1019.766 -241.362)" fill="#c8220b"/>
      </g>
      <g id="_35" data-name="35" transform="translate(347.464 107.279)">
        <path id="Path_2525" data-name="Path 2525" d="M1175.487,384.889h-4.527l-16.928,7.631,47.6,22.059,18.708-9.786Z" transform="translate(-1152 -384.044)" fill="rgba(0,117,60,0.75)"/>
        <path id="Path_2584" data-name="Path 2584" d="M1170.465,381.882h-4.888l-18.779,8.465,49.659,23.011,20.626-10.79Zm25.97,30.535-47.6-22.059,16.928-7.631h4.529l44.856,19.9Z" transform="translate(-1146.798 -381.882)" fill="#19b24b"/>
        <g id="Group_1927" data-name="Group 1927" transform="translate(30.42 10.293)">
          <path id="Path_2782" data-name="Path 2782" d="M1260.713,424.218a2.026,2.026,0,0,1-.485,1.386,2.442,2.442,0,0,1-1.365.745v.048a2.645,2.645,0,0,1,1.58.656,1.875,1.875,0,0,1,.527,1.393,2.314,2.314,0,0,1-.892,1.949,4.1,4.1,0,0,1-2.539.685,5.719,5.719,0,0,1-2.455-.473v-1.252a5.551,5.551,0,0,0,1.181.425,5.1,5.1,0,0,0,1.2.15,2.525,2.525,0,0,0,1.521-.377,1.363,1.363,0,0,0,.5-1.167,1.111,1.111,0,0,0-.557-1.03,3.564,3.564,0,0,0-1.749-.329h-.76v-1.144h.772q2.1,0,2.1-1.449a1.069,1.069,0,0,0-.366-.868,1.645,1.645,0,0,0-1.078-.305,3.246,3.246,0,0,0-.958.141,4.548,4.548,0,0,0-1.09.548l-.688-.982a4.591,4.591,0,0,1,2.8-.886,3.327,3.327,0,0,1,2.066.569A1.866,1.866,0,0,1,1260.713,424.218Z" transform="translate(-1255.083 -422.08)" fill="#fff"/>
          <path id="Path_2783" data-name="Path 2783" d="M1272.541,425.624a3,3,0,0,1,2.1.7,2.452,2.452,0,0,1,.773,1.91,2.789,2.789,0,0,1-.878,2.189,3.608,3.608,0,0,1-2.494.787,4.715,4.715,0,0,1-2.306-.473v-1.275a4.224,4.224,0,0,0,1.114.425,5.042,5.042,0,0,0,1.168.149,2.171,2.171,0,0,0,1.449-.425,1.547,1.547,0,0,0,.5-1.246q0-1.569-2-1.569a5.273,5.273,0,0,0-.694.057q-.414.057-.725.129l-.628-.371.335-4.276h4.551v1.251h-3.311l-.2,2.168.513-.084A4.9,4.9,0,0,1,1272.541,425.624Z" transform="translate(-1262.546 -422.21)" fill="#fff"/>
        </g>
      </g>
      <g id="_54" data-name="54" transform="translate(336.005 40.405)" opacity="0.5">
        <path id="Path_2619" data-name="Path 2619" d="M1151.859,153.9l-30.409-10.067-15.44,4.334,30.726,10.69Z" transform="translate(-1106.01 -143.833)" fill="rgba(0,117,60,0.75)" opacity="0.4"/>
        <path id="Path_2680" data-name="Path 2680" d="M1136.734,158.858l-30.725-10.69,15.438-4.335,30.409,10.067Zm.006-.669,13.092-4.292-28.4-9.4-13.31,3.737Z" transform="translate(-1106.009 -143.833)" fill="#19b24b"/>
      </g>
      <g id="_57" data-name="57" transform="translate(331.965 61.807)" opacity="0.5">
        <path id="Path_2622" data-name="Path 2622" d="M1091.624,225.7l32.149,12.693,17.75-6.51-32.553-11.869Z" transform="translate(-1091.624 -220.016)" fill="rgba(111,6,1,0.8)"/>
        <path id="Path_2683" data-name="Path 2683" d="M1108.97,220.018l32.552,11.869-17.75,6.51L1091.624,225.7Zm-.011.671-15.471,5.072,30.292,11.959,15.9-5.831Z" transform="translate(-1091.624 -220.018)" fill="#c8220b"/>
      </g>
      <g id="_55" data-name="55" transform="translate(352.534 36.07)" opacity="0.5">
        <path id="Path_2618" data-name="Path 2618" d="M1209.235,137.864l-30.047-9.462-14.343,4.031,30.331,10.041Z" transform="translate(-1164.846 -128.402)" fill="rgba(0,117,60,0.75)" opacity="0.4"/>
        <path id="Path_2679" data-name="Path 2679" d="M1195.179,142.477l-30.332-10.041,14.342-4.027,30.046,9.46Zm0-.667,11.985-3.929-27.985-8.811-12.166,3.416Z" transform="translate(-1164.847 -128.406)" fill="#19b24b"/>
      </g>
      <g id="_34" data-name="34" transform="translate(323.021 116.341)">
        <path id="Path_2524" data-name="Path 2524" d="M1082.959,417.422l-21.14,8.695,47.866,24.19,20.683-10.642Zm-23.169,8.616h0l49.9,25.217,22.594-11.625-22.594,11.625Z" transform="translate(-1059.79 -416.5)" fill="rgba(0,117,60,0.75)"/>
        <path id="Path_2583" data-name="Path 2583" d="M1082.981,414.139l-23.191,9.538,49.9,25.217,22.594-11.625Zm26.7,33.807-47.866-24.19,21.14-8.695,47.409,22.243Z" transform="translate(-1059.79 -414.139)" fill="#19b24b"/>
        <g id="Group_1928" data-name="Group 1928" transform="translate(31.244 11.576)">
          <path id="Path_2784" data-name="Path 2784" d="M1187.315,464.6a2.031,2.031,0,0,1-.485,1.386,2.445,2.445,0,0,1-1.365.745v.048a2.642,2.642,0,0,1,1.58.656,1.878,1.878,0,0,1,.527,1.392,2.314,2.314,0,0,1-.892,1.949,4.1,4.1,0,0,1-2.54.686,5.705,5.705,0,0,1-2.454-.473v-1.251a5.585,5.585,0,0,0,1.178.425,5.127,5.127,0,0,0,1.2.15,2.528,2.528,0,0,0,1.521-.377,1.366,1.366,0,0,0,.5-1.167,1.112,1.112,0,0,0-.557-1.03,3.562,3.562,0,0,0-1.749-.329h-.76v-1.144h.772q2.095,0,2.1-1.449a1.068,1.068,0,0,0-.365-.868,1.642,1.642,0,0,0-1.078-.305,3.258,3.258,0,0,0-.958.141,4.478,4.478,0,0,0-1.089.547l-.689-.982a4.589,4.589,0,0,1,2.8-.886,3.328,3.328,0,0,1,2.065.569A1.87,1.87,0,0,1,1187.315,464.6Z" transform="translate(-1181.686 -462.463)" fill="#fff"/>
          <path id="Path_2785" data-name="Path 2785" d="M1201.933,469.538h-1.18v1.91h-1.372v-1.91h-4v-1.084l4-5.785h1.372v5.7h1.18Zm-2.552-1.168v-2.2q0-1.173.061-1.922h-.047a6.831,6.831,0,0,1-.527.958l-2.174,3.161Z" transform="translate(-1188.663 -462.568)" fill="#fff"/>
        </g>
      </g>
      <g id="_39" data-name="39" transform="translate(318.845 166.926)">
        <path id="Path_2520" data-name="Path 2520" d="M1072.289,594.2l-27.355,14.569,27.355-14.569Zm-.006.961-25.658,13.665,56.424,35.057,26.2-17.076Zm-27.349,13.608h0l58.123,36.116h0Z" transform="translate(-1044.934 -594.199)" fill="rgba(254,144,0,0.6)"/>
        <path id="Path_2576" data-name="Path 2576" d="M1072.288,594.2l-27.356,14.569,58.124,36.115,27.821-18.135-58.59-32.55m30.759,49.682-56.423-35.057,25.658-13.665,56.963,31.646Z" transform="translate(-1044.932 -594.199)" fill="#fe9000"/>
        <g id="Group_1935" data-name="Group 1935" transform="translate(35.417 18.256)">
          <path id="Path_2798" data-name="Path 2798" d="M1187.312,668.442a2.034,2.034,0,0,1-.485,1.387,2.448,2.448,0,0,1-1.365.745v.048a2.633,2.633,0,0,1,1.58.656,1.874,1.874,0,0,1,.528,1.391,2.316,2.316,0,0,1-.893,1.949,4.091,4.091,0,0,1-2.538.686,5.72,5.72,0,0,1-2.455-.473V673.58a5.6,5.6,0,0,0,1.179.425,5.125,5.125,0,0,0,1.2.15,2.521,2.521,0,0,0,1.52-.377,1.363,1.363,0,0,0,.5-1.167,1.113,1.113,0,0,0-.557-1.03,3.561,3.561,0,0,0-1.749-.33h-.76v-1.143h.772q2.1,0,2.1-1.449a1.069,1.069,0,0,0-.365-.869,1.643,1.643,0,0,0-1.077-.305,3.251,3.251,0,0,0-.959.141,4.526,4.526,0,0,0-1.089.548l-.689-.982a4.588,4.588,0,0,1,2.8-.887,3.328,3.328,0,0,1,2.065.569A1.869,1.869,0,0,1,1187.312,668.442Z" transform="translate(-1181.684 -666.305)" fill="#fff"/>
          <path id="Path_2799" data-name="Path 2799" d="M1201.9,670.18a6.016,6.016,0,0,1-1.042,3.862,3.813,3.813,0,0,1-3.136,1.275,4.8,4.8,0,0,1-1.144-.1v-1.179a3.953,3.953,0,0,0,1.071.15,2.744,2.744,0,0,0,2.127-.767,3.733,3.733,0,0,0,.766-2.406h-.072a2.131,2.131,0,0,1-.853.778,2.692,2.692,0,0,1-1.171.239,2.354,2.354,0,0,1-1.826-.724,2.828,2.828,0,0,1-.664-1.989,3.045,3.045,0,0,1,.769-2.182,2.754,2.754,0,0,1,2.1-.812,2.795,2.795,0,0,1,2.7,1.776A5.168,5.168,0,0,1,1201.9,670.18Zm-3.054-2.683a1.362,1.362,0,0,0-1.12.476,2.058,2.058,0,0,0-.39,1.338,1.761,1.761,0,0,0,.363,1.177,1.359,1.359,0,0,0,1.1.428,1.75,1.75,0,0,0,1.2-.425,1.286,1.286,0,0,0,.486-.995,2.441,2.441,0,0,0-.206-1,1.786,1.786,0,0,0-.579-.734A1.41,1.41,0,0,0,1198.845,667.5Z" transform="translate(-1188.954 -666.317)" fill="#fff"/>
        </g>
      </g>
      <g id="_38" data-name="38" transform="translate(348.667 152.521)">
        <path id="Path_2522" data-name="Path 2522" d="M1175.577,544.264l-24.984,13.155,24.985-13.154Zm.01.955-23.221,12.225,56.108,31.6,23.477-15.264Zm-24.994,12.2h0l57.912,32.615Z" transform="translate(-1150.592 -544.264)" fill="rgba(0,117,60,0.75)"/>
        <path id="Path_2579" data-name="Path 2579" d="M1175.577,544.264l-24.985,13.154,57.913,32.615,25.142-16.346-58.071-29.423m32.9,44.778-56.108-31.6,23.22-12.225,56.365,28.56Z" transform="translate(-1150.592 -544.264)" fill="#19b24b"/>
        <g id="Group_1934" data-name="Group 1934" transform="translate(34.217 15.435)">
          <path id="Path_2796" data-name="Path 2796" d="M1284.575,604.647a2.032,2.032,0,0,1-.484,1.387,2.449,2.449,0,0,1-1.366.745v.048a2.633,2.633,0,0,1,1.581.656,1.873,1.873,0,0,1,.527,1.392,2.313,2.313,0,0,1-.892,1.948,4.09,4.09,0,0,1-2.539.686,5.726,5.726,0,0,1-2.456-.473v-1.251a5.628,5.628,0,0,0,1.18.425,5.105,5.105,0,0,0,1.2.15,2.525,2.525,0,0,0,1.521-.378,1.363,1.363,0,0,0,.5-1.167,1.112,1.112,0,0,0-.557-1.03,3.564,3.564,0,0,0-1.749-.33h-.76v-1.143h.773q2.095,0,2.1-1.449a1.069,1.069,0,0,0-.367-.868,1.644,1.644,0,0,0-1.077-.305,3.269,3.269,0,0,0-.957.141,4.533,4.533,0,0,0-1.091.548l-.688-.982a4.594,4.594,0,0,1,2.8-.886,3.326,3.326,0,0,1,2.065.568A1.869,1.869,0,0,1,1284.575,604.647Z" transform="translate(-1278.946 -602.51)" fill="#fff"/>
          <path id="Path_2797" data-name="Path 2797" d="M1296.21,602.534a3.1,3.1,0,0,1,1.97.572,1.851,1.851,0,0,1,.725,1.53,2.408,2.408,0,0,1-1.617,2.144,4.146,4.146,0,0,1,1.464,1.084,2.04,2.04,0,0,1,.435,1.269,2.135,2.135,0,0,1-.8,1.736,3.3,3.3,0,0,1-2.156.653,3.519,3.519,0,0,1-2.208-.61,2.065,2.065,0,0,1-.785-1.732,2.233,2.233,0,0,1,.41-1.313,3.439,3.439,0,0,1,1.344-1.039,3.384,3.384,0,0,1-1.143-1.012,2.16,2.16,0,0,1-.342-1.2,1.805,1.805,0,0,1,.748-1.517A3.153,3.153,0,0,1,1296.21,602.534Zm-1.623,6.6a1.16,1.16,0,0,0,.438.967,1.864,1.864,0,0,0,1.185.345,1.824,1.824,0,0,0,1.2-.356,1.194,1.194,0,0,0,.428-.967,1.237,1.237,0,0,0-.395-.886,3.74,3.74,0,0,0-1.2-.743l-.174-.077a3.071,3.071,0,0,0-1.138.763A1.447,1.447,0,0,0,1294.588,609.133Zm1.611-5.515a1.481,1.481,0,0,0-.964.3.981.981,0,0,0-.365.805,1.152,1.152,0,0,0,.132.557,1.46,1.46,0,0,0,.383.447,4.622,4.622,0,0,0,.85.482,2.826,2.826,0,0,0,1.016-.668,1.227,1.227,0,0,0,.3-.817.98.98,0,0,0-.369-.805A1.518,1.518,0,0,0,1296.2,603.618Z" transform="translate(-1286.23 -602.522)" fill="#fff"/>
        </g>
      </g>
    </g>
  </g>
</svg>
