<svg width="24" height="24" viewBox="0 0 24 24" fill="none" xmlns="http://www.w3.org/2000/svg">
<path d="M22.0014 19.9201V16.9201C22.0136 16.4297 21.8451 15.9519 21.5279 15.5776C21.2108 15.2033 20.7672 14.9586 20.2814 14.8901C19.3213 14.7635 18.3787 14.5286 17.4714 14.1901C17.1135 14.0556 16.7245 14.0264 16.3505 14.1062C15.9766 14.1859 15.6333 14.3712 15.3614 14.6401L14.0914 15.9101C11.5879 14.4865 9.51495 12.4136 8.0914 9.9101L9.3614 8.6401C9.63026 8.36821 9.81555 8.02494 9.8953 7.65098C9.97506 7.27701 9.94594 6.88802 9.8114 6.5301C9.47285 5.62282 9.23802 4.68016 9.1114 3.7201C9.04348 3.23954 8.80313 2.80008 8.43516 2.48363C8.06719 2.16718 7.5967 1.99532 7.1114 2.0001H4.1114C3.83374 2.00036 3.55918 2.05843 3.30519 2.17062C3.0512 2.28281 2.82336 2.44665 2.63616 2.65172C2.44897 2.85679 2.30652 3.09859 2.2179 3.36172C2.12927 3.62486 2.09641 3.90356 2.1214 4.1801C2.44964 7.27109 3.50138 10.2413 5.1914 12.8501C6.72673 15.2663 8.77523 17.3148 11.1914 18.8501C13.7884 20.5342 16.7442 21.5857 19.8214 21.9201C20.0988 21.9452 20.3783 21.912 20.6421 21.8228C20.906 21.7336 21.1483 21.5902 21.3535 21.402C21.5587 21.2137 21.7223 20.9846 21.8339 20.7294C21.9455 20.4743 22.0025 20.1986 22.0014 19.9201Z" stroke="#B79763" stroke-width="2" stroke-linecap="round" stroke-linejoin="round"/>
</svg>
