<svg width="85" height="85" viewBox="0 0 85 85" fill="none" xmlns="http://www.w3.org/2000/svg">
<path d="M34.2143 51C32.6429 51 31.381 50.5037 30.4286 49.5112C29.4762 48.4714 29 47.1007 29 45.3993C29 42.3271 30 39.704 32 37.5299C34 35.3085 36.4524 33.4652 39.3571 32L40.3571 33.4179C39.1667 34.1741 38.0476 35.1194 37 36.2537C35.9524 37.3408 35.1429 38.546 34.5714 39.8694L36.5 41.2873C37.2619 41.8545 37.881 42.5634 38.3571 43.4142C38.8333 44.2177 39.0714 45.0211 39.0714 45.8246C39.0714 47.2898 38.5952 48.5187 37.6429 49.5112C36.7381 50.5037 35.5952 51 34.2143 51ZM48.8571 51C47.2857 51 46.0238 50.5037 45.0714 49.5112C44.119 48.4714 43.6429 47.1007 43.6429 45.3993C43.6429 42.3271 44.6429 39.704 46.6429 37.5299C48.6429 35.3085 51.0952 33.4652 54 32L55 33.4179C53.8095 34.1741 52.6905 35.1194 51.6429 36.2537C50.5952 37.3408 49.7857 38.546 49.2143 39.8694L51.1429 41.2873C51.9048 41.8545 52.5238 42.5634 53 43.4142C53.4762 44.2177 53.7143 45.0211 53.7143 45.8246C53.7143 47.2898 53.2381 48.5187 52.2857 49.5112C51.381 50.5037 50.2381 51 48.8571 51Z" fill="#B79763"/>
<g clip-path="url(#clip0_720_17112)">
<path d="M42.4906 85.0004C42.2944 85.001 42.1005 84.958 41.923 84.8743C41.7455 84.7906 41.5888 84.6684 41.4644 84.5166C40.6781 83.561 39.6441 83.2464 38.5589 82.9161C37.2418 82.5228 35.7556 82.0587 34.8945 80.3402C33.889 81.1725 32.6258 81.6298 31.3206 81.634C28.0534 81.7441 24.8136 80.1318 21.6722 78.5705C18.7706 77.1311 15.7746 75.6407 12.9241 75.6407C12.2415 75.6391 11.5618 75.729 10.9031 75.9081C10.6506 75.9792 10.3837 75.9817 10.1298 75.9155C9.87595 75.8493 9.64428 75.7167 9.45857 75.5314C9.27286 75.346 9.13981 75.1146 9.07308 74.8608C9.00634 74.607 9.00833 74.34 9.07884 74.0873C10.0382 70.6108 8.29248 67.0675 6.41705 63.3158C4.84436 60.1697 3.24806 56.9253 3.35815 53.6651C3.36235 52.3596 3.81958 51.0961 4.65171 50.0903C2.92961 49.2291 2.47744 47.7308 2.07641 46.4251C1.74614 45.3397 1.43157 44.3133 0.472231 43.5189C0.321952 43.3934 0.201081 43.2364 0.118126 43.059C0.03517 42.8817 -0.0078125 42.6883 -0.0078125 42.4925C-0.0078125 42.2967 0.03517 42.1032 0.118126 41.9259C0.201081 41.7485 0.321952 41.5916 0.472231 41.4661C1.43157 40.6795 1.74614 39.6453 2.07641 38.5559C2.46958 37.2424 2.93354 35.7519 4.65171 34.8946C3.82016 33.8885 3.36301 32.6252 3.35815 31.3198C3.24806 28.0597 4.86008 24.8074 6.41705 21.6692C8.28069 17.9135 10.0382 14.3702 9.07884 10.8977C9.00876 10.6448 9.00703 10.3779 9.07384 10.1241C9.14066 9.87034 9.27364 9.63887 9.45915 9.45331C9.64465 9.26776 9.87603 9.13478 10.1297 9.06795C10.3834 9.00112 10.6503 9.00283 10.9031 9.07292C11.5618 9.25196 12.2415 9.34192 12.9241 9.34036C15.7667 9.34036 18.7706 7.85382 21.6722 6.41054C24.8176 4.83748 28.0612 3.26442 31.3206 3.35093C32.6258 3.35514 33.889 3.81247 34.8945 4.64479C35.7556 2.92229 37.2536 2.47002 38.555 2.06889C39.6441 1.73855 40.6702 1.42396 41.4644 0.464392C41.5925 0.318202 41.7503 0.201047 41.9273 0.12079C42.1043 0.0405333 42.2963 -0.000976562 42.4906 -0.000976562C42.685 -0.000976562 42.877 0.0405333 43.054 0.12079C43.231 0.201047 43.3888 0.318202 43.5169 0.464392C44.3032 1.42396 45.3372 1.73855 46.4263 2.06889C47.7395 2.46215 49.2297 2.92229 50.0868 4.64479C51.0923 3.81247 52.3555 3.35514 53.6606 3.35093C56.9161 3.24082 60.1677 4.85321 63.3091 6.41054C66.2107 7.85382 69.2067 9.34429 72.0572 9.34036C72.7398 9.34192 73.4195 9.25196 74.0782 9.07292C74.332 9.00464 74.5993 9.00508 74.8528 9.07419C75.1064 9.14329 75.337 9.27857 75.5211 9.46618C75.7104 9.6491 75.8469 9.87976 75.9161 10.1338C75.9853 10.3878 75.9846 10.6558 75.9143 10.9095C74.9588 14.382 76.7006 17.9292 78.58 21.681C80.1527 24.8271 81.749 28.0715 81.6389 31.3317C81.634 32.637 81.1769 33.9003 80.3453 34.9064C82.0635 35.7637 82.5196 37.266 82.9206 38.5677C83.2509 39.6571 83.5654 40.6835 84.5247 41.4779C84.6756 41.603 84.7971 41.7598 84.8804 41.9372C84.9638 42.1146 85.007 42.3083 85.007 42.5043C85.007 42.7003 84.9638 42.8939 84.8804 43.0713C84.7971 43.2488 84.6756 43.4056 84.5247 43.5307C83.5693 44.3172 83.2548 45.3515 82.9246 46.4369C82.5314 47.7544 82.0674 49.2409 80.3493 50.1021C81.1808 51.1082 81.638 52.3715 81.6428 53.6769C81.7529 56.937 80.1409 60.1854 78.5839 63.3276C76.7203 67.0793 74.9628 70.6226 75.9221 74.0991C75.9913 74.3517 75.9924 74.6181 75.9252 74.8713C75.858 75.1245 75.7249 75.3553 75.5395 75.5403C75.3541 75.7253 75.123 75.8579 74.8698 75.9246C74.6166 75.9913 74.3502 75.9897 74.0978 75.9199C73.4391 75.7409 72.7594 75.6509 72.0769 75.6525C69.2343 75.6525 66.2304 77.143 63.3288 78.5823C60.1834 80.1554 56.9358 81.752 53.6803 81.6458C52.3744 81.6421 51.1106 81.1832 50.1064 80.3481C49.2493 82.0705 47.7474 82.5267 46.4421 82.9278C45.3569 83.2582 44.3307 83.5728 43.5364 84.5285C43.4088 84.6807 43.2485 84.8022 43.0674 84.8839C42.8864 84.9656 42.6892 85.0054 42.4906 85.0004ZM34.9063 78.9087C34.9975 78.9081 35.0884 78.9174 35.1776 78.9362C35.38 78.976 35.5704 79.0624 35.7336 79.1887C35.8967 79.315 36.0281 79.4777 36.1173 79.6638C36.7071 80.8947 37.69 81.1975 38.9639 81.5829C40.1238 81.9368 41.437 82.338 42.5025 83.5728C43.5562 82.338 44.8615 81.9368 46.041 81.5829C47.3031 81.1896 48.2978 80.8947 48.8876 79.6638C48.9777 79.479 49.1091 79.3174 49.2716 79.1915C49.4341 79.0656 49.6234 78.9788 49.8248 78.9377C50.0262 78.8967 50.2344 78.9025 50.4332 78.9547C50.632 79.007 50.8162 79.1042 50.9714 79.239C51.7391 79.8923 52.7157 80.2481 53.7236 80.2419C56.6292 80.3441 59.7194 78.8064 62.7076 77.3238C65.6957 75.8412 68.9001 74.2485 72.073 74.2485C72.8805 74.246 73.6847 74.3531 74.4635 74.567L75.0454 75.0351L74.55 74.5435C74.5627 74.5336 74.5719 74.5198 74.5762 74.5042C74.5804 74.4886 74.5795 74.472 74.5736 74.457C73.4727 70.4693 75.4346 66.517 77.3258 62.6944C78.8749 59.5719 80.3414 56.6225 80.2431 53.7123C80.2491 52.7049 79.8949 51.7286 79.2444 50.9595C79.108 50.8051 79.0092 50.6212 78.9558 50.4222C78.9024 50.2233 78.8958 50.0146 78.9366 49.8127C78.9773 49.6107 79.0644 49.4209 79.1908 49.2583C79.3172 49.0956 79.4795 48.9645 79.6651 48.8751C80.8958 48.2853 81.1985 47.3021 81.5838 46.0279C81.9376 44.8678 82.3387 43.5543 83.5733 42.4885C82.3387 41.4346 81.9376 40.129 81.5838 38.9492C81.1906 37.6868 80.8958 36.6879 79.6691 36.1019C79.4825 36.013 79.3193 35.8817 79.1923 35.7185C79.0653 35.5553 78.9782 35.3648 78.9377 35.162C78.895 34.96 78.9005 34.7507 78.9538 34.5512C79.007 34.3517 79.1067 34.1675 79.2444 34.0137C79.8961 33.2453 80.2505 32.2685 80.2431 31.2609C80.3414 28.3507 78.8749 25.4012 77.3258 22.2748C75.4307 18.4523 73.4688 14.5 74.5736 10.5162C74.5798 10.5006 74.5809 10.4834 74.5766 10.4671C74.5724 10.4508 74.563 10.4363 74.55 10.4257H74.4635C73.6847 10.6397 72.8805 10.7468 72.073 10.7443C68.9001 10.7443 65.7507 9.17125 62.7076 7.66899C59.6644 6.16672 56.6488 4.6487 53.7236 4.75095C52.7165 4.74497 51.7404 5.09925 50.9714 5.74986C50.8187 5.88815 50.6353 5.9881 50.4364 6.04144C50.2374 6.09479 50.0286 6.09997 49.8272 6.05659C49.6239 6.01764 49.4328 5.93104 49.2694 5.80389C49.1061 5.67674 48.9752 5.51266 48.8876 5.32513C48.2978 4.09814 47.3149 3.79533 46.041 3.40993C44.8811 3.056 43.5679 2.65486 42.5025 1.41608C41.4487 2.65486 40.1434 3.056 38.9639 3.40993C37.7018 3.8032 36.7071 4.09814 36.1173 5.32513C36.0293 5.51164 35.8987 5.67495 35.7363 5.80197C35.5738 5.92899 35.3838 6.01618 35.1815 6.05659C34.9796 6.1003 34.7701 6.09529 34.5705 6.04195C34.3708 5.98861 34.1868 5.88848 34.0335 5.74986C33.2645 5.09925 32.2884 4.74497 31.2813 4.75095C28.36 4.6487 25.2854 6.18638 22.2973 7.66899C19.3091 9.15159 16.1009 10.7443 12.9319 10.7443C12.1244 10.7468 11.3202 10.6397 10.5414 10.4257H10.4549C10.4419 10.4363 10.4325 10.4508 10.4283 10.4671C10.424 10.4834 10.4251 10.5006 10.4313 10.5162C11.5322 14.5 9.57028 18.4523 7.67912 22.2748C6.13002 25.4209 4.66351 28.3507 4.76181 31.2609C4.75582 32.2682 5.11003 33.2446 5.76048 34.0137C5.89677 34.1683 5.99531 34.3525 6.04845 34.5516C6.10158 34.7508 6.10784 34.9596 6.06669 35.1616C6.02554 35.3635 5.93807 35.5532 5.81126 35.7157C5.68444 35.8782 5.52173 36.0091 5.33582 36.098C4.10912 36.684 3.80634 37.6711 3.42103 38.9452C3.06717 40.1054 2.66621 41.4189 1.43165 42.4846C2.66621 43.5386 3.06717 44.8442 3.42103 46.024C3.8142 47.2864 4.10912 48.2813 5.33582 48.8712C5.52173 48.9602 5.68444 49.091 5.81126 49.2535C5.93807 49.416 6.02554 49.6057 6.06669 49.8077C6.10784 50.0096 6.10158 50.2185 6.04845 50.4176C5.99531 50.6168 5.89677 50.8009 5.76048 50.9555C5.10942 51.7243 4.75513 52.7009 4.76181 53.7084C4.66351 56.6185 6.13002 59.568 7.67912 62.6905C9.57421 66.513 11.5361 70.4653 10.4313 74.453C10.4254 74.4681 10.4245 74.4846 10.4287 74.5002C10.433 74.5158 10.4422 74.5296 10.4549 74.5395L10.5414 74.5631C11.3202 74.3492 12.1244 74.2421 12.9319 74.2446C16.1009 74.2446 19.2541 75.8176 22.2973 77.3199C25.3404 78.8222 28.3639 80.3441 31.2813 80.2379C32.2884 80.2439 33.2645 79.8896 34.0335 79.239C34.2754 79.0226 34.5897 78.9048 34.9142 78.9087H34.9063Z" fill="#B79763"/>
<path fill-rule="evenodd" clip-rule="evenodd" d="M42.4915 18.1411C36.859 18.1404 31.4006 20.0931 27.0462 23.6666C22.6918 27.24 19.7109 32.2131 18.6114 37.7385C17.5119 43.2638 18.3618 48.9996 21.0163 53.9684C23.6708 58.9372 27.9658 62.8317 33.1692 64.9882C38.3727 67.1448 44.1627 67.4299 49.5528 65.7951C54.9429 64.1603 59.5995 60.7066 62.7292 56.0227C65.8589 51.3387 67.268 45.7142 66.7165 40.1076C66.165 34.5009 63.6869 29.2589 59.7046 25.2749C57.4467 23.0103 54.7636 21.2143 51.8096 19.9901C48.8556 18.7658 45.689 18.1374 42.4915 18.1411ZM24.2404 24.2367C28.4627 20.0142 34.0181 17.3867 39.96 16.8019C45.902 16.217 51.8629 17.711 56.8271 21.0292C61.7913 24.3474 65.4517 29.2846 67.1845 34.9996C68.9174 40.7146 68.6155 46.8537 66.3304 52.3711C64.0453 57.8884 59.9184 62.4426 54.6526 65.2577C49.3869 68.0727 43.3082 68.9745 37.4523 67.8094C31.5964 66.6442 26.3256 63.4842 22.5378 58.8677C18.7501 54.2513 16.6798 48.464 16.6797 42.492C16.6764 39.1004 17.3433 35.7416 18.6422 32.6087C19.9411 29.4758 21.8463 26.6306 24.2483 24.2367H24.2404Z" fill="#B79763"/>
<path fill-rule="evenodd" clip-rule="evenodd" d="M12.127 40.6635C11.2503 40.4668 10.3775 40.2702 9.50068 40.1129C8.6239 39.9556 7.73138 39.7943 6.82315 39.6606C6.75326 39.6446 6.69236 39.602 6.65344 39.5418C6.61452 39.4815 6.60065 39.4085 6.61475 39.3382C6.62044 39.2734 6.6495 39.2129 6.69654 39.168C6.74358 39.1232 6.80533 39.097 6.87028 39.0943C7.7903 39.1179 8.69073 39.1179 9.58716 39.0943C10.4836 39.0708 11.3721 39.0472 12.2685 39.0039C12.8856 39.0554 13.4861 39.2305 14.034 39.5191C14.3184 39.6446 14.6098 39.7536 14.9068 39.8455C14.9367 39.8519 14.9649 39.8643 14.9898 39.882C15.0147 39.8998 15.0357 39.9224 15.0516 39.9486C15.0674 39.9747 15.0777 40.0038 15.0819 40.0341C15.0861 40.0644 15.084 40.0952 15.0758 40.1247C15.0594 40.1675 15.031 40.2047 14.9941 40.2319C14.9571 40.2591 14.9132 40.2751 14.8674 40.2781C14.5605 40.3192 14.256 40.377 13.9553 40.4511C13.3664 40.6447 12.7445 40.7169 12.127 40.6635Z" fill="#B79763"/>
<path fill-rule="evenodd" clip-rule="evenodd" d="M12.8965 35.4136C12.0708 35.0715 11.2451 34.7372 10.4076 34.4187C9.57019 34.1001 8.72093 33.7934 7.84809 33.5024C7.78805 33.4723 7.74026 33.4223 7.71284 33.361C7.68542 33.2997 7.68008 33.2308 7.69767 33.166C7.71526 33.1011 7.75475 33.0444 7.8094 33.0053C7.86406 32.9663 7.93053 32.9474 7.99754 32.9518C8.89791 33.1366 9.78649 33.2939 10.6672 33.4355C11.5479 33.5771 12.4325 33.699 13.3251 33.8288C13.9231 33.987 14.4833 34.2639 14.9724 34.6428C15.2248 34.817 15.4874 34.9759 15.7588 35.1187C15.7866 35.1306 15.8116 35.1479 15.8325 35.1698C15.8534 35.1916 15.8697 35.2175 15.8804 35.2458C15.891 35.274 15.8958 35.3042 15.8945 35.3344C15.8932 35.3646 15.8858 35.3942 15.8728 35.4215C15.8494 35.461 15.815 35.4929 15.7738 35.5131C15.7326 35.5334 15.6864 35.5412 15.6408 35.5355C15.3317 35.5181 15.022 35.5181 14.713 35.5355C14.1054 35.6162 13.4878 35.5748 12.8965 35.4136Z" fill="#B79763"/>
<path fill-rule="evenodd" clip-rule="evenodd" d="M14.5738 30.3834C13.815 29.8997 13.064 29.4238 12.2934 28.9637C11.5228 28.5036 10.7443 28.0553 9.93438 27.6148C9.88179 27.5746 9.84449 27.5175 9.8287 27.4532C9.81291 27.3888 9.81955 27.321 9.84751 27.2609C9.87548 27.2009 9.92317 27.1522 9.98257 27.1228C10.042 27.0935 10.1096 27.0853 10.1743 27.0997C11.0274 27.4379 11.8728 27.7486 12.722 28.0435C13.5713 28.3385 14.4126 28.6137 15.2698 28.8812C15.8313 29.1402 16.3343 29.5108 16.7481 29.9705C16.9733 30.1873 17.2109 30.3908 17.4598 30.58C17.4855 30.5962 17.5077 30.6176 17.5247 30.6428C17.5418 30.668 17.5535 30.6965 17.559 30.7264C17.5646 30.7563 17.5638 30.7871 17.5569 30.8167C17.55 30.8463 17.537 30.8742 17.5187 30.8986C17.4893 30.9328 17.4506 30.9577 17.4074 30.9703C17.3641 30.9829 17.3181 30.9826 17.275 30.9694C16.9712 30.9031 16.6641 30.8532 16.3549 30.8199C15.738 30.795 15.1324 30.6466 14.5738 30.3834Z" fill="#B79763"/>
<path fill-rule="evenodd" clip-rule="evenodd" d="M17.1021 25.7194C16.4415 25.1099 15.7811 24.5121 15.1048 23.9262C14.4285 23.3402 13.7405 22.7464 13.017 22.1879C12.9625 22.1383 12.9298 22.0691 12.9261 21.9954C12.9224 21.9217 12.948 21.8495 12.9974 21.7947C13.0349 21.7409 13.0908 21.7027 13.1546 21.6875C13.2184 21.6723 13.2856 21.681 13.3434 21.7121C14.1297 22.1958 14.9161 22.648 15.7024 23.0846C16.4888 23.5211 17.2751 23.938 18.0615 24.3509C18.571 24.7043 19.0031 25.1579 19.3314 25.6841C19.5153 25.9341 19.7122 26.1743 19.9212 26.4037C19.9429 26.425 19.9601 26.4504 19.9719 26.4784C19.9838 26.5064 19.9899 26.5365 19.9899 26.5669C19.9899 26.5973 19.9838 26.6275 19.9719 26.6555C19.9601 26.6835 19.9429 26.7089 19.9212 26.7301C19.8856 26.7585 19.8426 26.7762 19.7973 26.781C19.7521 26.7859 19.7064 26.7778 19.6655 26.7577C19.4021 26.6436 19.0955 26.5453 18.7848 26.447C18.1803 26.3213 17.6078 26.0738 17.1021 25.7194Z" fill="#B79763"/>
<path fill-rule="evenodd" clip-rule="evenodd" d="M20.4042 21.5625C19.8537 20.8468 19.3112 20.1507 18.7489 19.4546C18.1867 18.7585 17.6008 18.0703 16.9914 17.3821C16.9683 17.3535 16.9512 17.3206 16.9409 17.2853C16.9306 17.25 16.9273 17.213 16.9314 17.1765C16.9354 17.14 16.9466 17.1046 16.9643 17.0724C16.982 17.0402 17.0059 17.0118 17.0346 16.9889C17.0817 16.9426 17.144 16.9152 17.2098 16.9115C17.2757 16.9079 17.3406 16.9284 17.3924 16.9692C18.0805 17.5788 18.7685 18.149 19.4644 18.7232C20.1603 19.2973 20.8563 19.8321 21.5758 20.3788C22.0135 20.8175 22.3596 21.3388 22.5941 21.9125C22.7435 22.1996 22.8929 22.4867 23.0502 22.7266C23.0694 22.7502 23.0834 22.7776 23.0913 22.8071C23.0992 22.8365 23.1007 22.8672 23.0959 22.8973C23.0911 22.9274 23.0799 22.9561 23.0633 22.9815C23.0466 23.007 23.0247 23.0287 22.999 23.0451C22.9611 23.0702 22.9167 23.0835 22.8713 23.0835C22.8259 23.0835 22.7814 23.0702 22.7435 23.0451C22.4816 22.8792 22.2112 22.727 21.9336 22.5889C21.3593 22.3544 20.8389 22.0051 20.4042 21.5625Z" fill="#B79763"/>
<path fill-rule="evenodd" clip-rule="evenodd" d="M24.373 18.0544C23.9602 17.2679 23.5434 16.4813 23.107 15.6948C22.6706 14.9083 22.2184 14.1218 21.7348 13.3352C21.7013 13.2721 21.694 13.1982 21.7147 13.1297C21.7353 13.0612 21.7821 13.0036 21.8449 12.9695C21.8993 12.932 21.9654 12.9153 22.0311 12.9225C22.0968 12.9298 22.1577 12.9604 22.2027 13.0088C22.7728 13.7324 23.3508 14.4206 23.9406 15.097C24.5303 15.7735 25.1201 16.4341 25.7295 17.0948C26.0879 17.5997 26.3394 18.1725 26.4686 18.778C26.5669 19.0887 26.6652 19.3954 26.7793 19.6589C26.7932 19.6859 26.8015 19.7154 26.8036 19.7457C26.8058 19.7759 26.8018 19.8063 26.7918 19.835C26.7819 19.8637 26.7663 19.8901 26.7458 19.9125C26.7254 19.935 26.7007 19.9531 26.6731 19.9656C26.6301 19.9796 26.584 19.9811 26.5401 19.9699C26.4963 19.9588 26.4565 19.9355 26.4253 19.9027C26.1961 19.6948 25.9559 19.4992 25.7059 19.3168C25.1807 18.9907 24.7271 18.5612 24.373 18.0544Z" fill="#B79763"/>
<path fill-rule="evenodd" clip-rule="evenodd" d="M28.8908 15.2625C28.6235 14.4052 28.3483 13.5597 28.0534 12.7142C27.7585 11.8686 27.4518 11.0192 27.1097 10.1658C27.0886 10.097 27.0954 10.0226 27.1285 9.95865C27.1615 9.89469 27.2184 9.84623 27.2867 9.82368C27.346 9.79608 27.4133 9.79083 27.4761 9.80889C27.539 9.82696 27.5932 9.86712 27.6287 9.922C28.0652 10.7321 28.5134 11.4951 28.9773 12.2816C29.4412 13.0681 29.9092 13.8035 30.3928 14.5625C30.6582 15.1217 30.8067 15.7293 30.8292 16.3479C30.8618 16.6575 30.913 16.9648 30.9825 17.2682C30.9915 17.2971 30.9945 17.3275 30.9914 17.3576C30.9882 17.3877 30.9791 17.4169 30.9644 17.4433C30.9497 17.4698 30.9297 17.493 30.9058 17.5115C30.8819 17.5301 30.8546 17.5436 30.8253 17.5513C30.7803 17.5589 30.734 17.5533 30.6922 17.5351C30.6503 17.517 30.6146 17.4871 30.5894 17.4491C30.3989 17.2024 30.1955 16.9661 29.9799 16.7412C29.5224 16.3254 29.1522 15.8228 28.8908 15.2625Z" fill="#B79763"/>
<path fill-rule="evenodd" clip-rule="evenodd" d="M33.8399 13.312C33.7219 12.4193 33.6 11.5384 33.4467 10.6535C33.2934 9.76869 33.1479 8.88385 32.9631 7.98328C32.9541 7.91198 32.9733 7.83998 33.0167 7.78266C33.06 7.72535 33.1241 7.68725 33.1951 7.67652C33.2583 7.65919 33.3255 7.66565 33.3842 7.69464C33.4429 7.72364 33.4889 7.77316 33.5135 7.83384C33.8045 8.70688 34.1112 9.55633 34.4296 10.394C34.7481 11.2316 35.0823 12.0535 35.4244 12.8833C35.5888 13.481 35.629 14.1061 35.5423 14.7199C35.5423 15.0424 35.5148 15.3609 35.5423 15.6519C35.5468 15.6818 35.5449 15.7122 35.5371 15.7414C35.5292 15.7705 35.5155 15.7977 35.4967 15.8213C35.4779 15.8449 35.4545 15.8644 35.4278 15.8786C35.4012 15.8927 35.3719 15.9012 35.3418 15.9036C35.296 15.9031 35.2513 15.8895 35.213 15.8644C35.1747 15.8393 35.1443 15.8038 35.1256 15.762C34.982 15.4918 34.8246 15.2293 34.6538 14.9755C34.2707 14.4831 33.9935 13.9167 33.8399 13.312Z" fill="#B79763"/>
<path fill-rule="evenodd" clip-rule="evenodd" d="M39.0156 12.2538C39.0576 11.3572 39.0877 10.4631 39.106 9.57175C39.106 8.67511 39.106 7.77454 39.106 6.85431C39.1143 6.78844 39.1449 6.72738 39.1926 6.68127C39.2404 6.63516 39.3025 6.60676 39.3686 6.60079C39.4347 6.59482 39.5008 6.61165 39.556 6.64846C39.6113 6.68527 39.6523 6.73986 39.6723 6.80318C39.806 7.71555 39.9593 8.60433 40.1283 9.48524C40.2974 10.3662 40.4782 11.2353 40.6748 12.1083C40.7331 12.7254 40.6636 13.348 40.4704 13.937C40.3967 14.2392 40.3389 14.545 40.2974 14.8533C40.2959 14.8836 40.2884 14.9133 40.2753 14.9407C40.2622 14.9681 40.2437 14.9925 40.221 15.0127C40.1983 15.0328 40.1718 15.0482 40.143 15.058C40.1143 15.0678 40.0839 15.0717 40.0537 15.0696C40.0086 15.0607 39.9671 15.0388 39.9342 15.0067C39.9014 14.9746 39.8787 14.9336 39.8689 14.8887C39.7739 14.5922 39.6636 14.3008 39.5386 14.0156C39.2475 13.4695 39.0696 12.8703 39.0156 12.2538Z" fill="#B79763"/>
<path fill-rule="evenodd" clip-rule="evenodd" d="M40.6671 72.8719C40.4744 73.7489 40.2739 74.618 40.1205 75.4989C39.9672 76.3798 39.7982 77.2686 39.6645 78.177C39.6485 78.2469 39.6058 78.3078 39.5455 78.3467C39.4853 78.3856 39.4123 78.3996 39.342 78.3855C39.2766 78.3797 39.2157 78.35 39.1707 78.3022C39.1257 78.2543 39.0999 78.1915 39.0982 78.1259C39.1218 77.2057 39.1218 76.309 39.0982 75.4124C39.0746 74.5157 39.0511 73.627 39.0078 72.7303C39.0592 72.1131 39.2344 71.5126 39.5229 70.9646C39.6486 70.6784 39.7589 70.3856 39.8532 70.0876C39.8596 70.0582 39.8719 70.0304 39.8894 70.0059C39.9069 69.9815 39.9292 69.9609 39.955 69.9455C39.9808 69.93 40.0095 69.9199 40.0393 69.916C40.0691 69.912 40.0995 69.9142 40.1284 69.9224C40.1715 69.9384 40.2089 69.9667 40.2362 70.0037C40.2634 70.0408 40.2792 70.0849 40.2817 70.1309C40.3228 70.4379 40.3807 70.7424 40.4548 71.0432C40.6502 71.6317 40.7225 72.2542 40.6671 72.8719Z" fill="#B79763"/>
<path fill-rule="evenodd" clip-rule="evenodd" d="M35.4111 72.101C35.069 72.9268 34.7348 73.7527 34.4164 74.5903C34.0979 75.428 33.7912 76.2774 33.5002 77.1505C33.4702 77.2105 33.4203 77.2583 33.359 77.2857C33.2976 77.3132 33.2288 77.3186 33.164 77.301C33.0992 77.2834 33.0424 77.2439 33.0034 77.1892C32.9644 77.1345 32.9454 77.068 32.9498 77.001C33.1346 76.1004 33.2919 75.2116 33.4334 74.3268C33.575 73.442 33.6969 72.5611 33.8266 71.6723C33.9815 71.0728 34.2587 70.5118 34.6405 70.0245C34.8135 69.7492 34.9865 69.4779 35.1162 69.2183C35.1278 69.1907 35.1448 69.1656 35.1661 69.1447C35.1875 69.1237 35.2129 69.1072 35.2407 69.0962C35.2686 69.0852 35.2983 69.0799 35.3283 69.0806C35.3582 69.0813 35.3877 69.0881 35.415 69.1004C35.4546 69.1237 35.4864 69.1581 35.5066 69.1993C35.5269 69.2406 35.5347 69.2868 35.5291 69.3324C35.5291 69.6234 35.5291 69.938 35.5291 70.2644C35.6155 70.8782 35.5753 71.5032 35.4111 72.101Z" fill="#B79763"/>
<path fill-rule="evenodd" clip-rule="evenodd" d="M30.3933 70.4217C29.9097 71.1768 29.4379 71.9318 28.9779 72.6987C28.5178 73.4656 28.0657 74.2482 27.6293 75.0583C27.5899 75.1134 27.5325 75.1532 27.467 75.1705C27.4015 75.1879 27.332 75.1818 27.2705 75.1533C27.209 75.1249 27.1593 75.0759 27.1301 75.0147C27.1008 74.9536 27.0938 74.8841 27.1103 74.8184C27.4523 73.9611 27.7591 73.1195 28.054 72.2701C28.3488 71.4206 28.624 70.579 28.8914 69.7217C29.1526 69.1602 29.5228 68.6562 29.9805 68.2391C30.1983 68.0162 30.4018 67.7798 30.5899 67.5313C30.6062 67.5056 30.6275 67.4835 30.6526 67.4664C30.6776 67.4493 30.7058 67.4374 30.7356 67.4315C30.7654 67.4256 30.7962 67.4258 30.8259 67.4322C30.8555 67.4385 30.8836 67.4508 30.9084 67.4683C30.9425 67.4986 30.9673 67.538 30.9798 67.5819C30.9924 67.6257 30.9921 67.6723 30.9791 67.7161C30.9125 68.0199 30.8627 68.327 30.8298 68.6363C30.8068 69.2549 30.6583 69.8623 30.3933 70.4217Z" fill="#B79763"/>
<path fill-rule="evenodd" clip-rule="evenodd" d="M25.7298 67.8933C25.1203 68.554 24.5227 69.2147 23.9408 69.8912C23.3589 70.5676 22.7612 71.2557 22.2029 71.9754C22.1538 72.0305 22.0849 72.064 22.0112 72.0684C21.9375 72.0728 21.8651 72.0479 21.8097 71.999C21.7559 71.9615 21.7178 71.9055 21.7026 71.8417C21.6874 71.7779 21.6961 71.7107 21.7272 71.653C22.2108 70.8664 22.6629 70.0799 23.0994 69.2934C23.5358 68.5069 23.9525 67.7203 24.3654 66.9338C24.7198 66.4251 25.1732 65.9931 25.6983 65.6636C25.9482 65.4796 26.1884 65.2827 26.4178 65.0737C26.4391 65.0519 26.4644 65.0346 26.4924 65.0228C26.5204 65.011 26.5505 65.0049 26.5809 65.0049C26.6113 65.0049 26.6415 65.011 26.6695 65.0228C26.6975 65.0346 26.7228 65.0519 26.7441 65.0737C26.7724 65.1093 26.7901 65.1522 26.795 65.1975C26.7998 65.2427 26.7918 65.2884 26.7716 65.3293C26.6576 65.5927 26.5593 65.8995 26.461 66.2102C26.3333 66.8148 26.0846 67.3874 25.7298 67.8933Z" fill="#B79763"/>
<path fill-rule="evenodd" clip-rule="evenodd" d="M21.5801 64.5895C20.8606 65.1401 20.1647 65.6828 19.4687 66.2452C18.7728 66.8076 18.0848 67.3935 17.3967 68.0031C17.3681 68.0261 17.3352 68.0433 17.3 68.0536C17.2647 68.0639 17.2277 68.0672 17.1912 68.0631C17.1547 68.0591 17.1192 68.0479 17.0871 68.0302C17.0549 68.0124 17.0265 67.9885 17.0035 67.9598C16.9609 67.91 16.9375 67.8465 16.9375 67.7809C16.9375 67.7152 16.9609 67.6518 17.0035 67.6019C17.613 66.9137 18.183 66.2216 18.761 65.5294C19.339 64.8373 19.8659 64.1334 20.4163 63.4176C20.8528 62.979 21.3728 62.6326 21.9457 62.3991C22.2255 62.2613 22.4973 62.1076 22.7596 61.9389C22.7837 61.9209 22.8111 61.9078 22.8404 61.9006C22.8696 61.8934 22.9 61.8921 22.9297 61.8969C22.9595 61.9017 22.9878 61.9124 23.0133 61.9284C23.0388 61.9444 23.0609 61.9654 23.0781 61.9901C23.103 62.0288 23.1162 62.0739 23.1162 62.1199C23.1162 62.1659 23.103 62.2109 23.0781 62.2496C22.9115 62.5112 22.7591 62.7816 22.622 63.0597C22.3815 63.6348 22.0271 64.1552 21.5801 64.5895Z" fill="#B79763"/>
<path fill-rule="evenodd" clip-rule="evenodd" d="M18.0548 60.6215C17.2684 61.0148 16.4821 61.4513 15.6957 61.8878C14.9094 62.3243 14.123 62.7766 13.3367 63.2603C13.2751 63.2871 13.206 63.2918 13.1413 63.2735C13.0767 63.2552 13.0204 63.2151 12.982 63.1599C12.9436 63.1048 12.9254 63.0381 12.9305 62.9711C12.9357 62.9041 12.9639 62.8409 13.0103 62.7923C13.7338 62.2221 14.4218 61.644 15.0981 61.0541C15.7743 60.4642 16.4348 59.8743 17.0953 59.2648C17.6001 58.9063 18.1727 58.6547 18.7781 58.5254C19.0887 58.4271 19.3954 58.3288 19.6588 58.2148C19.6854 58.2001 19.7148 58.1911 19.745 58.1884C19.7753 58.1857 19.8058 58.1892 19.8346 58.1988C19.8634 58.2084 19.8899 58.2239 19.9124 58.2442C19.935 58.2646 19.953 58.2893 19.9655 58.317C19.9798 58.3603 19.9819 58.4067 19.9715 58.4511C19.9611 58.4955 19.9386 58.5362 19.9066 58.5687C19.6964 58.7971 19.4995 59.0374 19.3168 59.2884C18.9897 59.8128 18.5605 60.2662 18.0548 60.6215Z" fill="#B79763"/>
<path fill-rule="evenodd" clip-rule="evenodd" d="M15.2745 56.1031C14.4174 56.3706 13.5721 56.6458 12.7268 56.9369C11.8815 57.2279 11.0322 57.5425 10.179 57.8807C10.1107 57.902 10.0368 57.8958 9.97294 57.8635C9.90908 57.8312 9.86026 57.7753 9.83692 57.7076C9.80969 57.6479 9.80507 57.5803 9.82387 57.5174C9.84267 57.4545 9.88361 57.4005 9.93915 57.3655C10.7452 56.929 11.5118 56.4807 12.2982 56.0166C13.0845 55.5526 13.8198 55.0846 14.5786 54.6009C15.1377 54.3355 15.7451 54.1869 16.3636 54.1643C16.6731 54.1318 16.9803 54.0806 17.2836 54.011C17.3125 54.0021 17.343 53.9991 17.3731 54.0022C17.4032 54.0053 17.4323 54.0145 17.4588 54.0292C17.4852 54.0439 17.5085 54.0638 17.527 54.0877C17.5456 54.1116 17.5591 54.139 17.5668 54.1683C17.5749 54.2133 17.5695 54.2597 17.5513 54.3017C17.5331 54.3437 17.5029 54.3794 17.4645 54.4043C17.2183 54.5922 16.9833 54.7944 16.7607 55.0099C16.3437 55.4704 15.8383 55.8422 15.2745 56.1031Z" fill="#B79763"/>
<path fill-rule="evenodd" clip-rule="evenodd" d="M13.3234 51.1676C12.4309 51.2855 11.5502 51.4075 10.6656 51.5608C9.78091 51.7142 8.89626 51.8598 7.99589 52.0407C7.92519 52.0498 7.85372 52.0311 7.79652 51.9885C7.73932 51.946 7.70084 51.8829 7.68921 51.8125C7.67188 51.7494 7.67836 51.6821 7.70735 51.6234C7.73634 51.5647 7.78578 51.5186 7.84644 51.494C8.71928 51.203 9.56854 50.8962 10.406 50.5777C11.2435 50.2591 12.0691 49.9249 12.8948 49.5788C13.493 49.4178 14.1174 49.379 14.7309 49.4648C15.0572 49.4648 15.3757 49.4923 15.6628 49.4648C15.6928 49.4604 15.7234 49.4621 15.7528 49.4699C15.7822 49.4777 15.8096 49.4915 15.8335 49.5102C15.8574 49.529 15.8773 49.5524 15.8919 49.5791C15.9065 49.6057 15.9154 49.6351 15.9183 49.6653C15.9165 49.7113 15.902 49.756 15.8763 49.7942C15.8506 49.8324 15.8148 49.8627 15.7729 49.8816C15.5027 50.0252 15.2403 50.1827 14.9865 50.3535C14.4946 50.7374 13.9283 51.0146 13.3234 51.1676Z" fill="#B79763"/>
<path fill-rule="evenodd" clip-rule="evenodd" d="M12.268 45.9762C11.3715 45.9369 10.483 45.9054 9.58661 45.8897C8.69018 45.874 7.78975 45.8897 6.86973 45.8897C6.79881 45.8857 6.73226 45.8543 6.68389 45.8023C6.63553 45.7502 6.60914 45.6815 6.61027 45.6105C6.60494 45.545 6.62354 45.4799 6.66258 45.4271C6.70162 45.3743 6.75847 45.3374 6.8226 45.3234C7.73083 45.1897 8.61942 45.0363 9.50013 44.8672C10.3808 44.6981 11.2497 44.5133 12.1265 44.3206C12.7435 44.2626 13.3658 44.3322 13.9547 44.5251C14.2567 44.5996 14.5625 44.6573 14.8708 44.6981C14.901 44.6996 14.9305 44.7071 14.9577 44.7203C14.9849 44.7335 15.0091 44.752 15.0289 44.7748C15.0488 44.7975 15.0638 44.8241 15.0731 44.8528C15.0824 44.8816 15.0858 44.9119 15.0832 44.9419C15.0746 44.9865 15.0533 45.0276 15.0219 45.0604C14.9905 45.0932 14.9504 45.1162 14.9063 45.1268C14.6098 45.2218 14.3185 45.3321 14.0334 45.4571C13.4866 45.749 12.8857 45.9257 12.268 45.9762Z" fill="#B79763"/>
<path fill-rule="evenodd" clip-rule="evenodd" d="M72.8711 44.3207C73.7479 44.5134 74.6167 44.714 75.4974 44.8674C76.3781 45.0208 77.2667 45.1898 78.175 45.3235C78.2382 45.3432 78.2929 45.3838 78.3299 45.4388C78.3669 45.4937 78.3842 45.5596 78.3787 45.6256C78.3732 45.6917 78.3453 45.7538 78.2997 45.8019C78.254 45.8499 78.1934 45.881 78.1277 45.8899C77.2077 45.8663 76.3074 45.8663 75.411 45.8899C74.5145 45.9135 73.6259 45.9371 72.7295 45.9764C72.1123 45.9283 71.5115 45.7543 70.9642 45.4651C70.6791 45.34 70.3878 45.2298 70.0913 45.1348C70.0614 45.1284 70.0332 45.1159 70.0083 45.0982C69.9834 45.0805 69.9623 45.0579 69.9465 45.0317C69.9306 45.0056 69.9203 44.9765 69.9161 44.9462C69.912 44.9159 69.9141 44.885 69.9223 44.8556C69.9397 44.8138 69.9684 44.7776 70.0052 44.7512C70.042 44.7248 70.0855 44.7092 70.1307 44.7061C70.438 44.6655 70.7426 44.6064 71.0429 44.5291C71.6916 44.3758 72.3717 44.2028 72.8711 44.3207Z" fill="#B79763"/>
<path fill-rule="evenodd" clip-rule="evenodd" d="M72.1 49.5669C72.9296 49.9129 73.7512 50.2472 74.5887 50.5658C75.4261 50.8843 76.2754 51.191 77.1482 51.482C77.1808 51.4954 77.2104 51.5151 77.2354 51.5399C77.2604 51.5648 77.2802 51.5943 77.2938 51.6268C77.3073 51.6594 77.3142 51.6942 77.3142 51.7294C77.3142 51.7646 77.3073 51.7995 77.2938 51.8321C77.2787 51.8961 77.2398 51.9521 77.1851 51.9886C77.1304 52.0251 77.0638 52.0394 76.9989 52.0287C76.0998 51.8478 75.2099 51.6879 74.3292 51.5489C73.4446 51.4073 72.5639 51.2815 71.6714 51.1557C71.072 51.0007 70.5112 50.7235 70.024 50.3416C69.7643 50.1681 69.4952 50.0093 69.218 49.8657C69.1902 49.8538 69.1651 49.8365 69.1442 49.8146C69.1234 49.7928 69.1071 49.767 69.0964 49.7387C69.0858 49.7104 69.0809 49.6802 69.0822 49.65C69.0835 49.6198 69.0909 49.5902 69.1039 49.5629C69.1278 49.5241 69.1625 49.4931 69.2037 49.4735C69.2448 49.454 69.2908 49.4468 69.3359 49.4528C69.645 49.4702 69.9547 49.4702 70.2638 49.4528C70.8773 49.3689 71.5015 49.4077 72.1 49.5669Z" fill="#B79763"/>
<path fill-rule="evenodd" clip-rule="evenodd" d="M70.4039 54.6008C71.1588 55.0846 71.9137 55.5565 72.6843 56.0166C73.4549 56.4767 74.2334 56.9289 75.0433 57.3654C75.0758 57.3847 75.104 57.4104 75.1262 57.441C75.1483 57.4716 75.1639 57.5064 75.1721 57.5433C75.1802 57.5801 75.1806 57.6183 75.1733 57.6554C75.166 57.6925 75.1513 57.7276 75.1298 57.7587C75.1023 57.8182 75.0538 57.8656 74.9936 57.8917C74.9334 57.9178 74.8657 57.9208 74.8035 57.9003C73.9503 57.5621 73.105 57.2514 72.2557 56.9565C71.4065 56.6615 70.5651 56.3902 69.708 56.1228C69.1456 55.8614 68.6415 55.4896 68.2257 55.0295C68.0026 54.813 67.7663 54.6108 67.5179 54.4238C67.4923 54.4076 67.4703 54.3863 67.4532 54.3612C67.436 54.3361 67.4242 54.3078 67.4183 54.278C67.4124 54.2483 67.4127 54.2176 67.419 54.1879C67.4253 54.1582 67.4376 54.1301 67.4551 54.1053C67.4852 54.0709 67.5243 54.0456 67.5682 54.0324C67.612 54.0191 67.6586 54.0185 67.7027 54.0306C68.006 54.1002 68.3133 54.1514 68.6228 54.184C69.2386 54.2009 69.8445 54.3427 70.4039 54.6008Z" fill="#B79763"/>
<path fill-rule="evenodd" clip-rule="evenodd" d="M67.8957 59.2651C68.5562 59.8708 69.2167 60.4685 69.8929 61.0544C70.5692 61.6404 71.2572 62.2343 71.9767 62.7927C72.0045 62.8167 72.0272 62.846 72.0435 62.879C72.0597 62.9119 72.0692 62.9477 72.0714 62.9843C72.0736 63.021 72.0684 63.0577 72.0562 63.0923C72.044 63.127 72.025 63.1588 72.0004 63.1859C71.964 63.2411 71.9083 63.2807 71.8442 63.2967C71.7801 63.3127 71.7123 63.3041 71.6543 63.2725C70.868 62.7887 70.0816 62.3365 69.2953 61.9C68.5089 61.4634 67.7226 61.0466 66.9362 60.6337C66.4277 60.2792 65.9957 59.8257 65.6663 59.3005C65.4834 59.0497 65.2865 58.8095 65.0765 58.5809C65.0548 58.5596 65.0376 58.5342 65.0258 58.5062C65.014 58.4781 65.0078 58.448 65.0078 58.4176C65.0078 58.3872 65.014 58.3571 65.0258 58.3291C65.0376 58.301 65.0548 58.2757 65.0765 58.2544C65.1121 58.226 65.1551 58.2084 65.2004 58.2035C65.2456 58.1987 65.2913 58.2068 65.3322 58.2269C65.6199 58.3452 65.9139 58.4476 66.2129 58.5337C66.8168 58.6631 67.389 58.9118 67.8957 59.2651Z" fill="#B79763"/>
<path fill-rule="evenodd" clip-rule="evenodd" d="M64.5969 63.4176C65.1434 64.1333 65.6859 64.8333 66.2482 65.5255C66.8104 66.2176 67.3962 66.9137 68.0056 67.6019C68.0287 67.6305 68.0459 67.6634 68.0562 67.6987C68.0665 67.734 68.0697 67.771 68.0657 67.8075C68.0617 67.844 68.0505 67.8794 68.0328 67.9116C68.0151 67.9438 67.9911 67.9722 67.9624 67.9952C67.9126 68.0378 67.8491 68.0613 67.7835 68.0613C67.7179 68.0613 67.6545 68.0378 67.6047 67.9952C66.9166 67.3856 66.2286 66.8154 65.5327 66.2373C64.8367 65.6592 64.1408 65.1283 63.4252 64.5817C62.9841 64.1465 62.6362 63.626 62.4029 63.0519C62.2649 62.7729 62.1127 62.5012 61.9469 62.2378C61.9277 62.2142 61.9137 62.1867 61.9058 62.1573C61.8979 62.1279 61.8964 62.0971 61.9012 62.0671C61.906 62.037 61.9171 62.0083 61.9338 61.9828C61.9505 61.9573 61.9724 61.9357 61.998 61.9193C62.0359 61.8942 62.0804 61.8809 62.1258 61.8809C62.1712 61.8809 62.2156 61.8942 62.2536 61.9193C62.5155 62.0852 62.7859 62.2374 63.0635 62.3754C63.6398 62.6155 64.1614 62.97 64.5969 63.4176Z" fill="#B79763"/>
<path fill-rule="evenodd" clip-rule="evenodd" d="M60.6234 66.9413C61.0362 67.7279 61.4529 68.5144 61.8894 69.3009C62.3258 70.0874 62.7779 70.874 63.2615 71.6605C63.2896 71.7217 63.2951 71.7908 63.2774 71.8557C63.2596 71.9207 63.2196 71.9773 63.1643 72.0157C63.109 72.0542 63.0421 72.0719 62.975 72.0659C62.908 72.0599 62.8451 72.0306 62.7975 71.983C62.2235 71.2633 61.6456 70.5711 61.0597 69.8986C60.4739 69.2262 59.8802 68.5616 59.2668 67.9009C58.9092 67.3956 58.6578 66.823 58.5277 66.2177C58.4393 65.9189 58.3356 65.6249 58.2171 65.3368C58.2031 65.3101 58.1946 65.2808 58.1921 65.2507C58.1897 65.2206 58.1933 65.1903 58.2029 65.1617C58.2124 65.133 58.2276 65.1066 58.2476 65.0839C58.2676 65.0613 58.2921 65.043 58.3193 65.03C58.3626 65.0157 58.409 65.0137 58.4534 65.0241C58.4978 65.0345 58.5385 65.057 58.5709 65.089C58.8003 65.2981 59.0405 65.495 59.2905 65.6789C59.8148 66.0061 60.2681 66.4355 60.6234 66.9413Z" fill="#B79763"/>
<path fill-rule="evenodd" clip-rule="evenodd" d="M56.107 69.7221C56.3744 70.5794 56.6497 71.4249 56.9445 72.2704C57.2394 73.1159 57.5461 73.9614 57.8881 74.8187C57.9091 74.8871 57.9023 74.9609 57.8692 75.0242C57.8361 75.0876 57.7793 75.1352 57.7112 75.1569C57.6527 75.1852 57.5858 75.1907 57.5234 75.1726C57.4609 75.1544 57.4074 75.1138 57.3731 75.0586C56.9328 74.2721 56.4845 73.4856 56.0245 72.699C55.5645 71.9125 55.0888 71.1771 54.6052 70.4221C54.342 69.862 54.1936 69.2549 54.1687 68.6366C54.1358 68.3274 54.086 68.0202 54.0194 67.7164C54.0097 67.6875 54.006 67.6569 54.0086 67.6266C54.0112 67.5962 54.0199 67.5667 54.0342 67.5398C54.0486 67.513 54.0683 67.4893 54.0921 67.4703C54.1159 67.4513 54.1433 67.4374 54.1727 67.4293C54.218 67.4226 54.2644 67.4291 54.3062 67.4479C54.348 67.4667 54.3835 67.4971 54.4086 67.5355C54.5991 67.7808 54.8025 68.0158 55.018 68.2394C55.4769 68.6555 55.8472 69.1597 56.107 69.7221Z" fill="#B79763"/>
<path fill-rule="evenodd" clip-rule="evenodd" d="M51.1687 71.6722C51.2866 72.561 51.4085 73.4458 51.5618 74.3267C51.7152 75.2076 51.8606 76.1004 52.0454 77.0009C52.0534 77.0721 52.0338 77.1436 51.9906 77.2006C51.9475 77.2577 51.884 77.296 51.8134 77.3077C51.7503 77.3241 51.6834 77.3173 51.6249 77.2884C51.5664 77.2595 51.5202 77.2105 51.4949 77.1504C51.204 76.2773 50.8974 75.4279 50.5789 74.5902C50.2604 73.7526 49.9262 72.9267 49.5842 72.1009C49.42 71.5032 49.3798 70.8781 49.4662 70.2643C49.4837 69.9539 49.4837 69.6427 49.4662 69.3323C49.4624 69.3023 49.4645 69.2719 49.4725 69.2427C49.4806 69.2136 49.4943 69.1863 49.5129 69.1625C49.5316 69.1387 49.5548 69.1189 49.5812 69.1042C49.6076 69.0894 49.6367 69.0801 49.6667 69.0767C49.7127 69.0784 49.7573 69.093 49.7955 69.1187C49.8337 69.1444 49.864 69.1802 49.883 69.2222C50.0265 69.4932 50.1853 69.7558 50.3587 70.0087C50.7399 70.5017 51.0157 71.068 51.1687 71.6722Z" fill="#B79763"/>
<path fill-rule="evenodd" clip-rule="evenodd" d="M45.9749 72.7185C45.9317 73.6152 45.9001 74.5039 45.8844 75.4006C45.8687 76.2972 45.8844 77.1938 45.8844 78.1141C45.8804 78.1854 45.8492 78.2524 45.7973 78.3014C45.7454 78.3505 45.6766 78.3777 45.6053 78.3776C45.5398 78.3829 45.4747 78.3643 45.4219 78.3253C45.3691 78.2862 45.3323 78.2293 45.3182 78.1652C45.1846 77.2568 45.0313 76.368 44.8622 75.4871C44.6931 74.6062 44.5122 73.7371 44.3156 72.8601C44.2597 72.243 44.3292 71.6209 44.5201 71.0314C44.5942 70.7293 44.652 70.4234 44.6932 70.1151C44.6946 70.085 44.7022 70.0554 44.7153 70.0282C44.7285 70.0011 44.747 69.9768 44.7698 69.957C44.7925 69.9372 44.8191 69.9221 44.8478 69.9128C44.8765 69.9035 44.9068 69.9001 44.9369 69.9027C44.982 69.9111 45.0237 69.9322 45.0572 69.9636C45.0906 69.995 45.1143 70.0353 45.1256 70.0797C45.2174 70.3768 45.3264 70.6683 45.452 70.9528C45.7431 71.5002 45.921 72.1008 45.9749 72.7185Z" fill="#B79763"/>
<path fill-rule="evenodd" clip-rule="evenodd" d="M44.3259 12.1089C44.5225 11.2359 44.7047 10.3615 44.8725 9.48587C45.0415 8.60496 45.1948 7.71618 45.3285 6.80381C45.3454 6.73464 45.3884 6.67469 45.4485 6.63656C45.5086 6.59843 45.5812 6.58507 45.6509 6.59931C45.716 6.60415 45.7769 6.63297 45.822 6.6802C45.867 6.72742 45.8929 6.7897 45.8946 6.85494C45.8711 7.77517 45.8711 8.67574 45.8946 9.57238C45.9182 10.469 45.9418 11.3578 45.9851 12.2544C45.9335 12.8704 45.7584 13.4696 45.4701 14.0163C45.3443 14.3191 45.2224 14.618 45.1398 14.8932C45.1339 14.923 45.1219 14.9512 45.1046 14.9761C45.0872 15.001 45.0649 15.022 45.0391 15.0379C45.0133 15.0538 44.9845 15.0641 44.9544 15.0683C44.9244 15.0726 44.8938 15.0705 44.8646 15.0623C44.8218 15.0459 44.7845 15.0175 44.7574 14.9806C44.7302 14.9436 44.7142 14.8997 44.7112 14.8539C44.67 14.5456 44.6123 14.2397 44.5382 13.9376C44.3443 13.3488 44.272 12.7266 44.3259 12.1089Z" fill="#B79763"/>
<path fill-rule="evenodd" clip-rule="evenodd" d="M49.5672 12.8835C49.9093 12.0537 50.2435 11.2279 50.562 10.3941C50.8804 9.56043 51.1872 8.70704 51.4781 7.834C51.5082 7.77394 51.5581 7.72614 51.6194 7.69872C51.6807 7.67129 51.7495 7.6659 51.8144 7.6835C51.8792 7.70109 51.9359 7.74059 51.9749 7.79525C52.014 7.84992 52.0329 7.91641 52.0285 7.98344C51.8437 8.88401 51.6865 9.76885 51.5449 10.6537C51.4034 11.5385 51.2815 12.4194 51.1517 13.3122C50.9961 13.9113 50.719 14.4722 50.3378 14.9599C50.1648 15.2313 49.9919 15.5066 49.8621 15.7465C49.8515 15.7748 49.8351 15.8007 49.8138 15.8223C49.7926 15.8439 49.7671 15.8608 49.739 15.8719C49.7108 15.883 49.6806 15.8881 49.6504 15.8869C49.6201 15.8856 49.5904 15.8779 49.5633 15.8644C49.5241 15.8407 49.4926 15.8062 49.4724 15.7651C49.4522 15.724 49.4441 15.6779 49.4493 15.6324C49.4667 15.3233 49.4667 15.0134 49.4493 14.7043C49.3648 14.0956 49.405 13.4762 49.5672 12.8835Z" fill="#B79763"/>
<path fill-rule="evenodd" clip-rule="evenodd" d="M54.6041 14.5625C55.0877 13.8035 55.5634 13.0484 56.0234 12.2816C56.4835 11.5147 56.9317 10.7321 57.3721 9.92198C57.4124 9.86852 57.4698 9.83059 57.5348 9.81459C57.5998 9.79859 57.6683 9.80549 57.7288 9.83413C57.7893 9.86276 57.8381 9.91139 57.8669 9.97181C57.8957 10.0322 57.9029 10.1007 57.8871 10.1658C57.545 11.0192 57.2384 11.8647 56.9435 12.7141C56.6486 13.5636 56.3733 14.4052 56.106 15.2625C55.8445 15.8237 55.4728 16.3266 55.0131 16.7412C54.7976 16.9651 54.5954 17.2015 54.4076 17.449C54.3917 17.4751 54.3706 17.4976 54.3455 17.5151C54.3205 17.5326 54.2921 17.5447 54.2621 17.5506C54.2322 17.5565 54.2013 17.5561 54.1715 17.5494C54.1417 17.5428 54.1137 17.53 54.0891 17.512C54.0545 17.482 54.0294 17.4426 54.0169 17.3986C54.0043 17.3546 54.0048 17.3079 54.0183 17.2642C54.0846 16.9617 54.1344 16.6558 54.1677 16.3479C54.192 15.7295 54.3405 15.1223 54.6041 14.5625Z" fill="#B79763"/>
<path fill-rule="evenodd" clip-rule="evenodd" d="M59.2659 17.0913C59.874 16.4306 60.4716 15.7647 61.0587 15.0935C61.6446 14.4171 62.2382 13.7289 62.7965 13.0053C62.8488 12.9534 62.9195 12.9243 62.9931 12.9243C63.0668 12.9243 63.1374 12.9534 63.1897 13.0053C63.2435 13.0428 63.2817 13.0988 63.2969 13.1626C63.3121 13.2264 63.3034 13.2936 63.2723 13.3514C62.7887 14.1379 62.3366 14.9244 61.9002 15.7109C61.4638 16.4975 61.0469 17.284 60.6341 18.0705C60.2797 18.5792 59.8264 19.0113 59.3013 19.3408C59.0487 19.5213 58.8083 19.7184 58.5817 19.9307C58.5605 19.9524 58.5352 19.9697 58.5072 19.9815C58.4791 19.9933 58.449 19.9994 58.4186 19.9994C58.3881 19.9994 58.3581 19.9933 58.3301 19.9815C58.302 19.9697 58.2767 19.9524 58.2555 19.9307C58.2271 19.8951 58.2094 19.8521 58.2045 19.8068C58.1996 19.7616 58.2078 19.7159 58.2279 19.675C58.3464 19.3882 58.4501 19.0955 58.5385 18.7981C58.6611 18.1852 58.9087 17.6042 59.2659 17.0913Z" fill="#B79763"/>
<path fill-rule="evenodd" clip-rule="evenodd" d="M63.4231 20.391C64.1347 19.8444 64.8346 19.3017 65.5305 18.7354C66.2264 18.1691 66.9145 17.591 67.6025 16.9814C67.6574 16.949 67.7214 16.9357 67.7846 16.9437C67.8478 16.9516 67.9065 16.9804 67.9516 17.0255C67.9966 17.0706 68.0255 17.1293 68.0334 17.1925C68.0414 17.2557 68.0282 17.3198 67.9957 17.3747C67.3863 18.0629 66.8161 18.7511 66.2381 19.4472C65.6602 20.1432 65.1333 20.8393 64.5868 21.5551C64.1496 21.9955 63.6281 22.3432 63.0535 22.5776C62.7746 22.7156 62.5029 22.8679 62.2396 23.0337C62.2157 23.0524 62.1883 23.0659 62.159 23.0734C62.1297 23.081 62.0991 23.0824 62.0692 23.0776C62.0393 23.0728 62.0108 23.0619 61.9853 23.0455C61.9598 23.0292 61.9379 23.0078 61.9211 22.9826C61.8961 22.9447 61.8828 22.9003 61.8828 22.8548C61.8828 22.8094 61.8961 22.7649 61.9211 22.727C62.087 22.465 62.2393 22.1946 62.3773 21.9169C62.6195 21.3429 62.9752 20.8239 63.4231 20.391Z" fill="#B79763"/>
<path fill-rule="evenodd" clip-rule="evenodd" d="M66.9418 24.3472C67.7282 23.9539 68.5145 23.5174 69.3009 23.0809C70.0872 22.6444 70.8735 22.1921 71.6599 21.7084C71.7213 21.6781 71.7916 21.6707 71.8579 21.6876C71.9243 21.7045 71.9824 21.7446 72.0218 21.8006C72.0612 21.8567 72.0793 21.9249 72.0727 21.9931C72.0662 22.0613 72.0356 22.1249 71.9863 22.1724C71.2628 22.7466 70.5747 23.3247 69.8985 23.9107C69.2222 24.4966 68.5617 25.0905 67.9011 25.704C67.3964 26.0625 66.8239 26.3141 66.2184 26.4433C65.9078 26.5416 65.6012 26.6399 65.3377 26.754C65.3108 26.7679 65.2812 26.7762 65.251 26.7784C65.2207 26.7805 65.1903 26.7765 65.1616 26.7666C65.1329 26.7567 65.1066 26.741 65.0841 26.7206C65.0617 26.7002 65.0436 26.6754 65.031 26.6478C65.0173 26.6041 65.0158 26.5575 65.0269 26.5131C65.038 26.4686 65.0612 26.4281 65.0939 26.3961C65.3025 26.1674 65.4981 25.9271 65.6797 25.6764C66.0069 25.153 66.4361 24.701 66.9418 24.3472Z" fill="#B79763"/>
<path fill-rule="evenodd" clip-rule="evenodd" d="M69.7217 28.8814C70.5788 28.6139 71.4241 28.3387 72.2694 28.0437C73.1148 27.7488 73.964 27.4381 74.8172 27.0999C74.8855 27.0786 74.9594 27.0847 75.0233 27.117C75.0871 27.1493 75.136 27.2052 75.1593 27.2729C75.1874 27.3325 75.1925 27.4004 75.1736 27.4635C75.1547 27.5267 75.1133 27.5806 75.0571 27.615C74.2707 28.0555 73.4844 28.5038 72.698 28.9639C71.9117 29.4241 71.1725 29.896 70.4176 30.3836C69.8582 30.6477 69.2508 30.7949 68.6326 30.8162C68.3102 30.8595 67.9917 30.9027 67.7125 30.9696C67.6839 30.9792 67.6536 30.9828 67.6236 30.9802C67.5935 30.9776 67.5643 30.9688 67.5377 30.9544C67.5112 30.94 67.4878 30.9204 67.4692 30.8966C67.4506 30.8728 67.4371 30.8454 67.4295 30.8162C67.4213 30.7712 67.4267 30.7247 67.4449 30.6828C67.4631 30.6408 67.4933 30.6051 67.5317 30.5802C67.7778 30.3907 68.0128 30.1872 68.2355 29.9707C68.6526 29.5113 69.1581 29.1408 69.7217 28.8814Z" fill="#B79763"/>
<path fill-rule="evenodd" clip-rule="evenodd" d="M71.6692 33.8127C72.5617 33.6987 73.4424 33.5768 74.327 33.4195C75.2117 33.2622 76.0963 33.1206 76.9967 32.9358C77.068 32.9268 77.1399 32.946 77.1972 32.9893C77.2545 33.0327 77.2927 33.0967 77.3034 33.1678C77.3207 33.2309 77.3142 33.2982 77.2852 33.3569C77.2562 33.4157 77.2067 33.4617 77.1461 33.4863C76.2732 33.7773 75.4239 34.0841 74.5865 34.4026C73.749 34.7212 72.9274 35.0515 72.0978 35.3976C71.4999 35.5601 70.8753 35.6002 70.2616 35.5156C69.9512 35.4981 69.6402 35.4981 69.3298 35.5156C69.2997 35.52 69.2689 35.5181 69.2395 35.51C69.2101 35.5019 69.1828 35.4878 69.1591 35.4686C69.1355 35.4494 69.1161 35.4254 69.1021 35.3983C69.0882 35.3712 69.08 35.3415 69.0781 35.3111C69.0779 35.2656 69.0912 35.2211 69.1164 35.1832C69.1416 35.1454 69.1776 35.116 69.2197 35.0987C69.4907 34.9552 69.7532 34.7963 70.0061 34.6229C70.5006 34.2442 71.0662 33.9687 71.6692 33.8127Z" fill="#B79763"/>
<path fill-rule="evenodd" clip-rule="evenodd" d="M72.73 39.0117C73.6265 39.055 74.5151 39.0864 75.4115 39.1022C76.3079 39.1179 77.2083 39.1022 78.1283 39.1022C78.1939 39.1111 78.2546 39.1421 78.3002 39.1902C78.3458 39.2382 78.3737 39.3004 78.3792 39.3664C78.3847 39.4324 78.3675 39.4983 78.3304 39.5532C78.2934 39.6082 78.2388 39.6488 78.1755 39.6684C77.2673 39.8021 76.3787 39.9555 75.498 40.1207C74.6173 40.2859 73.7484 40.4746 72.8716 40.6713C72.2546 40.7273 71.6328 40.6577 71.0434 40.4668C70.7418 40.3908 70.4358 40.333 70.1273 40.2938C70.0971 40.2923 70.0676 40.2847 70.0404 40.2715C70.0132 40.2584 69.989 40.2398 69.9692 40.217C69.9494 40.1943 69.9343 40.1678 69.925 40.139C69.9157 40.1103 69.9123 40.08 69.9149 40.0499C69.9233 40.0049 69.9444 39.9631 69.9758 39.9296C70.0072 39.8962 70.0474 39.8724 70.0919 39.8611C70.3889 39.7693 70.6803 39.6603 70.9647 39.5347C71.512 39.2435 72.1124 39.0656 72.73 39.0117Z" fill="#B79763"/>
</g>
<defs>
<clipPath id="clip0_720_17112">
<rect width="85" height="85" fill="white"/>
</clipPath>
</defs>
</svg>
