<svg width="175" height="175" viewBox="0 0 175 175" fill="none" xmlns="http://www.w3.org/2000/svg">
<path d="M5.27483 63.0189C5.34293 63.0831 5.39682 63.161 5.43291 63.2475C5.46453 63.3326 5.46453 63.4262 5.43291 63.5113C5.38398 63.6437 5.29493 63.7574 5.17827 63.8366C5.0378 63.9509 4.87093 64.1004 4.68656 64.2763C4.48108 64.487 4.29589 64.7166 4.13344 64.9622C3.74379 65.6211 3.54904 66.3774 3.57164 67.1429C3.59465 67.4494 3.67813 67.7483 3.81739 68.0222C3.94346 68.2751 4.12686 68.4949 4.35293 68.6641C4.58191 68.8418 4.84488 68.9705 5.12554 69.0422C5.44981 69.1541 5.80215 69.1541 6.12643 69.0422C6.43636 68.9118 6.71706 68.7205 6.95176 68.4794C7.21889 68.2097 7.45989 67.9153 7.67164 67.6001L8.37405 66.5273C8.61988 66.158 8.87449 65.8063 9.14666 65.4634C9.39624 65.1301 9.69185 64.834 10.0246 64.5841C10.3738 64.3451 10.7682 64.1805 11.1835 64.1004C11.6762 64.0224 12.1801 64.0554 12.6585 64.1972C13.221 64.3388 13.7514 64.5865 14.2213 64.927C14.6761 65.2497 15.0563 65.6665 15.3362 66.1492C15.6247 66.6544 15.8043 67.2146 15.8631 67.7936C15.9352 68.4635 15.8786 69.141 15.6962 69.7896C15.4942 70.6052 15.1233 71.3691 14.6075 72.0319C14.1284 72.6456 13.5314 73.1569 12.8516 73.5355L12.1317 72.7793C12.0774 72.7144 12.0357 72.6398 12.0088 72.5595C11.9824 72.4736 11.9824 72.3816 12.0088 72.2957C12.0689 72.1328 12.1838 71.996 12.3337 71.9088C12.5531 71.7468 12.764 71.5736 12.9658 71.39C13.2268 71.154 13.4596 70.8884 13.6594 70.5986C13.9207 70.2178 14.1083 69.7913 14.2125 69.3412C14.3241 68.95 14.3656 68.5422 14.3353 68.1365C14.3116 67.7932 14.2191 67.4583 14.0632 67.1517C13.907 66.8635 13.6915 66.6118 13.4311 66.413C13.1482 66.2014 12.8257 66.0489 12.4828 65.9646C12.1345 65.8529 11.7601 65.8529 11.4118 65.9646C11.0798 66.0778 10.7791 66.2676 10.5338 66.5185C10.2648 66.7842 10.0263 67.0791 9.82271 67.3979L9.13787 68.4794C8.90933 68.8479 8.6602 69.2031 8.39163 69.5434C8.14631 69.8804 7.85011 70.177 7.51367 70.4227C7.15139 70.6577 6.74513 70.8162 6.31966 70.8888C5.79663 70.9649 5.2633 70.9259 4.75687 70.7745C4.28321 70.6524 3.83853 70.4372 3.44872 70.1414C3.05765 69.8388 2.72947 69.4623 2.48288 69.0334C2.22458 68.5658 2.06058 68.0519 2.00006 67.521C1.93515 66.8986 1.98579 66.2695 2.14936 65.6656C2.32363 64.9677 2.62095 64.3067 3.02731 63.7135C3.40916 63.1646 3.90282 62.7031 4.47586 62.3594L5.27483 63.0189Z" fill="#B79763"/>
<path d="M11.604 43.3828L12.9561 44.0951L9.84811 49.9777L13.9131 52.1321L16.4328 47.3661L17.7235 48.0608L15.2124 52.8179L19.3915 55.0338L22.4907 49.1512L23.8428 49.8634L19.8569 57.4168L7.62695 50.9362L11.604 43.3828Z" fill="#B79763"/>
<path d="M36.4064 34.2651L35.4407 35.3467C35.3444 35.4577 35.2152 35.5347 35.072 35.5665C34.9416 35.581 34.8095 35.5659 34.6856 35.5226L31.3319 34.2388L27.179 38.8552L28.7858 42.0647C28.8447 42.1816 28.872 42.312 28.8648 42.4428C28.8517 42.5906 28.79 42.7298 28.6892 42.8385L27.7234 43.9113L21.1914 30.5104L22.4644 29.0947L36.4064 34.2651ZM26.5206 37.5626L29.9798 33.72L24.3432 31.5568C23.9183 31.3976 23.5048 31.2095 23.1054 30.9941C23.2459 31.2227 23.3863 31.4337 23.5004 31.636C23.6146 31.8382 23.7199 32.0141 23.8077 32.1723L26.5206 37.5626Z" fill="#B79763"/>
<path d="M49.1296 9.27448C49.5598 9.06852 50.024 8.94333 50.4993 8.90515C50.9223 8.87598 51.3471 8.9206 51.7548 9.03704C52.1391 9.15012 52.4972 9.33841 52.8083 9.59102C53.1144 9.83007 53.3683 10.1293 53.5546 10.4703L52.6766 11.121L52.5976 11.165C52.5166 11.2058 52.4237 11.2167 52.3354 11.1958C52.2471 11.1749 52.169 11.1235 52.1147 11.0507C51.9886 10.9095 51.8473 10.7827 51.6933 10.6726C51.5263 10.5479 51.3392 10.4527 51.1402 10.3912C50.9226 10.3179 50.6935 10.2851 50.4641 10.2945C50.1993 10.3077 49.9396 10.3734 49.7003 10.4879C49.4304 10.611 49.1862 10.784 48.9804 10.9979C48.7957 11.1894 48.6523 11.4169 48.559 11.6662C48.4722 11.9145 48.4334 12.1771 48.4449 12.44C48.4652 12.7147 48.5367 12.9831 48.6556 13.2314C48.7455 13.43 48.8606 13.6162 48.998 13.7854C49.1425 13.9574 49.3076 14.111 49.4896 14.2426C49.6946 14.4023 49.9153 14.5407 50.1481 14.6559C50.4343 14.7939 50.7273 14.9171 51.026 15.0252L56.2938 17.0125C56.3464 16.5215 56.3464 16.0262 56.2938 15.5352C56.2265 15.0532 56.1118 14.579 55.9514 14.1195C55.9211 14.0162 55.9211 13.9063 55.9514 13.803C55.9893 13.7094 56.0616 13.6339 56.1533 13.5919L57.1191 13.1435C57.4198 13.8232 57.6208 14.5429 57.7161 15.2802C57.8257 16.0207 57.8257 16.7733 57.7161 17.5137L61.5791 18.9558L60.0779 19.6593C59.9406 19.7293 59.7919 19.7739 59.6389 19.7911C59.4765 19.7864 59.316 19.7537 59.1647 19.6944L57.3123 19.0173C57.0101 19.8063 56.5668 20.5333 56.0041 21.1629C55.4044 21.8258 54.6752 22.3585 53.8618 22.7281C53.3942 22.9474 52.8923 23.0843 52.3781 23.1326C51.8681 23.1862 51.3525 23.1414 50.8593 23.0007C50.3612 22.8625 49.8955 22.6264 49.4896 22.306C49.0594 21.949 48.717 21.4977 48.4887 20.987C48.2974 20.5934 48.1841 20.1664 48.1551 19.7296C48.1213 19.3021 48.1539 18.872 48.2517 18.4546C48.3525 18.0216 48.512 17.6044 48.7258 17.2147C48.9508 16.8091 49.2187 16.4288 49.5248 16.0804C49.0174 15.8307 48.5476 15.5111 48.1289 15.1308C47.7618 14.7893 47.4637 14.3803 47.2509 13.9261C47.0522 13.5165 46.9387 13.0707 46.9173 12.6159C46.8971 12.1742 46.972 11.7334 47.1368 11.3233C47.3071 10.8916 47.5641 10.4996 47.8918 10.1714C48.2451 9.79783 48.6648 9.49366 49.1296 9.27448V9.27448ZM49.955 20.1253C50.1119 20.4653 50.3429 20.7658 50.631 21.0046C50.8864 21.2239 51.1858 21.3858 51.509 21.4794C51.8305 21.5746 52.1678 21.6045 52.5011 21.5674C52.8354 21.5337 53.1617 21.4445 53.4668 21.3036C54.0775 21.0343 54.6204 20.6317 55.0558 20.1253C55.4618 19.6538 55.7774 19.1112 55.9865 18.5249L50.5432 16.5113C50.1042 17.0456 49.8027 17.6797 49.6653 18.3578C49.5809 18.9628 49.6819 19.5791 49.955 20.1253V20.1253Z" fill="#B79763"/>
<path d="M84.9147 13.653C85.2923 13.653 85.6347 13.653 85.942 13.565C86.2383 13.5264 86.5316 13.4677 86.8199 13.3892C87.083 13.3114 87.341 13.2174 87.5926 13.1078C87.8296 13.0023 88.0754 12.8792 88.3124 12.7473L88.2334 9.68727L86.0913 9.7488C85.9836 9.75214 85.878 9.71797 85.7927 9.65209C85.757 9.61799 85.7286 9.57707 85.709 9.53176C85.6894 9.48645 85.679 9.43765 85.6786 9.38827V8.3243L89.9192 8.20999L90.0596 13.5299C89.3829 14.0553 88.6192 14.4571 87.8033 14.717C87.3566 14.8615 86.8984 14.9674 86.4337 15.0335C85.9075 15.1144 85.3767 15.1614 84.8445 15.1742C83.8992 15.2108 82.956 15.0584 82.0702 14.7258C81.2477 14.4199 80.4974 13.9469 79.8665 13.3364C79.2301 12.7088 78.7283 11.9578 78.3916 11.1293C77.6729 9.27253 77.6263 7.22226 78.2598 5.33462C78.5462 4.48702 79.0103 3.71053 79.6207 3.05718C80.238 2.41018 80.9823 1.89821 81.8068 1.55354C82.7333 1.1768 83.7218 0.976979 84.7216 0.964393C85.2322 0.944535 85.7435 0.971019 86.2493 1.04353C86.6972 1.10752 87.1381 1.2135 87.5662 1.36008C87.9604 1.49376 88.34 1.66762 88.6988 1.87889C89.0444 2.08303 89.3706 2.31849 89.6733 2.58234L89.1641 3.46166C89.1255 3.53954 89.067 3.6058 88.9945 3.65368C88.922 3.70156 88.8381 3.72935 88.7514 3.73425C88.63 3.72971 88.512 3.69333 88.4091 3.62873C88.2197 3.53558 88.035 3.43287 87.856 3.32098C87.6223 3.1797 87.3752 3.06187 87.1184 2.96924C86.7888 2.84276 86.4478 2.74853 86.1001 2.68787C85.642 2.61014 85.177 2.58067 84.7128 2.59993C83.9885 2.60688 83.2725 2.75626 82.6057 3.03959C82.0026 3.29771 81.4633 3.68486 81.0254 4.17391C80.5771 4.68383 80.242 5.28325 80.0421 5.93255C79.8158 6.66956 79.7148 7.43945 79.7435 8.20999C79.7572 9.006 79.9056 9.79395 80.1825 10.5402C80.4229 11.1811 80.7937 11.765 81.2713 12.2549C81.7342 12.7193 82.291 13.0791 82.9043 13.3101C83.5465 13.5519 84.2288 13.6683 84.9147 13.653V13.653Z" fill="#B79763"/>
<path d="M112.975 12.3692C112.736 13.3141 112.329 14.2079 111.772 15.0072C111.266 15.7365 110.618 16.3557 109.867 16.8274C109.117 17.2886 108.28 17.5881 107.408 17.7067C106.462 17.8255 105.501 17.7567 104.581 17.5044C103.658 17.271 102.787 16.8621 102.018 16.2998C101.298 15.7807 100.699 15.1117 100.262 14.3389C99.8323 13.563 99.5663 12.707 99.4805 11.824C99.3131 9.86958 99.8215 7.91691 100.92 6.29309C101.43 5.55613 102.084 4.93084 102.843 4.45531C103.588 3.99193 104.423 3.69222 105.293 3.57599C107.202 3.34858 109.127 3.851 110.683 4.98291C111.4 5.50563 111.998 6.17378 112.439 6.94378C112.865 7.72388 113.128 8.5825 113.212 9.46745C113.31 10.4411 113.23 11.4245 112.975 12.3692V12.3692ZM111.113 11.8856C111.317 11.1327 111.397 10.3516 111.35 9.57297C111.313 8.90761 111.137 8.25751 110.832 7.66483C110.538 7.10143 110.121 6.61157 109.612 6.23153C109.051 5.82099 108.416 5.52245 107.742 5.35221C107.077 5.16784 106.381 5.11999 105.696 5.21152C105.071 5.29752 104.471 5.51963 103.94 5.86223C103.384 6.22769 102.911 6.70722 102.553 7.26915C101.738 8.58601 101.334 10.1172 101.394 11.6658C101.435 12.3317 101.614 12.9818 101.921 13.5739C102.219 14.1377 102.639 14.6275 103.15 15.0072C103.71 15.4145 104.342 15.7128 105.012 15.8865C105.68 16.069 106.378 16.1198 107.066 16.036C107.693 15.9567 108.294 15.734 108.822 15.3853C109.376 15.0174 109.849 14.5383 110.209 13.9783C110.62 13.3428 110.925 12.645 111.113 11.912V11.8856Z" fill="#B79763"/>
<path d="M121.331 22.2448L126.547 25.1817L125.783 26.5534L118.926 22.702L125.669 10.6113L127.302 11.5346L121.331 22.2448Z" fill="#B79763"/>
<path d="M147.908 26.8347L146.881 27.9691L141.955 23.4933L138.707 27.0897L142.912 30.906L141.894 32.0403L137.68 28.2153L133.685 32.6119L132.289 31.3456L141.587 21.084L147.908 26.8347Z" fill="#B79763"/>
<path d="M155.739 51.148L150.55 53.698L149.725 52.0185L162.157 45.9248L163.912 49.4421C164.263 50.1226 164.519 50.8472 164.676 51.5964C164.795 52.1766 164.795 52.7748 164.676 53.3551C164.569 53.8609 164.333 54.3304 163.991 54.718C163.632 55.1258 163.193 55.4551 162.701 55.6853C162.284 55.8981 161.832 56.0322 161.366 56.081C160.922 56.1325 160.473 56.0997 160.041 55.9842C159.595 55.8623 159.174 55.6661 158.794 55.4039C158.372 55.1091 157.997 54.7535 157.679 54.3487C157.654 54.6365 157.567 54.9154 157.424 55.1665L154.264 61.2162L153.535 59.7214C153.458 59.5877 153.417 59.436 153.417 59.2817C153.417 59.1273 153.458 58.9757 153.535 58.842L156.397 53.4342C156.48 53.2922 156.528 53.1325 156.538 52.9682C156.533 52.7675 156.478 52.5712 156.38 52.3966L155.739 51.148ZM156.959 50.55L157.837 52.3087C158.045 52.75 158.321 53.1564 158.653 53.5133C158.922 53.8077 159.248 54.0441 159.61 54.208C159.942 54.3513 160.303 54.4146 160.664 54.3927C161.047 54.3721 161.421 54.2702 161.761 54.0937C162.088 53.9605 162.377 53.7502 162.605 53.4807C162.833 53.2112 162.992 52.8906 163.07 52.5461C163.178 51.6926 163.002 50.8271 162.569 50.084L161.691 48.2374L156.959 50.55Z" fill="#B79763"/>
<path d="M171.92 74.3086L170.427 74.634L169.049 68.1182L164.554 69.0854L165.669 74.3614L164.238 74.6691L163.114 69.3932L158.496 70.3868L159.883 76.8938L158.391 77.2104L156.635 68.8568L170.173 65.9639L171.92 74.3086Z" fill="#B79763"/>
<path d="M170.63 93.2139C170.548 93.1637 170.474 93.1014 170.41 93.0293C170.361 92.9537 170.34 92.8638 170.349 92.7743C170.359 92.6327 170.418 92.4992 170.516 92.3962C170.651 92.2231 170.774 92.0409 170.884 91.851C171.039 91.5991 171.166 91.3307 171.262 91.0508C171.385 90.6854 171.447 90.3021 171.446 89.9165C171.464 89.5412 171.413 89.1657 171.297 88.8085C171.205 88.5101 171.056 88.2324 170.858 87.9908C170.673 87.7749 170.442 87.6036 170.182 87.4895C169.905 87.3679 169.606 87.305 169.304 87.3049C168.959 87.2901 168.617 87.3856 168.33 87.5775C168.062 87.7763 167.838 88.0276 167.671 88.3161C167.472 88.6505 167.308 89.004 167.179 89.3713L166.749 90.5848C166.603 91.001 166.436 91.4054 166.249 91.7982C166.071 92.1794 165.837 92.5321 165.555 92.8446C165.275 93.1596 164.931 93.4114 164.546 93.5832C164.089 93.7808 163.593 93.8682 163.097 93.8382C162.514 93.8328 161.936 93.7195 161.394 93.5041C160.877 93.2926 160.411 92.9751 160.024 92.572C159.635 92.144 159.336 91.6415 159.146 91.0948C158.921 90.4604 158.817 89.7892 158.839 89.1163C158.848 88.2761 159.03 87.4469 159.374 86.6806C159.696 85.9725 160.156 85.3358 160.727 84.8076L161.604 85.3704C161.676 85.4215 161.736 85.4875 161.78 85.5638C161.825 85.6379 161.85 85.7231 161.85 85.81C161.83 85.9846 161.749 86.1465 161.622 86.2673C161.473 86.4432 161.315 86.6542 161.13 86.9092C160.935 87.2052 160.77 87.5204 160.639 87.8501C160.474 88.2825 160.391 88.7415 160.393 89.2042C160.385 89.6092 160.442 90.0127 160.56 90.4001C160.664 90.7245 160.835 91.0239 161.06 91.2794C161.277 91.5231 161.544 91.7179 161.841 91.851C162.17 91.9876 162.522 92.0593 162.877 92.062C163.24 92.0796 163.599 91.9844 163.905 91.7894C164.182 91.5977 164.416 91.3489 164.589 91.0596C164.792 90.7284 164.954 90.3742 165.072 90.0044L165.476 88.7909C165.614 88.3803 165.775 87.9781 165.959 87.5863C166.133 87.2026 166.367 86.8494 166.653 86.5399C166.946 86.222 167.306 85.9728 167.706 85.81C168.197 85.6125 168.723 85.5225 169.251 85.5462C169.739 85.5547 170.22 85.6624 170.665 85.8628C171.123 86.0676 171.533 86.3673 171.868 86.7421C172.231 87.1329 172.512 87.5936 172.693 88.0963C172.903 88.6854 173.002 89.3087 172.983 89.934C172.978 90.6572 172.838 91.373 172.57 92.0444C172.326 92.6679 171.955 93.2338 171.481 93.7063L170.63 93.2139Z" fill="#B79763"/>
<path d="M161.096 116.323C160.148 116.074 159.255 115.651 158.462 115.075C157.751 114.549 157.153 113.885 156.706 113.123C156.263 112.366 155.985 111.524 155.889 110.652C155.716 108.739 156.254 106.829 157.399 105.288C157.935 104.592 158.611 104.017 159.384 103.6C160.172 103.187 161.035 102.939 161.921 102.87C162.892 102.794 163.868 102.898 164.8 103.178C165.748 103.428 166.64 103.852 167.434 104.426C168.145 104.952 168.742 105.616 169.19 106.378C169.632 107.136 169.91 107.977 170.007 108.849C170.114 109.797 170.031 110.757 169.761 111.672C169.511 112.594 169.081 113.457 168.497 114.213C167.958 114.909 167.279 115.484 166.504 115.901C165.716 116.313 164.853 116.562 163.966 116.631C162.999 116.702 162.026 116.598 161.096 116.323V116.323ZM161.622 114.477C162.365 114.698 163.14 114.793 163.914 114.758C164.581 114.735 165.235 114.573 165.837 114.283C166.401 113.992 166.897 113.584 167.294 113.087C167.705 112.533 168.003 111.902 168.172 111.232C168.37 110.568 168.432 109.872 168.356 109.183C168.282 108.559 168.072 107.959 167.742 107.425C167.386 106.859 166.916 106.374 166.363 106C165.714 105.569 165 105.245 164.247 105.042C163.505 104.82 162.73 104.725 161.956 104.76C161.291 104.787 160.64 104.952 160.042 105.244C159.477 105.534 158.982 105.945 158.593 106.449C158.184 107.002 157.886 107.629 157.715 108.295C157.511 108.96 157.445 109.661 157.522 110.353C157.589 110.977 157.796 111.579 158.128 112.111C158.487 112.672 158.956 113.154 159.506 113.527C160.17 113.959 160.9 114.28 161.666 114.477H161.622Z" fill="#B79763"/>
<path d="M154.642 126.849L149.708 123.833L150.683 122.241L162.5 129.46L160.463 132.802C160.069 133.462 159.588 134.065 159.032 134.596C158.608 135.007 158.107 135.329 157.557 135.545C157.071 135.719 156.55 135.774 156.038 135.704C155.503 135.613 154.99 135.418 154.528 135.132C154.129 134.903 153.772 134.605 153.475 134.253C153.198 133.904 152.987 133.508 152.851 133.083C152.713 132.64 152.651 132.176 152.667 131.711C152.691 131.196 152.788 130.687 152.957 130.199C152.701 130.334 152.42 130.412 152.131 130.428L145.336 131.008L146.214 129.592C146.282 129.458 146.387 129.346 146.516 129.269C146.645 129.191 146.792 129.151 146.943 129.153L153.036 128.66C153.201 128.648 153.362 128.603 153.51 128.528C153.668 128.41 153.799 128.261 153.896 128.089L154.642 126.849ZM155.801 127.552L154.783 129.232C154.521 129.644 154.325 130.095 154.203 130.568C154.099 130.955 154.075 131.359 154.133 131.755C154.193 132.111 154.334 132.448 154.546 132.74C154.769 133.049 155.053 133.31 155.38 133.505C155.67 133.709 156.005 133.841 156.356 133.888C156.708 133.936 157.065 133.898 157.399 133.778C158.159 133.397 158.775 132.78 159.155 132.019L160.217 130.261L155.801 127.552Z" fill="#B79763"/>
<path d="M143.65 153.228L142.535 152.112L145.696 148.946L137.021 140.258L138.347 138.931L147.021 147.618L150.2 144.444L151.315 145.552L143.65 153.228Z" fill="#B79763"/>
<path d="M120.848 158.759C121.044 159.199 121.148 159.675 121.156 160.157C121.155 160.622 121.071 161.084 120.91 161.52C120.738 161.949 120.488 162.343 120.172 162.681C119.846 163.029 119.451 163.308 119.013 163.498C118.573 163.693 118.098 163.794 117.617 163.797C116.682 163.799 115.781 163.444 115.098 162.804C114.746 162.475 114.466 162.077 114.274 161.636C114.082 161.194 113.983 160.718 113.983 160.236C113.978 159.772 114.064 159.312 114.237 158.882C114.409 158.452 114.659 158.059 114.975 157.721C115.302 157.37 115.7 157.091 116.142 156.903C116.578 156.706 117.051 156.604 117.53 156.604C118.458 156.605 119.352 156.957 120.032 157.589C120.385 157.916 120.663 158.315 120.848 158.759V158.759Z" fill="#B79763"/>
<path d="M94.3346 174.991H92.7806C92.6291 174.998 92.48 174.951 92.3592 174.859C92.2563 174.776 92.1824 174.662 92.1484 174.534L89.4531 164.861C89.4531 164.685 89.3653 164.501 89.3214 164.298L89.216 163.665C89.1634 163.885 89.1195 164.096 89.0669 164.298C89.027 164.487 88.9742 164.672 88.9088 164.852L85.4847 174.428C85.4329 174.547 85.3512 174.65 85.2477 174.727C85.1314 174.821 84.9842 174.868 84.835 174.859H84.2995C84.1507 174.865 84.0046 174.818 83.8869 174.727C83.784 174.642 83.7078 174.529 83.6674 174.402L80.6033 164.729C80.4788 164.353 80.3819 163.968 80.3135 163.577C80.3135 163.788 80.2345 163.991 80.1994 164.184C80.1641 164.366 80.1172 164.545 80.059 164.721L77.0212 174.305C76.9857 174.43 76.9081 174.539 76.8017 174.613C76.6838 174.703 76.537 174.747 76.3891 174.736H74.9316L79.4883 160.948H81.1652L84.4926 171.526C84.5541 171.729 84.6156 171.966 84.6683 172.23C84.7034 172.095 84.7385 171.972 84.7736 171.861C84.7981 171.75 84.8304 171.641 84.8702 171.535L88.5752 161.027H90.2521L94.3346 174.991Z" fill="#B79763"/>
<path d="M53.3166 161.16C53.6279 160.236 54.1071 159.377 54.7301 158.627C55.2937 157.94 55.9932 157.378 56.7846 156.974C57.5641 156.575 58.4208 156.35 59.2955 156.315C60.2481 156.276 61.1992 156.422 62.0961 156.746C63.0006 157.051 63.836 157.532 64.5545 158.161C65.2144 158.736 65.7417 159.447 66.0997 160.245C66.4648 161.056 66.6619 161.933 66.6792 162.822C66.6903 163.796 66.5267 164.764 66.1962 165.68C65.8876 166.603 65.4114 167.462 64.7915 168.212C64.2256 168.899 63.5267 169.464 62.737 169.874C61.9531 170.271 61.0946 170.499 60.2173 170.542C58.2929 170.606 56.414 169.948 54.9495 168.696C54.2882 168.117 53.7584 167.404 53.3956 166.603C53.0293 165.79 52.835 164.91 52.825 164.018C52.8117 163.043 52.9783 162.074 53.3166 161.16V161.16ZM55.134 161.793C54.8678 162.527 54.7225 163.299 54.7038 164.079C54.6919 164.745 54.8143 165.406 55.0637 166.023C55.3139 166.609 55.6918 167.132 56.1699 167.553C56.6803 168.01 57.2775 168.36 57.9258 168.581C58.5747 168.818 59.2642 168.922 59.954 168.889C60.5892 168.858 61.2096 168.687 61.7713 168.388C62.3762 168.086 62.9092 167.657 63.3341 167.13C63.8056 166.511 64.1733 165.819 64.4227 165.082C64.6905 164.352 64.8329 163.582 64.8441 162.804C64.8612 162.137 64.7355 161.475 64.4755 160.861C64.2273 160.276 63.849 159.756 63.3692 159.34C62.8564 158.888 62.2598 158.541 61.6133 158.32C60.961 158.083 60.2698 157.973 59.5764 157.994C58.9438 158.024 58.3259 158.196 57.7679 158.496C57.1854 158.82 56.6746 159.26 56.2665 159.788C55.7827 160.39 55.4003 161.068 55.134 161.793V161.793Z" fill="#B79763"/>
<path d="M45.7759 150.669L40.8066 147.319L41.6845 146.009L48.2078 150.405L40.4817 161.907L38.9277 160.861L45.7759 150.669Z" fill="#B79763"/>
<path d="M34.01 138.992L35.3357 140.32L25.5816 150.107L24.2559 148.779L34.01 138.992Z" fill="#B79763"/>
<path d="M15.1612 137.937C15.1636 137.811 15.1873 137.686 15.2314 137.568L19.7705 125.196L19.3754 125.486L18.9979 125.741L10.71 131.017L9.83203 129.628L21.5264 122.215L22.0356 123.024C22.1083 123.128 22.1536 123.249 22.1673 123.376C22.1761 123.507 22.1551 123.64 22.1059 123.762L17.5756 136.117L17.9618 135.844L18.313 135.607L26.6449 130.331L27.5228 131.72L15.8284 139.124L15.3105 138.306C15.2332 138.196 15.1821 138.07 15.1612 137.937Z" fill="#B79763"/>
<path d="M9.22589 104.699C8.75023 104.778 8.26333 104.76 7.79482 104.646C7.34437 104.536 6.91859 104.342 6.5394 104.074C6.16348 103.806 5.84167 103.469 5.59113 103.081C5.33163 102.677 5.15725 102.225 5.07874 101.752C5.00023 101.279 5.01922 100.794 5.13458 100.328C5.24273 99.8766 5.43648 99.4497 5.70527 99.071C5.97647 98.6944 6.31602 98.3722 6.70616 98.1213C7.10888 97.8566 7.56422 97.6826 8.04067 97.6113C8.51249 97.5244 8.99739 97.5394 9.46296 97.6553C9.91265 97.7646 10.3364 97.9618 10.7097 98.2356C11.0857 98.5072 11.4074 98.8473 11.6579 99.2381C11.9145 99.6426 12.0872 100.095 12.1656 100.568C12.2441 101.041 12.2267 101.524 12.1144 101.99C12.0024 102.438 11.809 102.861 11.5437 103.239C11.2757 103.613 10.939 103.932 10.5516 104.18C10.1508 104.444 9.69914 104.62 9.22589 104.699Z" fill="#B79763"/>
</svg>
