<svg width="104" height="17" viewBox="0 0 104 17" fill="none" xmlns="http://www.w3.org/2000/svg">
<path fill-rule="evenodd" clip-rule="evenodd" d="M63.5282 12.303C63.5172 12.3144 63.5037 12.3229 63.4888 12.3278C63.4739 12.3328 63.458 12.334 63.4426 12.3314C63.4246 12.3304 63.4072 12.3252 63.3914 12.3163C63.3757 12.3073 63.3622 12.2949 63.3519 12.2798C62.4276 10.9222 61.3195 10.0576 59.3651 9.6731C61.7149 11.3635 62.3571 14.2051 61.7426 16.8994C61.7359 16.9261 61.7208 16.9497 61.6996 16.9666C61.6784 16.9835 61.6523 16.9926 61.6255 16.9926C61.5986 16.9926 61.5725 16.9835 61.5513 16.9666C61.5301 16.9497 61.515 16.9261 61.5084 16.8994C60.7528 13.947 58.1159 10.9971 55.0509 9.85636C54.7913 10.4639 54.3646 10.9806 53.8229 11.3436C53.2813 11.7065 52.6481 11.8997 52.001 11.8997C51.3538 11.8997 50.7207 11.7065 50.179 11.3436C49.6373 10.9806 49.2106 10.4639 48.951 9.85636C45.886 10.9971 43.2567 13.947 42.4935 16.8994C42.4871 16.9263 42.4718 16.9499 42.4502 16.9664C42.4286 16.9829 42.4021 16.9912 42.3752 16.9898C42.3481 16.9898 42.3219 16.9804 42.3008 16.963C42.2797 16.9456 42.2651 16.9214 42.2593 16.8943C41.6448 14.1948 42.287 11.3532 44.6368 9.66796C42.6824 10.0525 41.5743 10.9171 40.65 12.2746C40.6397 12.2897 40.6262 12.3022 40.6105 12.3111C40.5948 12.3201 40.5773 12.3252 40.5593 12.3262C40.5439 12.3288 40.528 12.3276 40.5131 12.3226C40.4983 12.3177 40.4847 12.3092 40.4737 12.2978C38.311 10.3588 35.5244 9.30892 32.6512 9.35049H1.8371C1.7236 9.35688 1.61003 9.3395 1.50331 9.29939C1.3966 9.25928 1.29898 9.1973 1.21643 9.11723C1.13388 9.03716 1.06813 8.94068 1.02319 8.83369C0.978255 8.7267 0.955078 8.61144 0.955078 8.49496C0.955078 8.37848 0.978255 8.26321 1.02319 8.15622C1.06813 8.04923 1.13388 7.95275 1.21643 7.87268C1.29898 7.79261 1.3966 7.73063 1.50331 7.69052C1.61003 7.65041 1.7236 7.633 1.8371 7.63939H32.6512C35.5244 7.68096 38.311 6.63107 40.4737 4.69209C40.4853 4.68162 40.4989 4.67369 40.5136 4.66881C40.5284 4.66393 40.5439 4.6622 40.5593 4.66371C40.5773 4.66469 40.5948 4.66985 40.6105 4.6788C40.6262 4.68774 40.6397 4.70022 40.65 4.71531C41.5743 6.07283 42.6824 6.93741 44.6368 7.32195C42.287 5.6315 41.6448 2.79 42.2593 0.0955999C42.266 0.0689528 42.2811 0.0453304 42.3023 0.028464C42.3235 0.0115977 42.3496 0.00244141 42.3764 0.00244141C42.4033 0.00244141 42.4294 0.0115977 42.4506 0.028464C42.4718 0.0453304 42.4869 0.0689528 42.4935 0.0955999C43.2491 3.04808 45.886 5.99541 48.951 7.13614C49.2106 6.52865 49.6373 6.01185 50.179 5.64894C50.7207 5.28604 51.3538 5.09277 52.001 5.09277C52.6481 5.09277 53.2813 5.28604 53.8229 5.64894C54.3646 6.01185 54.7913 6.52865 55.0509 7.13614C58.1159 5.99541 60.7478 3.04808 61.5084 0.0955999C61.5151 0.0687825 61.5305 0.0450536 61.5519 0.028212C61.5734 0.0113704 61.5997 0.0023914 61.6267 0.00269344C61.6538 0.00264854 61.68 0.0120977 61.7011 0.0294722C61.7222 0.0468467 61.7368 0.0710968 61.7426 0.0981833C62.3571 2.79774 61.7149 5.63925 59.3651 7.32454C61.3195 6.93999 62.4276 6.07542 63.3519 4.71789C63.3622 4.7028 63.3757 4.69032 63.3914 4.68138C63.4072 4.67244 63.4246 4.66728 63.4426 4.66629C63.458 4.66478 63.4735 4.66651 63.4883 4.67139C63.503 4.67628 63.5166 4.6842 63.5282 4.69468C65.6911 6.63322 68.4775 7.68305 71.3507 7.64198H102.165C102.278 7.63558 102.392 7.653 102.499 7.69311C102.605 7.73322 102.703 7.79519 102.785 7.87527C102.868 7.95534 102.934 8.05181 102.979 8.1588C103.024 8.2658 103.047 8.38106 103.047 8.49754C103.047 8.61402 103.024 8.72928 102.979 8.83628C102.934 8.94327 102.868 9.03974 102.785 9.11981C102.703 9.19989 102.605 9.26187 102.499 9.30197C102.392 9.34208 102.278 9.35946 102.165 9.35307H71.3507C68.4775 9.312 65.6911 10.3619 63.5282 12.3004V12.303ZM52.001 7.3142C51.7718 7.3142 51.5478 7.38384 51.3573 7.51429C51.1668 7.64474 51.0183 7.83016 50.9306 8.04709C50.8429 8.26402 50.82 8.50271 50.8647 8.733C50.9094 8.9633 51.0197 9.17485 51.1818 9.34088C51.3438 9.50691 51.5502 9.61998 51.7749 9.66579C51.9997 9.71159 52.2326 9.68806 52.4443 9.59821C52.656 9.50835 52.8369 9.35619 52.9642 9.16096C53.0915 8.96573 53.1595 8.73622 53.1595 8.50142C53.1595 8.18655 53.0374 7.88459 52.8201 7.66195C52.6029 7.43931 52.3082 7.3142 52.001 7.3142Z" fill="#B79763"/>
</svg>
