<svg width="76" height="13" viewBox="0 0 76 13" fill="none" xmlns="http://www.w3.org/2000/svg">
<g clip-path="url(#clip0_12_561)">
<path d="M0 0V2.01869H2.44763H7.83704V0H0Z" fill="white"/>
<path d="M0 5.89515V7.91384L2.13106 5.89515H2.44763H7.83704V3.87646H0V5.89515Z" fill="white"/>
<path d="M14.8017 7.16765C14.8017 8.77674 14.269 9.43501 13.0259 9.43501C11.9449 9.43501 11.5588 8.79137 11.5588 7.48947V3.01324H9.26562V7.88443C9.26562 9.8446 9.88332 11.1465 12.3232 11.1465C13.2961 11.1465 14.2921 10.7296 14.879 9.82997H14.9253V10.9344H17.1104V3.01324H14.8172V7.16765H14.8017Z" fill="white"/>
<path d="M23.2872 2.80151C22.3143 2.80151 21.3182 3.21842 20.7314 4.11805H20.6851V3.01362H18.5V10.9275H20.7932V6.78038C20.7932 5.17128 21.326 4.51301 22.5691 4.51301C23.6501 4.51301 24.0361 5.15665 24.0361 6.45856V10.9275H26.3293V6.0636C26.3371 4.10342 25.7271 2.80151 23.2872 2.80151Z" fill="white"/>
<path d="M35.6643 3.0134H32.9465L30.051 5.8659V0H27.7578V10.9272H30.051V8.2064L30.9467 7.39454L33.2399 10.9272H36.0195L32.5141 5.92441L35.6643 3.0134Z" fill="white"/>
<path d="M39.7338 0.643799H37.4406V3.01356H36.0508V4.46907H37.4406V9.14277C37.4406 10.7372 38.6528 11.0225 40.0735 11.0225C40.5291 11.0225 41.0232 11.0079 41.417 10.9493V9.25248C41.2085 9.29636 40.9615 9.31099 40.7067 9.31099C39.9345 9.31099 39.7338 9.12814 39.7338 8.38942V4.46907H41.417V3.01356H39.7338V0.643799Z" fill="white"/>
<path d="M45.1252 3.01367H42.832V10.9275H45.1252V3.01367Z" fill="white"/>
<path d="M45.1252 0H42.832V1.79195H45.1252V0Z" fill="white"/>
<path d="M50.4724 2.80151C47.8549 2.80151 46.1562 4.4545 46.1562 6.97786C46.1562 9.48659 47.8549 11.1396 50.4724 11.1396C53.1053 11.1396 54.804 9.48659 54.804 6.97786C54.804 4.4545 53.1131 2.80151 50.4724 2.80151ZM50.4724 9.50853C48.9204 9.50853 48.4495 8.25051 48.4495 6.98517C48.4495 5.71252 48.9204 4.44718 50.4724 4.44718C52.0398 4.44718 52.5108 5.71983 52.5108 6.98517C52.5108 8.25051 52.0398 9.50853 50.4724 9.50853Z" fill="white"/>
<path d="M60.502 2.80078C59.5291 2.80078 58.5331 3.21768 57.9463 4.11732H57.9V3.01289H55.7148V10.9267H58.0081V6.77964C58.0081 5.17054 58.5408 4.51228 59.7839 4.51228C60.8649 4.51228 61.251 5.15592 61.251 6.45782V10.9267H63.5442V6.06286C63.5596 4.10269 62.9419 2.80078 60.502 2.80078Z" fill="white"/>
<path d="M72.2939 5.05425C72.2939 3.15259 70.2864 2.80151 68.6263 2.80151C66.7501 2.80151 64.8275 3.43053 64.6962 5.44921H66.9894C67.0666 4.59346 67.6225 4.25702 68.5105 4.25702C69.3212 4.25702 70.0007 4.41061 70.0007 5.33219C70.1011 7.10951 64.4723 5.17859 64.4414 8.77712C64.4414 10.4008 65.6845 11.1469 67.2828 11.1469C68.3175 11.1469 69.3675 10.8836 70.0933 10.1668C70.1088 10.4301 70.1706 10.6861 70.2555 10.9348H72.5796C72.3711 10.613 72.2862 9.89618 72.2862 9.17208V5.05425H72.2939ZM70.0007 7.87018C70.0007 8.36022 69.9389 9.69138 68.1399 9.69138C67.3986 9.69138 66.7346 9.47927 66.7346 8.68204C66.7346 7.8848 67.3832 7.64344 68.0935 7.5191C68.8039 7.39476 69.6146 7.38013 70.0007 7.05831V7.87018Z" fill="white"/>
<path d="M76.0002 0H73.707V10.9272H76.0002V0Z" fill="white"/>
</g>
<defs>
<clipPath id="clip0_12_561">
<rect width="76" height="12.16" fill="white"/>
</clipPath>
</defs>
</svg>
