<svg xmlns="http://www.w3.org/2000/svg" width="88" height="88"><defs><style>.cls-2{fill:#b99665}</style></defs><g id="Group_1280" data-name="Group 1280" transform="translate(-1058 -1075)"><g id="Ellipse_141" data-name="Ellipse 141" transform="translate(1058 1075)" fill="transparent" stroke="#b99665" stroke-width="2"><circle cx="44" cy="44" r="44" stroke="none"/><circle cx="44" cy="44" r="43" fill="none"/></g><g id="Group_1253" data-name="Group 1253" transform="translate(648.489 766.135)"><path id="Path_1684" d="M504.1 420.1h-27.192a1.011 1.011 0 110-2.021H504.1a1.011 1.011 0 110 2.021z" class="cls-2" data-name="Path 1684" transform="translate(-35.568 -74.839)"/><path id="Path_1685" d="M483.845 562.812a2.242 2.242 0 002.3-2.579v-9.023a1.047 1.047 0 00-1.145-1.041 1.076 1.076 0 00-.943 1.086v8.977a.5.5 0 01-.508.514h-33.323a.5.5 0 01-.507-.514v-6.886a1.077 1.077 0 00-.943-1.086 1.047 1.047 0 00-1.149 1.041v6.931a2.242 2.242 0 002.3 2.579z" class="cls-2" data-name="Path 1685" transform="translate(-12.402 -183.206)"/><path id="Path_1686" d="M449.722 339.692v6a1.045 1.045 0 11-2.09 0v-6.084a2.039 2.039 0 01.6-1.351l9.9-11.052a1.065 1.065 0 01.9-.339h24.818a2.362 2.362 0 012.3 2.414v16.41a1.046 1.046 0 11-2.092 0v-16.411c0-.184-.11-.323-.209-.323h-22.391v10.97a1.017 1.017 0 01-1.087.965h-8.12v-2.021h7.186v-10.027l-9.714 10.848z" class="cls-2" data-name="Path 1686" transform="translate(-12.407)"/><path id="Path_1687" d="M457.07 460.188c-.249.2-.5.415-.754.627-1.089.909-3.121 2.616-3.719 2.533 0 0-1.042-.474-1.08-.53 0-.061 3.135-2.627 3.135-2.627a5.08 5.08 0 00.8-.963c.027-.022.842-.573 1.347-.11l.3.272a.512.512 0 01.186.4.546.546 0 01-.213.4zm-9.061 2.508a.924.924 0 01-.84-.132 1.77 1.77 0 01-.7-.822l5.715-4.2a1.015 1.015 0 011.1-.02.633.633 0 01.337.505.6.6 0 01-.256.51l-5.362 4.159zm-3.78-1.922a1.429 1.429 0 01-1.446-.986s3.11-2.486 3.223-2.6a13.774 13.774 0 012.086-1.284 1.326 1.326 0 011 .335.6.6 0 01.1.907s-4.913 3.618-4.963 3.627zm-4.087-1.81a.952.952 0 01-1.327-.134c-.294-.333-.364-.546-.357-.613a.477.477 0 01.171-.222c.074-.059.66-.5 4.487-3.319a1.084 1.084 0 011.379.108.655.655 0 01-.1 1.04l-4.255 3.142zm34.793-13.285a1.047 1.047 0 00-1.462-.22l-1.127.831a2.191 2.191 0 00-.68.824 27.318 27.318 0 01-2.436 4.03.11.11 0 01-.02.027c-.061-.067-4.381-2.993-4.987-3.4a5.051 5.051 0 00.736-.312 1.046 1.046 0 10-.972-1.852 3.082 3.082 0 01-.644.247c-2.511.671-6.674-1.006-8.064-1.709a1.057 1.057 0 00-.539-.11c-4.83.305-7.17-.182-7.554-.573-.2-.2-.38-.834.429-.891.26-.052 1.83-.184 3.213-.3 3.265-.278 5.639-.49 6.422-.678.546-.13 1.013-.267 1.446-.393a11.753 11.753 0 011.657-.4 30.309 30.309 0 015.715.209 1.057 1.057 0 00.865-.175l1.332-.981a1.046 1.046 0 10-1.242-1.684l-.99.73a29.885 29.885 0 00-5.973-.168 14.087 14.087 0 00-1.952.465c-.4.119-.837.247-1.348.368s-2.483.312-4.345.476a1.052 1.052 0 00-.3-.276 6.549 6.549 0 00-2.661-1.262 51.957 51.957 0 00-6.761.126l-1.394-.9a1.046 1.046 0 00-1.137 1.756l1.7 1.1a1.043 1.043 0 00.809.139c.417-.056 4.466-.18 4.428-.168-2.817.77-2.687 3.055-1.415 4.379 1.071 1.091 4.067 1.5 8.91 1.217a21.135 21.135 0 006.422 1.909c.074.124 9.541 6.463 9.6 6.508.525.4.151 1.077-.256 1.608a1.348 1.348 0 01-1.841.33l-8.192-5.892a1.047 1.047 0 10-1.221 1.7l6.669 4.794c-.328 1.523-1.241 1.972-1.985 1.911-.133-.013-6.714-4.924-6.714-4.924a1.045 1.045 0 00-1.251 1.675l5.587 4.179v.006a2.013 2.013 0 01-.835 1.383 1.245 1.245 0 01-1.72-.013 2.025 2.025 0 00.367-1.543 4.97 4.97 0 00-1.235-2.1c-.9-.674-1.5-1.151-2.576-.83a2.879 2.879 0 00-1.073-1.127 3.1 3.1 0 00-3.126-.034 3.014 3.014 0 00-.705-.975 3.422 3.422 0 00-2.573-.887 4.862 4.862 0 00-1.3.552 2.906 2.906 0 00-.709-1.107 3.176 3.176 0 00-4.06-.274c-.629.463-1.173.862-1.639 1.208a28.854 28.854 0 01-3.865-5.324 2.439 2.439 0 00-.817-.867l-1.431-.927a1.045 1.045 0 00-1.139 1.754l1.433.93a.384.384 0 01.13.137 35.225 35.225 0 003.981 5.558c-1.157.856-1.213.9-1.249.934a2.418 2.418 0 00-.912 1.68 2.955 2.955 0 00.878 2.142 2.994 2.994 0 002.293 1.049 6.333 6.333 0 001.442-.362c.92 2.5 3.644 1.927 3.685 1.918a3.941 3.941 0 001.3 1.457 3.021 3.021 0 003.031.267c.068-.033.772-.57.772-.57a3.963 3.963 0 002.172 1.361c1.622.54 3.7-1.237 5.309-2.578.616.392 2.378 1.934 4.6.229a4.44 4.44 0 001.451-1.94 3.962 3.962 0 004.314-2.665 3.435 3.435 0 004.41-.948c1.184-1.545 1.378-3.394-.137-4.543-.045-.036-.1-.079-.907-.6a35.169 35.169 0 002.6-4.314l1.125-.828a1.05 1.05 0 00.22-1.464z" class="cls-2" data-name="Path 1687" transform="translate(0 -90.808)"/></g></g></svg>