<svg xmlns="http://www.w3.org/2000/svg" width="88" height="88"><g data-name="Group 1281"><g data-name="Ellipse 133" fill="transparent" stroke="#b99665" stroke-width="2"><circle cx="44" cy="44" r="44" stroke="none"/><circle cx="44" cy="44" r="43" fill="none"/></g><path d="M32.369 70.618a1 1 0 01-1-1v-31.3a1.008 1.008 0 01.656-.937l9.709-3.567a.824.824 0 00.457-.43.834.834 0 00.021-.646.843.843 0 00-.791-.573.848.848 0 00-.3.056c-.1.034-9.869 3.427-14.619 4.106-.06.01-.193.021-.378.036h-.023l-.074.007c-5.536.433-5.985 1.391-6 1.431v14.775c.017.65.1 1.253.563 1.26.69-.021.819-.12.9-1.325v-9.649a1 1 0 011-1 1 1 0 011 1v9.715a4.739 4.739 0 01-.453 1.975 2.582 2.582 0 01-2.382 1.285h-.158c-1.763 0-2.428-1.676-2.463-3.243V38.05a1.989 1.989 0 01.406-1.5c1.219-1.6 4.94-1.939 6.94-2.123l.078-.007c.3-.028.565-.053.771-.078 4.571-.653 14.125-3.976 14.221-4.009a2.745 2.745 0 01.973-.177 2.858 2.858 0 012.658 1.832 2.86 2.86 0 01-.062 2.226 2.824 2.824 0 01-1.573 1.468l-9.063 3.332v30.6a1 1 0 01-1.014 1.004zm-5.217 0a1 1 0 01-1-1V56.949a1 1 0 011-1 1 1 0 011 1v12.669a1 1 0 01-1 1zm-5 0a1 1 0 01-1-1V58.671a1 1 0 011-1 1 1 0 011 1v10.947a1 1 0 01-.999 1zM66.359 42.67H39.021a1 1 0 01-1-1 1 1 0 011-1h27.338a1.334 1.334 0 001.333-1.333v-18a1.334 1.334 0 00-1.333-1.333H62.5v-2h3.859a3.338 3.338 0 013.332 3.336v18a3.336 3.336 0 01-3.331 3.33zm-40.011-9.985a5.077 5.077 0 01-5.07-5.071 5.078 5.078 0 015.07-5.075 5.08 5.08 0 015.075 5.075 5.079 5.079 0 01-5.073 5.071zm0-8.146a3.077 3.077 0 00-3.071 3.075 3.075 3.075 0 003.071 3.071 3.077 3.077 0 003.076-3.071 3.079 3.079 0 00-3.074-3.076zm10.341 3.131a1 1 0 01-1-1v-5.335a3.339 3.339 0 013.335-3.336H48.5v2h-9.476a1.334 1.334 0 00-1.333 1.333v5.335a1 1 0 01-1.001 1.002z" data-name="Subtraction 3" fill="#b99665" stroke="transparent" stroke-miterlimit="10"/></g></svg>