<svg xmlns="http://www.w3.org/2000/svg" width="88" height="88"><defs><style>.cls-1{fill:transparent;stroke-width:2px}.cls-1,.cls-3{stroke:#b99665}.cls-3,.cls-5{fill:none}.cls-3{stroke-linecap:round;stroke-width:2.2px}.cls-4{stroke:none}</style></defs><g id="Group_1282" data-name="Group 1282" transform="translate(-450 -1370)"><g id="Ellipse_146" class="cls-1" data-name="Ellipse 146" transform="translate(450 1370)"><circle cx="44" cy="44" r="44" class="cls-4"/><circle cx="44" cy="44" r="43" class="cls-5"/></g><g id="Group_1261" data-name="Group 1261" transform="translate(-639 -49)"><g id="Rectangle_704" class="cls-1" data-name="Rectangle 704" transform="translate(1149 1474)"><path d="M0 0h2v5H0z" class="cls-4"/><rect height="3" x="1" y="1" class="cls-5"/></g><g id="Group_1257" data-name="Group 1257"><path id="Subtraction_2" d="M-10595.266-13778.1a1.151 1.151 0 01-1.149-1.149v-14.211h-.757a3.962 3.962 0 01-3.825-3.964v-10.389c0-3.5 3.248-6.342 7.248-6.346h13.02v-1.926a1.153 1.153 0 011.107-1.191h16.1a1.11 1.11 0 011.069 1.191v20.7a1.068 1.068 0 01-1.069 1.135h-15.353v14.458a1.152 1.152 0 01-1.148 1.152 1.151 1.151 0 01-1.149-1.149v-13.666h-12.939v14.208a1.153 1.153 0 01-1.155 1.147zm1.514-33.768a5.481 5.481 0 00-3.476 1.189 3.691 3.691 0 00-1.439 2.858v10.389a1.662 1.662 0 001.548 1.673h15.856a2.01 2.01 0 002-2 2.023 2.023 0 00-2.023-2.065h-13.53a1.157 1.157 0 01-1.163-1.148v-6.6a1.157 1.157 0 011.163-1.148 1.159 1.159 0 011.166 1.148v5.45h12.919v-9.744zm15.395 2.184c0 .353 0 8.63-.011 8.675a4.286 4.286 0 011.437 3.189 4.275 4.275 0 01-.163 1.19h12.507v-13.059h-.011v-2.132h.006v-3.089h-.011v-.094h-13.752v.094h-.007v3.085h.007v2.139zm-9.948-5.8a7.769 7.769 0 01-7.762-7.759 7.77 7.77 0 017.762-7.761 7.768 7.768 0 017.758 7.761 7.767 7.767 0 01-7.759 7.761zm0-13.219a5.466 5.466 0 00-5.46 5.46 5.467 5.467 0 005.46 5.461 5.467 5.467 0 005.46-5.461 5.466 5.466 0 00-5.461-5.457z" data-name="Subtraction 2" transform="translate(11715 15268)" fill="#b99665" stroke="transparent" stroke-miterlimit="10"/><path id="Line_229" d="M0 0h8" class="cls-3" data-name="Line 229" transform="translate(1139.5 1456.5)"/><path id="Line_230" d="M0 0h8" class="cls-3" data-name="Line 230" transform="translate(1139.5 1460.5)"/><path id="Line_231" d="M0 0h8" class="cls-3" data-name="Line 231" transform="translate(1139.5 1464.5)"/></g><g id="Ellipse_144" class="cls-1" data-name="Ellipse 144" transform="translate(1145 1467)"><circle cx="5" cy="5" r="5" class="cls-4"/><circle cx="5" cy="5" r="4" class="cls-5"/></g></g></g></svg>