<svg width="14" height="16" viewBox="0 0 14 16" fill="none" xmlns="http://www.w3.org/2000/svg">
<path d="M13.9949 15.5H11.0961V10.6278C11.0961 9.46574 11.0767 7.97017 9.58851 7.97017C8.07886 7.97017 7.84767 9.23614 7.84767 10.5428V15.4991H4.94922V5.48026H7.73187V6.84928H7.77103C8.33742 5.80975 9.39481 5.18603 10.5166 5.23077C13.4547 5.23077 13.9962 7.30486 13.9962 10.0031L13.9949 15.5Z" fill="#C91517"/>
<path d="M1.68231 4.11079C0.759249 4.11079 0 3.29589 0 2.30562C0 1.3149 0.759249 0.5 1.68231 0.5C2.60495 0.5 3.36419 1.3149 3.36462 2.30517C3.36462 2.30517 3.36462 2.30517 3.36462 2.30562C3.36419 3.29589 2.60495 4.11079 1.68231 4.11079Z" fill="#C91517"/>
<path d="M3.13229 5.48047H0.230469V15.5002H3.13229V5.48047Z" fill="#C91517"/>
</svg>
