<svg width="113" height="144" viewBox="0 0 113 144" fill="none" xmlns="http://www.w3.org/2000/svg">
<path d="M98.9331 134.618C90.5641 138.169 81.4974 140.028 72.3346 140.028C34.8204 140.028 4.29689 109.508 4.29689 71.9903C4.29689 34.4727 34.8169 3.95264 72.3346 3.95264C85.1818 3.95264 97.6064 7.52362 108.412 14.2978C109.691 13.6689 110.993 13.0605 112.32 12.4694L112.351 12.4213C100.504 4.45099 86.6666 0.237305 72.3311 0.237305C32.7685 0.237305 0.578125 32.4277 0.578125 71.9903C0.578125 111.553 32.7685 143.743 72.3311 143.743C84.601 143.743 96.7128 140.592 107.354 134.629L107.347 134.615H98.9331V134.618Z" fill="#0B345A"/>
</svg>
