<svg class="plot-sectors__svg" viewBox="0 0 1920 1121" fill="none" xmlns="http://www.w3.org/2000/svg">
    <g id="Map_Full-Area-Step-1_1920">
        <g id="Map Fields Main">
            <g id="Frame" opacity="1">
                <path id="Subtract" fill-rule="evenodd" clip-rule="evenodd" d="M673 879.5L770.5 846L781 841.5L976.28 775.939L1061.17 802.937L1068.14 800.245L1219.31 848.798L1216.88 850.29L1325.43 884.829L1494.71 785.209L986 671.5L941.5 674L919 673.5L524 700L497.5 708.5L373 740L673 879.5ZM943 683C943.167 681.167 943.9 677.5 945.5 677.5C946.451 675.915 947.402 675.67 948.098 675.49C948.5 675.387 948.817 675.305 949 675C952 674.833 957.8 675.1 957 677.5C956.2 679.9 956.667 679.833 957 679.5C958.5 680.5 961.3 683.1 960.5 685.5C960.042 686.873 960.318 687.932 960.511 688.676C960.741 689.559 960.856 690 959.5 690C959.5 693.549 958.043 694.044 956.875 694.442C956.232 694.661 955.677 694.85 955.5 695.5L953 697.5L954 700.5V702L864.5 729.5C863.833 730.333 862.1 731.9 860.5 731.5C858.5 731 857 729.5 857 728C857 726.8 854.333 726.167 853 726L850 724.5L849 725.5L849.5 726L849 729.5L847.5 728.5V724L846 723.5L842.5 722.5L841 721.5V720.5L837.5 719.5H835H833V721.5L831.5 722.5V718.5L830.5 718L826 717.5L823.5 716.5V715H822L820.5 714L818.5 713.5V716.5H817V713.5L815 714L812 712.5L808 712H804V710.5H804.5V707.5C803 707.833 799.5 708.1 797.5 706.5C796.88 706.004 796.229 705.631 795.593 705.267C793.665 704.162 791.876 703.136 791.5 699C791.1 694.6 797 694.5 800 695C801.5 693.667 804.5 690.8 804.5 690C804.5 689 805 686 807 686C807 683.448 808.221 682.931 809.235 682.502C809.81 682.258 810.319 682.043 810.5 681.5C812.333 681.167 815.8 681.3 815 684.5C818.422 686.055 818.876 688.514 819.252 690.551C819.481 691.788 819.681 692.87 820.5 693.5C823.667 694.833 829.2 698.4 826 702C826 702 827 701.833 829.5 699.5C828.833 698.167 827.7 695.6 828.5 696C826.886 692.773 827.772 692.392 828.603 692.035C829.06 691.839 829.5 691.65 829.5 691C829 689.167 829.1 685.4 833.5 685C837.9 684.6 839.667 688.833 840 691L841.5 695L841 698.5L849.5 698V695C849 693.5 848.4 690.3 850 689.5C850 684.695 851.571 684.602 852.771 684.531C853.32 684.498 853.791 684.47 854 684C854.333 682.333 856.3 678.9 861.5 678.5C865.5 679.5 866.333 680.667 865.5 682C867.333 683 870.6 686 869 690C870.091 691.455 869.242 692.909 868.955 693.402C868.847 693.587 868.818 693.636 869 693.5L867.5 697H873.5L877.5 698L884.5 697V696C881.833 694.667 878.1 692 884.5 692C890.9 692 888.167 694.333 886 695.5V697L896.5 696.5L896 694.5C893.833 694 890.7 692.6 895.5 691C901.5 689 902 694.5 899.5 694.5H897.5V696.5H908V694C906 693.5 903.2 692.2 908 691C913.054 691 911.959 692.064 910.691 693.296C910.454 693.527 910.21 693.763 910 694V695.5L920 695L926.5 693.5L937 692.5C937.167 690.667 938 686.9 940 686.5C942 686.1 942.833 684 943 683Z" fill="white" />
            </g>
            <g id="Maps Hover Group">
                <g id="Maps Hover Path" style="mix-blend-mode:multiply"  class="area-hover">
                    <rect x="296" y="450.5" width="1328" height="670" fill="white" opacity="0"/>
                </g>
            </g>
        
            <g data-plots-sector-selector="A" class="area-click area-click__sectors">
                <path id="Vector" opacity="0.6" d="M673.75 879.233L1042.22 1052.69L1325.43 884.829L1216.74 850.291L1219.24 848.793L1068.13 800.243L1061.21 802.942L976.274 775.951L783.462 840.502L770.182 846.035L673.75 879.233Z" fill="#36B122" />
                <text id="Sektor A" fill="white" xml:space="preserve" style="white-space: pre" font-family="Mulish" font-size="30" font-weight="bold" letter-spacing="0em">
                    <tspan x="937.973" y="892.184">Sektor A</tspan>
                </text>
            </g>
        </g>
    </g>
</svg>