<svg class="plot-sectors__svg" viewBox="0 0 700 440" fill="none" xmlns="http://www.w3.org/2000/svg">
    <g id="Map_Full-Area-Step-1_Mobile">
        <g id="Map Fields Main">
            <g id="Frame" opacity="0.5">
                <path id="Przykrycie" d="M188.998 321.116L144.529 336.395L7.70312 272.771L64.4859 258.405L76.5722 254.528L256.726 242.441L266.988 242.67L287.284 241.529L519.299 293.39L442.095 338.826L392.586 323.073L393.695 322.392L324.748 300.248L321.568 301.476L282.851 289.163L193.787 319.064L188.998 321.116Z" fill="white" />
                <path id="Vector 119" opacity="0.8" d="M268.82 244.267C268.091 244.267 267.756 245.939 267.68 246.775C267.604 247.231 267.224 248.189 266.312 248.372C265.4 248.554 265.02 250.272 264.944 251.108L260.155 251.564L257.19 252.248L252.629 252.476V251.792C253.238 251.108 254.454 250.424 251.717 250.424C249.528 250.971 250.805 251.564 251.717 251.792V252.933H246.928V252.02H247.84C248.981 252.02 248.753 249.512 246.016 250.424C243.827 251.154 245.256 251.792 246.244 252.02L246.472 252.933L241.683 253.161V252.476C242.672 251.944 243.918 250.88 240.999 250.88C238.08 250.88 239.783 252.096 240.999 252.704V253.161L237.807 253.617L235.982 253.161H233.246L233.93 251.564C233.626 251.792 234.614 250.88 233.93 249.968C234.66 248.144 233.17 246.775 232.334 246.319C232.714 245.711 232.334 245.179 230.509 244.723C228.138 244.905 227.241 246.471 227.089 247.231C226.784 247.916 225.264 246.547 225.264 249.74C224.534 250.105 224.808 251.564 225.036 252.248V253.617L221.159 253.845L221.387 252.248L220.703 250.424C220.551 249.436 219.746 247.505 217.739 247.688C215.732 247.87 215.686 249.588 215.914 250.424C215.914 251.26 214.318 250.424 215.458 252.704C215.093 252.522 215.61 253.693 215.914 254.301C214.774 255.365 214.318 255.441 214.318 255.441C215.778 253.799 213.254 252.172 211.81 251.564C210.821 250.804 211.81 248.6 209.301 247.459C209.666 246 208.085 245.939 207.249 246.091C207.021 246.775 205.652 246.319 205.652 248.144C204.74 248.144 204.512 249.512 204.512 249.968C204.512 250.333 203.144 251.64 202.46 252.248C201.092 252.02 198.401 252.066 198.583 254.073C198.811 256.581 200.179 256.581 201.32 257.493C202.232 258.223 203.828 258.102 204.512 257.949V259.318H204.284V260.002H206.108L207.933 260.23L209.301 260.914L210.213 260.686V262.054H210.897V260.686L211.81 260.914L212.494 261.37H213.178V262.054L214.318 262.51L216.37 262.738L216.827 262.966V264.791L217.511 264.335V263.423H218.423H219.563L221.159 263.879V264.335L221.843 264.791L223.44 265.247L224.124 265.475V267.527L224.808 267.983L225.036 266.387L224.808 266.159L225.264 265.703L226.632 266.387C227.24 266.463 228.457 266.752 228.457 267.299C228.457 267.983 229.141 268.668 230.053 268.896C230.783 269.078 231.573 268.363 231.877 267.983L272.697 255.441V254.757L272.241 253.389L273.381 252.476C273.609 251.64 275.206 252.476 275.206 249.968C276.346 249.968 275.206 249.284 275.662 247.916C276.027 246.821 274.75 245.635 274.065 245.179C273.913 245.331 273.701 245.361 274.065 244.267C274.43 243.172 271.785 243.051 270.417 243.127C270.189 243.507 269.505 243.127 268.82 244.267Z" fill="black" />
            </g>
            <g data-plots-sector-selector="A" >
                <path id="Vector" opacity="0.6" d="M144.879 336.275L313.583 414.848L442.102 338.827L392.53 323.074L393.669 322.391L324.75 300.248L321.593 301.479L282.856 289.169L194.917 318.61L188.86 321.133L144.879 336.275Z" fill="#36B122" />
                <text id="Sektor A" fill="white" xml:space="preserve" style="white-space: pre" font-family="Mulish" font-size="13.6826" font-weight="bold" letter-spacing="0em">
                    <tspan x="265.391" y="342.017">Sektor A</tspan>
                </text>
            </g>
        </g>
    </g>
</svg>