<svg width="238" height="50" viewBox="0 0 238 50" fill="none" xmlns="http://www.w3.org/2000/svg">
<g clip-path="url(#clip0_219_2491)">
<path d="M49.6439 28.9985H48.0401C48.0401 19.3946 40.2448 11.5844 30.6591 11.5844C21.0735 11.5844 13.2781 19.3946 13.2781 28.9985H11.6743C11.6743 18.4977 20.1783 9.97754 30.6591 9.97754C41.1399 10.0149 49.6439 18.5351 49.6439 28.9985Z" fill="#0B345A"/>
<path d="M12.3084 40.2091C8.57853 40.2091 5.55737 37.1822 5.55737 33.4453H7.1612C7.1612 36.2854 9.47369 38.6023 12.3084 38.6023C15.143 38.6023 17.4555 36.2854 17.4555 33.4453H19.0593C19.0593 37.1822 16.0382 40.2091 12.3084 40.2091Z" fill="#0B345A"/>
<path d="M24.5422 40.2091C20.8124 40.2091 17.7913 37.1822 17.7913 33.4453H19.3951C19.3951 36.2854 21.7076 38.6023 24.5422 38.6023C27.3769 38.6023 29.6894 36.2854 29.6894 33.4453H31.2932C31.2932 37.1822 28.2721 40.2091 24.5422 40.2091Z" fill="#0B345A"/>
<path d="M36.7761 40.2091C33.0463 40.2091 30.0251 37.1822 30.0251 33.4453H31.629C31.629 36.2854 33.9415 38.6023 36.7761 38.6023C39.6108 38.6023 41.9233 36.2854 41.9233 33.4453H43.5271C43.5271 37.1822 40.506 40.2091 36.7761 40.2091Z" fill="#0B345A"/>
<path d="M18.6118 49.9997C14.882 49.9997 11.8608 46.9728 11.8608 43.2358H13.4647C13.4647 46.0759 15.7772 48.3928 18.6118 48.3928C21.4465 48.3928 23.759 46.0759 23.759 43.2358H25.3628C25.3628 46.9728 22.3416 49.9997 18.6118 49.9997Z" fill="#0B345A"/>
<path d="M6.75098 49.9997C3.02116 49.9997 0 46.9728 0 43.2358H1.60382C1.60382 46.0759 3.91631 48.3928 6.75098 48.3928C9.58564 48.3928 11.8981 46.0759 11.8981 43.2358H13.502C13.4647 46.9728 10.4435 49.9997 6.75098 49.9997Z" fill="#0B345A"/>
<path d="M30.8457 49.9997C27.1159 49.9997 24.0947 46.9728 24.0947 43.2358H25.6986C25.6986 46.0759 28.011 48.3928 30.8457 48.3928C33.6804 48.3928 35.9929 46.0759 35.9929 43.2358H37.5967C37.5967 46.9728 34.5755 49.9997 30.8457 49.9997Z" fill="#0B345A"/>
<path d="M43.0796 49.9997C39.3498 49.9997 36.3286 46.9728 36.3286 43.2358H37.9324C37.9324 46.0759 40.2449 48.3928 43.0796 48.3928C45.9143 48.3928 48.2267 46.0759 48.2267 43.2358H49.8306C49.8306 46.9728 46.8094 49.9997 43.0796 49.9997Z" fill="#0B345A"/>
<path d="M54.9775 49.9997C51.2477 49.9997 48.2266 46.9728 48.2266 43.2358H49.8304C49.8304 46.0759 52.1429 48.3928 54.9775 48.3928C57.8122 48.3928 60.1247 46.0759 60.1247 43.2358H61.7285C61.6912 46.9728 58.6701 49.9997 54.9775 49.9997Z" fill="#0B345A"/>
<path d="M49.0471 40.2091C45.3173 40.2091 42.2961 37.1822 42.2961 33.4453H43.9C43.9 36.2854 46.2125 38.6023 49.0471 38.6023C51.8818 38.6023 54.1943 36.2854 54.1943 33.4453H55.7981C55.7608 37.1822 52.7397 40.2091 49.0471 40.2091Z" fill="#0B345A"/>
<path d="M54.1945 4.89537H52.5907C52.5907 3.06428 51.0987 1.60688 49.3084 1.60688C47.5181 1.60688 46.0262 3.10164 46.0262 4.89537H44.4224C44.4224 2.20478 46.623 0 49.3084 0C51.9939 0 54.1945 2.20478 54.1945 4.89537Z" fill="#0B345A"/>
<path d="M45.7648 4.89537H44.161C44.161 3.06428 42.6691 1.60688 40.8787 1.60688C39.0884 1.60688 37.5965 3.10164 37.5965 4.89537H35.9927C35.9927 2.20478 38.1933 0 40.8787 0C43.5642 0 45.7648 2.20478 45.7648 4.89537Z" fill="#0B345A"/>
<path d="M100.183 16.4428C100.183 21.0766 96.8634 24.5146 92.4995 24.5146C87.8746 24.5146 84.7788 21.1514 84.7788 16.4428C84.7788 11.8091 88.0984 8.37109 92.4995 8.37109C97.1245 8.37109 100.183 11.7343 100.183 16.4428ZM97.2364 16.5549C97.2364 12.4817 95.3342 9.30532 92.2758 9.30532C89.4784 9.30532 87.8 12.108 87.8 16.3307C87.8 20.404 89.7022 23.5804 92.7606 23.5804C95.4834 23.5804 97.2364 20.7777 97.2364 16.5549Z" fill="#0B345A"/>
<path d="M111.298 21.0764C111.298 23.4306 109.209 24.5143 107.27 24.5143C106.001 24.5143 104.92 24.1406 104.137 23.6922L103.838 24.2901H102.943C102.757 23.0569 102.458 21.6743 102.048 20.4411L102.831 20.2169C104.286 22.9448 106.113 23.6922 107.307 23.6922C108.351 23.6922 109.284 23.1317 109.284 22.0853C109.284 19.4321 102.57 20.5532 102.57 16.3305C102.57 14.0883 104.584 13.042 106.785 13.042C107.941 13.042 108.799 13.3409 109.321 13.7146L109.545 13.3036H110.44C110.589 14.462 110.813 15.6578 111.149 16.7042L110.365 16.9284C109.47 14.9478 108.389 13.8641 106.747 13.8641C105.405 13.8641 104.696 14.5368 104.696 15.3963C104.659 17.9374 111.298 16.891 111.298 21.0764Z" fill="#0B345A"/>
<path d="M120.697 22.7581C120.026 23.8045 119.354 24.5519 117.75 24.5519C116.333 24.5519 114.655 23.9166 114.655 21.3007V14.2753L114.468 14.1259H112.566V13.3037C114.655 13.0048 116.147 11.4353 116.408 8.59521H117.228V13.3037H120.473V14.1259H117.377L117.228 14.2753V21.6371C117.228 22.6834 117.713 23.2439 118.422 23.2439C119.056 23.2439 119.541 22.9076 120.1 22.1976L120.697 22.7581Z" fill="#0B345A"/>
<path d="M133.527 18.7971C133.527 22.3845 131.028 24.5519 127.895 24.5519C124.725 24.5519 122.226 22.3845 122.226 18.7971C122.226 15.247 124.725 13.0796 127.895 13.0796C131.028 13.0796 133.527 15.247 133.527 18.7971ZM130.693 18.9839C130.693 15.8075 129.35 13.9017 127.784 13.9017C125.769 13.9017 125.098 16.0691 125.098 18.6476C125.098 21.824 126.441 23.7298 128.007 23.7298C129.984 23.7298 130.693 21.525 130.693 18.9839Z" fill="#0B345A"/>
<path d="M139.607 13.3037V25.785C139.607 28.2514 138.376 30.3815 135.952 30.3815C134.087 30.3815 133.528 29.1109 133.528 28.2888C133.528 27.504 134.124 26.8687 134.87 26.8687C135.616 26.8687 136.213 27.4667 136.213 28.214C136.213 28.8119 135.765 29.2604 135.243 29.3725C135.393 29.4846 135.616 29.5967 135.915 29.5967C137.295 29.5967 137.817 27.803 137.071 25.6729V14.2753L136.922 14.1258H135.43V13.3037C136.661 13.3037 138.302 13.2664 139.495 13.1169L139.607 13.3037ZM136.623 9.64154C136.623 8.78205 137.332 8.03467 138.227 8.03467C139.085 8.03467 139.831 8.78205 139.831 9.64154C139.831 10.501 139.085 11.2484 138.227 11.2484C137.332 11.2858 136.623 10.5384 136.623 9.64154Z" fill="#0B345A"/>
<path d="M154.788 23.0196C154.228 23.8043 153.519 24.5143 152.102 24.5143C151.02 24.5143 150.237 24.1406 149.864 23.2438C149.267 23.9164 148.186 24.5143 146.582 24.5143C144.12 24.5143 142.554 23.169 142.554 21.338C142.554 19.5069 144.083 18.1616 146.582 18.1616C148.186 18.1616 149.23 18.7595 149.864 19.4321V17.19C149.864 15.2468 149.305 14.0136 147.477 14.0136C146.657 14.0136 145.948 14.1631 145.276 14.6115C145.761 14.9105 146.022 15.3589 146.022 15.8821C146.022 16.6668 145.388 17.2647 144.642 17.2647C143.859 17.2647 143.262 16.6668 143.262 15.7699C143.262 13.9762 145.873 13.042 148.111 13.042C150.386 13.042 152.438 13.8641 152.438 16.8536V22.1974C152.438 22.6459 152.587 23.1317 153.146 23.1317C153.519 23.1317 153.855 22.8327 154.116 22.459L154.788 23.0196ZM149.864 20.5532C149.006 19.6563 148.074 19.2826 147.216 19.2826C145.911 19.2826 145.127 20.1421 145.127 21.3753C145.127 22.6085 145.911 23.468 147.216 23.468C148.074 23.468 149.006 23.0943 149.864 22.1601V20.5532Z" fill="#0B345A"/>
<path d="M176.421 23.4682V24.2903H169.558V23.4682H171.162L171.348 23.3187L166.76 16.4427L165.157 17.9375V23.3187L165.306 23.4682H166.91V24.2903H160.569V23.4682H162.173L162.359 23.3187V9.56681L162.173 9.41734H160.569V8.59521H166.91V9.41734H165.306L165.157 9.56681V16.5922L172.579 9.56681L172.392 9.41734H169.931V8.59521H175.488V9.41734H174.22L168.886 14.4622L174.891 23.4682H176.421Z" fill="#0B345A"/>
<path d="M181.307 15.77V23.3186L181.456 23.4681H182.948V24.2902H177.055V23.4681H178.546L178.696 23.3186V17.7506L176.793 19.3575V18.199L178.696 16.5921V8.18406L178.546 8.03459H177.055V7.21246C178.285 7.21246 179.927 7.1751 181.12 7.06299L181.269 7.21246V14.6489L183.171 13.0421V14.2005L181.307 15.77Z" fill="#0B345A"/>
<path d="M196.748 23.0196C196.188 23.8043 195.48 24.5143 194.062 24.5143C192.981 24.5143 192.198 24.1406 191.825 23.2438C191.228 23.9164 190.146 24.5143 188.542 24.5143C186.081 24.5143 184.514 23.169 184.514 21.338C184.514 19.5069 186.043 18.1616 188.542 18.1616C190.146 18.1616 191.191 18.7595 191.825 19.4321V17.19C191.825 15.2468 191.265 14.0136 189.438 14.0136C188.617 14.0136 187.908 14.1631 187.237 14.6115C187.722 14.9105 187.983 15.3589 187.983 15.8821C187.983 16.6668 187.349 17.2647 186.603 17.2647C185.82 17.2647 185.223 16.6668 185.223 15.7699C185.223 13.9762 187.834 13.042 190.072 13.042C192.347 13.042 194.398 13.8641 194.398 16.8536V22.1974C194.398 22.6459 194.547 23.1317 195.107 23.1317C195.48 23.1317 195.816 22.8327 196.077 22.459L196.748 23.0196ZM191.825 20.5532C190.967 19.6563 190.034 19.2826 189.176 19.2826C187.871 19.2826 187.088 20.1421 187.088 21.3753C187.088 22.6085 187.871 23.468 189.176 23.468C190.034 23.468 190.967 23.0943 191.825 22.1601V20.5532Z" fill="#0B345A"/>
<path d="M210.362 23.4681V24.2902C209.131 24.2902 207.527 24.3276 206.334 24.4397L206.147 24.2902V22.347C205.55 23.4307 204.282 24.5144 202.529 24.5144C199.62 24.5144 197.531 22.3096 197.531 18.8343C197.531 15.359 199.583 13.0794 202.529 13.0794C204.394 13.0794 205.55 14.0137 206.147 15.2468V8.18406L205.998 8.03459H204.506V7.21246C205.737 7.21246 207.341 7.1751 208.534 7.06299L208.683 7.21246V23.3186L208.87 23.4681H210.362ZM206.11 16.9285C205.252 14.9479 204.133 14.2005 203.051 14.2005C201.485 14.2005 200.403 15.4711 200.403 18.5353C200.403 21.5996 201.485 23.356 203.051 23.356C204.133 23.356 205.252 22.6459 206.11 20.6654V16.9285Z" fill="#0B345A"/>
<path d="M225.244 23.468V24.2901H219.388V23.468H220.88L221.029 23.3185V16.48C221.029 14.9852 220.544 14.2378 219.351 14.2378C218.157 14.2378 217.188 14.9478 216.069 16.9658V23.3559L216.218 23.5054H217.71V24.2901H211.817V23.468H213.309L213.458 23.3185V14.2752L213.309 14.1257H211.817V13.3036C213.047 13.3036 214.502 13.2662 215.733 13.1167L215.882 13.3036V15.3963H216.031C216.815 14.051 218.083 13.042 220.171 13.042C222.633 13.042 223.566 14.3873 223.566 16.1063V23.3185L223.752 23.468H225.244Z" fill="#0B345A"/>
<path d="M238 18.7971C238 22.3845 235.501 24.5519 232.368 24.5519C229.198 24.5519 226.699 22.3845 226.699 18.7971C226.699 15.247 229.198 13.0796 232.368 13.0796C235.501 13.0796 238 15.247 238 18.7971ZM235.128 18.9839C235.128 15.8075 233.785 13.9017 232.219 13.9017C230.205 13.9017 229.533 16.0691 229.533 18.6476C229.533 21.824 230.876 23.7298 232.443 23.7298C234.457 23.7298 235.128 21.525 235.128 18.9839Z" fill="#0B345A"/>
<path d="M136.101 37.033V37.2946C137.071 37.3319 137.22 37.5935 137.22 38.4904V42.601L133.267 37.0703C132.968 37.1077 132.521 37.1077 132.11 37.1077C131.7 37.1077 131.215 37.1077 130.954 37.0703V37.3319C131.812 37.3693 131.961 37.4814 131.961 38.4156V43.2363C131.961 44.1705 131.812 44.3947 130.954 44.4321V44.6937C131.215 44.6563 131.7 44.6563 132.11 44.6563C132.521 44.6563 133.08 44.6563 133.378 44.6937V44.4321C132.409 44.3947 132.26 44.1331 132.26 43.2363V37.743L137.258 44.6563H137.556V38.453C137.556 37.5561 137.705 37.2946 138.563 37.2572V36.9956C138.302 37.033 137.817 37.033 137.407 37.033C136.959 37.0703 136.4 37.033 136.101 37.033Z" fill="#0B345A"/>
<path d="M144.456 37.033V37.2946C145.09 37.3319 145.426 37.4814 145.426 37.9672C145.389 38.3409 145.277 38.7146 145.128 39.0509L143.263 43.1989L141.137 38.3409C141.062 38.154 140.987 37.9672 140.987 37.743C140.987 37.4067 141.286 37.2946 141.883 37.2946V37.033C141.547 37.0703 140.95 37.0703 140.279 37.0703C139.794 37.0703 139.272 37.0703 138.936 37.033V37.2946C139.197 37.2946 139.533 37.4814 139.794 38.0793L142.703 44.6937H142.89L145.612 38.4904C145.948 37.7056 146.172 37.4067 146.657 37.2572V36.9956C146.433 37.033 146.097 37.033 145.799 37.033C145.426 37.0703 144.717 37.0703 144.456 37.033Z" fill="#0B345A"/>
<path d="M157.846 40.2092C156.802 39.6113 155.869 39.2749 155.869 38.3033C155.944 37.556 156.578 36.9954 157.324 37.0702C157.361 37.0702 157.361 37.0702 157.398 37.0702C158.555 37.0702 159.45 38.0044 159.45 39.1628C159.45 39.2002 159.45 39.2002 159.45 39.2376H159.748C159.748 37.8175 159.786 37.3317 159.823 36.9207H159.524C159.487 37.257 159.413 37.4812 159.263 37.4812C159.114 37.4438 158.965 37.4065 158.853 37.2944C158.405 36.958 157.883 36.8086 157.324 36.8459C156.093 36.8459 154.974 37.4812 154.974 38.7891C154.974 40.0223 155.944 40.6202 157.063 41.1808C158.219 41.7787 159.04 42.2271 159.04 43.124C159.04 43.1613 159.04 43.2361 159.04 43.2734C158.965 44.0582 158.294 44.6187 157.51 44.544C155.906 44.544 155.347 43.3482 155.235 41.9655H154.937C154.937 43.5724 154.937 44.245 154.899 44.6935H155.198C155.235 44.3198 155.31 44.1329 155.459 44.1329C155.608 44.1329 155.757 44.2077 155.869 44.3198C156.391 44.6561 156.951 44.8056 157.585 44.8056C158.965 44.8056 160.158 44.0956 160.158 42.6755C160.121 41.5171 159.114 40.9192 157.846 40.2092Z" fill="#0B345A"/>
<path d="M153.37 42.2644H153.072C152.923 43.8339 152.475 44.3571 151.282 44.3571H150.386C149.529 44.3571 149.379 44.245 149.379 43.3108V40.9191H150.424C151.282 40.9191 151.431 41.5918 151.505 42.1897H151.804C151.729 41.4049 151.729 41.1434 151.729 40.7697C151.729 40.6202 151.729 40.4707 151.729 40.2839C151.729 40.0597 151.729 39.7607 151.767 39.3496H151.431C151.356 39.7981 151.244 40.6202 150.386 40.6202H149.342V38.3033C149.342 37.3691 149.491 37.257 150.349 37.257H151.244C152.251 37.257 152.662 37.7054 152.774 39.0881H153.072C153.035 38.8265 153.035 38.5649 153.035 38.3033C153.035 38.0417 153.072 37.4812 153.109 36.958C152.363 36.9954 151.356 36.9954 150.61 36.9954C149.902 36.9954 148.298 36.9954 147.104 36.958V37.2196C147.962 37.257 148.111 37.3691 148.111 38.3033V43.236C148.111 44.1329 147.962 44.2824 147.104 44.3197V44.5813C148.298 44.544 149.864 44.544 150.61 44.544C151.431 44.544 152.55 44.544 153.333 44.5813C153.258 43.9834 153.258 43.3855 153.258 43.0866C153.258 42.7876 153.333 42.5634 153.37 42.2644Z" fill="#0B345A"/>
<path d="M164.709 37.0701C163.702 37.0701 162.247 37.0701 161.203 37.0327C161.277 37.6306 161.277 38.2285 161.277 38.4901C161.277 38.9012 161.277 39.2375 161.24 39.4991H161.539C161.688 37.8548 161.986 37.2943 163.329 37.2943H164.112V43.1613C164.112 44.1702 163.888 44.3197 162.844 44.3571V44.6187C163.254 44.5813 163.926 44.5813 164.672 44.5813C165.343 44.5813 166.089 44.5813 166.499 44.6187V44.3571C165.455 44.3197 165.231 44.1702 165.231 43.1613V37.2943H166.014C167.357 37.2943 167.693 37.8548 167.805 39.4991H168.103C168.066 39.2375 168.066 38.8638 168.066 38.4901C168.066 38.0043 168.103 37.5185 168.14 37.0327C167.171 37.0701 165.716 37.0701 164.709 37.0701Z" fill="#0B345A"/>
<path d="M126.702 37.0327V37.2943C127.56 37.3317 127.709 37.4438 127.709 38.378V43.3107C127.709 44.2076 127.56 44.3571 126.702 44.3945V44.656C127.038 44.6187 127.635 44.6187 128.306 44.6187C128.865 44.6187 129.499 44.6187 129.872 44.656V44.3945C129.015 44.3571 128.865 44.245 128.865 43.3107V38.378C128.865 37.4438 129.015 37.3317 129.872 37.2943V37.0327C129.499 37.0701 128.865 37.0701 128.306 37.0701C127.672 37.0701 127.075 37.0327 126.702 37.0327Z" fill="#0B345A"/>
<path d="M101.675 39.6113C100.556 38.9013 99.5863 38.4529 99.5863 37.3318C99.5863 37.2944 99.5863 37.2571 99.5863 37.2197C99.6236 36.435 100.332 35.837 101.115 35.9118C102.496 35.9118 103.055 37.145 103.167 38.3034H103.465C103.465 36.7339 103.503 36.2107 103.54 35.7623H103.241C103.204 36.136 103.13 36.3228 102.98 36.3228C102.831 36.3228 102.682 36.2481 102.57 36.136C102.123 35.7997 101.6 35.6502 101.041 35.6876C99.8846 35.5755 98.8403 36.435 98.6911 37.5934C98.6911 37.6681 98.6911 37.7802 98.6911 37.855C98.6911 39.275 99.7355 39.9477 100.929 40.6577C102.085 41.3677 102.869 41.9282 102.869 42.9372C102.869 43.0119 102.869 43.0867 102.869 43.1614C102.831 44.0209 102.085 44.6562 101.265 44.6188C99.6609 44.6188 99.1014 43.3109 98.9895 41.7788H98.6911C98.6911 43.5351 98.6911 44.2451 98.6538 44.7683H98.9522C98.9895 44.3946 99.0641 44.2077 99.2133 44.2077C99.3625 44.2451 99.5117 44.2825 99.6236 44.3946C100.146 44.7309 100.743 44.8804 101.339 44.843C102.645 44.9925 103.801 44.0583 103.987 42.7877C103.987 42.6756 103.987 42.6009 103.987 42.4888C103.913 41.0687 102.98 40.3961 101.675 39.6113Z" fill="#0B345A"/>
<path d="M93.9542 39.499C93.9169 39.499 93.9169 39.499 93.8796 39.499C93.6185 39.499 93.432 39.7232 93.432 39.9848C93.432 40.3959 93.8796 40.7322 94.178 40.8817C93.9169 42.0401 93.432 43.0865 92.7234 44.0581L92.2385 40.3959C92.1266 39.7232 91.9401 39.499 91.5298 39.499C91.1195 39.499 90.672 39.6859 90.4109 40.508L90.1871 41.218H90.3736L90.4855 40.8443C90.7466 40.0969 90.8958 39.9475 91.045 39.9475C91.1941 39.9475 91.2687 40.0969 91.3433 40.4706L92.052 44.8428C91.6417 45.3286 91.1568 45.7023 90.5974 46.0013C90.3736 45.7771 90.1125 45.6649 89.7768 45.6276C89.5157 45.5902 89.2919 45.8144 89.2546 46.076C89.2546 46.3376 89.4784 46.4871 89.7395 46.4871C90.0379 46.4497 90.3363 46.375 90.5974 46.2629C91.3433 45.8892 92.0147 45.3286 92.4996 44.656C93.5439 43.4228 94.2153 41.928 94.4018 40.3211C94.4764 39.7606 94.3272 39.499 93.9542 39.499Z" fill="#0B345A"/>
<path d="M111.41 43.5724L108.5 36.958H108.314L105.554 43.1987C105.293 43.7592 104.994 44.245 104.547 44.3571V44.6187C104.771 44.5813 105.33 44.5813 105.629 44.5813C106.076 44.5813 106.524 44.5813 106.747 44.6187V44.3571C106.076 44.3197 105.778 44.0582 105.778 43.6097C105.778 43.3481 105.852 43.0492 106.002 42.825L106.412 41.8907H109.47L110.104 43.3108C110.216 43.4976 110.254 43.6845 110.291 43.9087C110.291 44.245 109.992 44.3571 109.396 44.3571V44.6187C109.731 44.5813 110.328 44.5813 110.999 44.5813C111.484 44.5813 112.007 44.5813 112.342 44.6187V44.3571C112.007 44.3571 111.671 44.2076 111.41 43.5724ZM106.486 41.6665L107.904 38.4901L109.321 41.6665H106.486Z" fill="#0B345A"/>
<path d="M116.594 37.033V37.2946C117.228 37.3319 117.564 37.4814 117.564 37.9672C117.527 38.3409 117.415 38.7146 117.266 39.0509L115.401 43.1989L113.275 38.3409C113.163 38.154 113.126 37.9672 113.126 37.743C113.126 37.4067 113.424 37.2946 114.021 37.2946V37.033C113.685 37.0703 113.088 37.0703 112.417 37.0703C111.932 37.0703 111.41 37.0703 111.074 37.033V37.2946C111.335 37.2946 111.671 37.4814 111.932 38.0793L114.841 44.6937H115.028L117.751 38.4904C118.086 37.7056 118.31 37.4067 118.795 37.2572V36.9956C118.571 37.033 118.235 37.033 117.937 37.033C117.527 37.0703 116.818 37.0703 116.594 37.033Z" fill="#0B345A"/>
<path d="M125.471 42.2644H125.173C125.024 43.8339 124.576 44.3571 123.383 44.3571H122.45C121.592 44.3571 121.443 44.245 121.443 43.3108V40.9191H122.487C123.345 40.9191 123.494 41.5918 123.569 42.1897H123.867C123.793 41.4049 123.793 41.1434 123.793 40.7697C123.793 40.6202 123.793 40.4707 123.793 40.2839C123.793 40.0597 123.793 39.7607 123.83 39.3496H123.532C123.457 39.7981 123.345 40.6202 122.487 40.6202H121.443V38.3033C121.443 37.3691 121.592 37.257 122.45 37.257H123.383C124.39 37.257 124.8 37.7054 124.912 39.0881H125.21C125.173 38.8265 125.173 38.5649 125.173 38.3033C125.173 38.0417 125.21 37.4812 125.247 36.958C124.501 36.9954 123.494 36.9954 122.748 36.9954C122.04 36.9954 120.436 36.9954 119.242 36.958V37.2196C120.1 37.257 120.249 37.3691 120.249 38.3033V43.236C120.249 44.1329 120.1 44.2824 119.242 44.3197V44.5813C120.436 44.544 122.003 44.544 122.748 44.544C123.569 44.544 124.688 44.544 125.471 44.5813C125.397 43.9834 125.397 43.3855 125.397 43.0866C125.434 42.7876 125.434 42.4887 125.471 42.2644Z" fill="#0B345A"/>
<path d="M88.6579 39.4991C87.9865 39.4991 87.4271 40.0971 86.793 41.4797L88.0611 36.8833C87.539 37.1449 86.9422 37.2944 86.3454 37.2944L86.3081 37.4812C86.793 37.4812 86.9422 37.5933 86.9422 37.8549C86.9422 37.9296 86.9422 38.0417 86.9049 38.1165L85.1892 44.1329C85.1519 44.3198 85.0773 44.5066 85.0027 44.6935L85.1519 44.7682L85.9724 44.0956C86.047 44.4693 86.3827 44.7682 86.793 44.7308C88.6206 44.7308 89.6277 42.3018 89.6277 40.8071C89.665 39.9476 89.2547 39.4991 88.6579 39.4991ZM86.793 44.544C86.4946 44.544 86.2708 44.3945 86.0843 44.0208L86.42 42.7876C86.9795 41.1434 87.8001 39.7981 88.3595 39.7981C88.6206 39.7981 88.8071 40.0597 88.8071 40.6576C88.8071 42.115 87.9119 44.544 86.793 44.544Z" fill="#0B345A"/>
</g>
<defs>
<clipPath id="clip0_219_2491">
<rect width="238" height="50" fill="white"/>
</clipPath>
</defs>
</svg>
