<svg width="24" height="24" viewBox="0 0 24 24" fill="none" xmlns="http://www.w3.org/2000/svg">
<path d="M12.227 8.73234C14.044 8.73234 15.517 7.25935 15.517 5.44234C15.517 3.62532 14.044 2.15234 12.227 2.15234C10.41 2.15234 8.93701 3.62532 8.93701 5.44234C8.93701 7.25935 10.41 8.73234 12.227 8.73234Z" stroke="#BF9E66" stroke-miterlimit="10"/>
<path d="M19.0903 13.37C18.646 12.3892 18.0022 11.5117 17.1998 10.7935C16.3975 10.0754 15.4543 9.53233 14.4304 9.19907C13.4064 8.86581 12.3243 8.74964 11.253 8.85796C10.1817 8.96629 9.14467 9.29673 8.20818 9.82821C7.2717 10.3597 6.45628 11.0805 5.81394 11.9448C5.1716 12.809 4.71646 13.7976 4.47754 14.8475C4.23863 15.8975 4.22118 16.9857 4.42633 18.0428C4.63147 19.0998 5.0547 20.1025 5.66901 20.9869" stroke="#BF9E66" stroke-miterlimit="10"/>
</svg>
