<svg width="32" height="32" viewBox="0 0 32 32" fill="none" xmlns="http://www.w3.org/2000/svg">
<path d="M9.66893 25.2345L5.64354 28.6184C5.49777 28.741 5.32004 28.8193 5.13126 28.8443C4.94247 28.8693 4.75048 28.8399 4.57785 28.7595C4.40523 28.6791 4.25915 28.551 4.15679 28.3905C4.05444 28.2299 4.00006 28.0434 4.00006 27.853V8C4.00006 7.73478 4.10542 7.48043 4.29295 7.29289C4.48049 7.10536 4.73484 7 5.00006 7H27.0001C27.2653 7 27.5196 7.10536 27.7072 7.29289C27.8947 7.48043 28.0001 7.73478 28.0001 8V24C28.0001 24.2652 27.8947 24.5196 27.7072 24.7071C27.5196 24.8946 27.2653 25 27.0001 25H10.3124C10.077 25 9.84913 25.0831 9.66893 25.2345Z" stroke="#BF9E66" stroke-linecap="round" stroke-linejoin="round"/>
<path d="M9.99988 17.5C10.8283 17.5 11.4999 16.8284 11.4999 16C11.4999 15.1716 10.8283 14.5 9.99988 14.5C9.17145 14.5 8.49988 15.1716 8.49988 16C8.49988 16.8284 9.17145 17.5 9.99988 17.5Z" fill="#BF9E66"/>
<path d="M16.0001 17.5C16.8285 17.5 17.5001 16.8284 17.5001 16C17.5001 15.1716 16.8285 14.5 16.0001 14.5C15.1716 14.5 14.5001 15.1716 14.5001 16C14.5001 16.8284 15.1716 17.5 16.0001 17.5Z" fill="#BF9E66"/>
<path d="M22.0002 17.5C22.8287 17.5 23.5002 16.8284 23.5002 16C23.5002 15.1716 22.8287 14.5 22.0002 14.5C21.1718 14.5 20.5002 15.1716 20.5002 16C20.5002 16.8284 21.1718 17.5 22.0002 17.5Z" fill="#BF9E66"/>
<path d="M9.99988 17.5C10.8283 17.5 11.4999 16.8284 11.4999 16C11.4999 15.1716 10.8283 14.5 9.99988 14.5C9.17145 14.5 8.49988 15.1716 8.49988 16C8.49988 16.8284 9.17145 17.5 9.99988 17.5Z" fill="#BF9E66"/>
<path d="M16.0001 17.5C16.8285 17.5 17.5001 16.8284 17.5001 16C17.5001 15.1716 16.8285 14.5 16.0001 14.5C15.1716 14.5 14.5001 15.1716 14.5001 16C14.5001 16.8284 15.1716 17.5 16.0001 17.5Z" fill="#BF9E66"/>
<path d="M22.0002 17.5C22.8287 17.5 23.5002 16.8284 23.5002 16C23.5002 15.1716 22.8287 14.5 22.0002 14.5C21.1718 14.5 20.5002 15.1716 20.5002 16C20.5002 16.8284 21.1718 17.5 22.0002 17.5Z" fill="#BF9E66"/>
</svg>
