<svg id="svg-zone2" class="svg-zone" xmlns="http://www.w3.org/2000/svg" xmlns:xlink="http://www.w3.org/1999/xlink" width="768" height="440" viewBox="0 0 768 440">
  <defs>
    <clipPath id="clip-path">
      <rect id="Rectangle_4085" data-name="Rectangle 4085" width="768" height="440" transform="translate(-239 107)" fill="#fff" stroke="#707070" stroke-width="1"/>
    </clipPath>
  </defs>
  <g id="strefa3" transform="translate(239 -107)" clip-path="url(#clip-path)">
    <g id="Group_2076" data-name="Group 2076" transform="translate(-405.269 349.227)">
      <g id="Group_2073" data-name="Group 2073" transform="translate(0 0)">
        <path id="Path_2620" data-name="Path 2620" d="M1568.918,108.963l16.746-6.141-52.793-13.358-16.775,5.5Z" transform="translate(-756.801 16.028)" fill="#be4c84" opacity="0"/>
        <path id="Path_2624" data-name="Path 2624" d="M1608.267,95.522l13.4-4.914-1.814-2-47.974-11.755L1555.592,82.2Z" transform="translate(-777.634 22.678)" fill="#be4c84" opacity="0"/>
        <path id="Path_2636" data-name="Path 2636" d="M1520,290.906l74.783,26.018,23.233-12.755-73.592-24.363Z" transform="translate(-758.859 -84.374)" fill="#be4c84" opacity="0"/>
        <path id="Path_2638" data-name="Path 2638" d="M1574.714,266.886l73.437,24.312,21.644-11.883-72.328-22.772Z" transform="translate(-787.721 -72.103)" fill="#be4c84" opacity="0"/>
        <path id="Path_2642" data-name="Path 2642" d="M1583.911,166.417l61.928,17.781,18.287-8.313-61.25-16.785Z" transform="translate(-792.572 -20.704)" fill="#be4c84" opacity="0"/>
        <path id="Path_2643" data-name="Path 2643" d="M1447.286,319.625l76.591,28.277,31.293-17.18-74.932-26.07Z" transform="translate(-720.504 -97.48)" fill="#be4c84" opacity="0"/>
        <path id="Path_2644" data-name="Path 2644" d="M1487.807,202.153l63.754,20.072,21.249-9.656-62.939-18.926Z" transform="translate(-741.879 -38.924)" fill="#be4c84" opacity="0"/>
        <path id="Path_2646" data-name="Path 2646" d="M1537.93,183.676l62.792,18.882,19.368-8.8-62.08-17.825Z" transform="translate(-768.317 -29.581)" fill="#be4c84" opacity="0"/>
        <path id="Path_2681" data-name="Path 2681" d="M1568.917,108.966l-52.825-14,16.775-5.5,52.793,13.355Zm-.052-1.116,13.191-4.838-49.149-12.434-13.061,4.282Z" transform="translate(-756.799 16.025)" fill="#be4c84" opacity="0"/>
        <path id="Path_2685" data-name="Path 2685" d="M1608.273,95.523,1555.6,82.2l16.285-5.339,47.974,11.755,1.813,1.995Zm-.058-1.114,11.6-4.255-.53-.583-47.362-11.6-12.5,4.1Z" transform="translate(-777.638 22.677)" fill="#be4c84" opacity="0"/>
        <path id="Path_2697" data-name="Path 2697" d="M1544.423,279.807l73.593,24.363-23.233,12.755L1520,290.907Zm.062,1.143-21.621,9.826,71.82,24.987,20.675-11.349Z" transform="translate(-758.858 -84.374)" fill="#be4c84" opacity="0"/>
        <path id="Path_2699" data-name="Path 2699" d="M1597.471,256.544l72.325,22.771L1648.152,291.2l-73.438-24.312Zm.069,1.139-19.908,9.047,70.413,23.311,19.05-10.458Z" transform="translate(-787.72 -72.104)" fill="#be4c84" opacity="0"/>
        <path id="Path_2703" data-name="Path 2703" d="M1602.875,159.1l61.251,16.785-18.288,8.311-61.927-17.781Zm.058,1.121-15.675,6.046,58.5,16.8L1661,176.14Z" transform="translate(-792.572 -20.706)" fill="#be4c84" opacity="0"/>
        <path id="Path_2704" data-name="Path 2704" d="M1480.237,304.65l74.933,26.07-31.293,17.18-76.59-28.276Zm.054,1.146-30.2,13.726,73.7,27.21,28.766-15.794Z" transform="translate(-720.504 -97.479)" fill="#be4c84" opacity="0"/>
        <path id="Path_2705" data-name="Path 2705" d="M1509.872,193.644l62.939,18.926-21.249,9.656-63.753-20.072Zm.043,1.126-18.88,7.282,60.459,19.035,18.293-8.313Z" transform="translate(-741.88 -38.925)" fill="#be4c84" opacity="0"/>
        <path id="Path_2707" data-name="Path 2707" d="M1558.009,175.93l62.08,17.825-19.368,8.8-62.792-18.882Zm.05,1.122-16.844,6.5,59.429,17.871,16.371-7.44Z" transform="translate(-768.317 -29.581)" fill="#be4c84" opacity="0"/>
        <path id="Path_2631" data-name="Path 2631" d="M1718.311,203.884l69.62,19.991,17.318-9.507-68.622-18.806Z" transform="translate(-863.466 -39.936)" fill="#be4c84" opacity="0"/>
        <path id="Path_2632" data-name="Path 2632" d="M1760.28,185.452l68.45,18.756,15.826-8.689L1777.328,177.7Z" transform="translate(-885.605 -30.517)" fill="#be4c84" opacity="0"/>
        <path id="Path_2634" data-name="Path 2634" d="M1674.1,223.427l70.836,21.3,18.348-10.074-69.791-20.039Z" transform="translate(-840.147 -49.986)" fill="#be4c84" opacity="0"/>
        <path id="Path_2635" data-name="Path 2635" d="M1781.857,129.774l-53.121-13.067-8.889.166-11.829,4.562,59.22,14.981Z" transform="translate(-858.037 1.659)" fill="#be4c84" opacity="0"/>
        <path id="Path_2637" data-name="Path 2637" d="M1625.951,244.353l72.164,22.721,20.107-11.041-71-21.349Z" transform="translate(-814.747 -60.573)" fill="#be4c84" opacity="0"/>
        <path id="Path_2648" data-name="Path 2648" d="M1627.59,150l61.092,16.742L1705.709,159l-60.144-15.937Z" transform="translate(-815.612 -12.247)" fill="#be4c84" opacity="0"/>
        <path id="Path_2649" data-name="Path 2649" d="M1729.2,150.424l16.018-7.28-59.387-15.024-16.614,6.409Z" transform="translate(-837.569 -4.362)" fill="#be4c84" opacity="0"/>
        <path id="Path_2692" data-name="Path 2692" d="M1736.625,195.561l68.624,18.806-17.317,9.507-69.621-19.991Zm.092,1.129-15.333,6.968,66.419,19.071,14.626-8.029Z" transform="translate(-863.464 -39.936)" fill="#be4c84" opacity="0"/>
        <path id="Path_2693" data-name="Path 2693" d="M1777.328,177.708l67.23,17.814-15.828,8.691-68.45-18.758Zm.094,1.127-14.018,6.371,65.191,17.865,13.114-7.2Z" transform="translate(-885.602 -30.519)" fill="#be4c84" opacity="0"/>
        <path id="Path_2695" data-name="Path 2695" d="M1693.5,214.613l69.79,20.039-18.352,10.075-70.834-21.3Zm.083,1.133-16.456,7.479,67.689,20.355,15.693-8.616Z" transform="translate(-840.147 -49.986)" fill="#be4c84" opacity="0"/>
        <path id="Path_2696" data-name="Path 2696" d="M1767.237,136.418l-59.219-14.982,11.829-4.562,8.89-.167,53.12,13.067Zm-.1-1.125,11.482-5.218-50-12.3-8.562.161-8.526,3.289Z" transform="translate(-858.037 1.658)" fill="#be4c84" opacity="0"/>
        <path id="Path_2698" data-name="Path 2698" d="M1647.228,234.685l71,21.349-20.11,11.041-72.166-22.721Zm.076,1.136-18.379,8.352L1698,265.922l17.482-9.6Z" transform="translate(-814.747 -60.574)" fill="#be4c84" opacity="0"/>
        <path id="Path_2709" data-name="Path 2709" d="M1645.564,143.066,1705.709,159l-17.027,7.738L1627.59,150Zm.061,1.118L1631,149.827l57.6,15.784,13.957-6.343Z" transform="translate(-815.612 -12.246)" fill="#be4c84" opacity="0"/>
        <path id="Path_2710" data-name="Path 2710" d="M1729.2,150.423l-59.982-15.894,16.614-6.408,59.387,15.023Zm-.094-1.127,12.9-5.864-56.11-14.195-13.231,5.1Z" transform="translate(-837.572 -4.362)" fill="#be4c84" opacity="0"/>
        <path id="Plac_zabaw_i_basen" data-name="Plac zabaw i basen" d="M1238.769,280.249l-24.652,8.964-5.926-.759-25.652,12.168,1.63,6.928,14.872,7.333,16.5,1.427,117.349,53.582,18.948,1.019L1406.218,342l-165.575-61.123Z" transform="translate(-506.769 -131.526)" fill="#be4c84" opacity="0"/>
        <path id="Path_2694" data-name="Path 2694" d="M1238.77,280.248l1.879.627L1406.22,342l-54.379,28.908-18.947-1.019-117.35-53.581-16.5-1.427-14.872-7.334-1.629-6.927,25.653-12.167,5.925.759Zm.016,1.268-24.26,8.821-.272.1-.289-.037-5.578-.715-24.462,11.6,1.281,5.436,14.164,6.985,16.278,1.406.206.018.187.085,117.144,53.488,18.388.989,51.725-27.5L1240.251,282Z" transform="translate(-506.77 -131.525)" fill="#be4c84" opacity="0"/>
        <path id="Path_2641" data-name="Path 2641" d="M1799.6,166.843l55.551,14.72,12.558-6.895L1812.9,160.8Z" transform="translate(-1042.528 78.97)" fill="#be4c84" opacity="0"/>
        <path id="Path_2645" data-name="Path 2645" d="M1891.51,164.571l9.3-5.107-3.758-2.4-48.083-11.828-12.124,5.51Z" transform="translate(-1065.194 88.445)" fill="#be4c84" opacity="0"/>
        <path id="Path_2702" data-name="Path 2702" d="M1812.9,160.8l54.815,13.867-12.558,6.894-55.552-14.72Zm.084.932-10.76,4.89,52.818,14,10.282-5.645Z" transform="translate(-1042.528 78.97)" fill="#be4c84" opacity="0"/>
        <path id="Path_2706" data-name="Path 2706" d="M1891.512,164.569l-54.664-13.829,12.125-5.51,48.084,11.828,3.757,2.4Zm-.121-.941,7.694-4.224-2.381-1.524-47.644-11.719-9.553,4.341Z" transform="translate(-1065.195 88.445)" fill="#be4c84" opacity="0"/>
        <path id="Path_2585" data-name="Path 2585" d="M1288.558,500.1,1246.5,522.176l42.062-22.077,107.532,49.674h0Z" transform="translate(-536.785 -234.704)" fill="#19b24b"/>
        <path id="Path_2587" data-name="Path 2587" d="M1331.495,497.229l107.151,50.245,31.784-21.316v0l-31.783,21.315Z" transform="translate(-576.674 -233.357)" fill="#19b24b"/>
        <path id="Path_2601" data-name="Path 2601" d="M1374.531,37.831l15.906-4.3-2.242-2.852-45.869-10.9-18.943,5.107Z" transform="translate(-572.87 -9.285)" fill="#be4c84" opacity="0"/>
        <path id="Path_2609" data-name="Path 2609" d="M1441.625,88.808l-53.463-14.167-21.767,6.112,54.363,14.9Z" transform="translate(-593.055 -35.03)" fill="#be4c84" opacity="0"/>
        <path id="Path_2614" data-name="Path 2614" d="M1464.473,148.437l-60.212-17.289-22.841,7.488,60.321,18.139Z" transform="translate(-600.107 -61.551)" fill="#be4c84" opacity="0"/>
        <path id="Path_2615" data-name="Path 2615" d="M1415.844,164.66l-60.437-18.173-25.178,8.254,60.62,19.087Z" transform="translate(-576.08 -68.749)" fill="#be4c84" opacity="0"/>
        <path id="Path_2616" data-name="Path 2616" d="M1553.125,118.152,1493.669,102.4l-20.907,6.853,59.886,16.411Z" transform="translate(-642.976 -48.058)" fill="#be4c84" opacity="0"/>
        <path id="Path_2621" data-name="Path 2621" d="M1430.936,63.252l-19.255,5.406,53.286,14.123,18.8-6.161Z" transform="translate(-614.305 -29.686)" fill="#be4c84" opacity="0"/>
        <path id="Path_2623" data-name="Path 2623" d="M1523.219,65.649l-46.193-11.318-9.78-.2-14.925,4.19,52.639,13.317Z" transform="translate(-633.38 -25.404)" fill="#be4c84" opacity="0"/>
        <path id="Path_2625" data-name="Path 2625" d="M1397.226,102.285l-54.537-14.946-22.034,6.186,55.064,15.811Z" transform="translate(-571.59 -40.991)" fill="#be4c84" opacity="0"/>
        <path id="Path_2629" data-name="Path 2629" d="M1509.837,133.029l-60.01-16.446-21.552,7.066,60.092,17.255Z" transform="translate(-622.097 -54.716)" fill="#be4c84" opacity="0"/>
        <path id="Path_2639" data-name="Path 2639" d="M1406.448,233.385,1378.155,244.3l73.636,25.619,27.4-12.448Z" transform="translate(-598.576 -109.532)" fill="#be4c84" opacity="0"/>
        <path id="Path_2640" data-name="Path 2640" d="M1434.78,223.119l72.586,24.031,25.526-11.6-71.762-22.594Z" transform="translate(-625.149 -99.944)" fill="#be4c84" opacity="0"/>
        <path id="Path_2647" data-name="Path 2647" d="M1414.857,280.873l-73.784-25.67-38.251,14.755,75.07,27.715Z" transform="translate(-563.217 -119.772)" fill="#be4c84" opacity="0"/>
        <path id="Path_2662" data-name="Path 2662" d="M1374.53,37.831l-51.146-12.939,18.943-5.111,45.868,10.9,2.242,2.852Zm-.009-1.238,13.857-3.747-.866-1.1-45.167-10.728-14.229,3.838Z" transform="translate(-572.87 -9.286)" fill="#be4c84" opacity="0"/>
        <path id="Path_2670" data-name="Path 2670" d="M1420.75,95.649l-54.362-14.9,21.768-6.112,53.466,14.168Zm-.03-1.25,16.688-5.47L1388.165,75.88l-17.3,4.857Z" transform="translate(-593.051 -35.03)" fill="#be4c84" opacity="0"/>
        <path id="Path_2675" data-name="Path 2675" d="M1441.742,156.774l-60.321-18.138,22.842-7.488,60.213,17.289Zm-.038-1.26,18.916-6.938L1404.285,132.4l-18.872,6.186Z" transform="translate(-600.107 -61.552)" fill="#be4c84" opacity="0"/>
        <path id="Path_2676" data-name="Path 2676" d="M1390.85,173.827l-60.62-19.087,25.177-8.254,60.438,18.174Zm-.029-1.265,21.241-7.79-56.64-17.031-21.28,6.976Z" transform="translate(-576.082 -68.749)" fill="#be4c84" opacity="0"/>
        <path id="Path_2677" data-name="Path 2677" d="M1532.655,125.661,1472.77,109.25l20.9-6.853,59.456,15.756Zm-.053-1.256,16.548-6.069-55.441-14.691-16.783,5.5Z" transform="translate(-642.977 -48.058)" fill="#be4c84" opacity="0"/>
        <path id="Path_2682" data-name="Path 2682" d="M1430.936,63.252l52.826,13.364-18.8,6.162-53.286-14.12Zm.016,1.239-14.724,4.134,48.7,12.905,14.537-4.766Z" transform="translate(-614.305 -29.688)" fill="#be4c84" opacity="0"/>
        <path id="Path_2684" data-name="Path 2684" d="M1504.962,71.639l-52.64-13.317,14.926-4.19,9.779.2,46.192,11.318Zm-.043-1.245,13.951-4.573-42-10.291-9.469-.2-10.436,2.929Z" transform="translate(-633.383 -25.406)" fill="#be4c84" opacity="0"/>
        <path id="Path_2686" data-name="Path 2686" d="M1375.72,109.335l-55.063-15.81,22.034-6.186,54.537,14.946Zm-.023-1.251,17.376-5.7-50.378-13.806-17.656,4.957Z" transform="translate(-571.589 -40.992)" fill="#be4c84" opacity="0"/>
        <path id="Path_2690" data-name="Path 2690" d="M1488.368,140.9l-60.092-17.255,21.551-7.066,60.011,16.447Zm-.045-1.259,17.589-6.45-56.055-15.361-17.508,5.74Z" transform="translate(-622.096 -54.715)" fill="#be4c84" opacity="0"/>
        <path id="Path_2700" data-name="Path 2700" d="M1406.447,233.384l72.741,24.082-27.4,12.45L1378.156,244.3Zm.031,1.271-24.846,9.584,70.1,24.389,24.177-10.987Z" transform="translate(-598.576 -109.533)" fill="#be4c84" opacity="0"/>
        <path id="Path_2701" data-name="Path 2701" d="M1461.13,212.955l71.763,22.594-25.525,11.6-72.588-24.03Zm.041,1.268-22.84,8.81,68.968,22.833,22.253-10.113Z" transform="translate(-625.149 -99.943)" fill="#be4c84" opacity="0"/>
        <path id="Path_2708" data-name="Path 2708" d="M1377.89,297.672l-75.069-27.715,38.253-14.755,73.784,25.67Zm-.046-1.293,33.795-15.358-70.545-24.544-34.884,13.455Z" transform="translate(-563.218 -119.772)" fill="#be4c84" opacity="0"/>
        <g id="_36"  data-name="36" transform="translate(754.82 243.885)" opacity="0.5">
          <path id="Path_2527" data-name="Path 2527" d="M1369.938,459.567l-38.445,19.987,38.445-19.984,94.97,40.729,5.519,8.183h0l-5.519-8.183Zm.065,1.768L1335.1,479.479l103.409,48.492,29.707-19.923-4.364-6.468Z" transform="translate(-1331.494 -459.567)" fill="rgba(0,117,60,0.75)" opacity="0.4"/>
          <path id="Path_2588" data-name="Path 2588" d="M1369.938,459.572l-38.445,19.984L1438.645,529.8l31.783-21.315-5.519-8.182Zm68.567,68.4L1335.1,479.482,1370,461.337l93.844,40.246,4.364,6.467Z" transform="translate(-1331.494 -459.569)" fill="#19b24b"/>
        </g>
        <g id="_37"  data-name="37" transform="translate(709.711 265.396)" opacity="0.5">
          <path id="Path_2526" data-name="Path 2526" d="M1288.6,503.449l-38.636,20.28,103.966,53.18,38.869-25.326Zm-42.106,20.3h0l107.532,55,42.061-27.406-42.061,27.406Z" transform="translate(-1246.497 -501.672)" fill="rgba(0,117,60,0.75)" opacity="0.4"/>
          <path id="Path_2586" data-name="Path 2586" d="M1288.559,500.1,1246.5,522.177l107.532,55,42.062-27.407Zm65.375,75.237-103.967-53.179,38.638-20.28,104.2,48.134Z" transform="translate(-1246.497 -500.1)" fill="#19b24b"/>
        </g>
        <path id="Path_2567" data-name="Path 2567" d="M883.024,247.29l-40.214,12.1,40.215-12.1,62,27.572h0Z" transform="translate(-347.331 -116.058)" fill="#19b24b"/>
        <path id="Path_2571" data-name="Path 2571" d="M736.213,392.1l-51.285,17.672L736.213,392.1l75.107,41.841Z" transform="translate(-273.236 -184.02)" fill="#19b24b"/>
        <path id="Path_2573" data-name="Path 2573" d="M859.894,534.246l0,0,92.91,56.984,53.6-27.478h0l-53.6,27.476Z" transform="translate(-355.347 -250.729)" fill="#19b24b"/>
        <path id="Path_2580" data-name="Path 2580" d="M881.478,358.2h0l75.733,37.868,42.811-17.586L957.21,396.062l-75.733-37.867" transform="translate(-365.478 -168.107)" fill="#19b24b"/>
        <g id="_20" data-name="20" transform="translate(450.241 144.103)" opacity="0.5">
          <path id="Path_2483" data-name="Path 2483" d="M802.483,274.756,765.609,285.9l58.1,29.488,38.569-12.856Z" transform="translate(-761.341 -273.051)" fill="rgba(0,117,60,0.75)" opacity="0.4"/>
          <path id="Path_3135" data-name="Path 3135" d="M798.83,271.545l-41.264,12.47L819.81,315.6l43.011-14.337Zm21.108,42.335-58.1-29.488,36.875-11.143,59.8,27.775Z" transform="translate(-757.566 -271.545)" fill="#19b24b"/>
        </g>
        <g id="_21" data-name="21" transform="translate(495.479 131.233)" opacity="0.5">
          <path id="Path_2516" data-name="Path 2516" d="M882.917,250.492l-35.622,10.723,58.675,27.149L940.7,276.188ZM842.81,260.9h0l63.077,29.186,39.137-13.718-39.137,13.718Z" transform="translate(-842.81 -248.794)" fill="rgba(0,117,60,0.75)" opacity="0.4"/>
          <path id="Path_2568" data-name="Path 2568" d="M883.025,247.292,842.81,259.4l63.077,29.186,39.136-13.718Zm22.945,39.569-58.676-27.149,35.622-10.722,57.786,25.7Z" transform="translate(-842.81 -247.292)" fill="#19b24b"/>
        </g>
        <g id="_46"  plot-path  data-name="46" transform="translate(542.92 38.037)">
          <path id="Path_2606" data-name="Path 2606" d="M1002.993,84.915,962.954,71.68l-30.747,8.083,38.349,13.9Z" transform="translate(-932.206 -71.679)" fill="rgba(0,117,60,0.75)"/>
          <path id="Path_2667" data-name="Path 2667" d="M970.554,93.666l-38.348-13.9,30.747-8.084,40.039,13.236Zm.053-1.253,28.22-7.613L962.914,72.927l-26.693,7.018Z" transform="translate(-932.206 -71.679)" fill="#19b24b"/>
          <g id="Group_1908" data-name="Group 1908" transform="translate(25.275 4.212)">
            <path id="Path_2744" data-name="Path 2744" d="M986.92,87.23h-1.276V89.3h-1.483V87.23h-4.328V86.057l4.328-6.258h1.483v6.167h1.276Zm-2.759-1.264V83.589q0-1.27.064-2.079h-.052a7.418,7.418,0,0,1-.57,1.036l-2.352,3.42Z" transform="translate(-979.833 -79.702)" fill="#fff"/>
            <path id="Path_2745" data-name="Path 2745" d="M994.775,85.174q0-5.559,4.528-5.558a5.637,5.637,0,0,1,1.2.11V81a4.118,4.118,0,0,0-1.14-.142,2.985,2.985,0,0,0-2.287.816,3.961,3.961,0,0,0-.829,2.617h.079a2.072,2.072,0,0,1,.854-.813,2.756,2.756,0,0,1,1.3-.288,2.58,2.58,0,0,1,2.008.79,3.067,3.067,0,0,1,.719,2.144,3.252,3.252,0,0,1-.833,2.355,3,3,0,0,1-2.27.865,3.17,3.17,0,0,1-1.768-.489,3.114,3.114,0,0,1-1.156-1.425A5.641,5.641,0,0,1,994.775,85.174Zm3.3,2.909a1.487,1.487,0,0,0,1.207-.506,2.183,2.183,0,0,0,.425-1.444,1.914,1.914,0,0,0-.4-1.283,1.487,1.487,0,0,0-1.2-.466,1.973,1.973,0,0,0-.906.211,1.66,1.66,0,0,0-.655.576,1.357,1.357,0,0,0-.24.748,2.4,2.4,0,0,0,.5,1.539A1.547,1.547,0,0,0,998.078,88.083Z" transform="translate(-986.845 -79.616)" fill="#fff"/>
          </g>
        </g>
        <g id="_45"  plot-path data-name="45" transform="translate(507.576 46.657)">
          <path id="Path_2593" data-name="Path 2593" d="M937.283,101.832l-38.37-13.911L865.6,96.677,902.17,111.3Z" transform="translate(-865.604 -87.921)" fill="rgba(0,117,60,0.75)"/>
          <path id="Path_2654" data-name="Path 2654" d="M902.17,111.305,865.605,96.677l33.309-8.756,38.37,13.91Zm.074-1.26,31.066-8.381L898.857,89.173l-29.44,7.74Z" transform="translate(-865.605 -87.921)" fill="#c8220b"/>
          <g id="Group_1909" data-name="Group 1909" transform="translate(27.062 5.387)">
            <path id="Path_2746" data-name="Path 2746" d="M923.685,105.5h-1.276v2.067h-1.484V105.5H916.6V104.33l4.327-6.258h1.484v6.167h1.276Zm-2.76-1.263v-2.377q0-1.27.065-2.079h-.052a7.357,7.357,0,0,1-.571,1.036l-2.352,3.42Z" transform="translate(-916.598 -98.072)" fill="#fff"/>
            <path id="Path_2747" data-name="Path 2747" d="M934.858,101.678a3.25,3.25,0,0,1,2.268.758,2.651,2.651,0,0,1,.836,2.066,3.02,3.02,0,0,1-.949,2.367,3.9,3.9,0,0,1-2.7.852,5.1,5.1,0,0,1-2.494-.512v-1.38a4.546,4.546,0,0,0,1.205.46,5.459,5.459,0,0,0,1.263.162,2.347,2.347,0,0,0,1.568-.46,1.674,1.674,0,0,0,.537-1.347q0-1.7-2.164-1.7a5.705,5.705,0,0,0-.752.062c-.3.041-.559.088-.784.14l-.68-.4.363-4.625H937.3v1.354h-3.582l-.214,2.345c.151-.026.336-.056.554-.091A5.236,5.236,0,0,1,934.858,101.678Z" transform="translate(-923.742 -98.095)" fill="#fff"/>
          </g>
        </g>
        <g id="_44" plot-path  data-name="44" transform="translate(465.618 55.924)">
          <path id="Path_2603" data-name="Path 2603" d="M863.141,120.019l-36.585-14.635-40.012,10.52,36.254,15Z" transform="translate(-786.543 -105.384)" fill="rgba(0,117,60,0.75)"/>
          <path id="Path_2664" data-name="Path 2664" d="M822.8,130.9l-36.255-15,40.013-10.52,36.585,14.636Zm.082-1.261,36.486-9.843-32.887-13.156-36.191,9.515Z" transform="translate(-786.543 -105.384)" fill="#19b24b"/>
          <g id="Group_1910" data-name="Group 1910" transform="translate(30.112 5.349)">
            <path id="Path_2748" data-name="Path 2748" d="M850.372,122.895H849.1v2.067h-1.484v-2.067h-4.327v-1.173l4.327-6.258H849.1v6.167h1.276Zm-2.76-1.264v-2.377q0-1.27.065-2.079h-.052a7.441,7.441,0,0,1-.57,1.036l-2.352,3.42Z" transform="translate(-843.285 -115.464)" fill="#fff"/>
            <path id="Path_2749" data-name="Path 2749" d="M864.642,122.895h-1.276v2.067h-1.483v-2.067h-4.328v-1.173l4.328-6.258h1.483v6.167h1.276Zm-2.759-1.264v-2.377q0-1.27.065-2.079H861.9a7.412,7.412,0,0,1-.57,1.036l-2.352,3.42Z" transform="translate(-849.982 -115.464)" fill="#fff"/>
          </g>
        </g>
        <g id="_48" plot-path  data-name="48" transform="translate(545.991 61.277)">
          <path id="Path_2595" data-name="Path 2595" d="M937.993,124.975l40.132,16.054,12.627-3.415,24.935-6.743-42.471-15.4Z" transform="translate(-937.993 -115.471)" fill="rgba(254,144,0,0.6)"/>
          <path id="Path_2656" data-name="Path 2656" d="M973.216,115.473l42.47,15.4L978.125,141.03l-40.132-16.054Zm-.053,1.254-31.4,8.47L978.2,139.77l33.518-9.064Z" transform="translate(-937.993 -115.472)" fill="#fe9000"/>
          <g id="Group_1913" data-name="Group 1913" transform="translate(31.108 5.497)">
            <path id="Path_2754" data-name="Path 2754" d="M1003.7,133.442h-1.276v2.066h-1.484v-2.066H996.61V132.27l4.327-6.258h1.484v6.167h1.276Zm-2.759-1.263V129.8q0-1.27.065-2.079h-.052a7.324,7.324,0,0,1-.57,1.036l-2.351,3.42Z" transform="translate(-996.61 -125.915)" fill="#fff"/>
            <path id="Path_2755" data-name="Path 2755" d="M1014.691,125.829a3.356,3.356,0,0,1,2.132.618,2,2,0,0,1,.783,1.656,2.6,2.6,0,0,1-1.749,2.319,4.5,4.5,0,0,1,1.584,1.172,2.207,2.207,0,0,1,.47,1.373,2.307,2.307,0,0,1-.862,1.879,3.569,3.569,0,0,1-2.332.706,3.809,3.809,0,0,1-2.39-.661,2.233,2.233,0,0,1-.849-1.872,2.421,2.421,0,0,1,.443-1.422,3.73,3.73,0,0,1,1.455-1.124,3.649,3.649,0,0,1-1.238-1.095,2.354,2.354,0,0,1-.37-1.3,1.951,1.951,0,0,1,.811-1.642A3.4,3.4,0,0,1,1014.691,125.829Zm-1.755,7.139a1.256,1.256,0,0,0,.473,1.046,2.02,2.02,0,0,0,1.283.372,1.974,1.974,0,0,0,1.3-.385,1.288,1.288,0,0,0,.464-1.046,1.339,1.339,0,0,0-.428-.959,4.028,4.028,0,0,0-1.3-.8l-.188-.084a3.323,3.323,0,0,0-1.23.826A1.562,1.562,0,0,0,1012.935,132.968Zm1.743-5.967a1.6,1.6,0,0,0-1.043.321,1.061,1.061,0,0,0-.4.871,1.26,1.26,0,0,0,.143.6,1.567,1.567,0,0,0,.415.482,4.975,4.975,0,0,0,.92.522,3.039,3.039,0,0,0,1.1-.723,1.326,1.326,0,0,0,.321-.884,1.058,1.058,0,0,0-.4-.871A1.638,1.638,0,0,0,1014.679,127Z" transform="translate(-1003.588 -125.829)" fill="#fff"/>
          </g>
        </g>
        <g id="_49" plot-path  data-name="49" transform="translate(503.687 71.3)">
          <path id="Path_2597" data-name="Path 2597" d="M858.278,145.252l39.37,16.288,41.144-11.126L898.655,134.36Z" transform="translate(-858.277 -134.358)" fill="rgba(0,117,60,0.75)"/>
          <path id="Path_2658" data-name="Path 2658" d="M898.657,134.357l40.134,16.055-41.144,11.127-39.37-16.288Zm-.074,1.259-36.6,9.873,35.742,14.788,37.291-10.085Z" transform="translate(-858.277 -134.357)" fill="#19b24b"/>
          <g id="Group_1914" data-name="Group 1914" transform="translate(33.731 6.994)">
            <path id="Path_2756" data-name="Path 2756" d="M928.925,155.149h-1.277v2.067h-1.483v-2.067h-4.327v-1.172l4.327-6.258h1.483v6.167h1.277Zm-2.76-1.263v-2.378q0-1.27.065-2.079h-.052a7.351,7.351,0,0,1-.57,1.037l-2.352,3.42Z" transform="translate(-921.838 -147.622)" fill="#fff"/>
            <path id="Path_2757" data-name="Path 2757" d="M943.115,151.7a6.511,6.511,0,0,1-1.128,4.179,4.126,4.126,0,0,1-3.394,1.38,5.18,5.18,0,0,1-1.237-.1V155.88a4.273,4.273,0,0,0,1.16.162,2.964,2.964,0,0,0,2.3-.829,4.023,4.023,0,0,0,.829-2.6h-.078a2.294,2.294,0,0,1-.923.842,2.9,2.9,0,0,1-1.266.259,2.547,2.547,0,0,1-1.976-.784,3.062,3.062,0,0,1-.719-2.151,3.293,3.293,0,0,1,.832-2.361,2.981,2.981,0,0,1,2.271-.878,3.023,3.023,0,0,1,2.922,1.921A5.6,5.6,0,0,1,943.115,151.7Zm-3.3-2.9a1.473,1.473,0,0,0-1.211.515,2.224,2.224,0,0,0-.421,1.448,1.9,1.9,0,0,0,.392,1.273,1.47,1.47,0,0,0,1.188.463,1.9,1.9,0,0,0,1.3-.459,1.394,1.394,0,0,0,.525-1.076,2.63,2.63,0,0,0-.223-1.078,1.927,1.927,0,0,0-.625-.793A1.524,1.524,0,0,0,939.811,148.8Z" transform="translate(-928.804 -147.536)" fill="#fff"/>
          </g>
        </g>
        <g id="_50" plot-path  data-name="50" transform="translate(455.623 82.705)">
          <path id="Path_2605" data-name="Path 2605" d="M767.707,168.3l38.011,16.688,47.53-12.853-39.371-16.289Z" transform="translate(-767.707 -155.848)" fill="rgba(0,117,60,0.75)"/>
          <path id="Path_2666" data-name="Path 2666" d="M813.877,155.849l39.372,16.289-47.53,12.854L767.708,168.3Zm-.082,1.261L771.3,168.574l34.513,15.152,43.73-11.826Z" transform="translate(-767.708 -155.848)" fill="#19b24b"/>
          <g id="Group_1915" data-name="Group 1915" transform="translate(34.718 8.205)">
            <path id="Path_2758" data-name="Path 2758" d="M836.166,175.146a3.248,3.248,0,0,1,2.267.758,2.653,2.653,0,0,1,.836,2.067,3.018,3.018,0,0,1-.949,2.367,3.906,3.906,0,0,1-2.7.852,5.1,5.1,0,0,1-2.494-.512V179.3a4.567,4.567,0,0,0,1.2.46,5.491,5.491,0,0,0,1.263.162,2.35,2.35,0,0,0,1.568-.46,1.676,1.676,0,0,0,.538-1.347q0-1.7-2.164-1.7a5.594,5.594,0,0,0-.751.062c-.3.041-.559.088-.784.139l-.68-.4.363-4.625h4.923v1.354h-3.582l-.214,2.345c.151-.026.336-.056.554-.091A5.21,5.21,0,0,1,836.166,175.146Z" transform="translate(-833.128 -171.441)" fill="#fff"/>
            <path id="Path_2759" data-name="Path 2759" d="M853.477,176.193a6.738,6.738,0,0,1-.794,3.667,3,3,0,0,1-4.823-.039,6.617,6.617,0,0,1-.816-3.628,6.775,6.775,0,0,1,.793-3.7,3,3,0,0,1,4.823.055A6.661,6.661,0,0,1,853.477,176.193Zm-4.891,0a6.9,6.9,0,0,0,.4,2.766,1.392,1.392,0,0,0,2.552-.013,9.585,9.585,0,0,0,0-5.51,1.387,1.387,0,0,0-2.552-.017A6.957,6.957,0,0,0,848.586,176.193Z" transform="translate(-839.659 -171.309)" fill="#fff"/>
          </g>
        </g>
        <g id="_51"  plot-path data-name="51" transform="translate(527.657 104.058)">
          <path id="Path_2628" data-name="Path 2628" d="M941.259,196.319l.092-.235-37.9,10.643,60.023,24.6,36.317-11.9Z" transform="translate(-903.447 -196.084)" fill="rgba(0,117,60,0.75)"/>
          <path id="Path_2689" data-name="Path 2689" d="M941.35,196.084l-.094.235,58.528,23.1L963.468,231.33l-60.023-24.6Zm-.468,1.374-33.765,9.481,56.4,23.116,32.747-10.735Z" transform="translate(-903.445 -196.084)" fill="#19b24b"/>
          <g id="Group_1920" data-name="Group 1920" transform="translate(40.513 11.014)">
            <path id="Path_2768" data-name="Path 2768" d="M982.823,220.394a3.248,3.248,0,0,1,2.267.758,2.65,2.65,0,0,1,.836,2.067,3.019,3.019,0,0,1-.949,2.368,3.9,3.9,0,0,1-2.7.852,5.1,5.1,0,0,1-2.495-.512v-1.38a4.578,4.578,0,0,0,1.205.46,5.468,5.468,0,0,0,1.263.162,2.348,2.348,0,0,0,1.567-.46,1.676,1.676,0,0,0,.538-1.347q0-1.7-2.164-1.7a5.689,5.689,0,0,0-.752.062q-.447.062-.784.139l-.68-.4.363-4.625h4.923v1.354h-3.582l-.214,2.345.553-.091A5.312,5.312,0,0,1,982.823,220.394Z" transform="translate(-979.785 -216.837)" fill="#fff"/>
            <path id="Path_2769" data-name="Path 2769" d="M998.561,226.308H997.04v-6.116q0-1.095.052-1.736-.149.155-.366.343t-1.453,1.192l-.765-.965,2.786-2.19h1.269Z" transform="translate(-986.694 -216.837)" fill="#fff"/>
          </g>
        </g>
        <g id="_23" data-name="23" transform="translate(515.999 175.216)" opacity="0.5">
          <path id="Path_2523" data-name="Path 2523" d="M923.811,330.171l-42.334,14.872Zm-.081,1.72L885.56,345.3l71.714,35.859,38.752-15.918Z" transform="translate(-881.477 -330.171)" fill="rgba(0,117,60,0.75)" opacity="0.4"/>
          <path id="Path_2581" data-name="Path 2581" d="M923.811,330.171h0l-42.333,14.873L957.21,382.91l42.812-17.584Zm33.464,50.989L885.561,345.3l38.17-13.409,72.3,33.349Z" transform="translate(-881.478 -330.171)" fill="#19b24b"/>
        </g>
        <g id="_24" data-name="24" transform="translate(466.31 190.674)" opacity="0.5">
          <path id="Path_2489" data-name="Path 2489" d="M837.686,362.56l-42.522,14.806,71.281,39.741,43.586-17.868Z" transform="translate(-791.281 -360.83)" fill="rgba(0,117,60,0.75)" opacity="0.4"/>
          <path id="Path_2490" data-name="Path 2490" d="M834.367,359.3l-46.521,16.2,75.06,41.847,47.524-19.482Zm28.644,56.277-71.282-39.74,42.522-14.806L906.6,397.709Z" transform="translate(-787.846 -359.299)" fill="#19b24b"/>
        </g>
        <g id="_25" data-name="25" transform="translate(411.693 208.084)" opacity="0.5">
          <path id="Path_2518" data-name="Path 2518" d="M739.344,395.384l-47.415,16.339,70.2,43.114,48.777-19.587Z" transform="translate(-688.214 -393.644)" fill="rgba(0,117,60,0.75)" opacity="0.4"/>
          <path id="Path_2572" data-name="Path 2572" d="M736.214,392.1l-51.285,17.671,73.763,45.3,52.628-21.133ZM758.843,453.3l-70.2-43.114,47.415-16.339,71.563,39.866Z" transform="translate(-684.929 -392.105)" fill="#19b24b"/>
        </g>
        <g id="_32" data-name="32" transform="translate(504.543 259.744)" opacity="0.5">
          <path id="Path_2519" data-name="Path 2519" d="M912.933,490.952l-53.042,22.974,0,0,53.038-22.972,93.47,52.478,0,0Zm-.09,1.783-49.5,21.439,89.529,54.911,50.161-25.713Z" transform="translate(-859.891 -490.952)" fill="rgba(0,117,60,0.75)" opacity="0.4"/>
          <path id="Path_2574" data-name="Path 2574" d="M912.936,490.959,859.9,513.931,952.8,570.912l53.6-27.476Zm39.938,78.128-89.53-54.911,49.5-21.439,90.19,50.635Z" transform="translate(-859.894 -490.158)" fill="#19b24b"/>
        </g>
        <g id="_31" data-name="31" transform="translate(370.408 279.125)" opacity="0.5">
          <path id="Path_2485" data-name="Path 2485" d="M732.281,529.353,613.01,580.108l95.035,74.062L831,590.832Z" transform="translate(-609.892 -527.559)" fill="rgba(0,117,60,0.75)" opacity="0.4"/>
          <path id="Path_2486" data-name="Path 2486" d="M729.662,525.972,607.134,578.114l97.977,76.355,126.357-65.093ZM705.287,652.583l-95.035-74.062,119.271-50.755,98.714,61.478Z" transform="translate(-607.134 -525.972)" fill="#19b24b"/>
          <g id="Group_1931" data-name="Group 1931" transform="translate(105.046 51.9)">
            <path id="Path_2790" data-name="Path 2790" d="M811.165,626.083a2.2,2.2,0,0,1-.525,1.5,2.638,2.638,0,0,1-1.477.806v.052a2.865,2.865,0,0,1,1.71.709,2.031,2.031,0,0,1,.57,1.506,2.5,2.5,0,0,1-.966,2.109,4.43,4.43,0,0,1-2.747.741,6.2,6.2,0,0,1-2.656-.511v-1.355a6.018,6.018,0,0,0,1.277.46,5.541,5.541,0,0,0,1.3.162,2.731,2.731,0,0,0,1.645-.408,1.476,1.476,0,0,0,.544-1.264,1.2,1.2,0,0,0-.6-1.114,3.846,3.846,0,0,0-1.892-.356h-.823v-1.237h.836q2.267,0,2.268-1.568a1.159,1.159,0,0,0-.4-.94,1.783,1.783,0,0,0-1.166-.33,3.523,3.523,0,0,0-1.037.152,4.934,4.934,0,0,0-1.179.593l-.745-1.063a4.967,4.967,0,0,1,3.026-.958,3.6,3.6,0,0,1,2.235.615A2.02,2.02,0,0,1,811.165,626.083Z" transform="translate(-805.075 -623.77)" fill="#fff"/>
            <path id="Path_2791" data-name="Path 2791" d="M824.231,633.5h-1.522v-6.115q0-1.095.052-1.737c-.1.1-.221.219-.366.344s-.63.523-1.454,1.192l-.765-.966,2.786-2.189h1.27Z" transform="translate(-812.162 -623.89)" fill="#fff"/>
          </g>
        </g>
        <g id="_40" data-name="40" transform="translate(537.905 344.695)" opacity="0.5">
          <path id="Path_2521" data-name="Path 2521" d="M985.7,652.989,928.54,682.962l107.5,74.786,57.483-37.914Z" transform="translate(-925.47 -651.152)" fill="rgba(0,117,60,0.75)"/>
          <path id="Path_2577" data-name="Path 2577" d="M983.049,649.529l-60.293,31.618L1033.3,758.052l60.47-39.884Zm-57.223,31.81h0l57.158-29.974L1090.81,718.21l-57.483,37.915Z" transform="translate(-922.756 -649.529)" fill="#c8220b"/>
        </g>
        <g id="_41"  data-name="41" transform="translate(472.438 378.567)" opacity="0.5">
          <path id="Path_2487" data-name="Path 2487" d="M862.885,716.858l-58.02,30.293,105.76,84.915,61.448-39.856Z" transform="translate(-801.961 -714.998)" fill="rgba(0,117,60,0.75)" opacity="0.4"/>
          <path id="Path_2488" data-name="Path 2488" d="M860.432,713.353l-61.039,31.87,108.563,87.166,64.416-41.782Zm47.624,117.069L802.3,745.507l58.02-30.294L969.5,790.566Z" transform="translate(-799.393 -713.353)" fill="#19b24b"/>
        </g>
        <rect id="Rectangle_2513" data-name="Rectangle 2513" width="952" height="539" transform="translate(0.269 8.772)" fill="none"/>
        <path id="Path_2508" data-name="Path 2508" d="M123.236,343.164,51.374,363.02l71.862-19.853.56.461h0Z" transform="translate(24.097 -161.053)" fill="#19b24b"/>
        <path id="Path_2511" data-name="Path 2511" d="M370.724,278.548,320.7,292.033l-.384.107,50.415-13.59Z" transform="translate(-102.119 -130.727)" fill="#19b24b"/>
        <path id="Path_2513" data-name="Path 2513" d="M500.488,251.263l-12.437,3.352-.148.041,12.585-3.392h0" transform="translate(-180.771 -117.922)" fill="#19b24b"/>
        <path id="Path_2528" data-name="Path 2528" d="M404.236,549.352l-106.686,39.6,106.686-39.594,50.413,39.087h0Z" transform="translate(-91.436 -257.818)" fill="#19b24b"/>
        <path id="Path_2532" data-name="Path 2532" d="M189.856,260.122,130.011,275.39l.2.773,0,0,0,0L189.7,260.984l34.95,23.892L162.78,302.092l-32.566-25.931h-.005l-.494.621L162.1,302.572l63.911-17.734Z" transform="translate(-12.667 -122.08)" fill="#19b24b"/>
        <path id="Path_2535" data-name="Path 2535" d="M129.713,291.518h0Z" transform="translate(-12.668 -136.814)" fill="#19b24b"/>
        <path id="Path_2536" data-name="Path 2536" d="M656.566,148.364h0L694.108,165.4,655.3,176.608,694.11,165.4Zm-38.651,9.917h0L655.3,176.608Z" transform="translate(-241.783 -69.631)" fill="#19b24b"/>
        <path id="Path_2538" data-name="Path 2538" d="M366.763,545.779l-104.82,39.584-38.949-39.582,0,0,38.951,39.583,104.82-39.583,0,0" transform="translate(-56.445 -256.142)" fill="#19b24b"/>
        <path id="Path_2540" data-name="Path 2540" d="M253.594,420.768h0l38.79,30.556-100.7,34.043-31.033-31.824h0l31.034,31.827,100.705-34.044Z" transform="translate(-27.186 -197.473)" fill="#19b24b"/>
        <path id="Path_2542" data-name="Path 2542" d="M472.662,254.263l-19.793,5.422,19.793-5.421,52.106,28.919h0Zm-47.053,12.888h0l48.229,30.4-48.229-30.4" transform="translate(-151.534 -119.33)" fill="#19b24b"/>
        <path id="Path_2544" data-name="Path 2544" d="M664.558,281.038l-46,13.962,46-13.961Z" transform="translate(-242.088 -131.895)" fill="#19b24b"/>
        <path id="Path_2546" data-name="Path 2546" d="M730.814,183.767h0l62.294,26.067ZM691.668,194.63h0l55.21,26.545,46.231-11.341-46.231,11.34Z" transform="translate(-276.398 -86.246)" fill="#19b24b"/>
        <path id="Path_2547" data-name="Path 2547" d="M729.645,182.854l-19,5.67,19-5.669,1.154.483h0Zm-38,11.34h0l.014.007h0l-.015-.007" transform="translate(-276.386 -85.817)" fill="#19b24b"/>
        <path id="Path_2549" data-name="Path 2549" d="M729.646,182.857l-19,5.669-19,5.67.014.006L730.8,183.34Z" transform="translate(-276.388 -85.819)" fill="#19b24b"/>
        <path id="Path_2550" data-name="Path 2550" d="M210.833,408.64,148,426.514l62.838-17.871Z" transform="translate(-21.249 -191.781)" fill="#19b24b"/>
        <path id="Path_2552" data-name="Path 2552" d="M123.236,343.17,51.374,363.023l.575.544L123.8,343.631Z" transform="translate(24.097 -161.056)" fill="#19b24b"/>
        <path id="Path_2553" data-name="Path 2553" d="M0,330.629l25.764,25.3,72.519-19.582,0,0L25.764,355.923Z" transform="translate(48.207 -155.17)" fill="#19b24b"/>
        <path id="Path_2555" data-name="Path 2555" d="M301.215,235.362l-52.6,13.36,0,0,52.6-13.358L336.642,258h0Z" transform="translate(-68.468 -110.46)" fill="#19b24b"/>
        <path id="Path_2556" data-name="Path 2556" d="M414.493,278.026h0l.433.276h0Z" transform="translate(-146.316 -130.482)" fill="#19b24b"/>
        <path id="Path_2558" data-name="Path 2558" d="M370.631,278.028l-49.594,13.762L371.064,278.3Z" transform="translate(-102.458 -130.483)" fill="#19b24b"/>
        <path id="Path_2559" data-name="Path 2559" d="M401.47,211.693l-46.506,12.082h0l46.507-12.081Zm15.334,8.791,21.178,12.142h0Z" transform="translate(-118.38 -99.352)" fill="#19b24b"/>
        <path id="Path_2560" data-name="Path 2560" d="M511.4,251.137h0l.117.067h0Z" transform="translate(-191.796 -117.864)" fill="#19b24b"/>
        <path id="Path_2562" data-name="Path 2562" d="M500.5,251.137l-12.32,3.419,12.438-3.352Z" transform="translate(-180.9 -117.863)" fill="#19b24b"/>
        <path id="Path_2563" data-name="Path 2563" d="M491.8,189.285l-43.054,11.027L491.8,189.285l38.162,19.465h0Zm-43.054,11.027,36.246,20.808,22.486-6.185-22.486,6.184Z" transform="translate(-162.396 -88.835)" fill="#19b24b"/>
        <path id="Path_2565" data-name="Path 2565" d="M576.382,168.66l-39.906,10.473h0l39.9-10.474,37.912,18.44Z" transform="translate(-203.566 -79.156)" fill="#19b24b"/>
        <path id="Path_2569" data-name="Path 2569" d="M572.982,427.767,452.848,468.476l120.134-40.708,80.388,49.944h0Z" transform="translate(-164.317 -200.757)" fill="#19b24b"/>
        <g id="_1" data-name="1" transform="translate(48.207 155.054)" opacity="0.5">
          <g id="Group_1951" data-name="Group 1951" transform="translate(0 0)">
            <path id="Path_2554" data-name="Path 2554" d="M65.76,292.182,6.371,306.964,0,312.586,25.764,337.88,98.284,318.3ZM26.231,336.1,2.342,312.648l4.793-4.23,58.242-14.5,29.458,23.657Z" transform="translate(0 -292.179)" fill="#19b24b"/>
            <path id="Path_2509" data-name="Path 2509" d="M65.76,292.177,6.368,306.961,0,312.583l6.371-5.621L65.76,292.18,98.282,318.3h0Zm-.383,1.742-58.242,14.5-4.793,4.23L26.231,336.1l68.6-18.526Z" transform="translate(0 -292.177)" fill="rgba(0,117,60,0.75)" opacity="0.4"/>
          </g>
        </g>
        <g id="_2" data-name="2" transform="translate(117.54 138.905)" opacity="0.5">
          <path id="Path_2500" data-name="Path 2500" d="M191.542,263.372l-57.584,14.691,30.992,24.676,59.828-16.647Z" transform="translate(-132.201 -262.51)" fill="rgba(0,117,60,0.75)" opacity="0.4"/>
          <path id="Path_2534" data-name="Path 2534" d="M190.141,261.748l-59.49,15.177,32.567,25.932,61.872-17.217ZM132.4,277.3l57.584-14.691,33.236,22.721L163.4,301.977Zm-1.756-.378,0,0h0Z" transform="translate(-130.646 -261.748)" fill="#19b24b"/>
        </g>
        <g id="_3" data-name="3" transform="translate(180.146 124.906)" opacity="0.5">
          <path id="Path_2510" data-name="Path 2510" d="M300.94,238.6l-48.557,12.331,30.992,21.692,49.8-13.424Zm-52.323,11.645h0l34.455,24.117,3.593-.968.384-.107-3.979,1.072-34.452-24.114" transform="translate(-248.617 -236.884)" fill="rgba(0,117,60,0.75)" opacity="0.4"/>
          <path id="Path_2557" data-name="Path 2557" d="M301.219,235.369l-52.6,13.358,34.453,24.115,3.98-1.073,49.594-13.762Zm-17.843,35.737-30.992-21.692,48.557-12.332,32.236,20.6Z" transform="translate(-248.617 -235.369)" fill="#19b24b"/>
        </g>
        <g id="_4" data-name="4" transform="translate(236.583 112.343)" opacity="0.5">
          <path id="Path_2512" data-name="Path 2512" d="M401.473,211.7h0l15.331,8.789Zm-.233,1.707L358.866,224.41l30.41,19.789,44.68-12.042Zm-46.276,10.375h0L389,245.927l36.51-9.84.147-.041L389,245.925l-34.038-22.149" transform="translate(-354.964 -211.695)" fill="rgba(0,117,60,0.75)" opacity="0.4"/>
          <path id="Path_2561" data-name="Path 2561" d="M401.473,211.7l-46.509,12.082L389,245.925l36.658-9.88,12.32-3.419L416.8,220.484,401.472,211.7m-12.2,32.5-30.41-19.789L401.24,213.4l32.715,18.755Z" transform="translate(-354.964 -211.695)" fill="#19b24b"/>
        </g>
        <g id="_5" data-name="5" transform="translate(286.355 100.45)" opacity="0.5">
          <path id="Path_2514" data-name="Path 2514" d="M495.331,192.48l-38.666,9.9L488.928,220.9l40.363-11.1Zm38.35,17.77L511.2,216.434l22.486-6.184Z" transform="translate(-452.464 -190.784)" fill="rgba(0,117,60,0.75)" opacity="0.4"/>
          <path id="Path_2564" data-name="Path 2564" d="M491.8,189.285,448.75,200.311,485,221.118l22.486-6.184,22.484-6.185ZM485.213,219.4l-32.263-18.521,38.665-9.9,33.96,17.322Z" transform="translate(-448.75 -189.285)" fill="#19b24b"/>
        </g>
        <g id="_6" data-name="6" transform="translate(332.911 89.503)" opacity="0.5">
          <path id="Path_2515" data-name="Path 2515" d="M576.216,171.851l-35.269,9.257,33.1,16.779,35.726-9.715Zm-39.737,8.78h0l37.4,18.957L614.295,188.6l-40.421,10.991Z" transform="translate(-536.477 -170.157)" fill="rgba(0,117,60,0.75)" opacity="0.4"/>
          <path id="Path_2566" data-name="Path 2566" d="M576.383,168.659l-39.9,10.474,37.395,18.957L614.3,187.1Zm-2.335,27.729-33.1-16.779,35.268-9.257,33.558,16.321Z" transform="translate(-536.478 -168.659)" fill="#19b24b"/>
        </g>
        <g id="_7" data-name="7" transform="translate(376.128 78.733)" opacity="0.5">
          <path id="Path_2501" data-name="Path 2501" d="M656.563,148.364l-38.651,9.916h0l38.65-9.916Zm-.145,1.685-33.919,8.7L655.451,174.9l34.062-9.834Z" transform="translate(-617.913 -148.364)" fill="rgba(0,117,60,0.75)" opacity="0.4"/>
          <path id="Path_2537" data-name="Path 2537" d="M656.566,148.365l-38.649,9.916L655.3,176.608,694.109,165.4l-37.544-17.038M655.453,174.9,622.5,158.751l33.919-8.7,33.1,15.019Z" transform="translate(-617.915 -148.364)" fill="#19b24b"/>
        </g>
        <g id="_8" data-name="8" transform="translate(415.271 97.522)" opacity="0.5">
          <path id="Path_2506" data-name="Path 2506" d="M733.455,186.045l-33.5,10,50.988,24.516,40.973-10.051Z" transform="translate(-695.556 -184.836)" fill="rgba(0,117,60,0.75)" opacity="0.4"/>
          <path id="Path_2548" data-name="Path 2548" d="M730.814,183.767,691.669,194.63l55.208,26.544,46.231-11.339Zm16.238,35.722-50.989-24.516,33.505-10,58.455,24.462Z" transform="translate(-691.669 -183.767)" fill="#19b24b"/>
        </g>
        <g id="_9" data-name="9" transform="translate(372.781 109.368)" opacity="0.5">
          <path id="Path_2471" data-name="Path 2471" d="M654.768,209.3l-35.048,9.952,48.7,25.281,37.052-10.406Z" transform="translate(-615.414 -207.598)" fill="rgba(0,117,60,0.75)" opacity="0.4"/>
          <path id="Path_2472" data-name="Path 2472" d="M651.113,206.092l-39.506,11.22,52.834,27.422,41.685-11.708Zm13.5,36.936-48.7-25.28L650.96,207.8l50.707,24.827Z" transform="translate(-611.607 -206.092)" fill="#19b24b"/>
        </g>
        <g id="_10" data-name="10" transform="translate(324.492 121.715)" opacity="0.5">
          <path id="Path_2505" data-name="Path 2505" d="M565.241,229.357l-44.627,12.1,44.626-12.092,53.349,27.422h0Zm-.18,1.7L524.79,241.974l47.993,27.046L614.357,256.4Z" transform="translate(-520.614 -229.357)" fill="rgba(0,117,60,0.75)" opacity="0.4"/>
          <path id="Path_2545" data-name="Path 2545" d="M565.24,229.365l-44.626,12.091,51.98,29.293,46-13.961Zm7.543,39.659-47.993-27.046,40.27-10.912,49.3,25.341Z" transform="translate(-520.614 -229.361)" fill="#19b24b"/>
        </g>
        <g id="_11" data-name="11" transform="translate(274.073 134.934)" opacity="0.5">
          <path id="Path_2504" data-name="Path 2504" d="M472.456,257.486l-42.931,11.759,44.563,28.086,46.518-13.119ZM452.867,261.2l-27.259,7.465Zm71.9,23.5-50.929,14.364L524.766,284.7" transform="translate(-425.608 -255.777)" fill="rgba(0,117,60,0.75)" opacity="0.4"/>
          <path id="Path_2543" data-name="Path 2543" d="M472.661,254.266l-19.793,5.42-27.26,7.466,48.229,30.4,50.929-14.364Zm1.427,41.553-44.563-28.085,42.931-11.759L520.606,282.7Z" transform="translate(-425.608 -254.266)" fill="#19b24b"/>
        </g>
        <g id="_12" data-name="12" transform="translate(216.549 149.248)" opacity="0.5">
          <path id="Path_2473" data-name="Path 2473" d="M373.806,284.483l-49.582,13.454,43.175,29.99,52-15.361Z" transform="translate(-320.501 -282.761)" fill="rgba(0,117,60,0.75)" opacity="0.4"/>
          <path id="Path_2474" data-name="Path 2474" d="M370.762,281.239l-53.554,14.533,46.616,32.38,56.162-16.591ZM364.107,326.4l-43.175-29.99,49.582-13.455L416.1,311.044Z" transform="translate(-317.209 -281.239)" fill="#19b24b"/>
        </g>
        <g id="_13" data-name="13" transform="translate(152.954 164.596)" opacity="0.5">
          <path id="Path_2469" data-name="Path 2469" d="M260.733,313.438,203.67,329.425l37.3,31.322,61.9-17.789Z" transform="translate(-200.33 -311.698)" fill="rgba(0,117,60,0.75)" opacity="0.4"/>
          <path id="Path_2470" data-name="Path 2470" d="M258.076,310.159l-60.7,17.005,40.267,33.814,65.929-18.949Zm-20.057,49.049-37.3-31.322L257.779,311.9l42.141,29.52Z" transform="translate(-197.376 -310.159)" fill="#19b24b"/>
        </g>
        <g id="_14" data-name="14" transform="translate(76.046 182.574)" opacity="0.5">
          <path id="Path_2507" data-name="Path 2507" d="M126.587,344.037h0l41.689,34.283h0Zm-.939,1.3-68.337,18.88L89.388,394.6h15.828l59.694-16.977Z" transform="translate(-54.736 -344.037)" fill="rgba(0,117,60,0.75)" opacity="0.4"/>
          <path id="Path_2551" data-name="Path 2551" d="M124.306,344.039,52.459,363.975,86.475,396.2h16.686L166,378.322ZM87.111,394.6,55.034,364.217l68.336-18.88,39.262,32.285L102.939,394.6Z" transform="translate(-52.459 -344.038)" fill="#19b24b"/>
        </g>
        <g id="_15" data-name="15" transform="translate(133.462 223.295)" opacity="0.5">
          <path id="Path_2503" data-name="Path 2503" d="M253.592,420.768l-82.653,24.063-10.293,8.71h0l10.292-8.707Zm-.342,1.761-81.539,23.743-8.726,7.383,29.138,29.881,96.962-32.779Z" transform="translate(-160.646 -420.768)" fill="rgba(0,117,60,0.75)" opacity="0.4"/>
          <path id="Path_2541" data-name="Path 2541" d="M253.594,420.768h0l-82.652,24.067-10.292,8.708,31.033,31.824,100.7-34.043Zm-61.468,62.768-29.138-29.88,8.726-7.383,81.539-23.744,35.835,28.229Z" transform="translate(-160.648 -420.768)" fill="#19b24b"/>
        </g>
        <g id="_16" data-name="16" transform="translate(231.208 205.822)" opacity="0.5">
          <g id="Group_1950" data-name="Group 1950">
            <path id="Path_2475" data-name="Path 2475" d="M400.426,391.155,351.12,406.19l50.786,41.2,51.674-18.076Z" transform="translate(-347.784 -389.398)" fill="rgba(254,144,0,0.6)"/>
            <path id="Path_2476" data-name="Path 2476" d="M397.766,387.844l-52.933,16.139,53.809,43.658,55.411-19.385Zm1.191,58-50.787-41.2L397.475,389.6l53.154,38.162Z" transform="translate(-344.833 -387.844)" fill="#fe9000"/>
          </g>
        </g>
        <g id="_17" data-name="17" transform="translate(288.079 187.885)" opacity="0.5">
          <path id="Path_2477" data-name="Path 2477" d="M513.192,357.3l-54.4,15.752,52.764,37.785,57.609-18.787Z" transform="translate(-455.185 -355.574)" fill="rgba(0,117,60,0.75)" opacity="0.4"/>
          <path id="Path_2478" data-name="Path 2478" d="M510.243,354.044,452,370.907l56.094,40.171,61.639-20.1Zm-1.878,55.267L455.6,371.525l54.4-15.751,55.969,34.75Z" transform="translate(-451.998 -354.044)" fill="#19b24b"/>
        </g>
        <g id="_18" data-name="18" transform="translate(349.857 171.958)" opacity="0.5">
          <path id="Path_2479" data-name="Path 2479" d="M619.333,327.281l-43.727,13.326,55.708,34.79,46.119-15.649Z" transform="translate(-571.786 -325.556)" fill="rgba(0,117,60,0.75)" opacity="0.4"/>
          <path id="Path_2480" data-name="Path 2480" d="M616.14,324.031l-47.732,14.547,59.324,37.049,50.234-17.047Zm11.8,49.841-55.708-34.79,43.727-13.326,58.1,32.467Z" transform="translate(-568.408 -324.031)" fill="#19b24b"/>
        </g>
        <g id="_19" data-name="19" transform="translate(401.807 157.614)" opacity="0.5">
          <path id="Path_2481" data-name="Path 2481" d="M715.3,300.219l-41.266,12,57.6,32.235,42.559-14.58Z" transform="translate(-669.929 -298.512)" fill="rgba(0,117,60,0.75)" opacity="0.4"/>
          <path id="Path_2482" data-name="Path 2482" d="M711.827,297,666.3,310.243l61.546,34.444,46.823-16.041ZM728,342.946l-57.6-32.236,41.266-12,58.893,29.657Z" transform="translate(-666.299 -297.002)" fill="#19b24b"/>
        </g>
        <g id="_43"  plot-path data-name="43" transform="translate(418.457 66.947)">
          <path id="Path_2604" data-name="Path 2604" d="M742.921,126.155l-45.248,11.9L733.091,153.6l46.1-12.438Z" transform="translate(-697.674 -126.155)" fill="rgba(0,117,60,0.75)"/>
          <path id="Path_2665" data-name="Path 2665" d="M742.922,126.155,779.2,141.163l-46.1,12.438-35.417-15.549Zm-.085,1.26L701.3,138.336l31.887,14,42.3-11.411Z" transform="translate(-697.674 -126.155)" fill="#19b24b"/>
          <g id="Group_1911" data-name="Group 1911" transform="translate(31.648 7.031)">
            <path id="Path_2750" data-name="Path 2750" d="M764.4,147.042H763.12v2.066h-1.484v-2.066h-4.328V145.87l4.328-6.258h1.484v6.167H764.4Zm-2.76-1.263V143.4q0-1.27.064-2.08h-.051a7.366,7.366,0,0,1-.57,1.037l-2.352,3.421Z" transform="translate(-757.309 -139.502)" fill="#fff"/>
            <path id="Path_2751" data-name="Path 2751" d="M778.242,141.717a2.2,2.2,0,0,1-.525,1.5,2.644,2.644,0,0,1-1.478.807v.051a2.862,2.862,0,0,1,1.711.71,2.03,2.03,0,0,1,.57,1.506,2.5,2.5,0,0,1-.965,2.109,4.429,4.429,0,0,1-2.747.741,6.181,6.181,0,0,1-2.656-.512v-1.354a6.055,6.055,0,0,0,1.276.46,5.523,5.523,0,0,0,1.3.162,2.733,2.733,0,0,0,1.646-.408,1.476,1.476,0,0,0,.544-1.263,1.2,1.2,0,0,0-.6-1.115,3.856,3.856,0,0,0-1.893-.356H773.6v-1.237h.836q2.268,0,2.267-1.568a1.159,1.159,0,0,0-.395-.939,1.782,1.782,0,0,0-1.167-.33,3.534,3.534,0,0,0-1.036.152,4.884,4.884,0,0,0-1.18.593l-.744-1.063a4.965,4.965,0,0,1,3.024-.959,3.6,3.6,0,0,1,2.236.616A2.02,2.02,0,0,1,778.242,141.717Z" transform="translate(-764.275 -139.404)" fill="#fff"/>
          </g>
        </g>
        <g id="_26" data-name="26" transform="translate(288.531 227.01)" opacity="0.5">
          <path id="Path_2517" data-name="Path 2517" d="M572.779,431.071,456.149,470.594l74.229,58.444L649.9,478.984ZM452.848,470.029h0l77.28,60.844L653.37,479.262l-123.241,51.61-77.28-60.845" transform="translate(-452.848 -429.319)" fill="rgba(0,117,60,0.75)" opacity="0.4"/>
          <path id="Path_2570" data-name="Path 2570" d="M572.982,427.77,452.848,468.48l77.28,60.844L653.37,477.713Zm-42.6,99.719-74.229-58.444,116.631-39.523L649.9,477.435Z" transform="translate(-452.848 -427.77)" fill="#19b24b"/>
        </g>
        <g id="_27" data-name="27" transform="translate(166.547 256.384)" opacity="0.5">
          <path id="Path_2502" data-name="Path 2502" d="M324.17,483.12,222.991,516.372l0,0,101.176-33.25,42.59,33.249,0,0Zm-.311,1.786-97.926,32.183L262.35,554.1l101.191-38.215Z" transform="translate(-222.991 -483.12)" fill="rgba(0,117,60,0.75)"/>
          <path id="Path_2539" data-name="Path 2539" d="M324.17,483.129,222.992,516.38l38.951,39.581,104.82-39.585ZM262.351,554.1l-36.418-37.011,97.926-32.182,39.683,30.979Z" transform="translate(-222.992 -483.124)" fill="#c8220b"/>
        </g>
        <g id="_28" data-name="28" transform="translate(206.115 291.534)" opacity="0.5">
          <path id="Path_2497" data-name="Path 2497" d="M403.958,552.753l-103.5,38.413,43.533,42.785,107.5-44.341Zm50.69,37.283L343.624,635.829l-46.076-45.286h0l46.076,45.285,111.023-45.792" transform="translate(-297.549 -550.949)" fill="rgba(0,117,60,0.75)" opacity="0.4"/>
          <path id="Path_2529" data-name="Path 2529" d="M404.235,549.354l-106.687,39.6,46.076,45.284,111.023-45.793Zm-60.244,83L300.459,589.57l103.5-38.412,47.536,36.857Z" transform="translate(-297.549 -549.354)" fill="#19b24b"/>
          <g id="Group_1940" data-name="Group 1940" transform="translate(63.539 33.056)">
            <path id="Path_2808" data-name="Path 2808" d="M423.7,621.249h-6.42V620.1l2.442-2.455a20.675,20.675,0,0,0,1.435-1.571,3.733,3.733,0,0,0,.515-.871,2.359,2.359,0,0,0,.162-.875,1.335,1.335,0,0,0-.385-1.011,1.477,1.477,0,0,0-1.066-.369,2.844,2.844,0,0,0-1.053.2,4.949,4.949,0,0,0-1.175.725l-.823-1a5.339,5.339,0,0,1,1.536-.946,4.5,4.5,0,0,1,1.587-.278,3.121,3.121,0,0,1,2.119.69,2.329,2.329,0,0,1,.8,1.856,3.258,3.258,0,0,1-.23,1.218,4.979,4.979,0,0,1-.706,1.189,16.221,16.221,0,0,1-1.584,1.654l-1.646,1.594v.065h4.5Z" transform="translate(-417.278 -611.642)" fill="#fff"/>
            <path id="Path_2809" data-name="Path 2809" d="M434.736,611.666a3.351,3.351,0,0,1,2.131.619,2,2,0,0,1,.784,1.655,2.6,2.6,0,0,1-1.749,2.32,4.491,4.491,0,0,1,1.584,1.171,2.208,2.208,0,0,1,.47,1.373,2.3,2.3,0,0,1-.862,1.878,3.567,3.567,0,0,1-2.332.707,3.808,3.808,0,0,1-2.39-.662,2.232,2.232,0,0,1-.849-1.872,2.417,2.417,0,0,1,.444-1.422,3.716,3.716,0,0,1,1.455-1.124,3.657,3.657,0,0,1-1.237-1.1,2.351,2.351,0,0,1-.369-1.3,1.948,1.948,0,0,1,.809-1.641A3.4,3.4,0,0,1,434.736,611.666Zm-1.756,7.139a1.257,1.257,0,0,0,.473,1.047,2.02,2.02,0,0,0,1.283.372,1.974,1.974,0,0,0,1.3-.385,1.291,1.291,0,0,0,.463-1.046,1.341,1.341,0,0,0-.427-.959,4.044,4.044,0,0,0-1.3-.8l-.188-.084a3.325,3.325,0,0,0-1.23.826A1.565,1.565,0,0,0,432.981,618.805Zm1.743-5.967a1.6,1.6,0,0,0-1.043.321,1.062,1.062,0,0,0-.395.871,1.251,1.251,0,0,0,.142.6,1.568,1.568,0,0,0,.415.483,4.964,4.964,0,0,0,.92.522,3.051,3.051,0,0,0,1.1-.723,1.325,1.325,0,0,0,.321-.884,1.059,1.059,0,0,0-.4-.871A1.636,1.636,0,0,0,434.723,612.839Z" transform="translate(-423.963 -611.653)" fill="#fff"/>
          </g>
        </g>
        <g id="_30" data-name="30" transform="translate(311.092 379.834)" opacity="0.5">
          <path id="Path_2499" data-name="Path 2499" d="M611.889,719.263,500.522,772.776l59.643,58.693L675.5,769.108Z" transform="translate(-497.784 -717.394)" fill="rgba(0,117,60,0.75)" opacity="0.4"/>
          <path id="Path_2531" data-name="Path 2531" d="M609.67,715.741,495.363,770.668l62.1,61.112L675.979,767.7ZM557.743,829.816,498.1,771.123,609.467,717.61l63.611,49.845Z" transform="translate(-495.363 -715.741)" fill="#19b24b"/>
          <g id="Group_1942" data-name="Group 1942" transform="translate(84.288 51.941)">
            <path id="Path_2812" data-name="Path 2812" d="M660.279,815.952a2.194,2.194,0,0,1-.525,1.5,2.638,2.638,0,0,1-1.477.807v.052a2.861,2.861,0,0,1,1.711.71,2.029,2.029,0,0,1,.57,1.506,2.5,2.5,0,0,1-.966,2.109,4.426,4.426,0,0,1-2.747.742,6.2,6.2,0,0,1-2.656-.511V821.51a6.027,6.027,0,0,0,1.276.46,5.527,5.527,0,0,0,1.3.162,2.73,2.73,0,0,0,1.645-.408,1.476,1.476,0,0,0,.544-1.264,1.2,1.2,0,0,0-.6-1.113,3.848,3.848,0,0,0-1.892-.356h-.823v-1.237h.835q2.267,0,2.268-1.568a1.156,1.156,0,0,0-.4-.939,1.779,1.779,0,0,0-1.166-.33,3.544,3.544,0,0,0-1.036.152,4.944,4.944,0,0,0-1.18.593l-.745-1.062a4.963,4.963,0,0,1,3.025-.959,3.6,3.6,0,0,1,2.235.615A2.022,2.022,0,0,1,660.279,815.952Z" transform="translate(-654.19 -813.627)" fill="#fff"/>
            <path id="Path_2813" data-name="Path 2813" d="M674.917,818.5a6.743,6.743,0,0,1-.793,3.667,3,3,0,0,1-4.823-.039,6.616,6.616,0,0,1-.816-3.627,6.775,6.775,0,0,1,.793-3.7,3,3,0,0,1,4.823.055A6.661,6.661,0,0,1,674.917,818.5Zm-4.891,0a6.888,6.888,0,0,0,.4,2.766,1.393,1.393,0,0,0,2.553-.013,9.592,9.592,0,0,0,0-5.51,1.387,1.387,0,0,0-2.553-.016A6.942,6.942,0,0,0,670.026,818.5Z" transform="translate(-660.899 -813.615)" fill="#fff"/>
          </g>
        </g>
        <g id="_29" data-name="29" transform="translate(256.413 332.825)" opacity="0.5">
          <path id="Path_2498" data-name="Path 2498" d="M504.866,630.612l-107.3,43.635,48.8,50.83,111.444-51.789Z" transform="translate(-394.787 -628.78)" fill="rgba(0,117,60,0.75)" opacity="0.4"/>
          <path id="Path_2530" data-name="Path 2530" d="M502.677,627.16,392.328,672.035l51.216,53.351,114.8-53.351Zm-58.772,96.3-48.8-50.831,107.3-43.635,52.941,42.676Z" transform="translate(-392.328 -627.16)" fill="#19b24b"/>
          <g id="Group_1941" data-name="Group 1941" transform="translate(75.352 42.901)">
            <path id="Path_2810" data-name="Path 2810" d="M540.736,717.606h-6.42v-1.152L536.759,714a20.752,20.752,0,0,0,1.435-1.571,3.744,3.744,0,0,0,.515-.872,2.353,2.353,0,0,0,.162-.874,1.333,1.333,0,0,0-.386-1.011,1.476,1.476,0,0,0-1.066-.37,2.838,2.838,0,0,0-1.053.2,4.9,4.9,0,0,0-1.176.725l-.822-1a5.3,5.3,0,0,1,1.535-.945A4.492,4.492,0,0,1,537.49,708a3.124,3.124,0,0,1,2.119.689,2.33,2.33,0,0,1,.8,1.856,3.247,3.247,0,0,1-.23,1.218,4.936,4.936,0,0,1-.706,1.189,16.149,16.149,0,0,1-1.584,1.655l-1.645,1.594v.065h4.5Z" transform="translate(-534.316 -708)" fill="#fff"/>
            <path id="Path_2811" data-name="Path 2811" d="M554.97,712.19a6.511,6.511,0,0,1-1.127,4.178,4.124,4.124,0,0,1-3.394,1.38,5.221,5.221,0,0,1-1.237-.1v-1.276a4.276,4.276,0,0,0,1.159.162,2.966,2.966,0,0,0,2.3-.829,4.027,4.027,0,0,0,.829-2.6h-.077a2.291,2.291,0,0,1-.924.842,2.9,2.9,0,0,1-1.266.259,2.551,2.551,0,0,1-1.977-.783,3.061,3.061,0,0,1-.719-2.151,3.294,3.294,0,0,1,.832-2.362,2.978,2.978,0,0,1,2.271-.877,3.021,3.021,0,0,1,2.921,1.92A5.6,5.6,0,0,1,554.97,712.19Zm-3.3-2.9a1.471,1.471,0,0,0-1.212.515,2.228,2.228,0,0,0-.422,1.448,1.909,1.909,0,0,0,.392,1.272,1.469,1.469,0,0,0,1.188.463,1.894,1.894,0,0,0,1.3-.46,1.391,1.391,0,0,0,.525-1.075,2.634,2.634,0,0,0-.223-1.079,1.929,1.929,0,0,0-.626-.794A1.529,1.529,0,0,0,551.667,709.288Z" transform="translate(-540.99 -708.012)" fill="#fff"/>
          </g>
        </g>
        <path id="Path_2602" data-name="Path 2602" d="M1064.279,69.028l-41.308-12.681-28.826,7.581,40.015,13.228Z" transform="translate(-418.354 -26.447)" fill="#be4c84" opacity="0"/>
        <path id="Path_2663" data-name="Path 2663" d="M1034.16,77.153,994.144,63.925l28.826-7.579,41.308,12.681Zm.035-1.249,25.764-6.95L1022.945,57.59l-24.591,6.465Z" transform="translate(-418.354 -26.446)" fill="#be4c84" opacity="0"/>
        <g id="_52"  plot-path data-name="52" transform="translate(567.066 94.557)">
          <path id="Path_2612" data-name="Path 2612" d="M1069.11,199.721l-59.075-21.538L977.7,187.261l58.713,23.178Z" transform="translate(-977.703 -178.183)" fill="rgba(254,144,0,0.6)"/>
          <path id="Path_2673" data-name="Path 2673" d="M1036.417,210.439,977.7,187.261l32.332-9.078,59.076,21.539Zm.037-1.272,29-9.506-55.463-20.222-28.539,8.014Z" transform="translate(-977.703 -178.183)" fill="#fe9000"/>
          <g id="Group_1919" data-name="Group 1919" transform="translate(38.976 9.015)">
            <path id="Path_2766" data-name="Path 2766" d="M1054.183,198.983a3.249,3.249,0,0,1,2.267.758,2.65,2.65,0,0,1,.836,2.067,3.018,3.018,0,0,1-.948,2.367,3.9,3.9,0,0,1-2.7.852,5.087,5.087,0,0,1-2.494-.512v-1.38a4.534,4.534,0,0,0,1.2.46,5.458,5.458,0,0,0,1.263.162,2.352,2.352,0,0,0,1.568-.459,1.679,1.679,0,0,0,.537-1.347q0-1.7-2.164-1.7a5.708,5.708,0,0,0-.751.061q-.447.062-.784.14l-.68-.4.361-4.625h4.923v1.354h-3.582l-.215,2.345c.152-.026.337-.056.554-.091A5.247,5.247,0,0,1,1054.183,198.983Z" transform="translate(-1051.146 -195.29)" fill="#fff"/>
            <path id="Path_2767" data-name="Path 2767" d="M1071.506,204.777h-6.419v-1.153l2.442-2.455a20.777,20.777,0,0,0,1.435-1.571,3.748,3.748,0,0,0,.515-.871,2.358,2.358,0,0,0,.161-.875,1.332,1.332,0,0,0-.385-1.01,1.476,1.476,0,0,0-1.065-.369,2.852,2.852,0,0,0-1.053.2,4.919,4.919,0,0,0-1.175.725l-.822-1a5.307,5.307,0,0,1,1.534-.946,4.5,4.5,0,0,1,1.588-.279,3.125,3.125,0,0,1,2.119.69,2.33,2.33,0,0,1,.8,1.856,3.28,3.28,0,0,1-.23,1.218,4.977,4.977,0,0,1-.706,1.189,16.362,16.362,0,0,1-1.584,1.655l-1.645,1.594v.065h4.5Z" transform="translate(-1057.688 -195.17)" fill="#fff"/>
          </g>
        </g>
        <g id="_22" data-name="22" transform="translate(563.197 160.685)" opacity="0.5">
          <path id="Path_2493" data-name="Path 2493" d="M1012.018,306.007l-33.661,11.7,70.742,33.4,27.683-11.5-.818-6.754Z" transform="translate(-974.143 -304.299)" fill="rgba(0,117,60,0.75)" opacity="0.4"/>
          <path id="Path_2494" data-name="Path 2494" d="M1008.346,302.789l-37.929,13.18,74.916,35.372,29.454-12.239-1.075-8.876Zm37.028,46.807-70.743-33.4,33.661-11.7,63.946,26.842.818,6.754Z" transform="translate(-970.417 -302.789)" fill="#19b24b"/>
        </g>
        <g id="_33" data-name="33" transform="translate(560.166 238.697)" opacity="0.5">
          <path id="Path_2491" data-name="Path 2491" d="M1016.511,453.111l-44.945,19.143,90.762,50.038,44.231-22.637Z" transform="translate(-967.926 -451.348)" fill="rgba(0,117,60,0.75)" opacity="0.4"/>
          <path id="Path_2492" data-name="Path 2492" d="M1013.359,449.79l-48.652,20.721,94.373,52.03,47.75-24.438Zm45.749,70.943L968.348,470.7l44.945-19.143L1103.34,498.1Z" transform="translate(-964.707 -449.79)" fill="#19b24b"/>
        </g>
        <g id="_53" plot-path  data-name="53" transform="translate(601.369 85.083)">
          <path id="Path_2617" data-name="Path 2617" d="M1132.3,180.574l-58.184-20.243-31.768,8.92,58.94,21.489Z" transform="translate(-1042.347 -160.33)" fill="rgba(0,117,60,0.75)"/>
          <path id="Path_2678" data-name="Path 2678" d="M1101.287,190.738l-58.94-21.489,31.768-8.92,58.184,20.244Zm.021-1.266,27.252-8.933-54.483-18.955-27.829,7.814Z" transform="translate(-1042.347 -160.329)" fill="#19b24b"/>
          <g id="Group_1918" data-name="Group 1918" transform="translate(38.535 7.821)">
            <path id="Path_2764" data-name="Path 2764" d="M1118,178.88a3.247,3.247,0,0,1,2.267.758,2.652,2.652,0,0,1,.835,2.067,3.016,3.016,0,0,1-.949,2.368,3.9,3.9,0,0,1-2.7.852,5.1,5.1,0,0,1-2.495-.512v-1.38a4.59,4.59,0,0,0,1.2.46,5.5,5.5,0,0,0,1.263.162,2.351,2.351,0,0,0,1.568-.46,1.675,1.675,0,0,0,.538-1.347q0-1.7-2.165-1.7a5.662,5.662,0,0,0-.75.061q-.448.062-.785.14l-.679-.4.363-4.626h4.923v1.354h-3.582l-.214,2.345q.227-.039.554-.091A5.243,5.243,0,0,1,1118,178.88Z" transform="translate(-1114.961 -175.187)" fill="#fff"/>
            <path id="Path_2765" data-name="Path 2765" d="M1134.942,177.38a2.193,2.193,0,0,1-.525,1.5,2.642,2.642,0,0,1-1.477.807v.052a2.861,2.861,0,0,1,1.71.709,2.031,2.031,0,0,1,.57,1.506,2.5,2.5,0,0,1-.966,2.109,4.431,4.431,0,0,1-2.746.741,6.182,6.182,0,0,1-2.656-.512v-1.354a6.025,6.025,0,0,0,1.276.459,5.521,5.521,0,0,0,1.3.163,2.732,2.732,0,0,0,1.645-.408,1.476,1.476,0,0,0,.545-1.264,1.2,1.2,0,0,0-.6-1.114,3.84,3.84,0,0,0-1.891-.357h-.823v-1.237h.836q2.268,0,2.267-1.568a1.159,1.159,0,0,0-.395-.94,1.782,1.782,0,0,0-1.167-.33,3.542,3.542,0,0,0-1.036.152,4.885,4.885,0,0,0-1.179.593l-.746-1.062a4.971,4.971,0,0,1,3.026-.959,3.6,3.6,0,0,1,2.235.616A2.02,2.02,0,0,1,1134.942,177.38Z" transform="translate(-1121.481 -175.067)" fill="#fff"/>
          </g>
        </g>
        <g id="_47"  plot-path data-name="47" transform="translate(583.228 51.957)">
          <path id="Path_2594" data-name="Path 2594" d="M1008.16,106.688l42.468,15.4,34.767-9.4L1040.7,97.911Z" transform="translate(-1008.16 -97.909)" fill="rgba(0,117,60,0.75)"/>
          <path id="Path_2655" data-name="Path 2655" d="M1040.7,97.907l44.693,14.774-34.768,9.4-42.467-15.4Zm-.033,1.249-28.535,7.7,38.547,13.976,30.554-8.263Z" transform="translate(-1008.16 -97.907)" fill="#19b24b"/>
          <g id="Group_1912" data-name="Group 1912" transform="translate(27.429 5.218)">
            <path id="Path_2752" data-name="Path 2752" d="M1066.931,115.169h-1.276v2.067h-1.484v-2.067h-4.327V114l4.327-6.258h1.484v6.167h1.276Zm-2.759-1.263v-2.377q0-1.27.065-2.079h-.052a7.247,7.247,0,0,1-.57,1.036l-2.35,3.42Z" transform="translate(-1059.845 -107.739)" fill="#fff"/>
            <path id="Path_2753" data-name="Path 2753" d="M1075.722,117.27l3.743-8.118h-4.923v-1.341h6.55v1.062l-3.726,8.4Z" transform="translate(-1066.742 -107.773)" fill="#fff"/>
          </g>
        </g>
        <g id="_56"  plot-path data-name="56" transform="translate(589.385 128.085)">
          <path id="Path_2626" data-name="Path 2626" d="M1019.766,253.278l53.581,21.962,14.465.815,29.129-10.684-60.823-24.011Z" transform="translate(-1019.766 -241.361)" fill="rgba(0,117,60,0.75)"/>
          <path id="Path_2687" data-name="Path 2687" d="M1056.119,241.362l60.823,24.011-29.129,10.683-14.465-.815-53.582-21.962Zm-.037,1.272L1023.228,253.4l50.388,20.653,14.017.791,25.946-9.516Z" transform="translate(-1019.766 -241.361)" fill="#c8220b"/>
          <g id="Group_1922" data-name="Group 1922" transform="translate(42.808 12.064)">
            <path id="Path_2772" data-name="Path 2772" d="M1103.469,267.881a3.25,3.25,0,0,1,2.268.758,2.652,2.652,0,0,1,.835,2.066,3.019,3.019,0,0,1-.949,2.368,3.9,3.9,0,0,1-2.7.852,5.1,5.1,0,0,1-2.494-.511v-1.38a4.587,4.587,0,0,0,1.205.46,5.484,5.484,0,0,0,1.263.162,2.349,2.349,0,0,0,1.568-.46,1.677,1.677,0,0,0,.538-1.347q0-1.7-2.164-1.7a5.675,5.675,0,0,0-.752.061q-.447.062-.784.139l-.68-.4.363-4.626h4.923v1.354h-3.582l-.214,2.345c.152-.026.336-.056.554-.09A5.229,5.229,0,0,1,1103.469,267.881Z" transform="translate(-1100.431 -264.201)" fill="#fff"/>
            <path id="Path_2773" data-name="Path 2773" d="M1114.42,269.651q0-5.558,4.529-5.558a5.633,5.633,0,0,1,1.205.11v1.27a4.119,4.119,0,0,0-1.141-.143,2.986,2.986,0,0,0-2.286.816,3.962,3.962,0,0,0-.829,2.618h.077a2.083,2.083,0,0,1,.856-.813,2.751,2.751,0,0,1,1.295-.288,2.577,2.577,0,0,1,2.008.79,3.063,3.063,0,0,1,.719,2.144,3.254,3.254,0,0,1-.832,2.355,3,3,0,0,1-2.271.865,3.165,3.165,0,0,1-1.768-.489,3.116,3.116,0,0,1-1.156-1.425A5.655,5.655,0,0,1,1114.42,269.651Zm3.3,2.909a1.486,1.486,0,0,0,1.208-.506,2.19,2.19,0,0,0,.425-1.444,1.909,1.909,0,0,0-.4-1.283,1.484,1.484,0,0,0-1.195-.467,1.973,1.973,0,0,0-.907.211,1.672,1.672,0,0,0-.654.576,1.356,1.356,0,0,0-.24.748,2.4,2.4,0,0,0,.5,1.538A1.548,1.548,0,0,0,1117.724,272.56Z" transform="translate(-1106.995 -264.093)" fill="#fff"/>
          </g>
        </g>
        <path id="Path_2589" data-name="Path 2589" d="M1298.63,9.917,1257.279.094,1249.967,0l-14.479,3.808,44.272,11.2Z" transform="translate(-531.619 0)" fill="#be4c84" opacity="0"/>
        <path id="Path_2592" data-name="Path 2592" d="M1260.007,19.568,1215.7,8.36l-17.287,4.548,43.532,11.535Z" transform="translate(-514.219 -3.925)" fill="#be4c84" opacity="0"/>
        <path id="Path_2598" data-name="Path 2598" d="M1189.046,59.886l48.124,13.8,25.4-6.869-49.355-13.455Z" transform="translate(-509.822 -25.047)" fill="#be4c84" opacity="0"/>
        <path id="Path_2608" data-name="Path 2608" d="M1238.9,46.943,1288.248,60.4l22.722-6.144L1260.938,41Z" transform="translate(-533.219 -19.242)" fill="#be4c84" opacity="0"/>
        <path id="Path_2627" data-name="Path 2627" d="M1301.61,130.472l-55.947-16.824-25.79,7.241,56.6,17.822Z" transform="translate(-524.292 -53.337)" fill="#be4c84" opacity="0"/>
        <path id="Path_2650" data-name="Path 2650" d="M1279.764,15.009l-44.272-11.2L1249.971,0l7.311.093,41.352,9.823Zm-.009-1.238,14.01-3.78-36.63-8.7-7.018-.089-9.834,2.586Z" transform="translate(-531.622 -0.001)" fill="#be4c84" opacity="0"/>
        <path id="Path_2653" data-name="Path 2653" d="M1241.939,24.44l-43.529-11.535,17.286-4.545L1260,19.568Zm0-1.239,13.329-3.6L1215.7,9.6l-12.6,3.314Z" transform="translate(-514.217 -3.925)" fill="#be4c84" opacity="0"/>
        <path id="Path_2659" data-name="Path 2659" d="M1213.213,53.366l49.356,13.455-25.4,6.869-48.125-13.8Zm0,1.24-19.7,5.315,43.671,12.525L1258,66.816Z" transform="translate(-509.826 -25.046)" fill="#be4c84" opacity="0"/>
        <path id="Path_2669" data-name="Path 2669" d="M1260.942,41l50.029,13.257L1288.248,60.4,1238.9,46.944Zm0,1.239-17.477,4.715,44.78,12.207,18.094-4.893Z" transform="translate(-533.22 -19.241)" fill="#be4c84" opacity="0"/>
        <path id="Path_2688" data-name="Path 2688" d="M1276.477,138.711l-56.6-17.822,25.791-7.241,55.946,16.824Zm-.007-1.257,21.148-6.933-51.966-15.627-21.586,6.06Z" transform="translate(-524.292 -53.337)" fill="#be4c84" opacity="0"/>
        <path id="Path_2578" data-name="Path 2578" d="M1239.145,544.264h0L1348.358,599.6l-47.288,30.745h0l47.288-30.745Z" transform="translate(-533.334 -255.431)" fill="#19b24b"/>
        <path id="Path_2611" data-name="Path 2611" d="M1363.755,182.374l-60.734-19.122-26.6,8.721,60.8,20.131Z" transform="translate(-550.829 -76.618)" fill="#be4c84" opacity="0"/>
        <path id="Path_2672" data-name="Path 2672" d="M1337.224,192.1l-60.806-20.13,26.6-8.722,60.732,19.122Zm-.021-1.268,22.839-8.376L1303.029,164.5l-22.786,7.47Z" transform="translate(-550.827 -76.613)" fill="#be4c84" opacity="0"/>
        <path id="Path_2607" data-name="Path 2607" d="M1302.916,30.61,1284.8,35.5l50.026,13.257,19.236-5.2Z" transform="translate(-554.759 -14.367)" fill="#be4c84" opacity="0"/>
        <path id="Path_2610" data-name="Path 2610" d="M1247.508,180.862l-28.615,9.377,61.036,21.236,28.493-10.454Z" transform="translate(-523.833 -84.884)" fill="#be4c84" opacity="0"/>
        <path id="Path_2613" data-name="Path 2613" d="M1351.106,116.015l-55.23-15.859-23.353,6.557,55.786,16.776Z" transform="translate(-549.001 -47.007)" fill="#be4c84" opacity="0"/>
        <path id="Path_2668" data-name="Path 2668" d="M1302.917,30.61l51.15,12.94-19.237,5.2L1284.8,35.5Zm.01,1.238-13.488,3.639,45.388,12.027,14.512-3.924Z" transform="translate(-554.759 -14.367)" fill="#be4c84" opacity="0"/>
        <path id="Path_2671" data-name="Path 2671" d="M1247.508,180.862l60.913,20.166-28.493,10.45-61.035-21.234Zm0,1.26-24.874,8.154,57.285,19.93,24.869-9.121Z" transform="translate(-523.83 -84.883)" fill="#be4c84" opacity="0"/>
        <path id="Path_2674" data-name="Path 2674" d="M1328.308,123.488l-55.784-16.776,23.352-6.557,55.231,15.859Zm-.014-1.254,18.738-6.144L1295.871,101.4l-19.062,5.351Z" transform="translate(-549.001 -47.005)" fill="#be4c84" opacity="0"/>
        <g id="_35" data-name="35" transform="translate(656.802 202.658)" opacity="0.5">
          <path id="Path_2525" data-name="Path 2525" d="M1194.562,384.889h-8.552L1154.032,399.3l89.927,41.671,35.34-18.486Z" transform="translate(-1150.193 -383.293)" fill="rgba(0,117,60,0.75)" opacity="0.5"/>
          <path id="Path_2584" data-name="Path 2584" d="M1191.506,381.882h-9.233L1146.8,397.873l93.81,43.47,38.965-20.383Zm49.059,57.683-89.928-41.671,31.977-14.416h8.555l84.737,37.6Z" transform="translate(-1146.798 -381.882)" fill="#19b24b"/>
        </g>
        <path id="Path_2590" data-name="Path 2590" d="M1171.427,41.766l-43.249-11.788L1104.887,36.1l42.435,12.171Z" transform="translate(-470.327 -14.071)" fill="#be4c84" opacity="0"/>
        <path id="Path_2591" data-name="Path 2591" d="M1218.381,29.629l-43.56-11.543-21.677,5.7,43.222,11.783Z" transform="translate(-492.974 -8.49)" fill="#be4c84" opacity="0"/>
        <path id="Path_2596" data-name="Path 2596" d="M1073.437,89.633l44.69,14.773,32-8.653-46.481-14.269Z" transform="translate(-455.568 -38.244)" fill="#be4c84" opacity="0"/>
        <path id="Path_2599" data-name="Path 2599" d="M1134.441,74l46.478,14.268,28.391-7.678-48.128-13.8Z" transform="translate(-484.197 -31.347)" fill="#be4c84" opacity="0"/>
        <path id="Path_2600" data-name="Path 2600" d="M1120.545,54.814l-42.462-12.18-25.484,6.7,41.283,12.673Z" transform="translate(-445.79 -20.01)" fill="#be4c84" opacity="0"/>
        <path id="Path_2651" data-name="Path 2651" d="M1147.321,48.268,1104.886,36.1l23.292-6.124,43.253,11.791Zm.01-1.242,19.526-5.268-38.684-10.546L1109.4,36.147Z" transform="translate(-470.325 -14.069)" fill="#be4c84" opacity="0"/>
        <path id="Path_2652" data-name="Path 2652" d="M1196.365,35.569l-43.224-11.783,21.677-5.7L1218.38,29.63Zm0-1.24,17.38-4.688-38.93-10.316-17.048,4.482Z" transform="translate(-492.975 -8.491)" fill="#be4c84" opacity="0"/>
        <path id="Path_2657" data-name="Path 2657" d="M1103.642,81.486l46.48,14.269-32,8.653-44.689-14.774Zm-.021,1.245L1077.6,89.75l40.559,13.408,27.645-7.476Z" transform="translate(-455.568 -38.245)" fill="#be4c84" opacity="0"/>
        <path id="Path_2660" data-name="Path 2660" d="M1161.183,66.79l48.127,13.8-28.391,7.678L1134.441,74Zm-.011,1.242-22.411,6.046,42.179,12.948,23.909-6.466Z" transform="translate(-484.197 -31.347)" fill="#be4c84" opacity="0"/>
        <path id="Path_2661" data-name="Path 2661" d="M1093.883,62.007,1052.6,49.333l25.484-6.7,42.462,12.18Zm.021-1.246,22.179-5.983-38.013-10.9-21.1,5.547Z" transform="translate(-445.79 -20.01)" fill="#be4c84" opacity="0"/>
        <g id="_54"  plot-path data-name="54" transform="translate(635.155 76.328)">
          <path id="Path_2619" data-name="Path 2619" d="M1192.621,162.85l-57.444-19.017-29.166,8.188,58.043,20.195Z" transform="translate(-1106.009 -143.833)" fill="rgba(0,117,60,0.75)"/>
          <path id="Path_2680" data-name="Path 2680" d="M1164.051,172.216l-58.042-20.194,29.165-8.189,57.445,19.017Zm.011-1.263,24.731-8.108-53.649-17.761L1110,152.144Z" transform="translate(-1106.009 -143.833)" fill="#19b24b"/>
          <g id="Group_1917" data-name="Group 1917" transform="translate(35.896 5.947)">
            <path id="Path_2762" data-name="Path 2762" d="M1176.687,158.645a3.247,3.247,0,0,1,2.267.758,2.65,2.65,0,0,1,.836,2.066,3.018,3.018,0,0,1-.949,2.368,3.9,3.9,0,0,1-2.7.852,5.1,5.1,0,0,1-2.495-.511V162.8a4.587,4.587,0,0,0,1.206.459,5.455,5.455,0,0,0,1.263.162,2.349,2.349,0,0,0,1.568-.46,1.676,1.676,0,0,0,.538-1.347q0-1.7-2.164-1.7a5.7,5.7,0,0,0-.751.062q-.447.062-.783.14l-.681-.4.363-4.626h4.923v1.354h-3.582l-.215,2.345.554-.091A5.313,5.313,0,0,1,1176.687,158.645Z" transform="translate(-1173.648 -155.062)" fill="#fff"/>
            <path id="Path_2763" data-name="Path 2763" d="M1194.056,162.47h-1.278v2.067h-1.483V162.47h-4.327V161.3l4.327-6.258h1.483v6.167h1.278Zm-2.761-1.263v-2.378q0-1.269.065-2.079h-.052a7.205,7.205,0,0,1-.571,1.036l-2.35,3.42Z" transform="translate(-1179.899 -155.039)" fill="#fff"/>
          </g>
        </g>
        <g id="_57"  plot-path data-name="57" transform="translate(627.525 116.757)">
          <path id="Path_2622" data-name="Path 2622" d="M1091.624,230.76l60.731,23.977,33.532-12.3-61.495-22.422Z" transform="translate(-1091.624 -220.016)" fill="rgba(0,117,60,0.75)"/>
          <path id="Path_2683" data-name="Path 2683" d="M1124.393,220.018l61.494,22.42-33.531,12.3-60.731-23.976Zm-.02,1.267-29.225,9.581,57.223,22.591,30.031-11.014Z" transform="translate(-1091.623 -220.017)" fill="#c8220b"/>
          <g id="Group_1921" data-name="Group 1921" transform="translate(37.502 10.42)">
            <path id="Path_2770" data-name="Path 2770" d="M1165.329,243.208a3.248,3.248,0,0,1,2.267.758,2.65,2.65,0,0,1,.835,2.067,3.017,3.017,0,0,1-.949,2.367,3.9,3.9,0,0,1-2.7.852,5.1,5.1,0,0,1-2.494-.512v-1.38a4.554,4.554,0,0,0,1.2.46,5.49,5.49,0,0,0,1.264.162,2.347,2.347,0,0,0,1.567-.46,1.672,1.672,0,0,0,.539-1.348q0-1.7-2.164-1.7a5.614,5.614,0,0,0-.752.062q-.446.061-.784.139l-.68-.4.363-4.625h4.923v1.354h-3.582l-.214,2.345q.227-.039.555-.091A5.228,5.228,0,0,1,1165.329,243.208Z" transform="translate(-1162.29 -239.652)" fill="#fff"/>
            <path id="Path_2771" data-name="Path 2771" d="M1177.214,249.134l3.745-8.117h-4.924v-1.341h6.55v1.062l-3.725,8.4Z" transform="translate(-1168.74 -239.663)" fill="#fff"/>
          </g>
        </g>
        <path id="Path_2575" data-name="Path 2575" d="M1142.313,594.2l0,0,110.678,61.488-52.555,34.257h0l52.559-34.259Z" transform="translate(-487.89 -278.865)" fill="#19b24b"/>
        <path id="Path_2582" data-name="Path 2582" d="M1103.6,414.136l-43.81,18.02,43.81-18.018,93.134,43.7h0Z" transform="translate(-449.161 -194.361)" fill="#19b24b"/>
        <path id="Path_2630" data-name="Path 2630" d="M1156.84,209.878l61.4,22.384,30.8-11.295L1187.9,199.7Z" transform="translate(-494.706 -93.721)" fill="#be4c84" opacity="0"/>
        <path id="Path_2691" data-name="Path 2691" d="M1187.895,199.7l61.138,21.27-30.8,11.3-61.4-22.384Zm-.011,1.263-27.385,8.978,57.735,21.05L1245.476,221Z" transform="translate(-494.707 -93.721)" fill="#be4c84" opacity="0"/>
        <g id="_55"  plot-path data-name="55" transform="translate(666.379 68.139)">
          <path id="Path_2618" data-name="Path 2618" d="M1248.7,146.276l-56.76-17.874-27.095,7.614,57.3,18.968Z" transform="translate(-1164.846 -128.402)" fill="rgba(0,117,60,0.75)"/>
          <path id="Path_2679" data-name="Path 2679" d="M1222.146,154.984l-57.3-18.969,27.094-7.607,56.759,17.87Zm0-1.26,22.64-7.422-52.865-16.645-22.983,6.453Z" transform="translate(-1164.847 -128.405)" fill="#19b24b"/>
          <g id="Group_1916" data-name="Group 1916" transform="translate(33.709 6.505)">
            <path id="Path_2760" data-name="Path 2760" d="M1231.4,144.217a3.252,3.252,0,0,1,2.267.758,2.653,2.653,0,0,1,.835,2.067,3.016,3.016,0,0,1-.95,2.368,3.9,3.9,0,0,1-2.7.852,5.1,5.1,0,0,1-2.494-.512v-1.38a4.559,4.559,0,0,0,1.2.46,5.461,5.461,0,0,0,1.264.162,2.35,2.35,0,0,0,1.568-.46,1.673,1.673,0,0,0,.537-1.347q0-1.7-2.165-1.7a5.725,5.725,0,0,0-.751.061c-.3.041-.558.088-.783.14l-.68-.4.363-4.625h4.923v1.354h-3.582l-.214,2.345c.152-.026.336-.056.555-.091A5.209,5.209,0,0,1,1231.4,144.217Z" transform="translate(-1228.365 -140.66)" fill="#fff"/>
            <path id="Path_2761" data-name="Path 2761" d="M1245.674,144.217a3.248,3.248,0,0,1,2.267.758,2.649,2.649,0,0,1,.836,2.067,3.018,3.018,0,0,1-.949,2.368,3.9,3.9,0,0,1-2.7.852,5.1,5.1,0,0,1-2.495-.512v-1.38a4.571,4.571,0,0,0,1.2.46,5.474,5.474,0,0,0,1.264.162,2.352,2.352,0,0,0,1.568-.46,1.674,1.674,0,0,0,.538-1.347q0-1.7-2.164-1.7a5.667,5.667,0,0,0-.751.061c-.3.041-.559.088-.784.14l-.681-.4.363-4.625h4.924v1.354h-3.582l-.214,2.345c.151-.026.336-.056.553-.091A5.216,5.216,0,0,1,1245.674,144.217Z" transform="translate(-1235.063 -140.66)" fill="#fff"/>
          </g>
        </g>
        <g id="_34" data-name="34" transform="translate(610.628 219.777)" opacity="0.5">
          <path id="Path_2524" data-name="Path 2524" d="M1103.558,417.422l-39.934,16.425,90.422,45.7,39.072-20.1ZM1059.79,433.7h0l94.261,47.637,42.682-21.96-42.682,21.96Z" transform="translate(-1059.79 -415.68)" fill="rgba(0,117,60,0.75)" opacity="0.4"/>
          <path id="Path_2583" data-name="Path 2583" d="M1103.6,414.139l-43.81,18.018,94.261,47.638,42.682-21.961ZM1154.045,478l-90.422-45.7,39.934-16.425,89.559,42.018Z" transform="translate(-1059.79 -414.139)" fill="#19b24b"/>
        </g>
        <g id="_39" data-name="39" transform="translate(602.74 315.334)" opacity="0.5">
          <path id="Path_2520" data-name="Path 2520" d="M1096.609,594.2l-51.676,27.522L1096.61,594.2Zm-.012,1.815-48.47,25.813,106.588,66.224L1204.2,655.8Zm-51.664,25.707h0l109.8,68.225h0Z" transform="translate(-1044.933 -594.199)" fill="rgba(254,144,0,0.6)"/>
          <path id="Path_2576" data-name="Path 2576" d="M1096.609,594.2l-51.677,27.522,109.8,68.224,52.555-34.258L1096.607,594.2m58.107,93.853-106.587-66.224,48.469-25.813L1204.2,655.8Z" transform="translate(-1044.932 -594.199)" fill="#fe9000"/>
        </g>
        <g id="_38" data-name="38" transform="translate(659.076 288.123)" opacity="0.5">
          <path id="Path_2522" data-name="Path 2522" d="M1197.79,544.264l-47.2,24.851,47.2-24.85Zm.018,1.8-43.865,23.094,105.992,59.691,44.349-28.834Zm-47.215,23.046h0l109.4,61.612Z" transform="translate(-1150.592 -544.264)" fill="rgba(0,117,60,0.75)" opacity="0.4"/>
          <path id="Path_2579" data-name="Path 2579" d="M1197.791,544.265l-47.2,24.85,109.4,61.612,47.495-30.88-109.7-55.583m62.145,84.589-105.991-59.691,43.865-23.094,106.476,53.951Z" transform="translate(-1150.592 -544.264)" fill="#19b24b"/>
        </g>
      </g>
    </g>
  </g>
</svg>
