<svg width="119" height="119" viewBox="0 0 119 119" fill="none" xmlns="http://www.w3.org/2000/svg">
<mask id="path-1-inside-1_438_546" fill="white">
<path d="M115.789 53.5374C114.433 52.3602 113.506 50.7651 113.155 49.0033C112.805 47.2416 113.05 45.4132 113.853 43.8062C114.371 42.7687 114.66 41.6318 114.7 40.4727C114.74 39.3136 114.53 38.1595 114.084 37.0889C113.638 36.0182 112.967 35.056 112.117 34.2676C111.266 33.4793 110.256 32.8833 109.154 32.5201C107.461 31.9427 106.007 30.8202 105.02 29.3284C104.033 27.8366 103.568 26.0596 103.699 24.2755C103.782 23.1193 103.615 21.9586 103.211 20.8723C102.806 19.786 102.172 18.7994 101.353 17.9794C100.534 17.1593 99.5474 16.525 98.4614 16.1194C97.3754 15.7138 96.2149 15.5464 95.0586 15.6286C93.2675 15.7567 91.4847 15.2846 89.9917 14.2869C88.4988 13.2891 87.3807 11.8225 86.814 10.1185C86.4471 9.01927 85.8482 8.01169 85.058 7.16404C84.2677 6.31638 83.3046 5.64845 82.2337 5.20549C81.1628 4.76252 80.0092 4.55486 78.8511 4.59658C77.693 4.63829 76.5574 4.92841 75.5211 5.44727C73.9113 6.25801 72.0768 6.50776 70.3088 6.15689C68.5409 5.80601 66.9408 4.87462 65.7626 3.51058C65.0034 2.63512 64.0649 1.93303 63.0107 1.45187C61.9565 0.970696 60.8113 0.72168 59.6525 0.72168C58.4937 0.72168 57.3484 0.970696 56.2942 1.45187C55.24 1.93303 54.3015 2.63512 53.5423 3.51058C52.3651 4.8674 50.77 5.79409 49.0082 6.14472C47.2464 6.49534 45.4181 6.24998 43.8111 5.44727C42.7752 4.92961 41.6401 4.64045 40.4828 4.59935C39.3255 4.55826 38.1728 4.76618 37.1027 5.20907C36.0327 5.65195 35.0703 6.31947 34.2805 7.16646C33.4907 8.01346 32.8921 9.02018 32.525 10.1185C31.9583 11.8225 30.8402 13.2891 29.3473 14.2869C27.8543 15.2846 26.0715 15.7567 24.2804 15.6286C23.1238 15.5466 21.963 15.714 20.8767 16.1195C19.7904 16.5251 18.8039 17.1592 17.984 17.9792C17.1641 18.7991 16.5299 19.7856 16.1244 20.8719C15.7189 21.9582 15.5514 23.1189 15.6335 24.2755C15.7616 26.0666 15.2895 27.8494 14.2917 29.3424C13.294 30.8353 11.8273 31.9534 10.1234 32.5201C9.02506 32.8872 8.01834 33.4859 7.17135 34.2756C6.32435 35.0654 5.65684 36.0278 5.21395 37.0979C4.77107 38.1679 4.56314 39.3206 4.60424 40.4779C4.64533 41.6352 4.93449 42.7703 5.45216 43.8062C6.25487 45.4132 6.50023 47.2416 6.1496 49.0033C5.79897 50.7651 4.87228 52.3602 3.51546 53.5374C2.64 54.2966 1.93792 55.2351 1.45675 56.2893C0.975579 57.3435 0.726562 58.4888 0.726562 59.6476C0.726562 60.8064 0.975579 61.9517 1.45675 63.0058C1.93792 64.06 2.64 64.9985 3.51546 65.7577C4.87172 66.9338 5.79815 68.5277 6.14879 70.2883C6.49943 72.0489 6.25435 73.8762 5.45216 75.4821C4.93329 76.5184 4.64318 77.654 4.60146 78.8121C4.55975 79.9703 4.7674 81.1238 5.21037 82.1947C5.65334 83.2656 6.32126 84.2288 7.16892 85.019C8.01657 85.8093 9.02415 86.4081 10.1234 86.775C11.8273 87.3417 13.294 88.4598 14.2917 89.9528C15.2895 91.4457 15.7616 93.2285 15.6335 95.0196C15.5462 96.1787 15.7097 97.343 16.113 98.4331C16.5163 99.5233 17.1499 100.514 17.9705 101.337C18.7911 102.16 19.7795 102.797 20.8684 103.204C21.9573 103.61 23.1211 103.777 24.2804 103.694C26.0645 103.563 27.8415 104.028 29.3333 105.015C30.8251 106.002 31.9476 107.456 32.525 109.149C32.8904 110.249 33.488 111.257 34.2773 112.106C35.0665 112.954 36.029 113.623 37.0995 114.066C38.1699 114.51 39.3233 114.718 40.4813 114.677C41.6393 114.636 42.7749 114.346 43.8111 113.827C45.4181 113.025 47.2464 112.779 49.0082 113.13C50.77 113.481 52.3651 114.407 53.5423 115.764C54.3015 116.64 55.24 117.342 56.2942 117.823C57.3484 118.304 58.4937 118.553 59.6525 118.553C60.8113 118.553 61.9565 118.304 63.0107 117.823C64.0649 117.342 65.0034 116.64 65.7626 115.764C66.9387 114.408 68.5326 113.481 70.2932 113.131C72.0538 112.78 73.881 113.025 75.487 113.827C76.5237 114.346 77.6598 114.636 78.8182 114.677C79.9767 114.719 81.1305 114.51 82.2015 114.067C83.2725 113.623 84.2355 112.954 85.0255 112.106C85.8154 111.257 86.4137 110.249 86.7799 109.149C87.3573 107.456 88.4798 106.002 89.9716 105.015C91.4634 104.028 93.2404 103.563 95.0245 103.694C96.1863 103.783 97.3536 103.619 98.4464 103.215C99.5391 102.811 100.532 102.174 101.355 101.351C102.179 100.527 102.815 99.5343 103.22 98.4415C103.624 97.3487 103.788 96.1814 103.699 95.0196C103.568 93.2355 104.033 91.4585 105.02 89.9667C106.007 88.4749 107.461 87.3524 109.154 86.775C110.254 86.4088 111.262 85.8105 112.111 85.0206C112.959 84.2307 113.628 83.2676 114.072 82.1966C114.515 81.1257 114.723 79.9718 114.682 78.8134C114.641 77.6549 114.351 76.5188 113.832 75.4821C113.03 73.8762 112.785 72.0489 113.136 70.2883C113.486 68.5277 114.413 66.9338 115.769 65.7577C116.646 65 117.349 64.0627 117.832 63.0093C118.315 61.9559 118.566 60.8111 118.568 59.6522C118.57 58.4934 118.323 57.3477 117.844 56.2928C117.364 55.2378 116.664 54.2981 115.789 53.5374ZM59.6525 111.502C49.511 111.503 39.5968 108.497 31.1639 102.864C22.7309 97.2306 16.1578 89.2231 12.2759 79.854C8.39395 70.4848 7.37757 60.175 9.35524 50.2282C11.3329 40.2814 16.2158 31.1445 23.3865 23.9729C30.5571 16.8013 39.6934 11.9172 49.6399 9.93816C59.5864 7.95916 69.8964 8.97417 79.2661 12.8548C88.6357 16.7355 96.6441 23.3075 102.279 31.7398C107.913 40.172 110.92 50.0857 110.92 60.2272C110.911 73.8191 105.506 86.8512 95.8927 96.4595C86.2793 106.068 73.2443 111.466 59.6525 111.468V111.502Z"/>
</mask>
<path d="M115.789 53.5374C114.433 52.3602 113.506 50.7651 113.155 49.0033C112.805 47.2416 113.05 45.4132 113.853 43.8062C114.371 42.7687 114.66 41.6318 114.7 40.4727C114.74 39.3136 114.53 38.1595 114.084 37.0889C113.638 36.0182 112.967 35.056 112.117 34.2676C111.266 33.4793 110.256 32.8833 109.154 32.5201C107.461 31.9427 106.007 30.8202 105.02 29.3284C104.033 27.8366 103.568 26.0596 103.699 24.2755C103.782 23.1193 103.615 21.9586 103.211 20.8723C102.806 19.786 102.172 18.7994 101.353 17.9794C100.534 17.1593 99.5474 16.525 98.4614 16.1194C97.3754 15.7138 96.2149 15.5464 95.0586 15.6286C93.2675 15.7567 91.4847 15.2846 89.9917 14.2869C88.4988 13.2891 87.3807 11.8225 86.814 10.1185C86.4471 9.01927 85.8482 8.01169 85.058 7.16404C84.2677 6.31638 83.3046 5.64845 82.2337 5.20549C81.1628 4.76252 80.0092 4.55486 78.8511 4.59658C77.693 4.63829 76.5574 4.92841 75.5211 5.44727C73.9113 6.25801 72.0768 6.50776 70.3088 6.15689C68.5409 5.80601 66.9408 4.87462 65.7626 3.51058C65.0034 2.63512 64.0649 1.93303 63.0107 1.45187C61.9565 0.970696 60.8113 0.72168 59.6525 0.72168C58.4937 0.72168 57.3484 0.970696 56.2942 1.45187C55.24 1.93303 54.3015 2.63512 53.5423 3.51058C52.3651 4.8674 50.77 5.79409 49.0082 6.14472C47.2464 6.49534 45.4181 6.24998 43.8111 5.44727C42.7752 4.92961 41.6401 4.64045 40.4828 4.59935C39.3255 4.55826 38.1728 4.76618 37.1027 5.20907C36.0327 5.65195 35.0703 6.31947 34.2805 7.16646C33.4907 8.01346 32.8921 9.02018 32.525 10.1185C31.9583 11.8225 30.8402 13.2891 29.3473 14.2869C27.8543 15.2846 26.0715 15.7567 24.2804 15.6286C23.1238 15.5466 21.963 15.714 20.8767 16.1195C19.7904 16.5251 18.8039 17.1592 17.984 17.9792C17.1641 18.7991 16.5299 19.7856 16.1244 20.8719C15.7189 21.9582 15.5514 23.1189 15.6335 24.2755C15.7616 26.0666 15.2895 27.8494 14.2917 29.3424C13.294 30.8353 11.8273 31.9534 10.1234 32.5201C9.02506 32.8872 8.01834 33.4859 7.17135 34.2756C6.32435 35.0654 5.65684 36.0278 5.21395 37.0979C4.77107 38.1679 4.56314 39.3206 4.60424 40.4779C4.64533 41.6352 4.93449 42.7703 5.45216 43.8062C6.25487 45.4132 6.50023 47.2416 6.1496 49.0033C5.79897 50.7651 4.87228 52.3602 3.51546 53.5374C2.64 54.2966 1.93792 55.2351 1.45675 56.2893C0.975579 57.3435 0.726562 58.4888 0.726562 59.6476C0.726562 60.8064 0.975579 61.9517 1.45675 63.0058C1.93792 64.06 2.64 64.9985 3.51546 65.7577C4.87172 66.9338 5.79815 68.5277 6.14879 70.2883C6.49943 72.0489 6.25435 73.8762 5.45216 75.4821C4.93329 76.5184 4.64318 77.654 4.60146 78.8121C4.55975 79.9703 4.7674 81.1238 5.21037 82.1947C5.65334 83.2656 6.32126 84.2288 7.16892 85.019C8.01657 85.8093 9.02415 86.4081 10.1234 86.775C11.8273 87.3417 13.294 88.4598 14.2917 89.9528C15.2895 91.4457 15.7616 93.2285 15.6335 95.0196C15.5462 96.1787 15.7097 97.343 16.113 98.4331C16.5163 99.5233 17.1499 100.514 17.9705 101.337C18.7911 102.16 19.7795 102.797 20.8684 103.204C21.9573 103.61 23.1211 103.777 24.2804 103.694C26.0645 103.563 27.8415 104.028 29.3333 105.015C30.8251 106.002 31.9476 107.456 32.525 109.149C32.8904 110.249 33.488 111.257 34.2773 112.106C35.0665 112.954 36.029 113.623 37.0995 114.066C38.1699 114.51 39.3233 114.718 40.4813 114.677C41.6393 114.636 42.7749 114.346 43.8111 113.827C45.4181 113.025 47.2464 112.779 49.0082 113.13C50.77 113.481 52.3651 114.407 53.5423 115.764C54.3015 116.64 55.24 117.342 56.2942 117.823C57.3484 118.304 58.4937 118.553 59.6525 118.553C60.8113 118.553 61.9565 118.304 63.0107 117.823C64.0649 117.342 65.0034 116.64 65.7626 115.764C66.9387 114.408 68.5326 113.481 70.2932 113.131C72.0538 112.78 73.881 113.025 75.487 113.827C76.5237 114.346 77.6598 114.636 78.8182 114.677C79.9767 114.719 81.1305 114.51 82.2015 114.067C83.2725 113.623 84.2355 112.954 85.0255 112.106C85.8154 111.257 86.4137 110.249 86.7799 109.149C87.3573 107.456 88.4798 106.002 89.9716 105.015C91.4634 104.028 93.2404 103.563 95.0245 103.694C96.1863 103.783 97.3536 103.619 98.4464 103.215C99.5391 102.811 100.532 102.174 101.355 101.351C102.179 100.527 102.815 99.5343 103.22 98.4415C103.624 97.3487 103.788 96.1814 103.699 95.0196C103.568 93.2355 104.033 91.4585 105.02 89.9667C106.007 88.4749 107.461 87.3524 109.154 86.775C110.254 86.4088 111.262 85.8105 112.111 85.0206C112.959 84.2307 113.628 83.2676 114.072 82.1966C114.515 81.1257 114.723 79.9718 114.682 78.8134C114.641 77.6549 114.351 76.5188 113.832 75.4821C113.03 73.8762 112.785 72.0489 113.136 70.2883C113.486 68.5277 114.413 66.9338 115.769 65.7577C116.646 65 117.349 64.0627 117.832 63.0093C118.315 61.9559 118.566 60.8111 118.568 59.6522C118.57 58.4934 118.323 57.3477 117.844 56.2928C117.364 55.2378 116.664 54.2981 115.789 53.5374ZM59.6525 111.502C49.511 111.503 39.5968 108.497 31.1639 102.864C22.7309 97.2306 16.1578 89.2231 12.2759 79.854C8.39395 70.4848 7.37757 60.175 9.35524 50.2282C11.3329 40.2814 16.2158 31.1445 23.3865 23.9729C30.5571 16.8013 39.6934 11.9172 49.6399 9.93816C59.5864 7.95916 69.8964 8.97417 79.2661 12.8548C88.6357 16.7355 96.6441 23.3075 102.279 31.7398C107.913 40.172 110.92 50.0857 110.92 60.2272C110.911 73.8191 105.506 86.8512 95.8927 96.4595C86.2793 106.068 73.2443 111.466 59.6525 111.468V111.502Z" fill="#BF9875" stroke="#BF9875" stroke-width="1.44578" mask="url(#path-1-inside-1_438_546)"/>
<path d="M59.6508 107.838C85.9654 107.838 107.298 86.5055 107.298 60.1908C107.298 33.8762 85.9654 12.5439 59.6508 12.5439C33.3361 12.5439 12.0039 33.8762 12.0039 60.1908C12.0039 86.5055 33.3361 107.838 59.6508 107.838Z" stroke="#BF9875" stroke-width="0.722892" stroke-miterlimit="10"/>
<path d="M36.0991 37.7873H32.3378L27.6524 40.7538V44.3025L31.9866 41.5855H32.0975V56.7139H36.0991V37.7873ZM48.0183 57.1297C52.7777 57.1297 55.6518 53.5071 55.6611 47.269C55.6703 41.0772 52.7592 37.5285 48.0183 37.5285C43.2682 37.5285 40.3849 41.068 40.3756 47.269C40.3571 53.4886 43.2497 57.1205 48.0183 57.1297ZM48.0183 53.812C45.8466 53.812 44.4419 51.631 44.4511 47.269C44.4604 42.9717 45.8558 40.8092 48.0183 40.8092C50.1716 40.8092 51.5763 42.9717 51.5763 47.269C51.5856 51.631 50.1809 53.812 48.0183 53.812ZM65.9353 57.1297C70.6947 57.1297 73.5688 53.5071 73.5781 47.269C73.5873 41.0772 70.6762 37.5285 65.9353 37.5285C61.1852 37.5285 58.3018 41.068 58.2926 47.269C58.2741 53.4886 61.1667 57.1205 65.9353 57.1297ZM65.9353 53.812C63.7636 53.812 62.3589 51.631 62.3681 47.269C62.3773 42.9717 63.7728 40.8092 65.9353 40.8092C68.0886 40.8092 69.4933 42.9717 69.4933 47.269C69.5025 51.631 68.0978 53.812 65.9353 53.812ZM83.8523 57.1297C88.6117 57.1297 91.4858 53.5071 91.495 47.269C91.5043 41.0772 88.5932 37.5285 83.8523 37.5285C79.1022 37.5285 76.2188 41.068 76.2096 47.269C76.1911 53.4886 79.0837 57.1205 83.8523 57.1297ZM83.8523 53.812C81.6805 53.812 80.2758 51.631 80.2851 47.269C80.2943 42.9717 81.6898 40.8092 83.8523 40.8092C86.0056 40.8092 87.4103 42.9717 87.4103 47.269C87.4195 51.631 86.0148 53.812 83.8523 53.812ZM18.8042 72.7139H23.6345V71.6141H20.4769L23.6283 67.1967V66.405H18.7981V67.5047H21.9525L18.8042 71.9222V72.7139ZM26.1791 72.7139L26.6473 71.2753H28.9238L29.3921 72.7139H30.8214L28.6466 66.405H26.9277L24.7498 72.7139H26.1791ZM26.9862 70.2341L27.7625 67.8467H27.8118L28.5881 70.2341H26.9862ZM34.251 72.7139C36.1732 72.7139 37.3376 71.5248 37.3376 69.5533C37.3376 67.5879 36.1732 66.405 34.2694 66.405H32.0145V72.7139H34.251ZM33.3484 71.571V67.5479H34.1986C35.3815 67.5479 36.0068 68.1516 36.0068 69.5533C36.0068 70.9611 35.3815 71.571 34.1955 71.571H33.3484ZM44.5569 69.5594C44.5569 67.4955 43.2754 66.3187 41.6027 66.3187C39.9208 66.3187 38.6485 67.4955 38.6485 69.5594C38.6485 71.6141 39.9208 72.8001 41.6027 72.8001C43.2754 72.8001 44.5569 71.6234 44.5569 69.5594ZM43.2046 69.5594C43.2046 70.8964 42.57 71.6203 41.6027 71.6203C40.6324 71.6203 40.0009 70.8964 40.0009 69.5594C40.0009 68.2225 40.6324 67.4986 41.6027 67.4986C42.57 67.4986 43.2046 68.2225 43.2046 69.5594ZM47.1617 72.7139H48.4616L49.6599 68.5891H49.7092L50.9106 72.7139H52.2106L54.0158 66.405H52.5587L51.5144 70.7978H51.459L50.3099 66.405H49.0623L47.9102 70.7886H47.8579L46.8136 66.405H45.3565L47.1617 72.7139ZM60.6051 69.5594C60.6051 67.4955 59.3236 66.3187 57.6509 66.3187C55.969 66.3187 54.6967 67.4955 54.6967 69.5594C54.6967 71.6141 55.969 72.8001 57.6509 72.8001C59.3236 72.8001 60.6051 71.6234 60.6051 69.5594ZM59.2528 69.5594C59.2528 70.8964 58.6182 71.6203 57.6509 71.6203C56.6806 71.6203 56.0491 70.8964 56.0491 69.5594C56.0491 68.2225 56.6806 67.4986 57.6509 67.4986C58.6182 67.4986 59.2528 68.2225 59.2528 69.5594ZM62.0269 72.7139H66.0655V71.6141H63.3608V66.405H62.0269V72.7139ZM72.9344 69.5594C72.9344 67.4955 71.6529 66.3187 69.9802 66.3187C68.2982 66.3187 67.026 67.4955 67.026 69.5594C67.026 71.6141 68.2982 72.8001 69.9802 72.8001C71.6529 72.8001 72.9344 71.6234 72.9344 69.5594ZM71.582 69.5594C71.582 70.8964 70.9475 71.6203 69.9802 71.6203C69.0098 71.6203 68.3783 70.8964 68.3783 69.5594C68.3783 68.2225 69.0098 67.4986 69.9802 67.4986C70.9475 67.4986 71.582 68.2225 71.582 69.5594ZM79.6331 66.405H78.3054V70.3727H78.2499L75.5268 66.405H74.3562V72.7139H75.69V68.7431H75.7363L78.481 72.7139H79.6331V66.405ZM80.7992 66.405L83.1004 70.4836V72.7139H84.425V70.4836L86.7261 66.405H85.2321L83.7935 69.122H83.7319L82.2933 66.405H80.7992ZM93.0736 68.6137C92.898 67.1566 91.7952 66.3187 90.3351 66.3187C88.6685 66.3187 87.3963 67.4955 87.3963 69.5594C87.3963 71.6172 88.6469 72.8001 90.3351 72.8001C91.9523 72.8001 92.9288 71.725 93.0736 70.5637L91.7244 70.5575C91.5981 71.2321 91.0682 71.6203 90.3566 71.6203C89.3986 71.6203 88.7486 70.9087 88.7486 69.5594C88.7486 68.2471 89.3893 67.4986 90.3659 67.4986C91.0959 67.4986 91.6227 67.9206 91.7244 68.6137H93.0736ZM94.4639 72.7139H95.7977V70.1078H98.5055V72.7139H99.8363V66.405H98.5055V69.008H95.7977V66.405H94.4639V72.7139ZM35.5649 85.7139H36.8987V83.921L37.5549 83.1201L39.283 85.7139H40.8787L38.5098 82.2298L40.851 79.405H39.2522L36.9819 82.1867H36.8987V79.405H35.5649V85.7139ZM41.9794 85.7139H46.0179V84.6141H43.3133V79.405H41.9794V85.7139ZM48.6689 79.405H47.335V85.7139H48.6689V79.405ZM50.2 85.7139H54.4634V84.6141H51.5339V83.1078H54.2324V82.008H51.5339V80.5047H54.4511V79.405H50.2V85.7139ZM61.2222 79.405H59.8945V83.3727H59.8391L57.1159 79.405H55.9453V85.7139H57.2792V81.7431H57.3254L60.0701 85.7139H61.2222V79.405ZM62.5177 80.5047H64.4492V85.7139H65.7677V80.5047H67.6991V79.405H62.5177V80.5047ZM74.5041 82.5594C74.5041 80.4955 73.2226 79.3187 71.5499 79.3187C69.868 79.3187 68.5957 80.4955 68.5957 82.5594C68.5957 84.6141 69.868 85.8001 71.5499 85.8001C73.2226 85.8001 74.5041 84.6234 74.5041 82.5594ZM73.1518 82.5594C73.1518 83.8964 72.5172 84.6203 71.5499 84.6203C70.5796 84.6203 69.9481 83.8964 69.9481 82.5594C69.9481 81.2225 70.5796 80.4986 71.5499 80.4986C72.5172 80.4986 73.1518 81.2225 73.1518 82.5594ZM71.0786 78.7951H72.0058L72.9454 77.3934H71.7317L71.0786 78.7951ZM77.1089 85.7139H78.4088L79.6071 81.5891H79.6564L80.8578 85.7139H82.1578L83.963 79.405H82.5059L81.4616 83.7978H81.4062L80.2571 79.405H79.0095L77.8574 83.7886H77.805L76.7608 79.405H75.3037L77.1089 85.7139Z" fill="#0B345A"/>
</svg>
