<svg width="170" height="170" viewBox="0 0 170 170" fill="none" xmlns="http://www.w3.org/2000/svg">
<path d="M46.0955 53.9707H48.3723C48.0825 51.875 46.2352 50.4003 43.8394 50.4003C41.04 50.4003 38.8822 52.4183 38.8822 55.8542C38.8822 59.2073 40.9003 61.2875 43.886 61.2875C46.5612 61.2875 48.4706 59.5954 48.4706 56.8063V55.4713H44.0361V57.1582H46.3128C46.2818 58.4725 45.3866 59.3056 43.8963 59.3056C42.2146 59.3056 41.1539 58.0482 41.1539 55.8335C41.1539 53.6292 42.256 52.3821 43.8756 52.3821C45.0296 52.3821 45.8109 52.9772 46.0955 53.9707ZM52.5391 61.1426H54.7227L56.7356 54.2139H56.8184L58.8365 61.1426H61.0201L64.0524 50.5452H61.6048L59.8507 57.924H59.7575L57.8274 50.5452H55.7318L53.7965 57.9085H53.7085L51.9544 50.5452H49.5068L52.5391 61.1426ZM65.9967 61.1426L66.7832 58.7261H70.6072L71.3937 61.1426H73.7947L70.1415 50.5452H67.2541L63.5957 61.1426H65.9967ZM67.3524 56.9771L68.6564 52.9668H68.7392L70.0432 56.9771H67.3524ZM75.0702 61.1426H77.3108V57.3859H78.9459L80.9536 61.1426H83.427L81.1761 57.0237C82.3818 56.5062 83.0493 55.4558 83.0493 54.0069C83.0493 51.9009 81.6574 50.5452 79.2512 50.5452H75.0702V61.1426ZM77.3108 55.5852V52.377H78.8217C80.1154 52.377 80.7415 52.9513 80.7415 54.0069C80.7415 55.0573 80.1154 55.5852 78.8321 55.5852H77.3108ZM86.4593 61.1426L87.2458 58.7261H91.0698L91.8563 61.1426H94.2573L90.6041 50.5452H87.7167L84.0583 61.1426H86.4593ZM87.815 56.9771L89.119 52.9668H89.2018L90.5058 56.9771H87.815ZM104.397 50.5452H102.167V57.2099H102.073L97.4991 50.5452H95.5328V61.1426H97.7734V54.4726H97.851L102.461 61.1426H104.397V50.5452ZM115.598 54.2553C115.303 51.8078 113.451 50.4003 110.998 50.4003C108.199 50.4003 106.062 52.377 106.062 55.8439C106.062 59.3005 108.163 61.2875 110.998 61.2875C113.715 61.2875 115.355 59.4816 115.598 57.5308L113.332 57.5204C113.12 58.6536 112.23 59.3056 111.034 59.3056C109.425 59.3056 108.333 58.1103 108.333 55.8439C108.333 53.6395 109.41 52.3821 111.05 52.3821C112.276 52.3821 113.161 53.091 113.332 54.2553H115.598ZM121.448 50.5452V57.9344C121.443 58.9538 120.988 59.4919 120.16 59.4919C119.378 59.4919 118.871 59.0055 118.856 58.1621H116.625C116.615 60.2784 118.126 61.2875 120.046 61.2875C122.193 61.2875 123.658 59.9887 123.663 57.9344V50.5452H121.448ZM127.342 61.1426L128.128 58.7261H131.952L132.739 61.1426H135.14L131.487 50.5452H128.599L124.941 61.1426H127.342ZM128.698 56.9771L130.002 52.9668H130.084L131.388 56.9771H128.698ZM45.7055 69.5452H43.4753V76.2099H43.3821L38.8079 69.5452H36.8415V80.1426H39.0821V73.4726H39.1597L43.7702 80.1426H45.7055V69.5452ZM49.3833 80.1426L50.1698 77.7261H53.9938L54.7803 80.1426H57.1813L53.5281 69.5452H50.6407L46.9823 80.1426H49.3833ZM50.739 75.9771L52.043 71.9668H52.1258L53.4297 75.9771H50.739ZM62.6999 69.5452V76.9344C62.6947 77.9538 62.2394 78.4919 61.4114 78.4919C60.6301 78.4919 60.123 78.0055 60.1075 77.1621H57.8772C57.8669 79.2784 59.3778 80.2875 61.2976 80.2875C63.445 80.2875 64.9094 78.9887 64.9146 76.9344V69.5452H62.6999ZM69.1525 80.1426H71.3361L73.349 73.2139H73.4318L75.4499 80.1426H77.6335L80.6658 69.5452H78.2182L76.4641 76.924H76.3709L74.4409 69.5452H72.3452L70.4099 76.9085H70.3219L68.5678 69.5452H66.1202L69.1525 80.1426ZM81.244 69.5452L85.1094 76.3962V80.1426H87.3344V76.3962L91.1998 69.5452H88.6902L86.2737 74.1091H86.1702L83.7537 69.5452H81.244ZM92.3097 80.1426H100.423V78.2953H95.1195L100.413 70.875V69.5452H92.2994V71.3925H97.5981L92.3097 78.8127V80.1426ZM96.3769 68.5206C97.0341 68.5206 97.5722 68.0187 97.5722 67.4029C97.5722 66.7923 97.0341 66.2904 96.3769 66.2904C95.7249 66.2904 95.1868 66.7923 95.1868 67.4029C95.1868 68.0187 95.7249 68.5206 96.3769 68.5206ZM107.891 72.593H110.039C110.008 70.7043 108.456 69.4003 106.096 69.4003C103.773 69.4003 102.07 70.6836 102.081 72.6085C102.075 74.1712 103.178 75.0664 104.968 75.4959L106.122 75.7856C107.276 76.0651 107.917 76.3962 107.923 77.1103C107.917 77.8865 107.183 78.4143 106.044 78.4143C104.88 78.4143 104.042 77.8761 103.969 76.8154H101.801C101.858 79.1077 103.498 80.2926 106.07 80.2926C108.657 80.2926 110.179 79.0559 110.184 77.1155C110.179 75.351 108.849 74.4144 107.007 74.0004L106.055 73.7728C105.133 73.5606 104.362 73.2191 104.378 72.4584C104.378 71.7754 104.983 71.2735 106.08 71.2735C107.152 71.2735 107.809 71.7599 107.891 72.593ZM111.577 80.1426H119.691V78.2953H114.387L119.68 70.875V69.5452H111.567V71.3925H116.865L111.577 78.8127V80.1426ZM121.41 80.1426H128.571V78.2953H123.65V75.7649H128.183V73.9176H123.65V71.3925H128.551V69.5452H121.41V80.1426ZM134.575 69.5452V76.9344C134.57 77.9538 134.115 78.4919 133.287 78.4919C132.505 78.4919 131.998 78.0055 131.983 77.1621H129.753C129.742 79.2784 131.253 80.2875 133.173 80.2875C135.32 80.2875 136.785 78.9887 136.79 76.9344V69.5452H134.575ZM59.6618 88.5452V95.9344C59.6566 96.9538 59.2013 97.4919 58.3733 97.4919C57.592 97.4919 57.0849 97.0055 57.0694 96.1621H54.8391C54.8288 98.2784 56.3398 99.2875 58.2595 99.2875C60.4069 99.2875 61.8713 97.9887 61.8765 95.9344V88.5452H59.6618ZM65.5556 99.1426L66.3421 96.7261H70.1661L70.9526 99.1426H73.3536L69.7004 88.5452H66.813L63.1546 99.1426H65.5556ZM66.9113 94.9771L68.2153 90.9668H68.2981L69.602 94.9771H66.9113ZM74.6291 99.1426H76.8696V96.131L77.9718 94.7856L80.8747 99.1426H83.5551L79.5759 93.2902L83.5085 88.5452H80.823L77.0094 93.2178H76.8696V88.5452H74.6291V99.1426ZM93.8162 93.8439C93.8162 90.377 91.6636 88.4003 88.8538 88.4003C86.0285 88.4003 83.8915 90.377 83.8915 93.8439C83.8915 97.2953 86.0285 99.2875 88.8538 99.2875C91.6636 99.2875 93.8162 97.3108 93.8162 93.8439ZM91.5446 93.8439C91.5446 96.0896 90.4786 97.3056 88.8538 97.3056C87.2238 97.3056 86.1631 96.0896 86.1631 93.8439C86.1631 91.5981 87.2238 90.3821 88.8538 90.3821C90.4786 90.3821 91.5446 91.5981 91.5446 93.8439ZM101.225 91.593H103.372C103.341 89.7043 101.789 88.4003 99.4292 88.4003C97.1059 88.4003 95.4035 89.6836 95.4138 91.6085C95.4086 93.1712 96.5108 94.0664 98.3012 94.4959L99.4551 94.7856C100.609 95.0651 101.251 95.3962 101.256 96.1103C101.251 96.8865 100.516 97.4143 99.3775 97.4143C98.2132 97.4143 97.375 96.8761 97.3025 95.8154H95.1344C95.1913 98.1077 96.8316 99.2926 99.4034 99.2926C101.991 99.2926 103.512 98.0559 103.517 96.1155C103.512 94.351 102.182 93.4144 100.34 93.0004L99.3878 92.7728C98.4668 92.5606 97.6958 92.2191 97.7113 91.4584C97.7113 90.7754 98.3167 90.2735 99.4137 90.2735C100.485 90.2735 101.142 90.7599 101.225 91.593ZM98.534 87.5206H100.092L101.67 85.1662H99.631L98.534 87.5206ZM114.375 92.2553C114.08 89.8078 112.227 88.4003 109.774 88.4003C106.975 88.4003 104.838 90.377 104.838 93.8439C104.838 97.3005 106.939 99.2875 109.774 99.2875C112.491 99.2875 114.131 97.4816 114.375 95.5308L112.108 95.5204C111.896 96.6536 111.006 97.3056 109.811 97.3056C108.201 97.3056 107.109 96.1103 107.109 93.8439C107.109 91.6395 108.186 90.3821 109.826 90.3821C111.052 90.3821 111.937 91.091 112.108 92.2553H114.375ZM118.222 88.5452H115.981V99.1426H118.222V88.5452Z" fill="#0B345A"/>
<path d="M89.638 162.934C89.0416 159.062 87.5854 155.365 85.3719 152.103C83.099 148.829 79.9642 146.216 76.2993 144.543C74.453 143.712 72.5342 143.044 70.5662 142.549C68.5779 142.048 66.5801 141.424 64.5918 140.876C63.6088 140.59 62.6423 140.253 61.6963 139.865L58.8008 138.769C57.8318 138.405 56.8844 137.989 55.9632 137.521L53.1642 136.189C38.3194 128.653 26.4594 116.492 19.4549 101.625C12.4504 86.7578 10.7001 70.0304 14.4802 54.0814C15.4628 50.1412 16.7337 46.2754 18.283 42.5138C19.8878 38.7723 21.7852 35.1578 23.9582 31.7023C26.1829 28.2738 28.6671 25.0136 31.39 21.9492C34.1619 18.9232 37.1589 16.1023 40.3564 13.5098L40.9645 14.2469C28.0131 24.3606 18.896 38.4318 15.069 54.2137C14.1659 58.1392 13.5691 62.1263 13.2834 66.1404C13.0427 70.1624 13.1072 74.1963 13.4764 78.2089C14.2818 86.237 16.4648 94.0744 19.9334 101.391C26.9606 116.066 38.7735 128.035 53.5117 135.414L56.2914 136.718C57.2006 137.179 58.1387 137.583 59.1 137.927L61.9955 138.995C62.9391 139.371 63.9063 139.686 64.891 139.94C66.8793 140.479 68.8096 141.084 70.8268 141.557C72.8636 142.036 74.8531 142.691 76.7723 143.513C78.7165 144.33 80.5459 145.388 82.2158 146.66C83.0577 147.293 83.8633 147.971 84.6287 148.692C85.3756 149.436 86.0781 150.222 86.7328 151.045C89.3363 154.415 91.2562 158.242 92.3887 162.32L89.638 162.934Z" fill="#BF9875"/>
<path d="M64.4569 148.92C61.7062 150.725 58.9941 151.378 57.1699 150.886C57.0155 150.886 56.9575 150.688 57.0444 150.48C58.2895 147.778 60.2991 145.482 62.8354 143.864C65.5958 142.059 68.2983 141.407 70.1224 141.899C70.2865 141.899 70.3348 142.097 70.2479 142.295C69.0058 145.002 66.9957 147.301 64.4569 148.92Z" fill="#BF9875"/>
<path d="M68.9713 133.021C67.5621 130.092 65.5932 128.164 63.769 127.663C63.605 127.616 63.4795 127.729 63.4505 127.946C63.0985 130.898 63.6212 133.887 64.9562 136.556C66.3653 139.486 68.3343 141.414 70.1584 141.924C70.3225 141.924 70.448 141.848 70.4769 141.64C70.8297 138.686 70.3071 135.694 68.9713 133.021Z" fill="#BF9875"/>
<path d="M54.0008 144.544C51.2887 145.849 48.7696 146.123 47.177 145.489C47.0419 145.433 47.013 145.272 47.1191 145.102C48.5851 142.806 50.6918 140.97 53.19 139.81C55.8925 138.505 58.4212 138.231 60.0138 138.864C60.1489 138.921 60.1779 139.082 60.0717 139.252C58.6057 141.548 56.499 143.384 54.0008 144.544Z" fill="#BF9875"/>
<path d="M60.0251 130.697C59.06 127.862 57.5639 125.905 55.9714 125.234C55.8363 125.178 55.7108 125.234 55.6529 125.452C54.9724 128.078 55.0796 130.841 55.9618 133.409C56.8787 136.244 58.4229 138.201 60.0155 138.862C60.1506 138.928 60.2761 138.862 60.334 138.645C61.0143 136.022 60.907 133.262 60.0251 130.697Z" fill="#BF9875"/>
<path d="M45.2136 140.053C42.3857 141.083 39.8473 141.112 38.3319 140.299C38.2065 140.233 38.1872 140.082 38.3319 139.921C40.0179 137.76 42.3028 136.12 44.9144 135.196C47.7423 134.166 50.2807 134.137 51.7961 134.95C51.9215 135.016 51.9312 135.167 51.7961 135.328C50.1101 137.489 47.8252 139.129 45.2136 140.053Z" fill="#BF9875"/>
<path d="M52.6101 126.862C51.9924 123.971 50.6798 121.863 49.1452 121.041C49.0101 120.965 48.8749 121.041 48.7977 121.22C47.8583 123.768 47.6841 126.527 48.2958 129.168C48.9232 132.06 50.2261 134.177 51.7704 134.999C51.8959 135.066 52.0407 134.999 52.1082 134.81C53.0552 132.264 53.2295 129.504 52.6101 126.862Z" fill="#BF9875"/>
<path d="M36.8499 134.214C33.8965 134.856 31.3774 134.535 29.9972 133.533C29.8717 133.439 29.891 133.288 29.9972 133.146C31.9749 131.252 34.4679 129.956 37.178 129.413C40.1218 128.77 42.6409 129.091 44.0307 130.093C44.1466 130.178 44.1369 130.329 44.0307 130.481C42.0504 132.371 39.5585 133.666 36.8499 134.214Z" fill="#BF9875"/>
<path d="M46.0413 122.155C45.8386 119.207 44.8059 116.929 43.4354 115.918C43.3099 115.833 43.1651 115.918 43.0589 116.05C41.7709 118.448 41.2115 121.157 41.4471 123.856C41.6498 126.805 42.6825 129.083 44.0627 130.094C44.1785 130.179 44.3233 130.094 44.4295 129.952C45.7214 127.559 46.2811 124.852 46.0413 122.155Z" fill="#BF9875"/>
<path d="M20.5305 117.612C17.5192 117.395 15.2028 116.374 14.1797 115.013C14.0832 114.9 14.1797 114.758 14.3148 114.654C16.772 113.408 19.5407 112.874 22.2968 113.113C25.3081 113.34 27.6245 114.361 28.6476 115.712C28.7441 115.826 28.6476 115.977 28.5125 116.071C26.0569 117.321 23.2868 117.856 20.5305 117.612Z" fill="#BF9875"/>
<path d="M32.893 108.678C33.5686 105.843 33.2597 103.319 32.2367 101.959C32.1498 101.845 31.9954 101.855 31.8506 101.959C29.9056 103.887 28.5658 106.32 27.9899 108.971C27.3143 111.806 27.6328 114.32 28.6462 115.681C28.7331 115.794 28.8972 115.785 29.042 115.681C30.9862 113.757 32.3232 111.326 32.893 108.678Z" fill="#BF9875"/>
<path d="M27.5386 126.077C24.5176 126.172 22.1047 125.406 20.9271 124.187C20.8306 124.083 20.8693 123.932 21.0333 123.818C23.3231 122.322 26.0024 121.499 28.7547 121.446C31.7757 121.352 34.1886 122.127 35.3564 123.336C35.4626 123.44 35.424 123.592 35.2599 123.705C32.9708 125.203 30.2911 126.026 27.5386 126.077Z" fill="#BF9875"/>
<path d="M38.8476 115.9C39.2047 112.96 38.6256 110.541 37.4578 109.284C37.3613 109.171 37.2068 109.199 37.0717 109.35C35.3506 111.47 34.2855 114.028 34.0025 116.722C33.655 119.661 34.2341 122.08 35.3923 123.337C35.4985 123.441 35.6529 123.413 35.788 123.271C37.5057 121.15 38.5674 118.592 38.8476 115.9Z" fill="#BF9875"/>
<path d="M15.4697 108.451C12.7769 107.827 10.8273 106.561 10.0841 105.2C10.0262 105.077 10.084 104.954 10.2674 104.888C12.6813 104.106 15.2726 104.014 17.7379 104.623C20.4307 105.247 22.3803 106.513 23.1139 107.874C23.1814 107.997 23.1138 108.12 22.9401 108.186C20.5262 108.968 17.9349 109.059 15.4697 108.451Z" fill="#BF9875"/>
<path d="M27.9643 102.093C29.0067 99.5697 29.0839 97.2826 28.36 95.9028C28.3021 95.7894 28.1573 95.7705 28.0029 95.9028C25.9528 97.3741 24.3781 99.3917 23.4666 101.715C22.4339 104.238 22.3566 106.516 23.0709 107.896C23.1384 108.019 23.2832 108.028 23.4376 107.896C25.4811 106.424 27.0519 104.411 27.9643 102.093Z" fill="#BF9875"/>
<path d="M11.4301 99.7944C8.80485 98.925 6.98068 97.5074 6.37263 96.0709C6.32437 95.948 6.37263 95.8346 6.58497 95.7779C9.06082 95.2167 11.6487 95.3577 14.0457 96.1843C16.671 97.0537 18.4951 98.4808 19.0936 99.9645C19.1515 100.087 19.0936 100.201 18.8909 100.248C16.4108 100.799 13.8215 100.641 11.4301 99.7944Z" fill="#BF9875"/>
<path d="M24.516 94.5954C25.7804 92.176 26.0699 89.8701 25.4812 88.4714C25.4329 88.3485 25.2882 88.3201 25.1241 88.4147C22.9482 89.6971 21.1931 91.5632 20.0666 93.7921C18.8022 96.202 18.503 98.5174 19.1014 99.9161C19.1593 100.039 19.2945 100.058 19.4585 99.9728C21.6362 98.6924 23.3918 96.8257 24.516 94.5954Z" fill="#BF9875"/>
<path d="M6.14884 80.733C3.77453 79.3249 2.28817 77.5387 2.04688 76.0077C2.04688 75.8754 2.13374 75.7809 2.31712 75.7714C4.85738 75.7417 7.35187 76.4344 9.49798 77.7655C11.8723 79.1737 13.3587 80.9504 13.6 82.4908C13.6 82.6231 13.5131 82.7177 13.3297 82.7271C10.7907 82.7477 8.29879 82.0557 6.14884 80.733Z" fill="#BF9875"/>
<path d="M20.0764 78.468C21.8523 76.3794 22.6438 74.2341 22.3928 72.7031C22.3928 72.5708 22.2384 72.5141 22.055 72.5614C19.6433 73.346 17.5126 74.7926 15.9165 76.7291C14.1406 78.8177 13.3492 80.963 13.6001 82.494C13.6001 82.6263 13.7545 82.683 13.9379 82.6263C16.3473 81.8419 18.4772 80.3991 20.0764 78.468Z" fill="#BF9875"/>
<path d="M8.40925 91.156C5.8226 90.211 4.066 88.6516 3.53516 87.1962C3.53516 87.0639 3.58341 86.9505 3.76679 86.9127C6.26368 86.4623 8.8402 86.7247 11.1889 87.6687C13.7756 88.6138 15.5226 90.1637 16.0148 91.6285C16.0148 91.7609 16.0148 91.8648 15.7928 91.9121C13.3082 92.3503 10.7475 92.0881 8.40925 91.156Z" fill="#BF9875"/>
<path d="M21.7278 86.5745C23.108 84.2213 23.523 81.9721 23.0018 80.5072C22.9536 80.3844 22.8185 80.3466 22.6447 80.4316C20.4064 81.6077 18.5604 83.389 17.3267 85.5633C15.9465 87.9165 15.5411 90.1658 16.0526 91.6306C16.0526 91.7629 16.2457 91.7913 16.4097 91.7157C18.6482 90.5353 20.4938 88.751 21.7278 86.5745Z" fill="#BF9875"/>
<path d="M6.33348 70.725C4.40315 69.2129 3.22565 67.4645 3.14844 66.0658C3.14844 65.9429 3.2546 65.8673 3.41868 65.8768C5.70977 66.1155 7.88328 66.991 9.68262 68.4001C11.613 69.9122 12.7808 71.6606 12.858 73.0593C12.858 73.1821 12.7615 73.2577 12.5878 73.2483C10.3001 73.0078 8.13013 72.1324 6.33348 70.725Z" fill="#BF9875"/>
<path d="M19.0801 70.1128C20.8946 68.4211 21.8405 66.5688 21.7729 65.1701C21.7729 65.0472 21.6571 64.9811 21.493 65.0094C19.2446 65.4655 17.1775 66.5448 15.5379 68.1187C13.7137 69.8104 12.7679 71.6627 12.8354 73.0614C12.8354 73.1843 12.9609 73.2504 13.125 73.2221C15.3733 72.766 17.4404 71.6867 19.0801 70.1128Z" fill="#BF9875"/>
<path d="M7.02496 61.6239C5.28766 60.0173 4.39004 58.2595 4.44795 56.8986C4.44795 56.7758 4.56377 56.7191 4.71819 56.7474C6.86223 57.1775 8.83525 58.2008 10.4031 59.696C12.1404 61.3026 13.038 63.0604 12.9801 64.4213C12.9801 64.5347 12.8643 64.5914 12.7098 64.5725C10.5662 64.1415 8.59341 63.1183 7.02496 61.6239Z" fill="#BF9875"/>
<path d="M19.1807 62.1926C21.1111 60.7466 22.1342 59.0833 22.2017 57.7413C22.2017 57.6279 22.1052 57.5618 21.9411 57.5712C19.7658 57.8006 17.7044 58.6408 16.0053 59.9906C14.1232 61.4271 13.0519 63.0998 12.9844 64.4324C12.9844 64.5458 13.0809 64.6119 13.2353 64.6025C15.4122 64.3744 17.4761 63.5378 19.1807 62.1926Z" fill="#BF9875"/>
<path d="M8.89925 52.0299C7.48045 50.1398 6.911 48.2496 7.21021 46.9549C7.21021 46.8415 7.35497 46.8037 7.49974 46.851C9.53894 47.6442 11.3015 48.996 12.5765 50.7446C13.9953 52.6347 14.5648 54.5249 14.2656 55.8102C14.2656 55.9236 14.1208 55.9708 13.9664 55.9141C11.9306 55.1242 10.171 53.7754 8.89925 52.0299Z" fill="#BF9875"/>
<path d="M20.7631 54.6787C22.8671 53.5919 24.2184 52.127 24.5272 50.8323C24.5272 50.7189 24.4693 50.6338 24.3149 50.6149C22.1314 50.4659 19.9503 50.935 18.0316 51.9664C15.9179 53.0627 14.5667 54.5181 14.2578 55.8128C14.2578 55.9262 14.3157 56.0207 14.4798 56.0302C16.6635 56.183 18.8458 55.7136 20.7631 54.6787Z" fill="#BF9875"/>
<path d="M12.0412 42.6179C10.883 40.5671 10.5645 38.6297 11.076 37.3728C11.076 37.2594 11.2401 37.2405 11.3848 37.3066C13.2899 38.3575 14.8499 39.9179 15.8825 41.8051C17.0407 43.8559 17.3592 45.8027 16.8477 47.0502C16.8477 47.1636 16.6836 47.192 16.5388 47.1164C14.6295 46.0709 13.0681 44.5092 12.0412 42.6179Z" fill="#BF9875"/>
<path d="M23.4572 46.7563C25.6964 45.9341 27.2311 44.6678 27.704 43.4108C27.7522 43.3069 27.704 43.2124 27.5206 43.1746C25.3758 42.748 23.151 42.935 21.1119 43.7132C18.863 44.526 17.3381 45.8018 16.8555 47.0493C16.8555 47.1627 16.8555 47.2572 17.0485 47.295C19.1933 47.7216 21.4181 47.5346 23.4572 46.7563Z" fill="#BF9875"/>
<path d="M16.3038 34.1395C15.522 32.1737 15.4738 30.3592 16.0432 29.3291C16.0915 29.244 16.1977 29.2346 16.3231 29.3291C17.9041 30.4874 19.1132 32.0649 19.8074 33.8749C20.5892 35.8406 20.6374 37.6551 20.068 38.6852C20.0197 38.7797 19.9039 38.7797 19.7881 38.6852C18.2071 37.5269 16.998 35.9495 16.3038 34.1395Z" fill="#BF9875"/>
<path d="M26.0008 39.1587C28.1048 38.6861 29.6298 37.7316 30.2089 36.6637C30.2571 36.5692 30.2089 36.4747 30.0641 36.4274C28.1995 35.7964 26.1881 35.7078 24.2731 36.1723C22.169 36.6448 20.6441 37.5993 20.065 38.6672C20.0167 38.7523 20.065 38.8562 20.2097 38.9035C22.0753 39.5297 24.0853 39.6183 26.0008 39.1587Z" fill="#BF9875"/>
<path d="M21.59 26.3062C21.1364 24.246 21.3873 22.5259 22.1305 21.5242C22.1884 21.4391 22.3042 21.4486 22.4104 21.5242C23.789 22.9251 24.73 24.6826 25.1225 26.5897C25.5761 28.65 25.3252 30.37 24.582 31.3717C24.5241 31.4568 24.4083 31.4473 24.3021 31.3717C22.9217 29.9721 21.9805 28.214 21.59 26.3062Z" fill="#BF9875"/>
<path d="M30.3355 32.8473C32.4878 32.715 34.1962 32.0062 34.9008 31.0516C34.9587 30.9666 34.9008 30.8626 34.7946 30.787C33.0564 29.8726 31.0867 29.4659 29.1194 29.6151C26.9671 29.7475 25.307 30.4562 24.5542 31.4108C24.4963 31.4958 24.5541 31.5998 24.6603 31.6659C26.3975 32.5836 28.3673 32.9937 30.3355 32.8473Z" fill="#BF9875"/>
<path d="M26.4897 20.4492C26.3171 19.7209 26.2974 18.9659 26.4318 18.23C26.5661 17.4941 26.8518 16.7926 27.2714 16.168C27.3294 16.0924 27.4355 16.1113 27.5224 16.168C28.6728 17.5125 29.4033 19.153 29.6265 20.8934C29.7968 21.6218 29.8154 22.3763 29.681 23.1119C29.5467 23.8475 29.2623 24.549 28.8447 25.1745C28.7771 25.2501 28.6806 25.2312 28.5937 25.1745C27.4415 23.8311 26.7107 22.1901 26.4897 20.4492Z" fill="#BF9875"/>
<path d="M33.952 26.8151C34.7126 26.882 35.4792 26.7975 36.2057 26.5669C36.9322 26.3363 37.6035 25.9643 38.1794 25.4731C38.2373 25.407 38.1794 25.303 38.1022 25.2369C36.5921 24.3047 34.8394 23.8191 33.0544 23.8382C32.2953 23.7721 31.5303 23.8569 30.8055 24.0875C30.0807 24.3181 29.411 24.6898 28.8366 25.1802C28.769 25.2558 28.8366 25.3503 28.9041 25.4164C30.4142 26.3486 32.1669 26.8342 33.952 26.8151Z" fill="#BF9875"/>
<path d="M31.9382 14.8889C31.7996 14.1544 31.8137 13.4001 31.9795 12.671C32.1453 11.9419 32.4595 11.2531 32.9034 10.6456C32.971 10.5795 33.0675 10.5984 33.1544 10.6929C34.234 12.0824 34.8869 13.7445 35.0364 15.4843C35.1773 16.2188 35.1644 16.9736 34.9985 17.703C34.8326 18.4324 34.5171 19.1212 34.0713 19.7277C34.0037 19.7938 33.9072 19.7749 33.8203 19.6804C32.735 18.294 32.0814 16.6302 31.9382 14.8889Z" fill="#BF9875"/>
<path d="M39.1013 21.6005C39.8575 21.7023 40.6268 21.6535 41.3632 21.457C42.0996 21.2605 42.7879 20.9203 43.3867 20.4569C43.4446 20.3813 43.3867 20.2868 43.3191 20.2112C41.855 19.2152 40.13 18.6511 38.3485 18.5857C37.5918 18.4873 36.8225 18.5387 36.0864 18.7367C35.3503 18.9348 34.6623 19.2755 34.0631 19.7387C33.9956 19.8048 34.0631 19.9088 34.1307 19.9844C35.5949 20.979 37.3204 21.54 39.1013 21.6005Z" fill="#BF9875"/>
<path d="M43.8544 13.2936C45.2828 11.9894 45.9488 10.5151 45.7847 9.36216C45.7847 9.2582 45.6689 9.2015 45.5338 9.2204C43.7214 9.47285 42.0345 10.2723 40.7079 11.5075C40.0997 11.976 39.6094 12.5749 39.2747 13.2581C38.9401 13.9413 38.77 14.6907 38.7776 15.4484C38.7776 15.5429 38.8934 15.5996 39.0382 15.5901C40.8479 15.332 42.5309 14.5294 43.8544 13.2936Z" fill="#BF9875"/>
<path d="M131.523 14.2207C134.72 16.8132 137.717 19.6341 140.489 22.6601C143.212 25.7246 145.696 28.9848 147.921 32.4132C150.095 35.8748 151.992 39.4957 153.596 43.2436C155.146 47.0052 156.416 50.871 157.399 54.8112C161.177 70.7543 159.429 87.4751 152.43 102.338C145.431 117.201 133.58 129.36 118.744 136.9L115.945 138.232C115.026 138.7 114.078 139.114 113.107 139.47L110.212 140.576C109.268 140.966 108.301 141.3 107.316 141.578C105.328 142.135 103.33 142.759 101.352 143.26C99.38 143.754 97.4579 144.421 95.6089 145.254C91.9458 146.93 88.8118 149.542 86.5363 152.814C84.3214 156.075 82.8651 159.772 82.2703 163.645L79.5195 163.021C80.6705 158.979 82.5964 155.188 85.1947 151.85C85.8494 151.027 86.5519 150.241 87.2988 149.497C88.0643 148.777 88.8698 148.099 89.7117 147.465C91.383 146.195 93.2121 145.138 95.1553 144.318C97.0744 143.496 99.064 142.841 101.101 142.362C103.118 141.889 105.048 141.285 107.037 140.746C108.021 140.49 108.988 140.174 109.932 139.801L112.828 138.733C113.791 138.386 114.732 137.982 115.646 137.523L118.416 136.219C133.163 128.83 144.978 116.843 151.994 102.15C155.43 94.8062 157.568 86.945 158.316 78.9009C158.711 74.9029 158.807 70.882 158.606 66.8702C158.315 62.8566 157.718 58.8699 156.82 54.9435C152.985 39.1648 143.87 25.0959 130.924 14.9768L131.523 14.2207Z" fill="#BF9875"/>
<path d="M107.374 149.589C110.135 151.394 112.837 152.046 114.662 151.555C114.826 151.555 114.874 151.357 114.787 151.149C113.545 148.445 111.535 146.148 108.996 144.533C106.245 142.728 103.533 142.076 101.709 142.567C101.555 142.567 101.497 142.766 101.583 142.964C102.826 145.67 104.836 147.97 107.374 149.589Z" fill="#BF9875"/>
<path d="M102.863 133.675C104.272 130.745 106.251 128.817 108.065 128.307C108.229 128.307 108.355 128.382 108.393 128.59C108.738 131.546 108.212 134.536 106.878 137.209C105.469 140.139 103.5 142.067 101.676 142.577C101.521 142.577 101.386 142.502 101.357 142.294C101.004 139.339 101.527 136.347 102.863 133.675Z" fill="#BF9875"/>
<path d="M117.83 145.214C120.542 146.518 123.061 146.792 124.654 146.159C124.789 146.102 124.818 145.951 124.721 145.781C123.253 143.484 121.142 141.647 118.641 140.488C115.938 139.184 113.409 138.91 111.826 139.543C111.682 139.6 111.662 139.751 111.759 139.931C113.226 142.223 115.333 144.056 117.83 145.214Z" fill="#BF9875"/>
<path d="M111.809 131.371C112.726 128.536 114.28 126.579 115.863 125.908C115.998 125.852 116.124 125.908 116.181 126.126C116.862 128.752 116.755 131.515 115.873 134.083C114.956 136.918 113.411 138.875 111.829 139.536C111.684 139.593 111.558 139.536 111.5 139.319C110.82 136.696 110.927 133.936 111.809 131.371Z" fill="#BF9875"/>
<path d="M126.625 140.724C129.453 141.754 131.991 141.783 133.507 140.97C133.642 140.904 133.651 140.753 133.507 140.592C131.814 138.449 129.53 136.825 126.924 135.914C124.096 134.884 121.548 134.855 120.042 135.659C119.907 135.734 119.898 135.886 120.042 136.046C121.735 138.189 124.019 139.813 126.625 140.724Z" fill="#BF9875"/>
<path d="M119.218 127.531C119.845 124.64 121.148 122.523 122.692 121.71C122.818 121.634 122.953 121.71 123.03 121.889C123.97 124.437 124.144 127.195 123.532 129.837C122.914 132.729 121.602 134.846 120.067 135.659C119.932 135.735 119.797 135.659 119.72 135.479C118.78 132.931 118.606 130.173 119.218 127.531Z" fill="#BF9875"/>
<path d="M134.977 134.915C137.93 135.558 140.449 135.237 141.829 134.235C141.955 134.14 141.945 133.989 141.829 133.847C139.862 131.935 137.371 130.622 134.658 130.067C131.705 129.424 129.186 129.746 127.805 130.748C127.68 130.833 127.69 130.984 127.805 131.135C129.777 133.041 132.266 134.353 134.977 134.915Z" fill="#BF9875"/>
<path d="M125.79 122.828C125.993 119.88 127.026 117.602 128.406 116.591C128.522 116.496 128.666 116.591 128.773 116.723C130.061 119.121 130.62 121.83 130.384 124.53C130.182 127.478 129.149 129.746 127.778 130.767C127.653 130.852 127.508 130.767 127.402 130.625C126.116 128.23 125.556 125.525 125.79 122.828Z" fill="#BF9875"/>
<path d="M151.304 118.28C154.315 118.062 156.632 117.042 157.665 115.681C157.751 115.567 157.665 115.425 157.52 115.322C155.066 114.077 152.3 113.542 149.547 113.781C146.536 114.008 144.22 115.029 143.187 116.38C143.1 116.493 143.187 116.645 143.332 116.739C145.785 117.987 148.551 118.522 151.304 118.28Z" fill="#BF9875"/>
<path d="M138.938 109.342C138.262 106.507 138.571 103.993 139.594 102.632C139.681 102.519 139.835 102.528 139.99 102.632C141.935 104.56 143.274 106.994 143.85 109.645C144.526 112.48 144.207 114.994 143.194 116.355C143.107 116.468 142.943 116.459 142.798 116.355C140.853 114.427 139.514 111.993 138.938 109.342Z" fill="#BF9875"/>
<path d="M144.306 126.751C147.318 126.845 149.731 126.07 150.908 124.861C151.005 124.757 150.966 124.606 150.802 124.492C148.512 122.996 145.833 122.173 143.081 122.12C140.06 122.026 137.647 122.801 136.479 124.01C136.373 124.114 136.421 124.265 136.575 124.379C138.869 125.874 141.551 126.697 144.306 126.751Z" fill="#BF9875"/>
<path d="M132.979 116.559C132.622 113.629 133.21 111.21 134.369 109.943C134.465 109.83 134.62 109.858 134.755 110.009C136.476 112.129 137.541 114.687 137.824 117.381C138.171 120.32 137.592 122.739 136.434 123.996C136.328 124.1 136.174 124.072 136.048 123.93C134.327 121.811 133.262 119.253 132.979 116.559Z" fill="#BF9875"/>
<path d="M156.389 109.115C159.091 108.491 161.041 107.224 161.774 105.864C161.832 105.741 161.774 105.618 161.591 105.552C159.18 104.77 156.592 104.679 154.13 105.287C151.428 105.911 149.478 107.177 148.744 108.538C148.677 108.661 148.744 108.784 148.928 108.85C151.338 109.632 153.927 109.723 156.389 109.115Z" fill="#BF9875"/>
<path d="M143.838 102.781C142.805 100.257 142.718 97.9701 143.442 96.5903C143.51 96.4769 143.645 96.458 143.799 96.5903C145.851 98.0597 147.426 100.078 148.336 102.402C149.368 104.926 149.455 107.203 148.731 108.583C148.664 108.706 148.519 108.716 148.364 108.583C146.324 107.109 144.754 105.096 143.838 102.781Z" fill="#BF9875"/>
<path d="M160.403 100.467C163.029 99.5973 164.853 98.1797 165.461 96.7432C165.509 96.6204 165.461 96.507 165.248 96.4503C162.773 95.8843 160.184 96.0253 157.788 96.8566C155.162 97.7261 153.338 99.1531 152.74 100.58C152.682 100.712 152.74 100.826 152.952 100.873C155.424 101.439 158.011 101.298 160.403 100.467Z" fill="#BF9875"/>
<path d="M147.327 95.2692C146.053 92.8498 145.763 90.5439 146.361 89.1452C146.361 89.0223 146.554 88.994 146.718 89.0885C148.897 90.3681 150.653 92.235 151.776 94.4659C153.04 96.8758 153.34 99.1912 152.741 100.58C152.683 100.713 152.548 100.732 152.384 100.647C150.204 99.3696 148.447 97.502 147.327 95.2692Z" fill="#BF9875"/>
<path d="M165.682 81.4058C168.056 79.9977 169.542 78.2115 169.784 76.6805C169.784 76.5482 169.697 76.4537 169.513 76.4442C166.975 76.4155 164.481 77.1046 162.332 78.4289C159.958 79.8465 158.472 81.6232 158.23 83.1542C158.23 83.2865 158.317 83.381 158.501 83.3905C161.039 83.4139 163.531 82.7252 165.682 81.4058Z" fill="#BF9875"/>
<path d="M151.756 79.1555C149.98 77.0669 149.189 74.9216 149.44 73.3906C149.44 73.2583 149.594 73.2016 149.778 73.2489C152.191 74.0311 154.322 75.4782 155.916 77.4166C157.692 79.4958 158.484 81.6505 158.233 83.1815C158.233 83.3138 158.078 83.3705 157.895 83.3138C155.485 82.5294 153.356 81.0866 151.756 79.1555Z" fill="#BF9875"/>
<path d="M163.429 91.83C166.006 90.8849 167.762 89.3256 168.254 87.8702C168.303 87.7379 168.255 87.6245 168.033 87.5867C165.532 87.136 162.953 87.3985 160.601 88.3427C158.014 89.2878 156.267 90.8377 155.775 92.3025C155.727 92.4254 155.775 92.5388 155.997 92.5861C158.497 93.0319 161.075 92.7696 163.429 91.83Z" fill="#BF9875"/>
<path d="M150.1 87.2425C148.72 84.8893 148.315 82.64 148.826 81.1752C148.874 81.0523 149.019 81.0145 149.183 81.0996C151.422 82.2757 153.268 84.057 154.501 86.2313C155.881 88.5845 156.287 90.8338 155.775 92.2986C155.727 92.4215 155.582 92.4593 155.418 92.3837C153.182 91.2007 151.337 89.4171 150.1 87.2425Z" fill="#BF9875"/>
<path d="M165.509 71.3978C167.488 69.8857 168.607 68.1373 168.685 66.7386C168.685 66.6158 168.588 66.5402 168.414 66.5496C166.134 66.7966 163.972 67.6715 162.179 69.0729C160.201 70.585 159.081 72.3334 159.004 73.7321C159.004 73.855 159.1 73.9306 159.274 73.9211C161.554 73.6741 163.716 72.7992 165.509 71.3978Z" fill="#BF9875"/>
<path d="M152.747 70.7723C150.932 69.0806 149.987 67.2377 150.054 65.8391C150.054 65.7162 150.17 65.65 150.334 65.6784C152.582 66.1263 154.652 67.1955 156.299 68.7593C158.113 70.451 159.059 72.3033 158.992 73.702C158.992 73.8249 158.876 73.891 158.712 73.8627C156.462 73.4131 154.392 72.3404 152.747 70.7723Z" fill="#BF9875"/>
<path d="M164.805 62.2938C166.543 60.6872 167.44 58.9294 167.382 57.5685C167.382 57.4457 167.267 57.389 167.112 57.4079C164.97 57.848 162.999 58.8737 161.427 60.3659C159.7 61.9725 158.792 63.7303 158.85 65.0912C158.85 65.2046 158.966 65.2613 159.121 65.2424C161.264 64.8114 163.237 63.7882 164.805 62.2938Z" fill="#BF9875"/>
<path d="M152.65 62.8615C150.768 61.4156 149.706 59.7523 149.629 58.4103C149.629 58.2969 149.725 58.2307 149.889 58.2402C152.065 58.4696 154.126 59.3097 155.825 60.6595C157.707 62.096 158.779 63.7593 158.846 65.1013C158.846 65.2147 158.75 65.2809 158.595 65.2714C156.419 65.0418 154.355 64.2054 152.65 62.8615Z" fill="#BF9875"/>
<path d="M162.931 52.6932C164.35 50.8031 164.92 48.913 164.621 47.6182C164.621 47.5048 164.476 47.4576 164.331 47.5143C162.299 48.311 160.546 49.6666 159.283 51.4174C157.864 53.3075 157.285 55.1976 157.584 56.4829C157.584 56.5963 157.729 56.6436 157.884 56.5869C159.912 55.788 161.663 54.4368 162.931 52.6932Z" fill="#BF9875"/>
<path d="M151.079 55.3496C148.965 54.2628 147.614 52.7979 147.305 51.5032C147.305 51.3898 147.363 51.3047 147.517 51.2858C149.701 51.1308 151.884 51.6003 153.8 52.6372C155.914 53.7241 157.265 55.1889 157.574 56.4837C157.574 56.5971 157.516 56.6916 157.362 56.701C155.178 56.856 152.995 56.3865 151.079 55.3496Z" fill="#BF9875"/>
<path d="M159.781 43.2917C160.939 41.2409 161.257 39.3035 160.746 38.0466C160.746 37.9332 160.582 37.9143 160.447 37.9804C158.534 39.0253 156.97 40.5869 155.939 42.4789C154.781 44.5297 154.472 46.4671 154.974 47.7241C154.974 47.8375 155.138 47.8564 155.283 47.7902C157.19 46.7418 158.751 45.1808 159.781 43.2917Z" fill="#BF9875"/>
<path d="M148.376 47.4279C146.136 46.6057 144.611 45.3393 144.129 44.0824C144.129 43.9784 144.129 43.8745 144.322 43.8367C146.468 43.4184 148.691 43.6086 150.731 44.3848C152.97 45.1976 154.504 46.4734 154.977 47.7209C154.977 47.8343 154.977 47.9288 154.794 47.9666C152.646 48.3886 150.419 48.2018 148.376 47.4279Z" fill="#BF9875"/>
<path d="M155.525 34.8133C156.317 32.8476 156.365 31.033 155.796 30.0029C155.738 29.9179 155.631 29.9084 155.506 30.0029C153.925 31.1591 152.719 32.7375 152.031 34.5487C151.24 36.5144 151.192 38.3289 151.761 39.3591C151.809 39.4441 151.925 39.4536 152.041 39.3591C153.625 38.2038 154.835 36.6254 155.525 34.8133Z" fill="#BF9875"/>
<path d="M145.832 39.8325C143.728 39.36 142.203 38.4054 141.624 37.3375C141.575 37.243 141.624 37.1485 141.768 37.1012C143.633 36.4702 145.644 36.3816 147.559 36.8461C149.663 37.3092 151.188 38.2731 151.767 39.341C151.816 39.4261 151.767 39.5301 151.632 39.5773C149.763 40.2033 147.75 40.2918 145.832 39.8325Z" fill="#BF9875"/>
<path d="M150.234 26.98C150.687 24.9198 150.436 23.1998 149.703 22.198C149.635 22.1129 149.52 22.1224 149.413 22.198C148.044 23.6011 147.113 25.3589 146.73 27.2635C146.286 29.3238 146.528 31.0438 147.271 32.0456C147.329 32.1306 147.444 32.1212 147.551 32.0456C148.924 30.6449 149.856 28.8861 150.234 26.98Z" fill="#BF9875"/>
<path d="M141.493 33.4781C139.341 33.3458 137.681 32.637 136.937 31.6825C136.87 31.5974 136.937 31.4935 137.034 31.4179C138.772 30.5034 140.742 30.0967 142.709 30.246C144.861 30.3783 146.522 31.0871 147.274 32.0416C147.342 32.1267 147.274 32.2306 147.178 32.2968C145.437 33.2143 143.464 33.6242 141.493 33.4781Z" fill="#BF9875"/>
<path d="M145.348 21.1181C145.52 20.3899 145.54 19.6349 145.406 18.899C145.271 18.163 144.986 17.4615 144.566 16.837C144.508 16.7614 144.402 16.7803 144.315 16.837C143.166 18.1826 142.436 19.8226 142.211 21.5623C142.043 22.2909 142.025 23.045 142.16 23.7803C142.294 24.5156 142.577 25.2171 142.993 25.8434C143.06 25.9096 143.157 25.9001 143.244 25.8434C144.4 24.5024 145.131 22.8602 145.348 21.1181Z" fill="#BF9875"/>
<path d="M137.871 27.489C137.112 27.555 136.347 27.4702 135.622 27.2396C134.897 27.009 134.227 26.6374 133.653 26.147C133.585 26.0714 133.653 25.9768 133.721 25.9107C135.231 24.9785 136.983 24.4929 138.768 24.512C139.527 24.4459 140.292 24.5307 141.017 24.7613C141.742 24.9919 142.412 25.3636 142.986 25.854C143.054 25.9201 142.986 26.0241 142.919 26.0903C141.408 27.0224 139.656 27.5081 137.871 27.489Z" fill="#BF9875"/>
<path d="M139.901 15.5725C140.038 14.838 140.023 14.0841 139.857 13.3553C139.691 12.6266 139.378 11.9377 138.936 11.3292C138.869 11.263 138.772 11.282 138.685 11.3765C137.606 12.766 136.953 14.4281 136.803 16.1679C136.667 16.9025 136.682 17.6564 136.848 18.3852C137.013 19.1139 137.326 19.8028 137.768 20.4113C137.836 20.4774 137.932 20.4585 138.019 20.364C139.1 18.9752 139.753 17.3127 139.901 15.5725Z" fill="#BF9875"/>
<path d="M132.733 22.2698C131.978 22.3702 131.21 22.3198 130.475 22.1216C129.74 21.9235 129.054 21.5817 128.457 21.1169C128.39 21.0507 128.409 20.9562 128.515 20.8806C129.979 19.8846 131.704 19.3205 133.486 19.2551C134.243 19.1562 135.012 19.2073 135.748 19.4053C136.484 19.6034 137.172 19.9444 137.771 20.4081C137.839 20.4742 137.771 20.5687 137.713 20.6538C136.245 21.6482 134.517 22.209 132.733 22.2698Z" fill="#BF9875"/>
<path d="M127.974 13.943C126.555 12.6389 125.88 11.1646 126.044 10.0116C126.044 9.90761 126.159 9.85091 126.295 9.86981C128.109 10.1149 129.798 10.9153 131.12 12.1569C131.728 12.6239 132.218 13.2212 132.553 13.9028C132.887 14.5844 133.058 15.3321 133.051 16.0883C133.051 16.1923 132.935 16.249 132.79 16.2395C130.98 15.9814 129.297 15.1789 127.974 13.943Z" fill="#BF9875"/>
</svg>
