<svg width="102" height="17" viewBox="0 0 102 17" fill="none" xmlns="http://www.w3.org/2000/svg">
<g clip-path="url(#clip0_208_2011)">
<path fill-rule="evenodd" clip-rule="evenodd" d="M62.5282 12.303C62.5172 12.3144 62.5037 12.3229 62.4888 12.3278C62.4739 12.3328 62.458 12.334 62.4426 12.3314C62.4246 12.3304 62.4072 12.3252 62.3914 12.3163C62.3757 12.3073 62.3622 12.2949 62.3519 12.2798C61.4276 10.9222 60.3195 10.0576 58.3651 9.6731C60.7149 11.3635 61.3571 14.2051 60.7426 16.8994C60.7359 16.9261 60.7208 16.9497 60.6996 16.9666C60.6784 16.9835 60.6523 16.9926 60.6255 16.9926C60.5986 16.9926 60.5725 16.9835 60.5513 16.9666C60.5301 16.9497 60.515 16.9261 60.5084 16.8994C59.7528 13.947 57.1159 10.9971 54.0509 9.85636C53.7913 10.4639 53.3646 10.9806 52.8229 11.3436C52.2813 11.7065 51.6481 11.8997 51.001 11.8997C50.3538 11.8997 49.7207 11.7065 49.179 11.3436C48.6373 10.9806 48.2106 10.4639 47.951 9.85636C44.886 10.9971 42.2567 13.947 41.4935 16.8994C41.4871 16.9263 41.4718 16.9499 41.4502 16.9664C41.4286 16.9829 41.4021 16.9912 41.3752 16.9898C41.3481 16.9898 41.3219 16.9804 41.3008 16.963C41.2797 16.9456 41.2651 16.9214 41.2593 16.8943C40.6448 14.1948 41.287 11.3532 43.6368 9.66796C41.6824 10.0525 40.5743 10.9171 39.65 12.2746C39.6397 12.2897 39.6262 12.3022 39.6105 12.3111C39.5948 12.3201 39.5773 12.3252 39.5593 12.3262C39.5439 12.3288 39.528 12.3276 39.5131 12.3226C39.4983 12.3177 39.4847 12.3092 39.4737 12.2978C37.311 10.3588 34.5244 9.30892 31.6512 9.35049H0.837098C0.723601 9.35688 0.61003 9.3395 0.503314 9.29939C0.396598 9.25928 0.29898 9.1973 0.21643 9.11723C0.133879 9.03716 0.0681263 8.94068 0.0231907 8.83369C-0.021745 8.7267 -0.0449219 8.61144 -0.0449219 8.49496C-0.0449219 8.37848 -0.021745 8.26321 0.0231907 8.15622C0.0681263 8.04923 0.133879 7.95275 0.21643 7.87268C0.29898 7.79261 0.396598 7.73063 0.503314 7.69052C0.61003 7.65041 0.723601 7.633 0.837098 7.63939H31.6512C34.5244 7.68096 37.311 6.63107 39.4737 4.69209C39.4853 4.68162 39.4989 4.67369 39.5136 4.66881C39.5284 4.66393 39.5439 4.6622 39.5593 4.66371C39.5773 4.66469 39.5948 4.66985 39.6105 4.6788C39.6262 4.68774 39.6397 4.70022 39.65 4.71531C40.5743 6.07283 41.6824 6.93741 43.6368 7.32195C41.287 5.6315 40.6448 2.79 41.2593 0.0955999C41.266 0.0689528 41.2811 0.0453304 41.3023 0.028464C41.3235 0.0115977 41.3496 0.00244141 41.3764 0.00244141C41.4033 0.00244141 41.4294 0.0115977 41.4506 0.028464C41.4718 0.0453304 41.4869 0.0689528 41.4935 0.0955999C42.2491 3.04808 44.886 5.99541 47.951 7.13614C48.2106 6.52865 48.6373 6.01185 49.179 5.64894C49.7207 5.28604 50.3538 5.09277 51.001 5.09277C51.6481 5.09277 52.2813 5.28604 52.8229 5.64894C53.3646 6.01185 53.7913 6.52865 54.0509 7.13614C57.1159 5.99541 59.7478 3.04808 60.5084 0.0955999C60.5151 0.0687825 60.5305 0.0450536 60.5519 0.028212C60.5734 0.0113704 60.5997 0.0023914 60.6267 0.00269344C60.6538 0.00264854 60.68 0.0120977 60.7011 0.0294722C60.7222 0.0468467 60.7368 0.0710968 60.7426 0.0981833C61.3571 2.79774 60.7149 5.63925 58.3651 7.32454C60.3195 6.93999 61.4276 6.07542 62.3519 4.71789C62.3622 4.7028 62.3757 4.69032 62.3914 4.68138C62.4072 4.67244 62.4246 4.66728 62.4426 4.66629C62.458 4.66478 62.4735 4.66651 62.4883 4.67139C62.503 4.67628 62.5166 4.6842 62.5282 4.69468C64.6911 6.63322 67.4775 7.68305 70.3507 7.64198H101.165C101.278 7.63558 101.392 7.653 101.499 7.69311C101.605 7.73322 101.703 7.79519 101.785 7.87527C101.868 7.95534 101.934 8.05181 101.979 8.1588C102.024 8.2658 102.047 8.38106 102.047 8.49754C102.047 8.61402 102.024 8.72928 101.979 8.83628C101.934 8.94327 101.868 9.03974 101.785 9.11981C101.703 9.19989 101.605 9.26187 101.499 9.30197C101.392 9.34208 101.278 9.35946 101.165 9.35307H70.3507C67.4775 9.312 64.6911 10.3619 62.5282 12.3004V12.303ZM51.001 7.3142C50.7718 7.3142 50.5478 7.38384 50.3573 7.51429C50.1668 7.64474 50.0183 7.83016 49.9306 8.04709C49.8429 8.26402 49.82 8.50271 49.8647 8.733C49.9094 8.9633 50.0197 9.17485 50.1818 9.34088C50.3438 9.50691 50.5502 9.61998 50.7749 9.66579C50.9997 9.71159 51.2326 9.68806 51.4443 9.59821C51.656 9.50835 51.8369 9.35619 51.9642 9.16096C52.0915 8.96573 52.1595 8.73622 52.1595 8.50142C52.1595 8.18655 52.0374 7.88459 51.8201 7.66195C51.6029 7.43931 51.3082 7.3142 51.001 7.3142Z" fill="white"/>
</g>
<defs>
<clipPath id="clip0_208_2011">
<rect width="102" height="17" fill="white"/>
</clipPath>
</defs>
</svg>
