<svg width="28" height="20" viewBox="0 0 28 20" fill="none" xmlns="http://www.w3.org/2000/svg">
<path d="M5.61539 20C3.92308 20 2.5641 19.4776 1.53846 18.4328C0.512821 17.3383 0 15.8955 0 14.1045C0 10.8706 1.07692 8.10945 3.23077 5.82089C5.38462 3.48258 8.02564 1.54229 11.1538 0L12.2308 1.49254C10.9487 2.28856 9.74359 3.28358 8.61538 4.47761C7.48718 5.62189 6.61538 6.89055 6 8.28358L8.07692 9.77612C8.89744 10.3731 9.5641 11.1194 10.0769 12.0149C10.5897 12.8607 10.8462 13.7065 10.8462 14.5522C10.8462 16.0945 10.3333 17.3881 9.30769 18.4328C8.33333 19.4776 7.10256 20 5.61539 20ZM21.3846 20C19.6923 20 18.3333 19.4776 17.3077 18.4328C16.2821 17.3383 15.7692 15.8955 15.7692 14.1045C15.7692 10.8706 16.8462 8.10945 19 5.82089C21.1538 3.48258 23.7949 1.54229 26.9231 0L28 1.49254C26.7179 2.28856 25.5128 3.28358 24.3846 4.47761C23.2564 5.62189 22.3846 6.89055 21.7692 8.28358L23.8462 9.77612C24.6667 10.3731 25.3333 11.1194 25.8462 12.0149C26.359 12.8607 26.6154 13.7065 26.6154 14.5522C26.6154 16.0945 26.1026 17.3881 25.0769 18.4328C24.1026 19.4776 22.8718 20 21.3846 20Z" fill="#B79763"/>
</svg>
