<svg width="85" height="85" viewBox="0 0 85 85" fill="none" xmlns="http://www.w3.org/2000/svg">
<g clip-path="url(#clip0_517_14550)">
<path d="M42.4906 85.0001C42.2944 85.0008 42.1005 84.9577 41.923 84.874C41.7455 84.7904 41.5888 84.6682 41.4644 84.5164C40.6781 83.5608 39.6441 83.2462 38.5589 82.9158C37.2418 82.5226 35.7556 82.0585 34.8945 80.3399C33.889 81.1723 32.6258 81.6296 31.3206 81.6338C28.0534 81.7439 24.8136 80.1315 21.6722 78.5703C18.7706 77.1309 15.7746 75.6405 12.9241 75.6405C12.2415 75.6389 11.5618 75.7288 10.9031 75.9078C10.6506 75.9789 10.3837 75.9815 10.1298 75.9153C9.87595 75.8491 9.64428 75.7165 9.45857 75.5311C9.27286 75.3458 9.13981 75.1143 9.07308 74.8605C9.00634 74.6068 9.00833 74.3398 9.07884 74.087C10.0382 70.6106 8.29248 67.0673 6.41705 63.3155C4.84436 60.1694 3.24806 56.925 3.35815 53.6649C3.36235 52.3594 3.81958 51.0958 4.65171 50.0901C2.92961 49.2288 2.47744 47.7305 2.07641 46.4249C1.74614 45.3395 1.43157 44.313 0.472231 43.5187C0.321952 43.3932 0.201081 43.2362 0.118126 43.0588C0.03517 42.8814 -0.0078125 42.6881 -0.0078125 42.4922C-0.0078125 42.2964 0.03517 42.103 0.118126 41.9256C0.201081 41.7483 0.321952 41.5913 0.472231 41.4658C1.43157 40.6793 1.74614 39.645 2.07641 38.5557C2.46958 37.2422 2.93354 35.7517 4.65171 34.8944C3.82016 33.8883 3.36301 32.625 3.35815 31.3196C3.24806 28.0594 4.86008 24.8072 6.41705 21.6689C8.28069 17.9133 10.0382 14.3699 9.07884 10.8974C9.00876 10.6445 9.00703 10.3776 9.07384 10.1239C9.14066 9.8701 9.27364 9.63862 9.45915 9.45307C9.64465 9.26752 9.87603 9.13453 10.1297 9.0677C10.3834 9.00088 10.6503 9.00258 10.9031 9.07267C11.5618 9.25171 12.2415 9.34168 12.9241 9.34011C15.7667 9.34011 18.7706 7.85357 21.6722 6.41029C24.8176 4.83724 28.0612 3.26417 31.3206 3.35069C32.6258 3.35489 33.889 3.81222 34.8945 4.64454C35.7556 2.92205 37.2536 2.46978 38.555 2.06865C39.6441 1.7383 40.6702 1.42371 41.4644 0.464148C41.5925 0.317958 41.7503 0.200803 41.9273 0.120546C42.1043 0.0402892 42.2963 -0.0012207 42.4906 -0.0012207C42.685 -0.0012207 42.877 0.0402892 43.054 0.120546C43.231 0.200803 43.3888 0.317958 43.5169 0.464148C44.3032 1.42371 45.3372 1.7383 46.4263 2.06865C47.7395 2.46191 49.2297 2.92205 50.0868 4.64454C51.0923 3.81222 52.3555 3.35489 53.6606 3.35069C56.9161 3.24058 60.1677 4.85297 63.3091 6.41029C66.2107 7.85357 69.2067 9.34405 72.0572 9.34011C72.7398 9.34168 73.4195 9.25171 74.0782 9.07267C74.332 9.0044 74.5993 9.00484 74.8528 9.07395C75.1064 9.14305 75.337 9.27833 75.5211 9.46594C75.7104 9.64886 75.8469 9.87951 75.9161 10.1335C75.9853 10.3875 75.9846 10.6555 75.9143 10.9092C74.9588 14.3818 76.7006 17.929 78.58 21.6807C80.1527 24.8268 81.749 28.0713 81.6389 31.3314C81.634 32.6368 81.1769 33.9001 80.3453 34.9062C82.0635 35.7635 82.5196 37.2658 82.9206 38.5675C83.2509 39.6568 83.5654 40.6832 84.5247 41.4776C84.6756 41.6027 84.7971 41.7595 84.8804 41.937C84.9638 42.1144 85.007 42.308 85.007 42.5041C85.007 42.7001 84.9638 42.8937 84.8804 43.0711C84.7971 43.2485 84.6756 43.4054 84.5247 43.5305C83.5693 44.317 83.2548 45.3513 82.9246 46.4367C82.5314 47.7541 82.0674 49.2406 80.3493 50.1019C81.1808 51.108 81.638 52.3713 81.6428 53.6766C81.7529 56.9368 80.1409 60.1852 78.5839 63.3273C76.7203 67.0791 74.9628 70.6224 75.9221 74.0988C75.9913 74.3515 75.9924 74.6179 75.9252 74.8711C75.858 75.1242 75.7249 75.3551 75.5395 75.5401C75.3541 75.7251 75.123 75.8577 74.8698 75.9244C74.6166 75.991 74.3502 75.9894 74.0978 75.9197C73.4391 75.7406 72.7594 75.6507 72.0769 75.6522C69.2343 75.6522 66.2304 77.1427 63.3288 78.5821C60.1834 80.1551 56.9358 81.7517 53.6803 81.6456C52.3744 81.6419 51.1106 81.183 50.1064 80.3478C49.2493 82.0703 47.7474 82.5265 46.4421 82.9276C45.3569 83.2579 44.3307 83.5726 43.5364 84.5282C43.4088 84.6805 43.2485 84.8019 43.0674 84.8836C42.8864 84.9653 42.6892 85.0051 42.4906 85.0001ZM34.9063 78.9085C34.9975 78.9079 35.0884 78.9171 35.1776 78.936C35.38 78.9757 35.5704 79.0622 35.7336 79.1885C35.8967 79.3148 36.0281 79.4775 36.1173 79.6635C36.7071 80.8944 37.69 81.1973 38.9639 81.5827C40.1238 81.9366 41.437 82.3377 42.5025 83.5726C43.5562 82.3377 44.8615 81.9366 46.041 81.5827C47.3031 81.1894 48.2978 80.8944 48.8876 79.6635C48.9777 79.4788 49.1091 79.3171 49.2716 79.1913C49.4341 79.0654 49.6234 78.9785 49.8248 78.9375C50.0262 78.8964 50.2344 78.9022 50.4332 78.9545C50.632 79.0067 50.8162 79.104 50.9714 79.2388C51.7391 79.892 52.7157 80.2479 53.7236 80.2416C56.6292 80.3439 59.7194 78.8062 62.7076 77.3236C65.6957 75.841 68.9001 74.2483 72.073 74.2483C72.8805 74.2458 73.6847 74.3529 74.4635 74.5668L75.0454 75.0348L74.55 74.5432C74.5627 74.5333 74.5719 74.5195 74.5762 74.5039C74.5804 74.4883 74.5795 74.4718 74.5736 74.4567C73.4727 70.469 75.4346 66.5167 77.3258 62.6942C78.8749 59.5717 80.3414 56.6222 80.2431 53.7121C80.2491 52.7047 79.8949 51.7283 79.2444 50.9592C79.108 50.8049 79.0092 50.621 78.9558 50.422C78.9024 50.223 78.8958 50.0144 78.9366 49.8124C78.9773 49.6105 79.0644 49.4207 79.1908 49.258C79.3172 49.0954 79.4795 48.9642 79.6651 48.8749C80.8958 48.285 81.1985 47.3019 81.5838 46.0277C81.9376 44.8675 82.3387 43.5541 83.5733 42.4883C82.3387 41.4344 81.9376 40.1287 81.5838 38.9489C81.1906 37.6866 80.8958 36.6877 79.6691 36.1017C79.4825 36.0127 79.3193 35.8814 79.1923 35.7183C79.0653 35.5551 78.9782 35.3646 78.9377 35.1618C78.895 34.9598 78.9005 34.7505 78.9538 34.5509C79.007 34.3514 79.1067 34.1673 79.2444 34.0135C79.8961 33.2451 80.2505 32.2682 80.2431 31.2606C80.3414 28.3505 78.8749 25.401 77.3258 22.2745C75.4307 18.452 73.4688 14.4997 74.5736 10.516C74.5798 10.5003 74.5809 10.4831 74.5766 10.4669C74.5724 10.4506 74.563 10.4361 74.55 10.4255H74.4635C73.6847 10.6394 72.8805 10.7466 72.073 10.744C68.9001 10.744 65.7507 9.17101 62.7076 7.66874C59.6644 6.16647 56.6488 4.64846 53.7236 4.75071C52.7165 4.74472 51.7404 5.09901 50.9714 5.74961C50.8187 5.88791 50.6353 5.98786 50.4364 6.0412C50.2374 6.09454 50.0286 6.09973 49.8272 6.05635C49.6239 6.0174 49.4328 5.93079 49.2694 5.80364C49.1061 5.67649 48.9752 5.51242 48.8876 5.32488C48.2978 4.0979 47.3149 3.79509 46.041 3.40969C44.8811 3.05575 43.5679 2.65462 42.5025 1.41584C41.4487 2.65462 40.1434 3.05575 38.9639 3.40969C37.7018 3.80295 36.7071 4.0979 36.1173 5.32488C36.0293 5.5114 35.8987 5.67471 35.7363 5.80172C35.5738 5.92874 35.3838 6.01594 35.1815 6.05635C34.9796 6.10006 34.7701 6.09505 34.5705 6.0417C34.3708 5.98836 34.1868 5.88824 34.0335 5.74961C33.2645 5.09901 32.2884 4.74472 31.2813 4.75071C28.36 4.64846 25.2854 6.18614 22.2973 7.66874C19.3091 9.15135 16.1009 10.744 12.9319 10.744C12.1244 10.7466 11.3202 10.6394 10.5414 10.4255H10.4549C10.4419 10.4361 10.4325 10.4506 10.4283 10.4669C10.424 10.4831 10.4251 10.5003 10.4313 10.516C11.5322 14.4997 9.57028 18.452 7.67912 22.2745C6.13002 25.4206 4.66351 28.3505 4.76181 31.2606C4.75582 32.268 5.11003 33.2443 5.76048 34.0135C5.89677 34.1681 5.99531 34.3522 6.04845 34.5514C6.10158 34.7505 6.10784 34.9593 6.06669 35.1613C6.02554 35.3633 5.93807 35.553 5.81126 35.7155C5.68444 35.878 5.52173 36.0088 5.33582 36.0978C4.10912 36.6837 3.80634 37.6708 3.42103 38.945C3.06717 40.1051 2.66621 41.4186 1.43165 42.4844C2.66621 43.5383 3.06717 44.8439 3.42103 46.0237C3.8142 47.2861 4.10912 48.2811 5.33582 48.871C5.52173 48.9599 5.68444 49.0908 5.81126 49.2533C5.93807 49.4158 6.02554 49.6054 6.06669 49.8074C6.10784 50.0094 6.10158 50.2182 6.04845 50.4174C5.99531 50.6165 5.89677 50.8007 5.76048 50.9553C5.10942 51.7241 4.75513 52.7006 4.76181 53.7081C4.66351 56.6183 6.13002 59.5677 7.67912 62.6903C9.57421 66.5128 11.5361 70.4651 10.4313 74.4528C10.4254 74.4678 10.4245 74.4844 10.4287 74.5C10.433 74.5156 10.4422 74.5294 10.4549 74.5393L10.5414 74.5629C11.3202 74.349 12.1244 74.2418 12.9319 74.2443C16.1009 74.2443 19.2541 75.8174 22.2973 77.3196C25.3404 78.8219 28.3639 80.3439 31.2813 80.2377C32.2884 80.2437 33.2645 79.8894 34.0335 79.2388C34.2754 79.0224 34.5897 78.9045 34.9142 78.9085H34.9063Z" fill="#B79763"/>
<path fill-rule="evenodd" clip-rule="evenodd" d="M42.4895 18.1411C36.8571 18.1404 31.3986 20.0931 27.0442 23.6666C22.6898 27.24 19.7089 32.2131 18.6094 37.7385C17.5099 43.2638 18.3598 48.9996 21.0144 53.9684C23.6689 58.9372 27.9638 62.8317 33.1673 64.9882C38.3708 67.1448 44.1608 67.4299 49.5509 65.7951C54.941 64.1603 59.5975 60.7066 62.7272 56.0227C65.8569 51.3387 67.2661 45.7142 66.7145 40.1076C66.163 34.5009 63.685 29.2589 59.7026 25.2749C57.4447 23.0103 54.7617 21.2143 51.8077 19.9901C48.8537 18.7658 45.687 18.1374 42.4895 18.1411ZM24.2385 24.2367C28.4608 20.0142 34.0161 17.3867 39.9581 16.8019C45.9 16.217 51.8609 17.711 56.8251 21.0292C61.7893 24.3474 65.4497 29.2846 67.1826 34.9996C68.9155 40.7146 68.6136 46.8537 66.3285 52.3711C64.0434 57.8884 59.9164 62.4426 54.6507 65.2577C49.385 68.0727 43.3063 68.9745 37.4503 67.8094C31.5944 66.6442 26.3236 63.4842 22.5359 58.8677C18.7481 54.2513 16.6778 48.464 16.6777 42.492C16.6744 39.1004 17.3414 35.7416 18.6403 32.6087C19.9391 29.4758 21.8444 26.6306 24.2463 24.2367H24.2385Z" fill="#B79763"/>
<path fill-rule="evenodd" clip-rule="evenodd" d="M12.1251 40.6635C11.2483 40.4668 10.3755 40.2702 9.49872 40.1129C8.62195 39.9556 7.72942 39.7943 6.82119 39.6606C6.75131 39.6446 6.6904 39.602 6.65149 39.5418C6.61257 39.4815 6.5987 39.4085 6.6128 39.3382C6.61848 39.2734 6.64755 39.2129 6.69458 39.168C6.74162 39.1232 6.80337 39.097 6.86833 39.0943C7.78835 39.1179 8.68878 39.1179 9.58521 39.0943C10.4816 39.0708 11.3701 39.0472 12.2666 39.0039C12.8836 39.0554 13.4841 39.2305 14.032 39.5191C14.3164 39.6446 14.6078 39.7536 14.9048 39.8455C14.9347 39.8519 14.963 39.8643 14.9879 39.882C15.0128 39.8998 15.0338 39.9224 15.0496 39.9486C15.0654 39.9747 15.0758 40.0038 15.0799 40.0341C15.0841 40.0644 15.0821 40.0952 15.0739 40.1247C15.0574 40.1675 15.029 40.2047 14.9921 40.2319C14.9552 40.2591 14.9113 40.2751 14.8655 40.2781C14.5585 40.3192 14.254 40.377 13.9533 40.4511C13.3645 40.6447 12.7426 40.7169 12.1251 40.6635Z" fill="#B79763"/>
<path fill-rule="evenodd" clip-rule="evenodd" d="M12.8965 35.4134C12.0708 35.0712 11.2451 34.737 10.4076 34.4184C9.57019 34.0999 8.72093 33.7931 7.84809 33.5021C7.78805 33.472 7.74026 33.4221 7.71284 33.3608C7.68542 33.2995 7.68008 33.2305 7.69767 33.1657C7.71526 33.1009 7.75475 33.0441 7.8094 33.0051C7.86406 32.9661 7.93053 32.9472 7.99754 32.9516C8.89791 33.1364 9.78649 33.2937 10.6672 33.4353C11.5479 33.5768 12.4325 33.6987 13.3251 33.8285C13.9231 33.9868 14.4833 34.2636 14.9724 34.6426C15.2248 34.8168 15.4874 34.9757 15.7588 35.1184C15.7866 35.1303 15.8116 35.1477 15.8325 35.1695C15.8534 35.1914 15.8697 35.2172 15.8804 35.2455C15.891 35.2738 15.8958 35.304 15.8945 35.3342C15.8932 35.3643 15.8858 35.394 15.8728 35.4212C15.8494 35.4608 15.815 35.4926 15.7738 35.5129C15.7326 35.5331 15.6864 35.5409 15.6408 35.5353C15.3317 35.5178 15.022 35.5178 14.713 35.5353C14.1054 35.616 13.4878 35.5745 12.8965 35.4134Z" fill="#B79763"/>
<path fill-rule="evenodd" clip-rule="evenodd" d="M14.5758 30.3837C13.817 29.8999 13.066 29.4241 12.2954 28.964C11.5248 28.5039 10.7463 28.0555 9.93634 27.6151C9.88374 27.5748 9.84645 27.5178 9.83065 27.4534C9.81486 27.3891 9.8215 27.3213 9.84947 27.2612C9.87743 27.2011 9.92512 27.1524 9.98452 27.1231C10.0439 27.0937 10.1115 27.0856 10.1762 27.0999C11.0294 27.4381 11.8747 27.7488 12.724 28.0438C13.5732 28.3387 14.4146 28.614 15.2717 28.8814C15.8333 29.1404 16.3363 29.511 16.75 29.9707C16.9753 30.1875 17.2129 30.3911 17.4617 30.5803C17.4875 30.5965 17.5096 30.6179 17.5267 30.643C17.5438 30.6682 17.5554 30.6967 17.561 30.7266C17.5665 30.7566 17.5658 30.7873 17.5589 30.817C17.5519 30.8466 17.5389 30.8745 17.5207 30.8988C17.4913 30.933 17.4526 30.958 17.4093 30.9705C17.366 30.9831 17.32 30.9828 17.2769 30.9696C16.9732 30.9033 16.666 30.8534 16.3569 30.8202C15.74 30.7953 15.1343 30.6468 14.5758 30.3837Z" fill="#B79763"/>
<path fill-rule="evenodd" clip-rule="evenodd" d="M17.1021 25.7194C16.4415 25.1099 15.7811 24.5121 15.1048 23.9262C14.4285 23.3402 13.7405 22.7464 13.017 22.1879C12.9625 22.1383 12.9298 22.0691 12.9261 21.9954C12.9224 21.9217 12.948 21.8495 12.9974 21.7947C13.0349 21.7409 13.0908 21.7027 13.1546 21.6875C13.2184 21.6723 13.2856 21.681 13.3434 21.7121C14.1297 22.1958 14.9161 22.648 15.7024 23.0846C16.4888 23.5211 17.2751 23.938 18.0615 24.3509C18.571 24.7043 19.0031 25.1579 19.3314 25.6841C19.5153 25.9341 19.7122 26.1743 19.9212 26.4037C19.9429 26.425 19.9601 26.4504 19.9719 26.4784C19.9838 26.5064 19.9899 26.5365 19.9899 26.5669C19.9899 26.5973 19.9838 26.6275 19.9719 26.6555C19.9601 26.6835 19.9429 26.7089 19.9212 26.7301C19.8856 26.7585 19.8426 26.7762 19.7973 26.781C19.7521 26.7859 19.7064 26.7778 19.6655 26.7577C19.4021 26.6436 19.0955 26.5453 18.7848 26.447C18.1803 26.3213 17.6078 26.0738 17.1021 25.7194Z" fill="#B79763"/>
<path fill-rule="evenodd" clip-rule="evenodd" d="M20.4061 21.5628C19.8557 20.847 19.3131 20.1509 18.7509 19.4549C18.1886 18.7588 17.6027 18.0706 16.9933 17.3824C16.9703 17.3537 16.9531 17.3208 16.9428 17.2856C16.9325 17.2503 16.9293 17.2133 16.9333 17.1768C16.9373 17.1402 16.9485 17.1048 16.9662 17.0726C16.984 17.0404 17.0079 17.012 17.0366 16.9891C17.0837 16.9429 17.1459 16.9154 17.2118 16.9118C17.2776 16.9082 17.3425 16.9287 17.3944 16.9694C18.0824 17.579 18.7705 18.1492 19.4664 18.7234C20.1623 19.2976 20.8583 19.8324 21.5778 20.379C22.0155 20.8177 22.3616 21.3391 22.596 21.9128C22.7454 22.1998 22.8949 22.4869 23.0522 22.7268C23.0714 22.7505 23.0854 22.7779 23.0932 22.8073C23.1011 22.8367 23.1027 22.8675 23.0979 22.8975C23.093 22.9276 23.0819 22.9563 23.0652 22.9818C23.0485 23.0073 23.0266 23.0289 23.001 23.0454C22.9631 23.0704 22.9187 23.0837 22.8732 23.0837C22.8278 23.0837 22.7834 23.0704 22.7455 23.0454C22.4835 22.8795 22.2132 22.7272 21.9355 22.5892C21.3612 22.3546 20.8408 22.0054 20.4061 21.5628Z" fill="#B79763"/>
<path fill-rule="evenodd" clip-rule="evenodd" d="M24.373 18.0546C23.9602 17.2681 23.5434 16.4816 23.107 15.6951C22.6706 14.9085 22.2184 14.122 21.7348 13.3355C21.7013 13.2723 21.694 13.1985 21.7147 13.13C21.7353 13.0615 21.7821 13.0039 21.8449 12.9697C21.8993 12.9322 21.9654 12.9156 22.0311 12.9228C22.0968 12.93 22.1577 12.9606 22.2027 13.0091C22.7728 13.7327 23.3508 14.4209 23.9406 15.0973C24.5303 15.7737 25.1201 16.4344 25.7295 17.0951C26.0879 17.5999 26.3394 18.1727 26.4686 18.7783C26.5669 19.0889 26.6652 19.3957 26.7793 19.6592C26.7932 19.6861 26.8015 19.7156 26.8036 19.7459C26.8058 19.7762 26.8018 19.8066 26.7918 19.8353C26.7819 19.864 26.7663 19.8903 26.7458 19.9128C26.7254 19.9352 26.7007 19.9533 26.6731 19.9659C26.6301 19.9798 26.584 19.9813 26.5401 19.9702C26.4963 19.9591 26.4565 19.9358 26.4253 19.903C26.1961 19.695 25.9559 19.4995 25.7059 19.317C25.1807 18.9909 24.7271 18.5614 24.373 18.0546Z" fill="#B79763"/>
<path fill-rule="evenodd" clip-rule="evenodd" d="M28.8908 15.2625C28.6235 14.4052 28.3483 13.5597 28.0534 12.7142C27.7585 11.8686 27.4518 11.0192 27.1097 10.1658C27.0886 10.097 27.0954 10.0226 27.1285 9.95865C27.1615 9.89469 27.2184 9.84623 27.2867 9.82368C27.346 9.79608 27.4133 9.79083 27.4761 9.80889C27.539 9.82696 27.5932 9.86712 27.6287 9.922C28.0652 10.7321 28.5134 11.4951 28.9773 12.2816C29.4412 13.0681 29.9092 13.8035 30.3928 14.5625C30.6582 15.1217 30.8067 15.7293 30.8292 16.3479C30.8618 16.6575 30.913 16.9648 30.9825 17.2682C30.9915 17.2971 30.9945 17.3275 30.9914 17.3576C30.9882 17.3877 30.9791 17.4169 30.9644 17.4433C30.9497 17.4698 30.9297 17.493 30.9058 17.5115C30.8819 17.5301 30.8546 17.5436 30.8253 17.5513C30.7803 17.5589 30.734 17.5533 30.6922 17.5351C30.6503 17.517 30.6146 17.4871 30.5894 17.4491C30.3989 17.2024 30.1955 16.9661 29.9799 16.7412C29.5224 16.3254 29.1522 15.8228 28.8908 15.2625Z" fill="#B79763"/>
<path fill-rule="evenodd" clip-rule="evenodd" d="M33.8399 13.312C33.7219 12.4193 33.6 11.5384 33.4467 10.6535C33.2934 9.76869 33.1479 8.88385 32.9631 7.98328C32.9541 7.91198 32.9733 7.83998 33.0167 7.78266C33.06 7.72535 33.1241 7.68725 33.1951 7.67652C33.2583 7.65919 33.3255 7.66565 33.3842 7.69464C33.4429 7.72364 33.4889 7.77316 33.5135 7.83384C33.8045 8.70688 34.1112 9.55633 34.4296 10.394C34.7481 11.2316 35.0823 12.0535 35.4244 12.8833C35.5888 13.481 35.629 14.1061 35.5423 14.7199C35.5423 15.0424 35.5148 15.3609 35.5423 15.6519C35.5468 15.6818 35.5449 15.7122 35.5371 15.7414C35.5292 15.7705 35.5155 15.7977 35.4967 15.8213C35.4779 15.8449 35.4545 15.8644 35.4278 15.8786C35.4012 15.8927 35.3719 15.9012 35.3418 15.9036C35.296 15.9031 35.2513 15.8895 35.213 15.8644C35.1747 15.8393 35.1443 15.8038 35.1256 15.762C34.982 15.4918 34.8246 15.2293 34.6538 14.9755C34.2707 14.4831 33.9935 13.9167 33.8399 13.312Z" fill="#B79763"/>
<path fill-rule="evenodd" clip-rule="evenodd" d="M39.0176 12.2541C39.0595 11.3574 39.0897 10.4634 39.108 9.57199C39.108 8.67535 39.108 7.77479 39.108 6.85455C39.1163 6.78868 39.1468 6.72762 39.1946 6.68151C39.2423 6.6354 39.3044 6.607 39.3705 6.60103C39.4366 6.59506 39.5028 6.61189 39.558 6.6487C39.6132 6.68551 39.6543 6.74011 39.6742 6.80342C39.8079 7.7158 39.9612 8.60458 40.1303 9.48549C40.2994 10.3664 40.4802 11.2355 40.6768 12.1085C40.7351 12.7257 40.6656 13.3482 40.4724 13.9372C40.3986 14.2394 40.3408 14.5453 40.2993 14.8535C40.2978 14.8838 40.2904 14.9136 40.2772 14.9409C40.2641 14.9683 40.2456 14.9928 40.2229 15.0129C40.2002 15.0331 40.1737 15.0485 40.145 15.0582C40.1162 15.068 40.0859 15.0719 40.0556 15.0698C40.0105 15.0609 39.969 15.0391 39.9362 15.0069C39.9034 14.9748 39.8807 14.9338 39.8708 14.8889C39.7758 14.5924 39.6656 14.301 39.5405 14.0159C39.2494 13.4698 39.0716 12.8705 39.0176 12.2541Z" fill="#B79763"/>
<path fill-rule="evenodd" clip-rule="evenodd" d="M40.669 72.8716C40.4764 73.7486 40.2758 74.6177 40.1225 75.4986C39.9691 76.3795 39.8001 77.2683 39.6664 78.1768C39.6504 78.2467 39.6077 78.3075 39.5475 78.3465C39.4873 78.3854 39.4143 78.3993 39.344 78.3852C39.2786 78.3794 39.2176 78.3498 39.1727 78.3019C39.1277 78.2541 39.1019 78.1913 39.1002 78.1256C39.1238 77.2054 39.1238 76.3088 39.1002 75.4121C39.0766 74.5155 39.053 73.6267 39.0098 72.7301C39.0612 72.1129 39.2364 71.5124 39.5248 70.9643C39.6506 70.6781 39.7608 70.3854 39.8551 70.0874C39.8615 70.058 39.8738 70.0301 39.8913 70.0057C39.9089 69.9813 39.9312 69.9607 39.957 69.9452C39.9828 69.9297 40.0115 69.9197 40.0413 69.9157C40.0711 69.9118 40.1014 69.914 40.1303 69.9222C40.1734 69.9382 40.2109 69.9665 40.2381 70.0035C40.2654 70.0405 40.2812 70.0847 40.2836 70.1306C40.3248 70.4376 40.3826 70.7422 40.4567 71.043C40.6522 71.6315 40.7245 72.254 40.669 72.8716Z" fill="#B79763"/>
<path fill-rule="evenodd" clip-rule="evenodd" d="M35.4131 72.101C35.071 72.9268 34.7368 73.7527 34.4183 74.5903C34.0999 75.428 33.7931 76.2774 33.5022 77.1505C33.4721 77.2105 33.4222 77.2583 33.3609 77.2857C33.2996 77.3132 33.2308 77.3186 33.1659 77.301C33.1011 77.2834 33.0444 77.2439 33.0054 77.1892C32.9663 77.1345 32.9474 77.068 32.9518 77.001C33.1366 76.1004 33.2938 75.2116 33.4354 74.3268C33.5769 73.442 33.6988 72.5611 33.8286 71.6723C33.9835 71.0728 34.2606 70.5118 34.6425 70.0245C34.8155 69.7492 34.9884 69.4779 35.1182 69.2183C35.1297 69.1907 35.1467 69.1656 35.1681 69.1447C35.1895 69.1237 35.2148 69.1072 35.2427 69.0962C35.2705 69.0852 35.3003 69.0799 35.3302 69.0806C35.3602 69.0813 35.3897 69.0881 35.417 69.1004C35.4565 69.1237 35.4883 69.1581 35.5086 69.1993C35.5288 69.2406 35.5367 69.2868 35.531 69.3324C35.531 69.6234 35.531 69.938 35.531 70.2644C35.6174 70.8782 35.5773 71.5032 35.4131 72.101Z" fill="#B79763"/>
<path fill-rule="evenodd" clip-rule="evenodd" d="M30.3914 70.4217C29.9078 71.1768 29.4359 71.9318 28.9759 72.6987C28.5159 73.4656 28.0638 74.2482 27.6274 75.0583C27.588 75.1134 27.5305 75.1532 27.465 75.1705C27.3995 75.1879 27.3301 75.1818 27.2685 75.1533C27.207 75.1249 27.1573 75.0759 27.1281 75.0147C27.0989 74.9536 27.0919 74.8841 27.1083 74.8184C27.4504 73.9611 27.7571 73.1195 28.052 72.2701C28.3469 71.4206 28.6221 70.579 28.8894 69.7217C29.1506 69.1602 29.5208 68.6562 29.9785 68.2391C30.1963 68.0162 30.3999 67.7798 30.588 67.5313C30.6042 67.5056 30.6256 67.4835 30.6506 67.4664C30.6757 67.4493 30.7039 67.4374 30.7337 67.4315C30.7634 67.4256 30.7942 67.4258 30.8239 67.4322C30.8536 67.4385 30.8817 67.4508 30.9064 67.4683C30.9406 67.4986 30.9653 67.538 30.9779 67.5819C30.9904 67.6257 30.9902 67.6723 30.9772 67.7161C30.9106 68.0199 30.8608 68.327 30.8278 68.6363C30.8049 69.2549 30.6563 69.8623 30.3914 70.4217Z" fill="#B79763"/>
<path fill-rule="evenodd" clip-rule="evenodd" d="M25.7298 67.8931C25.1203 68.5538 24.5227 69.2145 23.9408 69.8909C23.3589 70.5673 22.7612 71.2555 22.2029 71.9752C22.1538 72.0303 22.0849 72.0637 22.0112 72.0682C21.9375 72.0726 21.8651 72.0477 21.8097 71.9988C21.7559 71.9613 21.7178 71.9053 21.7026 71.8415C21.6874 71.7777 21.6961 71.7105 21.7272 71.6527C22.2108 70.8662 22.6629 70.0797 23.0994 69.2931C23.5358 68.5066 23.9525 67.7201 24.3654 66.9336C24.7198 66.4249 25.1732 65.9928 25.6983 65.6633C25.9482 65.4794 26.1884 65.2825 26.4178 65.0734C26.4391 65.0517 26.4644 65.0344 26.4924 65.0225C26.5204 65.0107 26.5505 65.0046 26.5809 65.0046C26.6113 65.0046 26.6415 65.0107 26.6695 65.0225C26.6975 65.0344 26.7228 65.0517 26.7441 65.0734C26.7724 65.109 26.7901 65.152 26.795 65.1972C26.7998 65.2425 26.7918 65.2882 26.7716 65.329C26.6576 65.5925 26.5593 65.8992 26.461 66.2099C26.3333 66.8146 26.0846 67.3872 25.7298 67.8931Z" fill="#B79763"/>
<path fill-rule="evenodd" clip-rule="evenodd" d="M21.5782 64.5895C20.8587 65.1401 20.1627 65.6828 19.4668 66.2452C18.7709 66.8076 18.0828 67.3935 17.3948 68.0031C17.3661 68.0261 17.3333 68.0433 17.298 68.0536C17.2627 68.0639 17.2258 68.0672 17.1892 68.0631C17.1527 68.0591 17.1173 68.0479 17.0851 68.0302C17.0529 68.0124 17.0245 67.9885 17.0016 67.9598C16.9589 67.91 16.9355 67.8465 16.9355 67.7809C16.9355 67.7152 16.9589 67.6518 17.0016 67.6019C17.611 66.9137 18.1811 66.2216 18.7591 65.5294C19.337 64.8373 19.864 64.1334 20.4144 63.4176C20.8508 62.979 21.3709 62.6326 21.9438 62.3991C22.2236 62.2613 22.4953 62.1076 22.7577 61.9389C22.7818 61.9209 22.8092 61.9078 22.8384 61.9006C22.8676 61.8934 22.8981 61.8921 22.9278 61.8969C22.9575 61.9017 22.9859 61.9124 23.0114 61.9284C23.0369 61.9444 23.059 61.9654 23.0762 61.9901C23.1011 62.0288 23.1143 62.0739 23.1143 62.1199C23.1143 62.1659 23.1011 62.2109 23.0762 62.2496C22.9095 62.5112 22.7572 62.7816 22.62 63.0597C22.3795 63.6348 22.0252 64.1552 21.5782 64.5895Z" fill="#B79763"/>
<path fill-rule="evenodd" clip-rule="evenodd" d="M18.0548 60.6215C17.2684 61.0148 16.4821 61.4513 15.6957 61.8878C14.9094 62.3243 14.123 62.7766 13.3367 63.2603C13.2751 63.2871 13.206 63.2918 13.1413 63.2735C13.0767 63.2552 13.0204 63.2151 12.982 63.1599C12.9436 63.1048 12.9254 63.0381 12.9305 62.9711C12.9357 62.9041 12.9639 62.8409 13.0103 62.7923C13.7338 62.2221 14.4218 61.644 15.0981 61.0541C15.7743 60.4642 16.4348 59.8743 17.0953 59.2648C17.6001 58.9063 18.1727 58.6547 18.7781 58.5254C19.0887 58.4271 19.3954 58.3288 19.6588 58.2148C19.6854 58.2001 19.7148 58.1911 19.745 58.1884C19.7753 58.1857 19.8058 58.1892 19.8346 58.1988C19.8634 58.2084 19.8899 58.2239 19.9124 58.2442C19.935 58.2646 19.953 58.2893 19.9655 58.317C19.9798 58.3603 19.9819 58.4067 19.9715 58.4511C19.9611 58.4955 19.9386 58.5362 19.9066 58.5687C19.6964 58.7971 19.4995 59.0374 19.3168 59.2884C18.9897 59.8128 18.5605 60.2662 18.0548 60.6215Z" fill="#B79763"/>
<path fill-rule="evenodd" clip-rule="evenodd" d="M15.2745 56.1029C14.4174 56.3703 13.5721 56.6456 12.7268 56.9366C11.8815 57.2276 11.0322 57.5423 10.179 57.8805C10.1107 57.9018 10.0368 57.8956 9.97294 57.8633C9.90908 57.831 9.86026 57.7751 9.83692 57.7074C9.80969 57.6477 9.80507 57.5801 9.82387 57.5172C9.84267 57.4542 9.88361 57.4003 9.93915 57.3653C10.7452 56.9287 11.5118 56.4804 12.2982 56.0164C13.0845 55.5523 13.8198 55.0844 14.5786 54.6007C15.1377 54.3352 15.7451 54.1866 16.3636 54.1641C16.6731 54.1315 16.9803 54.0803 17.2836 54.0108C17.3125 54.0018 17.343 53.9988 17.3731 54.0019C17.4032 54.0051 17.4323 54.0142 17.4588 54.0289C17.4852 54.0436 17.5085 54.0635 17.527 54.0874C17.5456 54.1113 17.5591 54.1388 17.5668 54.168C17.5749 54.2131 17.5695 54.2595 17.5513 54.3015C17.5331 54.3435 17.5029 54.3792 17.4645 54.404C17.2183 54.592 16.9833 54.7942 16.7607 55.0096C16.3437 55.4701 15.8383 55.8419 15.2745 56.1029Z" fill="#B79763"/>
<path fill-rule="evenodd" clip-rule="evenodd" d="M13.3254 51.1676C12.4329 51.2855 11.5521 51.4075 10.6675 51.5608C9.78287 51.7142 8.89821 51.8598 7.99785 52.0407C7.92715 52.0498 7.85568 52.0311 7.79848 51.9885C7.74128 51.946 7.7028 51.8829 7.69116 51.8125C7.67384 51.7494 7.68031 51.6821 7.7093 51.6234C7.73829 51.5647 7.78773 51.5186 7.84839 51.494C8.72123 51.203 9.57049 50.8962 10.4079 50.5777C11.2454 50.2591 12.0711 49.9249 12.8968 49.5788C13.4949 49.4178 14.1194 49.379 14.7328 49.4648C15.0592 49.4648 15.3777 49.4923 15.6647 49.4648C15.6948 49.4604 15.7254 49.4621 15.7548 49.4699C15.7841 49.4777 15.8116 49.4915 15.8355 49.5102C15.8594 49.529 15.8793 49.5524 15.8938 49.5791C15.9084 49.6057 15.9174 49.6351 15.9202 49.6653C15.9185 49.7113 15.904 49.756 15.8783 49.7942C15.8526 49.8324 15.8168 49.8627 15.7748 49.8816C15.5047 50.0252 15.2422 50.1827 14.9885 50.3535C14.4966 50.7374 13.9302 51.0146 13.3254 51.1676Z" fill="#B79763"/>
<path fill-rule="evenodd" clip-rule="evenodd" d="M12.266 45.9765C11.3696 45.9371 10.4811 45.9057 9.58466 45.8899C8.68823 45.8742 7.7878 45.8899 6.86778 45.8899C6.79686 45.8859 6.7303 45.8546 6.68194 45.8025C6.63358 45.7505 6.60719 45.6817 6.60832 45.6107C6.60299 45.5453 6.62159 45.4801 6.66063 45.4273C6.69967 45.3745 6.75652 45.3377 6.82065 45.3236C7.72887 45.1899 8.61747 45.0366 9.49817 44.8675C10.3789 44.6984 11.2478 44.5135 12.1245 44.3208C12.7415 44.2629 13.3638 44.3325 13.9528 44.5253C14.2547 44.5998 14.5606 44.6576 14.8689 44.6984C14.899 44.6998 14.9286 44.7074 14.9557 44.7205C14.9829 44.7337 15.0071 44.7522 15.027 44.775C15.0468 44.7978 15.0618 44.8244 15.0711 44.8531C15.0804 44.8818 15.0839 44.9121 15.0812 44.9422C15.0726 44.9867 15.0513 45.0279 15.02 45.0607C14.9886 45.0934 14.9484 45.1165 14.9043 45.127C14.6079 45.222 14.3165 45.3323 14.0315 45.4574C13.4847 45.7493 12.8838 45.9259 12.266 45.9765Z" fill="#B79763"/>
<path fill-rule="evenodd" clip-rule="evenodd" d="M72.8711 44.3207C73.7479 44.5134 74.6167 44.714 75.4974 44.8674C76.3781 45.0208 77.2667 45.1898 78.175 45.3235C78.2382 45.3432 78.2929 45.3838 78.3299 45.4388C78.3669 45.4937 78.3842 45.5596 78.3787 45.6256C78.3732 45.6917 78.3453 45.7538 78.2997 45.8019C78.254 45.8499 78.1934 45.881 78.1277 45.8899C77.2077 45.8663 76.3074 45.8663 75.411 45.8899C74.5145 45.9135 73.6259 45.9371 72.7295 45.9764C72.1123 45.9283 71.5115 45.7543 70.9642 45.4651C70.6791 45.34 70.3878 45.2298 70.0913 45.1348C70.0614 45.1284 70.0332 45.1159 70.0083 45.0982C69.9834 45.0805 69.9623 45.0579 69.9465 45.0317C69.9306 45.0056 69.9203 44.9765 69.9161 44.9462C69.912 44.9159 69.9141 44.885 69.9223 44.8556C69.9397 44.8138 69.9684 44.7776 70.0052 44.7512C70.042 44.7248 70.0855 44.7092 70.1307 44.7061C70.438 44.6655 70.7426 44.6064 71.0429 44.5291C71.6916 44.3758 72.3717 44.2028 72.8711 44.3207Z" fill="#B79763"/>
<path fill-rule="evenodd" clip-rule="evenodd" d="M72.1 49.5669C72.9296 49.9129 73.7512 50.2472 74.5887 50.5658C75.4261 50.8843 76.2754 51.191 77.1482 51.482C77.1808 51.4954 77.2104 51.5151 77.2354 51.5399C77.2604 51.5648 77.2802 51.5943 77.2938 51.6268C77.3073 51.6594 77.3142 51.6942 77.3142 51.7294C77.3142 51.7646 77.3073 51.7995 77.2938 51.8321C77.2787 51.8961 77.2398 51.9521 77.1851 51.9886C77.1304 52.0251 77.0638 52.0394 76.9989 52.0287C76.0998 51.8478 75.2099 51.6879 74.3292 51.5489C73.4446 51.4073 72.5639 51.2815 71.6714 51.1557C71.072 51.0007 70.5112 50.7235 70.024 50.3416C69.7643 50.1681 69.4952 50.0093 69.218 49.8657C69.1902 49.8538 69.1651 49.8365 69.1442 49.8146C69.1234 49.7928 69.1071 49.767 69.0964 49.7387C69.0858 49.7104 69.0809 49.6802 69.0822 49.65C69.0835 49.6198 69.0909 49.5902 69.1039 49.5629C69.1278 49.5241 69.1625 49.4931 69.2037 49.4735C69.2448 49.454 69.2908 49.4468 69.3359 49.4528C69.645 49.4702 69.9547 49.4702 70.2638 49.4528C70.8773 49.3689 71.5015 49.4077 72.1 49.5669Z" fill="#B79763"/>
<path fill-rule="evenodd" clip-rule="evenodd" d="M70.4058 54.6008C71.1607 55.0846 71.9156 55.5565 72.6863 56.0166C73.4569 56.4767 74.2354 56.9289 75.0453 57.3654C75.0778 57.3847 75.106 57.4104 75.1281 57.441C75.1503 57.4716 75.1659 57.5064 75.174 57.5433C75.1821 57.5801 75.1825 57.6183 75.1753 57.6554C75.168 57.6925 75.1532 57.7276 75.1318 57.7587C75.1042 57.8182 75.0557 57.8656 74.9956 57.8917C74.9354 57.9178 74.8677 57.9208 74.8054 57.9003C73.9522 57.5621 73.1069 57.2514 72.2577 56.9565C71.4084 56.6615 70.567 56.3902 69.7099 56.1228C69.1476 55.8614 68.6435 55.4896 68.2276 55.0295C68.0046 54.813 67.7682 54.6108 67.5199 54.4238C67.4943 54.4076 67.4722 54.3863 67.4551 54.3612C67.438 54.3361 67.4261 54.3078 67.4203 54.278C67.4144 54.2483 67.4146 54.2176 67.4209 54.1879C67.4273 54.1582 67.4395 54.1301 67.457 54.1053C67.4871 54.0709 67.5263 54.0456 67.5701 54.0324C67.6139 54.0191 67.6605 54.0185 67.7047 54.0306C68.008 54.1002 68.3153 54.1514 68.6247 54.184C69.2405 54.2009 69.8465 54.3427 70.4058 54.6008Z" fill="#B79763"/>
<path fill-rule="evenodd" clip-rule="evenodd" d="M67.8937 59.2649C68.5542 59.8705 69.2147 60.4682 69.891 61.0542C70.5672 61.6402 71.2553 62.234 71.9748 62.7924C72.0025 62.8165 72.0253 62.8458 72.0415 62.8787C72.0578 62.9116 72.0672 62.9474 72.0694 62.9841C72.0716 63.0207 72.0665 63.0575 72.0543 63.0921C72.0421 63.1267 72.0231 63.1585 71.9984 63.1857C71.9621 63.2409 71.9063 63.2804 71.8422 63.2965C71.7781 63.3125 71.7104 63.3038 71.6524 63.2722C70.866 62.7885 70.0797 62.3362 69.2933 61.8997C68.507 61.4632 67.7206 61.0464 66.9343 60.6334C66.4257 60.2789 65.9938 59.8255 65.6643 59.3003C65.4814 59.0495 65.2845 58.8092 65.0746 58.5806C65.0528 58.5594 65.0356 58.5339 65.0238 58.5059C65.012 58.4779 65.0059 58.4478 65.0059 58.4174C65.0059 58.387 65.012 58.3568 65.0238 58.3288C65.0356 58.3008 65.0528 58.2754 65.0746 58.2542C65.1102 58.2258 65.1532 58.2082 65.1984 58.2033C65.2437 58.1984 65.2894 58.2065 65.3302 58.2267C65.6179 58.3449 65.912 58.4474 66.2109 58.5334C66.8149 58.6629 67.387 58.9115 67.8937 59.2649Z" fill="#B79763"/>
<path fill-rule="evenodd" clip-rule="evenodd" d="M64.5949 63.4176C65.1414 64.1333 65.684 64.8333 66.2462 65.5255C66.8084 66.2176 67.3943 66.9137 68.0037 67.6019C68.0267 67.6305 68.044 67.6634 68.0543 67.6987C68.0646 67.734 68.0678 67.771 68.0638 67.8075C68.0597 67.844 68.0486 67.8794 68.0308 67.9116C68.0131 67.9438 67.9892 67.9722 67.9605 67.9952C67.9106 68.0378 67.8472 68.0613 67.7816 68.0613C67.716 68.0613 67.6526 68.0378 67.6027 67.9952C66.9147 67.3856 66.2266 66.8154 65.5307 66.2373C64.8348 65.6592 64.1388 65.1283 63.4232 64.5817C62.9822 64.1465 62.6343 63.626 62.401 63.0519C62.2629 62.7729 62.1107 62.5012 61.9449 62.2378C61.9257 62.2142 61.9117 62.1867 61.9038 62.1573C61.896 62.1279 61.8944 62.0971 61.8992 62.0671C61.904 62.037 61.9152 62.0083 61.9319 61.9828C61.9485 61.9573 61.9704 61.9357 61.9961 61.9193C62.034 61.8942 62.0784 61.8809 62.1238 61.8809C62.1693 61.8809 62.2137 61.8942 62.2516 61.9193C62.5136 62.0852 62.7839 62.2374 63.0616 62.3754C63.6379 62.6155 64.1595 62.97 64.5949 63.4176Z" fill="#B79763"/>
<path fill-rule="evenodd" clip-rule="evenodd" d="M60.6234 66.9413C61.0362 67.7279 61.4529 68.5144 61.8894 69.3009C62.3258 70.0874 62.7779 70.874 63.2615 71.6605C63.2896 71.7217 63.2951 71.7908 63.2774 71.8557C63.2596 71.9207 63.2196 71.9773 63.1643 72.0157C63.109 72.0542 63.0421 72.0719 62.975 72.0659C62.908 72.0599 62.8451 72.0306 62.7975 71.983C62.2235 71.2633 61.6456 70.5711 61.0597 69.8986C60.4739 69.2262 59.8802 68.5616 59.2668 67.9009C58.9092 67.3956 58.6578 66.823 58.5277 66.2177C58.4393 65.9189 58.3356 65.6249 58.2171 65.3368C58.2031 65.3101 58.1946 65.2808 58.1921 65.2507C58.1897 65.2206 58.1933 65.1903 58.2029 65.1617C58.2124 65.133 58.2276 65.1066 58.2476 65.0839C58.2676 65.0613 58.2921 65.043 58.3193 65.03C58.3626 65.0157 58.409 65.0137 58.4534 65.0241C58.4978 65.0345 58.5385 65.057 58.5709 65.089C58.8003 65.2981 59.0405 65.495 59.2905 65.6789C59.8148 66.0061 60.2681 66.4355 60.6234 66.9413Z" fill="#B79763"/>
<path fill-rule="evenodd" clip-rule="evenodd" d="M56.1051 69.7218C56.3724 70.5791 56.6477 71.4246 56.9426 72.2701C57.2375 73.1157 57.5441 73.9612 57.8862 74.8185C57.9071 74.8868 57.9004 74.9607 57.8673 75.024C57.8341 75.0873 57.7773 75.135 57.7093 75.1567C57.6507 75.1849 57.5838 75.1905 57.5214 75.1723C57.459 75.1542 57.4055 75.1136 57.3712 75.0584C56.9308 74.2718 56.4825 73.4853 56.0225 72.6988C55.5625 71.9123 55.0868 71.1769 54.6032 70.4218C54.3401 69.8618 54.1917 69.2547 54.1668 68.6364C54.1338 68.3271 54.084 68.0199 54.0174 67.7162C54.0078 67.6873 54.0041 67.6567 54.0067 67.6264C54.0092 67.596 54.0179 67.5665 54.0323 67.5396C54.0466 67.5127 54.0664 67.4891 54.0902 67.4701C54.114 67.4511 54.1413 67.4372 54.1707 67.4291C54.2161 67.4224 54.2624 67.4288 54.3042 67.4476C54.346 67.4664 54.3816 67.4968 54.4066 67.5352C54.5971 67.7806 54.8006 68.0156 55.0161 68.2392C55.475 68.6552 55.8453 69.1595 56.1051 69.7218Z" fill="#B79763"/>
<path fill-rule="evenodd" clip-rule="evenodd" d="M51.1706 71.6722C51.2886 72.561 51.4105 73.4458 51.5638 74.3267C51.7171 75.2076 51.8626 76.1004 52.0474 77.0009C52.0554 77.0721 52.0357 77.1436 51.9926 77.2006C51.9494 77.2577 51.886 77.296 51.8154 77.3077C51.7523 77.3241 51.6853 77.3173 51.6269 77.2884C51.5684 77.2595 51.5222 77.2105 51.4969 77.1504C51.2059 76.2773 50.8993 75.4279 50.5809 74.5902C50.2624 73.7526 49.9282 72.9267 49.5861 72.1009C49.4219 71.5032 49.3818 70.8781 49.4682 70.2643C49.4856 69.9539 49.4856 69.6427 49.4682 69.3323C49.4643 69.3023 49.4665 69.2719 49.4745 69.2427C49.4825 69.2136 49.4962 69.1863 49.5149 69.1625C49.5336 69.1387 49.5568 69.1189 49.5831 69.1042C49.6095 69.0894 49.6386 69.0801 49.6687 69.0767C49.7147 69.0784 49.7593 69.093 49.7975 69.1187C49.8357 69.1444 49.866 69.1802 49.8849 69.2222C50.0284 69.4932 50.1873 69.7558 50.3607 70.0087C50.7419 70.5017 51.0176 71.068 51.1706 71.6722Z" fill="#B79763"/>
<path fill-rule="evenodd" clip-rule="evenodd" d="M45.9769 72.7185C45.9336 73.6152 45.9021 74.5039 45.8863 75.4006C45.8706 76.2972 45.8863 77.1938 45.8863 78.1141C45.8823 78.1854 45.8512 78.2524 45.7993 78.3014C45.7474 78.3505 45.6786 78.3777 45.6072 78.3776C45.5418 78.3829 45.4766 78.3643 45.4239 78.3253C45.3711 78.2862 45.3343 78.2293 45.3202 78.1652C45.1865 77.2568 45.0332 76.368 44.8642 75.4871C44.6951 74.6062 44.5142 73.7371 44.3176 72.8601C44.2616 72.243 44.3312 71.6209 44.522 71.0314C44.5961 70.7293 44.654 70.4234 44.6951 70.1151C44.6966 70.085 44.7041 70.0554 44.7173 70.0282C44.7305 70.0011 44.749 69.9768 44.7717 69.957C44.7945 69.9372 44.821 69.9221 44.8498 69.9128C44.8785 69.9035 44.9088 69.9001 44.9388 69.9027C44.9839 69.9111 45.0257 69.9322 45.0591 69.9636C45.0926 69.995 45.1163 70.0353 45.1275 70.0797C45.2194 70.3768 45.3284 70.6683 45.4539 70.9528C45.7451 71.5002 45.923 72.1008 45.9769 72.7185Z" fill="#B79763"/>
<path fill-rule="evenodd" clip-rule="evenodd" d="M44.3259 12.1087C44.5225 11.2356 44.7047 10.3613 44.8725 9.48563C45.0415 8.60472 45.1948 7.71594 45.3285 6.80357C45.3454 6.73439 45.3884 6.67445 45.4485 6.63632C45.5086 6.59818 45.5812 6.58483 45.6509 6.59906C45.716 6.60391 45.7769 6.63273 45.822 6.67995C45.867 6.72718 45.8929 6.78946 45.8946 6.85469C45.8711 7.77493 45.8711 8.67549 45.8946 9.57214C45.9182 10.4688 45.9418 11.3576 45.9851 12.2542C45.9335 12.8701 45.7584 13.4693 45.4701 14.016C45.3443 14.3188 45.2224 14.6177 45.1398 14.893C45.1339 14.9228 45.1219 14.9509 45.1046 14.9758C45.0872 15.0007 45.0649 15.0218 45.0391 15.0376C45.0133 15.0535 44.9845 15.0639 44.9544 15.0681C44.9244 15.0723 44.8938 15.0703 44.8646 15.0621C44.8218 15.0457 44.7845 15.0173 44.7574 14.9803C44.7302 14.9434 44.7142 14.8994 44.7112 14.8537C44.67 14.5453 44.6123 14.2395 44.5382 13.9374C44.3443 13.3485 44.272 12.7263 44.3259 12.1087Z" fill="#B79763"/>
<path fill-rule="evenodd" clip-rule="evenodd" d="M49.5672 12.8832C49.9093 12.0535 50.2435 11.2276 50.562 10.3939C50.8804 9.56018 51.1872 8.7068 51.4781 7.83375C51.5082 7.7737 51.5581 7.7259 51.6194 7.69847C51.6807 7.67104 51.7495 7.66566 51.8144 7.68325C51.8792 7.70085 51.9359 7.74034 51.9749 7.79501C52.014 7.84968 52.0329 7.91617 52.0285 7.98319C51.8437 8.88377 51.6865 9.7686 51.5449 10.6534C51.4034 11.5383 51.2815 12.4192 51.1517 13.3119C50.9961 13.9111 50.719 14.4719 50.3378 14.9597C50.1648 15.231 49.9919 15.5063 49.8621 15.7462C49.8515 15.7746 49.8351 15.8004 49.8138 15.822C49.7926 15.8437 49.7671 15.8606 49.739 15.8717C49.7108 15.8828 49.6806 15.8879 49.6504 15.8866C49.6201 15.8853 49.5904 15.8777 49.5633 15.8642C49.5241 15.8404 49.4926 15.806 49.4724 15.7649C49.4522 15.7237 49.4441 15.6777 49.4493 15.6322C49.4667 15.3231 49.4667 15.0132 49.4493 14.7041C49.3648 14.0954 49.405 13.4759 49.5672 12.8832Z" fill="#B79763"/>
<path fill-rule="evenodd" clip-rule="evenodd" d="M54.6041 14.5625C55.0877 13.8035 55.5634 13.0484 56.0234 12.2816C56.4835 11.5147 56.9317 10.7321 57.3721 9.92198C57.4124 9.86852 57.4698 9.83059 57.5348 9.81459C57.5998 9.79859 57.6683 9.80549 57.7288 9.83413C57.7893 9.86276 57.8381 9.91139 57.8669 9.97181C57.8957 10.0322 57.9029 10.1007 57.8871 10.1658C57.545 11.0192 57.2384 11.8647 56.9435 12.7141C56.6486 13.5636 56.3733 14.4052 56.106 15.2625C55.8445 15.8237 55.4728 16.3266 55.0131 16.7412C54.7976 16.9651 54.5954 17.2015 54.4076 17.449C54.3917 17.4751 54.3706 17.4976 54.3455 17.5151C54.3205 17.5326 54.2921 17.5447 54.2621 17.5506C54.2322 17.5565 54.2013 17.5561 54.1715 17.5494C54.1417 17.5428 54.1137 17.53 54.0891 17.512C54.0545 17.482 54.0294 17.4426 54.0169 17.3986C54.0043 17.3546 54.0048 17.3079 54.0183 17.2642C54.0846 16.9617 54.1344 16.6558 54.1677 16.3479C54.192 15.7295 54.3405 15.1223 54.6041 14.5625Z" fill="#B79763"/>
<path fill-rule="evenodd" clip-rule="evenodd" d="M59.2678 17.0913C59.8759 16.4306 60.4736 15.7647 61.0607 15.0935C61.6465 14.4171 62.2402 13.7289 62.7985 13.0053C62.8508 12.9534 62.9214 12.9243 62.9951 12.9243C63.0687 12.9243 63.1394 12.9534 63.1917 13.0053C63.2455 13.0428 63.2836 13.0988 63.2989 13.1626C63.3141 13.2264 63.3054 13.2936 63.2743 13.3514C62.7907 14.1379 62.3386 14.9244 61.9021 15.7109C61.4657 16.4975 61.0489 17.284 60.636 18.0705C60.2816 18.5792 59.8283 19.0113 59.3032 19.3408C59.0507 19.5213 58.8103 19.7184 58.5837 19.9307C58.5624 19.9524 58.5371 19.9697 58.5091 19.9815C58.4811 19.9933 58.4509 19.9994 58.4205 19.9994C58.3901 19.9994 58.36 19.9933 58.332 19.9815C58.304 19.9697 58.2787 19.9524 58.2574 19.9307C58.2291 19.8951 58.2113 19.8521 58.2065 19.8068C58.2016 19.7616 58.2097 19.7159 58.2299 19.675C58.3484 19.3882 58.4521 19.0955 58.5405 18.7981C58.6631 18.1852 58.9106 17.6042 59.2678 17.0913Z" fill="#B79763"/>
<path fill-rule="evenodd" clip-rule="evenodd" d="M63.4231 20.3908C64.1347 19.8441 64.8346 19.3014 65.5305 18.7351C66.2264 18.1688 66.9145 17.5907 67.6025 16.9812C67.6574 16.9487 67.7214 16.9354 67.7846 16.9434C67.8478 16.9514 67.9065 16.9802 67.9516 17.0252C67.9966 17.0703 68.0255 17.1291 68.0334 17.1923C68.0414 17.2555 68.0282 17.3196 67.9957 17.3744C67.3863 18.0627 66.8161 18.7508 66.2381 19.4469C65.6602 20.143 65.1333 20.8391 64.5868 21.5548C64.1496 21.9952 63.6281 22.3429 63.0535 22.5773C62.7746 22.7154 62.5029 22.8676 62.2396 23.0335C62.2157 23.0521 62.1883 23.0656 62.159 23.0732C62.1297 23.0807 62.0991 23.0821 62.0692 23.0773C62.0393 23.0725 62.0108 23.0616 61.9853 23.0453C61.9598 23.029 61.9379 23.0075 61.9211 22.9824C61.8961 22.9445 61.8828 22.9 61.8828 22.8546C61.8828 22.8091 61.8961 22.7647 61.9211 22.7268C62.087 22.4647 62.2393 22.1943 62.3773 21.9166C62.6195 21.3427 62.9752 20.8237 63.4231 20.3908Z" fill="#B79763"/>
<path fill-rule="evenodd" clip-rule="evenodd" d="M66.9418 24.347C67.7282 23.9537 68.5145 23.5172 69.3009 23.0807C70.0872 22.6441 70.8735 22.1919 71.6599 21.7081C71.7213 21.6778 71.7916 21.6704 71.8579 21.6874C71.9243 21.7043 71.9824 21.7444 72.0218 21.8004C72.0612 21.8564 72.0793 21.9247 72.0727 21.9929C72.0662 22.0611 72.0356 22.1246 71.9863 22.1722C71.2628 22.7464 70.5747 23.3245 69.8985 23.9104C69.2222 24.4964 68.5617 25.0902 67.9011 25.7037C67.3964 26.0622 66.8239 26.3138 66.2184 26.4431C65.9078 26.5414 65.6012 26.6397 65.3377 26.7537C65.3108 26.7676 65.2812 26.7759 65.251 26.7781C65.2207 26.7803 65.1903 26.7763 65.1616 26.7664C65.1329 26.7564 65.1066 26.7408 65.0841 26.7204C65.0617 26.6999 65.0436 26.6752 65.031 26.6475C65.0173 26.6039 65.0158 26.5572 65.0269 26.5128C65.038 26.4684 65.0612 26.4279 65.0939 26.3959C65.3025 26.1671 65.4981 25.9269 65.6797 25.6762C66.0069 25.1528 66.4361 24.7007 66.9418 24.347Z" fill="#B79763"/>
<path fill-rule="evenodd" clip-rule="evenodd" d="M69.7217 28.8814C70.5788 28.6139 71.4241 28.3387 72.2694 28.0437C73.1148 27.7488 73.964 27.4381 74.8172 27.0999C74.8855 27.0786 74.9594 27.0847 75.0233 27.117C75.0871 27.1493 75.136 27.2052 75.1593 27.2729C75.1874 27.3325 75.1925 27.4004 75.1736 27.4635C75.1547 27.5267 75.1133 27.5806 75.0571 27.615C74.2707 28.0555 73.4844 28.5038 72.698 28.9639C71.9117 29.4241 71.1725 29.896 70.4176 30.3836C69.8582 30.6477 69.2508 30.7949 68.6326 30.8162C68.3102 30.8595 67.9917 30.9027 67.7125 30.9696C67.6839 30.9792 67.6536 30.9828 67.6236 30.9802C67.5935 30.9776 67.5643 30.9688 67.5377 30.9544C67.5112 30.94 67.4878 30.9204 67.4692 30.8966C67.4506 30.8728 67.4371 30.8454 67.4295 30.8162C67.4213 30.7712 67.4267 30.7247 67.4449 30.6828C67.4631 30.6408 67.4933 30.6051 67.5317 30.5802C67.7778 30.3907 68.0128 30.1872 68.2355 29.9707C68.6526 29.5113 69.1581 29.1408 69.7217 28.8814Z" fill="#B79763"/>
<path fill-rule="evenodd" clip-rule="evenodd" d="M71.6711 33.8127C72.5636 33.6987 73.4443 33.5768 74.329 33.4195C75.2136 33.2622 76.0983 33.1206 76.9986 32.9358C77.0699 32.9268 77.1419 32.946 77.1992 32.9893C77.2565 33.0327 77.2946 33.0967 77.3053 33.1678C77.3227 33.2309 77.3162 33.2982 77.2872 33.3569C77.2582 33.4157 77.2087 33.4617 77.148 33.4863C76.2752 33.7773 75.4259 34.0841 74.5884 34.4026C73.751 34.7212 72.9293 35.0515 72.0997 35.3976C71.5019 35.5601 70.8773 35.6002 70.2635 35.5156C69.9532 35.4981 69.6421 35.4981 69.3318 35.5156C69.3016 35.52 69.2708 35.5181 69.2414 35.51C69.2121 35.5019 69.1848 35.4878 69.1611 35.4686C69.1374 35.4494 69.118 35.4254 69.1041 35.3983C69.0901 35.3712 69.0819 35.3415 69.0801 35.3111C69.0798 35.2656 69.0932 35.2211 69.1184 35.1832C69.1436 35.1454 69.1796 35.116 69.2217 35.0987C69.4926 34.9552 69.7552 34.7963 70.008 34.6229C70.5026 34.2442 71.0681 33.9687 71.6711 33.8127Z" fill="#B79763"/>
<path fill-rule="evenodd" clip-rule="evenodd" d="M72.73 39.0117C73.6265 39.055 74.5151 39.0864 75.4115 39.1022C76.3079 39.1179 77.2083 39.1022 78.1283 39.1022C78.1939 39.1111 78.2546 39.1421 78.3002 39.1902C78.3458 39.2382 78.3737 39.3004 78.3792 39.3664C78.3847 39.4324 78.3675 39.4983 78.3304 39.5532C78.2934 39.6082 78.2388 39.6488 78.1755 39.6684C77.2673 39.8021 76.3787 39.9555 75.498 40.1207C74.6173 40.2859 73.7484 40.4746 72.8716 40.6713C72.2546 40.7273 71.6328 40.6577 71.0434 40.4668C70.7418 40.3908 70.4358 40.333 70.1273 40.2938C70.0971 40.2923 70.0676 40.2847 70.0404 40.2715C70.0132 40.2584 69.989 40.2398 69.9692 40.217C69.9494 40.1943 69.9343 40.1678 69.925 40.139C69.9157 40.1103 69.9123 40.08 69.9149 40.0499C69.9233 40.0049 69.9444 39.9631 69.9758 39.9296C70.0072 39.8962 70.0474 39.8724 70.0919 39.8611C70.3889 39.7693 70.6803 39.6603 70.9647 39.5347C71.512 39.2435 72.1124 39.0656 72.73 39.0117Z" fill="#B79763"/>
</g>
<path d="M43 53C43 53 52 47 52 40C52 37.6131 51.0518 35.3239 49.364 33.636C47.6761 31.9482 45.3869 31 43 31C40.6131 31 38.3239 31.9482 36.636 33.636C34.9482 35.3239 34 37.6131 34 40C34 47 43 53 43 53Z" stroke="white" stroke-width="2" stroke-linecap="round" stroke-linejoin="round"/>
<path d="M43 43C44.6569 43 46 41.6569 46 40C46 38.3431 44.6569 37 43 37C41.3431 37 40 38.3431 40 40C40 41.6569 41.3431 43 43 43Z" stroke="white" stroke-width="2" stroke-linecap="round" stroke-linejoin="round"/>
<defs>
<clipPath id="clip0_517_14550">
<rect width="85" height="85" fill="white"/>
</clipPath>
</defs>
</svg>
