<svg width="20" height="32" viewBox="0 0 20 32" fill="none" xmlns="http://www.w3.org/2000/svg">
<path opacity="0.5" d="M17.7051 15.7637C18.2891 16.1699 18.7122 16.5719 18.9746 16.9697C19.237 17.3675 19.3682 17.8923 19.3682 18.5439C19.3682 19.2549 19.1608 19.8389 18.7461 20.2959C18.3314 20.7529 17.5993 21.0999 16.5498 21.3369L13.96 21.9082C13.0544 22.1113 12.3604 22.306 11.8779 22.4922C11.387 22.6699 10.9977 22.945 10.71 23.3174C10.4137 23.6813 10.2656 24.1891 10.2656 24.8408L10.2656 27.3164L16.2451 27.3164C16.8968 27.3164 17.3708 27.2656 17.667 27.1641C17.9632 27.054 18.1663 26.8594 18.2764 26.5801C18.3864 26.2923 18.4541 25.8353 18.4795 25.209L19 25.209C18.9492 26.0046 18.9238 27.1048 18.9238 28.5098C18.9238 29.9993 18.9492 31.1081 19 31.8359L18.4795 31.8359C18.4541 31.2096 18.3864 30.7568 18.2764 30.4775C18.1663 30.1898 17.9632 29.9951 17.667 29.8936C17.3708 29.7835 16.8968 29.7285 16.2451 29.7285L3.34668 29.7285C2.69499 29.7285 2.22103 29.7835 1.9248 29.8936C1.62858 29.9951 1.42546 30.1898 1.31543 30.4775C1.2054 30.7568 1.1377 31.2096 1.1123 31.8359L0.591797 31.8359C0.642578 31.1081 0.667969 30.0501 0.667969 28.6621C0.667969 27.985 0.659505 27.2402 0.642578 26.4277C0.625651 25.6068 0.617187 25.0439 0.617187 24.7393C0.617187 23.3851 0.81608 22.2383 1.21387 21.2988C1.60319 20.3594 2.14062 19.6527 2.82617 19.1787C3.50325 18.7048 4.27344 18.4678 5.13672 18.4678C5.8138 18.4678 6.49935 18.6286 7.19336 18.9502C7.87891 19.2633 8.49674 19.8008 9.04687 20.5625C9.58854 21.3158 9.95247 22.3018 10.1387 23.5205L10.1895 23.2031C10.3164 22.4245 10.5111 21.8024 10.7734 21.3369C11.0273 20.8714 11.3786 20.5033 11.8271 20.2324C12.2757 19.9531 12.8724 19.7288 13.6172 19.5596L16.2705 18.9121C16.8037 18.8021 17.2227 18.6921 17.5273 18.582C17.8236 18.4635 18.0436 18.3281 18.1875 18.1758C18.3314 18.015 18.4033 17.8161 18.4033 17.5791C18.4033 17.2913 18.3314 17.0544 18.1875 16.8682C18.0352 16.682 17.777 16.445 17.4131 16.1572L17.7051 15.7637ZM9.74512 25.5645C9.74512 24.3965 9.55892 23.4824 9.18652 22.8223C8.81413 22.1621 8.31478 21.7051 7.68848 21.4512C7.06217 21.1973 6.30892 21.0703 5.42871 21.0703C4.00684 21.0703 2.93197 21.4089 2.2041 22.0859C1.47624 22.763 1.1123 23.8633 1.1123 25.3867C1.1123 25.9284 1.17578 26.3346 1.30273 26.6055C1.42122 26.8763 1.63704 27.0625 1.9502 27.1641C2.26335 27.2656 2.72884 27.3164 3.34668 27.3164L9.74512 27.3164L9.74512 25.5645ZM6.05078 15.3828C5.50065 15.332 4.78971 15.3066 3.91797 15.3066C2.90234 15.3066 1.79362 15.3701 0.591796 15.4971C0.642577 14.0583 0.667968 11.6123 0.667968 8.15918C0.667968 4.73144 0.642577 2.29818 0.591795 0.859375C1.82747 0.977864 2.9362 1.03711 3.91797 1.03711C4.78971 1.03711 5.50065 1.01172 6.05078 0.960937L6.05078 1.55762C4.70508 1.69303 3.71061 1.86654 3.06738 2.07812C2.41569 2.28125 1.94173 2.64518 1.64551 3.16992C1.34082 3.6862 1.18848 4.48177 1.18848 5.55664L1.18848 6.96582L15.9785 6.96582C16.6979 6.96582 17.2269 6.89811 17.5654 6.76269C17.8955 6.62728 18.124 6.38183 18.251 6.02637C18.3779 5.6709 18.4541 5.10807 18.4795 4.33789L19 4.33789C18.9492 5.25195 18.9238 6.52572 18.9238 8.15918C18.9238 9.8942 18.9492 11.1764 19 12.0059L18.4795 12.0059C18.4541 11.2357 18.3779 10.6729 18.251 10.3174C18.124 9.96191 17.8955 9.71647 17.5654 9.58105C17.2269 9.44564 16.6979 9.37793 15.9785 9.37793L1.18848 9.37793L1.18848 10.7871C1.18848 11.862 1.34082 12.6618 1.64551 13.1865C1.94173 13.7028 2.41569 14.0667 3.06738 14.2783C3.71061 14.4814 4.70508 14.6507 6.05078 14.7861L6.05078 15.3828Z" fill="#B79763"/>
</svg>
