<svg width="140" height="140" viewBox="0 0 140 140" fill="none" xmlns="http://www.w3.org/2000/svg">
<path d="M32.7677 57.327L39.5798 51.2086C39.9266 50.8948 40.2734 50.5397 40.6202 50.1434C40.967 49.7471 41.1404 49.2847 41.1404 48.7562C41.1404 48.1617 40.9257 47.6993 40.4963 47.369C40.067 47.0223 39.5633 46.8489 38.9853 46.8489C38.2917 46.8489 37.7467 47.0635 37.3504 47.4929C36.9706 47.9223 36.7559 48.4507 36.7063 49.0783L32.9907 48.8058C33.0402 47.8975 33.2301 47.1131 33.5604 46.4525C33.8907 45.7754 34.3283 45.214 34.8733 44.7681C35.4182 44.3222 36.054 43.9919 36.7807 43.7772C37.5238 43.546 38.3247 43.4304 39.1835 43.4304C39.9761 43.4304 40.7193 43.546 41.4129 43.7772C42.1064 43.9919 42.7092 44.3222 43.2211 44.7681C43.7331 45.1974 44.1294 45.7424 44.4102 46.403C44.7074 47.0635 44.856 47.8314 44.856 48.7067C44.856 49.2682 44.7982 49.7801 44.6826 50.2425C44.567 50.6884 44.4019 51.1012 44.1872 51.481C43.989 51.8444 43.7496 52.1829 43.4689 52.4967C43.1881 52.8104 42.8826 53.1159 42.5523 53.4132L37.2265 57.9958H45.0047V61.2656H32.7677V57.327ZM47.0309 52.4967C47.0309 51.4563 47.1217 50.3994 47.3033 49.326C47.5015 48.2525 47.84 47.2782 48.319 46.403C48.8144 45.5277 49.4832 44.8176 50.3254 44.2727C51.1676 43.7112 52.241 43.4304 53.5457 43.4304C54.8503 43.4304 55.9237 43.7112 56.7659 44.2727C57.6081 44.8176 58.2687 45.5277 58.7476 46.403C59.243 47.2782 59.5815 48.2525 59.7632 49.326C59.9614 50.3994 60.0604 51.4563 60.0604 52.4967C60.0604 53.537 59.9614 54.5939 59.7632 55.6674C59.5815 56.7408 59.243 57.7151 58.7476 58.5903C58.2687 59.4656 57.6081 60.184 56.7659 60.7454C55.9237 61.2904 54.8503 61.5629 53.5457 61.5629C52.241 61.5629 51.1676 61.2904 50.3254 60.7454C49.4832 60.184 48.8144 59.4656 48.319 58.5903C47.84 57.7151 47.5015 56.7408 47.3033 55.6674C47.1217 54.5939 47.0309 53.537 47.0309 52.4967ZM50.7465 52.4967C50.7465 52.9591 50.763 53.5123 50.7961 54.1563C50.8456 54.8004 50.9612 55.4196 51.1429 56.0142C51.3245 56.6087 51.597 57.1123 51.9603 57.5252C52.3401 57.938 52.8686 58.1445 53.5457 58.1445C54.2062 58.1445 54.7264 57.938 55.1062 57.5252C55.4861 57.1123 55.7668 56.6087 55.9484 56.0142C56.1301 55.4196 56.2374 54.8004 56.2705 54.1563C56.32 53.5123 56.3448 52.9591 56.3448 52.4967C56.3448 52.0343 56.32 51.481 56.2705 50.837C56.2374 50.193 56.1301 49.5737 55.9484 48.9792C55.7668 48.3847 55.4861 47.881 55.1062 47.4681C54.7264 47.0553 54.2062 46.8489 53.5457 46.8489C52.8686 46.8489 52.3401 47.0553 51.9603 47.4681C51.597 47.881 51.3245 48.3847 51.1429 48.9792C50.9612 49.5737 50.8456 50.193 50.7961 50.837C50.763 51.481 50.7465 52.0343 50.7465 52.4967ZM70.1347 43.7277H73.999V57.6986H81.1579V61.2656H70.1347V43.7277ZM89.0625 43.7277H92.258L99.8875 61.2656H95.5278L94.0168 57.55H87.2047L85.7432 61.2656H81.4826L89.0625 43.7277ZM90.5488 48.8305L88.4185 54.2802H92.7039L90.5488 48.8305ZM102.771 47.1461H97.7675V43.7277H111.639V47.1461H106.636V61.2656H102.771V47.1461Z" fill="#292827"/>
<path d="M29.2396 70.6474H31.5458C32.1043 70.6474 32.6332 70.7098 33.1325 70.8346C33.6384 70.9595 34.0787 71.1631 34.4532 71.4457C34.8277 71.7216 35.1233 72.083 35.3401 72.5297C35.5635 72.9765 35.6752 73.5186 35.6752 74.1559C35.6752 74.7209 35.5668 75.2203 35.35 75.6539C35.1398 76.081 34.8539 76.4423 34.4926 76.738C34.1312 77.0271 33.714 77.2472 33.2409 77.3983C32.7679 77.5494 32.2718 77.625 31.7528 77.625H29.2396V70.6474ZM30.7771 76.2058H31.5754C31.9302 76.2058 32.2587 76.1697 32.5609 76.0974C32.8697 76.0251 33.1358 75.9069 33.3592 75.7426C33.5826 75.5718 33.7567 75.3517 33.8815 75.0823C34.013 74.8063 34.0787 74.4713 34.0787 74.077C34.0787 73.7354 34.013 73.4397 33.8815 73.1901C33.7567 72.9338 33.5859 72.7236 33.3691 72.5593C33.1522 72.3951 32.896 72.2735 32.6003 72.1947C32.3112 72.1092 32.0057 72.0665 31.6838 72.0665H30.7771V76.2058ZM36.3433 74.1362C36.3433 73.5777 36.4353 73.0718 36.6193 72.6184C36.8098 72.1651 37.0726 71.7807 37.4077 71.4654C37.7428 71.1434 38.1403 70.897 38.6002 70.7262C39.0601 70.5554 39.5628 70.47 40.1081 70.47C40.6534 70.47 41.1561 70.5554 41.616 70.7262C42.0759 70.897 42.4734 71.1434 42.8085 71.4654C43.1436 71.7807 43.4031 72.1651 43.5871 72.6184C43.7776 73.0718 43.8729 73.5777 43.8729 74.1362C43.8729 74.6947 43.7776 75.2006 43.5871 75.6539C43.4031 76.1073 43.1436 76.4949 42.8085 76.8169C42.4734 77.1322 42.0759 77.3753 41.616 77.5462C41.1561 77.717 40.6534 77.8024 40.1081 77.8024C39.5628 77.8024 39.0601 77.717 38.6002 77.5462C38.1403 77.3753 37.7428 77.1322 37.4077 76.8169C37.0726 76.4949 36.8098 76.1073 36.6193 75.6539C36.4353 75.2006 36.3433 74.6947 36.3433 74.1362ZM37.9399 74.1362C37.9399 74.4647 37.9892 74.7669 38.0877 75.0429C38.1929 75.3123 38.3407 75.5488 38.5312 75.7525C38.7218 75.9496 38.9484 76.104 39.2112 76.2157C39.4806 76.3274 39.7796 76.3832 40.1081 76.3832C40.4366 76.3832 40.7323 76.3274 40.9951 76.2157C41.2645 76.104 41.4944 75.9496 41.685 75.7525C41.8755 75.5488 42.02 75.3123 42.1186 75.0429C42.2237 74.7669 42.2763 74.4647 42.2763 74.1362C42.2763 73.8142 42.2237 73.5153 42.1186 73.2393C42.02 72.9634 41.8755 72.7269 41.685 72.5297C41.4944 72.3261 41.2645 72.1684 40.9951 72.0567C40.7323 71.945 40.4366 71.8891 40.1081 71.8891C39.7796 71.8891 39.4806 71.945 39.2112 72.0567C38.9484 72.1684 38.7218 72.3261 38.5312 72.5297C38.3407 72.7269 38.1929 72.9634 38.0877 73.2393C37.9892 73.5153 37.9399 73.8142 37.9399 74.1362ZM48.3672 72.3523C48.2424 72.1947 48.0716 72.0797 47.8548 72.0074C47.6445 71.9286 47.4441 71.8891 47.2536 71.8891C47.1419 71.8891 47.0269 71.9023 46.9086 71.9286C46.7904 71.9548 46.6787 71.9976 46.5736 72.0567C46.4684 72.1092 46.383 72.1815 46.3173 72.2735C46.2516 72.3655 46.2188 72.4772 46.2188 72.6086C46.2188 72.8188 46.2976 72.9798 46.4553 73.0915C46.613 73.2032 46.8101 73.2985 47.0466 73.3773C47.2897 73.4562 47.5492 73.535 47.8252 73.6138C48.1011 73.6927 48.3574 73.8044 48.5939 73.9489C48.837 74.0935 49.0374 74.2873 49.1951 74.5304C49.3528 74.7735 49.4316 75.0987 49.4316 75.5061C49.4316 75.8937 49.3594 76.2321 49.2148 76.5212C49.0703 76.8103 48.8732 77.0501 48.6235 77.2406C48.3804 77.4312 48.0946 77.5724 47.7661 77.6644C47.4441 77.7564 47.1025 77.8024 46.7411 77.8024C46.2877 77.8024 45.8673 77.7334 45.4796 77.5954C45.092 77.4575 44.7306 77.2341 44.3955 76.9253L45.4895 75.7229C45.6471 75.9332 45.8443 76.0974 46.0808 76.2157C46.3239 76.3274 46.5736 76.3832 46.8298 76.3832C46.9546 76.3832 47.0795 76.3701 47.2043 76.3438C47.3357 76.3109 47.4507 76.265 47.5492 76.2058C47.6544 76.1467 47.7365 76.0711 47.7956 75.9791C47.8613 75.8872 47.8942 75.7788 47.8942 75.6539C47.8942 75.4437 47.8121 75.2794 47.6478 75.1611C47.4901 75.0363 47.2897 74.9312 47.0466 74.8458C46.8035 74.7604 46.5407 74.6749 46.2582 74.5895C45.9757 74.5041 45.7129 74.3891 45.4697 74.2446C45.2266 74.1 45.023 73.9095 44.8587 73.673C44.701 73.4364 44.6222 73.1244 44.6222 72.7367C44.6222 72.3622 44.6945 72.0337 44.839 71.7512C44.9901 71.4686 45.1872 71.2321 45.4303 71.0416C45.68 70.851 45.9658 70.7098 46.2877 70.6178C46.6097 70.5192 46.9415 70.47 47.2831 70.47C47.6774 70.47 48.0584 70.5258 48.4264 70.6375C48.7943 70.7492 49.1261 70.9365 49.4218 71.1993L48.3672 72.3523ZM47.1255 68.7157H49.136L47.431 70.1349H46.1301L47.1255 68.7157ZM49.8477 70.6474H51.5231L52.6368 75.1217H52.6565L54.1151 70.6474H55.5441L56.9929 75.24H57.0126L58.1854 70.6474H59.7426L57.7025 77.625H56.3326L54.7951 72.7958H54.7754L53.238 77.625H51.9174L49.8477 70.6474ZM60.4127 70.6474H61.9502V77.625H60.4127V70.6474ZM65.645 70.6474H66.9163L69.9518 77.625H68.2172L67.616 76.1467H64.9058L64.3243 77.625H62.6292L65.645 70.6474ZM66.2363 72.6776L65.3887 74.8458H67.0937L66.2363 72.6776ZM70.6536 70.6474H72.9598C73.5182 70.6474 74.0471 70.7098 74.5465 70.8346C75.0524 70.9595 75.4926 71.1631 75.8671 71.4457C76.2416 71.7216 76.5373 72.083 76.7541 72.5297C76.9775 72.9765 77.0892 73.5186 77.0892 74.1559C77.0892 74.7209 76.9808 75.2203 76.7639 75.6539C76.5537 76.081 76.2679 76.4423 75.9065 76.738C75.5452 77.0271 75.1279 77.2472 74.6549 77.3983C74.1818 77.5494 73.6858 77.625 73.1667 77.625H70.6536V70.6474ZM72.191 76.2058H72.9893C73.3441 76.2058 73.6726 76.1697 73.9749 76.0974C74.2837 76.0251 74.5498 75.9069 74.7731 75.7426C74.9965 75.5718 75.1707 75.3517 75.2955 75.0823C75.4269 74.8063 75.4926 74.4713 75.4926 74.077C75.4926 73.7354 75.4269 73.4397 75.2955 73.1901C75.1707 72.9338 74.9998 72.7236 74.783 72.5593C74.5662 72.3951 74.3099 72.2735 74.0143 72.1947C73.7252 72.1092 73.4197 72.0665 73.0977 72.0665H72.191V76.2058ZM82.6948 72.4608C82.5437 72.2768 82.3565 72.1355 82.1331 72.037C81.9163 71.9384 81.6633 71.8891 81.3742 71.8891C81.0851 71.8891 80.8157 71.945 80.5661 72.0567C80.323 72.1684 80.1094 72.3261 79.9255 72.5297C79.7481 72.7269 79.6068 72.9634 79.5017 73.2393C79.4031 73.5153 79.3538 73.8142 79.3538 74.1362C79.3538 74.4647 79.4031 74.7669 79.5017 75.0429C79.6068 75.3123 79.7481 75.5488 79.9255 75.7525C80.1029 75.9496 80.3098 76.104 80.5463 76.2157C80.7894 76.3274 81.049 76.3832 81.3249 76.3832C81.6403 76.3832 81.9195 76.3175 82.1626 76.1861C82.4057 76.0547 82.6061 75.8707 82.7638 75.6342L84.045 76.5902C83.7494 77.0041 83.3749 77.3096 82.9215 77.5067C82.4682 77.7038 82.0017 77.8024 81.522 77.8024C80.9767 77.8024 80.4741 77.717 80.0142 77.5462C79.5542 77.3753 79.1567 77.1322 78.8217 76.8169C78.4866 76.4949 78.2238 76.1073 78.0332 75.6539C77.8492 75.2006 77.7573 74.6947 77.7573 74.1362C77.7573 73.5777 77.8492 73.0718 78.0332 72.6184C78.2238 72.1651 78.4866 71.7807 78.8217 71.4654C79.1567 71.1434 79.5542 70.897 80.0142 70.7262C80.4741 70.5554 80.9767 70.47 81.522 70.47C81.7191 70.47 81.9228 70.4897 82.1331 70.5291C82.3499 70.5619 82.5601 70.6178 82.7638 70.6966C82.9741 70.7755 83.1745 70.8806 83.365 71.012C83.5555 71.1434 83.7264 71.3044 83.8775 71.4949L82.6948 72.4608ZM84.5138 76.2058L88.0519 72.0074H84.642V70.6474H89.9146V72.0074L86.4455 76.2058H90.0329V77.625H84.5138V76.2058ZM91.1454 70.6474H95.8859V72.0665H92.6828V73.3675H95.7085V74.7866H92.6828V76.2058H96.0632V77.625H91.1454V70.6474ZM97.294 70.6474H99.3834L102.35 75.4962H102.37V70.6474H103.907V77.625H101.896L98.8512 72.6579H98.8315V77.625H97.294V70.6474ZM105.311 70.6474H106.848V77.625H105.311V70.6474ZM110.543 70.6474H111.814L114.85 77.625H113.115L112.514 76.1467H109.804L109.222 77.625H107.527L110.543 70.6474ZM111.134 72.6776L110.287 74.8458H111.992L111.134 72.6776Z" fill="#292827"/>
<path d="M73.818 134.18C73.3269 130.991 72.1277 127.947 70.3048 125.261C68.433 122.564 65.8514 120.413 62.8332 119.035C61.3127 118.35 59.7326 117.801 58.1118 117.393C56.4745 116.98 54.8292 116.466 53.1918 116.015C52.3822 115.779 51.5862 115.501 50.8072 115.182L48.4227 114.279C47.6247 113.98 46.8445 113.637 46.0859 113.252L43.7808 112.155C31.5557 105.949 21.7886 95.9339 16.0202 83.6904C10.2518 71.4469 8.81039 57.6714 11.9234 44.5369C12.7326 41.2921 13.7792 38.1084 15.0551 35.0107C16.3767 31.9295 17.9393 28.9528 19.7288 26.1071C21.5609 23.2836 23.6067 20.5988 25.8491 18.0751C28.1318 15.5831 30.6 13.26 33.2332 11.125L33.734 11.7321C23.0681 20.061 15.5599 31.6491 12.4082 44.6459C11.6646 47.8787 11.173 51.1621 10.9378 54.4679C10.7395 57.7801 10.7926 61.1021 11.0968 64.4066C11.76 71.018 13.5578 77.4724 16.4143 83.498C22.2014 95.5832 31.9297 105.44 44.0669 111.516L46.3561 112.59C47.1049 112.97 47.8774 113.303 48.6691 113.587L51.0536 114.466C51.8307 114.775 52.6272 115.035 53.4382 115.244C55.0756 115.688 56.6652 116.186 58.3265 116.575C60.0038 116.97 61.6422 117.509 63.2227 118.186C64.8239 118.859 66.3304 119.73 67.7056 120.778C68.399 121.3 69.0624 121.858 69.6927 122.451C70.3078 123.064 70.8864 123.711 71.4255 124.389C73.5695 127.165 75.1506 130.316 76.0833 133.674L73.818 134.18Z" fill="#B79763"/>
<path d="M53.0811 122.64C50.8158 124.126 48.5823 124.663 47.08 124.258C46.9529 124.258 46.9052 124.095 46.9767 123.924C48.002 121.699 49.6571 119.808 51.7458 118.476C54.019 116.989 56.2446 116.452 57.7469 116.857C57.882 116.857 57.9217 117.02 57.8502 117.184C56.8273 119.412 55.1719 121.306 53.0811 122.64Z" fill="#B79763"/>
<path d="M56.8005 109.547C55.64 107.134 54.0185 105.546 52.5162 105.134C52.3811 105.095 52.2778 105.188 52.2539 105.367C51.964 107.798 52.3945 110.259 53.4939 112.457C54.6544 114.87 56.2759 116.458 57.7781 116.878C57.9132 116.878 58.0166 116.816 58.0404 116.645C58.3309 114.211 57.9005 111.747 56.8005 109.547Z" fill="#B79763"/>
<path d="M44.4723 119.036C42.2388 120.11 40.1642 120.336 38.8527 119.814C38.7414 119.768 38.7176 119.635 38.805 119.495C40.0123 117.605 41.7472 116.092 43.8046 115.137C46.0301 114.063 48.1126 113.837 49.4241 114.359C49.5354 114.405 49.5593 114.538 49.4718 114.678C48.2646 116.568 46.5297 118.081 44.4723 119.036Z" fill="#B79763"/>
<path d="M49.4314 107.633C48.6366 105.298 47.4046 103.687 46.0931 103.134C45.9818 103.087 45.8785 103.134 45.8308 103.313C45.2703 105.476 45.3586 107.751 46.0851 109.866C46.8402 112.201 48.112 113.812 49.4235 114.357C49.5347 114.412 49.6381 114.357 49.6858 114.178C50.246 112.018 50.1577 109.745 49.4314 107.633Z" fill="#B79763"/>
<path d="M37.2313 115.338C34.9024 116.186 32.8119 116.21 31.564 115.54C31.4607 115.486 31.4448 115.361 31.564 115.229C32.9524 113.45 34.8342 112.099 36.9849 111.338C39.3138 110.489 41.4042 110.466 42.6521 111.135C42.7555 111.19 42.7634 111.314 42.6521 111.446C41.2637 113.226 39.382 114.577 37.2313 115.338Z" fill="#B79763"/>
<path d="M43.3266 104.474C42.8179 102.093 41.7369 100.357 40.4731 99.6802C40.3618 99.618 40.2505 99.6802 40.1869 99.8281C39.4133 101.926 39.2699 104.198 39.7736 106.374C40.2903 108.755 41.3633 110.498 42.635 111.176C42.7384 111.23 42.8576 111.176 42.9132 111.02C43.6931 108.923 43.8366 106.65 43.3266 104.474Z" fill="#B79763"/>
<path d="M30.3479 110.528C27.9157 111.058 25.8411 110.793 24.7045 109.968C24.6011 109.89 24.617 109.766 24.7045 109.649C26.3332 108.089 28.3863 107.022 30.6181 106.575C33.0424 106.046 35.117 106.31 36.2615 107.135C36.3569 107.205 36.349 107.33 36.2615 107.454C34.6307 109.011 32.5785 110.078 30.3479 110.528Z" fill="#B79763"/>
<path d="M37.9147 100.598C37.7477 98.1702 36.8973 96.2945 35.7686 95.4617C35.6652 95.3917 35.546 95.4617 35.4586 95.5707C34.3978 97.5453 33.9372 99.7763 34.1312 101.999C34.2981 104.428 35.1486 106.303 36.2852 107.136C36.3806 107.206 36.4998 107.136 36.5873 107.019C37.6512 105.049 38.1121 102.819 37.9147 100.598Z" fill="#B79763"/>
<path d="M16.9068 96.856C14.4269 96.677 12.5192 95.8365 11.6767 94.7158C11.5972 94.6224 11.6767 94.5056 11.788 94.42C13.8115 93.3943 16.0916 92.9543 18.3614 93.1514C20.8413 93.3382 22.7489 94.1787 23.5914 95.2917C23.6709 95.3851 23.5914 95.5096 23.4802 95.5874C21.4579 96.6168 19.1767 97.0571 16.9068 96.856Z" fill="#B79763"/>
<path d="M27.0878 89.4992C27.6441 87.1644 27.3898 85.0863 26.5473 83.9656C26.4757 83.8722 26.3486 83.88 26.2293 83.9656C24.6276 85.5534 23.5242 87.5575 23.05 89.7405C22.4936 92.0754 22.7559 94.1456 23.5904 95.2663C23.662 95.3597 23.7971 95.352 23.9163 95.2663C25.5175 93.6823 26.6186 91.6801 27.0878 89.4992Z" fill="#B79763"/>
<path d="M22.6771 103.828C20.1892 103.906 18.2021 103.275 17.2324 102.271C17.1529 102.186 17.1847 102.061 17.3198 101.968C19.2055 100.736 21.412 100.058 23.6786 100.014C26.1665 99.9364 28.1536 100.575 29.1153 101.571C29.2028 101.656 29.171 101.781 29.0359 101.874C27.1507 103.108 24.9439 103.786 22.6771 103.828Z" fill="#B79763"/>
<path d="M31.9925 95.4465C32.2866 93.026 31.8097 91.0336 30.8479 89.9985C30.7684 89.9051 30.6413 89.9284 30.53 90.053C29.1126 91.7986 28.2355 93.9052 28.0024 96.1236C27.7162 98.5441 28.1932 100.537 29.147 101.572C29.2344 101.657 29.3616 101.634 29.4728 101.517C30.8874 99.7706 31.7617 97.6641 31.9925 95.4465Z" fill="#B79763"/>
<path d="M12.7421 89.3115C10.5244 88.7978 8.91886 87.7549 8.30683 86.6342C8.25914 86.533 8.30681 86.4319 8.45783 86.3774C10.4457 85.7338 12.5798 85.6582 14.6099 86.1594C16.8276 86.6731 18.4332 87.716 19.0372 88.8368C19.0929 88.9379 19.0372 89.0391 18.8941 89.0936C16.9063 89.7372 14.7722 89.8128 12.7421 89.3115Z" fill="#B79763"/>
<path d="M23.0277 84.0761C23.8861 81.9981 23.9497 80.1146 23.3536 78.9783C23.3059 78.8849 23.1867 78.8694 23.0595 78.9783C21.3712 80.19 20.0744 81.8515 19.3237 83.7648C18.4732 85.8428 18.4096 87.7185 18.9978 88.8548C19.0535 88.956 19.1727 88.9638 19.2999 88.8548C20.9827 87.6429 22.2763 85.9847 23.0277 84.0761Z" fill="#B79763"/>
<path d="M9.41153 82.1833C7.24956 81.4673 5.74731 80.2998 5.24655 79.1168C5.20681 79.0157 5.24655 78.9223 5.42142 78.8756C7.46036 78.4134 9.59155 78.5295 11.5656 79.2102C13.7275 79.9263 15.2298 81.1015 15.7226 82.3234C15.7703 82.4246 15.7226 82.518 15.5557 82.5569C13.5133 83.0105 11.3809 82.8808 9.41153 82.1833Z" fill="#B79763"/>
<path d="M20.1898 77.902C21.231 75.9095 21.4695 74.0105 20.9846 72.8586C20.9449 72.7575 20.8257 72.7341 20.6905 72.812C18.8986 73.8681 17.4532 75.4049 16.5256 77.2404C15.4843 79.225 15.2379 81.1319 15.7307 82.2837C15.7784 82.3849 15.8897 82.4005 16.0248 82.3304C17.8182 81.276 19.264 79.7387 20.1898 77.902Z" fill="#B79763"/>
<path d="M5.06364 66.4852C3.10832 65.3256 1.88426 63.8546 1.68555 62.5938C1.68555 62.4848 1.75708 62.407 1.9081 62.3992C4.00008 62.3747 6.05436 62.9452 7.82175 64.0414C9.77707 65.201 11.0011 66.6642 11.1998 67.9328C11.1998 68.0418 11.1283 68.1196 10.9773 68.1274C8.88634 68.1444 6.83418 67.5745 5.06364 66.4852Z" fill="#B79763"/>
<path d="M16.5329 64.62C17.9954 62.9 18.6472 61.1333 18.4406 59.8725C18.4406 59.7635 18.3134 59.7168 18.1624 59.7557C16.1762 60.4019 14.4215 61.5933 13.1071 63.188C11.6446 64.908 10.9928 66.6747 11.1995 67.9356C11.1995 68.0445 11.3267 68.0912 11.4777 68.0445C13.4619 67.3985 15.2159 66.2103 16.5329 64.62Z" fill="#B79763"/>
<path d="M6.92411 75.0695C4.79393 74.2913 3.34732 73.0071 2.91016 71.8085C2.91016 71.6996 2.94989 71.6062 3.10091 71.575C5.15718 71.2041 7.27901 71.4202 9.21327 72.1977C11.3435 72.976 12.7821 74.2523 13.1875 75.4587C13.1875 75.5676 13.1875 75.6533 13.0047 75.6922C10.9585 76.0531 8.84975 75.8372 6.92411 75.0695Z" fill="#B79763"/>
<path d="M17.8919 71.2959C19.0285 69.3579 19.3703 67.5056 18.9411 66.2993C18.9013 66.1981 18.7901 66.1669 18.647 66.237C16.8036 67.2056 15.2834 68.6725 14.2674 70.4631C13.1308 72.401 12.7969 74.2534 13.2182 75.4597C13.2182 75.5687 13.3772 75.592 13.5123 75.5298C15.3557 74.5577 16.8757 73.0883 17.8919 71.2959Z" fill="#B79763"/>
<path d="M5.21478 58.2433C3.62509 56.998 2.65538 55.5582 2.5918 54.4063C2.5918 54.3051 2.67923 54.2429 2.81435 54.2507C4.70113 54.4472 6.49108 55.1683 7.97289 56.3287C9.56258 57.5739 10.5243 59.0138 10.5879 60.1656C10.5879 60.2668 10.5085 60.3291 10.3654 60.3213C8.48138 60.1233 6.69437 59.4023 5.21478 58.2433Z" fill="#B79763"/>
<path d="M15.7138 57.7394C17.2081 56.3462 17.9871 54.8208 17.9314 53.6689C17.9314 53.5677 17.836 53.5133 17.7009 53.5366C15.8493 53.9122 14.147 54.801 12.7967 56.0972C11.2945 57.4903 10.5155 59.0158 10.5711 60.1676C10.5711 60.2688 10.6745 60.3233 10.8096 60.2999C12.6612 59.9243 14.3635 59.0355 15.7138 57.7394Z" fill="#B79763"/>
<path d="M5.78653 50.7484C4.35581 49.4253 3.61659 47.9777 3.66428 46.857C3.66428 46.7558 3.75966 46.7091 3.88684 46.7325C5.65251 47.0866 7.27735 47.9294 8.56849 49.1607C9.99921 50.4838 10.7384 51.9314 10.6907 53.0522C10.6907 53.1456 10.5954 53.1923 10.4682 53.1767C8.70281 52.8217 7.07819 51.9791 5.78653 50.7484Z" fill="#B79763"/>
<path d="M15.7943 51.2167C17.384 50.0259 18.2265 48.6561 18.2822 47.551C18.2822 47.4576 18.2027 47.4031 18.0676 47.4109C16.2761 47.5998 14.5785 48.2917 13.1793 49.4033C11.6293 50.5863 10.747 51.9639 10.6914 53.0613C10.6914 53.1547 10.7709 53.2091 10.898 53.2014C12.6908 53.0135 14.3905 52.3246 15.7943 51.2167Z" fill="#B79763"/>
<path d="M7.32971 42.8478C6.16129 41.2912 5.69233 39.7347 5.93874 38.6684C5.93874 38.575 6.05795 38.5439 6.17718 38.5828C7.85652 39.2361 9.30806 40.3493 10.3581 41.7893C11.5265 43.3459 11.9955 44.9025 11.7491 45.961C11.7491 46.0544 11.6298 46.0933 11.5027 46.0466C9.8261 45.3961 8.37707 44.2853 7.32971 42.8478Z" fill="#B79763"/>
<path d="M17.0975 45.0291C18.8303 44.134 19.943 42.9277 20.1974 41.8614C20.1974 41.768 20.1497 41.698 20.0225 41.6824C18.2244 41.5597 16.4281 41.946 14.8481 42.7954C13.1074 43.6982 11.9946 44.8968 11.7402 45.963C11.7402 46.0564 11.7879 46.1342 11.9231 46.142C13.7214 46.2679 15.5186 45.8813 17.0975 45.0291Z" fill="#B79763"/>
<path d="M9.91901 35.0967C8.9652 33.4078 8.7029 31.8123 9.12417 30.7772C9.12417 30.6838 9.25927 30.6683 9.3785 30.7227C10.9474 31.5882 12.2321 32.8732 13.0825 34.4274C14.0363 36.1163 14.2986 37.7196 13.8773 38.7469C13.8773 38.8403 13.7422 38.8636 13.623 38.8014C12.0506 37.9404 10.7647 36.6543 9.91901 35.0967Z" fill="#B79763"/>
<path d="M19.3156 38.5048C21.1597 37.8277 22.4235 36.7847 22.813 35.7496C22.8527 35.664 22.813 35.5862 22.662 35.5551C20.8957 35.2037 19.0635 35.3578 17.3842 35.9987C15.5322 36.668 14.2763 37.7187 13.8789 38.746C13.8789 38.8394 13.8789 38.9173 14.0379 38.9484C15.8042 39.2997 17.6364 39.1457 19.3156 38.5048Z" fill="#B79763"/>
<path d="M13.4246 28.1146C12.7808 26.4958 12.741 25.0015 13.21 24.1531C13.2497 24.0831 13.3372 24.0753 13.4405 24.1531C14.7425 25.107 15.7382 26.4061 16.3099 27.8967C16.9537 29.5156 16.9935 31.0099 16.5245 31.8582C16.4848 31.936 16.3894 31.936 16.294 31.8582C14.992 30.9043 13.9963 29.6052 13.4246 28.1146Z" fill="#B79763"/>
<path d="M21.413 32.2478C23.1457 31.8587 24.4016 31.0726 24.8785 30.1932C24.9182 30.1153 24.8785 30.0375 24.7593 29.9986C23.2237 29.4789 21.5672 29.4059 19.9902 29.7885C18.2574 30.1776 17.0016 30.9637 16.5247 31.8431C16.4849 31.9132 16.5247 31.9988 16.6439 32.0377C18.1802 32.5534 19.8355 32.6264 21.413 32.2478Z" fill="#B79763"/>
<path d="M17.7804 21.6636C17.4069 19.9669 17.6135 18.5504 18.2256 17.7254C18.2732 17.6554 18.3686 17.6632 18.4561 17.7254C19.5914 18.8791 20.3663 20.3265 20.6896 21.8971C21.0632 23.5937 20.8565 25.0102 20.2445 25.8352C20.1968 25.9052 20.1014 25.8975 20.014 25.8352C18.8772 24.6825 18.102 23.2347 17.7804 21.6636Z" fill="#B79763"/>
<path d="M24.9812 27.0499C26.7537 26.9409 28.1605 26.3572 28.7408 25.5711C28.7885 25.5011 28.7408 25.4155 28.6533 25.3532C27.2219 24.6001 25.5998 24.2652 23.9797 24.3881C22.2072 24.4971 20.84 25.0808 20.22 25.8669C20.1723 25.9369 20.22 26.0225 20.3075 26.077C21.7381 26.8328 23.3603 27.1704 24.9812 27.0499Z" fill="#B79763"/>
<path d="M21.8116 16.8401C21.6694 16.2404 21.6532 15.6187 21.7639 15.0126C21.8746 14.4066 22.1098 13.8288 22.4554 13.3145C22.5031 13.2522 22.5905 13.2678 22.6621 13.3145C23.6094 14.4217 24.211 15.7727 24.3948 17.2059C24.5351 17.8058 24.5504 18.4272 24.4398 19.033C24.3291 19.6388 24.0949 20.2165 23.751 20.7316C23.6954 20.7939 23.6159 20.7783 23.5443 20.7316C22.5954 19.6253 21.9936 18.2738 21.8116 16.8401Z" fill="#B79763"/>
<path d="M27.9623 22.0828C28.5887 22.1379 29.22 22.0683 29.8183 21.8784C30.4166 21.6885 30.9694 21.3821 31.4437 20.9776C31.4914 20.9232 31.4437 20.8376 31.3801 20.7831C30.1365 20.0154 28.6931 19.6155 27.2231 19.6312C26.5979 19.5768 25.968 19.6466 25.3711 19.8365C24.7742 20.0264 24.2227 20.3325 23.7496 20.7364C23.694 20.7986 23.7496 20.8765 23.8053 20.9309C25.0489 21.6986 26.4923 22.0986 27.9623 22.0828Z" fill="#B79763"/>
<path d="M26.3024 12.2611C26.1883 11.6563 26.1998 11.035 26.3364 10.4346C26.473 9.8342 26.7317 9.2669 27.0973 8.76663C27.1529 8.71215 27.2324 8.72771 27.3039 8.80554C28.1931 9.94989 28.7307 11.3187 28.8539 12.7515C28.9699 13.3563 28.9593 13.9779 28.8227 14.5786C28.686 15.1793 28.4262 15.7465 28.059 16.246C28.0034 16.3005 27.9239 16.2849 27.8524 16.2071C26.9585 15.0653 26.4203 13.6951 26.3024 12.2611Z" fill="#B79763"/>
<path d="M32.1995 17.7884C32.8222 17.8723 33.4558 17.8321 34.0622 17.6703C34.6687 17.5084 35.2355 17.2283 35.7286 16.8466C35.7763 16.7844 35.7286 16.7066 35.673 16.6443C34.4672 15.824 33.0466 15.3595 31.5795 15.3056C30.9563 15.2246 30.3228 15.2669 29.7166 15.43C29.1104 15.5931 28.5438 15.8737 28.0504 16.2551C27.9948 16.3096 28.0504 16.3952 28.106 16.4575C29.3118 17.2766 30.7328 17.7386 32.1995 17.7884Z" fill="#B79763"/>
<path d="M36.1186 10.9472C37.295 9.87319 37.8434 8.65906 37.7083 7.70955C37.7083 7.62394 37.6129 7.57724 37.5016 7.59281C36.0091 7.80071 34.6199 8.45908 33.5274 9.47627C33.0265 9.86209 32.6227 10.3553 32.3471 10.918C32.0715 11.4806 31.9314 12.0977 31.9377 12.7217C31.9377 12.7996 32.0331 12.8463 32.1523 12.8385C33.6427 12.6259 35.0287 11.965 36.1186 10.9472Z" fill="#B79763"/>
<path d="M108.313 11.7109C110.946 13.846 113.414 16.169 115.697 18.6611C117.939 21.1847 119.985 23.8696 121.817 26.693C123.607 29.5437 125.17 32.5257 126.491 35.6122C127.767 38.7099 128.813 41.8936 129.622 45.1384C132.734 58.268 131.294 72.0381 125.53 84.278C119.766 96.5179 110.006 106.532 97.7889 112.741L95.4838 113.838C94.7266 114.224 93.9462 114.564 93.147 114.857L90.7624 115.768C89.9851 116.089 89.1888 116.365 88.3779 116.593C86.7405 117.052 85.0952 117.566 83.4657 117.978C81.842 118.385 80.2591 118.935 78.7364 119.621C75.7198 121.001 73.1387 123.152 71.2649 125.847C69.4408 128.532 68.2415 131.577 67.7516 134.766L65.4863 134.252C66.4341 130.923 68.0203 127.801 70.16 125.053C70.6992 124.375 71.2777 123.728 71.8928 123.115C72.5232 122.522 73.1866 121.963 73.8799 121.442C75.2562 120.396 76.7626 119.525 78.3628 118.85C79.9433 118.173 81.5818 117.634 83.2591 117.239C84.9203 116.85 86.51 116.352 88.1474 115.908C88.9579 115.697 89.7543 115.437 90.5319 115.13L92.9164 114.25C93.7101 113.965 94.4852 113.632 95.2374 113.254L97.5186 112.18C109.663 106.095 119.393 96.2236 125.171 84.1229C128.001 78.0755 129.761 71.6015 130.378 64.977C130.703 61.6845 130.782 58.3732 130.616 55.0694C130.377 51.764 129.885 48.4809 129.146 45.2474C125.988 32.2532 118.481 20.667 107.82 12.3336L108.313 11.7109Z" fill="#B79763"/>
<path d="M88.4274 123.19C90.7007 124.677 92.9262 125.214 94.4285 124.809C94.5636 124.809 94.6034 124.646 94.5318 124.475C93.5092 122.248 91.8536 120.357 89.7628 119.027C87.4974 117.54 85.2639 117.003 83.7617 117.408C83.6345 117.408 83.5868 117.571 83.6584 117.735C84.6813 119.963 86.3366 121.857 88.4274 123.19Z" fill="#B79763"/>
<path d="M84.7071 110.085C85.8676 107.672 87.497 106.084 88.9913 105.664C89.1264 105.664 89.2298 105.726 89.2615 105.898C89.5451 108.332 89.1122 110.794 88.0137 112.996C86.8532 115.408 85.2317 116.996 83.7294 117.416C83.6023 117.416 83.491 117.354 83.4671 117.183C83.1766 114.749 83.607 112.285 84.7071 110.085Z" fill="#B79763"/>
<path d="M97.035 119.587C99.2685 120.661 101.343 120.887 102.655 120.365C102.766 120.319 102.79 120.194 102.71 120.054C101.501 118.162 99.763 116.65 97.7027 115.696C95.4771 114.621 93.3946 114.396 92.0911 114.917C91.9718 114.964 91.956 115.088 92.0355 115.236C93.2439 117.124 94.9787 118.634 97.035 119.587Z" fill="#B79763"/>
<path d="M92.0752 108.187C92.8303 105.852 94.11 104.241 95.4136 103.689C95.5249 103.642 95.6282 103.689 95.6759 103.868C96.2363 106.031 96.148 108.306 95.4215 110.421C94.6664 112.756 93.3946 114.367 92.0911 114.912C91.9719 114.958 91.8685 114.912 91.8209 114.733C91.2606 112.572 91.3489 110.3 92.0752 108.187Z" fill="#B79763"/>
<path d="M104.277 115.89C106.606 116.738 108.696 116.762 109.944 116.092C110.055 116.038 110.063 115.913 109.944 115.781C108.55 114.016 106.669 112.679 104.523 111.929C102.194 111.08 100.096 111.057 98.856 111.718C98.7447 111.781 98.7368 111.905 98.856 112.038C100.25 113.803 102.131 115.139 104.277 115.89Z" fill="#B79763"/>
<path d="M98.1798 105.025C98.6965 102.644 99.7695 100.9 101.041 100.231C101.145 100.169 101.256 100.231 101.319 100.379C102.093 102.477 102.237 104.749 101.733 106.924C101.224 109.306 100.143 111.049 98.8793 111.719C98.768 111.781 98.6568 111.719 98.5932 111.571C97.8195 109.472 97.6761 107.201 98.1798 105.025Z" fill="#B79763"/>
<path d="M111.16 111.106C113.592 111.636 115.667 111.371 116.803 110.546C116.907 110.468 116.899 110.344 116.803 110.227C115.184 108.652 113.132 107.571 110.898 107.114C108.465 106.585 106.391 106.849 105.254 107.674C105.151 107.744 105.159 107.869 105.254 107.993C106.878 109.563 108.928 110.643 111.16 111.106Z" fill="#B79763"/>
<path d="M103.592 101.153C103.758 98.7243 104.609 96.8486 105.746 96.0159C105.841 95.938 105.96 96.0159 106.048 96.1248C107.108 98.0995 107.569 100.33 107.375 102.553C107.208 104.982 106.358 106.85 105.229 107.69C105.126 107.76 105.006 107.69 104.919 107.573C103.86 105.601 103.399 103.373 103.592 101.153Z" fill="#B79763"/>
<path d="M124.6 97.4066C127.08 97.2276 128.987 96.387 129.838 95.2663C129.909 95.1729 129.838 95.0561 129.719 94.9705C127.698 93.9455 125.42 93.5055 123.153 93.7019C120.673 93.8887 118.766 94.7293 117.915 95.8422C117.844 95.9356 117.915 96.0601 118.034 96.138C120.054 97.1659 122.333 97.6061 124.6 97.4066Z" fill="#B79763"/>
<path d="M114.419 90.0461C113.863 87.7113 114.117 85.641 114.96 84.5203C115.031 84.4269 115.158 84.4347 115.285 84.5203C116.887 86.1081 117.991 88.1122 118.465 90.2952C119.021 92.6301 118.759 94.7003 117.924 95.821C117.853 95.9144 117.718 95.9066 117.599 95.821C115.997 94.2332 114.893 92.2291 114.419 90.0461Z" fill="#B79763"/>
<path d="M118.839 104.383C121.319 104.46 123.306 103.822 124.275 102.826C124.355 102.74 124.323 102.616 124.188 102.522C122.302 101.29 120.096 100.612 117.829 100.569C115.341 100.491 113.354 101.129 112.393 102.125C112.305 102.211 112.345 102.336 112.472 102.429C114.361 103.66 116.57 104.338 118.839 104.383Z" fill="#B79763"/>
<path d="M109.513 95.9895C109.219 93.5768 109.704 91.5844 110.658 90.5415C110.737 90.4481 110.864 90.4714 110.976 90.5959C112.393 92.3416 113.27 94.4482 113.503 96.6666C113.789 99.0871 113.313 101.079 112.359 102.115C112.271 102.2 112.144 102.177 112.041 102.06C110.623 100.314 109.746 98.2079 109.513 95.9895Z" fill="#B79763"/>
<path d="M128.789 89.8582C131.015 89.3446 132.62 88.3017 133.224 87.1809C133.272 87.0797 133.224 86.9786 133.073 86.9241C131.088 86.2807 128.957 86.2051 126.929 86.7062C124.703 87.2198 123.098 88.2627 122.494 89.3835C122.438 89.4847 122.494 89.5858 122.645 89.6403C124.63 90.2841 126.761 90.3597 128.789 89.8582Z" fill="#B79763"/>
<path d="M118.456 84.6425C117.605 82.5645 117.534 80.681 118.13 79.5447C118.186 79.4514 118.297 79.4358 118.424 79.5447C120.114 80.7548 121.411 82.4169 122.16 84.3312C123.01 86.4092 123.082 88.2849 122.486 89.4212C122.43 89.5224 122.311 89.5302 122.184 89.4212C120.503 88.2071 119.21 86.5496 118.456 84.6425Z" fill="#B79763"/>
<path d="M132.096 82.7369C134.258 82.0209 135.76 80.8534 136.261 79.6704C136.301 79.5693 136.261 79.4759 136.086 79.4292C134.048 78.9631 131.915 79.0792 129.942 79.7638C127.78 80.4799 126.278 81.6551 125.785 82.8303C125.737 82.9392 125.785 83.0326 125.96 83.0716C127.996 83.5374 130.126 83.4213 132.096 82.7369Z" fill="#B79763"/>
<path d="M121.326 78.4566C120.277 76.4642 120.038 74.5652 120.531 73.4133C120.531 73.3122 120.69 73.2888 120.825 73.3666C122.619 74.4204 124.065 75.9578 124.99 77.7951C126.032 79.7797 126.278 81.6865 125.785 82.8306C125.738 82.9396 125.626 82.9551 125.491 82.8851C123.695 81.8334 122.249 80.2954 121.326 78.4566Z" fill="#B79763"/>
<path d="M136.443 67.0399C138.398 65.8802 139.622 64.4092 139.821 63.1484C139.821 63.0394 139.749 62.9616 139.598 62.9538C137.508 62.9301 135.454 63.4977 133.685 64.5882C131.729 65.7557 130.505 67.2189 130.307 68.4797C130.307 68.5886 130.378 68.6665 130.529 68.6743C132.619 68.6936 134.671 68.1264 136.443 67.0399Z" fill="#B79763"/>
<path d="M124.974 65.1865C123.512 63.4664 122.86 61.6997 123.067 60.4389C123.067 60.3299 123.194 60.2832 123.345 60.3221C125.332 60.9663 127.087 62.158 128.4 63.7544C129.863 65.4666 130.514 67.2411 130.308 68.502C130.308 68.6109 130.181 68.6576 130.03 68.6109C128.045 67.9649 126.291 66.7767 124.974 65.1865Z" fill="#B79763"/>
<path d="M134.591 75.6244C136.713 74.8461 138.159 73.5619 138.565 72.3633C138.605 72.2544 138.565 72.161 138.382 72.1299C136.323 71.7587 134.199 71.9749 132.262 72.7525C130.132 73.5308 128.693 74.8072 128.287 76.0135C128.248 76.1147 128.287 76.2081 128.47 76.247C130.529 76.6142 132.653 76.3982 134.591 75.6244Z" fill="#B79763"/>
<path d="M123.615 71.8467C122.478 69.9087 122.145 68.0564 122.566 66.85C122.606 66.7489 122.725 66.7177 122.86 66.7878C124.703 67.7563 126.224 69.2233 127.24 71.0139C128.376 72.9518 128.71 74.8042 128.289 76.0105C128.249 76.1117 128.13 76.1428 127.995 76.0805C126.153 75.1063 124.633 73.6375 123.615 71.8467Z" fill="#B79763"/>
<path d="M136.301 58.798C137.93 57.5527 138.852 56.1129 138.916 54.961C138.916 54.8598 138.836 54.7976 138.693 54.8053C136.815 55.0087 135.035 55.7293 133.558 56.8834C131.929 58.1286 131.007 59.5685 130.943 60.7203C130.943 60.8215 131.023 60.8838 131.166 60.876C133.044 60.6726 134.824 59.9521 136.301 58.798Z" fill="#B79763"/>
<path d="M125.793 58.2824C124.298 56.8892 123.519 55.3716 123.575 54.2197C123.575 54.1185 123.67 54.064 123.806 54.0874C125.657 54.4563 127.361 55.3367 128.718 56.6246C130.212 58.0178 130.991 59.5432 130.935 60.6951C130.935 60.7962 130.84 60.8507 130.705 60.8274C128.852 60.4571 127.147 59.5738 125.793 58.2824Z" fill="#B79763"/>
<path d="M135.721 51.3001C137.152 49.977 137.891 48.5294 137.843 47.4087C137.843 47.3075 137.748 47.2608 137.62 47.2764C135.856 47.6389 134.233 48.4835 132.939 49.7124C131.516 51.0355 130.769 52.4831 130.817 53.6039C130.817 53.6973 130.912 53.7439 131.039 53.7284C132.805 53.3734 134.429 52.5308 135.721 51.3001Z" fill="#B79763"/>
<path d="M125.712 51.7675C124.163 50.5767 123.288 49.2069 123.225 48.1018C123.225 48.0084 123.304 47.9539 123.439 47.9617C125.231 48.1506 126.928 48.8425 128.328 49.9541C129.877 51.1371 130.76 52.5069 130.815 53.612C130.815 53.7054 130.736 53.7599 130.609 53.7521C128.816 53.563 127.117 52.8742 125.712 51.7675Z" fill="#B79763"/>
<path d="M134.179 43.3942C135.348 41.8376 135.817 40.281 135.57 39.2148C135.57 39.1214 135.451 39.0825 135.332 39.1292C133.659 39.7853 132.215 40.9017 131.175 42.3435C130.007 43.9001 129.53 45.4566 129.776 46.5151C129.776 46.6085 129.895 46.6474 130.022 46.6007C131.693 45.9428 133.135 44.8301 134.179 43.3942Z" fill="#B79763"/>
<path d="M124.416 45.5814C122.676 44.6864 121.563 43.4801 121.309 42.4138C121.309 42.3204 121.356 42.2504 121.483 42.2348C123.282 42.1071 125.08 42.4938 126.658 43.3477C128.399 44.2428 129.511 45.4491 129.766 46.5154C129.766 46.6088 129.718 46.6866 129.591 46.6944C127.792 46.822 125.995 46.4354 124.416 45.5814Z" fill="#B79763"/>
<path d="M131.587 35.6514C132.541 33.9625 132.803 32.367 132.382 31.3319C132.382 31.2385 132.247 31.223 132.135 31.2774C130.56 32.1379 129.272 33.424 128.423 34.9821C127.469 36.671 127.215 38.2665 127.628 39.3016C127.628 39.395 127.764 39.4105 127.883 39.3561C129.453 38.4927 130.739 37.2072 131.587 35.6514Z" fill="#B79763"/>
<path d="M122.193 39.0577C120.349 38.3806 119.093 37.3377 118.695 36.3026C118.695 36.217 118.695 36.1313 118.854 36.1002C120.622 35.7558 122.453 35.9124 124.132 36.5516C125.976 37.221 127.24 38.2716 127.629 39.299C127.629 39.3924 127.629 39.4702 127.478 39.5013C125.709 39.8489 123.876 39.695 122.193 39.0577Z" fill="#B79763"/>
<path d="M128.081 28.6693C128.732 27.0505 128.772 25.5562 128.303 24.7078C128.256 24.6378 128.168 24.63 128.065 24.7078C126.763 25.66 125.769 26.9599 125.203 28.4514C124.552 30.0702 124.512 31.5646 124.981 32.4129C125.021 32.4829 125.116 32.4907 125.211 32.4129C126.516 31.4615 127.512 30.1616 128.081 28.6693Z" fill="#B79763"/>
<path d="M120.094 32.8025C118.361 32.4134 117.105 31.6273 116.628 30.7479C116.588 30.67 116.628 30.5922 116.747 30.5533C118.283 30.0336 119.939 29.9606 121.516 30.3431C123.249 30.7245 124.505 31.5184 124.982 32.3978C125.022 32.4679 124.982 32.5535 124.871 32.5924C123.332 33.1079 121.674 33.1808 120.094 32.8025Z" fill="#B79763"/>
<path d="M123.725 22.2183C124.098 20.5216 123.892 19.1051 123.288 18.2801C123.232 18.2101 123.137 18.2179 123.049 18.2801C121.921 19.4357 121.154 20.8832 120.839 22.4518C120.474 24.1484 120.672 25.5649 121.285 26.3899C121.332 26.4599 121.428 26.4522 121.515 26.3899C122.646 25.2364 123.413 23.788 123.725 22.2183Z" fill="#B79763"/>
<path d="M116.524 27.5694C114.752 27.4605 113.385 26.8767 112.772 26.0907C112.717 26.0206 112.772 25.935 112.852 25.8727C114.283 25.1197 115.906 24.7847 117.526 24.9077C119.298 25.0166 120.665 25.6003 121.285 26.3864C121.341 26.4565 121.285 26.5421 121.206 26.5966C119.772 27.3521 118.148 27.6897 116.524 27.5694Z" fill="#B79763"/>
<path d="M119.697 17.3909C119.839 16.7912 119.855 16.1695 119.745 15.5634C119.634 14.9573 119.399 14.3796 119.053 13.8653C119.006 13.803 118.918 13.8186 118.847 13.8653C117.901 14.9734 117.299 16.324 117.114 17.7567C116.975 18.3567 116.961 18.9778 117.072 19.5833C117.182 20.1888 117.415 20.7665 117.758 21.2824C117.813 21.3369 117.893 21.3291 117.964 21.2824C118.916 20.178 119.519 18.8256 119.697 17.3909Z" fill="#B79763"/>
<path d="M113.543 22.6375C112.918 22.6919 112.288 22.6221 111.691 22.4322C111.095 22.2423 110.543 21.9362 110.07 21.5323C110.014 21.4701 110.07 21.3922 110.126 21.3378C111.369 20.5701 112.813 20.1701 114.283 20.1859C114.908 20.1315 115.538 20.2013 116.135 20.3912C116.731 20.5811 117.283 20.8872 117.756 21.2911C117.812 21.3455 117.756 21.4312 117.7 21.4856C116.457 22.2533 115.013 22.6532 113.543 22.6375Z" fill="#B79763"/>
<path d="M115.213 12.8236C115.326 12.2187 115.313 11.5979 115.177 10.9977C115.04 10.3975 114.782 9.83021 114.418 9.32913C114.363 9.27465 114.283 9.29021 114.212 9.36804C113.323 10.5124 112.785 11.8812 112.662 13.314C112.55 13.9189 112.562 14.5397 112.698 15.1399C112.835 15.7401 113.093 16.3074 113.457 16.8085C113.512 16.863 113.592 16.8474 113.663 16.7696C114.554 15.6259 115.091 14.2567 115.213 12.8236Z" fill="#B79763"/>
<path d="M109.308 18.3395C108.686 18.4222 108.053 18.3806 107.448 18.2174C106.843 18.0543 106.277 17.7728 105.786 17.39C105.731 17.3355 105.747 17.2577 105.834 17.1954C107.04 16.3752 108.46 15.9106 109.927 15.8568C110.551 15.7753 111.184 15.8174 111.791 15.9805C112.397 16.1436 112.963 16.4245 113.457 16.8063C113.512 16.8608 113.457 16.9386 113.409 17.0087C112.2 17.8275 110.777 18.2895 109.308 18.3395Z" fill="#B79763"/>
<path d="M105.389 11.4824C104.22 10.4084 103.664 9.19422 103.799 8.24471C103.799 8.1591 103.895 8.1124 104.006 8.12797C105.5 8.32976 106.891 8.98899 107.98 10.0114C108.48 10.396 108.884 10.8879 109.159 11.4493C109.435 12.0106 109.575 12.6263 109.57 13.2491C109.57 13.3347 109.474 13.3814 109.355 13.3736C107.865 13.161 106.479 12.5001 105.389 11.4824Z" fill="#B79763"/>
</svg>
