<svg width="140" height="140" viewBox="0 0 140 140" fill="none" xmlns="http://www.w3.org/2000/svg">
<mask id="path-1-inside-1_210_2424" fill="white">
<path d="M135.082 62.4621C133.499 61.0887 132.418 59.2278 132.009 57.1723C131.6 55.1169 131.886 52.9839 132.822 51.109C133.427 49.8986 133.764 48.5722 133.811 47.22C133.857 45.8677 133.612 44.5213 133.092 43.2721C132.572 42.023 131.789 40.9004 130.797 39.9807C129.804 39.061 128.626 38.3657 127.341 37.942C125.365 37.2683 123.669 35.9587 122.518 34.2183C121.366 32.4778 120.824 30.4047 120.976 28.3232C121.073 26.9743 120.879 25.6202 120.406 24.3528C119.934 23.0855 119.195 21.9344 118.239 20.9777C117.283 20.021 116.133 19.281 114.866 18.8078C113.599 18.3346 112.245 18.1393 110.896 18.2351C108.806 18.3846 106.726 17.8339 104.984 16.6698C103.243 15.5057 101.938 13.7947 101.277 11.8068C100.849 10.5243 100.15 9.34876 99.2285 8.35983C98.3065 7.3709 97.1828 6.59165 95.9334 6.07486C94.6841 5.55806 93.3382 5.3158 91.9871 5.36447C90.636 5.41313 89.311 5.7516 88.1021 6.35694C86.224 7.3028 84.0837 7.59418 82.0211 7.18482C79.9585 6.77547 78.0917 5.68885 76.7172 4.09746C75.8314 3.0761 74.7365 2.257 73.5067 1.69563C72.2768 1.13427 70.9406 0.84375 69.5887 0.84375C68.2367 0.84375 66.9006 1.13427 65.6707 1.69563C64.4408 2.257 63.3459 3.0761 62.4602 4.09746C61.0867 5.68042 59.2258 6.76156 57.1704 7.17063C55.115 7.57969 52.9819 7.29344 51.1071 6.35694C49.8985 5.753 48.5743 5.41565 47.2241 5.3677C45.8738 5.31976 44.529 5.56234 43.2807 6.07904C42.0323 6.59574 40.9095 7.3745 39.9881 8.36266C39.0667 9.35082 38.3682 10.5253 37.94 11.8068C37.2788 13.7947 35.9744 15.5057 34.2326 16.6698C32.4908 17.8339 30.4109 18.3846 28.3213 18.2351C26.9719 18.1394 25.6177 18.3348 24.3503 18.8079C23.083 19.281 21.9321 20.0209 20.9755 20.9775C20.0189 21.934 19.2791 23.0849 18.8059 24.3523C18.3328 25.6196 18.1375 26.9739 18.2332 28.3232C18.3827 30.4129 17.8319 32.4928 16.6678 34.2346C15.5038 35.9764 13.7927 37.2808 11.8048 37.942C10.5234 38.3702 9.34887 39.0686 8.36071 39.99C7.37255 40.9114 6.59378 42.0343 6.07708 43.2826C5.56039 44.531 5.3178 45.8758 5.36575 47.226C5.41369 48.5762 5.75105 49.9004 6.35499 51.109C7.29148 52.9839 7.57774 55.1169 7.16867 57.1723C6.75961 59.2278 5.67847 61.0887 4.09551 62.4621C3.07414 63.3479 2.25504 64.4428 1.69368 65.6726C1.13232 66.9025 0.841797 68.2387 0.841797 69.5906C0.841797 70.9426 1.13232 72.2787 1.69368 73.5086C2.25504 74.7385 3.07414 75.8334 4.09551 76.7191C5.67782 78.0913 6.75865 79.9508 7.16773 82.0048C7.57681 84.0589 7.29088 86.1906 6.35499 88.0643C5.74965 89.2732 5.41118 90.5981 5.36251 91.9493C5.31384 93.3004 5.55611 94.6463 6.0729 95.8956C6.5897 97.145 7.36895 98.2687 8.35788 99.1906C9.34681 100.113 10.5223 100.811 11.8048 101.239C13.7927 101.9 15.5038 103.205 16.6678 104.947C17.8319 106.688 18.3827 108.768 18.2332 110.858C18.1313 112.21 18.3222 113.569 18.7927 114.84C19.2632 116.112 20.0023 117.268 20.9597 118.228C21.9171 119.189 23.0703 119.931 24.3406 120.406C25.611 120.88 26.9687 121.076 28.3213 120.978C30.4027 120.826 32.4759 121.368 34.2163 122.52C35.9568 123.671 37.2663 125.367 37.94 127.343C38.3663 128.626 39.0635 129.802 39.9843 130.792C40.9051 131.781 42.028 132.562 43.2769 133.079C44.5257 133.597 45.8713 133.84 47.2223 133.792C48.5733 133.744 49.8982 133.406 51.1071 132.8C52.9819 131.864 55.115 131.578 57.1704 131.987C59.2258 132.396 61.0867 133.477 62.4602 135.06C63.3459 136.081 64.4408 136.9 65.6707 137.462C66.9006 138.023 68.2367 138.314 69.5887 138.314C70.9406 138.314 72.2768 138.023 73.5067 137.462C74.7365 136.9 75.8314 136.081 76.7172 135.06C78.0893 133.478 79.9489 132.397 82.0029 131.988C84.0569 131.579 86.1887 131.865 88.0623 132.8C89.2718 133.406 90.5972 133.744 91.9487 133.792C93.3003 133.84 94.6464 133.597 95.8959 133.08C97.1453 132.562 98.2689 131.782 99.1905 130.792C100.112 129.802 100.81 128.626 101.237 127.343C101.911 125.367 103.221 123.671 104.961 122.52C106.701 121.368 108.775 120.826 110.856 120.978C112.211 121.082 113.573 120.891 114.848 120.419C116.123 119.947 117.281 119.205 118.242 118.244C119.203 117.283 119.945 116.125 120.417 114.85C120.889 113.575 121.08 112.213 120.976 110.858C120.824 108.777 121.366 106.703 122.518 104.963C123.669 103.223 125.365 101.913 127.341 101.239C128.624 100.812 129.8 100.114 130.79 99.1925C131.78 98.2709 132.56 97.1473 133.078 95.8978C133.595 94.6484 133.838 93.3023 133.79 91.9507C133.742 90.5991 133.404 89.2737 132.798 88.0643C131.863 86.1906 131.577 84.0589 131.986 82.0048C132.395 79.9508 133.476 78.0913 135.058 76.7191C136.081 75.8351 136.902 74.7416 137.465 73.5126C138.029 72.2837 138.321 70.948 138.324 69.5961C138.326 68.2441 138.038 66.9075 137.478 65.6767C136.919 64.4458 136.102 63.3496 135.082 62.4621ZM69.5887 130.087C57.7569 130.089 46.1905 126.582 36.352 120.01C26.5135 113.438 18.8449 104.095 14.316 93.1647C9.78708 82.2341 8.6013 70.2059 10.9086 58.6013C13.2159 46.9968 18.9126 36.337 27.2784 27.9701C35.6441 19.6033 46.3031 13.9051 57.9074 11.5963C69.5116 9.28747 81.54 10.4717 92.4712 14.9991C103.402 19.5265 112.746 27.1939 119.319 37.0315C125.893 46.8691 129.401 58.4351 129.401 70.2669C129.391 86.124 123.085 101.328 111.869 112.538C100.653 123.748 85.4458 130.046 69.5887 130.048V130.087Z"/>
</mask>
<path d="M135.082 62.4621C133.499 61.0887 132.418 59.2278 132.009 57.1723C131.6 55.1169 131.886 52.9839 132.822 51.109C133.427 49.8986 133.764 48.5722 133.811 47.22C133.857 45.8677 133.612 44.5213 133.092 43.2721C132.572 42.023 131.789 40.9004 130.797 39.9807C129.804 39.061 128.626 38.3657 127.341 37.942C125.365 37.2683 123.669 35.9587 122.518 34.2183C121.366 32.4778 120.824 30.4047 120.976 28.3232C121.073 26.9743 120.879 25.6202 120.406 24.3528C119.934 23.0855 119.195 21.9344 118.239 20.9777C117.283 20.021 116.133 19.281 114.866 18.8078C113.599 18.3346 112.245 18.1393 110.896 18.2351C108.806 18.3846 106.726 17.8339 104.984 16.6698C103.243 15.5057 101.938 13.7947 101.277 11.8068C100.849 10.5243 100.15 9.34876 99.2285 8.35983C98.3065 7.3709 97.1828 6.59165 95.9334 6.07486C94.6841 5.55806 93.3382 5.3158 91.9871 5.36447C90.636 5.41313 89.311 5.7516 88.1021 6.35694C86.224 7.3028 84.0837 7.59418 82.0211 7.18482C79.9585 6.77547 78.0917 5.68885 76.7172 4.09746C75.8314 3.0761 74.7365 2.257 73.5067 1.69563C72.2768 1.13427 70.9406 0.84375 69.5887 0.84375C68.2367 0.84375 66.9006 1.13427 65.6707 1.69563C64.4408 2.257 63.3459 3.0761 62.4602 4.09746C61.0867 5.68042 59.2258 6.76156 57.1704 7.17063C55.115 7.57969 52.9819 7.29344 51.1071 6.35694C49.8985 5.753 48.5743 5.41565 47.2241 5.3677C45.8738 5.31976 44.529 5.56234 43.2807 6.07904C42.0323 6.59574 40.9095 7.3745 39.9881 8.36266C39.0667 9.35082 38.3682 10.5253 37.94 11.8068C37.2788 13.7947 35.9744 15.5057 34.2326 16.6698C32.4908 17.8339 30.4109 18.3846 28.3213 18.2351C26.9719 18.1394 25.6177 18.3348 24.3503 18.8079C23.083 19.281 21.9321 20.0209 20.9755 20.9775C20.0189 21.934 19.2791 23.0849 18.8059 24.3523C18.3328 25.6196 18.1375 26.9739 18.2332 28.3232C18.3827 30.4129 17.8319 32.4928 16.6678 34.2346C15.5038 35.9764 13.7927 37.2808 11.8048 37.942C10.5234 38.3702 9.34887 39.0686 8.36071 39.99C7.37255 40.9114 6.59378 42.0343 6.07708 43.2826C5.56039 44.531 5.3178 45.8758 5.36575 47.226C5.41369 48.5762 5.75105 49.9004 6.35499 51.109C7.29148 52.9839 7.57774 55.1169 7.16867 57.1723C6.75961 59.2278 5.67847 61.0887 4.09551 62.4621C3.07414 63.3479 2.25504 64.4428 1.69368 65.6726C1.13232 66.9025 0.841797 68.2387 0.841797 69.5906C0.841797 70.9426 1.13232 72.2787 1.69368 73.5086C2.25504 74.7385 3.07414 75.8334 4.09551 76.7191C5.67782 78.0913 6.75865 79.9508 7.16773 82.0048C7.57681 84.0589 7.29088 86.1906 6.35499 88.0643C5.74965 89.2732 5.41118 90.5981 5.36251 91.9493C5.31384 93.3004 5.55611 94.6463 6.0729 95.8956C6.5897 97.145 7.36895 98.2687 8.35788 99.1906C9.34681 100.113 10.5223 100.811 11.8048 101.239C13.7927 101.9 15.5038 103.205 16.6678 104.947C17.8319 106.688 18.3827 108.768 18.2332 110.858C18.1313 112.21 18.3222 113.569 18.7927 114.84C19.2632 116.112 20.0023 117.268 20.9597 118.228C21.9171 119.189 23.0703 119.931 24.3406 120.406C25.611 120.88 26.9687 121.076 28.3213 120.978C30.4027 120.826 32.4759 121.368 34.2163 122.52C35.9568 123.671 37.2663 125.367 37.94 127.343C38.3663 128.626 39.0635 129.802 39.9843 130.792C40.9051 131.781 42.028 132.562 43.2769 133.079C44.5257 133.597 45.8713 133.84 47.2223 133.792C48.5733 133.744 49.8982 133.406 51.1071 132.8C52.9819 131.864 55.115 131.578 57.1704 131.987C59.2258 132.396 61.0867 133.477 62.4602 135.06C63.3459 136.081 64.4408 136.9 65.6707 137.462C66.9006 138.023 68.2367 138.314 69.5887 138.314C70.9406 138.314 72.2768 138.023 73.5067 137.462C74.7365 136.9 75.8314 136.081 76.7172 135.06C78.0893 133.478 79.9489 132.397 82.0029 131.988C84.0569 131.579 86.1887 131.865 88.0623 132.8C89.2718 133.406 90.5972 133.744 91.9487 133.792C93.3003 133.84 94.6464 133.597 95.8959 133.08C97.1453 132.562 98.2689 131.782 99.1905 130.792C100.112 129.802 100.81 128.626 101.237 127.343C101.911 125.367 103.221 123.671 104.961 122.52C106.701 121.368 108.775 120.826 110.856 120.978C112.211 121.082 113.573 120.891 114.848 120.419C116.123 119.947 117.281 119.205 118.242 118.244C119.203 117.283 119.945 116.125 120.417 114.85C120.889 113.575 121.08 112.213 120.976 110.858C120.824 108.777 121.366 106.703 122.518 104.963C123.669 103.223 125.365 101.913 127.341 101.239C128.624 100.812 129.8 100.114 130.79 99.1925C131.78 98.2709 132.56 97.1473 133.078 95.8978C133.595 94.6484 133.838 93.3023 133.79 91.9507C133.742 90.5991 133.404 89.2737 132.798 88.0643C131.863 86.1906 131.577 84.0589 131.986 82.0048C132.395 79.9508 133.476 78.0913 135.058 76.7191C136.081 75.8351 136.902 74.7416 137.465 73.5126C138.029 72.2837 138.321 70.948 138.324 69.5961C138.326 68.2441 138.038 66.9075 137.478 65.6767C136.919 64.4458 136.102 63.3496 135.082 62.4621ZM69.5887 130.087C57.7569 130.089 46.1905 126.582 36.352 120.01C26.5135 113.438 18.8449 104.095 14.316 93.1647C9.78708 82.2341 8.6013 70.2059 10.9086 58.6013C13.2159 46.9968 18.9126 36.337 27.2784 27.9701C35.6441 19.6033 46.3031 13.9051 57.9074 11.5963C69.5116 9.28747 81.54 10.4717 92.4712 14.9991C103.402 19.5265 112.746 27.1939 119.319 37.0315C125.893 46.8691 129.401 58.4351 129.401 70.2669C129.391 86.124 123.085 101.328 111.869 112.538C100.653 123.748 85.4458 130.046 69.5887 130.048V130.087Z" fill="#B79763" stroke="#B79763" stroke-width="1.68675" mask="url(#path-1-inside-1_210_2424)"/>
<path d="M69.588 125.813C100.288 125.813 125.176 100.925 125.176 70.2248C125.176 39.5243 100.288 14.6367 69.588 14.6367C38.8876 14.6367 14 39.5243 14 70.2248C14 100.925 38.8876 125.813 69.588 125.813Z" stroke="#B79763" stroke-width="0.843373" stroke-miterlimit="10"/>
<path d="M42.3085 50.6048L37.9972 54.4L35.4164 51.4246L42.4299 45.5041H46.6805V67H42.3085V50.6048ZM52.5341 56.252C52.5341 54.9769 52.6454 53.6814 52.8681 52.3658C53.111 51.0501 53.5259 49.8559 54.1129 48.7831C54.7201 47.7104 55.5399 46.84 56.5722 46.172C57.6045 45.4839 58.9201 45.1398 60.5192 45.1398C62.1182 45.1398 63.4339 45.4839 64.4662 46.172C65.4985 46.84 66.3081 47.7104 66.8951 48.7831C67.5023 49.8559 67.9173 51.0501 68.1399 52.3658C68.3828 53.6814 68.5042 54.9769 68.5042 56.252C68.5042 57.5272 68.3828 58.8227 68.1399 60.1383C67.9173 61.454 67.5023 62.6482 66.8951 63.721C66.3081 64.7937 65.4985 65.6742 64.4662 66.3624C63.4339 67.0304 62.1182 67.3643 60.5192 67.3643C58.9201 67.3643 57.6045 67.0304 56.5722 66.3624C55.5399 65.6742 54.7201 64.7937 54.1129 63.721C53.5259 62.6482 53.111 61.454 52.8681 60.1383C52.6454 58.8227 52.5341 57.5272 52.5341 56.252ZM57.0883 56.252C57.0883 56.8188 57.1086 57.4969 57.1491 58.2863C57.2098 59.0757 57.3515 59.8347 57.5741 60.5634C57.7968 61.292 58.1307 61.9094 58.576 62.4154C59.0416 62.9214 59.6893 63.1745 60.5192 63.1745C61.3288 63.1745 61.9664 62.9214 62.432 62.4154C62.8975 61.9094 63.2416 61.292 63.4642 60.5634C63.6869 59.8347 63.8185 59.0757 63.8589 58.2863C63.9197 57.4969 63.95 56.8188 63.95 56.252C63.95 55.6853 63.9197 55.0072 63.8589 54.2178C63.8185 53.4284 63.6869 52.6694 63.4642 51.9407C63.2416 51.212 62.8975 50.5947 62.432 50.0887C61.9664 49.5827 61.3288 49.3296 60.5192 49.3296C59.6893 49.3296 59.0416 49.5827 58.576 50.0887C58.1307 50.5947 57.7968 51.212 57.5741 51.9407C57.3515 52.6694 57.2098 53.4284 57.1491 54.2178C57.1086 55.0072 57.0883 55.6853 57.0883 56.252ZM70.5019 56.252C70.5019 54.9769 70.6133 53.6814 70.8359 52.3658C71.0788 51.0501 71.4937 49.8559 72.0807 48.7831C72.688 47.7104 73.5077 46.84 74.54 46.172C75.5723 45.4839 76.888 45.1398 78.487 45.1398C80.086 45.1398 81.4017 45.4839 82.434 46.172C83.4663 46.84 84.2759 47.7104 84.8629 48.7831C85.4701 49.8559 85.8851 51.0501 86.1077 52.3658C86.3506 53.6814 86.472 54.9769 86.472 56.252C86.472 57.5272 86.3506 58.8227 86.1077 60.1383C85.8851 61.454 85.4701 62.6482 84.8629 63.721C84.2759 64.7937 83.4663 65.6742 82.434 66.3624C81.4017 67.0304 80.086 67.3643 78.487 67.3643C76.888 67.3643 75.5723 67.0304 74.54 66.3624C73.5077 65.6742 72.688 64.7937 72.0807 63.721C71.4937 62.6482 71.0788 61.454 70.8359 60.1383C70.6133 58.8227 70.5019 57.5272 70.5019 56.252ZM75.0561 56.252C75.0561 56.8188 75.0764 57.4969 75.1169 58.2863C75.1776 59.0757 75.3193 59.8347 75.5419 60.5634C75.7646 61.292 76.0986 61.9094 76.5439 62.4154C77.0094 62.9214 77.6571 63.1745 78.487 63.1745C79.2966 63.1745 79.9342 62.9214 80.3998 62.4154C80.8653 61.9094 81.2094 61.292 81.432 60.5634C81.6547 59.8347 81.7863 59.0757 81.8267 58.2863C81.8875 57.4969 81.9178 56.8188 81.9178 56.252C81.9178 55.6853 81.8875 55.0072 81.8267 54.2178C81.7863 53.4284 81.6547 52.6694 81.432 51.9407C81.2094 51.212 80.8653 50.5947 80.3998 50.0887C79.9342 49.5827 79.2966 49.3296 78.487 49.3296C77.6571 49.3296 77.0094 49.5827 76.5439 50.0887C76.0986 50.5947 75.7646 51.212 75.5419 51.9407C75.3193 52.6694 75.1776 53.4284 75.1169 54.2178C75.0764 55.0072 75.0561 55.6853 75.0561 56.252ZM88.4697 56.252C88.4697 54.9769 88.5811 53.6814 88.8037 52.3658C89.0466 51.0501 89.4615 49.8559 90.0485 48.7831C90.6558 47.7104 91.4755 46.84 92.5078 46.172C93.5401 45.4839 94.8558 45.1398 96.4548 45.1398C98.0538 45.1398 99.3695 45.4839 100.402 46.172C101.434 46.84 102.244 47.7104 102.831 48.7831C103.438 49.8559 103.853 51.0501 104.076 52.3658C104.318 53.6814 104.44 54.9769 104.44 56.252C104.44 57.5272 104.318 58.8227 104.076 60.1383C103.853 61.454 103.438 62.6482 102.831 63.721C102.244 64.7937 101.434 65.6742 100.402 66.3624C99.3695 67.0304 98.0538 67.3643 96.4548 67.3643C94.8558 67.3643 93.5401 67.0304 92.5078 66.3624C91.4755 65.6742 90.6558 64.7937 90.0485 63.721C89.4615 62.6482 89.0466 61.454 88.8037 60.1383C88.5811 58.8227 88.4697 57.5272 88.4697 56.252ZM93.0239 56.252C93.0239 56.8188 93.0442 57.4969 93.0847 58.2863C93.1454 59.0757 93.2871 59.8347 93.5097 60.5634C93.7324 61.292 94.0664 61.9094 94.5117 62.4154C94.9772 62.9214 95.6249 63.1745 96.4548 63.1745C97.2644 63.1745 97.902 62.9214 98.3676 62.4154C98.8331 61.9094 99.1772 61.292 99.3999 60.5634C99.6225 59.8347 99.7541 59.0757 99.7946 58.2863C99.8553 57.4969 99.8856 56.8188 99.8856 56.252C99.8856 55.6853 99.8553 55.0072 99.7946 54.2178C99.7541 53.4284 99.6225 52.6694 99.3999 51.9407C99.1772 51.212 98.8331 50.5947 98.3676 50.0887C97.902 49.5827 97.2644 49.3296 96.4548 49.3296C95.6249 49.3296 94.9772 49.5827 94.5117 50.0887C94.0664 50.5947 93.7324 51.212 93.5097 51.9407C93.2871 52.6694 93.1454 53.4284 93.0847 54.2178C93.0442 55.0072 93.0239 55.6853 93.0239 56.252ZM20.9201 83.5427L24.5534 79.2313H21.0517V77.8347H26.4661V79.2313L22.9037 83.5427H26.5876V85H20.9201V83.5427ZM30.5334 77.8347H31.8389L34.956 85H33.1748L32.5575 83.4819H29.7743L29.1772 85H27.4365L30.5334 77.8347ZM31.1406 79.9195L30.2702 82.146H32.0211L31.1406 79.9195ZM36.1827 77.8347H38.5509C39.1244 77.8347 39.6676 77.8988 40.1803 78.027C40.6999 78.1552 41.1519 78.3643 41.5365 78.6545C41.9211 78.9378 42.2247 79.3089 42.4473 79.7677C42.6767 80.2265 42.7914 80.7831 42.7914 81.4376C42.7914 82.0178 42.6801 82.5306 42.4574 82.9759C42.2415 83.4145 41.948 83.7855 41.577 84.0892C41.2059 84.386 40.7774 84.612 40.2917 84.7672C39.8059 84.9224 39.2965 85 38.7635 85H36.1827V77.8347ZM37.7615 83.5427H38.5813C38.9456 83.5427 39.283 83.5055 39.5933 83.4313C39.9105 83.3571 40.1837 83.2357 40.4131 83.067C40.6425 82.8916 40.8213 82.6655 40.9495 82.3889C41.0844 82.1055 41.1519 81.7614 41.1519 81.3566C41.1519 81.0058 41.0844 80.7022 40.9495 80.4458C40.8213 80.1827 40.6459 79.9667 40.4232 79.7981C40.2006 79.6294 39.9374 79.5046 39.6338 79.4236C39.337 79.3359 39.0232 79.292 38.6926 79.292H37.7615V83.5427ZM43.9835 81.4173C43.9835 80.8439 44.078 80.3243 44.2669 79.8588C44.4625 79.3933 44.7324 78.9986 45.0765 78.6747C45.4206 78.3441 45.8288 78.0911 46.3011 77.9157C46.7734 77.7402 47.2895 77.6525 47.8495 77.6525C48.4095 77.6525 48.9257 77.7402 49.398 77.9157C49.8702 78.0911 50.2784 78.3441 50.6225 78.6747C50.9666 78.9986 51.2331 79.3933 51.4221 79.8588C51.6177 80.3243 51.7155 80.8439 51.7155 81.4173C51.7155 81.9908 51.6177 82.5104 51.4221 82.9759C51.2331 83.4414 50.9666 83.8395 50.6225 84.1701C50.2784 84.494 49.8702 84.7436 49.398 84.919C48.9257 85.0945 48.4095 85.1822 47.8495 85.1822C47.2895 85.1822 46.7734 85.0945 46.3011 84.919C45.8288 84.7436 45.4206 84.494 45.0765 84.1701C44.7324 83.8395 44.4625 83.4414 44.2669 82.9759C44.078 82.5104 43.9835 81.9908 43.9835 81.4173ZM45.623 81.4173C45.623 81.7547 45.6736 82.0651 45.7748 82.3484C45.8828 82.6251 46.0346 82.868 46.2302 83.0771C46.4259 83.2795 46.6587 83.4381 46.9286 83.5528C47.2052 83.6675 47.5122 83.7248 47.8495 83.7248C48.1869 83.7248 48.4905 83.6675 48.7604 83.5528C49.037 83.4381 49.2731 83.2795 49.4688 83.0771C49.6645 82.868 49.8129 82.6251 49.9141 82.3484C50.0221 82.0651 50.076 81.7547 50.076 81.4173C50.076 81.0867 50.0221 80.7798 49.9141 80.4964C49.8129 80.213 49.6645 79.9701 49.4688 79.7677C49.2731 79.5586 49.037 79.3966 48.7604 79.2819C48.4905 79.1672 48.1869 79.1099 47.8495 79.1099C47.5122 79.1099 47.2052 79.1672 46.9286 79.2819C46.6587 79.3966 46.4259 79.5586 46.2302 79.7677C46.0346 79.9701 45.8828 80.213 45.7748 80.4964C45.6736 80.7798 45.623 81.0867 45.623 81.4173ZM52.5457 77.8347H54.2662L55.4098 82.4294H55.4301L56.9279 77.8347H58.3954L59.8831 82.5508H59.9033L61.1077 77.8347H62.7067L60.6118 85H59.205L57.6262 80.041H57.606L56.0272 85H54.671L52.5457 77.8347ZM63.5366 81.4173C63.5366 80.8439 63.631 80.3243 63.82 79.8588C64.0156 79.3933 64.2855 78.9986 64.6296 78.6747C64.9737 78.3441 65.3819 78.0911 65.8542 77.9157C66.3265 77.7402 66.8426 77.6525 67.4026 77.6525C67.9626 77.6525 68.4788 77.7402 68.951 77.9157C69.4233 78.0911 69.8315 78.3441 70.1756 78.6747C70.5197 78.9986 70.7862 79.3933 70.9751 79.8588C71.1708 80.3243 71.2686 80.8439 71.2686 81.4173C71.2686 81.9908 71.1708 82.5104 70.9751 82.9759C70.7862 83.4414 70.5197 83.8395 70.1756 84.1701C69.8315 84.494 69.4233 84.7436 68.951 84.919C68.4788 85.0945 67.9626 85.1822 67.4026 85.1822C66.8426 85.1822 66.3265 85.0945 65.8542 84.919C65.3819 84.7436 64.9737 84.494 64.6296 84.1701C64.2855 83.8395 64.0156 83.4414 63.82 82.9759C63.631 82.5104 63.5366 81.9908 63.5366 81.4173ZM65.1761 81.4173C65.1761 81.7547 65.2267 82.0651 65.3279 82.3484C65.4359 82.6251 65.5877 82.868 65.7833 83.0771C65.979 83.2795 66.2118 83.4381 66.4816 83.5528C66.7583 83.6675 67.0653 83.7248 67.4026 83.7248C67.74 83.7248 68.0436 83.6675 68.3135 83.5528C68.5901 83.4381 68.8262 83.2795 69.0219 83.0771C69.2175 82.868 69.366 82.6251 69.4672 82.3484C69.5751 82.0651 69.6291 81.7547 69.6291 81.4173C69.6291 81.0867 69.5751 80.7798 69.4672 80.4964C69.366 80.213 69.2175 79.9701 69.0219 79.7677C68.8262 79.5586 68.5901 79.3966 68.3135 79.2819C68.0436 79.1672 67.74 79.1099 67.4026 79.1099C67.0653 79.1099 66.7583 79.1672 66.4816 79.2819C66.2118 79.3966 65.979 79.5586 65.7833 79.7677C65.5877 79.9701 65.4359 80.213 65.3279 80.4964C65.2267 80.7798 65.1761 81.0867 65.1761 81.4173ZM72.9085 77.8347H74.4873V83.5427H77.4121V85H72.9085V77.8347ZM78.405 81.4173C78.405 80.8439 78.4995 80.3243 78.6884 79.8588C78.884 79.3933 79.1539 78.9986 79.498 78.6747C79.8421 78.3441 80.2503 78.0911 80.7226 77.9157C81.1949 77.7402 81.711 77.6525 82.271 77.6525C82.831 77.6525 83.3472 77.7402 83.8195 77.9157C84.2917 78.0911 84.6999 78.3441 85.044 78.6747C85.3881 78.9986 85.6546 79.3933 85.8436 79.8588C86.0392 80.3243 86.137 80.8439 86.137 81.4173C86.137 81.9908 86.0392 82.5104 85.8436 82.9759C85.6546 83.4414 85.3881 83.8395 85.044 84.1701C84.6999 84.494 84.2917 84.7436 83.8195 84.919C83.3472 85.0945 82.831 85.1822 82.271 85.1822C81.711 85.1822 81.1949 85.0945 80.7226 84.919C80.2503 84.7436 79.8421 84.494 79.498 84.1701C79.1539 83.8395 78.884 83.4414 78.6884 82.9759C78.4995 82.5104 78.405 81.9908 78.405 81.4173ZM80.0445 81.4173C80.0445 81.7547 80.0951 82.0651 80.1963 82.3484C80.3043 82.6251 80.4561 82.868 80.6517 83.0771C80.8474 83.2795 81.0802 83.4381 81.3501 83.5528C81.6267 83.6675 81.9337 83.7248 82.271 83.7248C82.6084 83.7248 82.912 83.6675 83.1819 83.5528C83.4585 83.4381 83.6946 83.2795 83.8903 83.0771C84.086 82.868 84.2344 82.6251 84.3356 82.3484C84.4436 82.0651 84.4975 81.7547 84.4975 81.4173C84.4975 81.0867 84.4436 80.7798 84.3356 80.4964C84.2344 80.213 84.086 79.9701 83.8903 79.7677C83.6946 79.5586 83.4585 79.3966 83.1819 79.2819C82.912 79.1672 82.6084 79.1099 82.271 79.1099C81.9337 79.1099 81.6267 79.1672 81.3501 79.2819C81.0802 79.3966 80.8474 79.5586 80.6517 79.7677C80.4561 79.9701 80.3043 80.213 80.1963 80.4964C80.0951 80.7798 80.0445 81.0867 80.0445 81.4173ZM87.7162 77.8347H89.8617L92.908 82.814H92.9282V77.8347H94.507V85H92.4424L89.3152 79.8993H89.295V85H87.7162V77.8347ZM98.2357 81.9436L95.5436 77.8347H97.507L99.0251 80.5166L100.634 77.8347H102.507L99.8145 81.9436V85H98.2357V81.9436ZM108.229 79.6969C108.074 79.508 107.882 79.3629 107.652 79.2617C107.43 79.1605 107.17 79.1099 106.873 79.1099C106.576 79.1099 106.299 79.1672 106.043 79.2819C105.793 79.3966 105.574 79.5586 105.385 79.7677C105.203 79.9701 105.058 80.213 104.95 80.4964C104.849 80.7798 104.798 81.0867 104.798 81.4173C104.798 81.7547 104.849 82.0651 104.95 82.3484C105.058 82.6251 105.203 82.868 105.385 83.0771C105.567 83.2795 105.78 83.4381 106.023 83.5528C106.272 83.6675 106.539 83.7248 106.822 83.7248C107.146 83.7248 107.433 83.6573 107.683 83.5224C107.932 83.3875 108.138 83.1986 108.3 82.9557L109.616 83.9373C109.312 84.3624 108.927 84.6761 108.462 84.8786C107.996 85.081 107.517 85.1822 107.025 85.1822C106.465 85.1822 105.949 85.0945 105.476 84.919C105.004 84.7436 104.596 84.494 104.252 84.1701C103.908 83.8395 103.638 83.4414 103.442 82.9759C103.253 82.5104 103.159 81.9908 103.159 81.4173C103.159 80.8439 103.253 80.3243 103.442 79.8588C103.638 79.3933 103.908 78.9986 104.252 78.6747C104.596 78.3441 105.004 78.0911 105.476 77.9157C105.949 77.7402 106.465 77.6525 107.025 77.6525C107.227 77.6525 107.436 77.6728 107.652 77.7133C107.875 77.747 108.091 77.8043 108.3 77.8853C108.516 77.9663 108.722 78.0742 108.917 78.2092C109.113 78.3441 109.288 78.5094 109.443 78.7051L108.229 79.6969ZM110.977 77.8347H112.556V80.5065H115.623V77.8347H117.202V85H115.623V81.9031H112.556V85H110.977V77.8347ZM41.1614 92.8347H42.7402V95.8101L45.5233 92.8347H47.5879L44.3999 96.1643L47.8611 100H45.6549L42.7402 96.5995V100H41.1614V92.8347ZM48.9712 92.8347H50.55V98.5427H53.4748V100H48.9712V92.8347ZM54.832 92.8347H56.4108V100H54.832V92.8347ZM58.4136 92.8347H63.2816V94.292H59.9924V95.628H63.0994V97.0853H59.9924V98.5427H63.4638V100H58.4136V92.8347ZM65.2337 92.8347H67.3792L70.4255 97.814H70.4457V92.8347H72.0245V100H69.9599L66.8327 94.8993H66.8125V100H65.2337V92.8347ZM75.3787 94.2313H73.3344V92.8347H79.0019V94.2313H76.9575V100H75.3787V94.2313ZM79.925 96.4173C79.925 95.8439 80.0195 95.3243 80.2084 94.8588C80.4041 94.3933 80.674 93.9986 81.0181 93.6747C81.3622 93.3441 81.7703 93.0911 82.2426 92.9157C82.7149 92.7402 83.2311 92.6525 83.7911 92.6525C84.3511 92.6525 84.8672 92.7402 85.3395 92.9157C85.8118 93.0911 86.22 93.3441 86.5641 93.6747C86.9082 93.9986 87.1747 94.3933 87.3636 94.8588C87.5593 95.3243 87.6571 95.8439 87.6571 96.4173C87.6571 96.9908 87.5593 97.5104 87.3636 97.9759C87.1747 98.4414 86.9082 98.8395 86.5641 99.1701C86.22 99.494 85.8118 99.7436 85.3395 99.919C84.8672 100.094 84.3511 100.182 83.7911 100.182C83.2311 100.182 82.7149 100.094 82.2426 99.919C81.7703 99.7436 81.3622 99.494 81.0181 99.1701C80.674 98.8395 80.4041 98.4414 80.2084 97.9759C80.0195 97.5104 79.925 96.9908 79.925 96.4173ZM81.5646 96.4173C81.5646 96.7547 81.6152 97.0651 81.7164 97.3484C81.8243 97.6251 81.9761 97.868 82.1718 98.0771C82.3675 98.2795 82.6002 98.4381 82.8701 98.5528C83.1467 98.6675 83.4537 98.7248 83.7911 98.7248C84.1284 98.7248 84.432 98.6675 84.7019 98.5528C84.9785 98.4381 85.2147 98.2795 85.4103 98.0771C85.606 97.868 85.7544 97.6251 85.8556 97.3484C85.9636 97.0651 86.0176 96.7547 86.0176 96.4173C86.0176 96.0867 85.9636 95.7798 85.8556 95.4964C85.7544 95.213 85.606 94.9701 85.4103 94.7677C85.2147 94.5586 84.9785 94.3966 84.7019 94.2819C84.432 94.1672 84.1284 94.1099 83.7911 94.1099C83.4537 94.1099 83.1467 94.1672 82.8701 94.2819C82.6002 94.3966 82.3675 94.5586 82.1718 94.7677C81.9761 94.9701 81.8243 95.213 81.7164 95.4964C81.6152 95.7798 81.5646 96.0867 81.5646 96.4173ZM83.8012 90.8511H85.8658L84.1149 92.3084H82.779L83.8012 90.8511ZM88.4873 92.8347H90.2078L91.3514 97.4294H91.3716L92.8695 92.8347H94.3369L95.8246 97.5508H95.8449L97.0492 92.8347H98.6483L96.5533 100H95.1466L93.5678 95.041H93.5475L91.9687 100H90.6126L88.4873 92.8347Z" fill="#292827"/>
</svg>
