<svg width="120" height="86" viewBox="0 0 120 86" fill="none" xmlns="http://www.w3.org/2000/svg">
<path d="M24.0659 86C16.8132 86 10.989 83.7537 6.59341 79.2612C2.1978 74.5547 0 68.3507 0 60.6493C0 46.7438 4.61539 34.8706 13.8462 25.0298C23.0769 14.9751 34.3956 6.63183 47.8022 0L52.4176 6.4179C46.9231 9.84079 41.7582 14.1194 36.9231 19.2537C32.0879 24.1741 28.3516 29.6294 25.7143 35.6194L34.6154 42.0373C38.1319 44.6045 40.989 47.8134 43.1868 51.6642C45.3846 55.301 46.4835 58.9378 46.4835 62.5746C46.4835 69.2065 44.2857 74.7687 39.8901 79.2612C35.7143 83.7537 30.4396 86 24.0659 86ZM91.6484 86C84.3956 86 78.5714 83.7537 74.1758 79.2612C69.7802 74.5547 67.5824 68.3507 67.5824 60.6493C67.5824 46.7438 72.1978 34.8706 81.4286 25.0298C90.6593 14.9751 101.978 6.63183 115.385 0L120 6.4179C114.506 9.84079 109.341 14.1194 104.505 19.2537C99.6703 24.1741 95.9341 29.6294 93.2967 35.6194L102.198 42.0373C105.714 44.6045 108.571 47.8134 110.769 51.6642C112.967 55.301 114.066 58.9378 114.066 62.5746C114.066 69.2065 111.868 74.7687 107.473 79.2612C103.297 83.7537 98.022 86 91.6484 86Z" fill="#B79763"/>
</svg>
