<svg width="120" height="120" viewBox="0 0 120 120" fill="none" xmlns="http://www.w3.org/2000/svg">
<mask id="mask0_763_11274" style="mask-type:alpha" maskUnits="userSpaceOnUse" x="0" y="0" width="120" height="120">
<rect width="120" height="120" fill="#C4C4C4"/>
</mask>
<g mask="url(#mask0_763_11274)">
<path d="M104.4 93.0004C99.4504 93.0004 96.7504 90.9004 94.5004 88.9504C92.2504 87.1504 90.4504 85.6504 86.5504 85.6504C82.6504 85.6504 80.7004 87.1504 78.6004 88.9504C76.2004 90.9004 73.6504 93.0004 68.7004 93.0004C63.7504 93.0004 61.0504 90.9004 58.8004 88.9504C56.5504 87.1504 54.7504 85.6504 50.8504 85.6504C46.9504 85.6504 45.0004 87.1504 42.9004 88.9504C40.6504 90.7504 37.9504 93.0004 33.0004 93.0004C28.0504 93.0004 25.3504 90.9004 23.1004 88.9504C20.8504 87.1504 19.0504 85.6504 15.1504 85.6504V82.6504C20.1004 82.6504 22.8004 84.7504 25.0504 86.7004C27.3004 88.5004 29.1004 90.0004 33.0004 90.0004C36.9004 90.0004 38.8504 88.5004 40.9504 86.7004C43.2004 84.9004 45.9004 82.6504 50.8504 82.6504C55.8004 82.6504 58.5004 84.7504 60.7504 86.7004C62.8504 88.5004 64.6504 90.0004 68.7004 90.0004C72.6004 90.0004 74.5504 88.5004 76.6504 86.7004C78.9004 84.9004 81.6004 82.6504 86.5504 82.6504C91.5004 82.6504 94.2004 84.7504 96.4504 86.7004C98.7004 88.5004 100.5 90.0004 104.4 90.0004V93.0004Z" fill="#B68B1D"/>
<path d="M104.4 75.3002C99.4504 75.3002 96.7504 73.2002 94.5004 71.2502C92.2504 69.4502 90.4504 67.9502 86.5504 67.9502C82.6504 67.9502 80.7004 69.4502 78.6004 71.2502C76.3504 73.0502 73.6504 75.3002 68.7004 75.3002C63.7504 75.3002 61.0504 73.2002 58.8004 71.2502C56.5504 69.4502 54.7504 67.9502 50.8504 67.9502C46.9504 67.9502 45.0004 69.4502 42.9004 71.2502C40.6504 73.0502 37.9504 75.3002 33.0004 75.3002C28.0504 75.3002 25.3504 73.2002 23.1004 71.2502C20.8504 69.4502 19.0504 67.9502 15.1504 67.9502V64.9502C20.1004 64.9502 22.8004 67.0502 25.0504 69.0002C27.3004 70.8002 29.1004 72.3002 33.0004 72.3002C36.9004 72.3002 38.8504 70.8002 40.9504 69.0002C43.2004 67.2002 45.9004 64.9502 50.8504 64.9502C55.8004 64.9502 58.5004 67.0502 60.7504 69.0002C63.0004 70.8002 64.8004 72.3002 68.7004 72.3002C72.6004 72.3002 74.5504 70.8002 76.6504 69.0002C78.9004 67.2002 81.6004 64.9502 86.5504 64.9502C91.5004 64.9502 94.2004 67.0502 96.4504 69.0002C98.7004 70.8002 100.5 72.3002 104.4 72.3002V75.3002Z" fill="#B68B1D"/>
<path d="M104.4 55.9496C99.4504 55.9496 96.7504 53.8496 94.5004 51.8996C92.2504 50.0996 90.4504 48.5996 86.5504 48.5996C82.6504 48.5996 80.7004 50.0996 78.6004 51.8996C76.3504 53.6996 73.6504 55.9496 68.7004 55.9496C63.7504 55.9496 61.0504 53.8496 58.8004 51.8996C56.5504 50.0996 54.7504 48.5996 50.8504 48.5996C46.9504 48.5996 45.0004 50.0996 42.9004 51.8996C40.6504 53.6996 37.9504 55.9496 33.0004 55.9496C28.0504 55.9496 25.3504 53.8496 23.1004 51.8996C20.8504 50.0996 19.0504 48.5996 15.1504 48.5996V45.5996C20.1004 45.5996 22.8004 47.6996 25.0504 49.6496C27.3004 51.4496 29.1004 52.9496 33.0004 52.9496C36.9004 52.9496 38.8504 51.4496 40.9504 49.6496C43.2004 47.8496 45.9004 45.5996 50.8504 45.5996C55.8004 45.5996 58.5004 47.6996 60.7504 49.6496C63.0004 51.4496 64.8004 52.9496 68.7004 52.9496C72.6004 52.9496 74.5504 51.4496 76.6504 49.6496C78.9004 47.8496 81.6004 45.5996 86.5504 45.5996C91.5004 45.5996 94.2004 47.6996 96.4504 49.6496C98.7004 51.4496 100.5 52.9496 104.4 52.9496V55.9496Z" fill="#B68B1D"/>
<path d="M104.4 37.35C99.45 37.35 96.75 35.25 94.5 33.3C92.4 31.5 90.45 30 86.55 30C82.65 30 80.7 31.5 78.6 33.3C76.35 35.1 73.65 37.35 68.7 37.35C63.75 37.35 61.05 35.25 58.8 33.3C56.55 31.5 54.75 30 50.7 30C46.8 30 44.85 31.5 42.75 33.3C40.5 35.1 37.8 37.35 32.85 37.35C27.9 37.35 25.2 35.25 22.95 33.3C20.85 31.5 18.9 30 15 30V27C19.95 27 22.65 29.1 24.9 31.05C27.15 32.85 28.95 34.35 32.85 34.35C36.75 34.35 38.7 32.85 40.8 31.05C43.2 29.1 45.75 27 50.7 27C55.65 27 58.35 29.1 60.6 31.05C62.85 32.85 64.65 34.35 68.55 34.35C72.45 34.35 74.4 32.85 76.5 31.05C78.75 29.25 81.45 27 86.4 27C91.35 27 94.05 29.1 96.3 31.05C98.55 32.85 100.35 34.35 104.25 34.35V37.35H104.4Z" fill="#B68B1D"/>
</g>
</svg>
