<svg width="120" height="120" viewBox="0 0 120 120" fill="none" xmlns="http://www.w3.org/2000/svg">
<mask id="mask0_763_11340" style="mask-type:alpha" maskUnits="userSpaceOnUse" x="0" y="0" width="120" height="120">
<rect width="120" height="120" fill="#C4C4C4"/>
</mask>
<g mask="url(#mask0_763_11340)">
<path d="M78.75 85.65H7.5L38.85 34.5H49.8V37.5H40.65L12.9 82.65H77.1L105.6 37.5H73.05V34.5H111L78.75 85.65Z" fill="#B68B1D"/>
<path d="M49.0508 71.2502H46.0508C46.0508 70.5002 46.0508 48.4502 46.0508 48.4502H49.0508C49.0508 48.4502 49.0508 70.5002 49.0508 71.2502Z" fill="#B68B1D"/>
<path d="M75.4492 71.2502H72.4492C72.4492 70.5002 72.4492 48.4502 72.4492 48.4502H75.4492C75.4492 48.4502 75.4492 70.5002 75.4492 71.2502Z" fill="#B68B1D"/>
<path d="M41.5508 53.2496L40.0508 50.5496L60.9008 38.0996L80.7008 49.9496L79.2008 52.4996L60.9008 41.5496L41.5508 53.2496Z" fill="#B68B1D"/>
</g>
</svg>
