<svg width="120" height="120" viewBox="0 0 120 120" fill="none" xmlns="http://www.w3.org/2000/svg">
<mask id="mask0_763_11300" style="mask-type:alpha" maskUnits="userSpaceOnUse" x="0" y="0" width="120" height="120">
<rect width="120" height="120" fill="#C4C4C4"/>
</mask>
<g mask="url(#mask0_763_11300)">
<path d="M29.55 94.2H18V31.95L23.7 27L29.4 31.95V94.2H29.55ZM21 91.2H26.55V33.3L23.85 30.9L21.15 33.3V91.2H21Z" fill="#B68B1D"/>
<path d="M53.2492 94.2H41.6992V31.95L47.3992 27L53.0992 31.95V94.2H53.2492ZM44.6992 91.2H50.2492V33.3L47.5492 30.9L44.8492 33.3V91.2H44.6992Z" fill="#B68B1D"/>
<path d="M76.9504 94.2H65.4004V31.95L71.1004 27L76.8004 31.95V94.2H76.9504ZM68.4004 91.2H73.9504V33.3L71.2504 30.9L68.5504 33.3V91.2H68.4004Z" fill="#B68B1D"/>
<path d="M100.65 94.2H89.0996V31.95L94.7996 27L100.5 31.95V94.2H100.65ZM92.2496 91.2H97.7996V33.3L95.0996 30.9L92.3996 33.3V91.2H92.2496Z" fill="#B68B1D"/>
<path d="M42.6 52.2002H28.5V55.2002H42.6V52.2002Z" fill="#B68B1D"/>
<path d="M66.2992 52.2002H52.1992V55.2002H66.2992V52.2002Z" fill="#B68B1D"/>
<path d="M90.1508 52.2002H76.0508V55.2002H90.1508V52.2002Z" fill="#B68B1D"/>
<path d="M42.6 79.6504H28.5V82.6504H42.6V79.6504Z" fill="#B68B1D"/>
<path d="M66.2992 79.6504H52.1992V82.6504H66.2992V79.6504Z" fill="#B68B1D"/>
<path d="M90.1508 79.6504H76.0508V82.6504H90.1508V79.6504Z" fill="#B68B1D"/>
</g>
</svg>
