<svg width="120" height="120" viewBox="0 0 120 120" fill="none" xmlns="http://www.w3.org/2000/svg">
<mask id="mask0_763_11325" style="mask-type:alpha" maskUnits="userSpaceOnUse" x="0" y="0" width="120" height="120">
<rect width="120" height="120" fill="#C4C4C4"/>
</mask>
<g mask="url(#mask0_763_11325)">
<path d="M49.95 99.4502C34.8 99.4502 22.5 87.1502 22.5 72.0002C22.5 48.0002 48 29.7002 49.2 28.8002L50.1 28.2002L51 28.8002C52.05 29.5502 77.55 48.4502 77.55 71.8502C77.4 87.1502 65.1 99.4502 49.95 99.4502ZM49.95 31.9502C45.45 35.4002 25.5 51.9002 25.5 72.0002C25.5 85.5002 36.45 96.4502 49.95 96.4502C63.45 96.4502 74.4001 85.5002 74.4001 72.0002C74.4001 52.3502 54.3 35.4002 49.95 31.9502Z" fill="#B68B1D"/>
<path d="M87.7496 44.85C82.1996 44.85 77.8496 40.35 77.8496 34.95C77.8496 26.7 86.5496 20.4 86.8496 20.1L87.7496 19.5L88.6496 20.1C88.9496 20.4 97.6496 26.85 97.6496 34.95C97.6496 40.35 93.2996 44.85 87.7496 44.85ZM87.7496 23.25C85.6496 24.9 80.8496 29.55 80.8496 34.95C80.8496 38.7 83.9996 41.85 87.7496 41.85C91.4996 41.85 94.6496 38.7 94.6496 34.95C94.6496 29.7 89.8496 24.9 87.7496 23.25Z" fill="#B68B1D"/>
<path d="M49.1992 89.9996C43.1992 88.7996 35.3992 84.8996 31.9492 73.4996L34.7993 72.5996V72.7496C37.7993 82.6496 44.5493 86.0996 49.7993 87.1496L49.1992 89.9996Z" fill="#B68B1D"/>
</g>
</svg>
