<svg width="120" height="120" viewBox="0 0 120 120" fill="none" xmlns="http://www.w3.org/2000/svg">
<mask id="mask0_763_11289" style="mask-type:alpha" maskUnits="userSpaceOnUse" x="0" y="0" width="120" height="120">
<rect width="120" height="120" fill="#C4C4C4"/>
</mask>
<g mask="url(#mask0_763_11289)">
<path d="M34.05 94.9498L33.15 94.3498C32.4 93.8998 16.5 82.0498 16.5 67.3498C16.5 57.7498 24.3 49.7998 34.05 49.7998C43.8 49.7998 51.6 57.5998 51.6 67.3498C51.6 82.4998 35.7 93.8998 34.95 94.3498L34.05 94.9498ZM34.05 52.7998C26.1 52.7998 19.5 59.2498 19.5 67.3498C19.5 78.7498 30.75 88.6498 34.05 91.1998C37.35 88.6498 48.6 78.8998 48.6 67.3498C48.6 59.2498 42 52.7998 34.05 52.7998Z" fill="#B68B1D"/>
<path d="M34.0493 75.2996C29.5493 75.2996 25.9492 71.6996 25.9492 67.1996C25.9492 62.6996 29.5493 59.0996 34.0493 59.0996C38.5493 59.0996 42.1492 62.6996 42.1492 67.1996C42.1492 71.6996 38.5493 75.2996 34.0493 75.2996ZM34.0493 62.0996C31.1993 62.0996 28.9492 64.3496 28.9492 67.1996C28.9492 70.0496 31.1993 72.2996 34.0493 72.2996C36.8993 72.2996 39.1492 70.0496 39.1492 67.1996C39.1492 64.3496 36.8993 62.0996 34.0493 62.0996Z" fill="#B68B1D"/>
<path d="M84.6008 60.15L83.7007 59.55C82.9507 59.1 67.0508 47.25 67.0508 32.55C67.0508 22.95 74.8508 15 84.6008 15C94.3508 15 102.151 22.8 102.151 32.55C102.151 47.7 86.2508 59.1 85.5008 59.55L84.6008 60.15ZM84.6008 18.15C76.6508 18.15 70.0508 24.6 70.0508 32.7C70.0508 44.1 81.3008 54 84.6008 56.55C87.9008 54 99.1507 44.25 99.1507 32.7C99.1507 24.6 92.5508 18.15 84.6008 18.15Z" fill="#B68B1D"/>
<path d="M84.6 40.6502C80.1 40.6502 76.5 37.0502 76.5 32.5502C76.5 28.0502 80.1 24.4502 84.6 24.4502C89.1 24.4502 92.7 28.0502 92.7 32.5502C92.7 37.0502 89.1 40.6502 84.6 40.6502ZM84.6 27.4502C81.75 27.4502 79.5 29.7002 79.5 32.5502C79.5 35.4002 81.75 37.6502 84.6 37.6502C87.45 37.6502 89.7 35.4002 89.7 32.5502C89.7 29.7002 87.45 27.4502 84.6 27.4502Z" fill="#B68B1D"/>
<path d="M39.1507 102C37.8007 101.4 36.6008 100.65 35.5508 100.05L37.2007 97.5C38.1007 98.1 39.3008 98.7 40.5008 99.3L39.1507 102Z" fill="#B68B1D"/>
<path d="M52.95 105.3C50.4 105.3 47.7 104.85 45 104.1L45.75 101.25C48.3 102 50.7 102.3 52.95 102.3L53.1 105.3H52.95ZM59.4 104.25L58.35 101.4C60.45 100.65 62.25 99.4498 63.6 97.7998C63.75 97.6498 63.75 97.4998 63.9 97.3498L66.3 99.1498C66.15 99.2998 66 99.4498 65.85 99.7498C64.35 101.85 62.1 103.35 59.4 104.25ZM68.85 92.9998L65.85 92.5498C66 91.6498 66 90.7498 66 89.6998C66 88.3498 65.85 86.8498 65.7 85.0498L68.7 84.7498C69 86.6998 69 88.3498 69 89.6998C69.15 90.8998 69 92.0998 68.85 92.9998ZM64.95 79.1998C64.8 77.5498 64.65 76.1998 64.65 74.9998C64.65 73.3498 64.8 71.9998 65.1 70.7998L67.95 71.5498C67.65 72.5998 67.5 73.6498 67.5 74.9998C67.5 76.0498 67.65 77.2498 67.8 78.8998L64.95 79.1998ZM70.65 67.4998L68.85 65.0998C70.8 63.5998 73.35 62.5498 76.65 61.7998L77.25 64.7998C74.4 65.3998 72.3 66.2998 70.65 67.4998Z" fill="#B68B1D"/>
<path d="M82.9507 64.1998L82.8008 61.1998C84.0008 61.1998 85.3508 61.0498 86.8508 61.0498V64.0498C85.5008 64.0498 84.1507 64.0498 82.9507 64.1998Z" fill="#B68B1D"/>
</g>
</svg>
