<svg class="plots-map__svg" xmlns="http://www.w3.org/2000/svg" xmlns:xlink="http://www.w3.org/1999/xlink"
     viewBox="0 0 1920 1082">
    <g>
        <g>
            <g data-plots-sector-selector="A">
                <path d="M20.136,0,0,220.944,44.453,239.43l-1.54,39.611,2.37,7.922,56.252,20.464,8.278-110.14s9.453-74.47,10.452-81.517,9.023-53.713,9.023-53.713L72.951,21.346Z"
                      transform="translate(138.756 761.545) rotate(-90)"></path>
            </g>
            <g data-plots-sector-selector="B">
                <path d="M8777.884,601.621,8766.33,633.53l288.385,5.952-3-17.2h-20.62l.53-12.014-116.929-1.2Z"
                      transform="translate(-8329.179 58.477)"></path>
            </g>
            <g data-plots-sector-selector="C">
                <path d="M8913.816,479.962,8902.422,531.6l-98.616-.687-9.927,25.608,137.61,1.561-5.37,18.518,28.936.414,86.731.033-3.265-17.405-1.192-27.036-.5-1.947v-1.679l-.162-2.718s-.383-7.457-.4-9.185.211-4.953.211-4.953-.079-19.213-.592-23.361a48.769,48.769,0,0,0-2.114-8.718Z"
                      transform="translate(-8326.256 41.401)"></path>
                <path d="M1812.654,553.575l1.381,17.955,142.123-1.8-2.072-16.712Z"
                      transform="translate(-1095)"></path>
            </g>
            <g data-plots-sector-selector="D">
                <path d="M9019.342,570.551,9023.831,614s147.331-6.732,151.644-6.732,108.1-4.186,114.088-2.978c-5.748-13.3-16.416-40.651-16.416-40.651s-119.784,3.788-128.656,4.03S9019.342,570.551,9019.342,570.551Z"
                      transform="translate(-8293.681 52.675)"></path>
            </g>
            <g data-plots-sector-selector="E">
                <path d="M9262.154,608.562s36.294-4.14,77.4-9.679c41.807-5.633,88.509-12.677,91.14-13.043,5.174-.719,73.052-9.491,81.391-10.354,4.187-.433,20.693-1.849,40.584-4.213,19.16-2.277,41.722-5.5,41.722-5.5s-32.668-11.55-46.324-16.008-35.518-10.806-35.518-10.806-23.183,4.03-53.383,7.05-88.295,7.478-97.788,8.772-62.557,5.464-69.461,6.471-47.32,5.029-47.32,5.029Z"
                      transform="translate(-8262.145 49.345)"></path>
            </g>
            <g data-plots-sector-selector="F">
                <path d="M1209.111,531.815l23.514,16.1,54.114-8.081,23.507,13.223,106.026-16.9-40.4-21.059s-64.889,4.653-68.072,4.653-61.461-6.611-61.461-6.611l-5.24,1,15.894,10.815Z"></path>
            </g>
        </g>
    </g>
</svg>