<svg width="16" height="16" viewBox="0 0 16 16" fill="none" xmlns="http://www.w3.org/2000/svg">
<path fill-rule="evenodd" clip-rule="evenodd" d="M5.44524 14.4748C5.11862 14.0767 4.7623 13.7035 4.3793 13.3582C3.62958 12.6891 2.7958 12.1185 1.89861 11.6607C2.32221 12.3078 2.84834 12.8832 3.45678 13.3646C3.65889 13.4937 3.85448 13.6325 4.05006 13.7842C4.48794 14.0647 4.95586 14.2963 5.44524 14.4748ZM14.2466 11.2217C13.5256 11.418 12.8324 11.7032 12.1832 12.0705C11.0512 12.7429 9.99079 13.5268 9.01796 14.4102C9.08641 14.5393 9.15161 14.6717 9.21681 14.804C9.36675 14.7782 9.5167 14.7459 9.66665 14.7104C10.525 13.9369 11.4924 13.2911 12.5385 12.7934C12.8189 12.6611 13.1025 12.5449 13.3861 12.4416C13.7197 12.0665 14.0125 11.6576 14.2597 11.2217H14.2466ZM5.36701 9.50164C5.19725 8.86773 4.98823 8.24477 4.74113 7.6363C4.61726 7.31358 4.48361 7.02635 4.3467 6.73268L4.87478 6.38413C5.03125 6.70686 5.18446 7.06185 5.32463 7.41685C5.4648 7.77184 5.57238 8.06229 5.67995 8.36888C5.80056 7.94288 5.93747 7.52012 6.08416 7.10381V7.05863C5.96239 6.69106 5.82093 6.33018 5.66039 5.9775L5.61149 5.86778L6.1135 5.51924C6.14936 5.59024 6.18195 5.66124 6.21455 5.73224C6.28301 5.88391 6.3482 6.03882 6.41014 6.1905C6.57965 5.76773 6.76219 5.35142 6.95452 4.93834L7.72709 4.40585L7.85422 4.46716C7.39001 5.38581 6.98393 6.33214 6.63832 7.30067C6.29203 8.27951 6.0207 9.28279 5.82664 10.302C6.00918 10.4633 6.18521 10.6247 6.35472 10.799C6.57744 9.64011 6.91933 8.50683 7.37503 7.41685C7.74265 6.50701 8.17851 5.62567 8.67894 4.7802L9.17768 5.12552C8.70182 5.93326 8.28671 6.77462 7.93571 7.64275C7.44625 8.79244 7.09821 9.99623 6.89911 11.2282L6.86976 11.325C7.08491 11.5542 7.17293 11.6768 7.37177 11.9188C7.60763 10.6544 7.9803 9.41878 8.48336 8.23334C8.85901 7.31218 9.30357 6.42007 9.81334 5.56442L10.3219 5.90651C9.83602 6.72521 9.41218 7.57846 9.05382 8.45924C8.48836 9.76055 8.10346 11.1317 7.90963 12.5352L7.88355 12.574C7.93897 12.6482 7.96505 12.6772 8.01721 12.7515C8.22257 12.5772 8.42794 12.4061 8.63656 12.2416C8.78286 11.0581 9.10355 9.90235 9.58842 8.81101C9.96286 7.94787 10.4237 7.12404 10.964 6.35186L11.4595 6.69395C10.9482 7.43405 10.5115 8.22204 10.1556 9.0466C9.77506 9.90417 9.49823 10.8033 9.33089 11.7252C9.62101 11.5154 9.91765 11.3153 10.2176 11.1249C10.5528 10.1067 10.9896 9.12397 11.5215 8.19138C11.7301 7.82671 11.9485 7.49753 12.1734 7.17158L12.6526 7.52012C12.4342 7.84284 12.2288 8.1462 12.03 8.48829C11.6378 9.17542 11.3031 9.89319 11.0292 10.6344L11.2281 10.5247C11.5019 10.3741 11.779 10.2288 12.0593 10.089H12.0332C12.2801 9.52334 12.5895 8.9865 12.9558 8.48829C13.0796 8.31402 13.2068 8.14297 13.3372 7.97839L13.8359 8.32047C13.7023 8.48829 13.5719 8.65933 13.448 8.8336C13.25 9.10822 13.0661 9.39258 12.8971 9.68559C13.5034 9.4145 14.1228 9.17246 14.7519 8.95301L14.9996 9.12405C14.9736 9.26282 14.9475 9.39837 14.9149 9.53068C13.7431 9.93812 12.608 10.4423 11.5215 11.0378C10.3903 11.6575 9.33012 12.3965 8.35948 13.242C8.48661 13.4453 8.61374 13.6486 8.73435 13.8584C9.70812 12.9799 10.7685 12.2003 11.8996 11.5316C12.745 11.0601 13.6554 10.7133 14.6019 10.5021C14.8752 9.84931 15.0477 9.15958 15.1137 8.45601C15.2181 7.36742 15.0681 6.26965 14.6754 5.24763C14.2827 4.2256 13.6578 3.30671 12.8489 2.56204C12.0401 1.81737 11.0691 1.26688 10.0111 0.953153C8.95299 0.639429 7.83619 0.570879 6.74707 0.752807C5.65796 0.934735 4.62571 1.36226 3.73019 2.00232C2.83466 2.64238 2.09986 3.47781 1.58263 4.44398C1.0654 5.41015 0.779599 6.48118 0.747342 7.57419C0.715085 8.66721 0.937236 9.75292 1.39661 10.7473C2.63598 11.2862 3.78131 12.016 4.79003 12.9096C5.40362 13.4568 5.95061 14.0731 6.41992 14.7459C6.69956 14.8064 6.98256 14.8506 7.26746 14.8782H7.29679C6.92779 14.2329 6.49071 13.6282 5.99288 13.0742C4.70853 11.6542 3.05909 10.586 0.992392 9.56295L1.26295 9.02723C3.37855 10.0825 5.09971 11.1895 6.44273 12.674C7.05631 13.3516 7.58295 14.1017 8.01068 14.9072C8.21279 14.9072 8.4149 14.9072 8.61375 14.8782C8.16275 13.9809 7.61636 13.1338 6.98386 12.3513C5.60918 10.6911 3.88915 9.34377 1.94099 8.40115L2.50167 8.01388C2.945 8.24624 3.37529 8.49474 3.78602 8.75937C3.63281 8.40115 3.44048 7.98484 3.21882 7.51689L3.72083 7.16835C4.06551 7.85406 4.37025 8.55875 4.63356 9.27896L4.57814 9.29832C4.82589 9.47582 5.06711 9.65977 5.29856 9.85018C5.32789 9.734 5.35397 9.61782 5.38005 9.50164H5.36701ZM15.6386 8.53347C15.4895 10.0421 14.8919 11.4731 13.9214 12.6456C12.9508 13.818 11.6509 14.6792 10.186 15.1203C8.72114 15.5613 7.15704 15.5625 5.69149 15.1235C4.22595 14.6845 2.92479 13.8252 1.95253 12.6542C0.980276 11.4832 0.380588 10.053 0.229298 8.54456C0.078007 7.03613 0.381907 5.51715 1.10257 4.17969C1.82324 2.84224 2.9283 1.74638 4.27804 1.03067C5.62777 0.314966 7.16156 0.011559 8.68546 0.158815C10.7292 0.353212 12.6113 1.34336 13.9176 2.91147C15.224 4.47957 15.8477 6.4972 15.6516 8.52056L15.6386 8.53347Z" fill="#2E2D4D"/>
</svg>
