<svg width="24" height="24" viewBox="0 0 24 24" fill="none" xmlns="http://www.w3.org/2000/svg">
<path d="M7.28796 3.46399C7.43396 3.51266 7.64896 3.82132 7.93296 4.38999C8.02229 4.54399 8.14396 4.76299 8.29796 5.04699C8.45196 5.33099 8.59396 5.58866 8.72396 5.81999C8.85396 6.05199 8.97996 6.26932 9.10196 6.47199C9.12596 6.50399 9.19696 6.60599 9.31496 6.77199C9.41265 6.90945 9.50021 7.05383 9.57696 7.20399C9.63129 7.3117 9.66036 7.43037 9.66196 7.55099C9.6227 7.78891 9.49962 8.00492 9.31496 8.15999C9.08297 8.40456 8.83037 8.62872 8.55996 8.82999C8.29401 9.02768 8.04176 9.24318 7.80496 9.47499C7.62463 9.61331 7.5012 9.81288 7.45796 10.036C7.46231 10.1302 7.48295 10.2229 7.51896 10.31C7.55996 10.419 7.59396 10.502 7.61896 10.559C7.64396 10.616 7.70496 10.713 7.78996 10.851C7.87496 10.989 7.92196 11.067 7.92996 11.083C8.49909 12.131 9.21237 13.0941 10.049 13.944C10.8989 14.7806 11.8619 15.4939 12.91 16.063C12.926 16.071 13.004 16.118 13.142 16.203C13.28 16.288 13.377 16.345 13.434 16.374C13.491 16.403 13.574 16.436 13.683 16.474C13.7701 16.51 13.8628 16.5306 13.957 16.535C14.1801 16.4918 14.3796 16.3683 14.518 16.188C14.7498 15.9512 14.9653 15.6989 15.163 15.433C15.3642 15.1626 15.5884 14.91 15.833 14.678C15.988 14.4933 16.204 14.3703 16.442 14.331C16.5626 14.3326 16.6813 14.3617 16.789 14.416C16.9391 14.4927 17.0835 14.5803 17.221 14.678C17.391 14.796 17.493 14.867 17.521 14.891C17.721 15.013 17.9383 15.139 18.173 15.269C18.4076 15.399 18.6653 15.541 18.946 15.695C19.23 15.849 19.449 15.9707 19.603 16.06C20.1716 16.344 20.4803 16.559 20.529 16.705C20.5569 16.7873 20.5691 16.8742 20.565 16.961C20.5556 17.2508 20.5151 17.5388 20.444 17.82C20.3834 18.105 20.2977 18.3841 20.188 18.654C19.8371 19.2266 19.3182 19.6771 18.702 19.944C17.8274 20.4563 16.8062 20.6602 15.802 20.523C15.5655 20.488 15.3317 20.4372 15.102 20.371C14.842 20.2977 14.6493 20.2387 14.524 20.194C14.3986 20.1493 14.1733 20.066 13.848 19.944C13.5226 19.8227 13.3226 19.7497 13.248 19.725C12.5037 19.4651 11.7893 19.1266 11.117 18.715C9.9478 17.9697 8.86835 17.0923 7.89996 16.1C6.90401 15.1312 6.02318 14.0507 5.27496 12.88C4.8634 12.2076 4.52481 11.4933 4.26496 10.749C4.24029 10.6757 4.16729 10.4757 4.04596 10.149C3.92463 9.82233 3.84263 9.59699 3.79996 9.47299C3.75529 9.34833 3.69629 9.15566 3.62296 8.89499C3.55677 8.6653 3.50599 8.43145 3.47096 8.19499C3.3338 7.19076 3.53769 6.16956 4.04996 5.29499C4.31685 4.67875 4.76733 4.15982 5.33996 3.80899C5.60987 3.69922 5.88895 3.61356 6.17396 3.55299C6.45511 3.4819 6.74311 3.44133 7.03296 3.43199C7.11921 3.42664 7.2057 3.4375 7.28796 3.46399Z" stroke="#8D8D9A" stroke-miterlimit="10"/>
</svg>
