<svg xmlns="http://www.w3.org/2000/svg" xmlns:xlink="http://www.w3.org/1999/xlink" width="359.17" height="63.198" viewBox="0 0 359.17 63.198">
  <defs>
    <clipPath id="clip-path">
      <rect id="Rectangle_685" data-name="Rectangle 685" width="359.17" height="63.198" fill="none"/>
    </clipPath>
    <clipPath id="clip-path-26">
      <path id="Path_1605" data-name="Path 1605" d="M58.86,76.593A24,24,0,1,0,85.039,55c-.779-.074-1.554-.112-2.319-.112A24,24,0,0,0,58.86,76.593" transform="translate(-58.748 -54.887)" fill="#cbb284"/>
    </clipPath>
    <clipPath id="clip-path-27">
      <rect id="Rectangle_712" data-name="Rectangle 712" width="50.31" height="49.154" fill="#cbb284"/>
    </clipPath>
  </defs>
  <g id="Layer_1" data-name="Layer 1" transform="translate(-2.052 -54.371)">
    <g id="Group_1196" data-name="Group 1196" transform="translate(2.052 54.371)">
      <g id="Group_1147" data-name="Group 1147">
        <g id="Group_1146" data-name="Group 1146" clip-path="url(#clip-path)">
          <path id="Path_1579" data-name="Path 1579" d="M3.107,80.848H2.635q.128-.846.21-2.494c1.78.047,2.91.074,3.4.074,1.151,0,2.33-.027,3.539-.074v.4c-.421.537-.8,1.032-1.139,1.48S7.708,81.5,6.855,82.69l-2.01,2.774q-.668.907-1.05,1.462h4a1.37,1.37,0,0,0,.927-.231,3.675,3.675,0,0,0,.6-1.193c.036-.092.087-.228.157-.41h.472l-.3,1.54-.177,1.032q-2.341-.071-3.172-.072-1.3,0-4.251.072v-.432q.84-1.068,1.46-1.9Q4.523,83.98,8.073,79.1H4.735a1.64,1.64,0,0,0-1.014.224,2.455,2.455,0,0,0-.51,1.169c-.02.078-.054.2-.1.356" transform="translate(-2.05 -24.663)" fill="#cbb284"/>
        </g>
      </g>
      <g id="Group_1149" data-name="Group 1149">
        <g id="Group_1148" data-name="Group 1148" clip-path="url(#clip-path)">
          <path id="Path_1580" data-name="Path 1580" d="M10.631,87.666v-.387c.152-.034.266-.051.34-.065a2.922,2.922,0,0,0,.985-.262.67.67,0,0,0,.148-.4,17.261,17.261,0,0,0,.054-1.849l-.007-.88q-.551-.88-1.825-2.769l-1.2-1.73a1.106,1.106,0,0,0-.322-.255,4.093,4.093,0,0,0-.969-.327v-.39c.69.047,1.305.074,1.842.074s1.169-.027,1.932-.074v.39a3.749,3.749,0,0,0-.866.273.232.232,0,0,0-.116.175.679.679,0,0,0,.112.275q.591,1.028,2.248,3.564.826-1.313,2.158-3.582a.807.807,0,0,0,.139-.316A.155.155,0,0,0,15.213,79a3.064,3.064,0,0,0-.918-.253v-.39c.8.047,1.381.074,1.746.074.437,0,.976-.027,1.614-.074v.39a3.563,3.563,0,0,0-1.142.369,3.192,3.192,0,0,0-.795.9q-1,1.481-2.369,3.676c0,.219-.007.347-.007.387,0,1.525.007,2.364.027,2.516a.5.5,0,0,0,.146.338,3.322,3.322,0,0,0,1.1.309c.051.009.128.025.231.047v.387c-.813-.047-1.473-.072-1.975-.072-.407,0-1.153.022-2.243.069" transform="translate(5.117 -24.665)" fill="#cbb284"/>
        </g>
      </g>
      <g id="Group_1151" data-name="Group 1151">
        <g id="Group_1150" data-name="Group 1150" clip-path="url(#clip-path)">
          <path id="Path_1581" data-name="Path 1581" d="M19.991,80.973h-.5a4.488,4.488,0,0,0-.385-1.234,1.5,1.5,0,0,0-.658-.607,2.192,2.192,0,0,0-.994-.222,1.757,1.757,0,0,0-1.245.43,1.4,1.4,0,0,0-.463,1.054,1.361,1.361,0,0,0,.381.954,6.046,6.046,0,0,0,1.829,1.028,5.115,5.115,0,0,1,1.979,1.285,2.4,2.4,0,0,1,.517,1.5,2.666,2.666,0,0,1-.39,1.395,2.733,2.733,0,0,1-1.173,1.028,3.785,3.785,0,0,1-1.692.385,6.618,6.618,0,0,1-1.236-.119,11.739,11.739,0,0,1-1.486-.407,24.466,24.466,0,0,0,.1-2.456h.506a5,5,0,0,0,.45,1.379,1.782,1.782,0,0,0,.7.647,2.2,2.2,0,0,0,1.034.253,2.219,2.219,0,0,0,1.357-.437A1.426,1.426,0,0,0,19.2,85.62a1.693,1.693,0,0,0-.419-1.131,5.528,5.528,0,0,0-1.849-1.1,5.391,5.391,0,0,1-1.9-1.18,1.967,1.967,0,0,1-.479-1.332,2.375,2.375,0,0,1,.387-1.287,2.654,2.654,0,0,1,1.137-.972,3.607,3.607,0,0,1,1.56-.358,7.6,7.6,0,0,1,2.348.466c-.022.64-.034,1.025-.034,1.157,0,.269.011.629.034,1.086" transform="translate(13.335 -24.775)" fill="#cbb284"/>
        </g>
      </g>
      <g id="Group_1153" data-name="Group 1153">
        <g id="Group_1152" data-name="Group 1152" clip-path="url(#clip-path)">
          <path id="Path_1582" data-name="Path 1582" d="M19.6,78.743v-.39c.934.047,1.61.074,2.03.074.152,0,.293,0,.416-.009l1.813-.065v.39l-.284.056a6.419,6.419,0,0,0-1.012.24.351.351,0,0,0-.137.188c-.018.051-.034.5-.047,1.339L22.35,82.9a38.914,38.914,0,0,0,3.405-3.145c.289-.3.434-.508.434-.634a.18.18,0,0,0-.072-.143,2.862,2.862,0,0,0-.69-.2c-.034-.011-.085-.022-.15-.04v-.39c.616.047,1.153.074,1.61.074.345,0,1-.027,1.968-.074v.39a10.462,10.462,0,0,0-1.09.293,1.481,1.481,0,0,0-.322.184L26.288,80.3,24.5,81.935l-.806.716q.635.675,2.127,2.077l2.107,1.932a1.641,1.641,0,0,0,.441.262,14.339,14.339,0,0,0,1.444.354v.39q-1.5-.071-2.084-.072c-.327,0-1.09.025-2.283.072v-.387a2.96,2.96,0,0,0,.705-.2.2.2,0,0,0,.09-.146.4.4,0,0,0-.125-.233q-.48-.551-2.8-2.751l-.965-.929.013,3.367a1.18,1.18,0,0,0,.054.472.432.432,0,0,0,.242.17c.092.031.49.119,1.193.253v.39q-1.118-.071-2.017-.072c-.571,0-1.316.025-2.241.072v-.39c.139-.031.246-.049.316-.063a2.856,2.856,0,0,0,1.043-.262c.072-.06.11-.226.116-.488q.047-1.172.047-3.134l-.029-3.575a2.509,2.509,0,0,0-.031-.553.26.26,0,0,0-.09-.116,3.654,3.654,0,0,0-1.084-.289,2.769,2.769,0,0,1-.287-.056" transform="translate(19.678 -24.665)" fill="#cbb284"/>
        </g>
      </g>
      <g id="Group_1155" data-name="Group 1155">
        <g id="Group_1154" data-name="Group 1154" clip-path="url(#clip-path)">
          <path id="Path_1583" data-name="Path 1583" d="M33.459,78.743v-.39c.8.047,1.54.074,2.216.074.441,0,.9-.009,1.384-.027s.848-.027,1.113-.027a3,3,0,0,1,2,.564,1.843,1.843,0,0,1,.651,1.448,2.231,2.231,0,0,1-.246.994,2.3,2.3,0,0,1-.694.828,3.474,3.474,0,0,1-1,.461,3.8,3.8,0,0,1,1.088.2,2.05,2.05,0,0,1,.92.714,2,2,0,0,1,.34,1.193,2.592,2.592,0,0,1-1.366,2.3,5.259,5.259,0,0,1-2.749.578c-.278,0-.707-.013-1.294-.043-.407-.02-.631-.031-.676-.031q-.118,0-1.692.072v-.387c.137-.034.237-.051.309-.065a3.917,3.917,0,0,0,1.057-.278c.054-.04.087-.152.1-.331.034-.407.054-1.56.054-3.461l-.013-2.9a3.913,3.913,0,0,0-.085-1.068.31.31,0,0,0-.139-.128,9.109,9.109,0,0,0-1-.244,2.619,2.619,0,0,1-.278-.058m2.709,3.748c.394,0,.613,0,.656,0a5.178,5.178,0,0,0,1.619-.184,1.657,1.657,0,0,0,.828-.647,1.85,1.85,0,0,0,.316-1.072,1.5,1.5,0,0,0-.625-1.312,2.575,2.575,0,0,0-1.455-.318,8.973,8.973,0,0,0-1.26.1c-.056.663-.085,1.567-.085,2.72,0,.163,0,.4.007.71m.007,4.468a8.646,8.646,0,0,0,1.258.105,2.617,2.617,0,0,0,1.858-.578A2.074,2.074,0,0,0,39.9,84.9a1.778,1.778,0,0,0-.34-1.128,1.7,1.7,0,0,0-.824-.584,5.528,5.528,0,0,0-1.534-.15c-.416,0-.759,0-1.03.013Z" transform="translate(36.852 -24.665)" fill="#cbb284"/>
        </g>
      </g>
      <g id="Group_1157" data-name="Group 1157">
        <g id="Group_1156" data-name="Group 1156" clip-path="url(#clip-path)">
          <path id="Path_1584" data-name="Path 1584" d="M42.079,82.463h1.587a6.4,6.4,0,0,0,1.084-.049.49.49,0,0,0,.266-.2,3.465,3.465,0,0,0,.253-.873c.013-.047.034-.123.058-.224h.434c-.049.721-.072,1.276-.072,1.666s.022.956.072,1.654h-.434c-.128-.634-.206-.987-.235-1.063a.4.4,0,0,0-.228-.226,3.736,3.736,0,0,0-.981-.069h-1.8l.034,3.859h2.749l.244-.007a3.085,3.085,0,0,0,.707-.047,1.046,1.046,0,0,0,.441-.287,7.126,7.126,0,0,0,.7-1.133c.036-.06.09-.148.157-.266h.452c-.051.139-.325.963-.813,2.467q-2.388-.071-4.365-.072c-.92,0-1.932.025-3.045.072v-.387l1.066-.231a.709.709,0,0,0,.316-.143.927.927,0,0,0,.1-.519v-.116l.034-1.542c0-.3,0-.882,0-1.751,0-1.263,0-2.192-.013-2.78a4.418,4.418,0,0,0-.067-1,.322.322,0,0,0-.119-.128,3.339,3.339,0,0,0-.607-.166l-.71-.157v-.39c.824.047,1.8.074,2.946.074q.937,0,4.464-.074a18.174,18.174,0,0,0,.159,2.243h-.461a7.192,7.192,0,0,0-.425-1.184.548.548,0,0,0-.275-.269,3.261,3.261,0,0,0-.96-.085H42.146L42.1,81.169Z" transform="translate(44.147 -24.665)" fill="#cbb284"/>
        </g>
      </g>
      <g id="Group_1159" data-name="Group 1159">
        <g id="Group_1158" data-name="Group 1158" clip-path="url(#clip-path)">
          <path id="Path_1585" data-name="Path 1585" d="M46.589,80.848h-.472q.124-.846.21-2.494c1.778.047,2.91.074,3.4.074,1.153,0,2.333-.027,3.542-.074v.4c-.421.537-.8,1.032-1.139,1.48s-.938,1.267-1.791,2.454l-2.008,2.774c-.448.6-.8,1.092-1.052,1.462h4A1.374,1.374,0,0,0,52.2,86.7a3.584,3.584,0,0,0,.6-1.193c.036-.092.087-.228.159-.41h.47l-.293,1.54-.177,1.032q-2.341-.071-3.172-.072-1.3,0-4.249.072v-.432q.84-1.068,1.457-1.9,1.011-1.357,4.56-6.237H48.221a1.639,1.639,0,0,0-1.014.224,2.437,2.437,0,0,0-.508,1.169c-.027.078-.06.2-.11.356" transform="translate(51.813 -24.663)" fill="#cbb284"/>
        </g>
      </g>
      <g id="Group_1161" data-name="Group 1161">
        <g id="Group_1160" data-name="Group 1160" clip-path="url(#clip-path)">
          <path id="Path_1586" data-name="Path 1586" d="M51.385,78.743v-.39c.564.047,1.287.074,2.167.074l2.592-.027a3.063,3.063,0,0,1,2.107.607,2.176,2.176,0,0,1,.663,1.675,2.7,2.7,0,0,1-.893,2.06,3.47,3.47,0,0,1-2.454.828,7.35,7.35,0,0,1-1.431-.17c0,.683-.007,1.169-.007,1.462a14.335,14.335,0,0,0,.065,1.936.256.256,0,0,0,.125.17,5.61,5.61,0,0,0,1.236.255c.06.011.148.027.262.051v.387c-.833-.047-1.607-.072-2.33-.072-.683,0-1.381.025-2.1.072v-.387c.17-.043.3-.072.381-.085a4.156,4.156,0,0,0,.965-.255c.11-.1.163-.351.163-.768l.02-3.179-.007-3.174v-.143a.78.78,0,0,0-.128-.537,3.62,3.62,0,0,0-1.068-.318c-.069-.011-.181-.036-.329-.072m2.758,4.108a5.638,5.638,0,0,0,1.193.157A2.3,2.3,0,0,0,57,82.441a1.984,1.984,0,0,0,.587-1.5,1.864,1.864,0,0,0-.542-1.426A2.341,2.341,0,0,0,55.388,79a7.947,7.947,0,0,0-1.189.105q-.05,1.985-.056,3.743" transform="translate(59.056 -24.665)" fill="#cbb284"/>
        </g>
      </g>
      <g id="Group_1163" data-name="Group 1163">
        <g id="Group_1162" data-name="Group 1162" clip-path="url(#clip-path)">
          <path id="Path_1587" data-name="Path 1587" d="M61.4,78.353v.39c-.154.036-.269.056-.343.072a2.641,2.641,0,0,0-1.01.284.892.892,0,0,0-.139.6v.231l-.034,2.639L59.9,86.4a.86.86,0,0,0,.134.584,2.262,2.262,0,0,0,.922.219c.1.011.246.036.441.074v.39q-1.058-.07-2.035-.072c-.674,0-1.415.025-2.219.072v-.392a2.632,2.632,0,0,1,.289-.063,2.941,2.941,0,0,0,1.066-.28.981.981,0,0,0,.137-.645l-.013-.327.02-2.409q0-3.714-.02-4.11a.456.456,0,0,0-.141-.331,3.031,3.031,0,0,0-.99-.284c-.078-.018-.193-.045-.347-.083v-.39c.951.047,1.695.074,2.227.074.6,0,1.274-.029,2.033-.078" transform="translate(66.19 -24.665)" fill="#cbb284"/>
        </g>
      </g>
      <g id="Group_1165" data-name="Group 1165">
        <g id="Group_1164" data-name="Group 1164" clip-path="url(#clip-path)">
          <path id="Path_1588" data-name="Path 1588" d="M64.075,82.463h1.587a6.4,6.4,0,0,0,1.084-.049.49.49,0,0,0,.266-.2,3.463,3.463,0,0,0,.253-.873c.013-.047.034-.123.058-.224h.432c-.047.721-.074,1.276-.074,1.666s.025.956.074,1.654h-.432c-.128-.634-.206-.987-.235-1.063a.4.4,0,0,0-.231-.226,3.714,3.714,0,0,0-.978-.069h-1.8l.031,3.859h2.751l.244-.007a3.084,3.084,0,0,0,.707-.047,1.039,1.039,0,0,0,.439-.287,6.957,6.957,0,0,0,.7-1.133c.036-.06.09-.148.157-.266h.454c-.051.139-.325.963-.813,2.467q-2.388-.071-4.365-.072-1.38,0-3.045.072v-.387l1.063-.231a.683.683,0,0,0,.313-.143.9.9,0,0,0,.1-.519v-.116l.034-1.542c0-.3,0-.882,0-1.751,0-1.263,0-2.192-.011-2.78a4.742,4.742,0,0,0-.067-1,.313.313,0,0,0-.121-.128,3.4,3.4,0,0,0-.607-.166l-.71-.157v-.39c.824.047,1.8.074,2.946.074q.937,0,4.464-.074a18.62,18.62,0,0,0,.157,2.243h-.461a6.981,6.981,0,0,0-.425-1.184.551.551,0,0,0-.278-.269,3.232,3.232,0,0,0-.958-.085H64.138l-.045,2.111Z" transform="translate(71.39 -24.665)" fill="#cbb284"/>
        </g>
      </g>
      <g id="Group_1167" data-name="Group 1167">
        <g id="Group_1166" data-name="Group 1166" clip-path="url(#clip-path)">
          <path id="Path_1589" data-name="Path 1589" d="M75.881,86.182l.275.5a9.252,9.252,0,0,1-2.024.978,6.436,6.436,0,0,1-2.006.316,4.838,4.838,0,0,1-2.393-.6,3.941,3.941,0,0,1-1.628-1.7,5.308,5.308,0,0,1-.553-2.44,4.778,4.778,0,0,1,1.424-3.577,5.165,5.165,0,0,1,3.772-1.39,10.234,10.234,0,0,1,3.21.591q-.013.578-.013.866a16.874,16.874,0,0,0,.1,1.766h-.551a5.228,5.228,0,0,0-.517-1.581,1.9,1.9,0,0,0-.891-.694,3.942,3.942,0,0,0-1.52-.257A3.287,3.287,0,0,0,69.7,80.31a4.468,4.468,0,0,0-.745,2.653,4.156,4.156,0,0,0,1.052,3,3.644,3.644,0,0,0,2.756,1.1,5.363,5.363,0,0,0,1.431-.19,10.255,10.255,0,0,0,1.688-.692" transform="translate(79.083 -24.772)" fill="#cbb284"/>
        </g>
      </g>
      <g id="Group_1169" data-name="Group 1169">
        <g id="Group_1168" data-name="Group 1168" clip-path="url(#clip-path)">
          <path id="Path_1590" data-name="Path 1590" d="M74.944,80.848h-.472q.124-.846.21-2.494c1.778.047,2.91.074,3.4.074,1.151,0,2.333-.027,3.542-.074v.4c-.421.537-.8,1.032-1.139,1.48S79.545,81.5,78.69,82.69l-2.008,2.774q-.672.907-1.052,1.462h4a1.374,1.374,0,0,0,.927-.231,3.664,3.664,0,0,0,.6-1.193c.034-.092.085-.228.157-.41h.47l-.293,1.54-.177,1.032q-2.341-.071-3.172-.072-1.3,0-4.251.072v-.432q.843-1.068,1.46-1.9Q76.36,83.98,79.91,79.1H76.574a1.639,1.639,0,0,0-1.014.224,2.482,2.482,0,0,0-.508,1.169c-.027.078-.058.2-.107.356" transform="translate(86.933 -24.663)" fill="#cbb284"/>
        </g>
      </g>
      <g id="Group_1171" data-name="Group 1171">
        <g id="Group_1170" data-name="Group 1170" clip-path="url(#clip-path)">
          <path id="Path_1591" data-name="Path 1591" d="M82.456,82.462h1.587a6.379,6.379,0,0,0,1.084-.049.489.489,0,0,0,.266-.2,3.367,3.367,0,0,0,.253-.873c.011-.047.034-.123.058-.224h.434c-.049.721-.072,1.276-.072,1.666s.022.956.072,1.654H85.7c-.128-.634-.206-.987-.237-1.063a.4.4,0,0,0-.228-.226,3.714,3.714,0,0,0-.978-.069h-1.8l.034,3.859h2.751l.242-.007a3.085,3.085,0,0,0,.707-.047,1.047,1.047,0,0,0,.441-.287,6.9,6.9,0,0,0,.7-1.133c.034-.06.087-.148.159-.266h.452c-.051.139-.325.963-.813,2.467q-2.388-.071-4.365-.072-1.377,0-3.045.072v-.387l1.063-.231a.683.683,0,0,0,.316-.143.922.922,0,0,0,.1-.519v-.116l.029-1.54c0-.3,0-.882,0-1.751,0-1.263,0-2.192-.011-2.78a4.919,4.919,0,0,0-.067-1,.339.339,0,0,0-.119-.128,3.391,3.391,0,0,0-.609-.166l-.707-.157v-.39c.822.047,1.8.074,2.946.074q.937,0,4.464-.074a19.1,19.1,0,0,0,.157,2.243h-.459a7.189,7.189,0,0,0-.425-1.184.543.543,0,0,0-.278-.269,3.242,3.242,0,0,0-.958-.085H82.521l-.047,2.111Z" transform="translate(94.163 -24.663)" fill="#cbb284"/>
        </g>
      </g>
      <g id="Group_1173" data-name="Group 1173">
        <g id="Group_1172" data-name="Group 1172" clip-path="url(#clip-path)">
          <path id="Path_1592" data-name="Path 1592" d="M85.655,78.743v-.39c.555.047.992.074,1.31.074.26,0,.719-.027,1.381-.074l1.865,2.33,3.951,4.784c0-.611.007-1.057.007-1.33,0-.656-.02-1.845-.058-3.58a12.126,12.126,0,0,0-.063-1.319.431.431,0,0,0-.152-.193,3.451,3.451,0,0,0-.911-.233c-.072-.016-.177-.038-.309-.072v-.39c.779.047,1.4.074,1.858.074s1.063-.027,1.849-.074v.39c-.119.029-.208.047-.26.056a7.292,7.292,0,0,0-.983.244.312.312,0,0,0-.119.116,1.085,1.085,0,0,0-.092.4q0,.124-.029,1.789c-.016,1.106-.022,2.183-.022,3.219q0,1.837.063,3.105l-.425.2-2.738-3.4-3.591-4.321.034,3.88c.02,1.7.047,2.6.072,2.718a.388.388,0,0,0,.119.2,2.649,2.649,0,0,0,.978.275c.065.009.163.027.3.056v.39q-1-.071-1.692-.072c-.383,0-1.059.025-2.015.072v-.387c.152-.034.269-.058.349-.078a2.5,2.5,0,0,0,.911-.253.357.357,0,0,0,.1-.2,20.781,20.781,0,0,0,.094-2.286q.03-2.807.031-3.32a16.957,16.957,0,0,0-.045-1.829.352.352,0,0,0-.17-.222,6.457,6.457,0,0,0-1.24-.271c-.078-.018-.195-.038-.356-.074" transform="translate(101.506 -24.665)" fill="#cbb284"/>
        </g>
      </g>
      <g id="Group_1175" data-name="Group 1175">
        <g id="Group_1174" data-name="Group 1174" clip-path="url(#clip-path)">
          <path id="Path_1593" data-name="Path 1593" d="M98.424,80.973h-.5a4.555,4.555,0,0,0-.387-1.234,1.485,1.485,0,0,0-.658-.607,2.192,2.192,0,0,0-.994-.222,1.755,1.755,0,0,0-1.242.43,1.4,1.4,0,0,0-.463,1.054,1.351,1.351,0,0,0,.381.954,6.077,6.077,0,0,0,1.829,1.028,5.115,5.115,0,0,1,1.979,1.285,2.4,2.4,0,0,1,.515,1.5,2.645,2.645,0,0,1-.39,1.395,2.733,2.733,0,0,1-1.173,1.028,3.785,3.785,0,0,1-1.692.385,6.636,6.636,0,0,1-1.236-.119,11.842,11.842,0,0,1-1.486-.407,24.572,24.572,0,0,0,.1-2.456h.5a5.163,5.163,0,0,0,.45,1.379,1.788,1.788,0,0,0,.705.647,2.2,2.2,0,0,0,1.034.253,2.219,2.219,0,0,0,1.357-.437,1.422,1.422,0,0,0,.584-1.213,1.7,1.7,0,0,0-.421-1.131,5.511,5.511,0,0,0-1.847-1.1,5.42,5.42,0,0,1-1.9-1.18,1.967,1.967,0,0,1-.479-1.332,2.375,2.375,0,0,1,.387-1.287,2.663,2.663,0,0,1,1.139-.972,3.573,3.573,0,0,1,1.558-.358,7.588,7.588,0,0,1,2.348.466c-.02.64-.034,1.025-.034,1.157,0,.269.013.629.036,1.086" transform="translate(110.49 -24.775)" fill="#cbb284"/>
        </g>
      </g>
      <g id="Group_1177" data-name="Group 1177">
        <g id="Group_1176" data-name="Group 1176" clip-path="url(#clip-path)">
          <path id="Path_1594" data-name="Path 1594" d="M98.561,80.914h-.506q.124-1.142.224-2.561,2.9.071,4.144.074c.685,0,1.936-.027,3.75-.074.058.976.123,1.827.2,2.561h-.49c-.206-.8-.338-1.269-.4-1.408a.578.578,0,0,0-.266-.3,2.534,2.534,0,0,0-.88-.087h-1.455q-.054,1.746-.054,4.316,0,2.391.054,3.23a.366.366,0,0,0,.1.269,4.512,4.512,0,0,0,1.086.282c.06.009.152.027.278.058v.387c-.869-.047-1.643-.072-2.319-.072q-.967,0-1.974.072v-.387a2.7,2.7,0,0,1,.349-.076,3.781,3.781,0,0,0,1.037-.257.345.345,0,0,0,.09-.148c.02-.06.036-.546.047-1.451.018-1.4.027-2.438.027-3.114q0-1.763-.027-3.11H100l-.282,0a1.058,1.058,0,0,0-.493.078.929.929,0,0,0-.327.475,10.518,10.518,0,0,0-.342,1.234" transform="translate(116.865 -24.665)" fill="#cbb284"/>
        </g>
      </g>
      <g id="Group_1179" data-name="Group 1179">
        <g id="Group_1178" data-name="Group 1178" clip-path="url(#clip-path)">
          <path id="Path_1595" data-name="Path 1595" d="M108.773,87.864H108.3q-1.078-3.123-2.335-6.568a17.945,17.945,0,0,0-.8-2,.785.785,0,0,0-.237-.249,3.716,3.716,0,0,0-.963-.307v-.39c1.01.047,1.654.074,1.934.074.374,0,.969-.027,1.791-.074v.39a3.644,3.644,0,0,0-.916.3.309.309,0,0,0-.137.255,5.837,5.837,0,0,0,.275.956q1.222,3.711,1.907,5.456l1.8-4.836a13.1,13.1,0,0,0-.593-1.469,1,1,0,0,0-.32-.369,5.3,5.3,0,0,0-.934-.293v-.39c.815.047,1.444.074,1.892.074.466,0,1.072-.027,1.827-.074v.39l-.237.058a1.757,1.757,0,0,0-.7.231.319.319,0,0,0-.1.255.94.94,0,0,0,.011.139c.027.114.269.835.73,2.169l1.41,4.012q.457-1.249,1.093-3.192l.978-3a.93.93,0,0,0,.02-.161.209.209,0,0,0-.072-.175,7.966,7.966,0,0,0-.978-.336v-.39c.815.047,1.348.074,1.594.074.3,0,.8-.027,1.5-.074v.39a3.216,3.216,0,0,0-.934.34.9.9,0,0,0-.224.327q-.168.373-1.536,4.22-.04.1-1.444,4.233h-.452l-1.616-4.5c-.146-.4-.338-.907-.578-1.516q-.863,2.25-2.185,6.009" transform="translate(124.184 -24.666)" fill="#cbb284"/>
        </g>
      </g>
      <g id="Group_1181" data-name="Group 1181">
        <g id="Group_1180" data-name="Group 1180" clip-path="url(#clip-path)">
          <path id="Path_1596" data-name="Path 1596" d="M112.231,83.182a4.777,4.777,0,0,1,1.388-3.535,4.85,4.85,0,0,1,3.568-1.381,4.336,4.336,0,0,1,3.23,1.22,4.594,4.594,0,0,1,1.2,3.363,5.121,5.121,0,0,1-1.352,3.75,4.765,4.765,0,0,1-3.557,1.375,4.335,4.335,0,0,1-3.273-1.247,4.913,4.913,0,0,1-1.2-3.544m1.439-.195a4.837,4.837,0,0,0,.947,3.255,3.05,3.05,0,0,0,2.4,1.086,2.924,2.924,0,0,0,1.7-.508,3.079,3.079,0,0,0,1.122-1.478,5.916,5.916,0,0,0,.381-2.16,5.515,5.515,0,0,0-.486-2.463,3.238,3.238,0,0,0-1.2-1.4,3.248,3.248,0,0,0-3.358.092,2.981,2.981,0,0,0-1.139,1.491,6.023,6.023,0,0,0-.36,2.089" transform="translate(134.425 -24.772)" fill="#cbb284"/>
        </g>
      </g>
      <g id="Group_1183" data-name="Group 1183">
        <g id="Group_1182" data-name="Group 1182" clip-path="url(#clip-path)">
          <path id="Path_1597" data-name="Path 1597" d="M126,78.743v-.39q1.739.074,2.789.074.6,0,1.128-.013c.466-.018.786-.027.965-.027a2.744,2.744,0,0,1,1.927.6,2.168,2.168,0,0,1,.645,1.648,2.51,2.51,0,0,1-.293,1.231,2.584,2.584,0,0,1-.842.9,4.184,4.184,0,0,1-1.144.466l2.187,2.848a6.255,6.255,0,0,0,.513.622,1.424,1.424,0,0,0,.428.235,8.693,8.693,0,0,0,1.24.334v.387c-.694-.047-1.2-.072-1.509-.072a9.1,9.1,0,0,0-1.115.072q-.3-.49-.8-1.238t-.618-.884c-.045-.051-.085-.105-.125-.161l-1.444-1.983c-.39-.011-.784-.038-1.18-.085l.052,3.309a.411.411,0,0,0,.121.3,2.872,2.872,0,0,0,.981.284c.081.011.2.036.363.076v.387q-1.189-.071-2.093-.072-.974,0-2.174.072v-.387l.284-.058a3.445,3.445,0,0,0,1.066-.293.578.578,0,0,0,.148-.412c.009-.125.02-1.251.031-3.371l-.027-3.087a5.038,5.038,0,0,0-.036-.813.237.237,0,0,0-.13-.157,3.439,3.439,0,0,0-1.016-.28c-.069-.009-.179-.031-.322-.06m2.751,4.014c.454.047.806.074,1.057.074a2.533,2.533,0,0,0,1.766-.533,1.908,1.908,0,0,0,.575-1.478,1.706,1.706,0,0,0-.51-1.307,2.066,2.066,0,0,0-1.48-.481c-.233,0-.692.027-1.372.078Z" transform="translate(151.485 -24.665)" fill="#cbb284"/>
        </g>
      </g>
      <g id="Group_1185" data-name="Group 1185">
        <g id="Group_1184" data-name="Group 1184" clip-path="url(#clip-path)">
          <path id="Path_1598" data-name="Path 1598" d="M132.231,83.182a4.784,4.784,0,0,1,1.386-3.535,4.857,4.857,0,0,1,3.568-1.381,4.324,4.324,0,0,1,3.228,1.22,4.585,4.585,0,0,1,1.2,3.363,5.121,5.121,0,0,1-1.352,3.75,4.766,4.766,0,0,1-3.56,1.375,4.337,4.337,0,0,1-3.271-1.247,4.9,4.9,0,0,1-1.2-3.544m1.439-.195a4.837,4.837,0,0,0,.949,3.255,3.046,3.046,0,0,0,2.4,1.086,2.929,2.929,0,0,0,1.7-.508,3.11,3.11,0,0,0,1.124-1.478,5.916,5.916,0,0,0,.378-2.16,5.515,5.515,0,0,0-.486-2.463,3.231,3.231,0,0,0-1.2-1.4,3.252,3.252,0,0,0-3.36.092,2.99,2.99,0,0,0-1.137,1.491,5.922,5.922,0,0,0-.365,2.089" transform="translate(159.198 -24.772)" fill="#cbb284"/>
        </g>
      </g>
      <g id="Group_1187" data-name="Group 1187">
        <g id="Group_1186" data-name="Group 1186" clip-path="url(#clip-path)">
          <path id="Path_1599" data-name="Path 1599" d="M140.06,80.848h-.472c.083-.564.154-1.4.21-2.494,1.778.047,2.91.074,3.4.074,1.151,0,2.333-.027,3.542-.074v.4c-.423.537-.8,1.032-1.142,1.48s-.936,1.267-1.791,2.454L141.8,85.464q-.668.907-1.052,1.462h4a1.37,1.37,0,0,0,.927-.231,3.653,3.653,0,0,0,.6-1.193c.036-.092.087-.228.157-.41h.47l-.293,1.54-.177,1.032q-2.337-.071-3.172-.072-1.3,0-4.251.072v-.432q.843-1.068,1.462-1.9,1.011-1.357,4.56-6.237h-3.336a1.648,1.648,0,0,0-1.014.224,2.437,2.437,0,0,0-.508,1.169c-.027.078-.06.2-.11.356" transform="translate(167.59 -24.663)" fill="#cbb284"/>
        </g>
      </g>
      <g id="Group_1189" data-name="Group 1189">
        <g id="Group_1188" data-name="Group 1188" clip-path="url(#clip-path)">
          <path id="Path_1600" data-name="Path 1600" d="M149.588,87.864h-.472q-1.078-3.123-2.335-6.568a17.96,17.96,0,0,0-.8-2,.8.8,0,0,0-.235-.249,3.711,3.711,0,0,0-.965-.307v-.39c1.01.047,1.657.074,1.934.074.372,0,.969-.027,1.791-.074v.39a3.611,3.611,0,0,0-.913.3.309.309,0,0,0-.137.255,5.838,5.838,0,0,0,.275.956q1.222,3.711,1.907,5.456l1.8-4.836a13.586,13.586,0,0,0-.593-1.469,1.017,1.017,0,0,0-.318-.369,5.349,5.349,0,0,0-.936-.293v-.39c.815.047,1.444.074,1.889.074.466,0,1.075-.027,1.827-.074v.39l-.235.058a1.743,1.743,0,0,0-.7.231.319.319,0,0,0-.1.255.714.714,0,0,0,.013.139c.027.114.269.835.73,2.169l1.41,4.012q.453-1.249,1.09-3.192l.981-3a.753.753,0,0,0,.02-.161.2.2,0,0,0-.074-.175,7.394,7.394,0,0,0-.978-.336v-.39c.813.047,1.345.074,1.594.074.3,0,.8-.027,1.5-.074v.39a3.216,3.216,0,0,0-.934.34.9.9,0,0,0-.222.327q-.171.373-1.536,4.22-.04.1-1.444,4.233h-.452l-1.616-4.5c-.143-.4-.336-.907-.578-1.516q-.87,2.25-2.189,6.009" transform="translate(174.741 -24.666)" fill="#cbb284"/>
        </g>
      </g>
      <g id="Group_1191" data-name="Group 1191">
        <g id="Group_1190" data-name="Group 1190" clip-path="url(#clip-path)">
          <path id="Path_1601" data-name="Path 1601" d="M153.3,84.808a4.77,4.77,0,0,1,1.39-3.535,4.844,4.844,0,0,1,3.566-1.381,4.324,4.324,0,0,1,3.228,1.22,4.586,4.586,0,0,1,1.2,3.362,5.121,5.121,0,0,1-1.352,3.75,4.763,4.763,0,0,1-3.557,1.377,4.345,4.345,0,0,1-3.275-1.249,4.912,4.912,0,0,1-1.2-3.544m1.437-.195a4.837,4.837,0,0,0,.949,3.255,3.054,3.054,0,0,0,2.4,1.086,2.936,2.936,0,0,0,1.7-.508,3.107,3.107,0,0,0,1.122-1.478,5.916,5.916,0,0,0,.378-2.16,5.515,5.515,0,0,0-.486-2.463,3.22,3.22,0,0,0-1.2-1.4,3.252,3.252,0,0,0-3.36.092,2.99,2.99,0,0,0-1.137,1.491,5.974,5.974,0,0,0-.365,2.089m2.87-5.371h-.394q.447-1.209.828-2.29l.734.011c.074,0,.273,0,.591-.011l.092.123a25.319,25.319,0,0,0-1.851,2.167" transform="translate(185.3 -26.399)" fill="#cbb284"/>
        </g>
      </g>
      <g id="Group_1193" data-name="Group 1193">
        <g id="Group_1192" data-name="Group 1192" clip-path="url(#clip-path)">
          <path id="Path_1602" data-name="Path 1602" d="M165.4,78.353v.39c-.128.027-.222.045-.289.056a3.352,3.352,0,0,0-1.05.257.66.66,0,0,0-.161.445c-.02.222-.029,1.473-.029,3.748,0,1.229-.007,1.959-.027,2.192a3.052,3.052,0,0,1-.376,1.285,2.307,2.307,0,0,1-.878.822,2.549,2.549,0,0,1-1.254.316,6.106,6.106,0,0,1-1.357-.2,22.222,22.222,0,0,0,.1-2.344h.517a2.758,2.758,0,0,0,.378,1.486.958.958,0,0,0,.777.385.745.745,0,0,0,.768-.6,28.36,28.36,0,0,0,.112-3.662q0-3.264-.018-3.506a.557.557,0,0,0-.1-.331,3.115,3.115,0,0,0-1.039-.282c-.078-.016-.195-.038-.347-.072v-.39c.967.047,1.7.074,2.212.074q.85,0,2.06-.074" transform="translate(193.575 -24.665)" fill="#cbb284"/>
        </g>
      </g>
      <g id="Group_1195" data-name="Group 1195">
        <g id="Group_1194" data-name="Group 1194" clip-path="url(#clip-path)">
          <path id="Path_1603" data-name="Path 1603" d="M88.061,79.243h-.394q.447-1.209.828-2.29l.737.011c.074,0,.271,0,.591-.011l.092.123a25.752,25.752,0,0,0-1.854,2.167" transform="translate(103.998 -26.399)" fill="#cbb284"/>
        </g>
      </g>
    </g>
    <g id="Group_1207" data-name="Group 1207" transform="translate(128.977 55.527)">
      <g id="Group_1206" data-name="Group 1206">
        <path id="Path_1604" data-name="Path 1604" d="M58.86,76.593A24,24,0,1,0,85.039,55c-.779-.074-1.554-.112-2.319-.112A24,24,0,0,0,58.86,76.593" transform="translate(-58.748 -54.887)" fill="#cbb284"/>
        <g id="Group_1205" data-name="Group 1205" clip-path="url(#clip-path-26)">
          <g id="Group_1204" data-name="Group 1204" transform="translate(-0.637 0.521)">
            <g id="Group_1203" data-name="Group 1203">
              <g id="Group_1202" data-name="Group 1202">
                <g id="Group_1201" data-name="Group 1201" clip-path="url(#clip-path-27)">
                  <g id="Group_1200" data-name="Group 1200">
                    <g id="Group_1199" data-name="Group 1199">
                      <rect id="Rectangle_710" data-name="Rectangle 710" width="50.31" height="49.154" fill="#cbb284"/>
                    </g>
                  </g>
                </g>
              </g>
            </g>
          </g>
        </g>
      </g>
    </g>
    <g id="Group_1238" data-name="Group 1238" transform="translate(2.052 54.371)">
      <g id="Group_1209" data-name="Group 1209">
        <g id="Group_1208" data-name="Group 1208" clip-path="url(#clip-path)">
          <path id="Path_1606" data-name="Path 1606" d="M74.552,97.075a29.111,29.111,0,0,0-3.033-3.212,33.415,33.415,0,0,0-7.072-4.889,20.65,20.65,0,0,0,4.439,4.9c.571.374,1.135.777,1.686,1.213a20.465,20.465,0,0,0,3.98,1.988M99.679,87.7a26.19,26.19,0,0,0-5.885,2.445,55.741,55.741,0,0,0-9.022,6.738q.292.561.569,1.137c.43-.078.86-.172,1.281-.278a34.465,34.465,0,0,1,8.187-5.518c.8-.376,1.607-.71,2.424-1.005A20.534,20.534,0,0,0,99.679,87.7m-25.31-4.945a46.012,46.012,0,0,0-1.786-5.371c-.354-.889-.732-1.764-1.119-2.6l1.439-1c.443.947.878,1.943,1.285,2.966.36.9.7,1.825,1.007,2.747.345-1.231.732-2.447,1.151-3.645l.047-.128a29.24,29.24,0,0,0-1.2-3.118c-.049-.107-.1-.213-.146-.318l1.435-1c.1.2.19.407.284.616.195.434.383.882.56,1.323q.725-1.83,1.547-3.606l2.207-1.54.367.179a69.633,69.633,0,0,0-3.465,8.16,58.889,58.889,0,0,0-2.317,8.639c.515.466,1.019.942,1.5,1.433a49.081,49.081,0,0,1,2.91-9.743A56.46,56.46,0,0,1,83.8,69.161l1.419.989A55.542,55.542,0,0,0,81.682,77.4a45.043,45.043,0,0,0-2.955,10.329L78.642,88c.611.66.871,1.007,1.435,1.706A51.149,51.149,0,0,1,83.247,79.1a57.141,57.141,0,0,1,3.79-7.683l1.417.987a55.878,55.878,0,0,0-3.613,7.345,45.177,45.177,0,0,0-3.257,11.744l-.076.107c.152.213.235.3.385.515q.873-.759,1.762-1.469a35.091,35.091,0,0,1,2.718-9.886,41.152,41.152,0,0,1,3.913-7.079l1.419.987a39.236,39.236,0,0,0-3.741,6.774,34.769,34.769,0,0,0-2.351,7.714q1.249-.907,2.534-1.726a46.094,46.094,0,0,1,3.678-8.449c.6-1.045,1.213-2,1.858-2.935l1.417.99c-.618.893-1.207,1.807-1.773,2.8a41.469,41.469,0,0,0-2.848,6.179c.186-.107.374-.215.56-.318.784-.437,1.578-.853,2.375-1.254l-.074-.029a24.313,24.313,0,0,1,2.626-4.549c.356-.5.721-.992,1.09-1.469l1.417.99c-.374.484-.745.981-1.1,1.48A27.719,27.719,0,0,0,95.8,83.316q2.589-1.159,5.279-2.107l.707.493c-.069.4-.152.788-.244,1.175a63.415,63.415,0,0,0-9.669,4.332,51.656,51.656,0,0,0-9.017,6.353q.557.87,1.07,1.771a56.131,56.131,0,0,1,9.022-6.7,28.278,28.278,0,0,1,7.7-2.966,20.529,20.529,0,1,0-37.641.69,36.464,36.464,0,0,1,9.671,6.221,30.479,30.479,0,0,1,4.625,5.292,20.155,20.155,0,0,0,2.413.378c.027,0,.056,0,.083,0a29.979,29.979,0,0,0-3.736-5.187c-3.662-4.086-8.4-7.164-14.256-10.11l.779-1.54c6.024,3.036,10.929,6.224,14.762,10.5a31.8,31.8,0,0,1,4.471,6.427c.578,0,1.148-.031,1.715-.081a40.676,40.676,0,0,0-4.652-7.285,43.137,43.137,0,0,0-14.305-11.4l1.6-1.115q1.9,1.007,3.662,2.145c-.434-1.028-.987-2.225-1.616-3.573l1.435-1a57.169,57.169,0,0,1,2.6,6.076l-.157.047c.7.513,1.39,1.048,2.053,1.594.065-.327.137-.663.21-.994m29.28-2.832A22.069,22.069,0,1,1,83.789,55.852a22.069,22.069,0,0,1,19.859,24.075" transform="translate(69.244 -52.663)" fill="#f5f5f5" fill-rule="evenodd"/>
        </g>
      </g>
      <g id="Group_1211" data-name="Group 1211">
        <g id="Group_1210" data-name="Group 1210" clip-path="url(#clip-path)">
          <path id="Path_1607" data-name="Path 1607" d="M21.386,67.24H19.66a15.576,15.576,0,0,0-1.339-4.256,5.134,5.134,0,0,0-2.281-2.1,7.578,7.578,0,0,0-3.436-.763,6.033,6.033,0,0,0-4.3,1.5,4.8,4.8,0,0,0-1.6,3.633,4.672,4.672,0,0,0,1.314,3.293q1.293,1.41,6.322,3.557t6.841,4.444a8.292,8.292,0,0,1,1.789,5.2,9.116,9.116,0,0,1-1.35,4.815,9.461,9.461,0,0,1-4.061,3.557,13.073,13.073,0,0,1-5.841,1.328,22.706,22.706,0,0,1-4.276-.41,41.125,41.125,0,0,1-5.14-1.406,83.482,83.482,0,0,0,.34-8.487H4.395a17.74,17.74,0,0,0,1.549,4.764A6.08,6.08,0,0,0,8.38,88.143a7.462,7.462,0,0,0,3.58.873,7.649,7.649,0,0,0,4.688-1.5,4.933,4.933,0,0,0,2.015-4.2,5.846,5.846,0,0,0-1.451-3.9q-1.474-1.679-6.387-3.8T4.256,71.539a6.827,6.827,0,0,1-1.657-4.6,8.215,8.215,0,0,1,1.339-4.455,9.139,9.139,0,0,1,3.936-3.354,12.421,12.421,0,0,1,5.391-1.234,26.173,26.173,0,0,1,8.122,1.61q-.114,3.311-.114,3.994,0,1.383.114,3.743" transform="translate(-1.736 -50.007)" fill="#191919"/>
        </g>
      </g>
      <g id="Group_1213" data-name="Group 1213">
        <g id="Group_1212" data-name="Group 1212" clip-path="url(#clip-path)">
          <path id="Path_1608" data-name="Path 1608" d="M29.535,57.954h1.431Q34.028,65.829,38.5,75.81l5.286,11.547a2.776,2.776,0,0,0,.795.907,24.867,24.867,0,0,0,3.333,1.088V90.69q-4.127-.249-6.078-.248-1.995,0-6.808.248V89.354a11.973,11.973,0,0,0,3.2-.909.979.979,0,0,0,.454-.792,4.98,4.98,0,0,0-.477-1.61l-2.3-5.536q-4.812-.044-7-.045l-6.208.045-2.384,5.74a6.751,6.751,0,0,0-.591,1.724.575.575,0,0,0,.282.488,13.683,13.683,0,0,0,2.644.692c.166.045.4.114.7.2v1.339q-3.878-.248-5.467-.248-2.018,0-5.171.248V89.354a8.107,8.107,0,0,0,2.836-1.021,5.19,5.19,0,0,0,1.18-1.451q1.293-2.247,6.579-14.451ZM23.556,78.236q3.15.091,4.511.094.41,0,6.958-.094L29.287,64.627Z" transform="translate(11.145 -49.932)" fill="#191919"/>
        </g>
      </g>
      <g id="Group_1215" data-name="Group 1215">
        <g id="Group_1214" data-name="Group 1214" clip-path="url(#clip-path)">
          <path id="Path_1609" data-name="Path 1609" d="M43.479,91.069h-1.5q-2.948-8.644-7.191-19.488-3.539-9.026-4.039-9.958a2.724,2.724,0,0,0-.817-.942,17.861,17.861,0,0,0-3.38-1.146V58.2q4.9.248,6.443.248,2.2,0,6.441-.248v1.336c-.273.076-.477.13-.611.159a9.167,9.167,0,0,0-2.621.873.976.976,0,0,0-.4.761,2.105,2.105,0,0,0,.067.5q.41,1.659,3.4,9.828l4.3,11.872q2.8-7.22,4.885-13.367,2.636-7.7,2.816-8.534a1.3,1.3,0,0,0,.047-.318.859.859,0,0,0-.34-.7,13.618,13.618,0,0,0-3.311-1.135V58.2c.09,0,.636.022,1.632.067q3.5.181,4.491.184,1.931,0,4.6-.248v1.269a10.768,10.768,0,0,0-3,1.077A5.1,5.1,0,0,0,54.1,62.58q-1.383,3.13-6.965,18.467Z" transform="translate(28.303 -49.629)" fill="#191919"/>
        </g>
      </g>
      <g id="Group_1217" data-name="Group 1217">
        <g id="Group_1216" data-name="Group 1216" clip-path="url(#clip-path)">
          <path id="Path_1610" data-name="Path 1610" d="M50.737,72.4h5.491a21.663,21.663,0,0,0,3.743-.17,1.666,1.666,0,0,0,.918-.692,11.641,11.641,0,0,0,.873-3.015c.047-.168.114-.423.2-.772h1.5q-.252,3.744-.248,5.762,0,2.089.248,5.718h-1.5q-.658-3.287-.817-3.676a1.413,1.413,0,0,0-.793-.784,13.062,13.062,0,0,0-3.383-.237H50.759l.114,13.338h9.505l.84-.022a11.014,11.014,0,0,0,2.451-.159,3.771,3.771,0,0,0,1.52-.987,24.793,24.793,0,0,0,2.427-3.913q.181-.316.544-.931h1.567q-.275.725-2.814,8.529-8.257-.249-15.084-.248-4.765,0-10.526.248V89.051l3.676-.795a2.368,2.368,0,0,0,1.088-.5,3.171,3.171,0,0,0,.34-1.791v-.41l.114-5.333q.02-1.541.022-6.058,0-6.555-.045-9.608a16.765,16.765,0,0,0-.228-3.459,1.08,1.08,0,0,0-.421-.443,11.53,11.53,0,0,0-2.1-.578L41.3,59.537V58.2q4.265.248,10.186.248,3.24,0,15.424-.248a65.475,65.475,0,0,0,.546,7.757H65.87a23.906,23.906,0,0,0-1.475-4.1,1.944,1.944,0,0,0-.951-.931,11.436,11.436,0,0,0-3.311-.293H50.968l-.159,7.3Z" transform="translate(46.566 -49.63)" fill="#191919"/>
        </g>
      </g>
      <g id="Group_1219" data-name="Group 1219">
        <g id="Group_1218" data-name="Group 1218" clip-path="url(#clip-path)">
          <path id="Path_1611" data-name="Path 1611" d="M100.082,58.2v1.336c-.531.123-.922.2-1.18.248q-3.015.521-3.495.987a3.075,3.075,0,0,0-.477,2.078v.792l-.112,9.12.067,13.246a2.916,2.916,0,0,0,.466,2.019,7.7,7.7,0,0,0,3.188.748q.521.067,1.52.273v1.339q-3.654-.248-7.034-.249-3.492,0-7.667.249V89.051a9.011,9.011,0,0,1,1-.228c2.147-.347,3.378-.669,3.685-.963a3.412,3.412,0,0,0,.466-2.236l-.047-1.135.069-8.326q0-12.838-.069-14.2a1.651,1.651,0,0,0-.484-1.157,10.365,10.365,0,0,0-3.423-.976q-.406-.091-1.2-.3V58.2q4.93.248,7.7.248,3.1,0,7.027-.248" transform="translate(101.133 -49.63)" fill="#17202c"/>
        </g>
      </g>
      <g id="Group_1221" data-name="Group 1221">
        <g id="Group_1220" data-name="Group 1220" clip-path="url(#clip-path)">
          <path id="Path_1612" data-name="Path 1612" d="M92.409,59.537V58.2q2.874.248,4.524.248,1.333,0,4.775-.248l6.441,8.052q.887,1.068,13.658,16.539.02-3.177.022-4.6,0-3.378-.2-12.364a40.2,40.2,0,0,0-.215-4.56,1.412,1.412,0,0,0-.522-.658,12.775,12.775,0,0,0-3.165-.815c-.242-.047-.6-.13-1.066-.251V58.2q4.036.248,6.421.248,2.314,0,6.4-.248v1.339c-.41.105-.712.172-.907.2a21.953,21.953,0,0,0-3.38.84,1.062,1.062,0,0,0-.407.407,3.453,3.453,0,0,0-.318,1.361q-.024.43-.1,6.181t-.078,11.126q0,6.353.226,10.73l-1.475.681-9.461-11.753-12.407-14.93.112,13.41q.111,8.8.248,9.393a1.331,1.331,0,0,0,.41.7,9.186,9.186,0,0,0,3.38.951c.226.031.566.1,1.021.2v1.339q-3.472-.248-5.852-.248-1.995,0-6.965.248V89.051l1.2-.273a8.664,8.664,0,0,0,3.154-.884,1.276,1.276,0,0,0,.363-.7,73.44,73.44,0,0,0,.318-7.894q.111-9.708.112-11.48a58.565,58.565,0,0,0-.159-6.329,1.167,1.167,0,0,0-.589-.759,21.751,21.751,0,0,0-4.289-.94c-.273-.049-.678-.132-1.225-.253" transform="translate(109.872 -49.63)" fill="#17202c"/>
        </g>
      </g>
      <g id="Group_1223" data-name="Group 1223">
        <g id="Group_1222" data-name="Group 1222" clip-path="url(#clip-path)">
          <path id="Path_1613" data-name="Path 1613" d="M126.357,91.069h-1.5q-2.948-8.644-7.191-19.488-3.539-9.026-4.039-9.958a2.724,2.724,0,0,0-.817-.942,17.929,17.929,0,0,0-3.38-1.146V58.2q4.9.248,6.443.248,2.2,0,6.441-.248v1.336c-.271.076-.475.13-.613.159a9.2,9.2,0,0,0-2.619.873.976.976,0,0,0-.4.761,2.106,2.106,0,0,0,.067.5q.41,1.659,3.4,9.828l4.3,11.872q2.8-7.22,4.885-13.367,2.636-7.7,2.816-8.534a1.314,1.314,0,0,0,.049-.318.859.859,0,0,0-.34-.7,13.66,13.66,0,0,0-3.311-1.135V58.2c.09,0,.636.022,1.632.067q3.5.181,4.489.184c1.285,0,2.823-.085,4.6-.248v1.269a10.713,10.713,0,0,0-2.993,1.077,5.051,5.051,0,0,0-1.314,2.03q-1.387,3.13-6.964,18.467Z" transform="translate(130.959 -49.629)" fill="#17202c"/>
        </g>
      </g>
      <g id="Group_1225" data-name="Group 1225">
        <g id="Group_1224" data-name="Group 1224" clip-path="url(#clip-path)">
          <path id="Path_1614" data-name="Path 1614" d="M133.614,72.4H139.1a21.624,21.624,0,0,0,3.743-.17,1.663,1.663,0,0,0,.92-.692,11.834,11.834,0,0,0,.873-3.015c.045-.168.112-.423.2-.772h1.5q-.248,3.744-.246,5.762,0,2.089.246,5.718h-1.5q-.658-3.288-.817-3.676a1.413,1.413,0,0,0-.792-.784,13.052,13.052,0,0,0-3.38-.237h-6.215l.112,13.338h9.505l.84-.022a11,11,0,0,0,2.451-.159,3.786,3.786,0,0,0,1.52-.987,24.8,24.8,0,0,0,2.427-3.913q.181-.316.544-.931H152.6q-.275.725-2.814,8.529-8.257-.249-15.084-.248-4.762,0-10.526.248V89.053l3.674-.795a2.393,2.393,0,0,0,1.09-.5,3.171,3.171,0,0,0,.34-1.791v-.41l.114-5.332q.02-1.541.022-6.058,0-6.555-.045-9.608a16.765,16.765,0,0,0-.228-3.459,1.066,1.066,0,0,0-.421-.443,11.478,11.478,0,0,0-2.1-.578l-2.449-.544V58.2q4.261.248,10.186.248,3.244,0,15.424-.248a65.473,65.473,0,0,0,.546,7.757h-1.587a23.711,23.711,0,0,0-1.475-4.1,1.944,1.944,0,0,0-.951-.931,11.455,11.455,0,0,0-3.313-.293h-9.163l-.159,7.3Z" transform="translate(149.225 -49.631)" fill="#17202c"/>
        </g>
      </g>
      <g id="Group_1227" data-name="Group 1227">
        <g id="Group_1226" data-name="Group 1226" clip-path="url(#clip-path)">
          <path id="Path_1615" data-name="Path 1615" d="M157.828,67.242H156.1a15.561,15.561,0,0,0-1.341-4.256,5.139,5.139,0,0,0-2.279-2.1,7.585,7.585,0,0,0-3.436-.763,6.035,6.035,0,0,0-4.3,1.5,4.8,4.8,0,0,0-1.6,3.633,4.672,4.672,0,0,0,1.314,3.293q1.293,1.41,6.322,3.557t6.839,4.444a8.282,8.282,0,0,1,1.791,5.2,9.116,9.116,0,0,1-1.35,4.815A9.461,9.461,0,0,1,154,90.119a13.08,13.08,0,0,1-5.841,1.328,22.746,22.746,0,0,1-4.278-.41,41.083,41.083,0,0,1-5.136-1.406,84.927,84.927,0,0,0,.338-8.487h1.746a17.806,17.806,0,0,0,1.551,4.764,6.073,6.073,0,0,0,2.433,2.236,7.46,7.46,0,0,0,3.577.873,7.657,7.657,0,0,0,4.692-1.5,4.931,4.931,0,0,0,2.013-4.2,5.855,5.855,0,0,0-1.448-3.9q-1.478-1.679-6.387-3.8T140.7,71.54a6.827,6.827,0,0,1-1.657-4.6,8.218,8.218,0,0,1,1.341-4.455,9.139,9.139,0,0,1,3.936-3.354,12.4,12.4,0,0,1,5.389-1.236,26.173,26.173,0,0,1,8.122,1.61q-.114,3.311-.112,3.994,0,1.387.112,3.745" transform="translate(167.273 -50.008)" fill="#17202c"/>
        </g>
      </g>
      <g id="Group_1229" data-name="Group 1229">
        <g id="Group_1228" data-name="Group 1228" clip-path="url(#clip-path)">
          <path id="Path_1616" data-name="Path 1616" d="M151.241,67.045H149.49q.433-3.946.77-8.847,10.044.248,14.325.248,3.56,0,12.969-.248.292,5.057.681,8.847h-1.7q-1.068-4.15-1.383-4.865a1.973,1.973,0,0,0-.916-1.021,8.819,8.819,0,0,0-3.045-.307h-5.028q-.178,6.038-.181,14.927,0,8.257.181,11.162a1.307,1.307,0,0,0,.342.931,15.143,15.143,0,0,0,3.741.976c.213.031.528.1.954.2v1.339q-4.493-.248-8.01-.248-3.334,0-6.83.248V89.051c.528-.137.931-.228,1.2-.273a12.562,12.562,0,0,0,3.582-.884,1.072,1.072,0,0,0,.307-.51q.1-.329.17-5.028.087-7.257.09-10.752,0-6.1-.09-10.752h-5.393l-.976.022a3.469,3.469,0,0,0-1.7.273,3.277,3.277,0,0,0-1.133,1.634,38.374,38.374,0,0,0-1.18,4.265" transform="translate(180.576 -49.63)" fill="#17202c"/>
        </g>
      </g>
      <g id="Group_1231" data-name="Group 1231">
        <g id="Group_1230" data-name="Group 1230" clip-path="url(#clip-path)">
          <line id="Line_182" data-name="Line 182" x1="130.707" transform="translate(0.497 2.839)" fill="none" stroke="#cbb284" stroke-miterlimit="10" stroke-width="1.5"/>
        </g>
      </g>
      <g id="Group_1233" data-name="Group 1233">
        <g id="Group_1232" data-name="Group 1232" clip-path="url(#clip-path)">
          <line id="Line_183" data-name="Line 183" x1="130.707" transform="translate(0.497 46.508)" fill="none" stroke="#cbb284" stroke-miterlimit="10" stroke-width="1.5"/>
        </g>
      </g>
      <g id="Group_1235" data-name="Group 1235">
        <g id="Group_1234" data-name="Group 1234" clip-path="url(#clip-path)">
          <line id="Line_184" data-name="Line 184" x1="189.557" transform="translate(169.613 2.839)" fill="none" stroke="#cbb284" stroke-miterlimit="10" stroke-width="1.5"/>
        </g>
      </g>
      <g id="Group_1237" data-name="Group 1237">
        <g id="Group_1236" data-name="Group 1236" clip-path="url(#clip-path)">
          <line id="Line_185" data-name="Line 185" x1="189.557" transform="translate(169.613 46.508)" fill="none" stroke="#cbb284" stroke-miterlimit="10" stroke-width="1.5"/>
        </g>
      </g>
    </g>
  </g>
</svg>
