<svg class="plot-sectors__svg" viewBox="0 0 1920 1120" fill="none" xmlns="http://www.w3.org/2000/svg">
    <g id="Map_Full-Area-Step-1_1920">
        <g id="Map Fields Main">
            <g id="Frame" opacity="1">
                <path id="Przykrycie" d="M770.5 845.5L673 879L373 739.5L497.5 708L524 699.5L919 673L941.5 673.5L986 671L1494.71 784.709L1325.43 884.329L1216.88 849.79L1219.31 848.298L1068.14 799.745L1061.17 802.437L976.28 775.439L781 841L770.5 845.5Z" fill="white" />
                <path id="Vector 119" opacity="0.8" d="M945.5 677C943.9 677 943.166 680.667 943 682.5C942.833 683.5 942 685.6 940 686C938 686.4 937.167 690.167 937 692L926.5 693L920 694.5L910 695V693.5C911.333 692 914 690.5 908 690.5C903.2 691.7 906 693 908 693.5V696H897.5V694H899.5C902 694 901.5 688.5 895.5 690.5C890.7 692.1 893.833 693.5 896 694L896.5 696L886 696.5V695C888.167 693.833 890.9 691.5 884.5 691.5C878.1 691.5 881.833 694.167 884.5 695.5V696.5L877.5 697.5L873.5 696.5H867.5L869 693C868.333 693.5 870.5 691.5 869 689.5C870.6 685.5 867.333 682.5 865.5 681.5C866.333 680.167 865.5 679 861.5 678C856.3 678.4 854.333 681.833 854 683.5C853.333 685 850 682 850 689C848.4 689.8 849 693 849.5 694.5V697.5L841 698L841.5 694.5L840 690.5C839.667 688.333 837.9 684.1 833.5 684.5C829.1 684.9 829 688.667 829.5 690.5C829.5 692.333 826 690.5 828.5 695.5C827.7 695.1 828.833 697.667 829.5 699C827 701.333 826 701.5 826 701.5C829.2 697.9 823.666 694.333 820.5 693C818.333 691.333 820.5 686.5 815 684C815.8 680.8 812.333 680.667 810.5 681C810 682.5 807 681.5 807 685.5C805 685.5 804.5 688.5 804.5 689.5C804.5 690.3 801.5 693.167 800 694.5C797 694 791.1 694.1 791.5 698.5C792 704 795 704 797.5 706C799.5 707.6 803 707.333 804.5 707V710H804V711.5H808L812 712L815 713.5L817 713V716H818.5V713L820.5 713.5L822 714.5H823.5V716L826 717L830.5 717.5L831.5 718V722L833 721V719H835H837.5L841 720V721L842.5 722L846 723L847.5 723.5V728L849 729L849.5 725.5L849 725L850 724L853 725.5C854.333 725.667 857 726.3 857 727.5C857 729 858.5 730.5 860.5 731C862.1 731.4 863.833 729.833 864.5 729L954 701.5V700L953 697L955.5 695C956 693.167 959.5 695 959.5 689.5C962 689.5 959.5 688 960.5 685C961.3 682.6 958.5 680 957 679C956.666 679.333 956.2 679.4 957 677C957.8 674.6 952 674.333 949 674.5C948.5 675.333 947 674.5 945.5 677Z" fill="black" />
            </g>
            <g id="Maps Hover Group">
                <g class="area-hover">
                    <rect opacity="0" x="296" y="450" width="1328" height="670" fill="white" />
                </g>
            </g>
            
            <g data-plots-sector-selector="A" class="area-click area-click__sectors">
                <path id="Vector" opacity="0.6" d="M673.75 878.733L1042.22 1052.19L1325.43 884.329L1216.74 849.791L1219.24 848.293L1068.13 799.743L1061.21 802.442L976.274 775.451L783.462 840.002L770.182 845.535L673.75 878.733Z" fill="#36B122" />
                <text id="Sektor A" fill="white" xml:space="preserve" style="white-space: pre" font-family="Mulish" font-size="30" font-weight="bold" letter-spacing="0em">
                    <tspan x="937.973" y="891.684">Sektor A</tspan>
                </text>
            </g>
        </g>
    </g>
</svg>