<svg class="plot-sectors__svg" viewBox="0 0 700 440" fill="none" xmlns="http://www.w3.org/2000/svg">
    <g id="Map_Full-Area-Step-1_Mobile">
        <g id="Map Fields Main">
            <g data-plots-sector-selector="A">
                <path id="Vector" opacity="0.6" d="M144.879 336.275L313.583 414.848L442.102 338.827L392.53 323.074L393.669 322.391L324.75 300.248L321.593 301.479L282.856 289.169L194.917 318.61L188.86 321.133L144.879 336.275Z" fill="#36B122" />
                <text id="Sektor A" fill="white" xml:space="preserve" style="white-space: pre" font-family="Mulish" font-size="13.6826" font-weight="bold" letter-spacing="0em">
                    <tspan x="265.391" y="342.017">Sektor A</tspan>
                </text>
            </g>
            <g id="Frame" opacity="0.5">
                <path id="Subtract" fill-rule="evenodd" clip-rule="evenodd" d="M144.529 336.396L188.998 321.117L193.787 319.065L282.851 289.164L321.568 301.477L324.748 300.249L393.695 322.393L392.586 323.074L442.095 338.827L519.299 293.391L287.284 241.53L266.988 242.67L256.726 242.442L76.5722 254.529L64.4859 258.405L7.70312 272.772L144.529 336.396ZM267.68 246.776C267.756 245.94 268.091 244.268 268.82 244.268C269.254 243.545 269.688 243.433 270.005 243.351C270.189 243.304 270.333 243.267 270.417 243.128C271.785 243.052 274.43 243.173 274.065 244.268C273.701 245.362 273.913 245.332 274.065 245.18C274.75 245.636 276.027 246.822 275.662 247.917C275.453 248.543 275.579 249.026 275.667 249.365C275.772 249.768 275.824 249.969 275.206 249.969C275.206 251.587 274.541 251.814 274.008 251.995C273.715 252.095 273.462 252.181 273.381 252.477L272.241 253.39L272.697 254.758V255.442L231.877 267.984C231.573 268.364 230.783 269.079 230.053 268.897C229.141 268.668 228.457 267.984 228.457 267.3C228.457 266.753 227.24 266.464 226.632 266.388L225.264 265.704L224.808 266.16L225.036 266.388L224.808 267.984L224.124 267.528V265.476L223.44 265.248L221.843 264.792L221.159 264.336V263.88L219.563 263.423H218.423H217.511V264.336L216.827 264.792V262.967L216.37 262.739L214.318 262.511L213.178 262.055V261.371H212.494L211.81 260.915L210.897 260.687V262.055H210.213V260.687L209.301 260.915L207.933 260.231L206.108 260.003H204.284V259.319H204.512V257.95C203.828 258.102 202.232 258.224 201.32 257.494C201.037 257.268 200.74 257.098 200.45 256.932C199.571 256.428 198.755 255.96 198.583 254.074C198.401 252.067 201.092 252.021 202.46 252.249C203.144 251.641 204.512 250.334 204.512 249.969C204.512 249.513 204.74 248.145 205.652 248.145C205.652 246.981 206.209 246.745 206.672 246.549C206.934 246.438 207.166 246.34 207.249 246.092C208.085 245.94 209.666 246.001 209.301 247.46C210.862 248.17 211.069 249.291 211.241 250.22C211.345 250.785 211.436 251.278 211.81 251.565C213.254 252.173 215.778 253.8 214.318 255.442C214.318 255.442 214.774 255.366 215.914 254.302C215.61 253.694 215.093 252.523 215.458 252.705C214.722 251.234 215.126 251.06 215.505 250.897C215.714 250.808 215.914 250.722 215.914 250.425C215.686 249.589 215.732 247.871 217.739 247.689C219.746 247.506 220.551 249.437 220.703 250.425L221.387 252.249L221.159 253.846L225.036 253.618V252.249C224.808 251.565 224.534 250.106 225.264 249.741C225.264 247.549 225.981 247.507 226.528 247.474C226.778 247.46 226.993 247.447 227.089 247.232C227.241 246.472 228.138 244.906 230.509 244.724C232.334 245.18 232.714 245.712 232.334 246.32C233.17 246.776 234.66 248.145 233.93 249.969C234.427 250.632 234.04 251.296 233.909 251.521C233.86 251.605 233.847 251.627 233.93 251.565L233.246 253.162H235.982L237.807 253.618L240.999 253.162V252.705C239.783 252.097 238.08 250.881 240.999 250.881C243.918 250.881 242.672 251.945 241.683 252.477V253.162L246.472 252.934L246.244 252.021C245.256 251.793 243.827 251.155 246.016 250.425C248.753 249.513 248.981 252.021 247.84 252.021H246.928V252.934H251.717V251.793C250.805 251.565 249.528 250.972 251.717 250.425C254.022 250.425 253.523 250.91 252.945 251.472C252.836 251.578 252.725 251.685 252.629 251.793V252.477L257.19 252.249L260.155 251.565L264.944 251.109C265.02 250.273 265.4 248.555 266.312 248.373C267.224 248.19 267.604 247.232 267.68 246.776Z" fill="white" />
            </g>

        </g>
    </g>
</svg>