<svg xmlns="http://www.w3.org/2000/svg" width="351.719" height="308.502" viewBox="0 0 351.719 308.502">
    <defs>
        <style>
            .prefix__cls-2{fill:none;stroke:#fff;stroke-miterlimit:10;stroke-width:6px}
        </style>
    </defs>
    <g id="prefix__Untitled-1-04" transform="translate(4.482 3)" style="opacity:.08">
        <path id="prefix__Line_10" d="M0 0L0 170.416" class="prefix__cls-2" data-name="Line 10" transform="translate(234.692 108.525)"/>
        <path id="prefix__Path_78" d="M48.157 104.933A54.358 54.358 0 0195.172 77.85 54.549 54.549 0 01127.6 28.069a53.406 53.406 0 0122.025-4.669 54.548 54.548 0 0154.549 54.45 54.549 54.549 0 11-54.453 56.36 12.729 12.729 0 010-1.907" class="prefix__cls-2" data-name="Path 78" transform="translate(85.448 -23.396)"/>
        <path id="prefix__Path_79" d="M127.462 46.151A54.453 54.453 0 0173.009 100.7a50.83 50.83 0 01-19.073-3.433" class="prefix__cls-2" data-name="Path 79" transform="translate(107.135 61.993)"/>
        <path id="prefix__Path_80" d="M106.636 24.721L20.045 234.689h173.182z" class="prefix__cls-2" data-name="Path 80" transform="translate(-20.045 11.543)"/>
        <path id="prefix__Line_11" d="M0 0L0.088 113.531" class="prefix__cls-2" data-name="Line 11" transform="translate(86.591 191.969)"/>
    </g>
</svg>
