<svg xmlns="http://www.w3.org/2000/svg" width="88" height="88"><defs><style>.cls-2{fill:#b99665}</style></defs><g id="Group_1283" data-name="Group 1283" transform="translate(-450 -1727.5)"><g id="Ellipse_145" data-name="Ellipse 145" transform="translate(450 1727.5)" fill="transparent" stroke="#b99665" stroke-width="2"><circle cx="44" cy="44" r="44" stroke="none"/><circle cx="44" cy="44" r="43" fill="none"/></g><g id="Group_1259" data-name="Group 1259" transform="translate(40.574 907.614)"><path id="Path_1706" d="M466.538 1048.655a1.04 1.04 0 01-.758-.326l-1.48-1.574a1.089 1.089 0 00-.822-.467c-7.963-.488-17.71-1.175-18.918-1.679-1.078-.45-11.885-6.058-13.114-6.7a1.893 1.893 0 01-.82-2.516 4 4 0 012.364-2.117 4.9 4.9 0 013.8.555l8.28 3.881c4.477.178 11.546.432 12.31.4a.514.514 0 00.406-.361.506.506 0 00-.125-.53l-.014-.013-9.428-.589c-.9-.055-3.635-.222-3.467-2.969a3.749 3.749 0 011.23-2.606 3.628 3.628 0 012.665-.935c.051 0 4.869.318 9.054.789a19.766 19.766 0 003.768-.19 97.762 97.762 0 012.068-.2 8.6 8.6 0 017.629 3.948l4.685 6.245a1.045 1.045 0 11-1.672 1.255l-4.815-6.438a6.543 6.543 0 00-5.647-2.927c-.728.062-1.4.134-2.032.2a20.891 20.891 0 01-4.218.188c-4.135-.465-8.9-.776-8.951-.779a1.544 1.544 0 00-1.136.4 1.642 1.642 0 00-.539 1.126c-.026.438-.043.715 1.507.809l9.94.621.2.1a2.7 2.7 0 01.622.457 2.62 2.62 0 01-1.419 4.467c-.63.085-8.359-.206-12.912-.389l-8.923-4.093a3.009 3.009 0 00-2.235-.426 1.828 1.828 0 00-1.02.877c4.785 2.483 12.026 6.215 12.772 6.526.855.293 8.192.906 18.241 1.522a3.164 3.164 0 012.353 1.281l1.337 1.409a1.045 1.045 0 01-.758 1.764z" class="cls-2" data-name="Path 1706" transform="translate(0 -159.747)"/><path id="Path_1707" d="M483.443 847.923a15.413 15.413 0 00-3.722-9.058c5.076 1.561 8.822 4.97 9.62 9.058zm-8.976 0v-9.871c3.551.673 6.375 4.736 6.876 9.871zm-2.09 0h-7.058c.51-5.223 3.423-9.335 7.058-9.9v9.9zm-9.156 0h-5.9c.8-4.089 4.545-7.5 9.621-9.058a15.413 15.413 0 00-3.72 9.058zm11.246-12.039v-1.675a1.045 1.045 0 00-2.09 0v1.668c-8.68.279-17.307 5.663-17.307 13.686a1.045 1.045 0 001.972.482h6.229a1.043 1.043 0 001.847 0h7.382a1.044 1.044 0 001.847 0h7.2a1.046 1.046 0 00.926.558 1.036 1.036 0 00.921-.558h6.231a1.045 1.045 0 001.97-.487c0-7.571-7.948-13.313-17.125-13.679z" class="cls-2" data-name="Path 1707" transform="translate(-19.989)"/><path id="Path_1708" d="M525.848 991.534a1.045 1.045 0 01-1.045-1.045v-.871a10.48 10.48 0 00-3.61-1.833 5.371 5.371 0 00-3.438 0 12.408 12.408 0 00-3.863 1.529v1.175a1.045 1.045 0 11-2.09 0v-1.338c-.01-.519-.036-1.8 5.384-3.34a7.472 7.472 0 014.694 0c5.048 1.759 5.022 3.218 5.013 3.7v.979a1.046 1.046 0 01-1.045 1.045z" class="cls-2" data-name="Path 1708" transform="translate(-66.006 -123.509)"/><path id="Path_1709" d="M531.719 930.724a2.855 2.855 0 102.488 2.891 2.749 2.749 0 00-2.488-2.891zm-.048 7.795a4.85 4.85 0 114.627-4.745 4.723 4.723 0 01-4.627 4.745z" class="cls-2" data-name="Path 1709" transform="translate(-78.367 -77.6)"/></g></g></svg>