<?xml version="1.0" encoding="utf-8"?>
<!-- Generator: Adobe Illustrator 25.4.1, SVG Export Plug-In . SVG Version: 6.00 Build 0)  -->
<svg version="1.1" id="Warstwa_1" xmlns="http://www.w3.org/2000/svg" xmlns:xlink="http://www.w3.org/1999/xlink" x="0px" y="0px"
	 viewBox="0 0 88 88" style="enable-background:new 0 0 88 88;" xml:space="preserve" >
<style type="text/css">
svg{fill:none}
	.st0{fill:none;stroke:#B99665;stroke-width:2;}
</style>
<g id="Group_1283" transform="translate(-450 -1727.5)">
	<g id="Ellipse_145" transform="translate(450 1727.5)">
		<circle cx="44" cy="44" r="44"/>
		<circle class="st0" cx="44" cy="44" r="43"/>
	</g>
</g>
<path class="st0" d="M65.8,62.9l-5.5-7.5c0,0-1.9-2.6-5-2.6H38.6c0,0-2.4,0-2.4,1.6c0,0-0.3,1.9,2.4,2.1l9.7,1.1
	c0,0,1.1-0.1,1.2,1.2c0,0,0,1.3-1.4,1.4l-11.7-0.1c0,0-1.4-0.1-3.4-1.2l-6.8-3.2c0,0-2.5-1.3-3.6,0.1c0,0-1.3,1.9,1,3.2l10.9,5.6
	c0,0,5.2,1.2,12.5,1.7l6.6,0.1c0,0,2.3,0.2,3.8,2.8"/>
<g>
	<polygon class="st0" points="48.2,16.6 57.6,26.1 57.6,47.5 32,47.5 32,16.6 	"/>
	<polyline class="st0" points="48.2,16.6 48.2,26.2 57.6,26.2 	"/>
	<line class="st0" x1="39" y1="33.1" x2="50.4" y2="33.1"/>
	<line class="st0" x1="39" y1="38.3" x2="50.4" y2="38.3"/>
</g>
</svg>
