<svg xmlns="http://www.w3.org/2000/svg" width="88" height="88"><defs><style>.cls-2,.cls-3{stroke:#b99665;stroke-width:2px;fill:none;stroke-miterlimit:10}.cls-3{stroke-linecap:round}</style></defs><g id="Group_1274" data-name="Group 1274" transform="translate(-1058 -1429)"><g id="Group_1279" data-name="Group 1279"><g id="Ellipse_132" data-name="Ellipse 132" transform="translate(1058 1429)" stroke="#b99665" stroke-width="2" fill="transparent"><circle cx="44" cy="44" r="44" stroke="none"/><circle cx="44" cy="44" r="43" fill="none"/></g><g id="Group_1269" data-name="Group 1269" transform="translate(-2857.532 -154.983)"><g id="Group_1269-2" data-name="Group 1269" transform="translate(3948.032 1610.483)"><path id="Path_1715" d="M3958.149 1662.26c-1.042-5.364-.545-8.467.695-10.728 2.779-5.066 7.106-3.716 7.641-5.662a7.486 7.486 0 000-2.98c-.535-1.946-4.863-.6-7.641-5.662-1.24-2.26-1.737-5.364-.695-10.728" class="cls-2" data-name="Path 1715" transform="translate(-3957.584 -1626.5)"/><path id="Path_1716" d="M4020.036 1662.26c1.042-5.364.545-8.467-.695-10.728-2.779-5.066-7.106-3.716-7.641-5.662a7.5 7.5 0 010-2.98c.535-1.946 4.862-.6 7.641-5.662 1.24-2.26 1.737-5.364.695-10.728" class="cls-2" data-name="Path 1716" transform="translate(-3996.238 -1626.5)"/></g><rect id="Rectangle_709" width="33" height="6" class="cls-2" data-name="Rectangle 709" rx="3" transform="translate(3943.532 1648.984)"/><rect id="Rectangle_710" width="33" height="6" class="cls-2" data-name="Rectangle 710" rx="3" transform="translate(3943.532 1601.984)"/><path id="Path_1717" d="M3961.347 1717.267c4.11-2.873 16.492-2.448 20.886 0" class="cls-3" data-name="Path 1717" transform="translate(-11.413 -97.589)"/><path id="Path_1718" d="M3962.108 1716.956c2.9-.846 7.679.091 11.333 0 3.527-.091 8.325-1.077 11.01 0" class="cls-3" data-name="Path 1718" transform="translate(-12.992 -75.278)"/></g></g></g></svg>