<svg xmlns="http://www.w3.org/2000/svg" width="141.732" height="124.621" viewBox="0 0 141.732 124.621">
    <defs>
        <clipPath id="prefix__clip-path">
            <path id="prefix__Path_3041" d="M579.507 311.57c-.306-.193-.6-.394-.9-.582s-.606-.354-.9-.531a55.662 55.662 0 0 0-5.219-2.706c-.306-.136-.6-.279-.9-.41s-.6-.255-.9-.381a55.873 55.873 0 0 0-42.466 0q-.454.186-.9.378c-.306.133-.606.273-.9.41a55.429 55.429 0 0 0-5.219 2.706c-.306.177-.612.348-.908.532s-.6.388-.9.581a55.934 55.934 0 0 0 0 94.4c.306.194.6.4.9.583s.6.354.908.531a55.693 55.693 0 0 0 5.219 2.707c.3.135.6.278.9.41s.6.255.9.38a55.854 55.854 0 0 0 42.466 0q.454-.185.9-.378c.306-.133.6-.273.9-.41a55.423 55.423 0 0 0 5.219-2.706c.3-.177.611-.349.9-.533s.6-.386.9-.581a55.934 55.934 0 0 0 0-94.4zm0 91.3l-.9.6c-.3.2-.6.392-.9.583a53.77 53.77 0 0 1-5.219 2.887c-.3.143-.6.273-.9.41s-.6.276-.9.41a53.271 53.271 0 0 1-42.466 0c-.306-.133-.6-.273-.9-.41s-.612-.266-.9-.41a53.238 53.238 0 0 1-5.219-2.887q-.457-.288-.908-.583c-.306-.2-.612-.394-.9-.6a53.355 53.355 0 0 1 0-88.208l.9-.6c.3-.2.6-.39.908-.581a52.932 52.932 0 0 1 5.219-2.888c.3-.143.605-.272.9-.41s.6-.279.9-.41a53.279 53.279 0 0 1 42.466 0c.306.133.6.273.9.41s.612.266.9.41a53.357 53.357 0 0 1 5.219 2.887c.3.191.6.386.9.582s.611.4.9.6a53.353 53.353 0 0 1 0 88.208z" class="prefix__cls-1" data-name="Path 3041"/>
        </clipPath>
        <style>
            .prefix__cls-1{fill:none}.prefix__cls-3{fill:#5c3b19}.prefix__cls-4{fill:#5c3b1a}.prefix__cls-5{fill:#5d3c1a}.prefix__cls-6{fill:#5d3d1b}.prefix__cls-7{fill:#5e3d1b}.prefix__cls-8{fill:#5e3e1b}.prefix__cls-9{fill:#5f3f1c}.prefix__cls-10{fill:#60401d}.prefix__cls-11{fill:#60411d}.prefix__cls-12{fill:#61411e}.prefix__cls-13{fill:#61421e}.prefix__cls-14{fill:#62431e}.prefix__cls-15{fill:#63431f}.prefix__cls-16{fill:#63441f}.prefix__cls-17{fill:#644520}.prefix__cls-18{fill:#654621}.prefix__cls-19{fill:#654721}.prefix__cls-20{fill:#664722}.prefix__cls-21{fill:#664822}.prefix__cls-22{fill:#674923}.prefix__cls-23{fill:#674a23}.prefix__cls-24{fill:#684a24}.prefix__cls-25{fill:#684b24}.prefix__cls-26{fill:#694c25}.prefix__cls-27{fill:#6a4d25}.prefix__cls-28{fill:#6a4d26}.prefix__cls-29{fill:#6b4e26}.prefix__cls-30{fill:#6b4f27}.prefix__cls-31{fill:#6c5027}.prefix__cls-32{fill:#6c5028}.prefix__cls-33{fill:#6d5128}.prefix__cls-34{fill:#6d5229}.prefix__cls-35{fill:#6e5329}.prefix__cls-36{fill:#6e532a}.prefix__cls-37{fill:#6f542a}.prefix__cls-38{fill:#6f552b}.prefix__cls-39{fill:#70562b}.prefix__cls-40{isolation:isolate}.prefix__cls-41{fill:#61421d}.prefix__cls-42{fill:#5f3e1b}.prefix__cls-43{fill:#b5a695}
        </style>
    </defs>
    <g id="prefix__Group_1459" data-name="Group 1459" transform="translate(-478.595 -302.768)">
        <g id="prefix__Group_962-2" data-name="Group 962-2">
            <g id="prefix__Path_1409-2" data-name="Path 1409-2">
                <g id="prefix__Group_2026" data-name="Group 2026">
                    <g id="prefix__Group_2025" data-name="Group 2025">
                        <path id="prefix__Rectangle_2622" d="M0 0H121.449V1.747H0z" class="prefix__cls-3" data-name="Rectangle 2622" transform="translate(488.72 303.893)"/>
                        <path id="prefix__Rectangle_2623" d="M0 0H121.449V2.872H0z" class="prefix__cls-4" data-name="Rectangle 2623" transform="translate(488.72 305.64)"/>
                        <path id="prefix__Rectangle_2624" d="M0 0H121.449V2.872H0z" class="prefix__cls-5" data-name="Rectangle 2624" transform="translate(488.72 308.512)"/>
                        <path id="prefix__Rectangle_2625" d="M0 0H121.449V2.872H0z" class="prefix__cls-6" data-name="Rectangle 2625" transform="translate(488.72 311.384)"/>
                        <path id="prefix__Rectangle_2626" d="M0 0H121.449V2.872H0z" class="prefix__cls-7" data-name="Rectangle 2626" transform="translate(488.72 314.256)"/>
                        <path id="prefix__Rectangle_2627" d="M0 0H121.449V2.872H0z" class="prefix__cls-8" data-name="Rectangle 2627" transform="translate(488.72 317.127)"/>
                        <path id="prefix__Rectangle_2628" d="M0 0H121.449V2.872H0z" class="prefix__cls-9" data-name="Rectangle 2628" transform="translate(488.72 319.999)"/>
                        <path id="prefix__Rectangle_2629" d="M0 0H121.449V2.872H0z" class="prefix__cls-9" data-name="Rectangle 2629" transform="translate(488.72 322.871)"/>
                        <path id="prefix__Rectangle_2630" d="M0 0H121.449V2.872H0z" class="prefix__cls-10" data-name="Rectangle 2630" transform="translate(488.72 325.743)"/>
                        <path id="prefix__Rectangle_2631" d="M0 0H121.449V2.872H0z" class="prefix__cls-11" data-name="Rectangle 2631" transform="translate(488.72 328.615)"/>
                        <path id="prefix__Rectangle_2632" d="M0 0H121.449V2.872H0z" class="prefix__cls-12" data-name="Rectangle 2632" transform="translate(488.72 331.487)"/>
                        <path id="prefix__Rectangle_2633" d="M0 0H121.449V2.872H0z" class="prefix__cls-13" data-name="Rectangle 2633" transform="translate(488.72 334.359)"/>
                        <path id="prefix__Rectangle_2634" d="M0 0H121.449V2.872H0z" class="prefix__cls-14" data-name="Rectangle 2634" transform="translate(488.72 337.231)"/>
                        <path id="prefix__Rectangle_2635" d="M0 0H121.449V2.872H0z" class="prefix__cls-15" data-name="Rectangle 2635" transform="translate(488.72 340.103)"/>
                        <path id="prefix__Rectangle_2636" d="M0 0H121.449V2.872H0z" class="prefix__cls-16" data-name="Rectangle 2636" transform="translate(488.72 342.975)"/>
                        <path id="prefix__Rectangle_2637" d="M0 0H121.449V2.872H0z" class="prefix__cls-17" data-name="Rectangle 2637" transform="translate(488.72 345.846)"/>
                        <path id="prefix__Rectangle_2638" d="M0 0H121.449V2.872H0z" class="prefix__cls-17" data-name="Rectangle 2638" transform="translate(488.72 348.718)"/>
                        <path id="prefix__Rectangle_2639" d="M0 0H121.449V2.872H0z" class="prefix__cls-18" data-name="Rectangle 2639" transform="translate(488.72 351.59)"/>
                        <path id="prefix__Rectangle_2640" d="M0 0H121.449V2.872H0z" class="prefix__cls-19" data-name="Rectangle 2640" transform="translate(488.72 354.462)"/>
                        <path id="prefix__Rectangle_2641" d="M0 0H121.449V2.872H0z" class="prefix__cls-20" data-name="Rectangle 2641" transform="translate(488.72 357.334)"/>
                        <path id="prefix__Rectangle_2642" d="M0 0H121.449V2.872H0z" class="prefix__cls-21" data-name="Rectangle 2642" transform="translate(488.72 360.206)"/>
                        <path id="prefix__Rectangle_2643" d="M0 0H121.449V2.872H0z" class="prefix__cls-22" data-name="Rectangle 2643" transform="translate(488.72 363.078)"/>
                        <path id="prefix__Rectangle_2644" d="M0 0H121.449V2.872H0z" class="prefix__cls-23" data-name="Rectangle 2644" transform="translate(488.72 365.95)"/>
                        <path id="prefix__Rectangle_2645" d="M0 0H121.449V2.872H0z" class="prefix__cls-24" data-name="Rectangle 2645" transform="translate(488.72 368.822)"/>
                        <path id="prefix__Rectangle_2646" d="M0 0H121.449V2.872H0z" class="prefix__cls-25" data-name="Rectangle 2646" transform="translate(488.72 371.694)"/>
                        <path id="prefix__Rectangle_2647" d="M0 0H121.449V2.872H0z" class="prefix__cls-26" data-name="Rectangle 2647" transform="translate(488.72 374.565)"/>
                        <path id="prefix__Rectangle_2648" d="M0 0H121.449V2.872H0z" class="prefix__cls-27" data-name="Rectangle 2648" transform="translate(488.72 377.437)"/>
                        <path id="prefix__Rectangle_2649" d="M0 0H121.449V2.872H0z" class="prefix__cls-28" data-name="Rectangle 2649" transform="translate(488.72 380.309)"/>
                        <path id="prefix__Rectangle_2650" d="M0 0H121.449V2.872H0z" class="prefix__cls-29" data-name="Rectangle 2650" transform="translate(488.72 383.181)"/>
                        <path id="prefix__Rectangle_2651" d="M0 0H121.449V2.872H0z" class="prefix__cls-30" data-name="Rectangle 2651" transform="translate(488.72 386.053)"/>
                        <path id="prefix__Rectangle_2652" d="M0 0H121.449V2.872H0z" class="prefix__cls-31" data-name="Rectangle 2652" transform="translate(488.72 388.925)"/>
                        <path id="prefix__Rectangle_2653" d="M0 0H121.449V2.872H0z" class="prefix__cls-32" data-name="Rectangle 2653" transform="translate(488.72 391.797)"/>
                        <path id="prefix__Rectangle_2654" d="M0 0H121.449V2.872H0z" class="prefix__cls-33" data-name="Rectangle 2654" transform="translate(488.72 394.669)"/>
                        <path id="prefix__Rectangle_2655" d="M0 0H121.449V2.872H0z" class="prefix__cls-34" data-name="Rectangle 2655" transform="translate(488.72 397.541)"/>
                        <path id="prefix__Rectangle_2656" d="M0 0H121.449V2.872H0z" class="prefix__cls-35" data-name="Rectangle 2656" transform="translate(488.72 400.413)"/>
                        <path id="prefix__Rectangle_2657" d="M0 0H121.449V2.872H0z" class="prefix__cls-36" data-name="Rectangle 2657" transform="translate(488.72 403.284)"/>
                        <path id="prefix__Rectangle_2658" d="M0 0H121.449V2.872H0z" class="prefix__cls-37" data-name="Rectangle 2658" transform="translate(488.72 406.156)"/>
                        <path id="prefix__Rectangle_2659" d="M0 0H121.449V2.872H0z" class="prefix__cls-38" data-name="Rectangle 2659" transform="translate(488.72 409.028)"/>
                        <path id="prefix__Rectangle_2660" d="M0 0H121.449V1.749H0z" class="prefix__cls-39" data-name="Rectangle 2660" transform="translate(488.72 411.9)"/>
                        <path id="prefix__Rectangle_2661" d="M0 0H127.654V1.397H0z" class="prefix__cls-3" data-name="Rectangle 2661" transform="translate(485.617 301.371)"/>
                        <path id="prefix__Rectangle_2662" d="M0 0H127.654V2.872H0z" class="prefix__cls-3" data-name="Rectangle 2662" transform="translate(485.617 302.768)"/>
                        <path id="prefix__Rectangle_2663" d="M0 0H127.654V2.872H0z" class="prefix__cls-4" data-name="Rectangle 2663" transform="translate(485.617 305.64)"/>
                        <path id="prefix__Rectangle_2664" d="M0 0H127.654V2.872H0z" class="prefix__cls-5" data-name="Rectangle 2664" transform="translate(485.617 308.512)"/>
                        <path id="prefix__Rectangle_2665" d="M0 0H127.654V2.872H0z" class="prefix__cls-6" data-name="Rectangle 2665" transform="translate(485.617 311.384)"/>
                        <path id="prefix__Rectangle_2666" d="M0 0H127.654V2.872H0z" class="prefix__cls-7" data-name="Rectangle 2666" transform="translate(485.617 314.256)"/>
                        <path id="prefix__Rectangle_2667" d="M0 0H127.654V2.872H0z" class="prefix__cls-8" data-name="Rectangle 2667" transform="translate(485.617 317.127)"/>
                        <path id="prefix__Rectangle_2668" d="M0 0H127.654V2.872H0z" class="prefix__cls-9" data-name="Rectangle 2668" transform="translate(485.617 319.999)"/>
                        <path id="prefix__Rectangle_2669" d="M0 0H127.654V2.872H0z" class="prefix__cls-9" data-name="Rectangle 2669" transform="translate(485.617 322.871)"/>
                        <path id="prefix__Rectangle_2670" d="M0 0H127.654V2.872H0z" class="prefix__cls-10" data-name="Rectangle 2670" transform="translate(485.617 325.743)"/>
                        <path id="prefix__Rectangle_2671" d="M0 0H127.654V2.872H0z" class="prefix__cls-11" data-name="Rectangle 2671" transform="translate(485.617 328.615)"/>
                        <path id="prefix__Rectangle_2672" d="M0 0H127.654V2.872H0z" class="prefix__cls-12" data-name="Rectangle 2672" transform="translate(485.617 331.487)"/>
                        <path id="prefix__Rectangle_2673" d="M0 0H127.654V2.872H0z" class="prefix__cls-13" data-name="Rectangle 2673" transform="translate(485.617 334.359)"/>
                        <path id="prefix__Rectangle_2674" d="M0 0H127.654V2.872H0z" class="prefix__cls-14" data-name="Rectangle 2674" transform="translate(485.617 337.231)"/>
                        <path id="prefix__Rectangle_2675" d="M0 0H127.654V2.872H0z" class="prefix__cls-15" data-name="Rectangle 2675" transform="translate(485.617 340.103)"/>
                        <path id="prefix__Rectangle_2676" d="M0 0H127.654V2.872H0z" class="prefix__cls-16" data-name="Rectangle 2676" transform="translate(485.617 342.975)"/>
                        <path id="prefix__Rectangle_2677" d="M0 0H127.654V2.872H0z" class="prefix__cls-17" data-name="Rectangle 2677" transform="translate(485.617 345.846)"/>
                        <path id="prefix__Rectangle_2678" d="M0 0H127.654V2.872H0z" class="prefix__cls-17" data-name="Rectangle 2678" transform="translate(485.617 348.718)"/>
                        <path id="prefix__Rectangle_2679" d="M0 0H127.654V2.872H0z" class="prefix__cls-18" data-name="Rectangle 2679" transform="translate(485.617 351.59)"/>
                        <path id="prefix__Rectangle_2680" d="M0 0H127.654V2.872H0z" class="prefix__cls-19" data-name="Rectangle 2680" transform="translate(485.617 354.462)"/>
                        <path id="prefix__Rectangle_2681" d="M0 0H127.654V2.872H0z" class="prefix__cls-20" data-name="Rectangle 2681" transform="translate(485.617 357.334)"/>
                        <path id="prefix__Rectangle_2682" d="M0 0H127.654V2.872H0z" class="prefix__cls-21" data-name="Rectangle 2682" transform="translate(485.617 360.206)"/>
                        <path id="prefix__Rectangle_2683" d="M0 0H127.654V2.872H0z" class="prefix__cls-22" data-name="Rectangle 2683" transform="translate(485.617 363.078)"/>
                        <path id="prefix__Rectangle_2684" d="M0 0H127.654V2.872H0z" class="prefix__cls-23" data-name="Rectangle 2684" transform="translate(485.617 365.95)"/>
                        <path id="prefix__Rectangle_2685" d="M0 0H127.654V2.872H0z" class="prefix__cls-24" data-name="Rectangle 2685" transform="translate(485.617 368.822)"/>
                        <path id="prefix__Rectangle_2686" d="M0 0H127.654V2.872H0z" class="prefix__cls-25" data-name="Rectangle 2686" transform="translate(485.617 371.694)"/>
                        <path id="prefix__Rectangle_2687" d="M0 0H127.654V2.872H0z" class="prefix__cls-26" data-name="Rectangle 2687" transform="translate(485.617 374.565)"/>
                        <path id="prefix__Rectangle_2688" d="M0 0H127.654V2.872H0z" class="prefix__cls-27" data-name="Rectangle 2688" transform="translate(485.617 377.437)"/>
                        <path id="prefix__Rectangle_2689" d="M0 0H127.654V2.872H0z" class="prefix__cls-28" data-name="Rectangle 2689" transform="translate(485.617 380.309)"/>
                        <path id="prefix__Rectangle_2690" d="M0 0H127.654V2.872H0z" class="prefix__cls-29" data-name="Rectangle 2690" transform="translate(485.617 383.181)"/>
                        <path id="prefix__Rectangle_2691" d="M0 0H127.654V2.872H0z" class="prefix__cls-30" data-name="Rectangle 2691" transform="translate(485.617 386.053)"/>
                        <path id="prefix__Rectangle_2692" d="M0 0H127.654V2.872H0z" class="prefix__cls-31" data-name="Rectangle 2692" transform="translate(485.617 388.925)"/>
                        <path id="prefix__Rectangle_2693" d="M0 0H127.654V2.872H0z" class="prefix__cls-32" data-name="Rectangle 2693" transform="translate(485.617 391.797)"/>
                        <path id="prefix__Rectangle_2694" d="M0 0H127.654V2.872H0z" class="prefix__cls-33" data-name="Rectangle 2694" transform="translate(485.617 394.669)"/>
                        <path id="prefix__Rectangle_2695" d="M0 0H127.654V2.872H0z" class="prefix__cls-34" data-name="Rectangle 2695" transform="translate(485.617 397.541)"/>
                        <path id="prefix__Rectangle_2696" d="M0 0H127.654V2.872H0z" class="prefix__cls-35" data-name="Rectangle 2696" transform="translate(485.617 400.413)"/>
                        <path id="prefix__Rectangle_2697" d="M0 0H127.654V2.872H0z" class="prefix__cls-36" data-name="Rectangle 2697" transform="translate(485.617 403.284)"/>
                        <path id="prefix__Rectangle_2698" d="M0 0H127.654V2.872H0z" class="prefix__cls-37" data-name="Rectangle 2698" transform="translate(485.617 406.156)"/>
                        <path id="prefix__Rectangle_2699" d="M0 0H127.654V2.872H0z" class="prefix__cls-38" data-name="Rectangle 2699" transform="translate(485.617 409.028)"/>
                        <path id="prefix__Rectangle_2700" d="M0 0H127.654V2.872H0z" class="prefix__cls-39" data-name="Rectangle 2700" transform="translate(485.617 411.9)"/>
                        <path id="prefix__Rectangle_2701" d="M0 0H127.654V1.398H0z" class="prefix__cls-39" data-name="Rectangle 2701" transform="translate(485.617 414.772)"/>
                    </g>
                </g>
            </g>
            <g id="prefix___600-2" class="prefix__cls-40" data-name="600-2">
                <g id="prefix__Group_2027" class="prefix__cls-40" data-name="Group 2027">
                    <path id="prefix__Path_3042" d="M525.16 356.846a4.778 4.778 0 0 0-.492-.623l-.525-.985a11.947 11.947 0 0 1-.918-3.247 27.007 27.007 0 0 1-.263-3.9 16.98 16.98 0 0 1 .59-4.658 10.143 10.143 0 0 1 1.706-3.494 7.576 7.576 0 0 1 2.723-2.2 8.392 8.392 0 0 1 3.674-.771 10.869 10.869 0 0 1 5.084 1.082 3.828 3.828 0 0 1-1.448 2.986 8.537 8.537 0 0 0-3.325-.69q-4.28 0-4.576 5.675a7.131 7.131 0 0 1 4.574-1.575 5.379 5.379 0 0 1 4.2 1.772 7.72 7.72 0 0 1 1.6 5.314 8.746 8.746 0 0 1-.541 3.149 6.757 6.757 0 0 1-1.526 2.394 6.864 6.864 0 0 1-2.345 1.526 8.073 8.073 0 0 1-3 .541 6.373 6.373 0 0 1-5.192-2.296zm2.23-7.085q0 6.167 3.166 6.166a2.426 2.426 0 0 0 2.194-1.1 5.424 5.424 0 0 0 .709-2.968q0-3.936-2.8-3.936a4.806 4.806 0 0 0-3.265 1.41z" class="prefix__cls-5" data-name="Path 3042"/>
                    <path id="prefix__Path_3043" d="M544.546 339a6.76 6.76 0 0 1 5.084-2.034 7.279 7.279 0 0 1 3.411.738 6.378 6.378 0 0 1 2.362 2.165 9.031 9.031 0 0 1 1.312 3.494 30.76 30.76 0 0 1 0 9.4 9.19 9.19 0 0 1-1.3 3.477 6.229 6.229 0 0 1-2.362 2.165 8.368 8.368 0 0 1-6.872 0 6.25 6.25 0 0 1-2.345-2.165 9.157 9.157 0 0 1-1.3-3.477 27.346 27.346 0 0 1-.361-4.707q0-1.639.1-2.969a14.079 14.079 0 0 1 .377-2.427 9.118 9.118 0 0 1 .738-1.984 8.35 8.35 0 0 1 1.156-1.676zm2.985 15.613a2.171 2.171 0 0 0 2.1 1.214 2.593 2.593 0 0 0 1.361-.345 2.434 2.434 0 0 0 .935-1.213 9.228 9.228 0 0 0 .541-2.379 40.764 40.764 0 0 0 0-7.675 9.25 9.25 0 0 0-.541-2.378 2.439 2.439 0 0 0-.935-1.213 2.857 2.857 0 0 0-2.722 0 2.433 2.433 0 0 0-.935 1.213 9.25 9.25 0 0 0-.541 2.378 33.206 33.206 0 0 0-.181 3.838q-.001 5.119.918 6.562z" class="prefix__cls-5" data-name="Path 3043"/>
                    <path id="prefix__Path_3044" d="M563.866 339a6.761 6.761 0 0 1 5.084-2.034 7.283 7.283 0 0 1 3.412.738 6.385 6.385 0 0 1 2.362 2.165 9.046 9.046 0 0 1 1.312 3.494 30.842 30.842 0 0 1 0 9.4 9.192 9.192 0 0 1-1.3 3.477 6.222 6.222 0 0 1-2.362 2.165 8.368 8.368 0 0 1-6.872 0 6.25 6.25 0 0 1-2.345-2.165 9.157 9.157 0 0 1-1.3-3.477 27.346 27.346 0 0 1-.361-4.707q0-1.639.1-2.969a14.174 14.174 0 0 1 .377-2.427 9.168 9.168 0 0 1 .738-1.984 8.391 8.391 0 0 1 1.155-1.676zm2.985 15.613a2.171 2.171 0 0 0 2.1 1.214 2.59 2.59 0 0 0 1.361-.345 2.429 2.429 0 0 0 .935-1.213 9.264 9.264 0 0 0 .542-2.379 41 41 0 0 0 0-7.675 9.286 9.286 0 0 0-.542-2.378 2.433 2.433 0 0 0-.935-1.213 2.857 2.857 0 0 0-2.722 0 2.439 2.439 0 0 0-.935 1.213 9.25 9.25 0 0 0-.541 2.378 33.443 33.443 0 0 0-.181 3.838q-.001 5.119.918 6.562z" class="prefix__cls-5" data-name="Path 3044"/>
                </g>
            </g>
            <g id="prefix__Group_971-2" data-name="Group 971-2">
                <g id="prefix__zadowolonych-2" class="prefix__cls-40">
                    <g id="prefix__Group_2028" class="prefix__cls-40" data-name="Group 2028">
                        <path id="prefix__Path_3045" d="M516.843 371.989h-4.024v-.533l3.107-4.709h-3.011v-.612h3.84v.532l-3.108 4.705h3.2z" class="prefix__cls-41" data-name="Path 3045"/>
                        <path id="prefix__Path_3046" d="M522.139 371.989l-.728-1.862h-2.347l-.72 1.862h-.689l2.314-5.878h.573l2.3 5.878zm-.941-2.475l-.68-1.814q-.132-.344-.273-.845a7.209 7.209 0 0 1-.252.845l-.688 1.814z" class="prefix__cls-41" data-name="Path 3046"/>
                        <path id="prefix__Path_3047" d="M528.806 369.006a2.953 2.953 0 0 1-.787 2.216 3.112 3.112 0 0 1-2.264.767h-1.622v-5.854h1.794a2.628 2.628 0 0 1 2.879 2.871zm-.721.024a2.358 2.358 0 0 0-.574-1.726 2.306 2.306 0 0 0-1.708-.581h-.989v4.677h.829a2.522 2.522 0 0 0 1.83-.6 2.374 2.374 0 0 0 .612-1.77z" class="prefix__cls-41" data-name="Path 3047"/>
                        <path id="prefix__Path_3048" d="M535.676 369.054a3.222 3.222 0 0 1-.711 2.21 2.5 2.5 0 0 1-1.976.8 2.532 2.532 0 0 1-2-.791 3.25 3.25 0 0 1-.7-2.232 3.211 3.211 0 0 1 .7-2.216 2.548 2.548 0 0 1 2-.787 2.492 2.492 0 0 1 1.97.8 3.22 3.22 0 0 1 .717 2.216zm-4.665 0a2.777 2.777 0 0 0 .507 1.8 2.07 2.07 0 0 0 2.941 0 3.516 3.516 0 0 0 0-3.6 1.774 1.774 0 0 0-1.464-.611 1.805 1.805 0 0 0-1.479.615 2.747 2.747 0 0 0-.505 1.796z" class="prefix__cls-41" data-name="Path 3048"/>
                        <path id="prefix__Path_3049" d="M542.574 371.989h-.674l-1.181-3.92c-.057-.174-.119-.393-.189-.657a3.982 3.982 0 0 1-.108-.476 9.2 9.2 0 0 1-.28 1.157l-1.145 3.9h-.673l-1.558-5.854h.721l.925 3.615a13.283 13.283 0 0 1 .28 1.378 10 10 0 0 1 .321-1.434l1.049-3.559h.721l1.1 3.591a10.932 10.932 0 0 1 .324 1.4 12.181 12.181 0 0 1 .288-1.386l.921-3.607h.721z" class="prefix__cls-41" data-name="Path 3049"/>
                        <path id="prefix__Path_3050" d="M550.622 369.054a3.227 3.227 0 0 1-.71 2.21 2.5 2.5 0 0 1-1.976.8 2.529 2.529 0 0 1-2-.791 3.245 3.245 0 0 1-.7-2.232 3.206 3.206 0 0 1 .705-2.216 2.545 2.545 0 0 1 2-.787 2.5 2.5 0 0 1 1.97.8 3.225 3.225 0 0 1 .711 2.216zm-4.664 0a2.783 2.783 0 0 0 .506 1.8 1.8 1.8 0 0 0 1.472.614 1.781 1.781 0 0 0 1.469-.612 3.511 3.511 0 0 0 0-3.6 1.772 1.772 0 0 0-1.463-.611 1.807 1.807 0 0 0-1.48.615 2.753 2.753 0 0 0-.504 1.794z" class="prefix__cls-41" data-name="Path 3050"/>
                        <path id="prefix__Path_3051" d="M552.411 371.989v-5.854h.681v5.237h2.583v.617z" class="prefix__cls-41" data-name="Path 3051"/>
                        <path id="prefix__Path_3052" d="M562.233 369.054a3.222 3.222 0 0 1-.711 2.21 2.5 2.5 0 0 1-1.976.8 2.531 2.531 0 0 1-2-.791 3.245 3.245 0 0 1-.7-2.232 3.206 3.206 0 0 1 .705-2.216 2.547 2.547 0 0 1 2-.787 2.493 2.493 0 0 1 1.97.8 3.225 3.225 0 0 1 .712 2.216zm-4.665 0a2.783 2.783 0 0 0 .506 1.8 1.8 1.8 0 0 0 1.472.614 1.779 1.779 0 0 0 1.469-.612 3.51 3.51 0 0 0 0-3.6 1.771 1.771 0 0 0-1.463-.611 1.807 1.807 0 0 0-1.48.615 2.753 2.753 0 0 0-.504 1.794z" class="prefix__cls-41" data-name="Path 3052"/>
                        <path id="prefix__Path_3053" d="M568.595 371.989h-.777l-3.2-4.913h-.032q.065.864.064 1.585v3.328h-.629v-5.854h.769l3.191 4.893h.032q-.008-.108-.036-.7c-.019-.391-.025-.671-.02-.839v-3.359h.637z" class="prefix__cls-41" data-name="Path 3053"/>
                        <path id="prefix__Path_3054" d="M572.178 369.062l1.561-2.927h.737l-1.954 3.583v2.271h-.689v-2.239l-1.95-3.615h.745z" class="prefix__cls-41" data-name="Path 3054"/>
                        <path id="prefix__Path_3055" d="M578.271 366.659a1.911 1.911 0 0 0-1.523.643 2.589 2.589 0 0 0-.559 1.76 2.635 2.635 0 0 0 .539 1.775 1.913 1.913 0 0 0 1.535.627 5.239 5.239 0 0 0 1.4-.22v.6a4.312 4.312 0 0 1-1.5.228 2.542 2.542 0 0 1-2-.785 3.234 3.234 0 0 1-.7-2.23 3.517 3.517 0 0 1 .339-1.586 2.425 2.425 0 0 1 .977-1.049 2.95 2.95 0 0 1 1.5-.368 3.632 3.632 0 0 1 1.61.336l-.288.585a3.1 3.1 0 0 0-1.33-.316z" class="prefix__cls-41" data-name="Path 3055"/>
                        <path id="prefix__Path_3056" d="M585.867 371.989h-.681v-2.755H582.1v2.755h-.681v-5.854h.681v2.49h3.083v-2.49h.681z" class="prefix__cls-41" data-name="Path 3056"/>
                    </g>
                </g>
                <g id="prefix__klientów" class="prefix__cls-40">
                    <g id="prefix__Group_2029" class="prefix__cls-40" data-name="Group 2029">
                        <path id="prefix__Path_3057" d="M532.355 383.4h-.8l-2.134-2.839-.613.545v2.294h-.681v-5.854h.681v2.9l2.655-2.9h.805l-2.355 2.543z" class="prefix__cls-42" data-name="Path 3057"/>
                        <path id="prefix__Path_3058" d="M533.643 383.4v-5.854h.681v5.237h2.583v.617z" class="prefix__cls-42" data-name="Path 3058"/>
                        <path id="prefix__Path_3059" d="M538.384 383.4v-5.854h.68v5.854z" class="prefix__cls-42" data-name="Path 3059"/>
                        <path id="prefix__Path_3060" d="M544.417 383.4h-3.263v-5.854h3.263v.6h-2.583v1.886h2.427v.6h-2.427v2.154h2.583z" class="prefix__cls-42" data-name="Path 3060"/>
                        <path id="prefix__Path_3061" d="M550.771 383.4h-.777l-3.2-4.913h-.032q.065.866.064 1.586v3.327h-.626v-5.854h.769l3.191 4.893h.032c-.005-.072-.017-.3-.036-.7s-.025-.67-.02-.838v-3.36h.637z" class="prefix__cls-42" data-name="Path 3061"/>
                        <path id="prefix__Path_3062" d="M554.667 383.4h-.681v-5.249h-1.854v-.6h4.388v.6h-1.853z" class="prefix__cls-42" data-name="Path 3062"/>
                        <path id="prefix__Path_3063" d="M562.966 380.463a3.225 3.225 0 0 1-.71 2.21 2.5 2.5 0 0 1-1.977.8 2.529 2.529 0 0 1-2-.791 3.25 3.25 0 0 1-.7-2.232 3.21 3.21 0 0 1 .7-2.216 2.548 2.548 0 0 1 2-.787 2.5 2.5 0 0 1 1.971.8 3.222 3.222 0 0 1 .716 2.216zm-4.665 0a2.777 2.777 0 0 0 .507 1.8 2.068 2.068 0 0 0 2.941 0 2.818 2.818 0 0 0 .5-1.806 2.789 2.789 0 0 0-.495-1.791 1.771 1.771 0 0 0-1.464-.611 1.809 1.809 0 0 0-1.479.614 2.749 2.749 0 0 0-.511 1.794zm1.418-3.488q.192-.248.414-.6a7.022 7.022 0 0 0 .351-.613h.809v.084a6.027 6.027 0 0 1-.525.641 5.9 5.9 0 0 1-.6.589h-.444z" class="prefix__cls-42" data-name="Path 3063"/>
                        <path id="prefix__Path_3064" d="M569.865 383.4h-.673l-1.181-3.92c-.056-.174-.119-.392-.189-.657a3.932 3.932 0 0 1-.108-.476 9.187 9.187 0 0 1-.28 1.157l-1.145 3.9h-.673l-1.557-5.854h.72l.925 3.616a13.555 13.555 0 0 1 .281 1.377 10.011 10.011 0 0 1 .32-1.433l1.049-3.56h.721l1.1 3.592a10.956 10.956 0 0 1 .324 1.4 12.129 12.129 0 0 1 .288-1.385l.921-3.608h.721z" class="prefix__cls-42" data-name="Path 3064"/>
                    </g>
                </g>
            </g>
            <g id="prefix__Ellipse_149" data-name="Ellipse 149">
                <g id="prefix__Group_2030" data-name="Group 2030">
                    <circle id="prefix__Ellipse_159" cx="47.973" cy="47.973" r="47.973" class="prefix__cls-1" data-name="Ellipse 159" transform="translate(501.556 310.716)"/>
                </g>
                <g id="prefix__Group_2031" data-name="Group 2031">
                    <path id="prefix__Path_3065" d="M549.528 406.661a47.973 47.973 0 1 1 47.972-47.973 48.027 48.027 0 0 1-47.972 47.973zm0-95.125a47.152 47.152 0 1 0 47.153 47.152 47.205 47.205 0 0 0-47.153-47.152z" class="prefix__cls-7" data-name="Path 3065"/>
                </g>
            </g>
        </g>
        <g id="prefix__laurel">
            <g id="prefix__Group_1406" data-name="Group 1406">
                <g id="prefix__Group_1405" data-name="Group 1405">
                    <g id="prefix__Path_1791" data-name="Path 1791">
                        <path id="prefix__Path_3066" d="M555.576 416.962c0 7.52 7.042 12.957 16.339 9.213-.439-3.492-5.975-11.209-16.339-9.213z" class="prefix__cls-43" data-name="Path 3066"/>
                    </g>
                </g>
            </g>
            <g id="prefix__Group_1410" data-name="Group 1410">
                <g id="prefix__Group_1409" data-name="Group 1409">
                    <g id="prefix__Path_1793" data-name="Path 1793">
                        <path id="prefix__Path_3067" d="M572.246 412.751c1.929 6.425 9.334 10.162 18.323 4.027-1.838-3.946-9.311-8.678-18.323-4.027z" class="prefix__cls-43" data-name="Path 3067"/>
                    </g>
                </g>
            </g>
            <g id="prefix__Group_1414" data-name="Group 1414">
                <g id="prefix__Group_1413" data-name="Group 1413">
                    <g id="prefix__Path_1795" data-name="Path 1795">
                        <path id="prefix__Path_3068" d="M586.957 403.855c3.781 6.195 13.631 6.578 18.688-1.485-5.38-5.109-13.961-3.47-18.688 1.485z" class="prefix__cls-43" data-name="Path 3068"/>
                    </g>
                </g>
            </g>
            <g id="prefix__Group_1418" data-name="Group 1418">
                <g id="prefix__Group_1417" data-name="Group 1417">
                    <g id="prefix__Path_1797" data-name="Path 1797">
                        <path id="prefix__Path_3069" d="M598.425 391.049c4.632 4.159 13.952 3.652 17.456-6.879-7.517-4.095-15.87 2.83-17.456 6.879z" class="prefix__cls-43" data-name="Path 3069"/>
                    </g>
                </g>
            </g>
            <g id="prefix__Group_1422" data-name="Group 1422">
                <g id="prefix__Group_1421" data-name="Group 1421">
                    <g id="prefix__Path_1799" data-name="Path 1799">
                        <path id="prefix__Path_3070" d="M605.677 375.46c4.691 2.47 14.655-.067 14.65-11.7-6.867-1.289-13.627 4.507-14.65 11.7z" class="prefix__cls-43" data-name="Path 3070"/>
                    </g>
                </g>
            </g>
            <g id="prefix__Group_1426" data-name="Group 1426">
                <g id="prefix__Group_1425" data-name="Group 1425">
                    <g id="prefix__Path_1801" data-name="Path 1801">
                        <path id="prefix__Path_3071" d="M618.662 342.977c-7.774.812-11.425 9.29-10.644 15.451 9.523.978 12.962-8.663 10.644-15.451z" class="prefix__cls-43" data-name="Path 3071"/>
                    </g>
                </g>
            </g>
            <g id="prefix__Group_1430" data-name="Group 1430">
                <g id="prefix__Group_1429" data-name="Group 1429">
                    <g id="prefix__Path_1803" data-name="Path 1803">
                        <path id="prefix__Path_3072" d="M610.955 323.55c-8.025 3.422-7.852 13.941-5.63 17.9 9.575-2.22 9.75-11.78 5.63-17.9z" class="prefix__cls-43" data-name="Path 3072"/>
                    </g>
                </g>
            </g>
            <g id="prefix__Group_1434" data-name="Group 1434">
                <g id="prefix__Group_1433" data-name="Group 1433">
                    <g id="prefix__Path_1805" data-name="Path 1805">
                        <path id="prefix__Path_3073" d="M527.007 426.174c9.3 3.74 16.339-1.693 16.339-9.212-10.364-1.996-15.9 5.72-16.339 9.212z" class="prefix__cls-43" data-name="Path 3073"/>
                    </g>
                </g>
            </g>
            <g id="prefix__Group_1438" data-name="Group 1438">
                <g id="prefix__Group_1437" data-name="Group 1437">
                    <g id="prefix__Path_1807" data-name="Path 1807">
                        <path id="prefix__Path_3074" d="M508.353 416.778c8.989 6.135 16.394 2.4 18.323-4.027-9.01-4.651-16.485.082-18.323 4.027z" class="prefix__cls-43" data-name="Path 3074"/>
                    </g>
                </g>
            </g>
            <g id="prefix__Group_1442" data-name="Group 1442">
                <g id="prefix__Group_1441" data-name="Group 1441">
                    <g id="prefix__Path_1809" data-name="Path 1809">
                        <path id="prefix__Path_3075" d="M493.277 402.37c5.056 8.064 14.906 7.68 18.688 1.485-4.727-4.955-13.308-6.594-18.688-1.485z" class="prefix__cls-43" data-name="Path 3075"/>
                    </g>
                </g>
            </g>
            <g id="prefix__Group_1446" data-name="Group 1446">
                <g id="prefix__Group_1445" data-name="Group 1445">
                    <g id="prefix__Path_1811" data-name="Path 1811">
                        <path id="prefix__Path_3076" d="M483.041 384.17c3.505 10.531 12.825 11.038 17.456 6.879-1.586-4.049-9.937-10.974-17.456-6.879z" class="prefix__cls-43" data-name="Path 3076"/>
                    </g>
                </g>
            </g>
            <g id="prefix__Group_1450" data-name="Group 1450">
                <g id="prefix__Group_1449" data-name="Group 1449">
                    <g id="prefix__Path_1813" data-name="Path 1813">
                        <path id="prefix__Path_3077" d="M478.6 363.761c-.005 11.632 9.957 14.17 14.65 11.7-1.03-7.194-7.788-12.99-14.65-11.7z" class="prefix__cls-43" data-name="Path 3077"/>
                    </g>
                </g>
            </g>
            <g id="prefix__Group_1454" data-name="Group 1454">
                <g id="prefix__Group_1453" data-name="Group 1453">
                    <g id="prefix__Path_1815" data-name="Path 1815">
                        <path id="prefix__Path_3078" d="M480.259 342.977c-2.318 6.787 1.119 16.429 10.644 15.451.781-6.161-2.87-14.639-10.644-15.451z" class="prefix__cls-43" data-name="Path 3078"/>
                    </g>
                </g>
            </g>
            <g id="prefix__Group_1458" data-name="Group 1458">
                <g id="prefix__Group_1457" data-name="Group 1457">
                    <g id="prefix__Path_1817" data-name="Path 1817">
                        <path id="prefix__Path_3079" d="M487.967 323.55c-4.12 6.121-3.947 15.681 5.63 17.9 2.223-3.959 2.396-14.478-5.63-17.9z" class="prefix__cls-43" data-name="Path 3079"/>
                    </g>
                </g>
            </g>
        </g>
    </g>
</svg>
