<svg xmlns="http://www.w3.org/2000/svg" width="141.732" height="139.688" viewBox="0 0 141.732 139.688">
    <defs>
        <style>
            .prefix__cls-1{fill:#caa626}.prefix__cls-2{isolation:isolate}.prefix__cls-3{fill:#212110}
        </style>
    </defs>
    <g id="prefix__Group_962" data-name="Group 962" transform="translate(-87.274 -291.409)">
        <g id="prefix__Path_1408" data-name="Path 1408">
            <path id="prefix__Path_3021" d="M226.049 366.753c1.451-1.838 2.957-3.74 2.957-5.505s-1.5-3.668-2.96-5.508-2.963-3.749-3.337-5.883c-.387-2.209.387-4.561 1.149-6.837s1.468-4.437.893-6.014c-.592-1.628-2.552-2.834-4.628-4.112-2.014-1.24-4.1-2.523-5.2-4.42-1.111-1.923-1.187-4.388-1.258-6.772-.075-2.419-.144-4.7-1.236-6s-3.344-1.774-5.72-2.266c-2.331-.483-4.741-.979-6.435-2.4s-2.593-3.7-3.465-5.907c-.9-2.258-1.742-4.393-3.233-5.255a5.529 5.529 0 0 0-3-.519c-.317.013-.643.037-.977.07s-.646.071-.977.11q-.57.075-1.155.162a24.655 24.655 0 0 1-4.474.346 9.381 9.381 0 0 1-.977-.072 7.581 7.581 0 0 1-.978-.227c-.156-.043-.323-.055-.475-.111-2.048-.746-3.669-2.566-5.236-4.328-1.627-1.827-3.161-3.553-4.882-3.85-1.645-.283-3.624.787-5.73 1.922s-4.313 2.322-6.579 2.322-4.45-1.181-6.579-2.322-4.085-2.2-5.732-1.922c-1.719.3-3.255 2.032-4.879 3.85-1.568 1.76-3.193 3.584-5.239 4.33-.152.056-.316.065-.473.11a7.443 7.443 0 0 1-.977.228 9.4 9.4 0 0 1-.977.072 24.491 24.491 0 0 1-4.475-.346q-.586-.086-1.154-.162c-.33-.043-.66-.081-.979-.11s-.66-.057-.977-.07a5.534 5.534 0 0 0-3 .519c-1.489.862-2.332 3-3.228 5.252-.881 2.208-1.778 4.491-3.469 5.907s-4.1 1.922-6.433 2.4c-2.374.49-4.62.954-5.72 2.264s-1.161 3.589-1.236 6c-.073 2.385-.147 4.847-1.258 6.773-1.1 1.9-3.182 3.182-5.2 4.423-2.076 1.278-4.038 2.483-4.629 4.112-.573 1.576.138 3.73.9 6.014s1.54 4.628 1.148 6.839c-.375 2.128-1.879 4.039-3.338 5.882s-2.96 3.74-2.96 5.508 1.5 3.669 2.958 5.505 2.97 3.75 3.339 5.883c.387 2.211-.392 4.564-1.148 6.839s-1.469 4.437-.895 6.014c.592 1.629 2.553 2.834 4.629 4.112 2.016 1.24 4.1 2.522 5.2 4.421 1.113 1.922 1.187 4.387 1.258 6.772.072 2.419.141 4.7 1.235 6s3.342 1.775 5.72 2.264c2.329.484 4.74.979 6.433 2.4s2.594 3.7 3.469 5.908c.895 2.257 1.741 4.391 3.228 5.253a5.543 5.543 0 0 0 3 .52q.476-.022.977-.073c.334-.034.647-.07.979-.11q.569-.075 1.154-.162a28.33 28.33 0 0 1 3.985-.387c.168 0 .33.028.49.033.33.015.66.023.977.067a7.439 7.439 0 0 1 .977.238c.158.043.321.062.473.117 2.049.746 3.67 2.566 5.239 4.329 1.625 1.826 3.16 3.552 4.879 3.849 1.65.284 3.63-.786 5.732-1.921s4.312-2.322 6.578-2.322 4.457 1.183 6.579 2.322 4.091 2.207 5.73 1.921c1.72-.3 3.255-2.031 4.883-3.849 1.567-1.76 3.192-3.58 5.235-4.329.152-.056.319-.067.475-.11a7.265 7.265 0 0 1 .978-.227c.319-.046.649-.059.977-.073a24.845 24.845 0 0 1 4.475.346q.58.087 1.154.162c.33.043.66.083.977.11s.66.059.977.073a5.52 5.52 0 0 0 3-.52c1.489-.862 2.333-3 3.231-5.253.87-2.207 1.779-4.489 3.468-5.908s4.1-1.921 6.435-2.4c2.373-.491 4.62-.955 5.72-2.264s1.161-3.585 1.235-6c.073-2.383.146-4.85 1.258-6.773 1.1-1.9 3.182-3.179 5.2-4.418 2.075-1.278 4.037-2.485 4.629-4.113.575-1.576-.139-3.733-.894-6.016s-1.534-4.626-1.149-6.837c.376-2.135 1.883-4.041 3.341-5.888zm-35.465 46.827c-.324.2-.649.4-.977.6s-.652.377-.978.564a61.7 61.7 0 0 1-5.629 2.845c-.33.144-.648.3-.978.44s-.652.256-.978.387a61.383 61.383 0 0 1-45.8 0c-.325-.132-.66-.251-.978-.387s-.651-.29-.977-.44a61.077 61.077 0 0 1-5.629-2.849c-.329-.187-.659-.371-.979-.564s-.652-.394-.977-.6a61.542 61.542 0 0 1 0-104.668c.33-.2.649-.4.977-.6s.652-.376.979-.562a61.346 61.346 0 0 1 5.629-2.85c.33-.145.648-.3.977-.44s.653-.256.978-.387a61.373 61.373 0 0 1 45.8 0c.33.13.66.25.978.387s.652.29.978.44a61.568 61.568 0 0 1 5.628 2.849c.33.186.66.369.978.562s.652.4.977.6a61.542 61.542 0 0 1 0 104.668z" class="prefix__cls-1" data-name="Path 3021"/>
        </g>
        <g id="prefix__Path_1409" data-name="Path 1409">
            <path id="prefix__Path_3022" d="M189.507 312.844c-.316-.2-.619-.406-.935-.6s-.624-.365-.934-.548a57.567 57.567 0 0 0-5.387-2.792c-.316-.141-.621-.291-.935-.421l-.934-.393a57.667 57.667 0 0 0-43.835 0l-.935.387c-.315.136-.624.282-.934.421a57.318 57.318 0 0 0-5.387 2.792c-.316.183-.632.359-.938.549s-.623.4-.934.6a57.736 57.736 0 0 0 0 97.443c.315.2.619.409.934.6s.624.366.938.549a57.8 57.8 0 0 0 5.387 2.792c.31.14.621.29.934.421s.623.263.935.393a57.666 57.666 0 0 0 43.835 0l.934-.387c.316-.137.624-.283.935-.421a57.317 57.317 0 0 0 5.387-2.791c.31-.182.632-.359.934-.55s.623-.4.935-.6a57.735 57.735 0 0 0 0-97.443zm0 94.247c-.308.211-.623.414-.935.618s-.621.4-.934.6a55.388 55.388 0 0 1-5.387 2.98c-.308.147-.624.283-.935.421s-.621.286-.934.421a54.986 54.986 0 0 1-43.835 0c-.315-.136-.624-.282-.935-.421s-.631-.275-.934-.421a55.066 55.066 0 0 1-5.387-2.98q-.471-.3-.938-.6c-.315-.2-.631-.407-.934-.618a55.074 55.074 0 0 1 0-91.051c.308-.211.623-.411.934-.618s.623-.4.938-.6a54.76 54.76 0 0 1 5.387-2.982c.307-.147.624-.28.934-.421s.622-.29.935-.421a55 55 0 0 1 43.835 0c.316.137.623.283.934.421s.632.275.935.421a54.859 54.859 0 0 1 5.387 2.981c.315.193.624.4.934.6s.632.408.935.618a55.072 55.072 0 0 1 0 91.051z" class="prefix__cls-1" data-name="Path 3022"/>
        </g>
        <g id="prefix___600" class="prefix__cls-2" data-name="600">
            <g id="prefix__Group_2022" class="prefix__cls-2" data-name="Group 2022">
                <path id="prefix__Path_3023" d="M130.752 357.7l-.029-2.061V350.5q0-.842.174-3.454a10.81 10.81 0 0 1-4.006 2.9 2.963 2.963 0 0 1-1.6-2.236 14.063 14.063 0 0 0 5.573-5.718 10.168 10.168 0 0 1 1.77-.144 10.686 10.686 0 0 1 1.8.144v13.642l-.029 2.061 1.857-.029h1.771a6.355 6.355 0 0 1 .174 1.538 7.088 7.088 0 0 1-.174 1.6h-11.548a7.088 7.088 0 0 1-.174-1.6 6.355 6.355 0 0 1 .174-1.538h2.525z" class="prefix__cls-3" data-name="Path 3023"/>
                <path id="prefix__Path_3024" d="M141.288 341.994h11.7a6.034 6.034 0 0 1 .7 2.243 2.678 2.678 0 0 1-.549 1.532l-1.04 1.512a26.845 26.845 0 0 0-3.12 5.816 25.227 25.227 0 0 0-1.444 6.513l-.087 1.193a9.083 9.083 0 0 1-1.9.145 10.984 10.984 0 0 1-2.018-.145l.117-1.309a23.71 23.71 0 0 1 4.382-11.951l.349-.466a12.984 12.984 0 0 1 1.741-2.064l-.116-.145a19.139 19.139 0 0 1-4.209.32h-4.672a4.955 4.955 0 0 1-.175-1.468 4.312 4.312 0 0 1 .341-1.726z" class="prefix__cls-3" data-name="Path 3024"/>
                <path id="prefix__Path_3025" d="M168.077 358.016h.9a4.3 4.3 0 0 1 .319 1.568 4.919 4.919 0 0 1-.088 1.1 20.4 20.4 0 0 1-2.815.262 3.19 3.19 0 0 1-2.467-.857 3.885 3.885 0 0 1-.784-2.684v-17.761l.2-.2h1.458a2.023 2.023 0 0 1 1.6.537 2.785 2.785 0 0 1 .465 1.814v14.89q-.007 1.331 1.212 1.331z" class="prefix__cls-3" data-name="Path 3025"/>
                <path id="prefix__Path_3026" d="M183.75 359.061a4.064 4.064 0 0 1-.523 1.1 3.515 3.515 0 0 1-.754.871 3.543 3.543 0 0 1-2.758-1.654 5.828 5.828 0 0 1-4.122 1.828 5.054 5.054 0 0 1-1.987-.363 4.085 4.085 0 0 1-1.423-.972 3.942 3.942 0 0 1-.841-1.394 4.854 4.854 0 0 1-.276-1.625 5.049 5.049 0 0 1 .421-2.133 4.088 4.088 0 0 1 1.19-1.524 5.49 5.49 0 0 1 1.8-.929 7.6 7.6 0 0 1 2.25-.319q1.566 0 2.438.088v-.785a1.925 1.925 0 0 0-2.148-2.206 15.253 15.253 0 0 0-4.412 1.017 4.6 4.6 0 0 1-.987-2.7 16.092 16.092 0 0 1 6.357-1.307 5.223 5.223 0 0 1 3.57 1.219 4.638 4.638 0 0 1 1.393 3.686v5.951a2.521 2.521 0 0 0 .812 2.151zm-7.315-.725a3.824 3.824 0 0 0 2.729-1.278v-2.525q-.465-.028-.9-.058t-.842-.029a3.312 3.312 0 0 0-1.944.479 1.811 1.811 0 0 0-.668 1.582 1.938 1.938 0 0 0 .435 1.35 1.53 1.53 0 0 0 1.19.479z" class="prefix__cls-3" data-name="Path 3026"/>
            </g>
            <g id="prefix__Group_2023" class="prefix__cls-2" data-name="Group 2023">
                <path id="prefix__Path_3027" d="M193.3 348.3a4.736 4.736 0 0 1 0 2.365l-3.044-.051v6.615q0 1.158 1.081 1.158h1.56a4.549 4.549 0 0 1 .251 1.434 3.163 3.163 0 0 1-.075.88 20.649 20.649 0 0 1-3.018.226q-3.02 0-3.019-3.068v-7.22l-1.912.026a5.656 5.656 0 0 1 0-2.365l1.912.024v-1.81a2.357 2.357 0 0 1 .4-1.56 1.781 1.781 0 0 1 1.384-.452h1.258l.176.15v3.7z" class="prefix__cls-3" data-name="Path 3027"/>
            </g>
        </g>
        <g id="prefix__Group_971" data-name="Group 971">
            <g id="prefix__zadowolonych" class="prefix__cls-2">
                <g id="prefix__Group_2024" class="prefix__cls-2" data-name="Group 2024">
                    <path id="prefix__Path_3028" d="M123.691 373.951a3.485 3.485 0 0 1-.928 2.615 3.671 3.671 0 0 1-2.672.9h-1.913v-6.907h2.116a3.1 3.1 0 0 1 3.4 3.387zm-.85.029a2.779 2.779 0 0 0-.678-2.036 2.716 2.716 0 0 0-2.015-.685h-1.167v5.517h.978a2.976 2.976 0 0 0 2.159-.7 2.8 2.8 0 0 0 .723-2.096z" class="prefix__cls-3" data-name="Path 3028"/>
                    <path id="prefix__Path_3029" d="M131.8 374.008a3.8 3.8 0 0 1-.838 2.608 2.947 2.947 0 0 1-2.331.949 2.981 2.981 0 0 1-2.355-.933 3.831 3.831 0 0 1-.829-2.633 3.785 3.785 0 0 1 .831-2.615 3.006 3.006 0 0 1 2.362-.928 2.938 2.938 0 0 1 2.324.945 3.8 3.8 0 0 1 .836 2.607zm-5.5 0a3.277 3.277 0 0 0 .6 2.129 2.119 2.119 0 0 0 1.736.724 2.1 2.1 0 0 0 1.733-.722 4.144 4.144 0 0 0 0-4.244 2.09 2.09 0 0 0-1.727-.721 2.134 2.134 0 0 0-1.745.724 3.243 3.243 0 0 0-.604 2.11z" class="prefix__cls-3" data-name="Path 3029"/>
                    <path id="prefix__Path_3030" d="M137.8 375.633a1.7 1.7 0 0 1-.661 1.422 2.871 2.871 0 0 1-1.8.51 4.5 4.5 0 0 1-1.889-.316v-.775a5.071 5.071 0 0 0 1.918.387 2 2 0 0 0 1.209-.3 1 1 0 0 0 .406-.847 1.094 1.094 0 0 0-.144-.589 1.336 1.336 0 0 0-.482-.422 6.557 6.557 0 0 0-1.027-.439 3.279 3.279 0 0 1-1.377-.818 1.8 1.8 0 0 1-.413-1.233 1.528 1.528 0 0 1 .6-1.27 2.493 2.493 0 0 1 1.587-.473 4.676 4.676 0 0 1 1.894.378l-.25.7a4.29 4.29 0 0 0-1.663-.359 1.616 1.616 0 0 0-1 .274.906.906 0 0 0-.359.761 1.162 1.162 0 0 0 .132.587 1.271 1.271 0 0 0 .447.422 5.647 5.647 0 0 0 .961.422 3.8 3.8 0 0 1 1.495.832 1.63 1.63 0 0 1 .416 1.146zm-2.612-5.739q.227-.294.489-.709a8.293 8.293 0 0 0 .413-.723h.954v.1a8.806 8.806 0 0 1-1.332 1.451h-.524z" class="prefix__cls-3" data-name="Path 3030"/>
                    <path id="prefix__Path_3031" d="M145.816 377.471h-.794l-1.393-4.625c-.066-.205-.141-.463-.222-.775a4.473 4.473 0 0 1-.128-.562 10.542 10.542 0 0 1-.331 1.365l-1.351 4.6h-.797l-1.838-6.907h.85l1.092 4.266a15.852 15.852 0 0 1 .33 1.625 11.858 11.858 0 0 1 .378-1.691l1.238-4.2h.85l1.3 4.233a12.747 12.747 0 0 1 .383 1.653 14.161 14.161 0 0 1 .34-1.634l1.087-4.257h.85z" class="prefix__cls-3" data-name="Path 3031"/>
                    <path id="prefix__Path_3032" d="M149.316 377.471v-6.907h.8v6.907z" class="prefix__cls-3" data-name="Path 3032"/>
                    <path id="prefix__Path_3033" d="M156.926 377.471l-.86-2.2H153.3l-.85 2.2h-.812l2.73-6.935h.676l2.716 6.935zm-1.111-2.92l-.8-2.14c-.1-.271-.211-.6-.321-1a8.864 8.864 0 0 1-.3 1l-.812 2.14z" class="prefix__cls-3" data-name="Path 3033"/>
                    <path id="prefix__Path_3034" d="M164.79 373.951a3.485 3.485 0 0 1-.928 2.615 3.671 3.671 0 0 1-2.672.9h-1.913v-6.907h2.117a3.1 3.1 0 0 1 3.4 3.387zm-.85.029a2.779 2.779 0 0 0-.678-2.036 2.716 2.716 0 0 0-2.015-.685h-1.167v5.517h.978a2.976 2.976 0 0 0 2.159-.7 2.8 2.8 0 0 0 .723-2.096z" class="prefix__cls-3" data-name="Path 3034"/>
                    <path id="prefix__Path_3035" d="M169.858 371.183a2.252 2.252 0 0 0-1.8.759 3.051 3.051 0 0 0-.659 2.076 3.112 3.112 0 0 0 .635 2.094 2.259 2.259 0 0 0 1.812.74 6.194 6.194 0 0 0 1.648-.26v.7a5.061 5.061 0 0 1-1.771.269 3 3 0 0 1-2.355-.926 3.809 3.809 0 0 1-.829-2.631 4.16 4.16 0 0 1 .4-1.871 2.864 2.864 0 0 1 1.153-1.237 3.483 3.483 0 0 1 1.773-.435 4.277 4.277 0 0 1 1.9.4l-.341.69a3.654 3.654 0 0 0-1.566-.368z" class="prefix__cls-3" data-name="Path 3035"/>
                    <path id="prefix__Path_3036" d="M177.761 377.471h-4.748v-.628l3.666-5.556h-3.552v-.723h4.53v.629l-3.666 5.55h3.77z" class="prefix__cls-3" data-name="Path 3036"/>
                    <path id="prefix__Path_3037" d="M183.519 377.471h-3.851v-6.907h3.851v.714h-3.047v2.222h2.862v.708h-2.862v2.542h3.047z" class="prefix__cls-3" data-name="Path 3037"/>
                    <path id="prefix__Path_3038" d="M191.015 377.471h-.915l-3.774-5.8h-.038q.075 1.02.075 1.87v3.926h-.741v-6.907h.907l3.765 5.773h.038c-.006-.085-.021-.358-.043-.82s-.03-.791-.023-.989v-3.964h.751z" class="prefix__cls-3" data-name="Path 3038"/>
                    <path id="prefix__Path_3039" d="M193.485 377.471v-6.907h.8v6.907z" class="prefix__cls-3" data-name="Path 3039"/>
                    <path id="prefix__Path_3040" d="M201.094 377.471l-.859-2.2h-2.769l-.85 2.2h-.816l2.731-6.935h.675l2.717 6.935zm-1.11-2.92l-.8-2.14c-.1-.271-.211-.6-.321-1a9.08 9.08 0 0 1-.3 1l-.812 2.14z" class="prefix__cls-3" data-name="Path 3040"/>
                </g>
            </g>
        </g>
    </g>
</svg>
