<svg xmlns="http://www.w3.org/2000/svg" width="265.726" height="272" viewBox="0 0 265.726 272">
    <defs>
        <filter id="prefix__Union_7" width="265.726" height="272" x="0" y="0" filterUnits="userSpaceOnUse">
            <feOffset dy="3"/>
            <feGaussianBlur result="blur" stdDeviation="8.5"/>
            <feFlood flood-color="#fff"/>
            <feComposite in2="blur" operator="in"/>
            <feComposite in="SourceGraphic"/>
        </filter>
    </defs>
    <g>
        <path id="prefix__Union_7-2" d="M4441.76 6877.337a.791.791 0 01.879-.728 2.242 2.242 0 011.341.632 8.909 8.909 0 002.425-1.935l-1.192-7.25c-.118-.663-.245-.893-.521-.893-.246 0-.514.26-.956 1.484l-.206.6h-.308l.4-1.179c.449-1.311 1.16-1.649 1.863-1.649.663 0 1 .338 1.161 1.485l.83 6.081a14.145 14.145 0 002.441-5.252c-.506-.27-1.232-.783-1.232-1.494a.77.77 0 01.822-.819c.584 0 .844.449.844 1.309 0 2.182-1.651 5.253-3.183 7.179a9.666 9.666 0 01-3.19 2.687 3.483 3.483 0 01-1.406.4c-.432.005-.812-.224-.812-.658zm110.784-2.853a1.41 1.41 0 00-.71-.294c-.264 0-.375.313-.457.912h-.476c.061-.761.082-1.886.082-4.562h.476c.172 2.3 1.125 4.3 3.781 4.3a2.332 2.332 0 002.556-2.354c0-1.449-1.37-2.2-3.305-3.195-1.866-.951-3.488-1.978-3.488-4 0-2.159 1.854-3.244 3.9-3.244a3.914 3.914 0 012.533.77 1.428 1.428 0 00.711.294c.264 0 .375-.334.455-.923h.476c-.059.649-.1 1.459-.1 3.823h-.478c-.151-1.765-1.1-3.569-3.407-3.569-1.48 0-2.535.871-2.535 2.058 0 1.572 1.511 2.161 3.276 3.154 2.159 1.144 3.8 2.159 3.8 4.075 0 2.342-1.947 3.529-4.259 3.529a4.831 4.831 0 01-2.831-.774zm-93.7 0a1.42 1.42 0 00-.708-.294c-.264 0-.377.315-.457.913h-.478c.061-.852.082-2.048.082-4.979h.476c.172 2.515 1.125 4.715 3.783 4.715a2.562 2.562 0 002.7-2.769c0-1.683-1.308-2.636-3.236-3.792-1.977-1.186-3.7-2.312-3.7-4.654 0-2.453 1.855-3.6 3.905-3.6a3.917 3.917 0 012.534.77 1.342 1.342 0 00.71.294c.264 0 .374-.313.455-.911h.478c-.061.73-.1 1.622-.1 4.238h-.477c-.151-1.978-1.1-4-3.407-4a2.371 2.371 0 00-2.535 2.413c0 1.886 1.624 2.637 3.489 3.8 2.161 1.349 3.741 2.443 3.741 4.675 0 2.637-2 3.944-4.41 3.944a4.837 4.837 0 01-2.847-.763zm-24.224.617a3.431 3.431 0 00.307-.933l2.835-10a1.862 1.862 0 00.063-.434c0-.428-.267-.632-1.081-.632l.08-.34a6 6 0 002.841-.663l-2.092 7.638c1.026-2.354 1.991-3.316 3.08-3.316 1.018 0 1.683.741 1.683 2.273 0 2.45-1.714 6.492-4.74 6.492a1.377 1.377 0 01-1.358-1.081c-.457.371-.917.744-1.374 1.112zm2.369-3.216l-.562 2.031c.277.67.657.9 1.153.9 1.833 0 3.365-4.044 3.365-6.477 0-.948-.292-1.406-.758-1.406-.887.001-2.245 2.219-3.2 4.953zm93.673 3.176l-4.856-10.98c-.457-1.045-.994-1.309-1.431-1.328v-.417c.558.04 1.431.061 2.222.061 1.073 0 2.079-.021 2.655-.061v.417c-.984.04-1.48.2-1.48.76a2.645 2.645 0 00.273.982l3.568 8.062 3.1-6.9a4.676 4.676 0 00.506-1.775c0-.8-.579-1.085-1.632-1.125v-.417c.415.04 1.561.061 2.3.061.487 0 1.045-.021 1.4-.061v.417c-.811.2-1.166.718-1.743 2.027l-4.553 10.281zm-9.121 0l-8.3-11.5v8.983c0 1.521.273 1.938 1.886 2v.415c-.5-.038-1.41-.059-2.119-.059s-1.471.021-1.928.059v-.415c1.41-.061 1.683-.478 1.683-2v-8.009c0-1.521-.273-1.723-1.683-1.784v-.417c.457.04 1.227.061 1.928.061s1.4-.021 1.917-.061l6.62 9.216v-6.813c0-1.511-.264-1.926-1.886-1.987v-.417c.5.04 1.41.061 2.119.061s1.472-.021 1.926-.061v.417c-1.408.061-1.681.476-1.681 1.987v10.321zm-37.311 0l-4.856-10.98c-.457-1.045-.994-1.309-1.429-1.328v-.417c.556.04 1.429.061 2.22.061 1.073 0 2.079-.021 2.655-.061v.417c-.984.04-1.479.2-1.479.76a2.605 2.605 0 00.273.982l3.569 8.062 3.1-6.9a4.676 4.676 0 00.506-1.775c0-.8-.577-1.085-1.632-1.125v-.417c.415.04 1.561.061 2.3.061.487 0 1.045-.021 1.4-.061v.417c-.812.2-1.167.718-1.744 2.027l-4.553 10.281zm83.038-.161c-1.248 0-2.4.021-3.072.059v-.415c1.745-.061 2.1-.315 2.1-2v-9.732h-1.328c-2.241 0-2.769.932-2.992 3.67h-.478c.042-.437.061-1.036.061-1.7 0-.476-.04-1.469-.141-2.443 1.725.061 4.147.061 5.85.061s4.117 0 5.84-.061a24.411 24.411 0 00-.151 2.443c0 .668.019 1.288.059 1.7h-.476c-.223-2.738-.739-3.67-2.99-3.67h-1.33v9.732c0 1.684.355 1.938 2.1 2v.415c-.72-.037-1.928-.059-3.053-.059zm-23.353 0c-1.2 0-3.833 0-5.81.059v-.415c1.41-.061 1.683-.273 1.683-1.784v-8.223c0-1.521-.273-1.723-1.683-1.784v-.417c1.978.061 4.614.061 5.81.061s2.91 0 4.136-.061c-.1.892-.142 1.805-.142 2.241a11.283 11.283 0 00.061 1.288h-.478c-.212-2.281-.871-3.051-2.575-3.051h-1.517c-1.408 0-1.684.2-1.684 1.723v3.863h1.726c1.438 0 1.6-1.37 1.723-2.12h.476c-.062.7-.071 1.167-.071 1.542 0 .294.01.537.01.781 0 .568.021 1.064.132 2.333h-.487c-.121-1.026-.344-2.121-1.782-2.121h-1.726v3.945c0 1.511.275 1.723 1.684 1.723h1.521c2.029 0 2.759-.871 2.992-3.467h.476c-.04.374-.062.913-.062 1.49 0 .476.042 1.48.144 2.453-1.354-.059-3.221-.059-4.558-.059zm-37.223 0c-1.076 0-2.079.021-2.657.059v-.415c1.41-.061 1.683-.273 1.683-1.784v-8.223c0-1.521-.273-1.723-1.683-1.784v-.417c.579.04 1.582.061 2.657.061.951 0 2-.021 2.635-.061v.417c-1.408.061-1.684.263-1.684 1.784v8.223c0 1.511.276 1.723 1.684 1.784v.415c-.639-.037-1.685-.059-2.636-.059zm-9.208 0c-1.2 0-3.833 0-5.81.059v-.415c1.41-.061 1.683-.273 1.683-1.784v-8.223c0-1.521-.273-1.723-1.683-1.784v-.417c1.978.061 4.614.061 5.81.061s2.91 0 4.136-.061c-.1.892-.141 1.805-.141 2.241a11.3 11.3 0 00.061 1.288h-.478c-.212-2.281-.871-3.051-2.573-3.051h-1.523c-1.408 0-1.683.2-1.683 1.723v3.863h1.725c1.438 0 1.6-1.37 1.723-2.12h.476c-.061.7-.071 1.167-.071 1.542 0 .294.01.537.01.781 0 .568.021 1.064.132 2.333h-.487c-.121-1.026-.344-2.121-1.783-2.121h-1.725v3.945c0 1.511.275 1.723 1.683 1.723h1.523c2.027 0 2.757-.871 2.99-3.467h.476c-.038.374-.06.913-.06 1.49 0 .476.041 1.48.142 2.453-1.35-.059-3.216-.059-4.555-.059zm-19.738 0c-1.083 0-2.079.021-2.665.061v-.415c.993-.04 1.49-.2 1.49-.76a2.488 2.488 0 00-.285-.984l-1.043-2.363h-5.07l-.7 1.551a3.472 3.472 0 00-.344 1.328c0 .71.475 1.137 1.61 1.229v.415c-.414-.04-1.135-.061-1.885-.061-.476 0-1.45.021-1.8.061v-.415c.789-.2 1.288-.975 1.7-1.928l4.583-10.382h.334l4.856 10.98c.457 1.036 1 1.309 1.441 1.33v.415c-.568-.042-1.442-.062-2.223-.062zm-7.39-4.876h4.7l-2.342-5.282zm112.074-6.761v-.812h28.3v.812zm-185.429 0v-.812h28.3v.812zm121.052-11.342a8.919 8.919 0 01-3.474-3.342 9.6 9.6 0 010-9.516 8.936 8.936 0 013.474-3.342 10.75 10.75 0 019.906 0 8.893 8.893 0 013.458 3.329 9.745 9.745 0 010 9.543 8.872 8.872 0 01-3.458 3.329 10.75 10.75 0 01-9.906 0zm1.337-14.184a6.621 6.621 0 00-2.549 2.508 7.392 7.392 0 000 7.151 6.64 6.64 0 002.549 2.51 7.311 7.311 0 003.628.91 7.167 7.167 0 003.6-.91 6.681 6.681 0 002.521-2.51 7.385 7.385 0 000-7.151 6.662 6.662 0 00-2.521-2.508 7.142 7.142 0 00-3.6-.909 7.285 7.285 0 00-3.63.907zm87.457 15.187l-6.967-8.09-3.331 3.382v4.708h-2.6v-18.2h2.6v10.167l9.882-10.167h2.965l-7.775 8.19 8.268 10.013zm-34.072 0v-18.2h12.846v2.262h-10.246v5.59h9.126v2.212h-9.126v5.875h10.609v2.264zm-15.986 0l-4.966-14.538-4.967 14.538h-2.782l-6.084-18.2h2.678l4.914 14.795 5.122-14.795h2.395l5.017 14.873 5.019-14.873h2.47l-6.084 18.2zm-53.814 0l-10.921-13.575v13.575h-2.6v-18.2h2.132l10.921 13.574v-13.574h2.6v18.2zm-29.793 0l-4.965-14.538-4.967 14.538h-2.782l-6.085-18.2h2.678l4.916 14.795 5.122-14.795h2.392l5.019 14.873 5.019-14.873H4482l-6.083 18.2zm-28.883 0v-18.2h2.6v18.2zm-22.382 0v-1.769l11.442-14.173H4422.1v-2.262h14.692v1.769l-11.391 14.17h11.729v2.264zm-23 0v-18.2h7.671a11.092 11.092 0 015.122 1.145 8.391 8.391 0 013.472 3.211 9.728 9.728 0 010 9.49 8.388 8.388 0 01-3.472 3.211 11.063 11.063 0 01-5.122 1.147zm2.6-2.264h4.914a8.4 8.4 0 003.888-.858 6.194 6.194 0 002.587-2.405 7.482 7.482 0 000-7.151 6.218 6.218 0 00-2.587-2.405 8.428 8.428 0 00-3.888-.858h-4.914zm119.548-17.42l3.536-3.382h3.172l-4.368 3.382zm-68.365-8.74a10.359 10.359 0 01-3.987-2.518l.844-1.4a9.99 9.99 0 003.657 2.333 13.116 13.116 0 004.832.9 9.207 9.207 0 005.548-1.4 4.331 4.331 0 001.874-3.638 3.81 3.81 0 00-.992-2.754 6.557 6.557 0 00-2.462-1.58 33.86 33.86 0 00-3.968-1.139 38.623 38.623 0 01-4.537-1.36 7.218 7.218 0 01-2.9-2.038 5.436 5.436 0 01-1.2-3.693 6.277 6.277 0 01.993-3.437 6.74 6.74 0 013.03-2.478 12.39 12.39 0 015.09-.919 14.393 14.393 0 014.188.623 12.384 12.384 0 013.565 1.691l-.7 1.507a11.852 11.852 0 00-3.4-1.616 12.77 12.77 0 00-3.657-.552 8.665 8.665 0 00-5.4 1.433 4.491 4.491 0 00-1.838 3.712 3.8 3.8 0 00.992 2.754 6.569 6.569 0 002.46 1.58 37.349 37.349 0 004.006 1.175 37.562 37.562 0 014.521 1.36 7.458 7.458 0 012.885 2 5.256 5.256 0 011.192 3.619 6.112 6.112 0 01-1.009 3.418 6.867 6.867 0 01-3.1 2.463 12.831 12.831 0 01-5.145.919 14.956 14.956 0 01-5.382-.965zm-47.949-.735a12.589 12.589 0 01-4.8-4.685 13.539 13.539 0 010-13.3 12.6 12.6 0 014.8-4.684 14.594 14.594 0 0113.668-.019 12.447 12.447 0 014.8 4.667 13.673 13.673 0 010 13.374 12.454 12.454 0 01-4.8 4.667 14.583 14.583 0 01-13.668-.019zm.975-21.182a10.791 10.791 0 00-4.134 4.06 11.88 11.88 0 000 11.576 10.79 10.79 0 004.134 4.058 12.388 12.388 0 0011.7 0 10.837 10.837 0 004.116-4.058 11.867 11.867 0 000-11.576 10.837 10.837 0 00-4.116-4.06 12.384 12.384 0 00-11.7 0zm201.985 22.708l-3.307-7.239h-14.917l-3.269 7.239h-2.021l11.832-25.721h1.875l11.83 25.721zm-17.489-8.821h13.478l-6.76-14.843zm-51.42 8.821v-25.721h10.18a14.894 14.894 0 017.109 1.653 12.083 12.083 0 014.832 4.576 13.6 13.6 0 010 13.265 12.089 12.089 0 01-4.832 4.574 14.9 14.9 0 01-7.109 1.654zm1.874-1.69h8.159a13.427 13.427 0 006.284-1.416 10.111 10.111 0 004.188-3.949 12.2 12.2 0 000-11.61 10.131 10.131 0 00-4.187-3.951 13.427 13.427 0 00-6.284-1.416h-8.159zm-27.978 1.69l-3.307-7.239h-14.917l-3.271 7.239h-2.02l11.832-25.721h1.873l11.832 25.721zm-17.489-8.821h13.485l-6.76-14.843zm3.277-54.979v-31.872c.541.075 1.083.14 1.626.189v30.057h16.138a33.143 33.143 0 100-66.286h-16.138v32.313a33.2 33.2 0 0031.546-25.97c.478.366.946.751 1.4 1.144a34.754 34.754 0 111.009-8.3 34.054 34.054 0 01-.252 3.97 34.757 34.757 0 01-17.567 64.753zm-32.33-68.723a33.178 33.178 0 0032.33 33.123v-33.937h17.764a34.526 34.526 0 0116.035 3.936c.1-1.03.159-2.069.159-3.122a33.144 33.144 0 00-66.288 0z" data-name="Union 7" transform="translate(-4371 -6635)" style="stroke:transparent;stroke-miterlimit:10"/>
    </g>
</svg>
