<svg xmlns="http://www.w3.org/2000/svg" width="95.313" height="98.11" viewBox="0 0 95.313 98.11">
  <g id="Group_1591" data-name="Group 1591" transform="translate(-56.666 -56.922)">
    <path id="Path_1930" data-name="Path 1930" d="M155.273,87.933a15.531,15.531,0,0,0,15.056-11.8q-.306-.264-.625-.511A14.8,14.8,0,0,1,155.636,87.2V72.79h7.2a14.78,14.78,0,0,1,0,29.561h-7.2v-13.4c-.242-.022-.484-.051-.725-.085v14.214h7.922A15.5,15.5,0,0,0,170.667,74.2a15.273,15.273,0,0,0,.112-1.771,15.506,15.506,0,1,0-15.506,15.505Zm0-30.286a14.8,14.8,0,0,1,14.781,14.781c0,.47-.027.933-.071,1.392a15.4,15.4,0,0,0-7.151-1.754h-7.922V87.2a14.778,14.778,0,0,1,.362-29.552Z" transform="translate(-52.988 0)" fill="#5f7083"/>
    <path id="Path_1931" data-name="Path 1931" d="M105.65,310.02c-.486,0-.916.43-1.374,1.479l.933-3.406a2.673,2.673,0,0,1-1.268.3l-.036.151c.363,0,.483.092.483.282a.85.85,0,0,1-.028.194l-1.264,4.459a1.528,1.528,0,0,1-.138.416l.109.053.613-.5a.615.615,0,0,0,.606.483c1.349,0,2.113-1.8,2.113-2.9C106.4,310.351,106.1,310.02,105.65,310.02Zm-1.37,3.744c-.222,0-.391-.1-.514-.4l.25-.905c.426-1.219,1.029-2.208,1.427-2.208.208,0,.338.2.338.627C105.781,311.961,105.1,313.764,104.28,313.764Z" transform="translate(-29.517 -160.151)" fill="#5f7083"/>
    <path id="Path_1932" data-name="Path 1932" d="M115.2,313.41a.344.344,0,0,0-.366.366c0,.317.324.546.549.666a6.3,6.3,0,0,1-1.089,2.342l-.37-2.712c-.071-.511-.222-.662-.518-.662-.314,0-.631.151-.831.736l-.18.525h.137l.092-.268c.2-.546.317-.662.426-.662s.18.1.233.4l.532,3.234a3.953,3.953,0,0,1-1.081.862,1,1,0,0,0-.6-.282.352.352,0,0,0-.391.324c0,.194.169.3.363.3a1.543,1.543,0,0,0,.627-.18,4.3,4.3,0,0,0,1.423-1.2,6.212,6.212,0,0,0,1.42-3.2C115.581,313.611,115.464,313.41,115.2,313.41Z" transform="translate(-35.121 -163.541)" fill="#5f7083"/>
    <path id="Path_1933" data-name="Path 1933" d="M217.526,308.385v.185c.47.018.728.145.728.5a2.075,2.075,0,0,1-.226.791l-1.384,3.079-1.592-3.595a1.181,1.181,0,0,1-.122-.439c0-.249.222-.321.66-.339v-.185c-.258.018-.705.027-1.185.027-.353,0-.741-.009-.99-.027v.185c.195.009.434.127.638.592l2.166,4.9h.149l2.03-4.585c.258-.583.416-.814.778-.9v-.185c-.158.018-.407.027-.624.027C218.222,308.412,217.711,308.4,217.526,308.385Z" transform="translate(-99.946 -160.337)" fill="#5f7083"/>
    <path id="Path_1934" data-name="Path 1934" d="M160.386,308.385v.185c.47.018.728.145.728.5a2.077,2.077,0,0,1-.226.791l-1.384,3.079-1.592-3.595a1.174,1.174,0,0,1-.122-.439c0-.249.221-.321.66-.339v-.185c-.258.018-.705.027-1.185.027-.353,0-.741-.009-.99-.027v.185c.194.009.434.127.637.592l2.166,4.9h.149l2.03-4.585c.258-.583.416-.814.778-.9v-.185c-.158.018-.407.027-.624.027C161.082,308.412,160.571,308.4,160.386,308.385Z" transform="translate(-63.513 -160.337)" fill="#5f7083"/>
    <path id="Path_1935" data-name="Path 1935" d="M177.757,312.256h-.212c-.1,1.157-.429,1.546-1.334,1.546h-.678c-.628,0-.75-.095-.75-.769v-1.759h.769c.642,0,.742.488.8.945h.217c-.05-.565-.059-.787-.059-1.04,0-.109,0-.217,0-.348,0-.167,0-.375.032-.687h-.212c-.054.335-.127.945-.769.945h-.769v-1.723c0-.678.122-.769.75-.769h.678c.76,0,1.053.344,1.148,1.361h.213a4.968,4.968,0,0,1-.027-.574c0-.194.018-.6.063-1-.547.027-1.307.027-1.845.027s-1.709,0-2.591-.027v.185c.628.027.751.118.751.8v3.667c0,.674-.122.769-.751.8v.185c.882-.027,2.057-.027,2.591-.027.6,0,1.429,0,2.03.027-.045-.434-.063-.882-.063-1.094C177.73,312.663,177.739,312.423,177.757,312.256Z" transform="translate(-74.287 -160.337)" fill="#5f7083"/>
    <path id="Path_1936" data-name="Path 1936" d="M248.262,310.523c-.787-.443-1.461-.706-1.461-1.406a1,1,0,0,1,1.131-.918,1.536,1.536,0,0,1,1.519,1.592h.213c0-1.054.018-1.415.045-1.7H249.5c-.036.262-.086.412-.2.412a.643.643,0,0,1-.317-.131,1.744,1.744,0,0,0-1.13-.344c-.914,0-1.741.484-1.741,1.447,0,.9.723,1.361,1.555,1.786.864.443,1.474.778,1.474,1.424a1.039,1.039,0,0,1-1.14,1.049c-1.185,0-1.61-.891-1.687-1.917H246.1c0,1.194-.009,1.7-.036,2.035h.212c.036-.267.086-.407.2-.407a.63.63,0,0,1,.316.131,2.154,2.154,0,0,0,1.266.344c1.031,0,1.9-.529,1.9-1.573C249.958,311.487,249.225,311.034,248.262,310.523Z" transform="translate(-120.761 -160.107)" fill="#5f7083"/>
    <path id="Path_1937" data-name="Path 1937" d="M234.9,312.256h-.212c-.1,1.157-.43,1.546-1.334,1.546h-.678c-.628,0-.75-.095-.75-.769v-1.759h.769c.642,0,.741.488.8.945h.217c-.05-.565-.059-.787-.059-1.04,0-.109,0-.217,0-.348,0-.167,0-.375.032-.687h-.213c-.054.335-.126.945-.769.945h-.769v-1.723c0-.678.122-.769.75-.769h.678c.76,0,1.053.344,1.148,1.361h.213a4.976,4.976,0,0,1-.027-.574c0-.194.018-.6.063-1-.547.027-1.307.027-1.845.027s-1.709,0-2.591-.027v.185c.628.027.75.118.75.8v3.667c0,.674-.122.769-.75.8v.185c.882-.027,2.057-.027,2.591-.027.6,0,1.429,0,2.03.027-.045-.434-.063-.882-.063-1.094C234.87,312.663,234.879,312.423,234.9,312.256Z" transform="translate(-110.72 -160.337)" fill="#5f7083"/>
    <path id="Path_1938" data-name="Path 1938" d="M261.611,308.412c-.76,0-1.84,0-2.609-.027.045.434.063.877.063,1.09,0,.3-.009.565-.027.76h.213c.1-1.221.335-1.637,1.334-1.637h.592v4.341c0,.751-.158.864-.936.891v.185c.3-.018.814-.027,1.37-.027.5,0,1.04.009,1.361.027v-.185c-.778-.027-.936-.14-.936-.891V308.6h.592c1,0,1.234.416,1.334,1.637h.212c-.018-.186-.027-.461-.027-.76a10.834,10.834,0,0,1,.068-1.09C263.447,308.412,262.37,308.412,261.611,308.412Z" transform="translate(-129.013 -160.337)" fill="#5f7083"/>
    <path id="Path_1939" data-name="Path 1939" d="M200.876,308.385v.185c.723.027.841.213.841.886V312.5l-2.953-4.11c-.231.018-.547.027-.855.027s-.656-.009-.859-.027v.185c.628.027.75.118.75.8v3.572c0,.678-.122.864-.75.891v.185c.2-.018.547-.027.859-.027s.724.009.945.027v-.185c-.719-.027-.841-.213-.841-.891v-4.007l3.7,5.128h.212v-4.6c0-.674.122-.859.751-.886v-.185c-.2.018-.547.027-.859.027S201.1,308.4,200.876,308.385Z" transform="translate(-89.512 -160.337)" fill="#5f7083"/>
    <path id="Path_1940" data-name="Path 1940" d="M147.988,313.157l-2.166-4.9h-.149l-2.044,4.63c-.185.425-.407.769-.76.859v.185c.158-.018.592-.027.8-.027.334,0,.656.009.841.027v-.185c-.507-.041-.719-.231-.719-.547a1.555,1.555,0,0,1,.154-.592l.312-.692h2.261l.466,1.054a1.117,1.117,0,0,1,.127.438c0,.249-.222.321-.665.339v.185c.262-.018.706-.027,1.189-.027.348,0,.737.009.99.027v-.185C148.435,313.74,148.191,313.618,147.988,313.157Zm-3.645-1.424,1.053-2.356,1.044,2.356Z" transform="translate(-54.965 -160.258)" fill="#5f7083"/>
    <path id="Path_1941" data-name="Path 1941" d="M133.045,308.488c-.832-.52-1.556-.854-1.556-1.7a1.058,1.058,0,0,1,1.131-1.076c1.026,0,1.451.9,1.519,1.782h.213c0-1.167.018-1.565.045-1.89h-.213c-.036.267-.086.407-.2.407a.6.6,0,0,1-.317-.131,1.744,1.744,0,0,0-1.13-.344,1.579,1.579,0,0,0-1.741,1.6c0,1.045.769,1.547,1.65,2.076.859.515,1.443.94,1.443,1.691a1.143,1.143,0,0,1-1.2,1.235c-1.185,0-1.61-.981-1.687-2.1h-.212c0,1.307-.009,1.84-.036,2.22h.213c.036-.267.086-.407.2-.407a.63.63,0,0,1,.316.131,2.154,2.154,0,0,0,1.266.344,1.755,1.755,0,0,0,1.967-1.759C134.714,309.578,134.008,309.09,133.045,308.488Z" transform="translate(-47.236 -158.523)" fill="#5f7083"/>
    <path id="Path_1942" data-name="Path 1942" d="M188.384,308.385v.185c.628.027.751.118.751.8v3.667c0,.674-.122.769-.751.8v.185c.258-.018.705-.027,1.185-.027.425,0,.891.009,1.176.027v-.185c-.628-.027-.751-.122-.751-.8v-3.667c0-.678.122-.769.751-.8v-.185c-.285.018-.751.027-1.176.027C189.089,308.412,188.642,308.4,188.384,308.385Z" transform="translate(-83.986 -160.337)" fill="#5f7083"/>
    <path id="Path_1943" data-name="Path 1943" d="M61.069,241.79a6.508,6.508,0,0,0,6.1.008,5.556,5.556,0,0,0,2.138-2.081,6.1,6.1,0,0,0,0-5.964,5.556,5.556,0,0,0-2.138-2.081,6.509,6.509,0,0,0-6.1.008,5.619,5.619,0,0,0-2.138,2.089,6.04,6.04,0,0,0,0,5.932A5.613,5.613,0,0,0,61.069,241.79Zm-1.409-7.636a4.815,4.815,0,0,1,1.844-1.811,5.523,5.523,0,0,1,5.219,0,4.831,4.831,0,0,1,1.835,1.811,5.293,5.293,0,0,1,0,5.162,4.828,4.828,0,0,1-1.835,1.81,5.523,5.523,0,0,1-5.219,0,4.812,4.812,0,0,1-1.844-1.81,5.3,5.3,0,0,1,0-5.162Z" transform="translate(-0.948 -110.943)" fill="#5f7083"/>
    <path id="Path_1944" data-name="Path 1944" d="M126.774,242.142a3.063,3.063,0,0,0,1.385-1.1,2.726,2.726,0,0,0,.45-1.524,2.341,2.341,0,0,0-.532-1.614,3.322,3.322,0,0,0-1.286-.893,16.832,16.832,0,0,0-2.016-.606,16.687,16.687,0,0,1-1.787-.524,2.93,2.93,0,0,1-1.1-.7,1.7,1.7,0,0,1-.442-1.229,2,2,0,0,1,.82-1.655,3.86,3.86,0,0,1,2.409-.639,5.7,5.7,0,0,1,1.63.246,5.3,5.3,0,0,1,1.515.721l.312-.672a5.518,5.518,0,0,0-1.59-.754,6.413,6.413,0,0,0-1.868-.278,5.533,5.533,0,0,0-2.27.41,3,3,0,0,0-1.352,1.106,2.8,2.8,0,0,0-.443,1.533,2.425,2.425,0,0,0,.533,1.647,3.223,3.223,0,0,0,1.294.91,17.208,17.208,0,0,0,2.024.606,15.039,15.039,0,0,1,1.77.508,2.926,2.926,0,0,1,1.1.7,1.7,1.7,0,0,1,.442,1.229,1.932,1.932,0,0,1-.836,1.622,4.108,4.108,0,0,1-2.474.623,5.847,5.847,0,0,1-2.155-.4,4.448,4.448,0,0,1-1.631-1.04L120.3,241a4.626,4.626,0,0,0,1.778,1.122,6.668,6.668,0,0,0,2.4.434A5.7,5.7,0,0,0,126.774,242.142Z" transform="translate(-40.575 -110.943)" fill="#5f7083"/>
    <path id="Path_1945" data-name="Path 1945" d="M181.494,242.615l-5.276-11.47h-.836l-5.277,11.47h.9l1.459-3.228h6.653l1.475,3.228Zm-8.7-3.933,3-6.62,3.015,6.62Z" transform="translate(-72.331 -111.087)" fill="#5f7083"/>
    <path id="Path_1946" data-name="Path 1946" d="M231.169,231.144v11.47h4.539a6.647,6.647,0,0,0,3.171-.737,5.391,5.391,0,0,0,2.154-2.04,6.064,6.064,0,0,0,0-5.916,5.391,5.391,0,0,0-2.154-2.04,6.642,6.642,0,0,0-3.171-.737Zm9.143,3.146a5.44,5.44,0,0,1,0,5.178,4.511,4.511,0,0,1-1.868,1.761,5.982,5.982,0,0,1-2.8.631H232V231.9h3.638a5.99,5.99,0,0,1,2.8.631A4.514,4.514,0,0,1,240.312,234.29Z" transform="translate(-111.266 -111.087)" fill="#5f7083"/>
    <path id="Path_1947" data-name="Path 1947" d="M289.392,239.386h6.653l1.475,3.228h.9l-5.276-11.47h-.836l-5.276,11.47h.9Zm3.326-7.324,3.015,6.62h-6.014Z" transform="translate(-146.886 -111.087)" fill="#5f7083"/>
    <path id="Path_1948" data-name="Path 1948" d="M64.73,274.907a4.943,4.943,0,0,0-2.284-.511H59.025v8.118h3.421A4.942,4.942,0,0,0,64.73,282a3.75,3.75,0,0,0,1.548-1.432,4.34,4.34,0,0,0,0-4.232A3.749,3.749,0,0,0,64.73,274.907Zm.534,5.143a2.77,2.77,0,0,1-1.154,1.073,3.757,3.757,0,0,1-1.734.383H60.185v-6.1h2.191a3.757,3.757,0,0,1,1.734.383,2.768,2.768,0,0,1,1.154,1.073,3.337,3.337,0,0,1,0,3.189Z" transform="translate(-1.504 -138.665)" fill="#5f7083"/>
    <path id="Path_1949" data-name="Path 1949" d="M93.961,274.4H87.409v1.009H92.43l-5.1,6.32v.788h6.784V281.5h-5.23l5.079-6.32Z" transform="translate(-19.551 -138.666)" fill="#5f7083"/>
    <rect id="Rectangle_935" data-name="Rectangle 935" width="1.16" height="8.118" transform="translate(77.759 135.731)" fill="#5f7083"/>
    <path id="Path_1950" data-name="Path 1950" d="M131.234,282.514l2.215-6.482,2.215,6.482h1.218l2.713-8.118h-1.1l-2.238,6.633-2.238-6.633H132.95l-2.284,6.6-2.192-6.6H127.28l2.714,8.118Z" transform="translate(-45.025 -138.666)" fill="#5f7083"/>
    <path id="Path_1951" data-name="Path 1951" d="M177.421,274.4h-1.16v6.053l-4.87-6.053h-.951v8.118h1.16v-6.053l4.87,6.053h.951Z" transform="translate(-72.545 -138.666)" fill="#5f7083"/>
    <path id="Path_1952" data-name="Path 1952" d="M200.37,276.17a4.285,4.285,0,0,0,0,4.244,3.98,3.98,0,0,0,1.548,1.49,4.791,4.791,0,0,0,4.418,0,3.953,3.953,0,0,0,1.542-1.484,4.346,4.346,0,0,0,0-4.256,3.958,3.958,0,0,0-1.542-1.484,4.794,4.794,0,0,0-4.418,0A3.984,3.984,0,0,0,200.37,276.17Zm3.763-1a3.192,3.192,0,0,1,1.606.405,2.979,2.979,0,0,1,1.125,1.119,3.294,3.294,0,0,1,0,3.189,2.98,2.98,0,0,1-1.125,1.119,3.188,3.188,0,0,1-1.606.406,3.251,3.251,0,0,1-1.618-.406,2.957,2.957,0,0,1-1.136-1.119,3.294,3.294,0,0,1,0-3.189,2.956,2.956,0,0,1,1.136-1.119A3.255,3.255,0,0,1,204.133,275.173Z" transform="translate(-91.27 -138.503)" fill="#5f7083"/>
    <path id="Path_1953" data-name="Path 1953" d="M212.336,268.413h-1.415l-1.577,1.508h1.044Z" transform="translate(-97.351 -134.85)" fill="#5f7083"/>
    <path id="Path_1954" data-name="Path 1954" d="M234.123,282.514l2.215-6.482,2.215,6.482h1.217l2.714-8.118h-1.1l-2.238,6.633-2.238-6.633h-1.067l-2.284,6.6-2.192-6.6h-1.194l2.713,8.118Z" transform="translate(-110.629 -138.666)" fill="#5f7083"/>
    <path id="Path_1955" data-name="Path 1955" d="M278.867,281.5h-4.731v-2.621h4.07V277.9h-4.07v-2.493H278.7V274.4h-5.728v8.118h5.891Z" transform="translate(-137.924 -138.666)" fill="#5f7083"/>
    <path id="Path_1956" data-name="Path 1956" d="M299.035,274.4v8.118h1.159v-2.1l1.485-1.508,3.108,3.607h1.356l-3.687-4.465,3.467-3.653H304.6l-4.407,4.534V274.4Z" transform="translate(-154.539 -138.666)" fill="#5f7083"/>
    <rect id="Rectangle_936" data-name="Rectangle 936" width="12.619" height="0.362" transform="translate(139.359 148.098)" fill="#5f7083"/>
    <rect id="Rectangle_937" data-name="Rectangle 937" width="12.619" height="0.362" transform="translate(56.666 148.098)" fill="#5f7083"/>
  </g>
</svg>
