<svg xmlns="http://www.w3.org/2000/svg" id="prefix__man-walking-directions-button" width="10.28" height="16.649" viewBox="0 0 10.28 16.649">
    <g id="prefix__directionswalk">
        <path id="prefix__Path_1623" d="M118.526 2.749a1.394 1.394 0 001.423-1.375 1.424 1.424 0 00-2.847 0 1.394 1.394 0 001.424 1.375zm.079 4.735h3.875V6.11h-2.847l-1.582-2.52a1.478 1.478 0 00-1.186-.687.734.734 0 00-.4.076l-4.27 1.3v3.969h1.423V5.422l1.661-.535-3.079 11.762h1.423l2.293-6.186 1.819 2.368v3.819h1.423v-4.889l-1.977-3.437.554-2.215z" data-name="Path 1623" transform="translate(-112.2)" style="fill:#fff"/>
    </g>
</svg>
