<svg width="58" height="58" viewBox="0 0 58 58" fill="none" xmlns="http://www.w3.org/2000/svg">
<circle cx="29" cy="29" r="29" fill="#F9F9FA"/>
<path d="M19.4059 25.7119H23.6252V38.409H19.4059V25.7119ZM21.5438 19.5913C20.0997 19.5913 19.1562 20.5394 19.1562 21.7837C19.1562 23.0024 20.0721 23.9781 21.4886 23.9781H21.5155C22.9872 23.9781 23.9037 23.0024 23.9037 21.7837C23.876 20.5394 22.9872 19.5913 21.5438 19.5913ZM33.9846 25.4136C31.745 25.4136 30.7416 26.6455 30.1819 27.5094V25.7119H25.9614C26.0172 26.903 25.9614 38.409 25.9614 38.409H30.1819V31.318C30.1819 30.9382 30.2095 30.5599 30.3206 30.2878C30.6261 29.5297 31.3205 28.7445 32.4853 28.7445C34.0136 28.7445 34.6239 29.9094 34.6239 31.6155V38.4089H38.8438V31.1282C38.8438 27.2282 36.7624 25.4136 33.9846 25.4136Z" fill="#B79D63"/>
</svg>
