<svg width="100" height="100" viewBox="0 0 100 100" fill="none" xmlns="http://www.w3.org/2000/svg">
<path d="M32.9113 55.1C44.9511 55.1 54.7113 45.3398 54.7113 33.3C54.7113 21.2602 44.9511 11.5 32.9113 11.5C20.8715 11.5 11.1113 21.2602 11.1113 33.3C11.1113 45.3398 20.8715 55.1 32.9113 55.1Z" fill="#EDEFF5"/>
<path d="M37.6223 43.1444L19.8667 37.6889L51.4334 28L83.0111 37.6889L51.4334 47.3889L44.2889 45.1889" stroke="#B79D63" stroke-width="2.38095" stroke-miterlimit="10"/>
<path d="M37.9888 64.8667L32.2666 63.1111V49.8667" stroke="#B79D63" stroke-width="2.38095" stroke-miterlimit="10"/>
<path d="M70.6001 49.8667V63.1111L51.4334 69L44.0557 66.7334" stroke="#B79D63" stroke-width="2.38095" stroke-miterlimit="10"/>
<path d="M50.5445 37.689L40.689 41.089V76.8112" stroke="#B79D63" stroke-width="2.38095" stroke-miterlimit="10"/>
<path d="M40.6891 83.2109C42.211 83.2109 43.4447 81.9473 43.4447 80.3886C43.4447 78.83 42.211 77.5664 40.6891 77.5664C39.1673 77.5664 37.9336 78.83 37.9336 80.3886C37.9336 81.9473 39.1673 83.2109 40.6891 83.2109Z" stroke="#B79D63" stroke-width="2.38095" stroke-miterlimit="10"/>
</svg>
