<svg width="58" height="58" viewBox="0 0 58 58" fill="none" xmlns="http://www.w3.org/2000/svg">
<circle cx="29" cy="29" r="29" fill="#F9F9FA"/>
<path d="M40.2 21.5775C39.3759 21.9476 38.4909 22.1974 37.5604 22.3085C38.5091 21.7339 39.238 20.8238 39.5818 19.7396C38.6933 20.2711 37.7102 20.6589 36.6635 20.8662C35.8247 19.9639 34.6302 19.3999 33.3075 19.3999C30.7694 19.3999 28.713 21.4791 28.713 24.0445C28.713 24.4082 28.7529 24.7635 28.8313 25.1032C25.0119 24.9093 21.6258 23.0601 19.3586 20.2498C18.9637 20.9363 18.7369 21.7339 18.7369 22.5852C18.7369 24.1973 19.5484 25.6184 20.7807 26.4521C20.028 26.4273 19.3194 26.2192 18.6998 25.871C18.6991 25.8901 18.6991 25.9107 18.6991 25.9291C18.6991 28.1802 20.2829 30.0577 22.3855 30.4845C22.0004 30.5899 21.5943 30.6473 21.1749 30.6473C20.878 30.6473 20.5909 30.6182 20.3109 30.5645C20.8948 32.4087 22.5927 33.7519 24.6029 33.7901C23.0311 35.0357 21.0496 35.7794 18.8965 35.7794C18.5254 35.7794 18.1592 35.7575 17.8 35.7143C19.8334 37.0306 22.249 37.7999 24.8445 37.7999C33.297 37.7999 37.9203 30.7223 37.9203 24.5837C37.9203 24.3828 37.9147 24.1818 37.9063 23.9822C38.8046 23.3276 39.5832 22.5102 40.2 21.5775Z" fill="#B79D63"/>
</svg>
