<svg width="145" height="117" viewBox="0 0 145 117" fill="none" xmlns="http://www.w3.org/2000/svg">
<g clip-path="url(#clip0_435_33284)">
<path d="M7.80113 65.1305C7.80113 65.2241 7.73224 65.3162 7.59282 65.3162C6.80877 65.3162 7.59282 62.4027 4.45498 62.4027C2.65396 62.4027 1.9388 63.4198 1.9388 64.552C1.9388 67.8813 8.86403 67.4425 8.86403 72.2063C8.86403 75.1888 6.71855 76.5067 3.92517 76.5067C3.53314 76.5067 2.47025 76.3227 1.6862 76.16C0.254242 75.8593 0 75.4435 0 74.0336C0 73.4092 0.0688914 72.0223 0.531448 72.0223C1.13179 72.0223 0.623303 72.6927 1.3155 73.9646C1.54678 74.3803 2.33083 75.7229 4.26963 75.7229C6.46267 75.7229 7.34021 74.382 7.34021 73.2251C7.34021 69.7102 0.414989 69.9419 0.414989 65.5018C0.414989 63.5595 1.84531 61.6172 4.77811 61.6172C5.10124 61.6172 5.56216 61.6402 6.02472 61.7322C7.80113 62.0789 7.80113 62.3336 7.80113 63.2128V65.1321V65.1305Z" fill="white"/>
<path d="M14.5933 63.583C14.5933 62.9816 14.3621 62.8666 13.5075 62.6809C12.7923 62.5412 12.4922 62.4952 12.4922 62.2191C12.4922 62.0104 12.8153 61.9414 13.1614 61.9414C14.016 61.9414 15.9088 62.0334 16.4846 62.0334C17.1768 62.0334 20.4311 61.9414 22.3928 61.9414C22.7389 61.9414 22.7389 62.1961 22.7389 62.6809V64.9009C22.7389 64.9929 22.6454 65.0389 22.5536 65.0389C22.2534 65.0389 22.2993 64.7842 21.9303 63.9988C21.5842 63.1886 21.4694 62.8189 17.5442 62.8189C16.7142 62.8189 16.5748 63.1196 16.5748 63.9067V67.9064C16.5748 68.3682 16.9209 68.4142 17.7295 68.4142H19.7372C21.4448 68.4142 20.9149 66.4259 21.4923 66.4259C21.7925 66.4259 21.8155 66.6346 21.8155 66.8876C21.8155 67.42 21.7236 67.7437 21.7236 68.8299C21.7236 69.8011 21.8155 70.4256 21.8155 71.073C21.8155 71.2817 21.7925 71.4657 21.5612 71.4657C21.2151 71.4657 21.1922 71.096 21.0757 70.4256C20.8674 69.2227 20.6607 69.0616 17.8214 69.0616C16.7355 69.0616 16.5748 69.1997 16.5748 69.6631V74.1492C16.5748 75.1894 16.6683 75.306 19.3452 75.306C20.9149 75.306 21.4448 75.0743 21.9303 74.5205C23.0375 73.2487 22.9226 72.6472 23.3147 72.6472C23.523 72.6472 23.5443 72.7623 23.5443 72.8789C23.5443 72.971 23.4754 73.0876 23.4524 73.2487L23.0129 75.6067C22.944 75.9765 22.8045 76.0931 22.4814 76.0931H15.9039C14.6343 76.0931 13.9192 76.1162 13.5272 76.1392C13.1122 76.1622 12.9957 76.1852 12.8809 76.1852C12.6972 76.1852 12.3281 76.1852 12.3281 75.9075C12.3281 75.5607 12.7431 75.6067 13.3205 75.4457C13.9208 75.2617 14.5901 75.3767 14.5901 74.4055V63.5847L14.5933 63.583Z" fill="white"/>
<path d="M36.8095 70.5188C36.6258 69.9404 36.5323 69.9404 34.6395 69.9173C33.0697 69.8943 32.7007 69.9864 32.6088 70.1721C32.0544 71.3059 30.9702 74.4955 30.9702 74.7502C30.9702 75.2136 31.4557 75.3976 31.6394 75.4436C32.3546 75.6293 32.8171 75.7213 32.8171 75.9054C32.8171 76.1831 32.4481 76.1831 32.2857 76.1831C31.6624 76.1831 30.9242 76.0911 30.2534 76.0911C29.3758 76.0911 28.477 76.1831 27.6913 76.1831C27.5059 76.1831 27.4141 76.1141 27.4141 75.9054C27.4141 75.6047 28.0144 75.6507 28.5918 75.4436C29.0527 75.2809 29.1692 75.1199 29.284 74.8652L35.1693 61.4776C35.2152 61.3839 35.307 61.3379 35.4005 61.3379C35.5383 61.3379 35.6548 61.4069 35.6761 61.5006L39.9687 73.779C40.4083 75.0509 40.8692 75.3516 41.1694 75.4436C41.7927 75.6293 42.2306 75.5587 42.2306 75.9054C42.2306 76.1371 42.0469 76.1831 41.7697 76.1831C40.7774 76.1831 39.9933 76.0911 39.0928 76.0911C38.1923 76.0911 37.4312 76.1831 36.5307 76.1831C36.3011 76.1831 36.2076 76.0204 36.2076 75.9284C36.2076 75.6507 36.6701 75.5817 37.5001 75.442C37.6379 75.419 38.0775 75.2333 38.0775 74.8406C38.0775 74.6779 37.9856 74.4478 37.9397 74.2621L36.8079 70.5155L36.8095 70.5188ZM33.0927 68.3694C33.0468 68.5074 32.9549 68.6471 32.9549 68.7851C32.9549 68.9002 34.4328 68.9002 34.6165 68.9002C34.7543 68.9002 36.2322 68.9002 36.2322 68.7621C36.2322 68.6471 36.1862 68.5304 36.1173 68.3217L34.8937 64.6688C34.8707 64.6228 34.8478 64.5307 34.7559 64.5307C34.71 64.5307 34.6641 64.5768 34.6411 64.6458L33.0943 68.3678L33.0927 68.3694Z" fill="white"/>
<path d="M65.8893 69.778C66.1665 69.4313 66.5585 68.6688 66.5585 68.4601C66.5585 68.3451 66.5109 68.2054 66.2813 68.1594C65.3119 67.9967 64.9198 67.9754 64.9198 67.7437C64.9198 67.6517 65.1036 67.535 65.2659 67.535C65.8892 67.535 66.4896 67.581 67.1129 67.581C67.6903 67.581 68.3136 67.535 68.9139 67.535C69.1222 67.535 69.26 67.604 69.26 67.7897C69.26 68.0444 69.0517 68.0214 68.7532 68.0444C68.453 68.0674 68.0839 68.1381 67.7608 68.5538L64.5524 72.5765C64.5049 72.6225 64.5049 72.7375 64.5049 72.8312C64.5049 73.1549 66.3288 75.1663 67.3212 75.1663C67.8067 75.1663 68.5219 74.8902 68.7761 74.8902C68.9598 74.8902 69.0993 74.9822 69.0993 75.1449C69.0993 75.8844 67.6689 76.5088 66.5831 76.5088C65.1757 76.5088 64.0899 75.306 63.629 74.8212C63.3977 74.5665 63.214 74.2888 63.1221 74.2888C62.8449 74.2888 61.9444 76.5088 58.5753 76.5088C57.1909 76.5088 54.8125 75.9764 54.8125 73.2026C54.8125 70.1971 58.5047 69.433 58.5047 69.0632C58.5047 68.9712 57.4435 68.1611 57.4435 66.7512C57.4435 65.3412 58.344 63.9297 60.4435 63.9297C62.0592 63.9297 63.191 64.7612 63.191 66.1497C63.191 68.1381 60.8602 68.5078 60.8602 68.7625C60.8602 68.8315 60.9291 68.8775 60.975 68.9252L63.8143 71.9307C63.8832 71.9997 63.9291 72.0934 63.998 72.0934C64.1128 72.0934 64.1604 71.9784 64.2523 71.8617L65.8909 69.7797L65.8893 69.778ZM59.1034 69.594C58.2259 69.9637 56.6102 70.7739 56.6102 72.5765C56.6102 74.0094 57.6485 75.3963 59.4955 75.3963C61.4572 75.3963 62.8187 73.9404 62.8187 73.6627C62.8187 73.5707 62.7498 73.5 62.6809 73.431L59.1034 69.5924V69.594ZM60.4419 68.4141C60.6502 68.4141 61.9887 67.512 61.9887 66.0101C61.9887 65.3396 61.5491 64.4835 60.396 64.4835C59.6119 64.4835 58.7803 64.7135 58.7803 65.9394C58.7803 67.3033 60.2106 68.4141 60.4419 68.4141Z" fill="white"/>
<path d="M93.4219 71.8366C93.4219 70.4037 93.3989 70.1474 92.0375 70.1474C90.676 70.1474 90.4907 70.1014 90.4907 69.8237C90.4907 69.3833 90.9533 69.3833 91.2994 69.3833C92.2688 69.3833 93.2152 69.4293 94.1846 69.4293C95.154 69.4293 96.1693 69.3833 96.8631 69.3833C97.37 69.3833 97.6242 69.4293 97.6242 69.661C97.6242 70.0307 97.1174 70.0307 96.4925 70.0307C96.0086 70.0307 95.4082 70.0537 95.4082 70.8392V74.4921C95.4082 74.7929 95.3393 75.2316 94.9227 75.4403C93.6302 76.0417 92.1539 76.5035 89.7755 76.5035C85.6437 76.5035 81.7891 74.1224 81.7891 69.4276C81.7891 64.7328 85.4124 61.6123 90.2594 61.6123C91.8046 61.6123 92.8445 61.867 94.0911 62.2137C94.9916 62.4684 95.0605 62.7922 95.0605 65.0796C95.0605 65.2653 94.967 65.2653 94.7603 65.2653C94.2535 65.2653 93.9303 62.3058 90.3988 62.3058C88.7832 62.3058 84.2363 62.7445 84.2363 69.2189C84.2363 73.5423 87.5136 75.8084 90.0987 75.8084C90.676 75.8084 91.3912 75.7394 91.9456 75.5783C92.7067 75.3466 93.4235 75.2776 93.4235 73.1512V71.8334L93.4219 71.8366Z" fill="white"/>
<path d="M109.144 61.6172C114.568 61.6172 116.876 65.8256 116.876 68.9708C116.876 72.116 114.683 76.5084 109.027 76.5084C104.735 76.5084 101.48 73.4799 101.48 69.0628C101.48 64.9004 104.735 61.6172 109.142 61.6172H109.144ZM109.144 75.815C114.222 75.815 114.429 69.7793 114.429 68.6241C114.429 65.6415 112.721 62.3123 109.05 62.3123C106.557 62.3123 103.926 64.2316 103.926 69.1105C103.926 74.382 107.249 75.8166 109.142 75.8166L109.144 75.815Z" fill="white"/>
<path d="M122.452 63.675C122.452 62.8649 121.828 62.7269 120.859 62.6809C120.444 62.6579 120.027 62.5872 120.027 62.2881C120.027 61.9644 120.373 61.9414 120.582 61.9414C121.505 61.9414 122.312 62.0334 123.375 62.0334C124.253 62.0334 125.106 61.9414 125.983 61.9414C126.421 61.9414 126.744 61.9874 126.744 62.3572C126.744 62.6349 126.144 62.6809 125.589 62.6809C124.943 62.6809 124.435 62.8649 124.435 64.0218V74.4959C124.435 75.2354 124.781 75.3061 125.358 75.3061C125.867 75.3061 126.951 75.2601 127.92 75.1204C129.559 74.8903 130.391 72.994 130.714 72.994C130.945 72.994 130.991 73.2027 130.991 73.3867C130.991 73.7105 130.876 74.7983 130.645 75.7678C130.553 76.1375 130.299 76.1836 130.184 76.1836C128.96 76.1836 127.507 76.0915 124.021 76.0915C122.914 76.0915 121.828 76.1836 120.721 76.1836C120.168 76.1836 120.121 76.0455 120.121 75.8138C120.121 75.4901 120.398 75.4671 120.652 75.4441C122.014 75.3291 122.453 75.1894 122.453 73.8961V63.675H122.452Z" fill="white"/>
<path d="M145 64.9923C145 65.155 144.954 65.224 144.746 65.224C144.608 65.224 144.515 65.155 144.492 65.0843C143.776 63.3737 144.446 62.7262 140.429 62.7262C139.159 62.7262 138.905 62.9103 138.905 63.6514V67.559C138.905 68.3232 139.02 68.4152 140.566 68.4152C141.006 68.4152 141.396 68.3232 141.882 68.3001C143.521 68.1161 142.874 66.1738 143.658 66.1738C143.798 66.1738 143.913 66.2198 143.913 66.5665C143.913 67.214 143.867 67.8384 143.867 68.4858C143.867 69.1333 143.913 70.4742 143.913 70.8899C143.913 71.1446 143.819 71.2597 143.704 71.2597C143.404 71.2597 143.335 71.0049 143.081 69.9878C142.919 69.3403 142.735 69.0626 140.358 69.0626C139.203 69.0626 138.905 69.1316 138.905 69.6871V74.1271C138.905 75.0983 139.159 75.2363 140.589 75.445C141.05 75.514 141.536 75.468 141.536 75.8378C141.559 76.0678 141.421 76.1845 140.958 76.1845C140.589 76.1845 140.127 76.0925 138.096 76.0925C137.127 76.0925 136.18 76.1845 135.488 76.1845C135.073 76.1845 134.75 76.1385 134.75 75.8608C134.75 75.6307 134.843 75.6061 136.159 75.445C136.712 75.376 136.92 75.0753 136.92 73.5734V63.8157C136.92 62.9842 136.805 62.8905 136.228 62.7295C135.398 62.4978 134.889 62.7065 134.889 62.2891C134.889 62.0344 135.144 61.9884 135.997 61.9884C136.503 61.9884 137.104 61.9884 137.75 62.0114C138.396 62.0114 139.089 62.0344 139.689 62.0344C141.327 62.0344 143.704 61.9424 144.513 61.9424C144.744 61.9424 144.998 62.0114 144.998 62.1724V64.9939L145 64.9923Z" fill="white"/>
<path d="M31.0323 107.389C30.9339 107.323 30.7896 107.292 30.5993 107.292H30.5124L30.5222 107.134C30.6239 107.11 30.824 107.093 31.1242 107.087C31.1865 107.087 31.4178 107.073 31.818 107.049C31.8082 107.103 31.695 107.453 31.4834 108.097L31.0766 109.372C31.0405 109.51 30.9487 109.798 30.8011 110.237L30.2007 112.171L30.9733 111.132C31.4244 110.597 31.6885 110.293 31.7672 110.22C31.9591 110.046 32.1297 109.928 32.279 109.865C32.4282 109.803 32.5594 109.77 32.6726 109.77C32.8038 109.77 32.9236 109.833 33.0302 109.959C33.1663 110.125 33.232 110.321 33.232 110.546C33.232 111.016 33.1106 111.507 32.8695 112.015C32.6283 112.524 32.2954 112.989 31.8689 113.408C31.5933 113.679 31.1898 113.941 30.6567 114.19C30.3533 114.332 30.1089 114.402 29.9219 114.402C29.7119 114.402 29.5446 114.347 29.4249 114.235C29.3051 114.123 29.2461 113.988 29.2461 113.834C29.2461 113.635 29.2838 113.403 29.3609 113.139L29.648 112.128L30.7043 108.921C30.829 108.516 30.9471 108.168 31.0553 107.879C31.0996 107.764 31.1209 107.663 31.1209 107.58C31.1209 107.525 31.0898 107.463 31.0274 107.391L31.0323 107.389ZM30.1499 114.174C30.2647 114.174 30.3844 114.136 30.5075 114.059C30.7519 113.918 31.0291 113.666 31.3374 113.305C31.6458 112.942 31.8558 112.667 31.9689 112.478C32.2035 112.082 32.3971 111.691 32.5463 111.298C32.6595 111.009 32.7169 110.754 32.7169 110.539C32.7169 110.437 32.6841 110.355 32.6168 110.291C32.5496 110.227 32.4659 110.196 32.3626 110.196C32.2593 110.196 32.1543 110.23 32.0362 110.299C31.8082 110.436 31.5392 110.692 31.2308 111.068C30.7404 111.661 30.4222 112.079 30.2778 112.32C30.1335 112.564 30.0154 112.84 29.9235 113.154C29.83 113.466 29.7841 113.674 29.7841 113.78C29.7841 113.89 29.8185 113.983 29.8858 114.059C29.953 114.135 30.04 114.172 30.1466 114.172L30.1499 114.174Z" fill="white"/>
<path d="M32.2892 116.493C32.3646 116.575 32.4319 116.629 32.4877 116.652C32.5451 116.675 32.6386 116.688 32.7731 116.688C32.965 116.688 33.1897 116.634 33.4472 116.529C33.7064 116.422 33.8967 116.31 34.0197 116.193C34.251 116.037 34.5183 115.786 34.8234 115.439C34.9858 115.25 35.1252 115.01 35.2433 114.716C35.3614 114.422 35.4484 114.052 35.5041 113.605C35.5599 113.157 35.5878 112.772 35.5878 112.45C35.5878 112.263 35.5779 111.916 35.5615 111.412C35.5435 111.068 35.5156 110.832 35.4762 110.705C35.4385 110.578 35.3893 110.488 35.327 110.434C35.2942 110.404 35.2532 110.389 35.2023 110.389C35.1203 110.389 35.0465 110.426 34.9858 110.498C34.8579 110.654 34.7348 110.948 34.6118 111.384L34.5675 111.395C34.5314 111.395 34.4855 111.375 34.4314 111.336C34.5577 110.861 34.6479 110.565 34.702 110.45C34.8136 110.219 34.912 110.058 34.994 109.967C35.0448 109.913 35.1269 109.859 35.2433 109.804C35.3007 109.796 35.3467 109.793 35.3795 109.793C35.5894 109.793 35.7567 109.929 35.883 110.2C36.0569 110.577 36.1438 111.089 36.1438 111.739C36.1438 112.033 36.1225 112.398 36.0815 112.831C36.0405 113.267 35.9962 113.587 35.9486 113.794C35.8879 114.088 35.8535 114.269 35.8453 114.338C35.8633 114.32 35.883 114.292 35.906 114.258C36.1373 113.909 36.3357 113.577 36.5014 113.259C36.631 113.02 36.7507 112.733 36.8573 112.401C36.964 112.067 37.0476 111.725 37.1083 111.374C37.1444 111.165 37.1624 110.933 37.1624 110.685C37.1624 110.595 37.1608 110.518 37.1575 110.452C37.1493 110.365 37.146 110.312 37.146 110.294C37.146 110.117 37.1805 109.982 37.2494 109.893C37.2822 109.842 37.3445 109.818 37.438 109.818C37.5315 109.818 37.602 109.844 37.6463 109.893C37.6922 109.944 37.7136 110.026 37.7136 110.143C37.7136 110.317 37.6102 110.749 37.4052 111.441C37.1247 112.396 36.8327 113.135 36.5326 113.656C36.0766 114.45 35.5517 115.15 34.9546 115.758C34.5495 116.17 34.1296 116.473 33.6933 116.663C33.2586 116.852 32.8797 116.948 32.5566 116.948C32.1235 116.948 31.8266 116.893 31.6675 116.782C31.5084 116.672 31.4297 116.56 31.4297 116.448C31.4297 116.376 31.4559 116.313 31.5101 116.261C31.5642 116.208 31.6282 116.182 31.7003 116.182C31.802 116.182 31.907 116.208 32.0202 116.264C32.0743 116.294 32.1629 116.371 32.2859 116.497L32.2892 116.493Z" fill="white"/>
<path d="M46.0141 107.535C46.0436 107.773 46.0584 107.911 46.0584 107.947L46.0354 108.43C46.0272 108.637 46.019 108.769 46.0092 108.826C45.9764 108.841 45.9501 108.849 45.9271 108.849L45.8796 108.838C45.7631 108.332 45.5679 107.962 45.2907 107.73C45.0135 107.499 44.6773 107.382 44.2803 107.382C43.8834 107.382 43.5307 107.497 43.2666 107.73C43.0025 107.962 42.8713 108.232 42.8713 108.539C42.8713 108.774 42.9632 108.989 43.1469 109.185C43.3322 109.38 43.803 109.673 44.5624 110.062C45.1415 110.361 45.5532 110.608 45.8041 110.797C46.0534 110.987 46.2421 111.208 46.3684 111.457C46.4963 111.707 46.5587 111.986 46.5587 112.294C46.5587 112.682 46.4586 113.046 46.2585 113.387C46.0584 113.727 45.7877 113.983 45.4482 114.156C45.1087 114.328 44.6576 114.414 44.0982 114.414C43.6111 114.414 43.1436 114.335 42.6942 114.18C42.4301 114.085 42.2693 114.009 42.2119 113.952C42.1545 113.894 42.125 113.833 42.125 113.768C42.125 113.728 42.1283 113.677 42.1348 113.615C42.1857 113.188 42.2136 112.836 42.2169 112.562C42.2251 112.391 42.2365 112.292 42.2546 112.263C42.2677 112.238 42.2956 112.225 42.335 112.225C42.3678 112.225 42.394 112.236 42.4137 112.261C42.4334 112.286 42.4465 112.328 42.4547 112.394C42.4941 112.839 42.7007 113.237 43.0731 113.589C43.4421 113.94 43.8588 114.116 44.3246 114.116C44.61 114.116 44.8725 114.055 45.1136 113.937C45.3531 113.817 45.5417 113.644 45.6778 113.418C45.814 113.191 45.8812 112.971 45.8812 112.757C45.8812 112.465 45.7779 112.197 45.5728 111.954C45.3662 111.71 44.9528 111.428 44.3312 111.104C43.7095 110.78 43.3044 110.544 43.1157 110.396C42.8123 110.153 42.5843 109.896 42.4334 109.625C42.3218 109.415 42.2661 109.17 42.2661 108.891C42.2661 108.388 42.4645 107.962 42.8615 107.612C43.2584 107.262 43.7915 107.088 44.4607 107.088C44.8298 107.088 45.1464 107.129 45.4154 107.213C45.6106 107.279 45.8107 107.385 46.0174 107.533L46.0141 107.535Z" fill="white"/>
<path d="M47.6453 114.064C47.6962 114.034 47.7404 114.019 47.7815 114.019H47.9061C47.9307 114.019 47.975 114.018 48.0357 114.014C48.3145 113.988 48.4786 113.963 48.5294 113.939C48.6557 113.87 48.764 113.75 48.8558 113.58C49.0428 113.211 49.2544 112.688 49.4906 112.011C49.6022 111.689 49.6727 111.494 49.7022 111.425C49.7924 111.208 49.8794 110.979 49.9614 110.739L50.4715 109.311C50.5519 109.088 50.7421 108.573 51.0472 107.768C51.1227 107.566 51.2145 107.293 51.3244 106.953L51.4835 106.943L51.6738 106.948C51.8296 107.256 51.9658 107.588 52.0855 107.941C52.1511 108.13 52.2578 108.411 52.4054 108.784L53.2288 111.015L53.6667 112.226C53.898 112.915 54.0506 113.337 54.1227 113.495C54.1949 113.653 54.2622 113.756 54.3229 113.807C54.3409 113.82 54.4082 113.843 54.5263 113.873C54.6427 113.903 54.7264 113.924 54.7739 113.939C54.9396 113.985 55.0544 114.026 55.12 114.057C55.1348 114.096 55.143 114.128 55.143 114.151C55.143 114.169 55.1381 114.195 55.1266 114.231C55.0118 114.235 54.9298 114.236 54.8822 114.236C54.6985 114.236 54.3721 114.231 53.9062 114.22L53.3633 114.208L52.7072 114.216C52.6629 114.216 52.6186 114.215 52.5743 114.212C52.5284 114.207 52.489 114.205 52.4579 114.205H52.3381C52.2988 114.202 52.2627 114.19 52.2299 114.172C52.2299 114.121 52.2381 114.072 52.2561 114.026C52.3004 114.004 52.3381 113.991 52.3742 113.988L52.9434 113.95C53.0927 113.944 53.2042 113.924 53.2796 113.891C53.3026 113.825 53.3125 113.776 53.3125 113.745C53.3125 113.679 53.2665 113.51 53.173 113.239C53.1074 113.058 53.05 112.885 53.0024 112.721C52.9532 112.558 52.7613 112.021 52.4267 111.111C52.2774 111.086 52.1479 111.073 52.0363 111.073L50.8766 111.084L50.5355 111.079C50.4124 111.079 50.2763 111.089 50.1287 111.106C50.0811 111.214 50.0499 111.293 50.0352 111.339L49.5579 112.833C49.3561 113.401 49.2544 113.715 49.2544 113.773C49.2544 113.806 49.2708 113.86 49.3036 113.935C49.3791 113.957 49.4808 113.977 49.6071 113.995L50.3436 114.06C50.3829 114.093 50.4042 114.123 50.4042 114.147C50.4042 114.165 50.3993 114.192 50.3878 114.228C50.2255 114.231 50.1008 114.233 50.0139 114.233C49.7252 114.233 49.3889 114.223 49.0051 114.207C48.8279 114.198 48.7016 114.195 48.6262 114.195C48.5507 114.195 48.4179 114.198 48.2309 114.207C48.1079 114.215 48.0193 114.218 47.9652 114.218C47.8782 114.218 47.7667 114.213 47.6289 114.202V114.169C47.6289 114.144 47.6371 114.11 47.6519 114.065L47.6453 114.064ZM50.232 110.805C50.6191 110.826 51.0604 110.838 51.5541 110.838C51.8362 110.838 52.0839 110.828 52.2971 110.812C52.261 110.67 52.2184 110.539 52.1725 110.416C51.9379 109.786 51.8083 109.438 51.7821 109.374L51.29 108.12L51.2359 108.023C51.2145 108.067 51.1342 108.253 50.998 108.583C50.7667 109.149 50.5994 109.587 50.4994 109.903C50.4518 110.044 50.4042 110.184 50.3534 110.324C50.3026 110.462 50.2714 110.56 50.2583 110.616C50.2451 110.672 50.2271 110.728 50.2009 110.787L50.2337 110.808L50.232 110.805Z" fill="white"/>
<path d="M54.7745 107.351L54.8122 107.257C55.1041 107.257 55.3978 107.26 55.6897 107.268H55.8685C55.9226 107.268 55.9833 107.267 56.0473 107.263C56.2819 107.254 56.7067 107.247 57.3218 107.247C57.4448 107.247 57.5629 107.247 57.6794 107.25C57.7958 107.254 57.9074 107.255 58.0156 107.259C58.037 107.27 58.0534 107.287 58.0648 107.308L58.0534 107.395C58.032 107.431 57.9779 107.449 57.891 107.449H57.8467C57.745 107.446 57.5793 107.454 57.348 107.474C57.1168 107.494 56.9642 107.531 56.892 107.586C56.8461 107.625 56.8215 107.678 56.8215 107.743C56.8215 107.885 56.8822 108.097 57.0003 108.379L57.8254 110.295L58.1124 110.931C58.3913 111.605 58.6652 112.294 58.9375 112.995C58.967 113.071 58.9932 113.14 59.0178 113.202L59.3803 112.312C59.5673 111.863 59.7576 111.385 59.9479 110.877L60.3219 109.857C60.3301 109.835 60.3481 109.763 60.3809 109.64C60.7303 108.682 60.9058 108.075 60.9058 107.821C60.9058 107.766 60.8812 107.71 60.832 107.655C60.7828 107.599 60.704 107.553 60.5958 107.517C60.5515 107.502 60.4104 107.48 60.1726 107.451L59.7724 107.402C59.7396 107.365 59.7248 107.334 59.7248 107.31L59.7412 107.265L61.4979 107.249H62.0786C62.2738 107.249 62.4066 107.26 62.4788 107.287L62.4837 107.329C62.4837 107.359 62.4739 107.397 62.4509 107.444C62.364 107.474 62.2853 107.492 62.2131 107.498C61.9096 107.535 61.721 107.577 61.6488 107.627C61.5767 107.674 61.4996 107.779 61.4208 107.939L59.9987 111.47C59.5542 112.53 59.2393 113.352 59.0523 113.935L58.8948 114.408C58.8489 114.438 58.8079 114.453 58.7767 114.453C58.7357 114.453 58.6898 114.448 58.6406 114.436C58.2108 113.322 57.8598 112.461 57.5892 111.853L55.9292 108.087C55.8111 107.863 55.7209 107.729 55.6602 107.683C55.5995 107.637 55.3912 107.572 55.0353 107.49C54.909 107.461 54.8384 107.443 54.8237 107.436C54.7991 107.418 54.7794 107.392 54.7695 107.356L54.7745 107.351Z" fill="white"/>
<path d="M63.7934 114.155C63.8294 114.124 63.8606 114.104 63.8852 114.096C63.9459 114.078 64.0509 114.063 64.2001 114.052C64.5512 114.03 64.7677 113.998 64.8513 113.955C64.9022 113.883 64.9268 113.781 64.9268 113.649L64.9219 113.27L64.9268 111.888L64.9153 111.235L64.9202 109.87L64.894 108.32C64.8907 107.95 64.8661 107.742 64.8234 107.694C64.7578 107.625 64.5643 107.586 64.2428 107.574C64.105 107.571 63.9836 107.561 63.8787 107.541C63.8327 107.517 63.8098 107.484 63.8098 107.444C63.8098 107.415 63.818 107.382 63.836 107.341C63.8688 107.323 63.8967 107.314 63.9229 107.314C63.9738 107.314 64.0345 107.316 64.1083 107.319C64.3215 107.341 64.5413 107.352 64.7693 107.352L65.1695 107.341L66.1242 107.362C66.6015 107.362 66.9738 107.357 67.2412 107.346C67.5086 107.334 67.689 107.329 67.7841 107.329C67.8678 107.329 68.0745 107.337 68.4025 107.352L69.1718 107.347L69.2653 107.364L69.7147 107.347L69.7689 107.374C69.7869 107.403 69.8 107.433 69.8066 107.466C69.8066 107.517 69.7984 107.595 69.782 107.701C69.7656 107.804 69.7574 107.872 69.7574 107.896C69.7574 108.272 69.7705 108.591 69.7951 108.853C69.7918 108.874 69.782 108.889 69.7639 108.895C69.7246 108.895 69.6885 108.89 69.6573 108.879C69.618 108.81 69.5638 108.688 69.4982 108.516C69.431 108.341 69.3309 108.141 69.1964 107.913C69.1062 107.761 69.0357 107.669 68.9848 107.641C68.934 107.612 68.829 107.599 68.6699 107.599C68.6371 107.599 68.473 107.595 68.1762 107.587C68.0958 107.584 68.0187 107.582 67.9416 107.582L66.3965 107.615H66.2603C66.0602 107.615 65.9421 107.64 65.9027 107.691C65.8421 107.778 65.8109 108.033 65.8109 108.457C65.8109 108.501 65.8191 108.935 65.8371 109.76V110.516C65.8765 110.525 65.9191 110.532 65.9667 110.532H66.0586C66.1193 110.532 66.2111 110.534 66.3292 110.537C66.5178 110.545 66.6441 110.548 66.7081 110.548C66.7524 110.548 66.7901 110.547 66.8229 110.543C67.2133 110.529 67.7152 110.522 68.3303 110.522C68.5223 110.489 68.6338 110.451 68.6666 110.407C68.7207 110.341 68.7617 110.172 68.7896 109.896C68.8159 109.62 68.8766 109.465 68.97 109.429C69.0176 109.429 69.0603 109.438 69.0996 109.456C69.1078 109.485 69.1111 109.511 69.1111 109.536C69.1111 109.561 69.1078 109.604 69.0996 109.661C69.0816 109.794 69.0734 110.215 69.0734 110.921C69.0734 111.109 69.0832 111.319 69.1029 111.551C69.1226 111.782 69.1341 111.907 69.1341 111.925C69.1341 111.958 69.1292 112.001 69.1177 112.055C69.0882 112.07 69.0652 112.078 69.0471 112.078H69.0094C68.952 111.976 68.8962 111.819 68.8421 111.605C68.7486 111.239 68.6502 111.01 68.5469 110.918C68.4435 110.824 68.2762 110.78 68.0449 110.78C67.9941 110.78 67.9022 110.783 67.7677 110.788C67.6349 110.793 67.4348 110.797 67.1707 110.797H66.8197C66.3177 110.797 65.988 110.808 65.8322 110.829L65.8273 111.008L65.8322 112.011L65.8273 112.642L65.8322 113.256C65.8355 113.626 65.8585 113.84 65.9027 113.899C65.9634 113.98 66.0979 114.019 66.303 114.019L66.6327 114.014C66.6622 114.014 66.7754 114.017 66.9722 114.022C67.169 114.027 67.4118 114.03 67.7021 114.03C68.3992 114.03 68.8634 114.001 69.0947 113.942C69.326 113.881 69.5163 113.776 69.6672 113.623C69.8164 113.47 70.0067 113.141 70.2331 112.637C70.302 112.487 70.3708 112.413 70.4397 112.413C70.4725 112.413 70.5086 112.427 70.548 112.458C70.443 112.816 70.384 113.051 70.3692 113.164C70.3298 113.418 70.3069 113.677 70.2987 113.942C70.2987 114.06 70.2691 114.162 70.2117 114.241H70.092L68.5682 114.257L67.8842 114.252L66.257 114.274H65.596C65.5124 114.274 65.4353 114.275 65.3631 114.279C64.7119 114.308 64.2329 114.323 63.9262 114.323C63.8721 114.323 63.836 114.313 63.8147 114.297C63.795 114.279 63.7852 114.252 63.7852 114.218L63.7901 114.165L63.7934 114.155Z" fill="white"/>
<path d="M71.9056 114.064C71.986 114.031 72.0664 114.011 72.15 114.004C72.7028 113.968 73.0194 113.903 73.0981 113.806C73.1785 113.709 73.2162 113.245 73.2162 112.41L73.2113 111.84V111.242L73.1883 110.583L73.1998 110.197L73.1949 109.773V109.273L73.1834 109.05L73.1949 108.767C73.1982 108.702 73.1998 108.626 73.1998 108.539C73.1998 108.311 73.1883 108.069 73.167 107.816C73.1522 107.765 73.1326 107.716 73.108 107.67C72.9751 107.601 72.7586 107.555 72.46 107.532C72.1615 107.509 71.9926 107.482 71.9532 107.453C71.9237 107.43 71.9073 107.374 71.904 107.285H72.36L73.7985 107.318C74.1676 107.318 74.6597 107.307 75.2748 107.285C75.2748 107.343 75.2715 107.397 75.2633 107.448C75.1911 107.466 75.0697 107.486 74.9008 107.507C74.558 107.546 74.348 107.586 74.2709 107.622C74.225 107.64 74.1905 107.67 74.1676 107.714C74.1315 107.78 74.1102 107.901 74.102 108.079L74.0757 108.781L74.097 111.199V112.156C74.0905 112.456 74.0872 112.66 74.0872 112.77C74.0872 113.176 74.097 113.436 74.1167 113.548C74.1364 113.659 74.1709 113.74 74.2201 113.789C74.2676 113.838 74.3497 113.878 74.4612 113.906C74.6269 113.945 74.7581 113.967 74.8516 113.972C75.0533 113.98 75.1813 114.008 75.237 114.059C75.2469 114.106 75.2534 114.146 75.2534 114.179V114.221C74.9238 114.233 74.681 114.238 74.5252 114.238C74.4349 114.238 74.2742 114.233 74.0429 114.221L73.2933 114.233L72.0172 114.228H71.9138L71.9023 114.065L71.9056 114.064Z" fill="white"/>
<path d="M76.7432 107.596L76.7383 107.335C77.2976 107.335 77.7077 107.322 77.9685 107.29C78.0702 107.281 78.1391 107.274 78.1784 107.274C78.2112 107.274 78.2604 107.276 78.3244 107.279C78.477 107.405 78.6164 107.55 78.7476 107.713C78.7771 107.746 78.8083 107.782 78.8444 107.821L79.9877 109.087L80.15 109.282C80.3813 109.553 80.5913 109.785 80.7815 109.977C80.9718 110.169 81.3409 110.57 81.8904 111.178L83.1862 112.618C83.3125 112.758 83.4749 112.933 83.6733 113.144L83.6783 113.057C83.6569 112.554 83.6455 112.286 83.6455 112.258L83.6668 111.933L83.6569 111.422V111.188C83.6569 111.039 83.6438 110.582 83.6192 109.814C83.6159 109.709 83.6012 109.512 83.5749 109.22C83.5503 108.927 83.5372 108.672 83.5372 108.451C83.5372 108.053 83.5142 107.821 83.4667 107.755C83.4339 107.708 83.2813 107.66 83.0058 107.609C82.9401 107.606 82.8401 107.596 82.7023 107.576C82.5399 107.568 82.4431 107.56 82.4153 107.55C82.3874 107.54 82.3578 107.509 82.3283 107.458C82.3365 107.399 82.3513 107.346 82.3759 107.294C82.4743 107.264 82.5694 107.251 82.6629 107.251C82.7646 107.251 82.8893 107.262 83.0402 107.289C83.1895 107.315 83.324 107.327 83.4437 107.327C83.6094 107.327 83.8685 107.317 84.2196 107.294C84.418 107.281 84.5558 107.272 84.6313 107.272H84.7231L84.7116 107.44C84.6542 107.465 84.5739 107.481 84.4738 107.486C84.3721 107.491 84.2786 107.506 84.1917 107.532C84.0621 107.571 83.9834 107.606 83.9588 107.636C83.8718 107.731 83.8292 107.826 83.8292 107.923L83.8882 109.639L83.9325 110.426L83.9276 110.654L83.9604 111.745C83.9817 112.491 83.9932 113.139 83.9932 113.689C83.9932 113.808 83.985 114.067 83.9702 114.467L83.7176 114.488C83.5913 114.343 83.155 113.886 82.4103 113.119C82.2365 112.942 82.12 112.817 82.0577 112.744L81.5918 112.207C81.4114 112.008 81.2933 111.88 81.2392 111.827C81.1851 111.773 81.1457 111.734 81.1211 111.707C80.7258 111.259 80.2157 110.697 79.5858 110.025C79.4152 109.844 79.1675 109.561 78.8378 109.177C78.6312 108.934 78.5016 108.786 78.4474 108.732C78.3933 108.677 78.3195 108.615 78.226 108.546L78.2096 108.732C78.2096 109.438 78.2276 110.413 78.2637 111.653L78.3015 113.451C78.3047 113.604 78.3129 113.75 78.3277 113.891L78.5163 113.936C78.8592 113.969 79.197 114.016 79.53 114.082C79.5563 114.105 79.5776 114.12 79.5956 114.131L79.5907 114.338C79.5317 114.356 79.4857 114.365 79.4496 114.365C79.4103 114.365 79.3611 114.361 79.3037 114.353C78.9461 114.324 78.5098 114.31 77.998 114.31C77.6355 114.31 77.3189 114.319 77.0434 114.337L76.9679 114.342C76.9351 114.342 76.8875 114.338 76.8269 114.33L76.8219 114.167L76.963 114.102L77.2189 114.064C77.4469 114.031 77.6125 113.995 77.7175 113.955C77.7864 113.931 77.8422 113.893 77.8848 113.842C77.9242 113.592 77.9439 113.226 77.9439 112.744C77.9439 112.519 77.939 112.108 77.9275 111.512V110.774L77.916 109.231C77.9078 108.544 77.8848 108.137 77.8455 108.015C77.8241 107.949 77.7782 107.892 77.7093 107.841C77.5715 107.744 77.3911 107.682 77.1697 107.657C76.9482 107.631 76.8039 107.609 76.7383 107.591L76.7432 107.596Z" fill="white"/>
<path d="M86.1299 107.351L86.1676 107.257C86.4596 107.257 86.7532 107.26 87.0452 107.268H87.224C87.2781 107.268 87.3388 107.267 87.4028 107.263C87.6373 107.254 88.0621 107.247 88.6772 107.247C88.8003 107.247 88.9184 107.247 89.0348 107.25C89.1513 107.254 89.2628 107.255 89.3711 107.259C89.3924 107.27 89.4088 107.287 89.4203 107.308L89.4088 107.395C89.3875 107.431 89.3333 107.449 89.2464 107.449H89.2021C89.1004 107.446 88.9348 107.454 88.7035 107.474C88.4722 107.494 88.3197 107.531 88.2475 107.586C88.2016 107.625 88.177 107.678 88.177 107.743C88.177 107.885 88.2376 108.097 88.3557 108.379L89.1808 110.295L89.4678 110.931C89.7467 111.605 90.0206 112.294 90.2929 112.995C90.3224 113.071 90.3487 113.14 90.3733 113.202L90.7358 112.312C90.9227 111.863 91.113 111.385 91.3033 110.877L91.6773 109.857C91.6855 109.835 91.7035 109.763 91.7363 109.64C92.0857 108.682 92.2612 108.075 92.2612 107.821C92.2612 107.766 92.2366 107.71 92.1874 107.655C92.1382 107.599 92.0595 107.553 91.9512 107.517C91.9069 107.502 91.7658 107.48 91.528 107.451L91.1278 107.402C91.095 107.365 91.0802 107.334 91.0802 107.31L91.0966 107.265L92.8533 107.249H93.434C93.6292 107.249 93.762 107.26 93.8342 107.287L93.8391 107.329C93.8391 107.359 93.8293 107.397 93.8063 107.444C93.7194 107.474 93.6407 107.492 93.5685 107.498C93.265 107.535 93.0764 107.577 93.0042 107.627C92.9321 107.674 92.855 107.779 92.7762 107.939L91.3541 111.47C90.9096 112.53 90.5947 113.352 90.4077 113.935L90.2503 114.408C90.2043 114.438 90.1633 114.453 90.1321 114.453C90.0911 114.453 90.0452 114.448 89.996 114.436C89.5663 113.322 89.2152 112.461 88.9446 111.853L87.2847 108.087C87.1666 107.863 87.0763 107.729 87.0157 107.683C86.955 107.637 86.7467 107.572 86.3907 107.49C86.2644 107.461 86.1939 107.443 86.1791 107.436C86.1545 107.418 86.1348 107.392 86.125 107.356L86.1299 107.351Z" fill="white"/>
<path d="M95.1488 114.155C95.1849 114.124 95.2161 114.104 95.2407 114.096C95.3014 114.078 95.4064 114.063 95.5556 114.052C95.9066 114.03 96.1232 113.998 96.2068 113.955C96.2577 113.883 96.2823 113.781 96.2823 113.649L96.2773 113.27L96.2823 111.888L96.2708 111.235L96.2757 109.87L96.2495 108.32C96.2462 107.95 96.2216 107.742 96.1789 107.694C96.1133 107.625 95.9198 107.586 95.5983 107.574C95.4605 107.571 95.3391 107.561 95.2341 107.541C95.1882 107.517 95.1652 107.484 95.1652 107.444C95.1652 107.415 95.1734 107.382 95.1915 107.341C95.2243 107.323 95.2522 107.314 95.2784 107.314C95.3293 107.314 95.39 107.316 95.4638 107.319C95.677 107.341 95.8968 107.352 96.1248 107.352L96.525 107.341L97.4797 107.362C97.957 107.362 98.3293 107.357 98.5967 107.346C98.8641 107.334 99.0445 107.329 99.1396 107.329C99.2233 107.329 99.43 107.337 99.758 107.352L100.527 107.347L100.621 107.364L101.07 107.347L101.124 107.374C101.142 107.403 101.156 107.433 101.162 107.466C101.162 107.517 101.154 107.595 101.138 107.701C101.121 107.804 101.113 107.872 101.113 107.896C101.113 108.272 101.126 108.591 101.151 108.853C101.147 108.874 101.138 108.889 101.119 108.895C101.08 108.895 101.044 108.89 101.013 108.879C100.973 108.81 100.919 108.688 100.854 108.516C100.786 108.341 100.686 108.141 100.552 107.913C100.462 107.761 100.391 107.669 100.34 107.641C100.289 107.612 100.185 107.599 100.025 107.599C99.9926 107.599 99.8286 107.595 99.5317 107.587C99.4513 107.584 99.3742 107.582 99.2971 107.582L97.752 107.615H97.6158C97.4157 107.615 97.2976 107.64 97.2582 107.691C97.1976 107.778 97.1664 108.033 97.1664 108.457C97.1664 108.501 97.1746 108.935 97.1926 109.76V110.516C97.232 110.525 97.2746 110.532 97.3222 110.532H97.4141C97.4748 110.532 97.5666 110.534 97.6847 110.537C97.8733 110.545 97.9996 110.548 98.0636 110.548C98.1079 110.548 98.1456 110.547 98.1784 110.543C98.5688 110.529 99.0708 110.522 99.6859 110.522C99.8778 110.489 99.9893 110.451 100.022 110.407C100.076 110.341 100.117 110.172 100.145 109.896C100.171 109.62 100.232 109.465 100.326 109.429C100.373 109.429 100.416 109.438 100.455 109.456C100.463 109.485 100.467 109.511 100.467 109.536C100.467 109.561 100.463 109.604 100.455 109.661C100.437 109.794 100.429 110.215 100.429 110.921C100.429 111.109 100.439 111.319 100.458 111.551C100.478 111.782 100.49 111.907 100.49 111.925C100.49 111.958 100.485 112.001 100.473 112.055C100.444 112.07 100.421 112.078 100.403 112.078H100.365C100.308 111.976 100.252 111.819 100.198 111.605C100.104 111.239 100.006 111.01 99.9024 110.918C99.799 110.824 99.6317 110.78 99.4005 110.78C99.3496 110.78 99.2577 110.783 99.1232 110.788C98.9904 110.793 98.7903 110.797 98.5262 110.797H98.1752C97.6732 110.797 97.3435 110.808 97.1877 110.829L97.1828 111.008L97.1877 112.011L97.1828 112.642L97.1877 113.256C97.191 113.626 97.214 113.84 97.2582 113.899C97.3189 113.98 97.4534 114.019 97.6585 114.019L97.9882 114.014C98.0177 114.014 98.1309 114.017 98.3277 114.022C98.5245 114.027 98.7673 114.03 99.0576 114.03C99.7548 114.03 100.219 114.001 100.45 113.942C100.682 113.881 100.872 113.776 101.023 113.623C101.172 113.47 101.362 113.141 101.589 112.637C101.657 112.487 101.726 112.413 101.795 112.413C101.828 112.413 101.864 112.427 101.904 112.458C101.799 112.816 101.74 113.051 101.725 113.164C101.685 113.418 101.662 113.677 101.654 113.942C101.654 114.06 101.625 114.162 101.567 114.241H101.448L99.9237 114.257L99.2397 114.252L97.6125 114.274H96.9515C96.8679 114.274 96.7908 114.275 96.7186 114.279C96.0674 114.308 95.5884 114.323 95.2817 114.323C95.2276 114.323 95.1915 114.313 95.1701 114.297C95.1505 114.279 95.1406 114.252 95.1406 114.218L95.1456 114.165L95.1488 114.155Z" fill="white"/>
<path d="M107.323 107.535C107.352 107.773 107.367 107.911 107.367 107.947L107.344 108.43C107.336 108.637 107.328 108.769 107.318 108.826C107.285 108.841 107.259 108.849 107.236 108.849L107.188 108.838C107.072 108.332 106.877 107.962 106.599 107.73C106.322 107.499 105.986 107.382 105.589 107.382C105.192 107.382 104.839 107.497 104.575 107.73C104.311 107.962 104.18 108.232 104.18 108.539C104.18 108.774 104.272 108.989 104.455 109.185C104.641 109.38 105.112 109.673 105.871 110.062C106.45 110.361 106.862 110.608 107.113 110.797C107.362 110.987 107.551 111.208 107.677 111.457C107.805 111.707 107.867 111.986 107.867 112.294C107.867 112.682 107.767 113.046 107.567 113.387C107.367 113.727 107.096 113.983 106.757 114.156C106.417 114.328 105.966 114.414 105.407 114.414C104.92 114.414 104.452 114.335 104.003 114.18C103.739 114.085 103.578 114.009 103.521 113.952C103.463 113.894 103.434 113.833 103.434 113.768C103.434 113.728 103.437 113.677 103.443 113.615C103.494 113.188 103.522 112.836 103.525 112.562C103.534 112.391 103.545 112.292 103.563 112.263C103.576 112.238 103.604 112.225 103.644 112.225C103.676 112.225 103.703 112.236 103.722 112.261C103.742 112.286 103.755 112.328 103.763 112.394C103.803 112.839 104.009 113.237 104.382 113.589C104.751 113.94 105.167 114.116 105.633 114.116C105.919 114.116 106.181 114.055 106.422 113.937C106.662 113.817 106.85 113.644 106.986 113.418C107.123 113.191 107.19 112.971 107.19 112.757C107.19 112.465 107.086 112.197 106.881 111.954C106.675 111.71 106.261 111.428 105.64 111.104C105.018 110.78 104.613 110.544 104.424 110.396C104.121 110.153 103.893 109.896 103.742 109.625C103.63 109.415 103.575 109.17 103.575 108.891C103.575 108.388 103.773 107.962 104.17 107.612C104.567 107.262 105.1 107.088 105.769 107.088C106.138 107.088 106.455 107.129 106.724 107.213C106.919 107.279 107.119 107.385 107.326 107.533L107.323 107.535Z" fill="white"/>
<path d="M109.26 108.1L109.484 107.28C109.497 107.172 109.518 107.101 109.543 107.071C109.567 107.042 109.597 107.025 109.63 107.025C109.695 107.025 109.769 107.104 109.853 107.259C109.913 107.37 109.964 107.443 110.004 107.474C110.043 107.505 110.1 107.527 110.177 107.536L110.232 107.532L110.464 107.555L111.744 107.571L113.256 107.566H113.701L114.542 107.55C114.578 107.55 114.623 107.553 114.678 107.559C114.923 107.581 115.075 107.592 115.133 107.592C115.187 107.592 115.229 107.574 115.262 107.538C115.274 107.525 115.333 107.405 115.441 107.18C115.489 107.078 115.546 107.027 115.615 107.027C115.644 107.027 115.681 107.035 115.723 107.05C115.741 107.122 115.749 107.186 115.749 107.244L115.744 107.459L115.749 107.918C115.749 108.028 115.74 108.388 115.723 108.996C115.723 109.035 115.715 109.071 115.7 109.104C115.661 109.129 115.626 109.142 115.597 109.142C115.567 109.142 115.543 109.129 115.521 109.102C115.498 109.076 115.472 108.992 115.439 108.853C115.367 108.529 115.277 108.297 115.169 108.158C115.097 108.067 114.992 108.003 114.857 107.964C114.721 107.924 114.398 107.905 113.884 107.905H112.968C112.959 108.049 112.956 108.182 112.956 108.301L113 111.676C113 111.809 112.992 112.064 112.979 112.437L112.984 113.16L112.979 113.561C112.979 113.689 113 113.778 113.045 113.833C113.087 113.888 113.205 113.94 113.396 113.991C113.729 114.075 113.95 114.124 114.063 114.144C114.13 114.152 114.188 114.165 114.231 114.188V114.351L113.46 114.331C113.036 114.328 112.718 114.32 112.505 114.307L111.714 114.344L111.134 114.377C110.971 114.377 110.871 114.374 110.835 114.366L110.76 114.333C110.768 114.251 110.783 114.197 110.809 114.174C110.834 114.151 110.901 114.131 111.009 114.116C111.16 114.093 111.339 114.055 111.545 113.999C111.752 113.944 111.887 113.886 111.952 113.828C111.988 113.796 112.013 113.741 112.028 113.666C112.06 113.506 112.075 113.193 112.075 112.726V111.802L112.054 109.788L112.031 109.354L112.026 107.905H111.152C110.632 107.905 110.315 107.936 110.204 108C110.027 108.097 109.762 108.386 109.413 108.864C109.297 109.043 109.197 109.132 109.11 109.132L109.06 109.122C109.046 109.099 109.039 109.081 109.039 109.063C109.039 109.019 109.069 108.889 109.126 108.672C109.198 108.393 109.242 108.205 109.256 108.107L109.26 108.1Z" fill="white"/>
<path d="M47.6799 94.9264L45.8493 92.3152C45.623 92.3317 45.4442 92.3399 45.3162 92.3399H43.22V94.9264H42.0078V86.4258H45.3179C46.4169 86.4258 47.2813 86.6887 47.9128 87.2145C48.5427 87.7404 48.8576 88.4651 48.8576 89.3886C48.8576 90.0442 48.6952 90.6029 48.3721 91.0647C48.0489 91.5265 47.588 91.8617 46.991 92.072L49.0036 94.9264H47.6815H47.6799ZM47.0369 90.81C47.442 90.4781 47.6438 90.0048 47.6438 89.3886C47.6438 88.7724 47.442 88.3007 47.0369 87.9737C46.6334 87.6451 46.0478 87.4808 45.2785 87.4808H43.2183V91.3063H45.2785C46.0462 91.3063 46.6334 91.1403 47.0369 90.8084V90.81Z" fill="white"/>
<path d="M59.2826 93.8697V94.9264H53.125V86.4258H59.1136V87.4824H54.3372V90.0935H58.592V91.1255H54.3372V93.8697H59.2826Z" fill="white"/>
<path d="M64.2742 94.7252C63.6804 94.528 63.2145 94.27 62.875 93.9545L63.3228 93.008C63.6459 93.2988 64.0609 93.5371 64.5661 93.7179C65.0713 93.9003 65.5896 93.9906 66.1244 93.9906C66.8281 93.9906 67.3529 93.8723 67.7007 93.6324C68.0484 93.3941 68.2223 93.077 68.2223 92.6793C68.2223 92.3885 68.1272 92.1502 67.9369 91.9694C67.7466 91.7887 67.5137 91.6474 67.2348 91.5504C66.956 91.4535 66.5623 91.3434 66.0522 91.2218C65.4141 91.0689 64.8975 90.9145 64.5071 90.76C64.115 90.6072 63.7788 90.3689 63.4999 90.0501C63.2211 89.7313 63.0817 89.2991 63.0817 88.7569C63.0817 88.3033 63.1998 87.8942 63.4393 87.531C63.6771 87.1662 64.0396 86.8753 64.5235 86.6568C65.009 86.4382 65.611 86.3281 66.3294 86.3281C66.8297 86.3281 67.3234 86.3922 67.8089 86.522C68.2945 86.6519 68.7094 86.8375 69.0572 87.0807L68.657 88.0519C68.301 87.8251 67.9205 87.6526 67.517 87.5359C67.1118 87.4193 66.7165 87.3601 66.3294 87.3601C65.6421 87.3601 65.1271 87.485 64.7843 87.7364C64.4415 87.9878 64.2692 88.3115 64.2692 88.7076C64.2692 89.0001 64.366 89.2367 64.5612 89.4175C64.7548 89.5999 64.9942 89.7412 65.2829 89.8431C65.57 89.9449 65.9604 90.0518 66.4524 90.1651C67.0905 90.3196 67.6039 90.4724 67.991 90.6269C68.3798 90.7797 68.7127 91.0147 68.9916 91.3302C69.2704 91.6457 69.4098 92.0713 69.4098 92.6054C69.4098 93.0507 69.2885 93.4582 69.0457 93.8263C68.8029 94.1944 68.4355 94.4869 67.9418 94.7005C67.4497 94.9158 66.8428 95.0226 66.1244 95.0226C65.4863 95.0226 64.8696 94.924 64.2758 94.7252H64.2742Z" fill="white"/>
<path d="M75.0522 94.4577C74.3649 94.0814 73.8269 93.5605 73.4349 92.8966C73.0429 92.2327 72.8477 91.4916 72.8477 90.6733C72.8477 89.8549 73.0429 89.1154 73.4349 88.4516C73.8269 87.7877 74.3665 87.2684 75.0522 86.8905C75.7395 86.5142 76.5104 86.3252 77.3682 86.3252C78.2261 86.3252 78.9839 86.5125 79.6712 86.8905C80.3585 87.2668 80.8948 87.786 81.2836 88.445C81.6707 89.1056 81.8659 89.8483 81.8659 90.6733C81.8659 91.4982 81.6723 92.2426 81.2836 92.9015C80.8965 93.5605 80.3585 94.0797 79.6712 94.456C78.9839 94.8323 78.2163 95.0213 77.3682 95.0213C76.5202 95.0213 75.7411 94.8323 75.0522 94.456V94.4577ZM79.0462 93.5161C79.5432 93.2318 79.9353 92.8424 80.2223 92.3445C80.5094 91.8465 80.6521 91.2895 80.6521 90.6749C80.6521 90.0603 80.5094 89.5033 80.2223 89.0053C79.9353 88.5074 79.5432 88.1163 79.0462 87.8337C78.5492 87.5494 77.9899 87.4081 77.3666 87.4081C76.7433 87.4081 76.1807 87.5494 75.6755 87.8337C75.1703 88.118 74.775 88.5074 74.4879 89.0053C74.2009 89.5033 74.0582 90.0603 74.0582 90.6749C74.0582 91.2895 74.2025 91.8465 74.4879 92.3445C74.775 92.8424 75.1719 93.2335 75.6755 93.5161C76.179 93.7987 76.7433 93.94 77.3666 93.94C77.9899 93.94 78.5492 93.7987 79.0462 93.5161Z" fill="white"/>
<path d="M91.7072 94.9264L89.8767 92.3152C89.6503 92.3317 89.4715 92.3399 89.3436 92.3399H87.2473V94.9264H86.0352V86.4258H89.3452C90.4442 86.4258 91.3086 86.6887 91.9401 87.2145C92.57 87.7404 92.8849 88.4651 92.8849 89.3886C92.8849 90.0442 92.7225 90.6029 92.3994 91.0647C92.0763 91.5265 91.6154 91.8617 91.0183 92.072L93.0309 94.9264H91.7088H91.7072ZM91.0642 90.81C91.4694 90.4781 91.6711 90.0048 91.6711 89.3886C91.6711 88.7724 91.4694 88.3007 91.0642 87.9737C90.6607 87.6451 90.0751 87.4808 89.3059 87.4808H87.2457V91.3063H89.3059C90.0735 91.3063 90.6607 91.1403 91.0642 90.8084V90.81Z" fill="white"/>
<path d="M98.8864 87.4804H95.9766V86.4238H102.995V87.4804H100.085V94.9244H98.8848V87.4804H98.8864Z" fill="white"/>
<path d="M84.4463 10.8605C86.5933 12.4216 86.3293 14.9293 83.9805 16.1255C83.8919 16.1699 83.7574 16.1124 83.7902 16.0417C84.0313 15.534 84.5693 14.5973 84.6644 13.5358C84.7727 12.3263 84.4036 11.4488 84.2462 10.9098C84.2249 10.8359 84.3659 10.8014 84.4463 10.8589V10.8605Z" fill="white"/>
<path d="M86.7824 17.6243C88.6884 19.8114 87.7961 22.416 85.0027 23.116C84.8977 23.1423 84.7682 23.047 84.8207 22.9796C85.2012 22.4982 86.0017 21.6338 86.3625 20.5263C86.7726 19.2659 86.5938 18.2405 86.5577 17.6292C86.5528 17.5454 86.7119 17.5421 86.7824 17.6243Z" fill="white"/>
<path d="M84.3721 24.3347C84.9184 27.1858 82.8385 28.9868 80.073 28.1799C79.9696 28.1503 79.9056 28.0008 79.9844 27.9712C80.5552 27.7477 81.6821 27.4043 82.5498 26.6303C83.5389 25.7479 83.8981 24.7718 84.1753 24.2262C84.213 24.1506 84.3525 24.2295 84.3721 24.3363V24.3347Z" fill="white"/>
<path d="M83.2896 17.9378C84.5772 20.263 83.2798 22.4239 80.6439 22.5127C80.5455 22.516 80.4471 22.4059 80.5061 22.3566C80.9391 21.9983 81.8216 21.3788 82.3563 20.4569C82.9649 19.4069 83.001 18.4555 83.0862 17.9C83.0977 17.8228 83.2404 17.8524 83.2896 17.9395V17.9378Z" fill="white"/>
<path d="M79.2904 23.8843C79.2625 26.5431 77.0695 27.7788 74.7337 26.5513C74.6468 26.5053 74.6156 26.3607 74.6911 26.3475C75.2439 26.2506 76.3166 26.1487 77.2368 25.6114C78.2833 25.0001 78.7852 24.1899 79.1329 23.7495C79.1805 23.6887 79.2904 23.7841 79.2904 23.8843Z" fill="white"/>
<path d="M81.1339 7.08264C82.9513 8.15076 82.9365 10.1539 81.1716 11.2812C81.106 11.3239 80.9944 11.2877 81.0141 11.2302C81.1667 10.8095 81.5193 10.029 81.5128 9.18272C81.5062 8.21813 81.1453 7.55261 80.9797 7.13851C80.9567 7.08099 81.0666 7.0432 81.1339 7.08264Z" fill="white"/>
<path d="M76.158 4.35156C77.5719 4.64077 78.0033 5.94223 77.1077 7.06458C77.0749 7.1073 76.9945 7.1073 76.9945 7.06458C77.0011 6.75893 77.0569 6.17393 76.8649 5.62673C76.6484 5.00393 76.2679 4.65227 76.0694 4.42057C76.0415 4.38935 76.1038 4.34005 76.1563 4.34991L76.158 4.35156Z" fill="white"/>
<path d="M72.135 3.90758C72.9076 3.65452 73.48 4.1705 73.3537 4.96913C73.3488 4.99871 73.3094 5.02171 73.2996 5.00199C73.2176 4.85081 73.0831 4.5501 72.837 4.33483C72.5582 4.08999 72.2744 4.02425 72.112 3.96674C72.0891 3.95852 72.1071 3.91744 72.135 3.90758Z" fill="white"/>
<path d="M74.3331 7.79696C74.9712 8.2998 74.8613 9.06227 74.1297 9.40243C74.1018 9.41557 74.0608 9.39585 74.0723 9.37449C74.1527 9.22167 74.3266 8.94231 74.3692 8.61859C74.4168 8.2505 74.3134 7.97772 74.2724 7.81011C74.2659 7.7871 74.3101 7.77888 74.3348 7.79696H74.3331Z" fill="white"/>
<path d="M73.5562 11.8475C73.9712 12.5459 73.5955 13.2196 72.7902 13.2722C72.7606 13.2738 72.7295 13.241 72.7475 13.2262C72.8771 13.1128 73.1412 12.914 73.2954 12.628C73.4725 12.301 73.4742 12.0102 73.4938 11.8393C73.4971 11.8163 73.5414 11.8228 73.5562 11.8491V11.8475Z" fill="white"/>
<path d="M71.0598 15.5878C71.1714 16.393 70.5645 16.8679 69.8017 16.6017C69.7738 16.5918 69.7574 16.5491 69.7804 16.5425C69.9428 16.4883 70.2626 16.4078 70.5169 16.204C70.8056 15.9723 70.9204 15.7028 71.0057 15.5549C71.0172 15.5336 71.0549 15.5582 71.0598 15.5878Z" fill="white"/>
<path d="M67.7253 18.2794C67.5809 19.0797 66.856 19.3393 66.2146 18.8496C66.19 18.8316 66.1884 18.7856 66.213 18.7856C66.3852 18.7856 66.7132 18.8086 67.0183 18.6952C67.3661 18.5654 67.558 18.3468 67.6859 18.2318C67.704 18.2153 67.7319 18.2499 67.7269 18.2811L67.7253 18.2794Z" fill="white"/>
<path d="M63.6753 19.2127C63.1635 19.8454 62.404 19.7238 62.0776 18.9843C62.0661 18.9564 62.0858 18.9153 62.1055 18.9268C62.2564 19.009 62.5336 19.1881 62.8551 19.2357C63.2225 19.2883 63.4965 19.1897 63.6621 19.1503C63.6851 19.1453 63.6933 19.1881 63.6736 19.2127H63.6753Z" fill="white"/>
<path d="M59.9662 18.5079C59.2905 18.9581 58.5999 18.6147 58.5081 17.8111C58.5048 17.7816 58.5359 17.7487 58.5523 17.7651C58.6721 17.8884 58.882 18.1431 59.1756 18.2844C59.5102 18.4454 59.8006 18.4323 59.9712 18.4454C59.9941 18.4471 59.9892 18.4915 59.9646 18.5079H59.9662Z" fill="white"/>
<path d="M77.4353 8.80013C78.5867 9.66777 78.4211 11.0267 77.1335 11.6545C77.0859 11.6775 77.0121 11.6446 77.0301 11.6068C77.1663 11.334 77.4664 10.8296 77.5271 10.2544C77.5977 9.59876 77.4041 9.11893 77.3237 8.82478C77.3123 8.7837 77.3893 8.76727 77.4336 8.79849L77.4353 8.80013Z" fill="white"/>
<path d="M76.7418 13.5336C77.5373 14.7972 76.8779 16.0494 75.4033 16.1825C75.3475 16.1874 75.2901 16.1283 75.3213 16.0987C75.5526 15.8851 76.0282 15.5088 76.2989 14.9747C76.6073 14.3667 76.5974 13.831 76.6269 13.5188C76.6319 13.4761 76.7122 13.4876 76.7418 13.5336Z" fill="white"/>
<path d="M74.2701 17.7847C74.5637 19.1321 73.5976 20.0096 72.2755 19.6613C72.2263 19.6481 72.1935 19.5791 72.2312 19.5627C72.5002 19.4493 73.03 19.2735 73.4319 18.8955C73.8912 18.465 74.0503 17.9983 74.1749 17.7354C74.1913 17.6992 74.2586 17.7354 74.2701 17.7847Z" fill="white"/>
<path d="M70.9244 20.715C70.8538 21.977 69.7844 22.516 68.7018 21.8817C68.6608 21.8587 68.6493 21.7881 68.687 21.7831C68.9511 21.7486 69.4645 21.724 69.9123 21.489C70.4224 21.2211 70.6783 20.8481 70.8538 20.646C70.8784 20.6181 70.9276 20.6657 70.926 20.7134L70.9244 20.715Z" fill="white"/>
<path d="M66.9605 22.4222C66.2749 23.7762 64.8397 23.8534 63.9539 22.6341C63.9211 22.5881 63.9408 22.506 63.9834 22.5191C64.2918 22.6095 64.8659 22.828 65.4728 22.787C66.1634 22.7393 66.6243 22.4517 66.913 22.3137C66.9523 22.294 66.9852 22.3712 66.9589 22.4222H66.9605Z" fill="white"/>
<path d="M61.6507 22.5736C60.5517 23.6631 59.1378 23.2753 58.6719 21.8095C58.6539 21.7553 58.7014 21.6813 58.7375 21.7076C59.0065 21.895 59.4921 22.2926 60.0924 22.4471C60.7764 22.6229 61.3144 22.4931 61.6392 22.4537C61.6835 22.4487 61.69 22.5325 61.649 22.5736H61.6507Z" fill="white"/>
<path d="M80.6342 13.5797C81.8512 15.0225 81.2443 16.7069 79.422 17.1325C79.3531 17.1489 79.2695 17.0848 79.3056 17.0421C79.5582 16.7331 80.088 16.1777 80.3324 15.4629C80.6112 14.6479 80.5062 13.979 80.4882 13.5797C80.4865 13.5255 80.5899 13.5255 80.6342 13.5797Z" fill="white"/>
<path d="M78.2481 19.2873C78.7516 21.108 77.4985 22.3832 75.663 22.0069C75.5941 21.9921 75.5449 21.9001 75.5941 21.8754C75.9534 21.6996 76.6652 21.4186 77.1868 20.8714C77.7806 20.247 77.9643 19.5962 78.1152 19.2265C78.1365 19.1755 78.23 19.2183 78.2481 19.2873Z" fill="white"/>
<path d="M74.1 23.3109C73.9917 25.1957 72.3957 26.0009 70.7784 25.0528C70.7178 25.0166 70.7014 24.9131 70.7555 24.9065C71.1508 24.8556 71.9151 24.8194 72.586 24.4694C73.3487 24.0701 73.7309 23.5114 73.9934 23.2123C74.0294 23.1713 74.1049 23.2419 74.1 23.3126V23.3109Z" fill="white"/>
<path d="M68.8361 25.526C68.0947 27.2629 66.32 27.4749 65.1226 26.0321C65.0783 25.9779 65.0963 25.8744 65.1505 25.8875C65.5392 25.9746 66.2708 26.2014 67.0204 26.0995C67.8733 25.9845 68.4228 25.5901 68.7705 25.3962C68.8181 25.3699 68.8657 25.4619 68.8378 25.5277L68.8361 25.526Z" fill="white"/>
<path d="M62.884 25.8999C61.7211 27.387 59.9513 27.1339 59.1656 25.4315C59.136 25.3674 59.182 25.2721 59.2295 25.2984C59.5822 25.4841 60.2317 25.89 60.9813 25.9853C61.8359 26.0938 62.4674 25.8538 62.8529 25.7569C62.9054 25.7438 62.9267 25.8456 62.884 25.8999Z" fill="white"/>
<path d="M122.211 48.7095C122.536 48.3151 122.843 47.9059 123.125 47.477C123.392 46.9216 123.666 46.3694 123.916 45.8042C123.883 45.8288 123.85 45.8535 123.817 45.8798C122.001 47.2683 120.287 48.5796 116.808 48.5796C113.329 48.5796 111.615 47.2683 109.799 45.8798C107.875 44.4074 105.886 42.8857 101.923 42.8857C97.9599 42.8857 95.9702 44.4074 94.0462 45.8798C92.2321 47.2683 90.5163 48.5796 87.0373 48.5796C83.5583 48.5796 81.8442 47.2683 80.0301 45.8798C78.106 44.4074 76.1164 42.8857 72.1535 42.8857C68.1906 42.8857 66.2009 44.4074 64.2769 45.8798C62.4628 47.2683 60.7487 48.5796 57.268 48.5796C53.7874 48.5796 52.0749 47.2683 50.2608 45.8798C48.3367 44.4074 46.3471 42.8857 42.3842 42.8857C38.4213 42.8857 36.4316 44.4074 34.5076 45.8798C32.6935 47.2683 30.9794 48.5796 27.4987 48.5796C24.6709 48.5796 23.0093 47.7136 21.5117 46.6439C21.6839 47.0169 21.8726 47.3801 22.053 47.7481C22.4204 48.2838 22.8321 48.785 23.2668 49.2649C24.4068 49.7184 25.7617 50.0142 27.4987 50.0142C31.4616 50.0142 33.4513 48.4925 35.3753 47.0202C37.1894 45.6316 38.9035 44.3203 42.3842 44.3203C45.8648 44.3203 47.5773 45.6316 49.3914 47.0202C51.3155 48.4925 53.3051 50.0142 57.268 50.0142C61.2309 50.0142 63.2206 48.4925 65.1446 47.0202C66.9587 45.6316 68.6728 44.3203 72.1535 44.3203C75.6341 44.3203 77.3466 45.6316 79.1624 47.0202C81.0864 48.4925 83.0761 50.0142 87.039 50.0142C91.0019 50.0142 92.9915 48.4925 94.9155 47.0202C96.7313 45.6316 98.4454 44.3203 101.924 44.3203C105.403 44.3203 107.118 45.6316 108.933 47.0202C110.857 48.4925 112.847 50.0142 116.81 50.0142C119.183 50.0142 120.845 49.4654 122.213 48.7111L122.211 48.7095Z" fill="white"/>
<path d="M116.809 34.5757C113.33 34.5757 111.616 33.2644 109.8 31.8759C107.876 30.4035 105.887 28.8818 101.924 28.8818C97.9608 28.8818 95.9711 30.4035 94.0471 31.8759C92.2313 33.2644 90.5172 34.5757 87.0382 34.5757C83.5592 34.5757 81.8451 33.2644 80.0293 31.8759C78.1053 30.4035 76.1156 28.8818 72.1528 28.8818C68.1899 28.8818 66.2002 30.4035 64.2762 31.8759C62.462 33.2644 60.7479 34.5757 57.2673 34.5757C53.7866 34.5757 52.0742 33.2644 50.26 31.8759C48.336 30.4035 46.3464 28.8818 42.3835 28.8818C38.4206 28.8818 36.4309 30.4035 34.5069 31.8759C32.6927 33.2644 30.9787 34.5757 27.498 34.5757C24.5767 34.5757 22.902 33.6489 21.365 32.5299C21.1288 32.9505 20.9123 33.3827 20.7188 33.828C22.359 34.9964 24.2716 36.0086 27.498 36.0086C31.4609 36.0086 33.4505 34.487 35.3746 33.0146C37.1887 31.6261 38.9028 30.3148 42.3835 30.3148C45.8641 30.3148 47.5766 31.6261 49.3907 33.0146C51.3147 34.487 53.3044 36.0086 57.2673 36.0086C61.2302 36.0086 63.2198 34.487 65.1439 33.0146C66.958 31.6261 68.6721 30.3148 72.1528 30.3148C75.6334 30.3148 77.3458 31.6261 79.16 33.0146C81.084 34.487 83.0737 36.0086 87.0366 36.0086C90.9995 36.0086 92.9891 34.487 94.9132 33.0146C96.7289 31.6261 98.443 30.3148 101.922 30.3148C105.401 30.3148 107.115 31.6261 108.931 33.0146C110.855 34.487 112.845 36.0086 116.808 36.0086C120.375 36.0086 122.342 34.7762 124.102 33.4567C123.895 33.0179 123.669 32.5907 123.419 32.1766C121.741 33.4468 120.032 34.5757 116.808 34.5757H116.809Z" fill="white"/>
<path d="M125.373 37.884C124.828 38.2471 124.32 38.6316 123.818 39.0145C122.002 40.4031 120.288 41.7144 116.809 41.7144C113.33 41.7144 111.614 40.4031 109.8 39.0145C107.876 37.5422 105.886 36.0205 101.924 36.0205C97.9606 36.0205 95.971 37.5422 94.0469 39.0145C92.2328 40.4031 90.5171 41.7144 87.038 41.7144C83.559 41.7144 81.8449 40.4031 80.0292 39.0145C78.1051 37.5422 76.1155 36.0205 72.1526 36.0205C68.1897 36.0205 66.2 37.5422 64.276 39.0145C62.4618 40.4031 60.7478 41.7144 57.2671 41.7144C53.7864 41.7144 52.074 40.4031 50.2599 39.0145C48.3358 37.5422 46.3462 36.0205 42.3833 36.0205C38.4204 36.0205 36.4307 37.5422 34.5067 39.0145C32.6926 40.4031 30.9785 41.7144 27.4978 41.7144C24.0172 41.7144 22.3047 40.4031 20.4889 39.0145C20.192 38.7878 19.8886 38.561 19.5819 38.3375C19.5458 38.75 19.5195 39.1641 19.5195 39.5847C19.5195 39.7573 19.5392 39.9265 19.5458 40.0974C19.5704 40.1171 19.5966 40.1352 19.6212 40.1549C21.5453 41.6273 23.5349 43.149 27.4978 43.149C31.4607 43.149 33.4504 41.6273 35.3744 40.1549C37.1885 38.7664 38.9026 37.4551 42.3833 37.4551C45.8639 37.4551 47.5764 38.7664 49.3905 40.1549C51.3146 41.6273 53.3042 43.149 57.2671 43.149C61.23 43.149 63.2197 41.6273 65.1437 40.1549C66.9578 38.7664 68.6719 37.4551 72.1526 37.4551C75.6332 37.4551 77.3457 38.7664 79.1615 40.1549C81.0855 41.6273 83.0751 43.149 87.038 43.149C91.0009 43.149 92.9906 41.6273 94.9146 40.1549C96.7288 38.7664 98.4445 37.4551 101.924 37.4551C105.403 37.4551 107.117 38.7664 108.932 40.1549C110.856 41.6273 112.846 43.149 116.809 43.149C120.772 43.149 122.763 41.6273 124.687 40.1549C124.953 39.9528 125.215 39.7523 125.481 39.5568C125.481 38.9899 125.437 38.4345 125.373 37.884Z" fill="white"/>
<path d="M72.0041 0.0725371C61.7918 0.480065 53.8151 9.13511 54.2219 19.366C54.386 23.489 55.9327 27.4262 58.5703 30.5665C59.2658 30.5024 59.8891 30.2477 60.2991 30.0373C57.6107 27.0976 56.041 23.2885 55.8819 19.2987C55.5112 9.98467 62.7727 2.10689 72.0697 1.73551C81.3651 1.36414 89.2303 8.63884 89.601 17.9528C89.7797 22.4636 88.1952 26.7755 85.1378 30.0932C85.1378 30.0932 85.2706 30.2197 85.7217 30.4252C86.1744 30.6306 86.5254 30.6421 86.8847 30.5928C89.8864 27.04 91.4463 22.5687 91.2609 17.8887C90.8541 7.65617 82.2164 -0.334991 72.0041 0.0725371Z" fill="white"/>
</g>
<defs>
<clipPath id="clip0_435_33284">
<rect width="145" height="117" fill="white"/>
</clipPath>
</defs>
</svg>
