<svg width="141" height="140" viewBox="0 0 141 140" fill="none" xmlns="http://www.w3.org/2000/svg">
<path d="M65.3584 125.309C66.2071 124.31 66.7933 123.113 67.0637 121.827C67.334 120.541 67.2798 119.208 66.9059 117.949C66.8736 117.842 66.8119 117.747 66.7279 117.674C66.644 117.602 66.5412 117.555 66.4317 117.539C65.14 117.359 63.8241 117.508 62.6048 117.974C61.3856 118.439 60.3022 119.206 59.4544 120.203C58.6065 121.2 58.0214 122.395 57.7527 123.679C57.4841 124.963 57.5407 126.294 57.9171 127.55C57.9494 127.657 58.0111 127.752 58.0951 127.825C58.179 127.897 58.2818 127.944 58.3914 127.96C59.6806 128.144 60.995 127.997 62.2129 127.534C63.4308 127.07 64.5127 126.305 65.3584 125.309Z" fill="#BF9875"/>
<path d="M7.50076 33.7396C8.01779 34.9438 8.82796 35.9976 9.8565 36.8038C10.885 37.6099 12.0988 38.1424 13.3858 38.3521C13.4937 38.369 13.6041 38.3547 13.7042 38.3107C13.8043 38.2668 13.8899 38.195 13.9509 38.1039C14.6776 37.0133 15.1206 35.7565 15.2393 34.4488C15.3579 33.1411 15.1484 31.8244 14.63 30.6194C14.1116 29.4143 13.3008 28.3595 12.272 27.5516C11.2432 26.7437 10.0293 26.2086 8.74163 25.9953C8.63381 25.9782 8.52337 25.9924 8.42327 26.0362C8.32318 26.08 8.23758 26.1516 8.17652 26.2427C7.44997 27.3358 7.00743 28.5948 6.88938 29.9045C6.77132 31.2142 6.98153 32.5327 7.50076 33.7396Z" fill="#BF9875"/>
<path d="M3.75178 48.0256C4.58343 49.0337 5.65447 49.8144 6.8657 50.2952C8.07693 50.7761 9.38917 50.9416 10.6809 50.7764C10.7904 50.7619 10.8935 50.7163 10.9783 50.6451C11.0631 50.5738 11.1261 50.4798 11.1598 50.374C11.5513 49.1202 11.6242 47.7876 11.3718 46.4981C11.1194 45.2086 10.5498 44.0033 9.71506 42.9924C8.88326 41.9845 7.8122 41.204 6.60101 40.7232C5.38982 40.2423 4.07765 40.0767 2.78595 40.2416C2.67713 40.2569 2.57484 40.3029 2.49092 40.3743C2.40699 40.4456 2.34487 40.5394 2.31174 40.6448C1.9196 41.8982 1.84594 43.2304 2.09751 44.5198C2.34907 45.8091 2.91782 47.0145 3.75178 48.0256Z" fill="#BF9875"/>
<path d="M2.86032 61.6457C3.86749 62.4755 5.06658 63.0359 6.34642 63.275C7.62625 63.5141 8.94536 63.4242 10.1814 63.0136C10.2864 62.9787 10.3793 62.9145 10.4493 62.8284C10.5192 62.7424 10.5634 62.6381 10.5766 62.5277C10.7255 61.2224 10.5464 59.9004 10.056 58.6827C9.56552 57.4651 8.77927 56.3907 7.76925 55.558C6.7619 54.7277 5.56243 54.1669 4.28214 53.9277C3.00185 53.6884 1.68223 53.7784 0.44576 54.1894C0.340811 54.2245 0.247938 54.2889 0.177969 54.375C0.108 54.4612 0.0638197 54.5656 0.0505794 54.6761C-0.0978344 55.9816 0.0816122 57.3037 0.572488 58.5213C1.06336 59.7389 1.84998 60.8132 2.86032 61.6457Z" fill="#BF9875"/>
<path d="M5.04589 75.4024C6.20334 76.0025 7.49269 76.2986 8.79428 76.2633C10.0959 76.228 11.3675 75.8624 12.4911 75.2004C12.5847 75.1447 12.6607 75.0635 12.7102 74.966C12.7598 74.8686 12.7808 74.7591 12.7709 74.6501C12.6529 73.3433 12.2091 72.0875 11.4808 70.999C10.7524 69.9105 9.76295 69.0245 8.60394 68.4229C7.44494 67.8213 6.15384 67.5236 4.85014 67.5573C3.54643 67.591 2.27223 67.955 1.14546 68.6157C1.05184 68.6714 0.975858 68.7527 0.92633 68.8501C0.876803 68.9475 0.855767 69.057 0.865668 69.166C0.98676 70.4748 1.43309 71.732 2.16358 72.8218C2.89406 73.9116 3.88524 74.799 5.04589 75.4024Z" fill="#BF9875"/>
<path d="M9.9987 89.4528C11.2858 89.6595 12.6039 89.5359 13.8308 89.0934C15.0577 88.6509 16.1537 87.9038 17.0171 86.9215C17.0887 86.8394 17.1358 86.7387 17.1528 86.6309C17.1699 86.5231 17.1563 86.4126 17.1135 86.3123C16.5982 85.1068 15.7886 84.0519 14.7597 83.2456C13.7308 82.4392 12.5162 81.9074 11.2284 81.6997C9.94072 81.492 8.62172 81.6151 7.39391 82.0575C6.16611 82.4999 5.06931 83.2473 4.20535 84.2303C4.13376 84.3123 4.08672 84.4131 4.06965 84.5209C4.05259 84.6287 4.0662 84.7391 4.10893 84.8395C4.62622 86.0445 5.43705 87.0989 6.46649 87.9053C7.49593 88.7116 8.71076 89.2438 9.9987 89.4528Z" fill="#BF9875"/>
<path d="M16.9182 100.343C18.221 100.394 19.5155 100.113 20.6817 99.5268C21.8479 98.9403 22.8481 98.0671 23.5896 96.9881C23.6511 96.8981 23.6859 96.7925 23.6901 96.6834C23.6943 96.5743 23.6677 96.4662 23.6133 96.3717C22.959 95.2367 22.0302 94.2864 20.9132 93.6092C19.7962 92.932 18.5272 92.5499 17.2241 92.4982C15.921 92.4466 14.6261 92.7271 13.4596 93.3138C12.2931 93.9005 11.2929 94.7743 10.5518 95.854C10.4905 95.9441 10.4558 96.0497 10.4516 96.1588C10.4474 96.2678 10.4739 96.3758 10.5281 96.4704C11.1831 97.605 12.1122 98.5548 13.2292 99.2319C14.3463 99.9089 15.6152 100.291 16.9182 100.343Z" fill="#BF9875"/>
<path d="M26.2184 109.57C27.5171 109.449 28.7644 109 29.8451 108.266C30.9259 107.531 31.8051 106.534 32.4014 105.367C32.4509 105.27 32.4719 105.16 32.4621 105.052C32.4523 104.943 32.4121 104.839 32.3461 104.752C31.55 103.713 30.5058 102.893 29.3104 102.368C28.1151 101.844 26.8074 101.631 25.5087 101.751C24.21 101.871 22.9625 102.319 21.882 103.054C20.8015 103.789 19.923 104.786 19.3281 105.954C19.2789 106.051 19.2581 106.161 19.268 106.269C19.278 106.378 19.3182 106.482 19.3842 106.569C20.1803 107.607 21.2241 108.427 22.4187 108.951C23.6134 109.476 24.9203 109.689 26.2184 109.57Z" fill="#BF9875"/>
<path d="M37.9787 117.465C39.2121 117.035 40.3182 116.3 41.195 115.327C42.0718 114.355 42.6912 113.175 42.9959 111.898C43.021 111.792 43.0156 111.681 42.9803 111.577C42.9451 111.474 42.8814 111.383 42.7967 111.315C41.7765 110.497 40.5675 109.952 39.2821 109.73C37.9966 109.508 36.6762 109.616 35.4433 110.044C34.2104 110.472 33.105 111.207 32.2295 112.18C31.3541 113.153 30.737 114.332 30.4354 115.609C30.4104 115.715 30.4158 115.826 30.451 115.93C30.4863 116.033 30.5499 116.124 30.6346 116.193C31.653 117.01 32.8603 117.556 34.1442 117.778C35.4281 118 36.7471 117.893 37.9787 117.465Z" fill="#BF9875"/>
<path d="M50.9863 122.954C52.0768 122.232 52.9696 121.246 53.5829 120.087C54.1961 118.927 54.5102 117.631 54.4963 116.318C54.4946 116.207 54.4617 116.099 54.4014 116.006C54.3412 115.913 54.2559 115.839 54.1556 115.793C52.9661 115.256 51.6613 115.03 50.3618 115.134C49.0623 115.239 47.8099 115.671 46.7204 116.392C45.6309 117.112 44.7394 118.097 44.1282 119.256C43.5169 120.414 43.2058 121.709 43.2234 123.021C43.2251 123.132 43.2579 123.24 43.318 123.333C43.3781 123.426 43.4631 123.5 43.5632 123.546C44.7499 124.084 46.0526 124.312 47.3503 124.209C48.6479 124.106 49.8987 123.674 50.9863 122.954Z" fill="#BF9875"/>
<path d="M74.646 125.309C73.7973 124.31 73.2111 123.113 72.9407 121.827C72.6704 120.541 72.7246 119.208 73.0985 117.949C73.1307 117.842 73.1925 117.747 73.2765 117.674C73.3604 117.602 73.4632 117.555 73.5727 117.539C74.8644 117.359 76.1803 117.508 77.3996 117.974C78.6188 118.439 79.7022 119.206 80.55 120.203C81.3979 121.199 81.983 122.395 82.2516 123.679C82.5203 124.963 82.4637 126.294 82.0872 127.55C82.055 127.657 81.9933 127.752 81.9093 127.825C81.8254 127.897 81.7226 127.944 81.613 127.96C80.3238 128.144 79.0093 127.997 77.7914 127.534C76.5735 127.07 75.4916 126.305 74.646 125.309Z" fill="#BF9875"/>
<path d="M132.503 33.7396C131.986 34.9438 131.176 35.9976 130.147 36.8038C129.119 37.6099 127.905 38.1424 126.618 38.3521C126.51 38.369 126.4 38.3547 126.3 38.3107C126.2 38.2668 126.114 38.195 126.053 38.1039C125.326 37.0133 124.883 35.7565 124.765 34.4488C124.646 33.1411 124.856 31.8244 125.374 30.6194C125.892 29.4143 126.703 28.3595 127.732 27.5516C128.761 26.7437 129.975 26.2086 131.262 25.9953C131.37 25.9782 131.481 25.9924 131.581 26.0362C131.681 26.08 131.766 26.1516 131.827 26.2427C132.554 27.3358 132.997 28.5948 133.115 29.9045C133.233 31.2142 133.022 32.5327 132.503 33.7396Z" fill="#BF9875"/>
<path d="M136.25 48.0276C135.418 49.0357 134.347 49.8164 133.136 50.2972C131.925 50.7781 130.613 50.9436 129.321 50.7784C129.211 50.7639 129.108 50.7183 129.023 50.6471C128.939 50.5758 128.876 50.4818 128.842 50.376C128.448 49.1248 128.373 47.794 128.624 46.5059C128.875 45.2179 129.443 44.014 130.278 43.005C131.112 41.996 132.185 41.2143 133.398 40.7318C134.611 40.2492 135.925 40.0814 137.22 40.2436C137.329 40.2589 137.431 40.3049 137.515 40.3763C137.599 40.4476 137.661 40.5414 137.694 40.6468C138.086 41.9005 138.159 43.2329 137.906 44.5223C137.654 45.8117 137.085 47.0169 136.25 48.0276Z" fill="#BF9875"/>
<path d="M137.143 61.6449C136.136 62.4747 134.937 63.0351 133.657 63.2742C132.377 63.5134 131.057 63.4234 129.821 63.0128C129.716 62.9778 129.624 62.9136 129.554 62.8276C129.484 62.7415 129.439 62.6372 129.426 62.5269C129.274 61.2239 129.45 59.9034 129.939 58.687C130.427 57.4707 131.212 56.3977 132.222 55.5669C133.231 54.7362 134.432 54.1745 135.713 53.9336C136.995 53.6927 138.316 53.7804 139.555 54.1886C139.66 54.2237 139.753 54.2881 139.823 54.3743C139.893 54.4604 139.937 54.5648 139.951 54.6753C140.099 55.9806 139.92 57.3025 139.43 58.5202C138.939 59.7378 138.153 60.8122 137.143 61.6449Z" fill="#BF9875"/>
<path d="M134.957 75.4003C133.799 76.0009 132.509 76.2973 131.207 76.262C129.905 76.2267 128.633 75.8608 127.509 75.1983C127.415 75.1426 127.339 75.0613 127.29 74.9639C127.24 74.8665 127.219 74.7569 127.229 74.648C127.347 73.3407 127.79 72.0844 128.519 70.9955C129.248 69.9066 130.237 69.0203 131.397 68.4186C132.556 67.8169 133.848 67.5193 135.152 67.5534C136.456 67.5875 137.731 67.9521 138.858 68.6135C138.951 68.6692 139.027 68.7505 139.077 68.8479C139.126 68.9453 139.147 69.0549 139.137 69.1639C139.016 70.4727 138.57 71.7299 137.839 72.8197C137.109 73.9095 136.118 74.7969 134.957 75.4003Z" fill="#BF9875"/>
<path d="M130.003 89.4528C128.716 89.6595 127.398 89.5359 126.171 89.0934C124.944 88.6509 123.848 87.9038 122.985 86.9215C122.913 86.8394 122.866 86.7387 122.849 86.6309C122.832 86.5231 122.845 86.4126 122.888 86.3123C123.404 85.1068 124.213 84.0519 125.242 83.2456C126.271 82.4392 127.486 81.9074 128.773 81.6997C130.061 81.492 131.38 81.6151 132.608 82.0575C133.836 82.4999 134.932 83.2473 135.796 84.2303C135.868 84.3123 135.915 84.4131 135.932 84.5209C135.949 84.6287 135.936 84.7391 135.893 84.8395C135.376 86.0445 134.565 87.0989 133.535 87.9053C132.506 88.7116 131.291 89.2438 130.003 89.4528Z" fill="#BF9875"/>
<path d="M123.089 100.343C121.786 100.394 120.492 100.113 119.326 99.5268C118.159 98.9403 117.159 98.0671 116.418 96.9881C116.356 96.8982 116.321 96.7925 116.317 96.6834C116.313 96.5743 116.339 96.4662 116.394 96.3717C117.048 95.2367 117.977 94.2864 119.094 93.6092C120.211 92.932 121.48 92.5499 122.783 92.4982C124.086 92.4466 125.381 92.7271 126.548 93.3138C127.714 93.9005 128.714 94.7743 129.455 95.854C129.517 95.9441 129.551 96.0497 129.556 96.1588C129.56 96.2678 129.533 96.3758 129.479 96.4704C128.824 97.605 127.895 98.5548 126.778 99.2319C125.661 99.9089 124.392 100.291 123.089 100.343Z" fill="#BF9875"/>
<path d="M113.785 109.57C112.486 109.449 111.239 109 110.158 108.266C109.078 107.531 108.198 106.534 107.602 105.367C107.553 105.27 107.532 105.16 107.541 105.052C107.551 104.943 107.591 104.839 107.657 104.752C108.454 103.713 109.498 102.893 110.693 102.368C111.888 101.844 113.196 101.631 114.495 101.751C115.793 101.871 117.041 102.319 118.122 103.054C119.202 103.789 120.081 104.786 120.675 105.954C120.725 106.051 120.745 106.161 120.735 106.269C120.726 106.378 120.685 106.482 120.619 106.569C119.823 107.607 118.779 108.427 117.585 108.951C116.39 109.476 115.083 109.689 113.785 109.57Z" fill="#BF9875"/>
<path d="M102.023 117.465C100.79 117.035 99.6834 116.3 98.8066 115.327C97.9298 114.355 97.3105 113.175 97.0058 111.898C96.9807 111.792 96.9861 111.681 97.0213 111.577C97.0566 111.474 97.1202 111.383 97.2049 111.315C98.2252 110.497 99.4341 109.952 100.72 109.73C102.005 109.508 103.325 109.616 104.558 110.044C105.791 110.472 106.897 111.207 107.772 112.18C108.648 113.153 109.265 114.332 109.566 115.609C109.591 115.715 109.586 115.826 109.55 115.93C109.515 116.033 109.452 116.124 109.367 116.193C108.349 117.01 107.141 117.556 105.857 117.778C104.573 118 103.255 117.893 102.023 117.465Z" fill="#BF9875"/>
<path d="M89.0163 122.954C87.9258 122.232 87.033 121.246 86.4197 120.087C85.8065 118.927 85.4924 117.631 85.5063 116.318C85.508 116.207 85.5409 116.099 85.6011 116.006C85.6614 115.913 85.7467 115.839 85.8469 115.793C87.0365 115.256 88.3413 115.03 89.6408 115.134C90.9403 115.239 92.1927 115.671 93.2822 116.392C94.3717 117.112 95.2632 118.097 95.8745 119.256C96.4857 120.414 96.7968 121.709 96.7792 123.021C96.7776 123.132 96.7447 123.24 96.6844 123.333C96.6241 123.426 96.5389 123.5 96.4386 123.546C95.252 124.084 93.9495 124.312 92.652 124.209C91.3544 124.105 90.1038 123.674 89.0163 122.954Z" fill="#BF9875"/>
<path d="M25.9127 74.7565H27.4042C27.3826 73.4447 26.3045 72.539 24.6656 72.539C23.052 72.539 21.8696 73.4303 21.8768 74.7673C21.8732 75.8526 22.6387 76.4744 23.8822 76.7727L24.6836 76.9739C25.4851 77.168 25.9307 77.398 25.9343 77.894C25.9307 78.4331 25.4204 78.7996 24.6297 78.7996C23.8211 78.7996 23.2389 78.4259 23.1885 77.6891H21.6827C21.7222 79.2812 22.8615 80.1042 24.6477 80.1042C26.4446 80.1042 27.5012 79.2453 27.5048 77.8976C27.5012 76.672 26.5776 76.0215 25.2982 75.734L24.6369 75.5759C23.9972 75.4285 23.4617 75.1913 23.4725 74.663C23.4725 74.1886 23.893 73.84 24.6549 73.84C25.3988 73.84 25.8552 74.1778 25.9127 74.7565ZM29.5636 80H31.1198V77.6136H32.428C34.1207 77.6136 35.1054 76.6037 35.1054 75.1338C35.1054 73.6711 34.1387 72.6396 32.4675 72.6396H29.5636V80ZM31.1198 76.3665V73.9119H32.1692C33.0677 73.9119 33.5026 74.4007 33.5026 75.1338C33.5026 75.8634 33.0677 76.3665 32.1764 76.3665H31.1198ZM37.1283 80H38.6845V77.3908H39.8201L41.2146 80H42.9325L41.3691 77.1392C42.2065 76.7798 42.6701 76.0503 42.6701 75.044C42.6701 73.5813 41.7033 72.6396 40.0322 72.6396H37.1283V80ZM38.6845 76.1401V73.9119H39.7339C40.6324 73.9119 41.0672 74.3108 41.0672 75.044C41.0672 75.7735 40.6324 76.1401 39.7411 76.1401H38.6845ZM46.0506 80L46.5968 78.3216H49.2527L49.799 80H51.4666L48.9293 72.6396H46.9239L44.383 80H46.0506ZM46.9922 77.1069L47.8978 74.3216H47.9553L48.861 77.1069H46.9922ZM54.2702 80H55.7868L57.1849 75.1877H57.2424L58.644 80H60.1606L62.2667 72.6396H60.5668L59.3484 77.7646H59.2837L57.9432 72.6396H56.4877L55.1435 77.7538H55.0824L53.8641 72.6396H52.1642L54.2702 80ZM66.7208 80C68.9634 80 70.3219 78.6127 70.3219 76.3126C70.3219 74.0197 68.9634 72.6396 66.7424 72.6396H64.1116V80H66.7208ZM65.6678 78.6667V73.973H66.6597C68.0398 73.973 68.7693 74.6774 68.7693 76.3126C68.7693 77.9551 68.0398 78.6667 66.6561 78.6667H65.6678ZM72.4077 80H78.0429V78.717H74.3592L78.0357 73.5633V72.6396H72.4005V73.9227H76.0806L72.4077 79.0764V80ZM86.6669 76.3198C86.6669 73.9119 85.1718 72.539 83.2203 72.539C81.258 72.539 79.7737 73.9119 79.7737 76.3198C79.7737 78.717 81.258 80.1006 83.2203 80.1006C85.1718 80.1006 86.6669 78.7278 86.6669 76.3198ZM85.0892 76.3198C85.0892 77.8796 84.3488 78.7242 83.2203 78.7242C82.0882 78.7242 81.3515 77.8796 81.3515 76.3198C81.3515 74.7601 82.0882 73.9155 83.2203 73.9155C84.3488 73.9155 85.0892 74.7601 85.0892 76.3198ZM94.9881 72.6396H93.4391V77.2686H93.3744L90.1974 72.6396H88.8317V80H90.3879V75.3674H90.4418L93.6439 80H94.9881V72.6396ZM96.8546 72.6396L99.5392 77.398V80H101.085V77.398L103.769 72.6396H102.026L100.348 75.8095H100.276L98.5976 72.6396H96.8546ZM111.681 75.2165C111.476 73.5166 110.189 72.539 108.486 72.539C106.541 72.539 105.057 73.9119 105.057 76.3198C105.057 78.7206 106.516 80.1006 108.486 80.1006C110.373 80.1006 111.512 78.8464 111.681 77.4914L110.107 77.4843C109.959 78.2713 109.341 78.7242 108.511 78.7242C107.393 78.7242 106.635 77.894 106.635 76.3198C106.635 74.7888 107.382 73.9155 108.522 73.9155C109.373 73.9155 109.988 74.4079 110.107 75.2165H111.681ZM113.809 80H115.365V76.9595H118.524V80H120.077V72.6396H118.524V75.6765H115.365V72.6396H113.809V80ZM46.6214 90.0188H48.2027C48.0014 88.5633 46.7184 87.539 45.0544 87.539C43.1101 87.539 41.6114 88.9406 41.6114 91.327C41.6114 93.6559 43.0131 95.1006 45.0868 95.1006C46.9448 95.1006 48.271 93.9254 48.271 91.9883V91.0611H45.191V92.2327H46.7723C46.7507 93.1455 46.129 93.7242 45.0939 93.7242C43.9259 93.7242 43.1892 92.8508 43.1892 91.3126C43.1892 89.7816 43.9547 88.9155 45.0796 88.9155C45.881 88.9155 46.4237 89.3288 46.6214 90.0188ZM50.4519 95H52.0081V92.3908H53.1438L54.5382 95H56.2561L54.6928 92.1392C55.5301 91.7798 55.9938 91.0503 55.9938 90.044C55.9938 88.5813 55.027 87.6396 53.3558 87.6396H50.4519V95ZM52.0081 91.1401V88.9119H53.0575C53.956 88.9119 54.3909 89.3108 54.3909 90.044C54.3909 90.7735 53.956 91.1401 53.0647 91.1401H52.0081ZM62.6519 87.6396V92.2866C62.6519 93.1276 62.0625 93.7349 61.1568 93.7349C60.2547 93.7349 59.6617 93.1276 59.6617 92.2866V87.6396H58.1055V92.4196C58.1055 94.0296 59.3203 95.1042 61.1568 95.1042C62.9861 95.1042 64.208 94.0296 64.208 92.4196V87.6396H62.6519ZM72.6568 87.6396H71.1078V92.2686H71.0431L67.8661 87.6396H66.5004V95H68.0566V90.3674H68.1105L71.3127 95H72.6568V87.6396ZM74.6742 88.9227H76.9276V95H78.4658V88.9227H80.7192V87.6396H74.6742V88.9227ZM89.1644 91.3198C89.1644 88.9119 87.6693 87.539 85.7178 87.539C83.7555 87.539 82.2713 88.9119 82.2713 91.3198C82.2713 93.717 83.7555 95.1006 85.7178 95.1006C87.6693 95.1006 89.1644 93.7278 89.1644 91.3198ZM87.5867 91.3198C87.5867 92.8796 86.8463 93.7242 85.7178 93.7242C84.5857 93.7242 83.849 92.8796 83.849 91.3198C83.849 89.7601 84.5857 88.9155 85.7178 88.9155C86.8463 88.9155 87.5867 89.7601 87.5867 91.3198ZM85.168 86.9281H86.2497L87.3459 85.2928H85.9299L85.168 86.9281ZM92.7093 95H94.2259L95.6239 90.1877H95.6814L97.0831 95H98.5997L100.706 87.6396H99.0058L97.7875 92.7646H97.7228L96.3822 87.6396H94.9267L93.5826 92.7538H93.5215L92.3031 87.6396H90.6032L92.7093 95Z" fill="#0B345A"/>
<path d="M41.02 41.9189H36.6318L31.1654 45.3799V49.5201L36.2221 46.3503H36.3515V64H41.02V41.9189ZM54.9257 64.4852C60.4783 64.4852 63.8315 60.2587 63.8423 52.981C63.853 45.7573 60.4568 41.6171 54.9257 41.6171C49.3839 41.6171 46.02 45.7465 46.0092 52.981C45.9877 60.2372 49.3624 64.4744 54.9257 64.4852ZM54.9257 60.6145C52.392 60.6145 50.7532 58.07 50.764 52.981C50.7748 47.9675 52.4028 45.4446 54.9257 45.4446C57.4379 45.4446 59.0767 47.9675 59.0767 52.981C59.0875 58.07 57.4487 60.6145 54.9257 60.6145ZM75.8289 64.4852C81.3815 64.4852 84.7346 60.2587 84.7454 52.981C84.7562 45.7573 81.3599 41.6171 75.8289 41.6171C70.2871 41.6171 66.9231 45.7465 66.9124 52.981C66.8908 60.2372 70.2655 64.4744 75.8289 64.4852ZM75.8289 60.6145C73.2952 60.6145 71.6563 58.07 71.6671 52.981C71.6779 47.9675 73.306 45.4446 75.8289 45.4446C78.341 45.4446 79.9799 47.9675 79.9799 52.981C79.9906 58.07 78.3518 60.6145 75.8289 60.6145ZM100.161 59.8598C100.171 62.5121 101.864 64.7655 105.023 64.7655C108.15 64.7655 109.897 62.5121 109.886 59.8598V58.6954C109.897 56.0215 108.193 53.7897 105.023 53.7897C101.907 53.7897 100.171 56.0431 100.161 58.6954V59.8598ZM88.829 47.2236C88.8398 49.8759 90.5325 52.1077 93.6808 52.1077C96.8183 52.1077 98.5649 49.8975 98.5541 47.2236V46.0591C98.5649 43.3853 96.8614 41.1534 93.6808 41.1534C90.5972 41.1534 88.8398 43.3853 88.829 46.0591V47.2236ZM89.8856 64H92.6996L107.88 41.9189H105.066L89.8856 64ZM103.298 58.6954C103.309 57.6388 103.729 56.5498 105.023 56.5498C106.382 56.5498 106.738 57.6388 106.727 58.6954V59.8598C106.738 60.9164 106.339 61.9838 105.023 61.9838C103.708 61.9838 103.309 60.8841 103.298 59.8598V58.6954ZM91.9881 46.0591C91.9988 45.0349 92.3978 43.9136 93.6808 43.9136C95.0393 43.9136 95.4059 45.0025 95.3951 46.0591V47.2236C95.4059 48.2802 94.9962 49.3476 93.6808 49.3476C92.4085 49.3476 91.9988 48.2802 91.9881 47.2236V46.0591Z" fill="#0B345A"/>
</svg>
