<svg width="140" height="140" viewBox="0 0 140 140" fill="none" xmlns="http://www.w3.org/2000/svg">
<mask id="path-1-inside-1_50_1921" fill="white">
<path d="M135.082 62.4621C133.499 61.0887 132.418 59.2278 132.009 57.1723C131.6 55.1169 131.886 52.9839 132.822 51.109C133.427 49.8986 133.764 48.5722 133.811 47.22C133.857 45.8677 133.612 44.5213 133.092 43.2721C132.572 42.023 131.789 40.9004 130.797 39.9807C129.804 39.061 128.626 38.3657 127.341 37.942C125.365 37.2683 123.669 35.9587 122.518 34.2183C121.366 32.4778 120.824 30.4047 120.976 28.3232C121.073 26.9743 120.879 25.6202 120.406 24.3528C119.934 23.0855 119.195 21.9344 118.239 20.9777C117.283 20.021 116.133 19.281 114.866 18.8078C113.599 18.3346 112.245 18.1393 110.896 18.2351C108.806 18.3846 106.726 17.8339 104.984 16.6698C103.243 15.5057 101.938 13.7947 101.277 11.8068C100.849 10.5243 100.15 9.34876 99.2285 8.35983C98.3065 7.3709 97.1828 6.59165 95.9334 6.07486C94.6841 5.55806 93.3382 5.3158 91.9871 5.36447C90.636 5.41313 89.311 5.7516 88.1021 6.35694C86.224 7.3028 84.0837 7.59418 82.0211 7.18482C79.9585 6.77547 78.0917 5.68885 76.7172 4.09746C75.8314 3.0761 74.7365 2.257 73.5067 1.69563C72.2768 1.13427 70.9406 0.84375 69.5887 0.84375C68.2367 0.84375 66.9006 1.13427 65.6707 1.69563C64.4408 2.257 63.3459 3.0761 62.4602 4.09746C61.0867 5.68042 59.2258 6.76156 57.1704 7.17063C55.115 7.57969 52.9819 7.29344 51.1071 6.35694C49.8985 5.753 48.5743 5.41565 47.2241 5.3677C45.8738 5.31976 44.529 5.56234 43.2807 6.07904C42.0323 6.59574 40.9095 7.3745 39.9881 8.36266C39.0667 9.35082 38.3682 10.5253 37.94 11.8068C37.2788 13.7947 35.9744 15.5057 34.2326 16.6698C32.4908 17.8339 30.4109 18.3846 28.3213 18.2351C26.9719 18.1394 25.6177 18.3348 24.3503 18.8079C23.083 19.281 21.9321 20.0209 20.9755 20.9775C20.0189 21.934 19.2791 23.0849 18.8059 24.3523C18.3328 25.6196 18.1375 26.9739 18.2332 28.3232C18.3827 30.4129 17.8319 32.4928 16.6678 34.2346C15.5038 35.9764 13.7927 37.2808 11.8048 37.942C10.5234 38.3702 9.34887 39.0686 8.36071 39.99C7.37255 40.9114 6.59378 42.0343 6.07708 43.2826C5.56039 44.531 5.3178 45.8758 5.36575 47.226C5.41369 48.5762 5.75105 49.9004 6.35499 51.109C7.29148 52.9839 7.57774 55.1169 7.16867 57.1723C6.75961 59.2278 5.67847 61.0887 4.09551 62.4621C3.07414 63.3479 2.25504 64.4428 1.69368 65.6726C1.13232 66.9025 0.841797 68.2387 0.841797 69.5906C0.841797 70.9426 1.13232 72.2787 1.69368 73.5086C2.25504 74.7385 3.07414 75.8334 4.09551 76.7191C5.67782 78.0913 6.75865 79.9508 7.16773 82.0048C7.57681 84.0589 7.29088 86.1906 6.35499 88.0643C5.74965 89.2732 5.41118 90.5981 5.36251 91.9493C5.31384 93.3004 5.55611 94.6463 6.0729 95.8956C6.5897 97.145 7.36895 98.2687 8.35788 99.1906C9.34681 100.113 10.5223 100.811 11.8048 101.239C13.7927 101.9 15.5038 103.205 16.6678 104.947C17.8319 106.688 18.3827 108.768 18.2332 110.858C18.1313 112.21 18.3222 113.569 18.7927 114.84C19.2632 116.112 20.0023 117.268 20.9597 118.228C21.9171 119.189 23.0703 119.931 24.3406 120.406C25.611 120.88 26.9687 121.076 28.3213 120.978C30.4027 120.826 32.4759 121.368 34.2163 122.52C35.9568 123.671 37.2663 125.367 37.94 127.343C38.3663 128.626 39.0635 129.802 39.9843 130.792C40.9051 131.781 42.028 132.562 43.2769 133.079C44.5257 133.597 45.8713 133.84 47.2223 133.792C48.5733 133.744 49.8982 133.406 51.1071 132.8C52.9819 131.864 55.115 131.578 57.1704 131.987C59.2258 132.396 61.0867 133.477 62.4602 135.06C63.3459 136.081 64.4408 136.9 65.6707 137.462C66.9006 138.023 68.2367 138.314 69.5887 138.314C70.9406 138.314 72.2768 138.023 73.5067 137.462C74.7365 136.9 75.8314 136.081 76.7172 135.06C78.0893 133.478 79.9489 132.397 82.0029 131.988C84.0569 131.579 86.1887 131.865 88.0623 132.8C89.2718 133.406 90.5972 133.744 91.9487 133.792C93.3003 133.84 94.6464 133.597 95.8959 133.08C97.1453 132.562 98.2689 131.782 99.1905 130.792C100.112 129.802 100.81 128.626 101.237 127.343C101.911 125.367 103.221 123.671 104.961 122.52C106.701 121.368 108.775 120.826 110.856 120.978C112.211 121.082 113.573 120.891 114.848 120.419C116.123 119.947 117.281 119.205 118.242 118.244C119.203 117.283 119.945 116.125 120.417 114.85C120.889 113.575 121.08 112.213 120.976 110.858C120.824 108.777 121.366 106.703 122.518 104.963C123.669 103.223 125.365 101.913 127.341 101.239C128.624 100.812 129.8 100.114 130.79 99.1925C131.78 98.2709 132.56 97.1473 133.078 95.8978C133.595 94.6484 133.838 93.3023 133.79 91.9507C133.742 90.5991 133.404 89.2737 132.798 88.0643C131.863 86.1906 131.577 84.0589 131.986 82.0048C132.395 79.9508 133.476 78.0913 135.058 76.7191C136.081 75.8351 136.902 74.7416 137.465 73.5126C138.029 72.2837 138.321 70.948 138.324 69.5961C138.326 68.2441 138.038 66.9075 137.478 65.6767C136.919 64.4458 136.102 63.3496 135.082 62.4621ZM69.5887 130.087C57.7569 130.089 46.1905 126.582 36.352 120.01C26.5135 113.438 18.8449 104.095 14.316 93.1647C9.78708 82.2341 8.6013 70.2059 10.9086 58.6013C13.2159 46.9968 18.9126 36.337 27.2784 27.9701C35.6441 19.6033 46.3031 13.9051 57.9074 11.5963C69.5116 9.28747 81.54 10.4717 92.4712 14.9991C103.402 19.5265 112.746 27.1939 119.319 37.0315C125.893 46.8691 129.401 58.4351 129.401 70.2669C129.391 86.124 123.085 101.328 111.869 112.538C100.653 123.748 85.4458 130.046 69.5887 130.048V130.087Z"/>
</mask>
<path d="M135.082 62.4621C133.499 61.0887 132.418 59.2278 132.009 57.1723C131.6 55.1169 131.886 52.9839 132.822 51.109C133.427 49.8986 133.764 48.5722 133.811 47.22C133.857 45.8677 133.612 44.5213 133.092 43.2721C132.572 42.023 131.789 40.9004 130.797 39.9807C129.804 39.061 128.626 38.3657 127.341 37.942C125.365 37.2683 123.669 35.9587 122.518 34.2183C121.366 32.4778 120.824 30.4047 120.976 28.3232C121.073 26.9743 120.879 25.6202 120.406 24.3528C119.934 23.0855 119.195 21.9344 118.239 20.9777C117.283 20.021 116.133 19.281 114.866 18.8078C113.599 18.3346 112.245 18.1393 110.896 18.2351C108.806 18.3846 106.726 17.8339 104.984 16.6698C103.243 15.5057 101.938 13.7947 101.277 11.8068C100.849 10.5243 100.15 9.34876 99.2285 8.35983C98.3065 7.3709 97.1828 6.59165 95.9334 6.07486C94.6841 5.55806 93.3382 5.3158 91.9871 5.36447C90.636 5.41313 89.311 5.7516 88.1021 6.35694C86.224 7.3028 84.0837 7.59418 82.0211 7.18482C79.9585 6.77547 78.0917 5.68885 76.7172 4.09746C75.8314 3.0761 74.7365 2.257 73.5067 1.69563C72.2768 1.13427 70.9406 0.84375 69.5887 0.84375C68.2367 0.84375 66.9006 1.13427 65.6707 1.69563C64.4408 2.257 63.3459 3.0761 62.4602 4.09746C61.0867 5.68042 59.2258 6.76156 57.1704 7.17063C55.115 7.57969 52.9819 7.29344 51.1071 6.35694C49.8985 5.753 48.5743 5.41565 47.2241 5.3677C45.8738 5.31976 44.529 5.56234 43.2807 6.07904C42.0323 6.59574 40.9095 7.3745 39.9881 8.36266C39.0667 9.35082 38.3682 10.5253 37.94 11.8068C37.2788 13.7947 35.9744 15.5057 34.2326 16.6698C32.4908 17.8339 30.4109 18.3846 28.3213 18.2351C26.9719 18.1394 25.6177 18.3348 24.3503 18.8079C23.083 19.281 21.9321 20.0209 20.9755 20.9775C20.0189 21.934 19.2791 23.0849 18.8059 24.3523C18.3328 25.6196 18.1375 26.9739 18.2332 28.3232C18.3827 30.4129 17.8319 32.4928 16.6678 34.2346C15.5038 35.9764 13.7927 37.2808 11.8048 37.942C10.5234 38.3702 9.34887 39.0686 8.36071 39.99C7.37255 40.9114 6.59378 42.0343 6.07708 43.2826C5.56039 44.531 5.3178 45.8758 5.36575 47.226C5.41369 48.5762 5.75105 49.9004 6.35499 51.109C7.29148 52.9839 7.57774 55.1169 7.16867 57.1723C6.75961 59.2278 5.67847 61.0887 4.09551 62.4621C3.07414 63.3479 2.25504 64.4428 1.69368 65.6726C1.13232 66.9025 0.841797 68.2387 0.841797 69.5906C0.841797 70.9426 1.13232 72.2787 1.69368 73.5086C2.25504 74.7385 3.07414 75.8334 4.09551 76.7191C5.67782 78.0913 6.75865 79.9508 7.16773 82.0048C7.57681 84.0589 7.29088 86.1906 6.35499 88.0643C5.74965 89.2732 5.41118 90.5981 5.36251 91.9493C5.31384 93.3004 5.55611 94.6463 6.0729 95.8956C6.5897 97.145 7.36895 98.2687 8.35788 99.1906C9.34681 100.113 10.5223 100.811 11.8048 101.239C13.7927 101.9 15.5038 103.205 16.6678 104.947C17.8319 106.688 18.3827 108.768 18.2332 110.858C18.1313 112.21 18.3222 113.569 18.7927 114.84C19.2632 116.112 20.0023 117.268 20.9597 118.228C21.9171 119.189 23.0703 119.931 24.3406 120.406C25.611 120.88 26.9687 121.076 28.3213 120.978C30.4027 120.826 32.4759 121.368 34.2163 122.52C35.9568 123.671 37.2663 125.367 37.94 127.343C38.3663 128.626 39.0635 129.802 39.9843 130.792C40.9051 131.781 42.028 132.562 43.2769 133.079C44.5257 133.597 45.8713 133.84 47.2223 133.792C48.5733 133.744 49.8982 133.406 51.1071 132.8C52.9819 131.864 55.115 131.578 57.1704 131.987C59.2258 132.396 61.0867 133.477 62.4602 135.06C63.3459 136.081 64.4408 136.9 65.6707 137.462C66.9006 138.023 68.2367 138.314 69.5887 138.314C70.9406 138.314 72.2768 138.023 73.5067 137.462C74.7365 136.9 75.8314 136.081 76.7172 135.06C78.0893 133.478 79.9489 132.397 82.0029 131.988C84.0569 131.579 86.1887 131.865 88.0623 132.8C89.2718 133.406 90.5972 133.744 91.9487 133.792C93.3003 133.84 94.6464 133.597 95.8959 133.08C97.1453 132.562 98.2689 131.782 99.1905 130.792C100.112 129.802 100.81 128.626 101.237 127.343C101.911 125.367 103.221 123.671 104.961 122.52C106.701 121.368 108.775 120.826 110.856 120.978C112.211 121.082 113.573 120.891 114.848 120.419C116.123 119.947 117.281 119.205 118.242 118.244C119.203 117.283 119.945 116.125 120.417 114.85C120.889 113.575 121.08 112.213 120.976 110.858C120.824 108.777 121.366 106.703 122.518 104.963C123.669 103.223 125.365 101.913 127.341 101.239C128.624 100.812 129.8 100.114 130.79 99.1925C131.78 98.2709 132.56 97.1473 133.078 95.8978C133.595 94.6484 133.838 93.3023 133.79 91.9507C133.742 90.5991 133.404 89.2737 132.798 88.0643C131.863 86.1906 131.577 84.0589 131.986 82.0048C132.395 79.9508 133.476 78.0913 135.058 76.7191C136.081 75.8351 136.902 74.7416 137.465 73.5126C138.029 72.2837 138.321 70.948 138.324 69.5961C138.326 68.2441 138.038 66.9075 137.478 65.6767C136.919 64.4458 136.102 63.3496 135.082 62.4621ZM69.5887 130.087C57.7569 130.089 46.1905 126.582 36.352 120.01C26.5135 113.438 18.8449 104.095 14.316 93.1647C9.78708 82.2341 8.6013 70.2059 10.9086 58.6013C13.2159 46.9968 18.9126 36.337 27.2784 27.9701C35.6441 19.6033 46.3031 13.9051 57.9074 11.5963C69.5116 9.28747 81.54 10.4717 92.4712 14.9991C103.402 19.5265 112.746 27.1939 119.319 37.0315C125.893 46.8691 129.401 58.4351 129.401 70.2669C129.391 86.124 123.085 101.328 111.869 112.538C100.653 123.748 85.4458 130.046 69.5887 130.048V130.087Z" fill="#BF9875" stroke="#BF9875" stroke-width="1.68675" mask="url(#path-1-inside-1_50_1921)"/>
<path d="M69.588 125.813C100.288 125.813 125.176 100.925 125.176 70.2248C125.176 39.5243 100.288 14.6367 69.588 14.6367C38.8876 14.6367 14 39.5243 14 70.2248C14 100.925 38.8876 125.813 69.588 125.813Z" stroke="#BF9875" stroke-width="0.843373" stroke-miterlimit="10"/>
<path d="M42.1143 44.9189H37.7261L32.2598 48.3799V52.5201L37.3164 49.3503H37.4458V67H42.1143V44.9189ZM56.0201 67.4852C61.5727 67.4852 64.9258 63.2587 64.9366 55.981C64.9474 48.7573 61.5511 44.6171 56.0201 44.6171C50.4783 44.6171 47.1144 48.7465 47.1036 55.981C47.082 63.2372 50.4567 67.4744 56.0201 67.4852ZM56.0201 63.6145C53.4864 63.6145 51.8476 61.07 51.8583 55.981C51.8691 50.9675 53.4972 48.4446 56.0201 48.4446C58.5323 48.4446 60.1711 50.9675 60.1711 55.981C60.1819 61.07 58.543 63.6145 56.0201 63.6145ZM76.9232 67.4852C82.4759 67.4852 85.829 63.2587 85.8398 55.981C85.8505 48.7573 82.4543 44.6171 76.9232 44.6171C71.3814 44.6171 68.0175 48.7465 68.0067 55.981C67.9852 63.2372 71.3599 67.4744 76.9232 67.4852ZM76.9232 63.6145C74.3895 63.6145 72.7507 61.07 72.7615 55.981C72.7723 50.9675 74.4003 48.4446 76.9232 48.4446C79.4354 48.4446 81.0742 50.9675 81.0742 55.981C81.085 61.07 79.4462 63.6145 76.9232 63.6145ZM97.8264 67.4852C103.379 67.4852 106.732 63.2587 106.743 55.981C106.754 48.7573 103.357 44.6171 97.8264 44.6171C92.2846 44.6171 88.9207 48.7465 88.9099 55.981C88.8883 63.2372 92.263 67.4744 97.8264 67.4852ZM97.8264 63.6145C95.2927 63.6145 93.6538 61.07 93.6646 55.981C93.6754 50.9675 95.3035 48.4446 97.8264 48.4446C100.339 48.4446 101.977 50.9675 101.977 55.981C101.988 61.07 100.349 63.6145 97.8264 63.6145ZM21.937 85H27.5722V83.717H23.8885L27.5651 78.5633V77.6396H21.9298V78.9227H25.61L21.937 84.0764V85ZM30.541 85L31.0873 83.3216H33.7432L34.2895 85H35.957L33.4197 77.6396H31.4143L28.8734 85H30.541ZM31.4826 82.1069L32.3883 79.3216H32.4458L33.3514 82.1069H31.4826ZM39.9581 85C42.2008 85 43.5593 83.6127 43.5593 81.3126C43.5593 79.0197 42.2008 77.6396 39.9797 77.6396H37.349V85H39.9581ZM38.9051 83.6667V78.973H39.8971C41.2771 78.973 42.0067 79.6774 42.0067 81.3126C42.0067 82.9551 41.2771 83.6667 39.8935 83.6667H38.9051ZM51.9818 81.3198C51.9818 78.9119 50.4867 77.539 48.5352 77.539C46.5729 77.539 45.0887 78.9119 45.0887 81.3198C45.0887 83.717 46.5729 85.1006 48.5352 85.1006C50.4867 85.1006 51.9818 83.7278 51.9818 81.3198ZM50.4041 81.3198C50.4041 82.8796 49.6637 83.7242 48.5352 83.7242C47.4031 83.7242 46.6664 82.8796 46.6664 81.3198C46.6664 79.7601 47.4031 78.9155 48.5352 78.9155C49.6637 78.9155 50.4041 79.7601 50.4041 81.3198ZM55.0206 85H56.5373L57.9353 80.1877H57.9928L59.3944 85H60.9111L63.0171 77.6396H61.3172L60.0988 82.7646H60.0342L58.6936 77.6396H57.2381L55.894 82.7538H55.8329L54.6145 77.6396H52.9146L55.0206 85ZM70.7047 81.3198C70.7047 78.9119 69.2096 77.539 67.2581 77.539C65.2958 77.539 63.8115 78.9119 63.8115 81.3198C63.8115 83.717 65.2958 85.1006 67.2581 85.1006C69.2096 85.1006 70.7047 83.7278 70.7047 81.3198ZM69.127 81.3198C69.127 82.8796 68.3866 83.7242 67.2581 83.7242C66.126 83.7242 65.3893 82.8796 65.3893 81.3198C65.3893 79.7601 66.126 78.9155 67.2581 78.9155C68.3866 78.9155 69.127 79.7601 69.127 81.3198ZM72.3635 85H77.0751V83.717H73.9196V77.6396H72.3635V85ZM85.0888 81.3198C85.0888 78.9119 83.5937 77.539 81.6422 77.539C79.68 77.539 78.1957 78.9119 78.1957 81.3198C78.1957 83.717 79.68 85.1006 81.6422 85.1006C83.5937 85.1006 85.0888 83.7278 85.0888 81.3198ZM83.5111 81.3198C83.5111 82.8796 82.7707 83.7242 81.6422 83.7242C80.5102 83.7242 79.7734 82.8796 79.7734 81.3198C79.7734 79.7601 80.5102 78.9155 81.6422 78.9155C82.7707 78.9155 83.5111 79.7601 83.5111 81.3198ZM92.904 77.6396H91.355V82.2686H91.2903L88.1133 77.6396H86.7476V85H88.3038V80.3674H88.3577L91.5599 85H92.904V77.6396ZM94.2645 77.6396L96.9491 82.398V85H98.4945V82.398L101.179 77.6396H99.4361L97.7577 80.8095H97.6859L96.0075 77.6396H94.2645ZM108.585 80.2165C108.38 78.5166 107.093 77.539 105.39 77.539C103.445 77.539 101.961 78.9119 101.961 81.3198C101.961 83.7206 103.42 85.1006 105.39 85.1006C107.276 85.1006 108.416 83.8464 108.585 82.4914L107.01 82.4843C106.863 83.2713 106.245 83.7242 105.415 83.7242C104.297 83.7242 103.539 82.894 103.539 81.3198C103.539 79.7888 104.286 78.9155 105.426 78.9155C106.277 78.9155 106.892 79.4079 107.01 80.2165H108.585ZM110.207 85H111.763V81.9595H114.922V85H116.474V77.6396H114.922V80.6765H111.763V77.6396H110.207V85ZM41.491 100H43.0472V97.9083L43.8127 96.9739L45.8289 100H47.6906L44.9268 95.9353L47.6582 92.6396H45.793L43.1442 95.885H43.0472V92.6396H41.491V100ZM48.9747 100H53.6863V98.717H50.5308V92.6396H48.9747V100ZM56.779 92.6396H55.2229V100H56.779V92.6396ZM58.5654 100H63.5394V98.717H60.1216V96.9595H63.2699V95.6765H60.1216V93.9227H63.525V92.6396H58.5654V100ZM71.4246 92.6396H69.8757V97.2686H69.811L66.6339 92.6396H65.2682V100H66.8244V95.3674H66.8783L70.0805 100H71.4246V92.6396ZM72.9361 93.9227H75.1894V100H76.7276V93.9227H78.981V92.6396H72.9361V93.9227ZM86.9202 96.3198C86.9202 93.9119 85.4251 92.539 83.4736 92.539C81.5113 92.539 80.027 93.9119 80.027 96.3198C80.027 98.717 81.5113 100.101 83.4736 100.101C85.4251 100.101 86.9202 98.7278 86.9202 96.3198ZM85.3425 96.3198C85.3425 97.8796 84.6021 98.7242 83.4736 98.7242C82.3415 98.7242 81.6048 97.8796 81.6048 96.3198C81.6048 94.7601 82.3415 93.9155 83.4736 93.9155C84.6021 93.9155 85.3425 94.7601 85.3425 96.3198ZM82.9237 91.9281H84.0055L85.1017 90.2928H83.6857L82.9237 91.9281ZM89.959 100H91.4757L92.8737 95.1877H92.9312L94.3328 100H95.8495L97.9555 92.6396H96.2556L95.0372 97.7646H94.9725L93.632 92.6396H92.1765L90.8323 97.7538H90.7712L89.5529 92.6396H87.853L89.959 100Z" fill="#0B345A"/>
</svg>
