<svg width="120" height="121" viewBox="0 0 120 121" fill="none" xmlns="http://www.w3.org/2000/svg">
<mask id="mask0_9_245" style="mask-type:alpha" maskUnits="userSpaceOnUse" x="0" y="0" width="120" height="121">
<rect y="0.875" width="120" height="120" fill="#C4C4C4"/>
</mask>
<g mask="url(#mask0_9_245)">
<path d="M61.8 88.1754H27L44.4 22.0254L61.8 88.1754ZM30.9 85.1754H57.9L44.4 33.8754L30.9 85.1754Z" fill="#443401"/>
<path d="M45.5996 87.875H42.5996V100.475H45.5996V87.875Z" fill="#443401"/>
<path d="M69.5996 71.0752H66.5996V100.475H69.5996V71.0752Z" fill="#443401"/>
<path d="M68.1004 73.475C62.7004 73.475 57.7504 71.675 53.4004 68.075L55.3504 65.825C59.1004 68.825 63.4504 70.475 68.1004 70.475C79.6504 70.475 89.1004 60.275 89.1004 47.675C89.1004 35.075 79.6504 24.875 68.1004 24.875C59.7004 24.875 52.0504 30.275 48.7504 38.675L45.9004 37.625C49.6504 28.025 58.3504 21.875 67.9504 21.875C81.1504 21.875 91.9504 33.425 91.9504 47.675C91.9504 61.925 81.3004 73.475 68.1004 73.475Z" fill="#443401"/>
</g>
</svg>
