<svg width="120" height="121" viewBox="0 0 120 121" fill="none" xmlns="http://www.w3.org/2000/svg">
<mask id="mask0_9_252" style="mask-type:alpha" maskUnits="userSpaceOnUse" x="0" y="0" width="120" height="121">
<rect y="0.875" width="120" height="120" fill="#C4C4C4"/>
</mask>
<g mask="url(#mask0_9_252)">
</g>
<g clip-path="url(#clip0_9_252)">
<path d="M35.7726 89.0937L32.0332 89.075V87.2988H35.7726V89.0937Z" fill="#443401"/>
<path d="M35.7726 83.8587H32.0332V80.3998H35.7726V83.8587ZM35.7726 76.9408H32.0332V73.4819H35.7726V76.9408ZM35.7726 70.023H32.0332V66.564H35.7726V70.023ZM35.7726 63.1052H32.0332V59.6462H35.7726V63.1052ZM35.7726 56.1873H32.0332V52.8032H35.7726V56.1873ZM35.7726 49.2694H32.0332V45.8105H35.7726V49.2694Z" fill="#443401"/>
<path d="M35.7726 40.5938H32.0332V42.37H35.7726V40.5938Z" fill="#443401"/>
<path d="M90.1241 89.0935H86.3848V40.2012H90.1241V89.0935Z" fill="#443401"/>
<path d="M62.2872 22.6222L60.373 25.8345L99.9005 49.3882L101.815 46.1759L62.2872 22.6222Z" fill="#443401"/>
<path d="M22.2987 46.6868L20.7773 47.6035L22.7072 50.8064L24.2286 49.8897L22.2987 46.6868Z" fill="#443401"/>
<path d="M27.1724 47.979L25.3027 44.7819L28.2569 42.9123L30.1266 46.1094L27.1724 47.979ZM33.0807 44.4267L31.211 41.2295L34.1652 39.3598L36.0348 42.5757L33.0807 44.4267ZM38.9889 40.8555L37.1192 37.6584L40.0733 35.8822L41.943 39.0793L38.9889 40.8555ZM44.8971 37.3032L43.0275 34.106L45.9815 32.2363L47.8512 35.4335L44.8971 37.3032ZM50.7866 33.7507L48.9169 30.5349L51.871 28.6652L53.7407 31.8811L50.7866 33.7507ZM56.6949 30.1797L54.8252 26.9825L57.7792 25.1128L59.6489 28.31L56.6949 30.1797Z" fill="#443401"/>
<path d="M62.1868 22.4459L60.666 23.3633L62.5975 26.5652L64.1184 25.6478L62.1868 22.4459Z" fill="#443401"/>
<path d="M105.736 105.64H15.2617V15.1475H105.736V105.64ZM17.1314 103.771H103.866V17.0171H17.1314V103.771Z" fill="#443401"/>
<path d="M21.3776 21.2614H11.0195V10.9033H21.3776V21.2614ZM12.8892 19.3917H19.5079V12.773H12.8892V19.3917Z" fill="#443401"/>
<path d="M109.981 21.2614H99.623V10.9033H109.981V21.2614ZM101.493 19.3917H108.112V12.773H101.493V19.3917Z" fill="#443401"/>
<path d="M21.358 109.903H11V99.5454H21.358V109.903ZM12.8697 108.034H19.4883V101.415H12.8697V108.034Z" fill="#443401"/>
<path d="M109.981 109.885H99.623V99.5454H109.981V109.885ZM101.493 108.015H108.112V101.415H101.493V108.015Z" fill="#443401"/>
<path d="M62.192 16.0825H60.3223V104.706H62.192V16.0825Z" fill="#443401"/>
</g>
<defs>
<clipPath id="clip0_9_252">
<rect width="99" height="99" fill="white" transform="translate(11 10.9033)"/>
</clipPath>
</defs>
</svg>
