<svg width="120" height="121" viewBox="0 0 120 121" fill="none" xmlns="http://www.w3.org/2000/svg">
<mask id="mask0_9_291" style="mask-type:alpha" maskUnits="userSpaceOnUse" x="0" y="0" width="120" height="121">
<rect y="0.84668" width="120" height="120" fill="#C4C4C4"/>
</mask>
<g mask="url(#mask0_9_291)">
<path d="M29.55 95.0467H18V32.7967L23.7 27.8467L29.4 32.7967V95.0467H29.55ZM21 92.0467H26.55V34.1467L23.85 31.7467L21.15 34.1467V92.0467H21Z" fill="#443401"/>
<path d="M53.2492 95.0467H41.6992V32.7967L47.3992 27.8467L53.0992 32.7967V95.0467H53.2492ZM44.6992 92.0467H50.2492V34.1467L47.5492 31.7467L44.8492 34.1467V92.0467H44.6992Z" fill="#443401"/>
<path d="M76.9504 95.0467H65.4004V32.7967L71.1004 27.8467L76.8004 32.7967V95.0467H76.9504ZM68.4004 92.0467H73.9504V34.1467L71.2504 31.7467L68.5504 34.1467V92.0467H68.4004Z" fill="#443401"/>
<path d="M100.65 95.0467H89.0996V32.7967L94.7996 27.8467L100.5 32.7967V95.0467H100.65ZM92.2496 92.0467H97.7996V34.1467L95.0996 31.7467L92.3996 34.1467V92.0467H92.2496Z" fill="#443401"/>
<path d="M42.6 53.0469H28.5V56.0469H42.6V53.0469Z" fill="#443401"/>
<path d="M66.2992 53.0469H52.1992V56.0469H66.2992V53.0469Z" fill="#443401"/>
<path d="M90.1508 53.0469H76.0508V56.0469H90.1508V53.0469Z" fill="#443401"/>
<path d="M42.6 80.4971H28.5V83.4971H42.6V80.4971Z" fill="#443401"/>
<path d="M66.2992 80.4971H52.1992V83.4971H66.2992V80.4971Z" fill="#443401"/>
<path d="M90.1508 80.4971H76.0508V83.4971H90.1508V80.4971Z" fill="#443401"/>
</g>
</svg>
