<svg width="90" height="166" viewBox="0 0 90 166" fill="none" xmlns="http://www.w3.org/2000/svg">
<path opacity="0.3" d="M89.675 161.09C89.675 163.7 89.18 165.005 88.19 165.005C87.56 165.005 87.065 164.645 86.705 163.925C86.345 163.205 86.03 162.08 85.76 160.55C85.13 157.04 84.095 154.52 82.655 152.99C81.125 151.37 78.785 150.56 75.635 150.56L14.885 150.56C11.735 150.56 9.48499 151.235 8.13499 152.585C6.695 153.845 5.66 156.185 5.02999 159.605C4.49 162.575 3.59 164.06 2.33 164.06C1.33999 164.06 0.844992 162.755 0.844992 160.145C0.844992 156.725 0.934993 152.585 1.115 147.725L1.24999 136.25L1.11499 117.755L0.84499 106.28C0.844989 104.75 1.24999 103.94 2.05999 103.85C2.77999 103.67 4.75999 103.31 7.99999 102.77C11.24 102.14 13.895 101.825 15.965 101.825C17.315 101.825 17.99 102.455 17.99 103.715C17.99 104.165 17.9 104.48 17.72 104.66C17.54 104.84 17.18 105.02 16.64 105.2C16.19 105.38 15.02 105.74 13.13 106.28C11.24 106.82 9.935 107.45 9.21499 108.17C6.78499 110.33 5.56999 113.345 5.56999 117.215L5.56999 134.9C5.56999 135.8 6.01999 136.835 6.91999 138.005C7.72999 139.175 8.71999 139.76 9.89 139.76L38.51 139.76C39.32 139.76 40.04 139.535 40.67 139.085C41.21 138.545 41.48 137.96 41.48 137.33L41.48 123.965C41.48 121.445 41.03 119.69 40.13 118.7C39.23 117.71 37.475 116.855 34.865 116.135C32.885 115.595 31.895 114.785 31.895 113.705C31.895 113.345 32.12 112.985 32.57 112.625C32.93 112.175 33.425 111.95 34.055 111.95L37.565 112.085L43.505 112.355L50.66 112.22L53.9 112.085C55.43 112.085 56.195 112.49 56.195 113.3C56.195 114.65 54.755 115.685 51.875 116.405C49.715 116.945 48.185 117.71 47.285 118.7C46.295 119.6 45.8 120.905 45.8 122.615L45.8 135.17C45.8 136.88 46.025 138.095 46.475 138.815C46.925 139.445 47.87 139.76 49.31 139.76L75.23 139.76C78.56 139.76 80.9 139.085 82.25 137.735C83.6 136.295 84.275 134 84.275 130.85L84.275 120.86C84.275 117.89 84.095 115.46 83.735 113.57C83.375 111.59 82.79 109.925 81.98 108.575C81.08 107.225 79.865 106.01 78.335 104.93C76.715 103.76 74.465 102.41 71.585 100.88C70.415 100.25 69.83 99.62 69.83 98.99C69.83 97.82 70.46 97.235 71.72 97.235C72.89 97.235 75.365 97.73 79.145 98.72C82.835 99.71 85.58 100.61 87.38 101.42C87.56 101.51 87.875 101.645 88.325 101.825C88.775 102.005 89.09 102.23 89.27 102.5C89.54 102.68 89.675 102.95 89.675 103.31C89.675 105.11 89.54 113.03 89.27 127.07C89 133.28 88.865 139.445 88.865 145.565C88.865 148.085 89 150.425 89.27 152.585C89.54 157.175 89.675 160.01 89.675 161.09ZM89.675 85.6988C89.675 88.3088 89.18 89.6138 88.19 89.6138C87.56 89.6138 87.065 89.2538 86.705 88.5338C86.345 87.8138 86.03 86.6888 85.76 85.1588C85.13 81.7388 84.095 79.3988 82.655 78.1388C81.125 76.7888 78.695 76.1138 75.365 76.1138L14.615 76.1138C11.555 76.1138 9.34999 76.7888 7.99999 78.1388C6.64999 79.3988 5.65999 81.7388 5.02999 85.1588C4.48999 88.1288 3.58999 89.6138 2.32999 89.6138C1.33999 89.6138 0.844989 88.3088 0.844989 85.6988L0.979995 77.3288C1.06999 75.9788 1.11499 73.7288 1.11499 70.5788C1.11499 68.0588 1.06999 66.3038 0.979994 65.3138L0.844987 57.4838C0.844987 54.8738 1.33999 53.5688 2.32999 53.5688C3.58999 53.5688 4.48999 55.0538 5.02999 58.0238C5.56999 61.1738 6.55999 63.1988 7.99999 64.0988C9.43999 64.9088 11.645 65.3138 14.615 65.3138L39.86 65.3138C41.57 65.3138 42.425 65.0888 42.425 64.6388C42.425 64.1888 42.2 63.6038 41.75 62.8838C41.21 62.1638 40.625 61.5338 39.995 60.9938L12.455 33.9938C11.105 32.6438 9.75499 31.9688 8.40499 31.9688C7.68499 31.9688 7.05499 32.1938 6.51499 32.6438C5.88499 33.0938 5.47999 33.7238 5.29999 34.5338C4.84999 36.0638 4.44499 37.1438 4.08499 37.7738C3.72499 38.4038 3.22999 38.7188 2.59999 38.7188C1.60999 38.7188 1.11499 37.4138 1.11499 34.8038L1.11499 27.5138C1.11499 25.4438 0.979989 19.6838 0.709987 10.2338L0.574989 5.64382C0.574989 4.74382 0.70999 4.02382 0.979991 3.48382C1.24999 2.94382 1.60999 2.67382 2.05999 2.67382C3.31999 2.67382 4.21999 4.15882 4.75999 7.12882C6.28999 15.5888 9.25999 22.4288 13.67 27.6488C17.72 32.5088 21.635 36.8738 25.415 40.7438C29.195 44.5238 33.695 48.7988 38.915 53.5688C39.095 53.7488 39.32 53.8388 39.59 53.8388C40.13 53.8388 40.715 53.5238 41.345 52.8938L76.175 20.2238C79.685 17.0738 81.98 14.7338 83.06 13.2038C84.05 11.6738 84.95 9.06382 85.76 5.37382C86.12 3.75382 86.48 2.62882 86.84 1.99882C87.2 1.27882 87.65 0.918819 88.19 0.918819C89.18 0.918819 89.675 2.22382 89.675 4.83382C89.675 8.43382 89.54 11.6738 89.27 14.5538C89.09 18.1538 89 21.1688 89 23.5988L89 27.3788C89.09 28.5488 89.135 30.9338 89.135 34.5338C89.135 37.1438 88.64 38.4488 87.65 38.4488C87.02 38.4488 86.57 38.1788 86.3 37.6388C85.94 37.0988 85.625 36.1538 85.355 34.8038C84.725 32.2838 83.825 31.0238 82.655 31.0238C81.935 31.0238 80.81 31.6988 79.28 33.0488L47.69 61.6688C46.16 63.1988 45.395 64.2338 45.395 64.7738C45.395 65.1338 46.025 65.3138 47.285 65.3138C52.775 65.3138 61.73 65.0888 74.15 64.6388C77.39 64.4588 80 63.7838 81.98 62.6138C83.96 61.3538 85.22 59.1488 85.76 55.9988C86.03 54.4688 86.345 53.3438 86.705 52.6238C87.065 51.9038 87.56 51.5438 88.19 51.5438C89.18 51.5438 89.675 52.8488 89.675 55.4588C89.675 58.3388 89.495 60.9488 89.135 63.2888C88.865 64.9088 88.73 66.7088 88.73 68.6888C88.73 70.2188 88.82 71.7938 89 73.4138C89.09 74.9438 89.135 76.0688 89.135 76.7888C89.495 80.2088 89.675 83.1788 89.675 85.6988Z" fill="#D6B292"/>
</svg>
