<svg width="70" height="51" viewBox="0 0 70 51" fill="none" xmlns="http://www.w3.org/2000/svg">
<path d="M14.0385 50.875C9.80769 50.875 6.41026 49.569 3.84615 46.9571C1.28205 44.2208 0 40.6138 0 36.1362C0 28.0516 2.69231 21.1486 8.07692 15.4272C13.4615 9.58146 20.0641 4.73072 27.8846 0.875L30.5769 4.60634C27.3718 6.59639 24.359 9.08396 21.5385 12.069C18.7179 14.9297 16.5385 18.1014 15 21.584L20.1923 25.3153C22.2436 26.8078 23.9103 28.6735 25.1923 30.9123C26.4744 33.0267 27.1154 35.1412 27.1154 37.2556C27.1154 41.1113 25.8333 44.3451 23.2692 46.9571C20.8333 49.569 17.7564 50.875 14.0385 50.875ZM53.4615 50.875C49.2308 50.875 45.8333 49.569 43.2692 46.9571C40.7051 44.2208 39.4231 40.6138 39.4231 36.1362C39.4231 28.0516 42.1154 21.1486 47.5 15.4272C52.8846 9.58146 59.4872 4.73072 67.3077 0.875L70 4.60634C66.7949 6.59639 63.7821 9.08396 60.9615 12.069C58.141 14.9297 55.9615 18.1014 54.4231 21.584L59.6154 25.3153C61.6667 26.8078 63.3333 28.6735 64.6154 30.9123C65.8974 33.0267 66.5385 35.1412 66.5385 37.2556C66.5385 41.1113 65.2564 44.3451 62.6923 46.9571C60.2564 49.569 57.1795 50.875 53.4615 50.875Z" fill="#D6B292"/>
</svg>
