<svg width="120" height="121" viewBox="0 0 120 121" fill="none" xmlns="http://www.w3.org/2000/svg">
<mask id="mask0_9_235" style="mask-type:alpha" maskUnits="userSpaceOnUse" x="0" y="0" width="120" height="121">
<rect y="0.875" width="120" height="120" fill="#C4C4C4"/>
</mask>
<g mask="url(#mask0_9_235)">
</g>
<g clip-path="url(#clip0_9_235)">
<path d="M44.999 24.4036L41.999 41.9036H54.7746L32.999 66.9036L35.999 48.9036H23.999L44.999 24.4036ZM51.3165 11.8124L42.1176 22.6038L22.3869 45.8118L17.0742 52.0485H32.3556L29.9526 64.7676L27.3243 78.734L36.5044 67.9238L56.2351 44.7345L61.5479 38.4979H46.2665L48.6882 25.7599L51.3353 11.7935L51.3165 11.8124Z" fill="#443401"/>
<path d="M83.9269 102.339C79.4972 102.334 75.2503 100.56 72.118 97.4066C68.9856 94.2533 67.2237 89.9779 67.2188 85.5184C67.2188 71.1929 82.2373 60.3827 82.8381 59.9291L83.9457 59.1353L85.0346 59.9479C85.6729 60.4015 100.616 71.552 100.616 85.5184C100.616 89.9761 98.8586 94.2516 95.7293 97.4054C92.6 100.559 88.355 102.334 83.9269 102.339ZM83.9269 63.86C80.6229 66.5437 70.9922 75.1995 70.9922 85.5184C70.9259 87.2714 71.2116 89.0199 71.8322 90.6591C72.4528 92.2984 73.3956 93.7947 74.6042 95.0585C75.8127 96.3223 77.2621 97.3278 78.8656 98.0145C80.4691 98.7012 82.1938 99.0552 83.9363 99.0552C85.6789 99.0552 87.4036 98.7012 89.0071 98.0145C90.6106 97.3278 92.06 96.3223 93.2685 95.0585C94.477 93.7947 95.4199 92.2984 96.0405 90.6591C96.6611 89.0199 96.9468 87.2714 96.8805 85.5184C96.8617 75.4641 87.2122 66.6004 83.9081 63.8979L83.9269 63.86Z" fill="#443401"/>
<path d="M100.092 9.81059L98.9648 11.2021L101.875 13.5906L103.002 12.199L100.092 9.81059Z" fill="#443401"/>
<path d="M26.5745 108.632L23.5332 106.402C24.1527 105.552 24.866 104.512 25.6733 103.51L28.677 105.778C27.8886 106.837 27.1752 107.782 26.5745 108.632ZM30.8172 102.962L27.8322 100.657L30.01 97.8219L32.9761 100.127L30.8172 102.962ZM35.1538 97.2926L32.2064 94.9681L34.384 92.1332L37.3502 94.4767L35.1538 97.2926ZM39.5467 91.6229L36.5806 89.2794L38.7958 86.4824L41.7432 88.8259L39.5467 91.6229ZM43.9397 85.9532L40.9923 83.6097L43.2075 80.8127L46.1361 83.1561L43.9397 85.9532ZM48.3513 80.2834L45.4227 77.9211L47.6379 75.124L50.5665 77.4864L48.3513 80.2834ZM52.7818 74.6137L49.8531 72.2703L52.0685 69.4732L54.9971 71.8356L52.7818 74.6137ZM57.2123 69.0385L54.3588 66.9218L56.5928 64.1248L59.5214 66.4871L57.2123 69.0385ZM61.6616 63.3687L58.7329 61.0064L60.967 58.2093L63.8956 60.5717L61.6616 63.3687ZM66.1108 57.7936L63.201 55.4123L65.4162 52.653L68.3448 55.0154L66.1108 57.7936ZM70.56 52.2373L67.6502 49.856L69.8654 47.0777L72.794 49.4401L70.56 52.2373ZM75.0281 46.5676L72.0994 44.2052L74.3335 41.408L77.2621 43.7893L75.0281 46.5676ZM79.4961 41.0112L76.5675 38.6299L78.8203 35.8517L81.7301 38.233L79.4961 41.0112ZM83.9641 35.4549L81.0542 33.0736L83.2882 30.2954L86.1981 32.6767L83.9641 35.4549ZM88.4321 29.8985L85.5222 27.9897L87.7562 25.2116L90.6848 27.5928L88.4321 29.8985ZM92.9189 24.3422L90.0278 22.32L92.2618 19.5419L95.1905 21.9231L92.9189 24.3422ZM97.4057 18.7859L94.4958 16.4046L96.7487 13.6265L99.6585 16.0077L97.4057 18.7859Z" fill="#443401"/>
<path d="M20.7362 112.903C19.929 111.694 20.7363 110.503 21.5623 109.237L24.6786 111.316C24.4442 111.634 24.2429 111.976 24.0778 112.336C24.1553 112.074 24.1753 111.798 24.1364 111.527C24.0975 111.256 24.0007 110.997 23.8525 110.768L20.7362 112.903Z" fill="#443401"/>
</g>
<defs>
<clipPath id="clip0_9_235">
<rect width="86" height="103" fill="white" transform="translate(17 9.90332)"/>
</clipPath>
</defs>
</svg>
