<svg width="120" height="121" viewBox="0 0 120 121" fill="none" xmlns="http://www.w3.org/2000/svg">
<mask id="mask0_9_228" style="mask-type:alpha" maskUnits="userSpaceOnUse" x="0" y="0" width="120" height="121">
<rect y="0.875" width="120" height="120" fill="#C4C4C4"/>
</mask>
<g mask="url(#mask0_9_228)">
<path d="M78.75 86.525H7.5L38.85 35.375H49.8V38.375H40.65L12.9 83.525H77.1L105.6 38.375H73.05V35.375H111L78.75 86.525Z" fill="#443401"/>
<path d="M49.0508 72.1252H46.0508C46.0508 71.3752 46.0508 49.3252 46.0508 49.3252H49.0508C49.0508 49.3252 49.0508 71.3752 49.0508 72.1252Z" fill="#443401"/>
<path d="M75.4492 72.1252H72.4492C72.4492 71.3752 72.4492 49.3252 72.4492 49.3252H75.4492C75.4492 49.3252 75.4492 71.3752 75.4492 72.1252Z" fill="#443401"/>
<path d="M41.5508 54.1246L40.0508 51.4246L60.9008 38.9746L80.7008 50.8246L79.2008 53.3746L60.9008 42.4246L41.5508 54.1246Z" fill="#443401"/>
</g>
</svg>
