<svg width="120" height="121" viewBox="0 0 120 121" fill="none" xmlns="http://www.w3.org/2000/svg">
<mask id="mask0_9_271" style="mask-type:alpha" maskUnits="userSpaceOnUse" x="0" y="0" width="120" height="121">
<rect y="0.875" width="120" height="120" fill="#C4C4C4"/>
</mask>
<g mask="url(#mask0_9_271)">
<path d="M38.1 65.675H13.5L25.8 18.875L38.1 65.675ZM17.4 62.675H34.2L25.8 30.725L17.4 62.675Z" fill="#443401"/>
<path d="M27.9004 64.9248H24.9004V73.3248H27.9004V64.9248Z" fill="#443401"/>
<path d="M106.049 79.4748H81.4492L93.7492 32.6748L106.049 79.4748ZM85.3492 76.4748H102.149L93.7492 44.5248L85.3492 76.4748Z" fill="#443401"/>
<path d="M95.8496 78.7246H92.8496V87.1246H95.8496V78.7246Z" fill="#443401"/>
<path d="M56.8494 103.175C54.8994 102.125 37.0494 92.6754 37.3494 82.9254C37.3494 77.6754 39.8994 73.9254 45.5994 70.7754C50.9994 67.7754 50.9995 66.5754 50.9995 64.3254C50.9995 63.1254 49.3494 61.3254 46.0494 59.3754C45.8994 59.2254 45.5994 59.0754 45.5994 59.0754L47.2495 56.5254C47.3995 56.5254 47.5494 56.6754 47.6994 56.8254C49.4994 58.0254 53.9995 60.8754 53.9995 64.3254C54.1495 67.9254 53.3994 70.0254 47.0994 73.4754C41.5494 76.6254 40.3494 79.6254 40.3494 83.0754C40.1994 89.8254 53.2494 98.0754 58.1994 100.625L56.8494 103.175Z" fill="#443401"/>
<path d="M86.2508 94.6252C82.0508 92.2252 70.9508 85.1752 68.8508 82.6252C66.0008 79.3252 65.4008 75.8752 67.0508 72.2752C67.9508 70.1752 69.3008 66.1252 67.2008 62.5252C65.8508 60.2752 60.1508 56.9752 57.4508 55.3252C55.9508 54.4252 55.3508 54.1252 55.0508 53.8252L57.0008 51.5752C57.1508 51.7252 58.2008 52.3252 58.9508 52.7752C62.2508 54.7252 67.9508 58.0252 69.7508 61.0252C71.8508 64.6252 72.0008 69.1252 69.9008 73.6252C68.8508 76.0252 69.1508 78.2752 71.2508 80.6752C72.9008 82.7752 83.2508 89.3752 87.9008 92.0752L86.2508 94.6252Z" fill="#443401"/>
</g>
</svg>
