<svg width="120" height="121" viewBox="0 0 120 121" fill="none" xmlns="http://www.w3.org/2000/svg">
<mask id="mask0_9_218" style="mask-type:alpha" maskUnits="userSpaceOnUse" x="0" y="0" width="120" height="121">
<rect y="0.875" width="120" height="120" fill="#C4C4C4"/>
</mask>
<g mask="url(#mask0_9_218)">
<path d="M104.4 93.8754C99.4504 93.8754 96.7504 91.7754 94.5004 89.8254C92.2504 88.0254 90.4504 86.5254 86.5504 86.5254C82.6504 86.5254 80.7004 88.0254 78.6004 89.8254C76.2004 91.7754 73.6504 93.8754 68.7004 93.8754C63.7504 93.8754 61.0504 91.7754 58.8004 89.8254C56.5504 88.0254 54.7504 86.5254 50.8504 86.5254C46.9504 86.5254 45.0004 88.0254 42.9004 89.8254C40.6504 91.6254 37.9504 93.8754 33.0004 93.8754C28.0504 93.8754 25.3504 91.7754 23.1004 89.8254C20.8504 88.0254 19.0504 86.5254 15.1504 86.5254V83.5254C20.1004 83.5254 22.8004 85.6254 25.0504 87.5754C27.3004 89.3754 29.1004 90.8754 33.0004 90.8754C36.9004 90.8754 38.8504 89.3754 40.9504 87.5754C43.2004 85.7754 45.9004 83.5254 50.8504 83.5254C55.8004 83.5254 58.5004 85.6254 60.7504 87.5754C62.8504 89.3754 64.6504 90.8754 68.7004 90.8754C72.6004 90.8754 74.5504 89.3754 76.6504 87.5754C78.9004 85.7754 81.6004 83.5254 86.5504 83.5254C91.5004 83.5254 94.2004 85.6254 96.4504 87.5754C98.7004 89.3754 100.5 90.8754 104.4 90.8754V93.8754Z" fill="#443401"/>
<path d="M104.4 76.1752C99.4504 76.1752 96.7504 74.0752 94.5004 72.1252C92.2504 70.3252 90.4504 68.8252 86.5504 68.8252C82.6504 68.8252 80.7004 70.3252 78.6004 72.1252C76.3504 73.9252 73.6504 76.1752 68.7004 76.1752C63.7504 76.1752 61.0504 74.0752 58.8004 72.1252C56.5504 70.3252 54.7504 68.8252 50.8504 68.8252C46.9504 68.8252 45.0004 70.3252 42.9004 72.1252C40.6504 73.9252 37.9504 76.1752 33.0004 76.1752C28.0504 76.1752 25.3504 74.0752 23.1004 72.1252C20.8504 70.3252 19.0504 68.8252 15.1504 68.8252V65.8252C20.1004 65.8252 22.8004 67.9252 25.0504 69.8752C27.3004 71.6752 29.1004 73.1752 33.0004 73.1752C36.9004 73.1752 38.8504 71.6752 40.9504 69.8752C43.2004 68.0752 45.9004 65.8252 50.8504 65.8252C55.8004 65.8252 58.5004 67.9252 60.7504 69.8752C63.0004 71.6752 64.8004 73.1752 68.7004 73.1752C72.6004 73.1752 74.5504 71.6752 76.6504 69.8752C78.9004 68.0752 81.6004 65.8252 86.5504 65.8252C91.5004 65.8252 94.2004 67.9252 96.4504 69.8752C98.7004 71.6752 100.5 73.1752 104.4 73.1752V76.1752Z" fill="#443401"/>
<path d="M104.4 56.8246C99.4504 56.8246 96.7504 54.7246 94.5004 52.7746C92.2504 50.9746 90.4504 49.4746 86.5504 49.4746C82.6504 49.4746 80.7004 50.9746 78.6004 52.7746C76.3504 54.5746 73.6504 56.8246 68.7004 56.8246C63.7504 56.8246 61.0504 54.7246 58.8004 52.7746C56.5504 50.9746 54.7504 49.4746 50.8504 49.4746C46.9504 49.4746 45.0004 50.9746 42.9004 52.7746C40.6504 54.5746 37.9504 56.8246 33.0004 56.8246C28.0504 56.8246 25.3504 54.7246 23.1004 52.7746C20.8504 50.9746 19.0504 49.4746 15.1504 49.4746V46.4746C20.1004 46.4746 22.8004 48.5746 25.0504 50.5246C27.3004 52.3246 29.1004 53.8246 33.0004 53.8246C36.9004 53.8246 38.8504 52.3246 40.9504 50.5246C43.2004 48.7246 45.9004 46.4746 50.8504 46.4746C55.8004 46.4746 58.5004 48.5746 60.7504 50.5246C63.0004 52.3246 64.8004 53.8246 68.7004 53.8246C72.6004 53.8246 74.5504 52.3246 76.6504 50.5246C78.9004 48.7246 81.6004 46.4746 86.5504 46.4746C91.5004 46.4746 94.2004 48.5746 96.4504 50.5246C98.7004 52.3246 100.5 53.8246 104.4 53.8246V56.8246Z" fill="#443401"/>
<path d="M104.4 38.225C99.45 38.225 96.75 36.125 94.5 34.175C92.4 32.375 90.45 30.875 86.55 30.875C82.65 30.875 80.7 32.375 78.6 34.175C76.35 35.975 73.65 38.225 68.7 38.225C63.75 38.225 61.05 36.125 58.8 34.175C56.55 32.375 54.75 30.875 50.7 30.875C46.8 30.875 44.85 32.375 42.75 34.175C40.5 35.975 37.8 38.225 32.85 38.225C27.9 38.225 25.2 36.125 22.95 34.175C20.85 32.375 18.9 30.875 15 30.875V27.875C19.95 27.875 22.65 29.975 24.9 31.925C27.15 33.725 28.95 35.225 32.85 35.225C36.75 35.225 38.7 33.725 40.8 31.925C43.2 29.975 45.75 27.875 50.7 27.875C55.65 27.875 58.35 29.975 60.6 31.925C62.85 33.725 64.65 35.225 68.55 35.225C72.45 35.225 74.4 33.725 76.5 31.925C78.75 30.125 81.45 27.875 86.4 27.875C91.35 27.875 94.05 29.975 96.3 31.925C98.55 33.725 100.35 35.225 104.25 35.225V38.225H104.4Z" fill="#443401"/>
</g>
</svg>
