<svg width="120" height="121" viewBox="0 0 120 121" fill="none" xmlns="http://www.w3.org/2000/svg">
<mask id="mask0_9_280" style="mask-type:alpha" maskUnits="userSpaceOnUse" x="0" y="0" width="120" height="121">
<rect y="0.875" width="120" height="120" fill="#C4C4C4"/>
</mask>
<g mask="url(#mask0_9_280)">
<path d="M34.05 95.8248L33.15 95.2248C32.4 94.7748 16.5 82.9248 16.5 68.2248C16.5 58.6248 24.3 50.6748 34.05 50.6748C43.8 50.6748 51.6 58.4748 51.6 68.2248C51.6 83.3748 35.7 94.7748 34.95 95.2248L34.05 95.8248ZM34.05 53.6748C26.1 53.6748 19.5 60.1248 19.5 68.2248C19.5 79.6248 30.75 89.5248 34.05 92.0748C37.35 89.5248 48.6 79.7748 48.6 68.2248C48.6 60.1248 42 53.6748 34.05 53.6748Z" fill="#443401"/>
<path d="M34.0493 76.1746C29.5493 76.1746 25.9492 72.5746 25.9492 68.0746C25.9492 63.5746 29.5493 59.9746 34.0493 59.9746C38.5493 59.9746 42.1492 63.5746 42.1492 68.0746C42.1492 72.5746 38.5493 76.1746 34.0493 76.1746ZM34.0493 62.9746C31.1993 62.9746 28.9492 65.2246 28.9492 68.0746C28.9492 70.9246 31.1993 73.1746 34.0493 73.1746C36.8993 73.1746 39.1492 70.9246 39.1492 68.0746C39.1492 65.2246 36.8993 62.9746 34.0493 62.9746Z" fill="#443401"/>
<path d="M84.6008 61.025L83.7007 60.425C82.9507 59.975 67.0508 48.125 67.0508 33.425C67.0508 23.825 74.8508 15.875 84.6008 15.875C94.3508 15.875 102.151 23.675 102.151 33.425C102.151 48.575 86.2508 59.975 85.5008 60.425L84.6008 61.025ZM84.6008 19.025C76.6508 19.025 70.0508 25.475 70.0508 33.575C70.0508 44.975 81.3008 54.875 84.6008 57.425C87.9008 54.875 99.1507 45.125 99.1507 33.575C99.1507 25.475 92.5508 19.025 84.6008 19.025Z" fill="#443401"/>
<path d="M84.6 41.5252C80.1 41.5252 76.5 37.9252 76.5 33.4252C76.5 28.9252 80.1 25.3252 84.6 25.3252C89.1 25.3252 92.7 28.9252 92.7 33.4252C92.7 37.9252 89.1 41.5252 84.6 41.5252ZM84.6 28.3252C81.75 28.3252 79.5 30.5752 79.5 33.4252C79.5 36.2752 81.75 38.5252 84.6 38.5252C87.45 38.5252 89.7 36.2752 89.7 33.4252C89.7 30.5752 87.45 28.3252 84.6 28.3252Z" fill="#443401"/>
<path d="M39.1507 102.875C37.8007 102.275 36.6008 101.525 35.5508 100.925L37.2007 98.375C38.1007 98.975 39.3008 99.575 40.5008 100.175L39.1507 102.875Z" fill="#443401"/>
<path d="M52.95 106.175C50.4 106.175 47.7 105.725 45 104.975L45.75 102.125C48.3 102.875 50.7 103.175 52.95 103.175L53.1 106.175H52.95ZM59.4 105.125L58.35 102.275C60.45 101.525 62.25 100.325 63.6 98.6748C63.75 98.5248 63.75 98.3748 63.9 98.2248L66.3 100.025C66.15 100.175 66 100.325 65.85 100.625C64.35 102.725 62.1 104.225 59.4 105.125ZM68.85 93.8748L65.85 93.4248C66 92.5248 66 91.6248 66 90.5748C66 89.2248 65.85 87.7248 65.7 85.9248L68.7 85.6248C69 87.5748 69 89.2248 69 90.5748C69.15 91.7748 69 92.9748 68.85 93.8748ZM64.95 80.0748C64.8 78.4248 64.65 77.0748 64.65 75.8748C64.65 74.2248 64.8 72.8748 65.1 71.6748L67.95 72.4248C67.65 73.4748 67.5 74.5248 67.5 75.8748C67.5 76.9248 67.65 78.1248 67.8 79.7748L64.95 80.0748ZM70.65 68.3748L68.85 65.9748C70.8 64.4748 73.35 63.4248 76.65 62.6748L77.25 65.6748C74.4 66.2748 72.3 67.1748 70.65 68.3748Z" fill="#443401"/>
<path d="M82.9507 65.0748L82.8008 62.0748C84.0008 62.0748 85.3508 61.9248 86.8508 61.9248V64.9248C85.5008 64.9248 84.1507 64.9248 82.9507 65.0748Z" fill="#443401"/>
</g>
</svg>
