<svg width="165" height="194" viewBox="0 0 165 194" fill="none" xmlns="http://www.w3.org/2000/svg">
<path d="M122.034 25.4834L120.344 27.5282C125.924 35.4712 128.869 44.8 128.869 54.5728C128.869 65.5958 125.017 76.2402 118 84.6787L119.436 86.9524C127.174 77.9555 131.432 66.4745 131.432 54.5728C131.434 44.0335 128.184 33.9826 122.034 25.4834Z" fill="white"/>
<path d="M78.1626 65.9956L78.5147 64.7757C85.4779 43.9752 106.694 21.6534 122.568 16.2039L122.71 16.0566C92.6137 24.2894 77.2251 45.9312 69.8002 68.1104L69.6836 68.5895L78.1626 65.9956Z" fill="white"/>
<path d="M110.955 79.7029C96.597 72.8395 78.2912 68.8458 62.5388 67.9531L51.7441 67.3408L52.017 67.9461C56.8231 78.5648 64.8381 87.4029 74.9285 93.2076H118.408C115.358 89.0924 112.839 84.5565 110.955 79.7029Z" fill="white"/>
<path d="M100.779 97.2111C95.1002 99.6251 88.9485 100.889 82.7315 100.889C57.2782 100.889 36.5681 80.1379 36.5681 54.6287C36.5681 29.1194 57.2759 8.36795 82.7315 8.36795C91.4484 8.36795 99.8784 10.796 107.21 15.4019C108.078 14.9743 108.961 14.5607 109.862 14.1587L109.883 14.126C101.844 8.7068 92.4558 5.8418 82.7292 5.8418C55.8837 5.8418 34.0449 27.7289 34.0449 54.6287C34.0449 81.5284 55.886 103.416 82.7292 103.416C91.0543 103.416 99.2721 101.273 106.492 97.2181L106.487 97.2088H100.779V97.2111Z" fill="white"/>
<path d="M105.503 58.9243C105.503 41.2552 113.404 25.4392 125.854 14.8205L125.901 14.6826C107.416 24.6751 89.4712 44.5525 82.7901 64.507L82.6152 65.2011L105.573 60.2142C105.527 59.2561 105.503 59.8941 105.503 58.9243Z" fill="white"/>
<path d="M31.1855 166.153V166.602H19.1619V166.153L20.9155 165.961C23.0213 165.707 23.3711 165.258 22.0628 163.405L16.4498 155.158L13.6421 157.906V162.828C13.6421 165.193 13.9919 165.737 15.9694 165.929L17.9143 166.153V166.602H5.83008V166.153L7.84023 165.929C9.81773 165.737 10.2002 165.193 10.2002 162.828V147.998C10.2002 145.633 9.78508 145.088 7.84023 144.897L5.83008 144.677V144.229H17.9819V144.677L15.9718 144.902C14.1528 145.093 13.6445 145.638 13.6445 148.003V156.95L21.235 149.44C24.0427 146.626 24.3295 145.381 21.3632 144.965L19.4814 144.677V144.229H30.9639V144.677L29.4318 144.965C26.6894 145.509 24.7446 147.009 21.7457 149.919L18.8424 152.793L25.4442 162.765C26.8807 164.905 27.8368 165.609 29.7816 165.929L31.1855 166.153Z" fill="white"/>
<path d="M57.2263 166.153V166.602H45.0115V166.153L47.3388 165.929C49.3163 165.738 49.5705 165.13 48.8056 162.702L47.7539 159.379H40.737L40.1307 161.136C38.9834 164.525 39.62 165.516 42.0756 165.866L44.1487 166.153V166.602H33.1465V166.153L34.6762 165.899C37.386 165.42 38.1532 164.525 39.4288 160.849L45.4242 143.846H46.0306L52.3129 162.702C53.1104 165.13 53.5884 165.674 55.5659 165.929L57.2263 166.153ZM47.5627 158.739L45.9373 153.53C45.268 151.293 44.8856 150.015 44.5008 148.48L40.9609 158.739H47.5627Z" fill="white"/>
<path d="M81.0507 160.209V163.597C81.0507 165.675 80.0946 166.92 78.1474 166.92C76.3308 166.92 75.1182 165.738 74.8943 163.022L74.7031 160.209C74.3836 156.341 73.0451 155.766 70.3983 155.766H67.3364V162.828C67.3364 165.193 67.7515 165.705 69.6964 165.929L71.7695 166.154V166.602H59.5547V166.154L61.5648 165.929C63.5423 165.738 63.9248 165.226 63.9248 162.828V147.999C63.9248 145.634 63.5423 145.089 61.5648 144.898L59.5547 144.673V144.225H70.972C76.6176 144.225 79.5512 146.398 79.5512 149.625C79.5512 152.661 77.0327 154.867 72.9168 155.313V155.442C76.6153 156.975 77.8606 158.381 78.2756 161.482L78.5625 163.656C78.7211 164.805 78.9449 165.221 79.4556 165.221C79.9663 165.221 80.2205 164.773 80.3488 163.56L80.6029 160.204H81.0507V160.209ZM70.4636 155.128C73.9079 155.096 75.6312 153.338 75.6312 149.887C75.6312 146.307 73.9405 144.87 70.5289 144.87H69.5728C68.0104 144.87 67.3411 145.253 67.3411 147.171V155.161L70.4636 155.128Z" fill="white"/>
<path d="M117.599 144.229V144.677L116.165 144.965C113.423 145.509 112.625 146.243 111.413 149.952L105.8 166.987H105.226L100.252 149.185L94.4453 166.985H93.8716L88.641 148.129C87.9391 145.635 87.3328 145.156 85.3553 144.902L83.6973 144.677V144.229H94.8907V144.677L93.4565 144.902C91.542 145.189 91.479 145.638 92.0853 148.129L94.317 157.429C94.795 159.378 95.0516 160.465 95.4014 162.064L99.867 147.841C99.1978 145.605 98.5915 145.189 96.7422 144.869L95.4666 144.677V144.229H106.343V144.677L104.909 144.902C102.931 145.189 102.803 145.638 103.409 148.129L105.641 157.429C106.119 159.378 106.406 160.498 106.758 162.064L110.68 149.664C111.732 146.341 111.191 145.413 108.735 144.967L107.077 144.68V144.231H117.599V144.229Z" fill="white"/>
<path d="M120.758 166.154L122.768 165.93C124.745 165.738 125.128 165.193 125.128 162.828V147.999C125.128 145.634 124.745 145.089 122.768 144.898L120.758 144.673V144.225H132.91V144.673L130.899 144.898C129.081 145.089 128.572 145.634 128.572 147.999V162.828C128.572 165.193 128.922 165.738 130.899 165.93L132.91 166.154V166.603H120.758V166.154Z" fill="white"/>
<path d="M159.17 166.153V166.602H146.955V166.153L149.282 165.929C151.26 165.738 151.514 165.13 150.749 162.702L149.697 159.379H142.68L142.074 161.136C140.927 164.525 141.563 165.516 144.019 165.866L146.092 166.153V166.602H135.09V166.153L136.62 165.899C139.329 165.42 140.097 164.525 141.372 160.849L147.368 143.846H147.974L154.256 162.702C155.054 165.13 155.532 165.674 157.509 165.929L159.17 166.153ZM149.506 158.739L147.881 153.53C147.211 151.293 146.829 150.015 146.446 148.48L142.907 158.739H149.506Z" fill="white"/>
<path d="M46.2107 181.85C46.5768 182.054 46.8613 182.339 47.0688 182.706C47.2764 183.072 47.379 183.495 47.379 183.974C47.379 184.454 47.2764 184.879 47.0688 185.248C46.8613 185.617 46.5768 185.902 46.2107 186.108C45.8446 186.311 45.4318 186.414 44.9724 186.414C44.6203 186.414 44.2961 186.346 44.0023 186.206C43.7085 186.068 43.466 185.867 43.2747 185.603V186.358H42.4492V179.682H43.312V182.308C43.5033 182.056 43.7435 181.867 44.0303 181.738C44.3171 181.61 44.6319 181.544 44.9724 181.544C45.4318 181.546 45.8446 181.647 46.2107 181.85ZM45.721 185.444C45.9635 185.304 46.1547 185.106 46.2946 184.851C46.4345 184.596 46.5068 184.304 46.5068 183.974C46.5068 183.645 46.4369 183.353 46.2946 183.098C46.1547 182.843 45.9635 182.647 45.721 182.509C45.4784 182.371 45.2056 182.301 44.9001 182.301C44.6016 182.301 44.3288 182.369 44.0839 182.509C43.8391 182.647 43.6478 182.843 43.5103 183.098C43.3727 183.353 43.305 183.645 43.305 183.974C43.305 184.304 43.3727 184.596 43.5103 184.851C43.6478 185.106 43.8391 185.304 44.0839 185.444C44.3288 185.585 44.6016 185.655 44.9001 185.655C45.2056 185.657 45.4784 185.587 45.721 185.444Z" fill="white"/>
<path d="M53.5439 181.591L51.2376 186.835C51.0347 187.321 50.7969 187.662 50.524 187.861C50.2512 188.059 49.9247 188.157 49.5423 188.157C49.3091 188.157 49.0829 188.12 48.8637 188.045C48.6445 187.97 48.4649 187.861 48.3203 187.716L48.6888 187.068C48.9336 187.302 49.2181 187.419 49.5423 187.419C49.7521 187.419 49.927 187.363 50.0669 187.253C50.2069 187.143 50.3351 186.952 50.4494 186.683L50.6033 186.351L48.5022 181.591H49.4L51.0604 185.405L52.7021 181.591H53.5439Z" fill="white"/>
<path d="M59.151 186.211C58.7103 186.064 58.3651 185.874 58.1133 185.638L58.4444 184.937C58.6846 185.152 58.9901 185.328 59.3655 185.463C59.7387 185.599 60.1234 185.666 60.5199 185.666C61.0399 185.666 61.4293 185.578 61.6858 185.4C61.9424 185.222 62.0729 184.989 62.0729 184.694C62.0729 184.479 62.003 184.304 61.8607 184.169C61.7208 184.033 61.5459 183.93 61.3407 183.858C61.1355 183.785 60.8417 183.706 60.4662 183.615C59.9928 183.5 59.6127 183.388 59.3212 183.274C59.0321 183.159 58.7826 182.984 58.575 182.748C58.3698 182.512 58.2649 182.192 58.2649 181.79C58.2649 181.453 58.3535 181.152 58.5307 180.881C58.7079 180.612 58.9738 180.395 59.3352 180.233C59.6944 180.072 60.1398 179.99 60.6738 179.99C61.0446 179.99 61.4107 180.039 61.7698 180.135C62.1289 180.231 62.4367 180.369 62.6932 180.549L62.3971 181.269C62.1336 181.1 61.8514 180.974 61.5529 180.885C61.2544 180.796 60.9606 180.754 60.6738 180.754C60.1654 180.754 59.783 180.848 59.5288 181.032C59.2746 181.217 59.1463 181.458 59.1463 181.752C59.1463 181.967 59.2186 182.142 59.3609 182.278C59.5055 182.414 59.6827 182.519 59.8949 182.594C60.1071 182.668 60.3963 182.748 60.7601 182.832C61.2334 182.946 61.6136 183.061 61.9004 183.173C62.1872 183.285 62.4344 183.46 62.6419 183.694C62.8495 183.928 62.9521 184.243 62.9521 184.638C62.9521 184.968 62.8635 185.269 62.6839 185.543C62.5044 185.816 62.2315 186.031 61.8677 186.19C61.5039 186.349 61.0539 186.428 60.5222 186.428C60.0488 186.431 59.5917 186.356 59.151 186.211Z" fill="white"/>
<path d="M69.1663 184.783H65.827L65.1367 186.358H64.2109L67.0559 180.061H67.9444L70.7987 186.358H69.8566L69.1663 184.783ZM68.8515 184.064L67.4967 180.977L66.1418 184.064H68.8515Z" fill="white"/>
<path d="M77.7582 180.061L75.0018 186.358H74.1134L71.3477 180.061H72.3177L74.5798 185.234L76.8604 180.061H77.7582Z" fill="white"/>
<path d="M84.0144 185.576V186.358H79.4531V180.061H83.8885V180.843H80.3509V182.778H83.5014V183.542H80.3509V185.576H84.0144Z" fill="white"/>
<path d="M86.3672 180.061H87.265V186.358H86.3672V180.061Z" fill="white"/>
<path d="M95.4523 180.061V186.358H94.7154L90.9447 181.661V186.358H90.0469V180.061H90.7838L94.5545 184.758V180.061H95.4523Z" fill="white"/>
<path d="M103.631 180.061L100.875 186.358H99.9864L97.2207 180.061H98.1908L100.453 185.234L102.733 180.061H103.631Z" fill="white"/>
<path d="M109.887 185.576V186.358H105.326V180.061H109.762V180.843H106.224V182.778H109.374V183.542H106.224V185.576H109.887Z" fill="white"/>
<path d="M112.702 186.211C112.261 186.064 111.916 185.874 111.664 185.638L111.995 184.937C112.235 185.152 112.541 185.328 112.916 185.463C113.289 185.599 113.674 185.666 114.071 185.666C114.591 185.666 114.98 185.578 115.237 185.4C115.493 185.222 115.624 184.989 115.624 184.694C115.624 184.479 115.554 184.304 115.411 184.169C115.272 184.033 115.097 183.93 114.891 183.858C114.686 183.785 114.392 183.706 114.017 183.615C113.544 183.5 113.164 183.388 112.872 183.274C112.583 183.159 112.333 182.984 112.126 182.748C111.921 182.512 111.816 182.192 111.816 181.79C111.816 181.453 111.904 181.152 112.081 180.881C112.259 180.612 112.525 180.395 112.886 180.233C113.245 180.072 113.691 179.99 114.225 179.99C114.595 179.99 114.961 180.039 115.321 180.135C115.68 180.231 115.987 180.369 116.244 180.549L115.948 181.269C115.684 181.1 115.402 180.974 115.104 180.885C114.805 180.796 114.511 180.754 114.225 180.754C113.716 180.754 113.334 180.848 113.08 181.032C112.825 181.217 112.697 181.458 112.697 181.752C112.697 181.967 112.769 182.142 112.912 182.278C113.056 182.414 113.233 182.519 113.446 182.594C113.658 182.668 113.947 182.748 114.311 182.832C114.784 182.946 115.164 183.061 115.451 183.173C115.738 183.285 115.985 183.46 116.193 183.694C116.4 183.928 116.503 184.243 116.503 184.638C116.503 184.968 116.414 185.269 116.235 185.543C116.055 185.816 115.782 186.031 115.418 186.19C115.055 186.349 114.605 186.428 114.073 186.428C113.597 186.431 113.14 186.356 112.702 186.211Z" fill="white"/>
<path d="M119.87 180.843H117.715V180.061H122.913V180.843H120.758V186.358H119.87V180.843Z" fill="white"/>
<path d="M58.6233 129.795C58.6233 132.412 56.5082 134.44 53.7774 134.44C51.0491 134.44 48.9316 132.412 48.9316 129.795C48.9316 127.163 51.0467 125.175 53.7774 125.175C56.5082 125.175 58.6233 127.175 58.6233 129.795ZM50.501 129.795C50.501 131.613 52.0028 133.052 53.7914 133.052C55.5801 133.052 57.0422 131.613 57.0422 129.795C57.0422 127.977 55.5801 126.563 53.7914 126.563C51.9888 126.561 50.501 127.974 50.501 129.795Z" fill="white"/>
<path d="M71.4346 126.091L70.7956 127.451C69.8022 126.848 68.8111 126.6 68.1185 126.6C67.2184 126.6 66.6308 126.941 66.6308 127.556C66.6308 129.558 71.5675 128.486 71.5535 131.783C71.5535 133.419 70.117 134.426 68.1069 134.426C66.6704 134.426 65.3132 133.837 64.3711 132.973L65.038 131.638C65.9778 132.503 67.1531 132.973 68.1325 132.973C69.2029 132.973 69.8442 132.566 69.8442 131.86C69.8442 129.818 64.9074 130.958 64.9074 127.698C64.9074 126.128 66.253 125.146 68.2375 125.146C69.4221 125.149 70.5858 125.527 71.4346 126.091Z" fill="white"/>
<path d="M79.532 132.306L78.6575 134.374H77.0508L81.0851 125.214H82.6661L86.6631 134.374H85.0167L84.1423 132.306H79.532ZM81.829 126.861L80.1056 130.932H83.5523L81.829 126.861Z" fill="white"/>
<path d="M96.5854 125.212C99.3278 125.212 101.312 127.135 101.312 129.792C101.312 132.435 99.3138 134.372 96.5457 134.372H92.8379V125.212H96.5854ZM94.3793 132.987H96.625C98.402 132.987 99.7592 131.664 99.7592 129.806C99.7592 127.934 98.3623 126.6 96.5597 126.6H94.3793V132.987Z" fill="white"/>
<path d="M108.979 132.306L108.105 134.374H106.498L110.532 125.214H112.113L116.11 134.374H114.464L113.59 132.306H108.979ZM111.276 126.861L109.553 130.932H113L111.276 126.861Z" fill="white"/>
</svg>
