<svg width="165" height="77" viewBox="0 0 165 77" fill="none" xmlns="http://www.w3.org/2000/svg">
<g clip-path="url(#clip0_580_32590)">
<path d="M31.1855 49.2978V49.7442H19.1619V49.2978L20.9155 49.1072C23.0213 48.8538 23.3711 48.4074 22.0628 46.5638L16.4498 38.3595L13.6421 41.0935V45.9896C13.6421 48.3423 13.9919 48.884 15.9694 49.0746L17.9143 49.2978V49.7442H5.83008V49.2978L7.84023 49.0746C9.81773 48.884 10.2002 48.3423 10.2002 45.9896V31.2363C10.2002 28.8835 9.78508 28.3419 7.84023 28.1512L5.83008 27.9327V27.4863H17.9819V27.9327L15.9718 28.1559C14.1528 28.3465 13.6445 28.8882 13.6445 31.2409V40.1427L21.235 32.6707C24.0427 29.8716 24.3295 28.6325 21.3632 28.2187L19.4814 27.9327V27.4863H30.9639V27.9327L29.4318 28.2187C26.6894 28.7603 24.7446 30.2529 21.7457 33.1473L18.8424 36.0068L25.4442 45.9268C26.8807 48.0564 27.8368 48.7561 29.7816 49.0746L31.1855 49.2978Z" fill="#173559"/>
<path d="M57.2263 49.2983V49.7446H45.0115V49.2983L47.3388 49.0751C49.3163 48.8844 49.5705 48.28 48.8056 45.8645L47.7539 42.5586H40.737L40.1307 44.3068C38.9834 47.6778 39.62 48.6636 42.0756 49.0123L44.1487 49.2983V49.7446H33.1465V49.2983L34.6762 49.0448C37.386 48.5683 38.1532 47.6778 39.4288 44.0209L45.4242 27.1055H46.0306L52.3129 45.8645C53.1104 48.28 53.5884 48.8217 55.5659 49.0751L57.2263 49.2983ZM47.5627 41.9216L45.9373 36.7395C45.268 34.5147 44.8856 33.243 44.5008 31.7156L40.9609 41.9216H47.5627Z" fill="#173559"/>
<path d="M81.0507 43.3842V46.7552C81.0507 48.822 80.0946 50.0611 78.1474 50.0611C76.3308 50.0611 75.1182 48.8848 74.8943 46.1833L74.7031 43.3842C74.3836 39.5366 73.0451 38.9647 70.3983 38.9647H67.3364V45.9904C67.3364 48.3431 67.7515 48.8522 69.6964 49.0754L71.7695 49.2986V49.745H59.5547V49.2986L61.5648 49.0754C63.5423 48.8848 63.9248 48.3756 63.9248 45.9904V31.237C63.9248 28.8843 63.5423 28.3426 61.5648 28.152L59.5547 27.9288V27.4824H70.9719C76.6176 27.4824 79.5512 29.6445 79.5512 32.8551C79.5512 35.8751 77.0327 38.0697 72.9168 38.5137V38.6416C76.6153 40.1667 77.8606 41.5662 78.2756 44.6513L78.5625 46.8134C78.721 47.9572 78.9449 48.371 79.4556 48.371C79.9663 48.371 80.2205 47.9246 80.3487 46.718L80.6029 43.3796H81.0507V43.3842ZM70.4636 38.3301C73.9079 38.2975 75.6312 36.5493 75.6312 33.1155C75.6312 29.5539 73.9405 28.1241 70.5289 28.1241H69.5728C68.0104 28.1241 67.3411 28.5054 67.3411 30.414V38.3626L70.4636 38.3301Z" fill="#173559"/>
<path d="M117.599 27.4863V27.9327L116.165 28.2187C113.423 28.7603 112.625 29.4903 111.413 33.1798L105.8 50.1278H105.226L100.252 32.4173L94.4453 50.1255H93.8716L88.641 31.3665C87.9391 28.8859 87.3328 28.4093 85.3553 28.1559L83.6973 27.9327V27.4863H94.8907V27.9327L93.4565 28.1559C91.542 28.4418 91.479 28.8882 92.0853 31.3665L94.317 40.6193C94.795 42.5582 95.0516 43.6392 95.4014 45.2294L99.867 31.0805C99.1978 28.8557 98.5915 28.4418 96.7422 28.1233L95.4666 27.9327V27.4863H106.343V27.9327L104.909 28.1559C102.931 28.4418 102.803 28.8882 103.409 31.3665L105.641 40.6193C106.119 42.5582 106.406 43.6718 106.758 45.2294L110.68 32.8939C111.732 29.588 111.191 28.665 108.735 28.221L107.077 27.935V27.4887H117.599V27.4863Z" fill="#173559"/>
<path d="M120.758 49.2986L122.768 49.0754C124.745 48.8848 125.128 48.3431 125.128 45.9904V31.237C125.128 28.8843 124.745 28.3426 122.768 28.152L120.758 27.9288V27.4824H132.91V27.9288L130.899 28.152C129.081 28.3426 128.572 28.8843 128.572 31.237V45.9904C128.572 48.3431 128.922 48.8848 130.899 49.0754L132.91 49.2986V49.7449H120.758V49.2986Z" fill="#173559"/>
<path d="M159.17 49.2983V49.7446H146.955V49.2983L149.282 49.0751C151.26 48.8844 151.514 48.28 150.749 45.8645L149.697 42.5586H142.68L142.074 44.3068C140.927 47.6778 141.563 48.6636 144.019 49.0123L146.092 49.2983V49.7446H135.09V49.2983L136.62 49.0448C139.329 48.5683 140.097 47.6778 141.372 44.0209L147.368 27.1055H147.974L154.256 45.8645C155.054 48.28 155.532 48.8217 157.509 49.0751L159.17 49.2983ZM149.506 41.9216L147.881 36.7395C147.211 34.5147 146.829 33.243 146.446 31.7156L142.907 41.9216H149.506Z" fill="#173559"/>
<path d="M46.2107 64.9143C46.5768 65.1165 46.8613 65.4002 47.0688 65.7652C47.2764 66.1302 47.379 66.551 47.379 67.0276C47.379 67.5041 47.2764 67.9273 47.0688 68.2946C46.8613 68.6619 46.5768 68.9455 46.2107 69.1501C45.8446 69.3524 45.4318 69.4547 44.9724 69.4547C44.6203 69.4547 44.2961 69.3873 44.0023 69.2478C43.7085 69.1106 43.466 68.9107 43.2747 68.648V69.3989H42.4492V62.7568H43.312V65.3699C43.5033 65.1189 43.7435 64.9306 44.0303 64.8027C44.3171 64.6748 44.6319 64.6097 44.9724 64.6097C45.4318 64.612 45.8446 64.712 46.2107 64.9143ZM45.721 68.4899C45.9635 68.3504 46.1547 68.1528 46.2946 67.8994C46.4345 67.646 46.5068 67.3554 46.5068 67.0276C46.5068 66.6998 46.4369 66.4091 46.2946 66.1557C46.1547 65.9023 45.9635 65.707 45.721 65.5699C45.4784 65.4327 45.2056 65.363 44.9001 65.363C44.6016 65.363 44.3288 65.4304 44.0839 65.5699C43.8391 65.707 43.6478 65.9023 43.5103 66.1557C43.3727 66.4091 43.305 66.6998 43.305 67.0276C43.305 67.3554 43.3727 67.646 43.5103 67.8994C43.6478 68.1528 43.8391 68.3504 44.0839 68.4899C44.3288 68.6294 44.6016 68.6991 44.9001 68.6991C45.2056 68.7014 45.4784 68.6317 45.721 68.4899Z" fill="#173559"/>
<path d="M53.5439 64.6562L51.2376 69.8732C51.0347 70.3567 50.7969 70.6961 50.524 70.8938C50.2512 71.0914 49.9247 71.189 49.5423 71.189C49.3091 71.189 49.0829 71.1518 48.8637 71.0774C48.6445 71.003 48.4649 70.8938 48.3203 70.7496L48.6888 70.1056C48.9336 70.3381 49.2181 70.4544 49.5423 70.4544C49.7521 70.4544 49.927 70.3986 50.0669 70.2893C50.2069 70.18 50.3351 69.9894 50.4494 69.722L50.6033 69.3919L48.5022 64.6562H49.4L51.0604 68.4504L52.7021 64.6562H53.5439Z" fill="#173559"/>
<path d="M59.151 69.2522C58.7103 69.1057 58.3651 68.9174 58.1133 68.6826L58.4444 67.9851C58.6846 68.199 58.9901 68.3734 59.3655 68.5082C59.7387 68.6431 60.1234 68.7105 60.5199 68.7105C61.0399 68.7105 61.4293 68.6221 61.6858 68.4454C61.9424 68.2688 62.0729 68.0363 62.0729 67.7433C62.0729 67.5295 62.003 67.3551 61.8607 67.2203C61.7208 67.0854 61.5459 66.9831 61.3407 66.9111C61.1355 66.839 60.8417 66.7599 60.4662 66.6693C59.9928 66.5554 59.6127 66.4438 59.3212 66.3299C59.0321 66.2159 58.7826 66.0416 58.575 65.8068C58.3698 65.572 58.2649 65.2535 58.2649 64.8536C58.2649 64.5188 58.3535 64.2189 58.5307 63.9492C58.7079 63.6819 58.9738 63.4657 59.3352 63.3053C59.6944 63.1449 60.1398 63.0635 60.6738 63.0635C61.0446 63.0635 61.4107 63.1123 61.7698 63.2076C62.1289 63.3029 62.4367 63.4401 62.6932 63.6191L62.3971 64.3352C62.1336 64.1678 61.8514 64.0422 61.5529 63.9539C61.2544 63.8655 60.9606 63.8237 60.6738 63.8237C60.1654 63.8237 59.783 63.9167 59.5288 64.1004C59.2746 64.284 59.1463 64.5235 59.1463 64.8164C59.1463 65.0303 59.2186 65.2046 59.3609 65.3395C59.5055 65.4743 59.6827 65.5789 59.8949 65.6533C60.1071 65.7277 60.3963 65.8068 60.7601 65.8905C61.2334 66.0044 61.6136 66.1183 61.9004 66.2299C62.1872 66.3415 62.4344 66.5158 62.6419 66.7483C62.8495 66.9808 62.9521 67.2947 62.9521 67.6876C62.9521 68.0154 62.8635 68.3153 62.6839 68.5873C62.5044 68.8593 62.2315 69.0732 61.8677 69.2312C61.5039 69.3893 61.0539 69.4684 60.5222 69.4684C60.0488 69.4707 59.5917 69.3963 59.151 69.2522Z" fill="#173559"/>
<path d="M69.1663 67.8322H65.827L65.1367 69.3992H64.2109L67.0559 63.1338H67.9444L70.7987 69.3992H69.8566L69.1663 67.8322ZM68.8515 67.1162L67.4967 64.0451L66.1418 67.1162H68.8515Z" fill="#173559"/>
<path d="M77.7582 63.1338L75.0018 69.3992H74.1134L71.3477 63.1338H72.3177L74.5797 68.2809L76.8604 63.1338H77.7582Z" fill="#173559"/>
<path d="M84.0144 68.6204V69.3992H79.4531V63.1338H83.8885V63.9126H80.3509V65.8376H83.5014V66.5978H80.3509V68.6204H84.0144Z" fill="#173559"/>
<path d="M86.3672 63.1338H87.265V69.3992H86.3672V63.1338Z" fill="#173559"/>
<path d="M95.4523 63.1338V69.3992H94.7154L90.9447 64.7263V69.3992H90.0469V63.1338H90.7838L94.5545 67.8067V63.1338H95.4523Z" fill="#173559"/>
<path d="M103.631 63.1338L100.875 69.3992H99.9864L97.2207 63.1338H98.1908L100.453 68.2809L102.733 63.1338H103.631Z" fill="#173559"/>
<path d="M109.887 68.6204V69.3992H105.326V63.1338H109.762V63.9126H106.224V65.8376H109.374V66.5978H106.224V68.6204H109.887Z" fill="#173559"/>
<path d="M112.702 69.2522C112.261 69.1057 111.916 68.9174 111.664 68.6826L111.995 67.9851C112.235 68.199 112.541 68.3734 112.916 68.5082C113.289 68.6431 113.674 68.7105 114.071 68.7105C114.591 68.7105 114.98 68.6221 115.237 68.4454C115.493 68.2688 115.624 68.0363 115.624 67.7433C115.624 67.5295 115.554 67.3551 115.411 67.2203C115.272 67.0854 115.097 66.9831 114.891 66.9111C114.686 66.839 114.392 66.7599 114.017 66.6693C113.544 66.5554 113.164 66.4438 112.872 66.3299C112.583 66.2159 112.333 66.0416 112.126 65.8068C111.921 65.572 111.816 65.2535 111.816 64.8536C111.816 64.5188 111.904 64.2189 112.081 63.9492C112.259 63.6819 112.525 63.4657 112.886 63.3053C113.245 63.1449 113.691 63.0635 114.225 63.0635C114.595 63.0635 114.961 63.1123 115.321 63.2076C115.68 63.3029 115.987 63.4401 116.244 63.6191L115.948 64.3352C115.684 64.1678 115.402 64.0422 115.104 63.9539C114.805 63.8655 114.511 63.8237 114.225 63.8237C113.716 63.8237 113.334 63.9167 113.08 64.1004C112.825 64.284 112.697 64.5235 112.697 64.8164C112.697 65.0303 112.769 65.2046 112.912 65.3395C113.056 65.4743 113.233 65.5789 113.446 65.6533C113.658 65.7277 113.947 65.8068 114.311 65.8905C114.784 66.0044 115.164 66.1183 115.451 66.2299C115.738 66.3415 115.985 66.5158 116.193 66.7483C116.4 66.9808 116.503 67.2947 116.503 67.6876C116.503 68.0154 116.414 68.3153 116.235 68.5873C116.055 68.8593 115.782 69.0732 115.418 69.2312C115.055 69.3893 114.605 69.4684 114.073 69.4684C113.597 69.4707 113.14 69.3963 112.702 69.2522Z" fill="#173559"/>
<path d="M119.87 63.9126H117.715V63.1338H122.913V63.9126H120.758V69.3992H119.87V63.9126Z" fill="#173559"/>
<path d="M58.6233 13.1264C58.6233 15.7302 56.5082 17.7482 53.7774 17.7482C51.0491 17.7482 48.9316 15.7302 48.9316 13.1264C48.9316 10.5087 51.0467 8.53027 53.7774 8.53027C56.5082 8.53027 58.6233 10.5203 58.6233 13.1264ZM50.501 13.1264C50.501 14.9352 52.0028 16.3673 53.7914 16.3673C55.5801 16.3673 57.0422 14.9352 57.0422 13.1264C57.0422 11.3177 55.5801 9.91122 53.7914 9.91122C51.9888 9.9089 50.501 11.3154 50.501 13.1264Z" fill="#173559"/>
<path d="M71.4346 9.44118L70.7956 10.7942C69.8022 10.1944 68.8111 9.94799 68.1185 9.94799C67.2184 9.94799 66.6308 10.2874 66.6308 10.8988C66.6308 12.8912 71.5675 11.8241 71.5535 15.1044C71.5535 16.7318 70.117 17.7338 68.1069 17.7338C66.6704 17.7338 65.3132 17.148 64.3711 16.2878L65.038 14.9603C65.9778 15.8205 67.1531 16.2878 68.1325 16.2878C69.2029 16.2878 69.8442 15.8833 69.8442 15.1812C69.8442 13.1493 64.9074 14.2838 64.9074 11.0407C64.9074 9.47838 66.253 8.50195 68.2375 8.50195C69.4221 8.50428 70.5858 8.88089 71.4346 9.44118Z" fill="#173559"/>
<path d="M79.532 15.6252L78.6575 17.6827H77.0508L81.0851 8.56934H82.6661L86.6631 17.6827H85.0168L84.1423 15.6252H79.532ZM81.829 10.2083L80.1056 14.2582H83.5523L81.829 10.2083Z" fill="#173559"/>
<path d="M96.5854 8.56738C99.3277 8.56738 101.312 10.4807 101.312 13.124C101.312 15.7534 99.3138 17.6807 96.5457 17.6807H92.8379V8.56738H96.5854ZM94.3793 16.3021H96.625C98.402 16.3021 99.7592 14.9862 99.7592 13.138C99.7592 11.2758 98.3623 9.94833 96.5597 9.94833H94.3793V16.3021Z" fill="#173559"/>
<path d="M108.979 15.6252L108.105 17.6827H106.498L110.532 8.56934H112.113L116.11 17.6827H114.464L113.59 15.6252H108.979ZM111.276 10.2083L109.553 14.2582H113L111.276 10.2083Z" fill="#173559"/>
</g>
<defs>
<clipPath id="clip0_580_32590">
<rect width="165" height="77" fill="white"/>
</clipPath>
</defs>
</svg>
