<svg width="150" height="180" viewBox="0 0 150 180" fill="none" xmlns="http://www.w3.org/2000/svg">
<path d="M113.673 19.3916L112.019 21.4104C117.478 29.2525 120.359 38.4628 120.359 48.1115C120.359 58.9945 116.591 69.5038 109.727 77.835L111.132 80.0799C118.701 71.1972 122.866 59.862 122.866 48.1115C122.868 37.7061 119.688 27.7828 113.673 19.3916Z" fill="white"/>
<path d="M70.7572 59.3896L71.1016 58.1853C77.9132 37.649 98.6672 15.6107 114.195 10.2303L114.334 10.085C84.8958 18.2132 69.8402 39.5801 62.5769 61.4776L62.4629 61.9506L70.7572 59.3896Z" fill="white"/>
<path d="M102.835 72.9238C88.7899 66.1476 70.8828 62.2046 55.4735 61.3232L44.9141 60.7188L45.181 61.3163C49.8824 71.8002 57.7228 80.526 67.5934 86.257H110.126C107.142 82.1941 104.678 77.7158 102.835 72.9238Z" fill="white"/>
<path d="M92.8796 90.2088C87.3249 92.5921 81.3072 93.8403 75.2257 93.8403C50.3268 93.8403 30.0678 73.3525 30.0678 48.1672C30.0678 22.9819 50.3245 2.49407 75.2257 2.49407C83.7526 2.49407 91.999 4.89124 99.171 9.43871C100.02 9.0165 100.884 8.60812 101.765 8.21129L101.785 8.17899C93.9221 2.82861 84.7381 0 75.2234 0C48.965 0 27.5996 21.6091 27.5996 48.1672C27.5996 74.7253 48.965 96.3344 75.2234 96.3344C83.3671 96.3344 91.4059 94.2187 98.4684 90.2157L98.4638 90.2065H92.8796V90.2088Z" fill="white"/>
<path d="M97.5009 52.4082C97.5009 34.9636 105.23 19.3485 117.409 8.86464L117.454 8.72852C99.3715 18.5941 81.8179 38.219 75.2824 57.9201L75.1113 58.6053L97.5694 53.6818C97.5237 52.7358 97.5009 53.3657 97.5009 52.4082Z" fill="white"/>
<path d="M35.1284 125.832V126.93H28.7891V118.096H34.955V119.194H30.0391V121.907H34.419V122.98H30.0391V125.832H35.1284Z" fill="white"/>
<path d="M49.147 118.094V126.928H48.1227L42.8806 120.339V126.928H41.6328V118.094H42.6571L47.8992 124.683V118.094H49.147Z" fill="white"/>
<path d="M59.2216 123.003L57.6247 124.644V126.928H56.377V118.094H57.6247V123.029L62.3673 118.094H63.7907L60.0587 122.069L64.028 126.928H62.568L59.2216 123.003Z" fill="white"/>
<path d="M70.0977 118.094H71.3455V125.832H76.0743V126.93H70.0977V118.094Z" fill="white"/>
<path d="M88.4747 124.72H83.8326L82.8722 126.928H81.5879L85.5434 118.094H86.7798L90.7491 126.928H89.4397L88.4747 124.72ZM88.0367 123.712L86.1525 119.383L84.2683 123.712H88.0367Z" fill="white"/>
<path d="M108.39 118.094L105.47 126.928H104.161L101.777 119.873L99.393 126.928H98.0586L95.1387 118.094H96.423L98.7817 125.276L101.241 118.094H102.388L104.797 125.313L107.206 118.094H108.39Z" fill="white"/>
<path d="M119.67 124.72H115.028L114.067 126.928H112.783L116.739 118.094H117.975L121.944 126.928H120.635L119.67 124.72ZM119.234 123.712L117.35 119.383L115.466 123.712H119.234Z" fill="white"/>
<path d="M24.8031 158.276V158.719H13.0414V158.276L14.7568 158.087C16.8167 157.835 17.1589 157.392 15.8792 155.563L10.3884 147.421L7.64189 150.134V154.993C7.64189 157.328 7.98406 157.865 9.91849 158.054L11.821 158.276V158.719H0V158.276L1.96636 158.054C3.90079 157.865 4.2749 157.328 4.2749 154.993V140.351C4.2749 138.017 3.86885 137.479 1.96636 137.29L0 137.073V136.63H11.8871V137.073L9.92077 137.294C8.14147 137.484 7.64417 138.021 7.64417 140.356V149.19L15.0694 141.775C17.8159 138.997 18.0965 137.767 15.1948 137.357L13.3539 137.073V136.63H24.5864V137.073L23.0876 137.357C20.405 137.894 18.5025 139.375 15.5689 142.248L12.7289 145.086L19.1868 154.931C20.592 157.044 21.5273 157.738 23.4298 158.054L24.8031 158.276Z" fill="white"/>
<path d="M50.276 158.275V158.718H38.3272V158.275L40.6038 158.054C42.5383 157.865 42.7869 157.265 42.0387 154.868L41.0099 151.587H34.1459L33.5528 153.322C32.4304 156.667 33.0532 157.646 35.4553 157.992L37.4832 158.275V158.718H26.7207V158.275L28.2171 158.024C30.8679 157.551 31.6184 156.667 32.8661 153.038L38.731 136.251H39.3241L45.4696 154.868C46.2497 157.265 46.7174 157.802 48.6518 158.054L50.276 158.275ZM40.8228 150.955L39.2329 145.812C38.5782 143.604 38.2041 142.342 37.8277 140.826L34.3649 150.955H40.8228Z" fill="white"/>
<path d="M73.5805 152.406V155.752C73.5805 157.803 72.6452 159.032 70.7404 159.032C68.9634 159.032 67.7772 157.865 67.5582 155.184L67.3712 152.406C67.0586 148.588 65.7492 148.02 63.1601 148.02H60.165V154.993C60.165 157.327 60.571 157.833 62.4735 158.054L64.5015 158.276V158.719H52.5527V158.276L54.5191 158.054C56.4535 157.865 56.8276 157.36 56.8276 154.993V140.351C56.8276 138.016 56.4535 137.479 54.5191 137.289L52.5527 137.068V136.625H63.7213C69.244 136.625 72.1137 138.771 72.1137 141.957C72.1137 144.954 69.65 147.132 65.6238 147.573V147.7C69.2417 149.213 70.4598 150.602 70.8659 153.664L71.1465 155.809C71.3016 156.944 71.5206 157.355 72.0202 157.355C72.5197 157.355 72.7684 156.912 72.8938 155.715L73.1425 152.402H73.5805V152.406ZM63.224 147.39C66.5933 147.358 68.2791 145.623 68.2791 142.215C68.2791 138.681 66.6252 137.262 63.2879 137.262H62.3526C60.8242 137.262 60.1695 137.64 60.1695 139.534V147.423L63.224 147.39Z" fill="white"/>
<path d="M109.333 136.63V137.073L107.931 137.357C105.248 137.894 104.468 138.619 103.282 142.28L97.7908 159.1H97.2296L92.3639 141.523L86.6838 159.097H86.1226L81.006 140.481C80.3193 138.019 79.7262 137.546 77.7918 137.294L76.1699 137.073V136.63H87.1195V137.073L85.7166 137.294C83.8437 137.578 83.7822 138.021 84.3753 140.481L86.5583 149.663C87.026 151.587 87.2769 152.66 87.6191 154.238L91.9875 140.197C91.3328 137.989 90.7397 137.578 88.9307 137.262L87.6829 137.073V136.63H98.3223V137.073L96.9194 137.294C94.9849 137.578 94.8595 138.021 95.4526 140.481L97.6356 149.663C98.1033 151.587 98.3839 152.693 98.7283 154.238L102.565 141.996C103.594 138.716 103.065 137.8 100.663 137.359L99.0408 137.075V136.632H109.333V136.63Z" fill="white"/>
<path d="M112.424 158.276L114.39 158.054C116.325 157.865 116.699 157.327 116.699 154.993V140.351C116.699 138.016 116.325 137.479 114.39 137.289L112.424 137.068V136.625H124.311V137.068L122.345 137.289C120.565 137.479 120.068 138.016 120.068 140.351V154.993C120.068 157.327 120.41 157.865 122.345 158.054L124.311 158.276V158.719H112.424V158.276Z" fill="white"/>
<path d="M150.001 158.275V158.718H138.052V158.275L140.328 158.054C142.263 157.865 142.512 157.265 141.763 154.868L140.735 151.587H133.87L133.277 153.322C132.155 156.667 132.778 157.646 135.18 157.992L137.208 158.275V158.718H126.445V158.275L127.942 158.024C130.592 157.551 131.343 156.667 132.591 153.038L138.456 136.251H139.049L145.194 154.868C145.974 157.265 146.442 157.802 148.376 158.054L150.001 158.275ZM140.547 150.955L138.957 145.812C138.303 143.604 137.929 142.342 137.555 140.826L134.092 150.955H140.547Z" fill="white"/>
<path d="M39.4998 173.773C39.858 173.974 40.1363 174.255 40.3393 174.617C40.5423 174.98 40.6427 175.397 40.6427 175.87C40.6427 176.343 40.5423 176.763 40.3393 177.128C40.1363 177.492 39.858 177.774 39.4998 177.977C39.1417 178.177 38.7379 178.279 38.2885 178.279C37.9441 178.279 37.627 178.212 37.3396 178.074C37.0521 177.937 36.8149 177.739 36.6278 177.478V178.223H35.8203V171.632H36.6643V174.225C36.8514 173.976 37.0864 173.789 37.3669 173.662C37.6475 173.535 37.9555 173.471 38.2885 173.471C38.7379 173.471 39.1417 173.572 39.4998 173.773ZM39.0208 177.321C39.258 177.183 39.4451 176.987 39.582 176.735C39.7188 176.484 39.7895 176.195 39.7895 175.87C39.7895 175.545 39.7211 175.256 39.582 175.005C39.4451 174.753 39.258 174.56 39.0208 174.424C38.7835 174.287 38.5166 174.218 38.2178 174.218C37.9258 174.218 37.6589 174.285 37.4194 174.424C37.1799 174.56 36.9928 174.753 36.8582 175.005C36.7237 175.256 36.6575 175.545 36.6575 175.87C36.6575 176.195 36.7237 176.484 36.8582 176.735C36.9928 176.987 37.1799 177.183 37.4194 177.321C37.6589 177.46 37.9258 177.529 38.2178 177.529C38.5166 177.531 38.7835 177.462 39.0208 177.321Z" fill="white"/>
<path d="M46.6743 173.517L44.4182 178.694C44.2197 179.174 43.987 179.511 43.7201 179.707C43.4533 179.903 43.1339 180 42.7598 180C42.5317 180 42.3104 179.963 42.096 179.889C41.8815 179.815 41.7059 179.707 41.5645 179.564L41.9249 178.925C42.1644 179.155 42.4427 179.271 42.7598 179.271C42.9651 179.271 43.1362 179.215 43.273 179.107C43.4099 178.998 43.5354 178.809 43.6472 178.544L43.7977 178.216L41.7424 173.517H42.6206L44.2448 177.282L45.8508 173.517H46.6743Z" fill="white"/>
<path d="M52.1577 178.078C51.7266 177.933 51.3889 177.746 51.1426 177.513L51.4665 176.821C51.7015 177.033 52.0003 177.206 52.3676 177.34C52.7325 177.474 53.1089 177.541 53.4967 177.541C54.0054 177.541 54.3864 177.453 54.6373 177.278C54.8882 177.102 55.016 176.872 55.016 176.581C55.016 176.369 54.9475 176.196 54.8084 176.062C54.6715 175.928 54.5004 175.826 54.2997 175.755C54.099 175.683 53.8115 175.605 53.4443 175.515C52.9812 175.402 52.6094 175.291 52.3242 175.178C52.0414 175.065 51.7973 174.892 51.5942 174.659C51.3935 174.426 51.2909 174.11 51.2909 173.713C51.2909 173.381 51.3775 173.083 51.5509 172.816C51.7243 172.55 51.9843 172.336 52.3379 172.176C52.6892 172.017 53.1249 171.937 53.6473 171.937C54.01 171.937 54.3681 171.985 54.7194 172.08C55.0707 172.174 55.3718 172.31 55.6228 172.488L55.3331 173.199C55.0753 173.032 54.7993 172.908 54.5073 172.82C54.2153 172.733 53.9279 172.691 53.6473 172.691C53.15 172.691 52.7759 172.783 52.5272 172.966C52.2786 173.148 52.1531 173.385 52.1531 173.676C52.1531 173.888 52.2238 174.061 52.363 174.195C52.5044 174.329 52.6778 174.433 52.8854 174.507C53.093 174.581 53.3758 174.659 53.7317 174.742C54.1948 174.855 54.5666 174.968 54.8472 175.079C55.1278 175.19 55.3696 175.363 55.5726 175.593C55.7756 175.824 55.876 176.136 55.876 176.526C55.876 176.851 55.7893 177.148 55.6136 177.418C55.438 177.688 55.1711 177.901 54.8152 178.057C54.4594 178.214 54.0191 178.293 53.499 178.293C53.0359 178.295 52.5888 178.221 52.1577 178.078Z" fill="white"/>
<path d="M61.9549 176.669H58.6883L58.013 178.224H57.1074L59.8904 172.006H60.7596L63.5517 178.224H62.6301L61.9549 176.669ZM61.6469 175.958L60.3216 172.91L58.9962 175.958H61.6469Z" fill="white"/>
<path d="M70.3588 172.006L67.6625 178.224H66.7933L64.0879 172.006H65.0368L67.2496 177.114L69.4805 172.006H70.3588Z" fill="white"/>
<path d="M76.4795 177.451V178.224H72.0176V172.006H76.3564V172.779H72.8958V174.689H75.9777V175.444H72.8958V177.451H76.4795Z" fill="white"/>
<path d="M78.7812 172.006H79.6595V178.224H78.7812V172.006Z" fill="white"/>
<path d="M87.6686 172.006V178.224H86.9477L83.2591 173.586V178.224H82.3809V172.006H83.1017L86.7903 176.643V172.006H87.6686Z" fill="white"/>
<path d="M95.6693 172.006L92.973 178.224H92.1039L89.3984 172.006H90.3474L92.5601 177.114L94.7911 172.006H95.6693Z" fill="white"/>
<path d="M101.79 177.451V178.224H97.3281V172.006H101.667V172.779H98.2064V174.689H101.288V175.444H98.2064V177.451H101.79Z" fill="white"/>
<path d="M104.542 178.078C104.111 177.933 103.774 177.746 103.527 177.513L103.851 176.821C104.086 177.033 104.385 177.206 104.752 177.34C105.117 177.474 105.494 177.541 105.882 177.541C106.39 177.541 106.771 177.453 107.022 177.278C107.273 177.102 107.401 176.872 107.401 176.581C107.401 176.369 107.332 176.196 107.193 176.062C107.056 175.928 106.885 175.826 106.684 175.755C106.484 175.683 106.196 175.605 105.829 175.515C105.366 175.402 104.994 175.291 104.709 175.178C104.426 175.065 104.182 174.892 103.979 174.659C103.778 174.426 103.676 174.11 103.676 173.713C103.676 173.381 103.762 173.083 103.936 172.816C104.109 172.55 104.369 172.336 104.723 172.176C105.074 172.017 105.51 171.937 106.032 171.937C106.395 171.937 106.753 171.985 107.104 172.08C107.456 172.174 107.757 172.31 108.008 172.488L107.718 173.199C107.46 173.032 107.184 172.908 106.892 172.82C106.6 172.733 106.313 172.691 106.032 172.691C105.535 172.691 105.161 172.783 104.912 172.966C104.663 173.148 104.538 173.385 104.538 173.676C104.538 173.888 104.609 174.061 104.748 174.195C104.889 174.329 105.063 174.433 105.27 174.507C105.478 174.581 105.761 174.659 106.116 174.742C106.58 174.855 106.951 174.968 107.232 175.079C107.513 175.19 107.754 175.363 107.957 175.593C108.16 175.824 108.261 176.136 108.261 176.526C108.261 176.851 108.174 177.148 107.998 177.418C107.823 177.688 107.556 177.901 107.2 178.057C106.844 178.214 106.404 178.293 105.884 178.293C105.418 178.295 104.971 178.221 104.542 178.078Z" fill="white"/>
<path d="M111.555 172.779H109.447V172.006H114.532V172.779H112.424V178.224H111.555V172.779Z" fill="white"/>
</svg>
