<svg width="150" height="62" viewBox="0 0 150 62" fill="none" xmlns="http://www.w3.org/2000/svg">
<path d="M35.1284 7.83171V8.92993H28.7891V0.0957031H34.955V1.19393H30.0391V3.90718H34.419V4.98003H30.0391V7.83171H35.1284Z" fill="#0B345A"/>
<path d="M49.147 0.09375V8.92798H48.1227L42.8806 2.33865V8.92798H41.6328V0.09375H42.6571L47.8992 6.68307V0.09375H49.147Z" fill="#0B345A"/>
<path d="M59.2216 5.00345L57.6247 6.64386V8.92798H56.377V0.09375H57.6247V5.02882L62.3673 0.09375H63.7907L60.0587 4.06904L64.028 8.92798H62.568L59.2216 5.00345Z" fill="#0B345A"/>
<path d="M70.0977 0.09375H71.3455V7.83207H76.0743V8.9303H70.0977V0.09375Z" fill="#0B345A"/>
<path d="M88.4747 6.72H83.8326L82.8722 8.92798H81.5879L85.5434 0.09375H86.7798L90.7491 8.92798H89.4397L88.4747 6.72ZM88.0367 5.71176L86.1525 1.38347L84.2683 5.71176H88.0367Z" fill="#0B345A"/>
<path d="M108.39 0.09375L105.47 8.92798H104.161L101.777 1.87259L99.393 8.92798H98.0586L95.1387 0.09375H96.423L98.7817 7.27602L101.241 0.09375H102.388L104.797 7.31295L107.206 0.09375H108.39Z" fill="#0B345A"/>
<path d="M119.67 6.72H115.028L114.067 8.92798H112.783L116.739 0.09375H117.975L121.944 8.92798H120.635L119.67 6.72ZM119.234 5.71176L117.35 1.38347L115.466 5.71176H119.234Z" fill="#0B345A"/>
<path d="M24.8031 40.2759V40.7189H13.0414V40.2759L14.7568 40.0868C16.8167 39.8353 17.1589 39.3923 15.8792 37.5627L10.3884 29.4206L7.64189 32.1339V36.9928C7.64189 39.3277 7.98406 39.8653 9.91849 40.0544L11.821 40.2759V40.7189H0V40.2759L1.96636 40.0544C3.90079 39.8653 4.2749 39.3277 4.2749 36.9928V22.3514C4.2749 20.0165 3.86885 19.4789 1.96636 19.2897L0 19.0729V18.6299H11.8871V19.0729L9.92077 19.2944C8.14147 19.4835 7.64417 20.0211 7.64417 22.356V31.1902L15.0694 23.7749C17.8159 20.9971 18.0965 19.7673 15.1948 19.3567L13.3539 19.0729V18.6299H24.5864V19.0729L23.0876 19.3567C20.405 19.8942 18.5025 21.3754 15.5689 24.2479L12.7289 27.0857L19.1868 36.9305C20.592 39.0439 21.5273 39.7384 23.4298 40.0544L24.8031 40.2759Z" fill="#0B345A"/>
<path d="M50.276 40.2754V40.7184H38.3272V40.2754L40.6038 40.0539C42.5383 39.8647 42.7869 39.2649 42.0387 36.8677L41.0099 33.5869H34.1459L33.5528 35.3219C32.4304 38.6673 33.0532 39.6455 35.4553 39.9916L37.4832 40.2754V40.7184H26.7207V40.2754L28.2171 40.0239C30.8679 39.5509 31.6184 38.6673 32.8661 35.0381L38.731 18.251H39.3241L45.4696 36.8677C46.2497 39.2649 46.7174 39.8024 48.6518 40.0539L50.276 40.2754ZM40.8228 32.9547L39.2329 27.812C38.5782 25.604 38.2041 24.342 37.8277 22.8261L34.3649 32.9547H40.8228Z" fill="#0B345A"/>
<path d="M73.5805 34.4062V37.7516C73.5805 39.8027 72.6452 41.0324 70.7404 41.0324C68.9634 41.0324 67.7772 39.865 67.5582 37.184L67.3712 34.4062C67.0586 30.5878 65.7492 30.0202 63.1601 30.0202H60.165V36.9925C60.165 39.3274 60.571 39.8327 62.4735 40.0542L64.5015 40.2757V40.7187H52.5527V40.2757L54.5191 40.0542C56.4535 39.865 56.8276 39.3597 56.8276 36.9925V22.3511C56.8276 20.0162 56.4535 19.4787 54.5191 19.2895L52.5527 19.068V18.625H63.7213C69.244 18.625 72.1137 20.7707 72.1137 23.9569C72.1137 26.954 69.65 29.1319 65.6238 29.5726V29.6995C69.2417 31.213 70.4598 32.602 70.8659 35.6636L71.1465 37.8093C71.3016 38.9444 71.5206 39.3551 72.0202 39.3551C72.5197 39.3551 72.7684 38.9121 72.8938 37.7147L73.1425 34.4016H73.5805V34.4062ZM63.224 29.3904C66.5933 29.3581 68.2791 27.623 68.2791 24.2153C68.2791 20.6807 66.6252 19.2618 63.2879 19.2618H62.3526C60.8242 19.2618 60.1695 19.6402 60.1695 21.5344V29.4226L63.224 29.3904Z" fill="#0B345A"/>
<path d="M109.333 18.6299V19.0729L107.931 19.3567C105.248 19.8942 104.468 20.6187 103.282 24.2802L97.7908 41.0996H97.2296L92.3639 23.5234L86.6838 41.0973H86.1226L81.006 22.4806C80.3193 20.0188 79.7262 19.5458 77.7918 19.2944L76.1699 19.0729V18.6299H87.1195V19.0729L85.7166 19.2944C83.8437 19.5781 83.7822 20.0211 84.3753 22.4806L86.5583 31.6632C87.026 33.5874 87.2769 34.6602 87.6191 36.2383L91.9875 22.1968C91.3328 19.9888 90.7397 19.5781 88.9307 19.2621L87.6829 19.0729V18.6299H98.3223V19.0729L96.9194 19.2944C94.9849 19.5781 94.8595 20.0211 95.4526 22.4806L97.6356 31.6632C98.1033 33.5874 98.3839 34.6925 98.7283 36.2383L102.565 23.9964C103.594 20.7156 103.065 19.7996 100.663 19.3589L99.0408 19.0752V18.6322H109.333V18.6299Z" fill="#0B345A"/>
<path d="M112.424 40.2757L114.39 40.0542C116.325 39.865 116.699 39.3274 116.699 36.9926V22.3511C116.699 20.0162 116.325 19.4787 114.39 19.2895L112.424 19.068V18.625H124.311V19.068L122.345 19.2895C120.565 19.4787 120.068 20.0162 120.068 22.3511V36.9926C120.068 39.3274 120.41 39.865 122.345 40.0542L124.311 40.2757V40.7187H112.424V40.2757Z" fill="#0B345A"/>
<path d="M150.001 40.2754V40.7184H138.052V40.2754L140.328 40.0539C142.263 39.8647 142.512 39.2649 141.763 36.8677L140.735 33.5869H133.87L133.277 35.3219C132.155 38.6673 132.778 39.6455 135.18 39.9916L137.208 40.2754V40.7184H126.445V40.2754L127.942 40.0239C130.592 39.5509 131.343 38.6673 132.591 35.0381L138.456 18.251H139.049L145.194 36.8677C145.974 39.2649 146.442 39.8024 148.376 40.0539L150.001 40.2754ZM140.547 32.9547L138.957 27.812C138.303 25.604 137.929 24.342 137.555 22.8261L134.092 32.9547H140.547Z" fill="#0B345A"/>
<path d="M39.4998 55.7729C39.858 55.9736 40.1363 56.2551 40.3393 56.6173C40.5423 56.9796 40.6427 57.3972 40.6427 57.8702C40.6427 58.3431 40.5423 58.763 40.3393 59.1276C40.1363 59.4921 39.858 59.7736 39.4998 59.9766C39.1417 60.1774 38.7379 60.2789 38.2885 60.2789C37.9441 60.2789 37.627 60.212 37.3396 60.0735C37.0521 59.9374 36.8149 59.739 36.6278 59.4783V60.2235H35.8203V53.6318H36.6643V56.2251C36.8514 55.9759 37.0864 55.7891 37.3669 55.6622C37.6475 55.5353 37.9555 55.4707 38.2885 55.4707C38.7379 55.4707 39.1417 55.5722 39.4998 55.7729ZM39.0208 59.3214C39.258 59.1829 39.4451 58.9868 39.582 58.7354C39.7188 58.4839 39.7895 58.1955 39.7895 57.8702C39.7895 57.5448 39.7211 57.2564 39.582 57.005C39.4451 56.7535 39.258 56.5597 39.0208 56.4235C38.7835 56.2874 38.5166 56.2182 38.2178 56.2182C37.9258 56.2182 37.6589 56.2851 37.4194 56.4235C37.1799 56.5597 36.9928 56.7535 36.8582 57.005C36.7237 57.2564 36.6575 57.5448 36.6575 57.8702C36.6575 58.1955 36.7237 58.4839 36.8582 58.7354C36.9928 58.9868 37.1799 59.1829 37.4194 59.3214C37.6589 59.4598 37.9258 59.529 38.2178 59.529C38.5166 59.5313 38.7835 59.4621 39.0208 59.3214Z" fill="#0B345A"/>
<path d="M46.6743 55.5166L44.4182 60.6939C44.2197 61.1738 43.987 61.5107 43.7201 61.7068C43.4533 61.9029 43.1339 61.9998 42.7598 61.9998C42.5317 61.9998 42.3104 61.9629 42.096 61.8891C41.8815 61.8152 41.7059 61.7068 41.5645 61.5638L41.9249 60.9247C42.1644 61.1554 42.4427 61.2707 42.7598 61.2707C42.9651 61.2707 43.1362 61.2154 43.273 61.1069C43.4099 60.9985 43.5354 60.8093 43.6472 60.544L43.7977 60.2163L41.7424 55.5166H42.6206L44.2448 59.2819L45.8508 55.5166H46.6743Z" fill="#0B345A"/>
<path d="M52.1577 60.0783C51.7266 59.9329 51.3889 59.746 51.1426 59.513L51.4665 58.8208C51.7015 59.0331 52.0003 59.2061 52.3676 59.34C52.7325 59.4738 53.1089 59.5407 53.4967 59.5407C54.0054 59.5407 54.3864 59.453 54.6373 59.2777C54.8882 59.1023 55.016 58.8716 55.016 58.5809C55.016 58.3686 54.9475 58.1956 54.8084 58.0618C54.6715 57.928 54.5004 57.8264 54.2997 57.7549C54.099 57.6834 53.8115 57.6049 53.4443 57.515C52.9812 57.4019 52.6094 57.2912 52.3242 57.1781C52.0414 57.0651 51.7973 56.892 51.5942 56.659C51.3935 56.426 51.2909 56.1099 51.2909 55.7131C51.2909 55.3808 51.3775 55.0832 51.5509 54.8156C51.7243 54.5502 51.9843 54.3357 52.3379 54.1765C52.6892 54.0173 53.1249 53.9365 53.6473 53.9365C54.01 53.9365 54.3681 53.985 54.7194 54.0796C55.0707 54.1742 55.3718 54.3103 55.6228 54.4879L55.3331 55.1986C55.0753 55.0324 54.7993 54.9079 54.5073 54.8202C54.2153 54.7325 53.9279 54.691 53.6473 54.691C53.15 54.691 52.7759 54.7833 52.5272 54.9655C52.2786 55.1478 52.1531 55.3854 52.1531 55.6761C52.1531 55.8884 52.2238 56.0614 52.363 56.1953C52.5044 56.3291 52.6778 56.4329 52.8854 56.5067C53.093 56.5806 53.3758 56.659 53.7317 56.7421C54.1948 56.8551 54.5666 56.9682 54.8472 57.0789C55.1278 57.1897 55.3696 57.3627 55.5726 57.5934C55.7756 57.8241 55.876 58.1356 55.876 58.5255C55.876 58.8508 55.7893 59.1485 55.6136 59.4184C55.438 59.6883 55.1711 59.9006 54.8152 60.0575C54.4594 60.2144 54.0191 60.2928 53.499 60.2928C53.0359 60.2951 52.5888 60.2213 52.1577 60.0783Z" fill="#0B345A"/>
<path d="M61.9549 58.6687H58.6883L58.013 60.2237H57.1074L59.8904 54.0059H60.7596L63.5517 60.2237H62.6301L61.9549 58.6687ZM61.6469 57.9581L60.3216 54.9103L58.9962 57.9581H61.6469Z" fill="#0B345A"/>
<path d="M70.3588 54.0059L67.6625 60.2237H66.7933L64.0879 54.0059H65.0368L67.2496 59.114L69.4805 54.0059H70.3588Z" fill="#0B345A"/>
<path d="M76.4795 59.4508V60.2237H72.0176V54.0059H76.3564V54.7788H72.8958V56.6891H75.9777V57.4436H72.8958V59.4508H76.4795Z" fill="#0B345A"/>
<path d="M78.7812 54.0059H79.6595V60.2237H78.7812V54.0059Z" fill="#0B345A"/>
<path d="M87.6686 54.0059V60.2237H86.9477L83.2591 55.5863V60.2237H82.3809V54.0059H83.1017L86.7903 58.6433V54.0059H87.6686Z" fill="#0B345A"/>
<path d="M95.6693 54.0059L92.973 60.2237H92.1039L89.3984 54.0059H90.3474L92.5601 59.114L94.7911 54.0059H95.6693Z" fill="#0B345A"/>
<path d="M101.79 59.4508V60.2237H97.3281V54.0059H101.667V54.7788H98.2064V56.6891H101.288V57.4436H98.2064V59.4508H101.79Z" fill="#0B345A"/>
<path d="M104.542 60.0783C104.111 59.9329 103.774 59.746 103.527 59.513L103.851 58.8208C104.086 59.0331 104.385 59.2061 104.752 59.34C105.117 59.4738 105.494 59.5407 105.882 59.5407C106.39 59.5407 106.771 59.453 107.022 59.2777C107.273 59.1023 107.401 58.8716 107.401 58.5809C107.401 58.3686 107.332 58.1956 107.193 58.0618C107.056 57.928 106.885 57.8264 106.684 57.7549C106.484 57.6834 106.196 57.6049 105.829 57.515C105.366 57.4019 104.994 57.2912 104.709 57.1781C104.426 57.0651 104.182 56.892 103.979 56.659C103.778 56.426 103.676 56.1099 103.676 55.7131C103.676 55.3808 103.762 55.0832 103.936 54.8156C104.109 54.5502 104.369 54.3357 104.723 54.1765C105.074 54.0173 105.51 53.9365 106.032 53.9365C106.395 53.9365 106.753 53.985 107.104 54.0796C107.456 54.1742 107.757 54.3103 108.008 54.4879L107.718 55.1986C107.46 55.0324 107.184 54.9079 106.892 54.8202C106.6 54.7325 106.313 54.691 106.032 54.691C105.535 54.691 105.161 54.7833 104.912 54.9655C104.663 55.1478 104.538 55.3854 104.538 55.6761C104.538 55.8884 104.609 56.0614 104.748 56.1953C104.889 56.3291 105.063 56.4329 105.27 56.5067C105.478 56.5806 105.761 56.659 106.116 56.7421C106.58 56.8551 106.951 56.9682 107.232 57.0789C107.513 57.1897 107.754 57.3627 107.957 57.5934C108.16 57.8241 108.261 58.1356 108.261 58.5255C108.261 58.8508 108.174 59.1485 107.998 59.4184C107.823 59.6883 107.556 59.9006 107.2 60.0575C106.844 60.2144 106.404 60.2928 105.884 60.2928C105.418 60.2951 104.971 60.2213 104.542 60.0783Z" fill="#0B345A"/>
<path d="M111.555 54.7788H109.447V54.0059H114.532V54.7788H112.424V60.2237H111.555V54.7788Z" fill="#0B345A"/>
</svg>
